<?xml version="1.0" encoding="utf-8"?>
<!-- Generator: Adobe Illustrator 16.0.0, SVG Export Plug-In . SVG Version: 6.00 Build 0)  -->
<!DOCTYPE svg PUBLIC "-//W3C//DTD SVG 1.1//EN" "http://www.w3.org/Graphics/SVG/1.1/DTD/svg11.dtd">
<svg version="1.1" id="Layer_1" xmlns="http://www.w3.org/2000/svg" xmlns:xlink="http://www.w3.org/1999/xlink" x="0px" y="0px"
	 width="460.4px" height="550px" viewBox="0 0 460.4 454.782" enable-background="new 0 0 460.4 454.782" xml:space="preserve">
<g>
	<g>
		
			<linearGradient id="SVGID_1_" gradientUnits="userSpaceOnUse" x1="325.2969" y1="528.4731" x2="304.9904" y2="103.4856" gradientTransform="matrix(0.9397 0.342 -0.342 0.9397 91.971 -115.0088)">
			<stop  offset="0" style="stop-color:#20126A"/>
			<stop  offset="0.929" style="stop-color:#34238D"/>
		</linearGradient>
		<path fill="url(#SVGID_1_)" d="M299.159,452.971l-144.095-52.446c-15.719-5.721-23.754-23.292-17.947-39.246L257.491,30.552
			c5.807-15.955,23.258-24.25,38.978-18.529L440.563,64.47c15.721,5.723,23.756,23.293,17.95,39.247L338.138,434.445
			C332.331,450.399,314.881,458.694,299.159,452.971z"/>
		<path fill="#FFFFFF" d="M431.066,74.231l-16.11-5.865l-0.306,0.84c-2.363,6.49-9.461,9.865-15.856,7.537L317.6,47.19
			c-6.396-2.328-9.665-9.476-7.303-15.966l0.305-0.838l-13.133-4.781c-12.958-4.716-27.342,2.122-32.127,15.271L149.767,358.415
			c-4.786,13.151,1.837,27.635,14.795,32.353l133.597,48.624c12.958,4.717,27.343-2.121,32.129-15.272L445.862,106.58
			C450.648,93.431,444.024,78.948,431.066,74.231z"/>
	</g>
	<path fill="#FFFFFF" d="M364.163,269.904l-95.792-34.865c-1.076-0.392-1.626-1.593-1.229-2.686l0,0
		c0.397-1.09,1.591-1.659,2.668-1.268l95.791,34.866c1.075,0.391,1.625,1.593,1.228,2.686l0,0
		C366.432,269.728,365.238,270.295,364.163,269.904z"/>
	
		<text transform="matrix(0.9235 0.3361 -0.342 0.9397 334.7686 83.2876)" opacity="0.49" fill="#0E0E63" font-family="'Montserrat-Bold'" font-size="5.2085">Lorem Ipsum</text>
	<g>
		<g>
			<g>
				<path fill="#0E0E63" d="M278.439,68.733c-0.071-0.026-0.131-0.078-0.169-0.149l-3.15-6.078c-0.04-0.081-0.048-0.174-0.017-0.26
					c0.033-0.083,0.098-0.153,0.182-0.186l6.433-2.59c0.16-0.066,0.344,0.015,0.405,0.178c0.064,0.161-0.016,0.347-0.176,0.414
					l-6.108,2.458l2.987,5.764c0.08,0.154,0.021,0.348-0.133,0.431C278.611,68.756,278.521,68.762,278.439,68.733z"/>
			</g>
		</g>
		<g>
			<g>
				<path fill="#0E0E63" d="M424.251,113.52l-8.766-3.19c-0.163-0.06-0.245-0.241-0.185-0.407c0.061-0.164,0.24-0.251,0.403-0.192
					l8.765,3.19c0.162,0.06,0.244,0.241,0.186,0.407C424.594,113.493,424.412,113.578,424.251,113.52z"/>
			</g>
			<g>
				<path fill="#0E0E63" d="M423.281,116.18l-8.764-3.19c-0.163-0.059-0.246-0.24-0.186-0.406c0.06-0.165,0.241-0.251,0.403-0.193
					l8.764,3.19c0.163,0.06,0.247,0.243,0.187,0.406C423.625,116.154,423.444,116.24,423.281,116.18z"/>
			</g>
			<g>
				<path fill="#0E0E63" d="M422.313,118.842l-8.765-3.189c-0.163-0.06-0.245-0.242-0.186-0.408c0.062-0.164,0.24-0.251,0.403-0.192
					l8.766,3.19c0.162,0.059,0.244,0.242,0.186,0.407C422.656,118.816,422.476,118.902,422.313,118.842z"/>
			</g>
		</g>
		<g>
			<g opacity="0.46">
				<g>
					<g>
						
							<ellipse transform="matrix(0.3414 -0.9399 0.9399 0.3414 192.8017 448.2073)" fill="#0E0E63" cx="416.245" cy="86.519" rx="0.523" ry="0.516"/>
						<path fill="#0E0E63" d="M417.834,85.755c-0.004-0.009-0.009-0.02-0.014-0.028l-0.016-0.029
							c-0.002-0.005-0.005-0.009-0.006-0.014c-0.417-0.806-1.385-1.133-2.205-0.744l-0.096,0.045l-0.134,0.064
							c-0.161,0.078-0.232,0.272-0.158,0.436c0.075,0.165,0.267,0.236,0.429,0.158l0.231-0.11c0.521-0.248,1.139-0.021,1.378,0.501
							l0.076,0.164c0.076,0.162,0.267,0.231,0.429,0.154c0.077-0.037,0.137-0.103,0.167-0.183c0.029-0.083,0.025-0.172-0.009-0.249
							L417.834,85.755z"/>
						<path fill="#0E0E63" d="M418.882,85.449l-0.063-0.14c0-0.001,0-0.001-0.001-0.002l-0.049-0.11
							c-0.009-0.019-0.022-0.037-0.034-0.053c-0.689-1.282-2.255-1.82-3.595-1.213c-0.004,0.003-0.011,0.004-0.019,0.006
							l-0.249,0.12c-0.149,0.069-0.212,0.248-0.145,0.396c0.069,0.149,0.244,0.215,0.392,0.144l0.248-0.118
							c0.003-0.001,0.003-0.003,0.006-0.003c1.087-0.492,2.357-0.034,2.881,1.03l0.09,0.196c0.07,0.15,0.245,0.214,0.393,0.143
							C418.884,85.775,418.949,85.597,418.882,85.449z"/>
					</g>
				</g>
			</g>
			
				<text transform="matrix(0.9259 0.337 -0.342 0.9397 278.5488 37.3853)" opacity="0.48" fill="#0E0E63" font-family="'Quicksand-Regular'" font-size="4.7899">10:30 AM</text>
			<g opacity="0.48">
				
					<text transform="matrix(0.9259 0.337 -0.342 0.9397 420.5293 88.6011)" fill="#0E0E63" font-family="'Quicksand-Regular'" font-size="4.5327">85%</text>
				<path fill="#0E0E63" d="M432.355,93.368c-0.211-0.076-0.322-0.298-0.251-0.494l1.007-2.782c0.071-0.194,0.301-0.291,0.509-0.217
					l6.364,2.303c0.208,0.078,0.32,0.298,0.254,0.495l-0.211,0.576l0.492,0.173l-0.592,1.643l-0.494-0.177l-0.205,0.567
					c-0.07,0.196-0.299,0.292-0.509,0.218L432.355,93.368z M440.01,92.473l-6.596-2.389l-1.086,2.991l6.599,2.388L440.01,92.473z
					 M433.568,90.455l4.799,1.738l-0.882,2.435l-4.797-1.741L433.568,90.455z"/>
			</g>
		</g>
	</g>
	<g>
		<g opacity="0.54">
			
				<linearGradient id="SVGID_2_" gradientUnits="userSpaceOnUse" x1="302.79" y1="293.4653" x2="312.292" y2="293.4653" gradientTransform="matrix(0.9397 0.342 -0.342 0.9397 91.971 -115.0088)">
				<stop  offset="0" style="stop-color:#FD8F7E"/>
				<stop  offset="0.1512" style="stop-color:#FD847E"/>
				<stop  offset="0.7019" style="stop-color:#FD6280"/>
				<stop  offset="1" style="stop-color:#FD5580"/>
			</linearGradient>
			<path fill="url(#SVGID_2_)" d="M280.168,261.026c3.39-0.254,6.184,3.945,4.686,7.043c-1.497,3.099-6.511,3.492-8.411,0.665
				c-1.899-2.829,0.296-7.424,3.683-7.704"/>
		</g>
		<path fill="#F7928C" d="M332.635,193.103c0,0,8.242-3.667,8.04-2.745c-0.201,0.922-1.648,1.118-2.951,2.715
			c0,0,9.531-0.977,9.154-0.133c-0.379,0.844-6.555,1.747-6.579,1.887c-0.023,0.14,6.811-0.467,6.73,0.283
			c-0.078,0.75-6.429,1.291-6.429,1.291s5.934-0.036,5.895,0.768c-0.041,0.805-5.511,0.85-5.511,0.85s4.585,0.007,4.539,0.737
			c-0.029,0.445-11.572,3.688-23.063-1.949C311.152,191.257,332.635,193.103,332.635,193.103"/>
		<path fill="#4147C2" d="M310.908,208.125l4.123,1.405c9.112,8.939,19.08,26.386,13.91,36.255
			c-7.844,14.982-41.712,26.641-41.712,26.641l0.877-17.119c0,0,23.601-9.256,25.11-15.596c1.511-6.34-16.711-19.367-16.711-19.367
			l1.881-16.229L310.908,208.125z"/>
		<polygon fill="#4147C2" points="280.557,310.606 265.65,305.18 281.348,197.167 299.922,203.287 		"/>
		
			<linearGradient id="SVGID_3_" gradientUnits="userSpaceOnUse" x1="304.5928" y1="177.2202" x2="300.8783" y2="234.7945" gradientTransform="matrix(0.9397 0.342 -0.342 0.9397 91.971 -115.0088)">
			<stop  offset="0.05" style="stop-color:#00C1CE"/>
			<stop  offset="1" style="stop-color:#82EBA1"/>
		</linearGradient>
		<path fill="url(#SVGID_3_)" d="M318.589,148.835c0,0-17.43-5.936-23.885,11.062c-6.454,16.997-15.311,39.115-15.311,39.115
			l35.638,10.519l13.957-38.347c3.207-8.809-0.961-18.68-9.564-22.038C319.15,149.039,318.872,148.935,318.589,148.835z"/>
		<g>
			<polygon fill="#241352" points="305.585,184.915 306.089,183.667 325.125,188.884 337.191,174.052 357.26,182.191 
				343.993,198.153 			"/>
			
				<ellipse transform="matrix(0.9265 0.3764 -0.3764 0.9265 95.0712 -114.9611)" fill="#FFFFFF" cx="341.726" cy="185.811" rx="1.603" ry="1.627"/>
			<path opacity="0.6" fill="#FFFFFF" d="M343.807,186.655c-0.473,1.166-1.785,1.735-2.935,1.268
				c-1.149-0.465-1.698-1.788-1.228-2.955c0.473-1.166,1.787-1.735,2.935-1.27C343.729,184.165,344.277,185.488,343.807,186.655z"/>
		</g>
		<g>
			<path fill="#FFAEA6" d="M301.222,151.927c-0.702,0.617-15.549,20.931-13.993,35.77c1.555,14.842,38.523,6.971,38.523,6.971
				l-1.113-7.127c0,0-25.753,0.528-26.583-3.488c-0.828-4.018,10.651-20.341,10.651-20.341L301.222,151.927z"/>
			
				<linearGradient id="SVGID_4_" gradientUnits="userSpaceOnUse" x1="291.7168" y1="176.4639" x2="288.0028" y2="234.031" gradientTransform="matrix(0.9397 0.342 -0.342 0.9397 91.971 -115.0088)">
				<stop  offset="0.05" style="stop-color:#00C1CE"/>
				<stop  offset="1" style="stop-color:#82EBA1"/>
			</linearGradient>
			<path fill="url(#SVGID_4_)" d="M297.816,153.256c-3.439,5.021-8.281,12.91-10.986,20.96l14.992,4.099
				c0,0,11.143-20.97,9.382-24.838c-0.44-0.968,0.155-2.913-0.951-3.509C305.971,147.652,300.605,149.187,297.816,153.256z"/>
		</g>
		<g>
			<path fill="#FFAEA6" d="M320.022,124.113l-2.762,9.816c0,0-3.718-0.805-3.901,2.84c-0.185,3.645,2.76,3.093,2.76,3.093
				s-2.451,8.619,6.996,9.043c9.447,0.422,11.469-13.923,13.569-22.207L320.022,124.113z"/>
			<path fill="#FFAEA6" d="M315.983,137.436l-2.216,13.194c-0.499,2.973,1.56,5.74,4.513,6.071l0,0
				c2.741,0.306,5.262-1.602,5.749-4.353l1.341-7.539L315.983,137.436z"/>
			<g>
				<path fill="#241352" d="M325.352,141.004c0.024-0.01,0.042,0.138,0.222,0.261c0.168,0.116,0.538,0.185,0.854-0.027
					c0.324-0.223,0.502-0.695,0.631-1.231c0.156-0.599,0.307-1.168,0.461-1.763c0.336-1.249,0.653-2.375,0.895-3.188
					c0.242-0.813,0.409-1.31,0.443-1.302c0.034,0.01-0.072,0.523-0.268,1.35c-0.197,0.824-0.486,1.956-0.821,3.207
					c-0.162,0.592-0.319,1.16-0.481,1.757c-0.144,0.533-0.353,1.071-0.76,1.324c-0.419,0.24-0.83,0.115-1.015-0.047
					C325.318,141.167,325.344,140.999,325.352,141.004z"/>
			</g>
			<g>
				<path fill="#241352" d="M326.028,148.68c0.006,0.015-0.112,0.071-0.336,0.147c-0.222,0.077-0.556,0.164-0.972,0.226
					c-0.83,0.13-2.03,0.121-3.257-0.295c-1.228-0.416-2.185-1.142-2.763-1.751c-0.293-0.305-0.502-0.577-0.631-0.772
					c-0.133-0.195-0.191-0.312-0.177-0.322c0.049-0.08,1.24,1.785,3.653,2.598C323.958,149.335,326.038,148.585,326.028,148.68z"/>
			</g>
			<g>
				<path fill="#241352" d="M325.772,143.121c0.017,0.022-0.205,0.226-0.661,0.33c-0.444,0.106-1.148,0.063-1.729-0.387
					c-0.577-0.456-0.79-1.132-0.8-1.593c-0.013-0.472,0.128-0.74,0.152-0.728c0.042,0.009-0.028,0.283,0.029,0.709
					c0.052,0.42,0.275,1.01,0.778,1.405c0.504,0.394,1.124,0.465,1.541,0.411C325.507,143.221,325.754,143.083,325.772,143.121z"/>
			</g>
			<g>
				<path fill="#241352" d="M323.209,140.729c-0.022,0.073-0.382,0.005-0.786,0.144c-0.409,0.127-0.665,0.395-0.725,0.35
					c-0.063-0.03,0.147-0.439,0.647-0.597C322.842,140.461,323.244,140.667,323.209,140.729z"/>
			</g>
			<g>
				<path fill="#241352" d="M315.475,138.003c-0.007,0.026-0.238,0.015-0.527-0.227c-0.138-0.118-0.281-0.333-0.274-0.606
					c-0.018-0.255,0.189-0.632,0.556-0.63c0.229-0.01,0.481,0.14,0.525,0.389l-0.245,0.032c-0.034-0.788-0.02-1.363,0.038-1.366
					c0.06-0.004,0.146,0.563,0.209,1.349l-0.244,0.033c-0.018-0.093-0.141-0.18-0.281-0.175c-0.19-0.005-0.311,0.187-0.321,0.374
					c-0.017,0.189,0.067,0.353,0.167,0.472C315.286,137.88,315.494,137.966,315.475,138.003z"/>
			</g>
			<g>
				<path fill="#241352" d="M331.302,137.047c-0.177-0.021-0.275-0.367-0.224-0.77c0.054-0.405,0.238-0.716,0.416-0.69
					c0.175,0.019,0.276,0.366,0.223,0.769C331.665,136.76,331.479,137.07,331.302,137.047z"/>
			</g>
			<g>
				
					<ellipse transform="matrix(-0.0804 0.9968 -0.9968 -0.0804 484.6082 -178.0021)" fill="#241352" cx="324.414" cy="134.541" rx="0.747" ry="0.323"/>
			</g>
			<path fill="#241352" d="M316.41,133.86c-0.185-2.903,0.389-5.495,1.108-8.32c0.293-1.154,0.671-2.311,1.371-3.271
				c0.696-0.961,1.763-1.71,2.936-1.773c1.678-0.086,3.173,1.204,4.851,1.188c0.859-0.009,1.682-0.362,2.449-0.763
				c0.765-0.401,1.511-0.863,2.333-1.118c0.825-0.258,1.765-0.284,2.5,0.158c0.736,0.444,1.162,1.45,0.781,2.231
				c1.239-1.095,3.097-1.417,4.61-0.796c1.515,0.621,2.615,2.156,2.732,3.807c0.117,1.653-0.754,3.347-2.162,4.208
				c-1.318,0.805-3.015,0.256-4.468,0.755c-3.07,1.053-6.935,0.095-10.36-2.135c-1.485-0.967-3.668-1.037-4.596,0.5
				c-0.343,0.567-1.118,3.031-1.311,3.665c-0.195,0.636-0.468,1.285-0.99,1.688C317.672,134.292,316.842,134.353,316.41,133.86"/>
			<g>
				<path fill="#241352" d="M325.035,132.049c-0.344,0.424-0.758,0.661-1.006,0.655c-0.242-0.038-0.608-0.343-0.863-0.822
					c-0.107-0.242-0.091-0.526,0.102-0.762c0.188-0.235,0.551-0.4,0.951-0.367c0.398,0.037,0.725,0.264,0.862,0.527
					C325.225,131.547,325.188,131.828,325.035,132.049z"/>
			</g>
			<g>
				<path fill="#241352" d="M332.795,133.538c-0.381,0.39-0.874,0.529-1.195,0.457c-0.314-0.096-0.672-0.462-0.807-0.99
					c-0.141-0.516,0.477-1.121,1.315-0.902C332.945,132.331,333.178,133.163,332.795,133.538z"/>
			</g>
		</g>
		<g>
			<path fill="#241352" d="M300.69,177.964c-0.009-0.005,0.036-0.115,0.126-0.324c0.123-0.276,0.257-0.573,0.407-0.905
				c0.411-0.918,0.909-2.029,1.491-3.331c1.242-2.822,2.887-6.749,4.502-11.164c0.775-2.214,1.66-4.303,1.879-6.312
				c0.105-0.998,0.039-1.965-0.254-2.801c-0.27-0.843-0.771-1.525-1.292-2.06c-1.063-1.074-2.278-1.486-3.097-1.623
				c-0.834-0.135-1.309-0.052-1.309-0.085c0,0,0.47-0.12,1.325-0.017c0.837,0.112,2.094,0.502,3.211,1.593
				c0.543,0.542,1.069,1.241,1.364,2.119c0.312,0.867,0.387,1.873,0.287,2.897c-0.215,2.068-1.099,4.163-1.873,6.377
				c-1.618,4.421-3.293,8.346-4.578,11.149c-0.641,1.402-1.185,2.527-1.566,3.299c-0.166,0.325-0.313,0.618-0.451,0.887
				C300.758,177.864,300.699,177.967,300.69,177.964z"/>
		</g>
		<g>
			<path fill="#241352" d="M301.877,178.691c-0.004,0.017-0.218-0.015-0.599-0.087c-0.522-0.112-1.056-0.224-1.604-0.34
				c-1.353-0.303-3.209-0.758-5.248-1.318c-2.04-0.561-3.868-1.118-5.186-1.547c-0.533-0.183-1.047-0.356-1.553-0.528
				c-0.365-0.132-0.563-0.213-0.559-0.229c0.006-0.018,0.216,0.031,0.588,0.131c0.516,0.148,1.037,0.297,1.577,0.448
				c1.611,0.455,3.321,0.94,5.2,1.473c1.889,0.502,3.606,0.96,5.223,1.39c0.544,0.145,1.067,0.283,1.586,0.42
				C301.676,178.608,301.881,178.672,301.877,178.691z"/>
		</g>
		<path fill="#FFAEA6" d="M322.529,187.418c0,0,8.242-3.668,8.041-2.745c-0.203,0.92-1.65,1.118-2.953,2.714
			c0,0,9.532-0.977,9.155-0.132c-0.378,0.843-6.555,1.747-6.578,1.885c-0.023,0.14,6.809-0.464,6.729,0.284
			c-0.078,0.751-6.429,1.291-6.429,1.291s5.935-0.036,5.895,0.768c-0.039,0.803-5.511,0.849-5.511,0.849s4.584,0.01,4.537,0.738
			c-0.025,0.443-13.986,2.046-13.979,2.371C321.438,195.611,322.529,187.418,322.529,187.418"/>
		<g>
			<path fill="#36267A" d="M274.975,305.964c0,0-0.203-5.845,0.216-15.29c0.194-4.724,0.616-10.339,1.231-16.561
				c0.653-6.218,1.523-13.041,2.629-20.172c2.244-14.268,4.873-27.078,6.817-36.336c0.981-4.577,1.78-8.304,2.348-10.956
				c0.276-1.244,0.496-2.235,0.659-2.973c0.152-0.679,0.246-1.033,0.246-1.033s-0.059,0.361-0.197,1.043
				c-0.149,0.741-0.354,1.735-0.607,2.985c-0.549,2.653-1.321,6.386-2.271,10.971c-1.896,9.266-4.495,22.079-6.74,36.336
				c-1.105,7.128-1.982,13.946-2.647,20.156c-0.627,6.217-1.07,11.826-1.286,16.545c-0.153,2.36-0.185,4.495-0.249,6.37
				c-0.075,1.876-0.092,3.49-0.092,4.812c-0.012,1.275-0.021,2.289-0.028,3.041C274.992,305.6,274.975,305.964,274.975,305.964z"/>
		</g>
		<g>
			<path fill="#36267A" d="M281.252,307.741c-0.024,0.07-3.44-1.113-7.629-2.638c-4.189-1.524-7.566-2.814-7.542-2.884
				c0.024-0.065,3.44,1.115,7.63,2.641C277.9,306.384,281.276,307.676,281.252,307.741z"/>
		</g>
		<g>
			<path fill="#36267A" d="M287.256,273.484c-0.018-0.004,0.002-0.276,0.053-0.766c0.048-0.489,0.142-1.197,0.271-2.069
				c0.259-1.744,0.718-4.135,1.278-6.764s1.046-5.01,1.35-6.742c0.127-0.733,0.243-1.412,0.352-2.053
				c0.081-0.484,0.135-0.753,0.151-0.75c0.019,0.003-0.001,0.274-0.053,0.764c-0.047,0.49-0.142,1.197-0.271,2.07
				c-0.258,1.74-0.72,4.135-1.277,6.763c-0.56,2.628-1.046,5.007-1.35,6.741c-0.125,0.735-0.242,1.413-0.352,2.055
				C287.327,273.216,287.273,273.485,287.256,273.484z"/>
		</g>
		<g>
			<path fill="#36267A" d="M300.328,217.022c0,0,0.22,0.103,0.626,0.317c0.468,0.253,1.054,0.571,1.773,0.961
				c1.522,0.858,3.749,2.082,6.292,3.923c2.519,1.837,5.412,4.377,7.446,8.065c0.991,1.837,1.804,3.933,2.06,6.222
				c0.28,2.28-0.042,4.72-0.958,6.982c-0.916,2.268-2.254,4.277-3.779,5.98c-1.509,1.725-3.18,3.185-4.873,4.418
				c-3.419,2.438-6.86,4.027-9.789,5.18c-2.936,1.145-5.376,1.884-7.063,2.382c-1.686,0.493-2.632,0.719-2.632,0.719
				s0.229-0.085,0.673-0.222c0.508-0.157,1.148-0.354,1.932-0.597c1.676-0.524,4.104-1.293,7.025-2.456
				c2.911-1.166,6.33-2.77,9.719-5.2c1.676-1.23,3.329-2.682,4.819-4.39c1.509-1.69,2.83-3.678,3.728-5.908
				c0.903-2.229,1.218-4.615,0.947-6.857c-0.247-2.249-1.042-4.315-2.016-6.136c-1.998-3.649-4.852-6.185-7.346-8.034
				c-2.518-1.853-4.729-3.1-6.235-3.981c-0.708-0.409-1.286-0.74-1.747-1.005C300.531,217.155,300.328,217.022,300.328,217.022z"/>
		</g>
		<g>
			<path fill="#36267A" d="M303.402,205.297c0.018,0.006-0.037,0.242-0.15,0.663c-0.16,0.568-0.326,1.156-0.503,1.78
				c-0.526,1.759-1.109,3.704-1.752,5.842c-0.351,1.121-0.682,2.189-0.999,3.211c-0.162,0.49-0.379,0.975-0.738,1.307
				c-0.346,0.346-0.779,0.508-1.162,0.597c-0.785,0.148-1.418,0.047-1.842-0.018c-0.427-0.073-0.657-0.138-0.654-0.155
				c0.004-0.02,0.241,0.014,0.668,0.056c0.42,0.032,1.054,0.101,1.788-0.063c0.36-0.095,0.752-0.255,1.052-0.57
				c0.317-0.3,0.51-0.746,0.664-1.228c0.31-1.021,0.637-2.089,0.977-3.211c0.669-2.131,1.275-4.069,1.826-5.821
				c0.203-0.615,0.394-1.194,0.579-1.755C303.3,205.518,303.387,205.292,303.402,205.297z"/>
		</g>
		<g opacity="0.31">
			<path fill="#FFFFFF" d="M318.198,160.904c0.026,0.067-0.572,0.379-1.337,0.696c-0.764,0.318-1.404,0.522-1.431,0.455
				c-0.026-0.066,0.572-0.377,1.337-0.695C317.531,161.042,318.172,160.837,318.198,160.904z"/>
		</g>
		<g opacity="0.31">
			
				<ellipse transform="matrix(0.0887 0.9961 -0.9961 0.0887 451.8352 -157.3)" fill="#FFFFFF" cx="311.881" cy="168.276" rx="1.118" ry="0.128"/>
		</g>
		<g opacity="0.31">
			
				<ellipse transform="matrix(0.8635 -0.5043 0.5043 0.8635 -42.212 183.7744)" fill="#FFFFFF" cx="318.412" cy="169.873" rx="1.167" ry="0.13"/>
		</g>
		<g opacity="0.31">
			
				<ellipse transform="matrix(0.9287 0.3708 -0.3708 0.9287 84.2741 -106.2688)" fill="#FFFFFF" cx="318.508" cy="166.036" rx="1.736" ry="0.13"/>
		</g>
		<g opacity="0.31">
			
				<ellipse transform="matrix(-0.7107 0.7035 -0.7035 -0.7107 669.3422 49.7957)" fill="#FFFFFF" cx="324.433" cy="162.515" rx="1.475" ry="0.129"/>
		</g>
		<g opacity="0.31">
			<path fill="#FFFFFF" d="M310.97,158.926c-0.031,0.063-0.606-0.349-0.801-1.158c-0.103-0.395-0.075-0.778-0.012-1.033l0.081-0.311
				l0.092,0.289c0.078,0.238,0.11,0.393,0.078,0.405c-0.033,0.017-0.123-0.11-0.244-0.332l0.174-0.022
				c-0.015,0.244-0.011,0.582,0.081,0.938C310.588,158.424,311.023,158.874,310.97,158.926z"/>
		</g>
		<g opacity="0.31">
			<path fill="#FFFFFF" d="M308.746,149.371c0.027-0.071,0.562,0.094,1.23,0.086c0.674,0,1.207-0.169,1.235-0.097
				c0.028,0.059-0.505,0.356-1.233,0.356C309.246,149.723,308.714,149.43,308.746,149.371z"/>
		</g>
		<g opacity="0.31">
			<path fill="#FFFFFF" d="M313.213,155.538c-0.056,0.041-0.476-0.47-0.771-1.224c-0.302-0.753-0.344-1.42-0.275-1.428
				c0.072-0.015,0.227,0.606,0.515,1.329C312.964,154.94,313.274,155.495,313.213,155.538z"/>
		</g>
		<g opacity="0.31">
			<path fill="#FFFFFF" d="M324.439,156.325c0.039,0.061-0.555,0.516-1.326,1.02c-0.77,0.501-1.427,0.859-1.464,0.799
				c-0.038-0.06,0.554-0.517,1.325-1.019C323.746,156.624,324.401,156.264,324.439,156.325z"/>
		</g>
		<g opacity="0.31">
			
				<ellipse transform="matrix(-0.7449 0.6671 -0.6671 -0.7449 650.0953 77.8165)" fill="#FFFFFF" cx="310.172" cy="163.184" rx="1.45" ry="0.128"/>
		</g>
		<g opacity="0.31">
			<path fill="#FFFFFF" d="M303.194,160.304c-0.042,0.054-0.511-0.32-0.759-0.995c-0.256-0.672-0.15-1.269-0.085-1.258
				c0.075,0.001,0.092,0.552,0.326,1.165C302.9,159.831,303.247,160.251,303.194,160.304z"/>
		</g>
		<g opacity="0.31">
			
				<ellipse transform="matrix(-0.9362 0.3515 -0.3515 -0.9362 643.5535 194.4518)" fill="#FFFFFF" cx="304.124" cy="155.649" rx="1.802" ry="0.131"/>
		</g>
		<g opacity="0.31">
			
				<ellipse transform="matrix(0.6209 0.7839 -0.7839 0.6209 234.6474 -178.4653)" fill="#FFFFFF" cx="301.84" cy="153.37" rx="1.041" ry="0.131"/>
		</g>
		<g opacity="0.31">
			
				<ellipse transform="matrix(-0.4377 0.8991 -0.8991 -0.4377 573.2456 -33.4864)" fill="#FFFFFF" cx="297.093" cy="162.498" rx="1.395" ry="0.129"/>
		</g>
		<g opacity="0.31">
			<path fill="#FFFFFF" d="M297.413,157.513c-0.055-0.043,0.226-0.495,0.63-1.007c0.401-0.513,0.773-0.89,0.829-0.846
				s-0.226,0.496-0.63,1.005C297.842,157.18,297.471,157.558,297.413,157.513z"/>
		</g>
		<g opacity="0.31">
			<path fill="#FFFFFF" d="M301.843,166.988c-0.067,0.024-0.354-0.625-0.64-1.449c-0.287-0.826-0.466-1.516-0.397-1.539
				c0.068-0.025,0.354,0.626,0.64,1.449C301.732,166.275,301.909,166.961,301.843,166.988z"/>
		</g>
		<g opacity="0.31">
			<path fill="#FFFFFF" d="M304.941,165.355c-0.06-0.044,0.393-0.753,0.849-1.675c0.461-0.922,0.752-1.71,0.825-1.688
				c0.063,0.015-0.121,0.857-0.594,1.802C305.553,164.743,304.994,165.398,304.941,165.355z"/>
		</g>
		<g opacity="0.31">
			<path fill="#FFFFFF" d="M295.209,171.477c-0.058,0.043-0.568-0.577-1.139-1.379c-0.572-0.807-0.987-1.492-0.928-1.535
				c0.057-0.043,0.566,0.576,1.139,1.381C294.851,170.749,295.268,171.433,295.209,171.477z"/>
		</g>
		<g opacity="0.31">
			
				<ellipse transform="matrix(-0.3106 0.9505 -0.9505 -0.3106 551.2328 -62.7282)" fill="#FFFFFF" cx="298.363" cy="168.523" rx="1.602" ry="0.128"/>
		</g>
		<g opacity="0.31">
			
				<ellipse transform="matrix(0.971 -0.2391 0.2391 0.971 -32.9446 76.5233)" fill="#FFFFFF" cx="298.916" cy="174.042" rx="2.855" ry="0.13"/>
		</g>
		<g opacity="0.31">
			
				<ellipse transform="matrix(0.9076 0.4199 -0.4199 0.9076 99.6465 -106.9324)" fill="#FFFFFF" cx="292.742" cy="172.901" rx="1.741" ry="0.129"/>
		</g>
		<g opacity="0.31">
			
				<ellipse transform="matrix(-0.3156 0.9489 -0.9489 -0.3156 569.0535 -60.2762)" fill="#FFFFFF" cx="306.265" cy="175.089" rx="1.868" ry="0.129"/>
		</g>
		<g opacity="0.31">
			<path fill="#FFFFFF" d="M314.438,176.755c-0.026,0.06-0.698-0.23-1.339-0.852c-0.642-0.619-0.959-1.281-0.898-1.313
				c0.064-0.041,0.464,0.533,1.08,1.125C313.891,176.31,314.477,176.688,314.438,176.755z"/>
		</g>
		<g opacity="0.31">
			<path fill="#FFFFFF" d="M307.707,179.662c-0.045-0.054,0.507-0.622,1.232-1.269c0.729-0.644,1.355-1.121,1.403-1.068
				c0.046,0.054-0.507,0.62-1.234,1.267C308.381,179.236,307.755,179.715,307.707,179.662z"/>
		</g>
		<g opacity="0.31">
			<path fill="#FFFFFF" d="M320.357,176.507c-0.047,0.048-0.6-0.473-0.982-1.321c-0.389-0.842-0.422-1.611-0.355-1.616
				c0.074-0.012,0.219,0.704,0.588,1.506C319.972,175.882,320.416,176.457,320.357,176.507z"/>
		</g>
		<g opacity="0.31">
			
				<ellipse transform="matrix(-0.7532 0.6578 -0.6578 -0.7532 683.7277 84.563)" fill="#FFFFFF" cx="325.999" cy="170.559" rx="2.023" ry="0.13"/>
		</g>
		<g opacity="0.31">
			<path fill="#FFFFFF" d="M324.839,167.729c-0.074-0.004-0.101-0.556-0.065-1.234c0.037-0.678,0.125-1.224,0.196-1.221
				c0.072,0.002,0.1,0.555,0.063,1.233C324.996,167.185,324.907,167.733,324.839,167.729z"/>
		</g>
		<g opacity="0.31">
			<path fill="#FFFFFF" d="M322.993,181.569c-0.066,0-0.082-0.911,0.206-1.994c0.283-1.081,0.746-1.87,0.806-1.836
				c0.067,0.033-0.283,0.849-0.557,1.902C323.166,180.692,323.069,181.574,322.993,181.569z"/>
		</g>
		<g opacity="0.31">
			<path fill="#FFFFFF" d="M317.902,183.231c-0.036,0.056-0.799-0.441-1.47-1.327c-0.676-0.881-0.955-1.752-0.894-1.774
				c0.07-0.032,0.447,0.766,1.099,1.615C317.284,182.599,317.951,183.169,317.902,183.231z"/>
		</g>
		<g opacity="0.31">
			<path fill="#FFFFFF" d="M310.357,183.674c-0.046-0.057,0.482-0.559,1.179-1.124c0.696-0.563,1.296-0.975,1.339-0.919
				c0.046,0.057-0.482,0.559-1.18,1.123C311,183.32,310.4,183.729,310.357,183.674z"/>
		</g>
		<g opacity="0.31">
			
				<ellipse transform="matrix(-0.3713 0.9285 -0.9285 -0.3713 585.0858 -29.4146)" fill="#FFFFFF" cx="302.501" cy="183.368" rx="1.333" ry="0.129"/>
		</g>
		<g opacity="0.31">
			<path fill="#FFFFFF" d="M286.311,194.106c-0.06,0.035-0.456-0.617-0.725-1.517c-0.275-0.898-0.307-1.664-0.238-1.671
				c0.072-0.011,0.218,0.722,0.481,1.593C286.094,193.384,286.378,194.073,286.311,194.106z"/>
		</g>
		<g opacity="0.31">
			
				<ellipse transform="matrix(0.9276 -0.3736 0.3736 0.9276 -53.3597 120.3645)" fill="#FFFFFF" cx="283.818" cy="197.831" rx="1.722" ry="0.129"/>
		</g>
		<g opacity="0.31">
			<path fill="#FFFFFF" d="M283.635,195.294c-0.064,0.031-0.35-0.465-0.636-1.107c-0.288-0.643-0.467-1.187-0.403-1.217
				c0.066-0.029,0.351,0.466,0.637,1.108C283.52,194.721,283.7,195.265,283.635,195.294z"/>
		</g>
		<g opacity="0.31">
			<path fill="#FFFFFF" d="M286.12,187.566c-0.073-0.014,0.001-0.688,0.025-1.516c0.03-0.829-0.004-1.504,0.07-1.514
				c0.066-0.011,0.216,0.667,0.188,1.52C286.379,186.909,286.187,187.581,286.12,187.566z"/>
		</g>
		<g opacity="0.31">
			<path fill="#FFFFFF" d="M292.719,199.915c0.001,0.067-1.1,0.101-2.401-0.242c-1.303-0.335-2.247-0.901-2.213-0.958
				c0.032-0.071,1.007,0.379,2.28,0.705C291.652,199.753,292.725,199.836,292.719,199.915z"/>
		</g>
		<g opacity="0.31">
			<path fill="#FFFFFF" d="M292.93,197.696c-0.041,0.059-0.758-0.433-1.503-1.199c-0.746-0.763-1.222-1.493-1.169-1.535
				c0.061-0.045,0.618,0.603,1.354,1.352C292.345,197.064,292.977,197.64,292.93,197.696z"/>
		</g>
		<g opacity="0.31">
			
				<ellipse transform="matrix(0.9334 -0.359 0.359 0.9334 -51.2281 120.3139)" fill="#FFFFFF" cx="298.394" cy="198.115" rx="2.135" ry="0.129"/>
		</g>
		<g opacity="0.31">
			
				<ellipse transform="matrix(0.7906 0.6124 -0.6124 0.7906 186.0642 -140.458)" fill="#FFFFFF" cx="298.386" cy="201.802" rx="2.099" ry="0.131"/>
		</g>
		<g opacity="0.31">
			<path fill="#FFFFFF" d="M301.195,200.544c-0.057-0.051,0.324-0.52,0.623-1.184c0.307-0.664,0.41-1.257,0.484-1.251
				c0.066,0.001,0.076,0.648-0.251,1.358C301.73,200.179,301.237,200.595,301.195,200.544z"/>
		</g>
		<g opacity="0.31">
			
				<ellipse transform="matrix(-0.1222 0.9925 -0.9925 -0.1222 543.2583 -78.0513)" fill="#FFFFFF" cx="306.145" cy="201.214" rx="1.642" ry="0.128"/>
		</g>
		<g opacity="0.31">
			<path fill="#FFFFFF" d="M306.766,205.521c-0.023,0.064-1.017-0.278-2.073-1.015c-1.06-0.73-1.732-1.545-1.682-1.587
				c0.056-0.055,0.794,0.66,1.83,1.372C305.871,205.009,306.796,205.453,306.766,205.521z"/>
		</g>
		<g opacity="0.31">
			<path fill="#FFFFFF" d="M314.51,203.544c0.021,0.069-0.757,0.397-1.74,0.738c-0.982,0.339-1.797,0.559-1.818,0.492
				c-0.023-0.07,0.755-0.398,1.737-0.739C313.671,203.696,314.485,203.477,314.51,203.544z"/>
		</g>
		<g opacity="0.31">
			<path fill="#FFFFFF" d="M314.159,200.625c0.038,0.054-0.691,0.588-1.741,0.898c-1.05,0.316-1.942,0.266-1.939,0.202
				c0-0.079,0.857-0.146,1.866-0.452C313.358,200.975,314.121,200.559,314.159,200.625z"/>
		</g>
		<g opacity="0.31">
			
				<ellipse transform="matrix(0.8909 0.4543 -0.4543 0.8909 124.1658 -119.4511)" fill="#FFFFFF" cx="310.698" cy="198.702" rx="1.8" ry="0.13"/>
		</g>
		<g opacity="0.31">
			<path fill="#FFFFFF" d="M315.321,198.312c-0.028-0.06,0.49-0.349,1.201-0.461c0.708-0.112,1.283,0.003,1.276,0.07
				c-0.006,0.075-0.566,0.08-1.24,0.188C315.886,198.214,315.35,198.383,315.321,198.312z"/>
		</g>
		<g opacity="0.31">
			
				<ellipse transform="matrix(-0.0312 0.9995 -0.9995 -0.0312 514.4456 -130.6311)" fill="#FFFFFF" cx="320.529" cy="183.993" rx="1.641" ry="0.128"/>
		</g>
		<path fill="#110B2D" d="M267.011,305.676c0,0,14.799,8.475,14.363,7.322c-0.438-1.153-1.923-2.795-1.923-2.795L267.011,305.676z"
			/>
		<g>
			<path fill="none" stroke="#292442" stroke-miterlimit="10" d="M251.92,315.044"/>
		</g>
		<g>
			<path fill="#DAD7E2" d="M342.253,141.061c-0.389,0.493-5.226,14.356-5.226,14.356l8.764,4.038l-3.003,4.943l7.296-3.493
				l9.431,4.174l6.747-16.25L342.253,141.061z"/>
			<g>
				<path fill="#FFFFFF" d="M354.92,154.45c-0.14,0.605,0.23,1.206,0.828,1.344c0.598,0.136,1.195-0.244,1.336-0.85
					s-0.229-1.206-0.826-1.344C355.66,153.463,355.062,153.844,354.92,154.45z"/>
				<path fill="#FFFFFF" d="M350.081,152.563c-0.14,0.604,0.229,1.208,0.827,1.343c0.598,0.137,1.195-0.243,1.335-0.849
					c0.142-0.604-0.228-1.206-0.826-1.342C350.82,151.577,350.221,151.957,350.081,152.563z"/>
				<path fill="#FFFFFF" d="M345.631,150.625c-0.14,0.606,0.229,1.21,0.826,1.345c0.597,0.136,1.195-0.244,1.337-0.849
					c0.14-0.605-0.23-1.208-0.828-1.343C346.37,149.641,345.771,150.021,345.631,150.625z"/>
			</g>
		</g>
		<g opacity="0.36">
			<g>
				<path fill="#241352" d="M355.225,192.663c-0.034,0.064-0.535-0.179-1.119-0.54c-0.582-0.362-1.021-0.702-0.98-0.762
					c0.038-0.062,0.54,0.183,1.117,0.539C354.819,192.259,355.259,192.6,355.225,192.663z"/>
			</g>
			<g>
				<path fill="#241352" d="M359.736,194.665c-0.021,0.068-0.56-0.076-1.198-0.324c-0.64-0.248-1.136-0.504-1.105-0.568
					c0.029-0.066,0.566,0.08,1.199,0.324C359.264,194.343,359.759,194.598,359.736,194.665z"/>
			</g>
			<g>
				<path fill="#241352" d="M364.566,195.706c-0.007,0.072-0.564,0.043-1.242-0.065c-0.681-0.105-1.215-0.25-1.201-0.321
					c0.018-0.069,0.574-0.04,1.242,0.064C364.035,195.49,364.573,195.632,364.566,195.706z"/>
			</g>
			<g>
				<path fill="#241352" d="M369.505,195.55c0.013,0.07-0.534,0.196-1.221,0.281c-0.687,0.081-1.249,0.021-1.249-0.042
					c0-0.083,0.552-0.135,1.227-0.217C368.937,195.488,369.494,195.479,369.505,195.55z"/>
			</g>
			<g>
				<path fill="#241352" d="M374.227,194.043c0.031,0.064-0.464,0.324-1.107,0.581c-0.645,0.255-1.183,0.407-1.202,0.34
					c-0.02-0.069,0.477-0.33,1.108-0.583C373.658,194.129,374.197,193.979,374.227,194.043z"/>
			</g>
			<g>
				<path fill="#241352" d="M378.335,191.235c0.05,0.052-0.352,0.448-0.896,0.883c-0.543,0.435-1.016,0.74-1.054,0.679
					c-0.039-0.06,0.362-0.456,0.895-0.883C377.814,191.488,378.285,191.183,378.335,191.235z"/>
			</g>
			<g>
				<path fill="#241352" d="M381.32,187.244c0.054,0.024-0.118,0.577-0.522,1.151c-0.384,0.586-0.739,1.026-0.797,0.981
					c-0.054-0.046,0.203-0.545,0.58-1.119C380.977,187.697,381.246,187.207,381.32,187.244z"/>
			</g>
			<g>
				<path fill="#241352" d="M382.63,182.433c0.069,0.002,0.09,0.573-0.03,1.264c-0.118,0.691-0.33,1.222-0.396,1.203
					c-0.07-0.021,0.027-0.569,0.144-1.245C382.463,182.98,382.557,182.428,382.63,182.433z"/>
			</g>
			<g>
				<path fill="#241352" d="M382.095,177.49c0.063-0.023,0.298,0.497,0.437,1.181c0.142,0.685,0.137,1.256,0.066,1.262
					c-0.072,0.008-0.181-0.539-0.318-1.206C382.143,178.057,382.023,177.514,382.095,177.49z"/>
			</g>
			<g>
				<path fill="#241352" d="M379.63,173.225c0.05-0.051,0.486,0.311,0.901,0.871c0.414,0.56,0.636,1.083,0.574,1.116
					c-0.064,0.039-0.379-0.417-0.781-0.959C379.923,173.708,379.577,173.277,379.63,173.225z"/>
			</g>
			<g>
				<path fill="#241352" d="M375.346,170.937c0.004-0.071,0.584-0.076,1.246,0.154c0.663,0.225,1.124,0.564,1.088,0.623
					c-0.035,0.068-0.537-0.161-1.172-0.375C375.875,171.119,375.336,171.012,375.346,170.937z"/>
			</g>
			<g>
				<path fill="#241352" d="M371.17,173.026c-0.063-0.022,0.131-0.593,0.652-1.095c0.514-0.508,1.084-0.677,1.104-0.619
					c0.033,0.074-0.453,0.337-0.926,0.808C371.52,172.579,371.238,173.061,371.17,173.026z"/>
			</g>
			<g>
				<path fill="#241352" d="M371.117,177.902c-0.064,0.027-0.324-0.484-0.457-1.177c-0.137-0.693-0.078-1.272-0.008-1.27
					c0.074,0.001,0.127,0.552,0.26,1.217C371.041,177.338,371.186,177.874,371.117,177.902z"/>
			</g>
			<g>
				<path fill="#241352" d="M374.035,181.828c-0.041,0.056-0.5-0.263-1.021-0.718c-0.482-0.501-0.787-0.983-0.734-1.019
					c0.066-0.049,0.448,0.347,0.914,0.827C373.701,181.363,374.078,181.768,374.035,181.828z"/>
			</g>
			<g>
				<path fill="#241352" d="M378.479,183.908c-0.017,0.069-0.575,0.005-1.228-0.22c-0.655-0.225-1.137-0.523-1.104-0.585
					c0.031-0.066,0.55,0.118,1.188,0.338C377.973,183.659,378.495,183.835,378.479,183.908z"/>
			</g>
			<g>
				<path fill="#241352" d="M383.398,184.179c0.009,0.072-0.544,0.146-1.234,0.169c-0.691,0.021-1.245-0.021-1.239-0.092
					c0.006-0.071,0.557-0.148,1.234-0.169C382.834,184.066,383.391,184.107,383.398,184.179z"/>
			</g>
			<g>
				<path fill="#241352" d="M388.172,182.856c0.029,0.067-0.477,0.313-1.131,0.548c-0.651,0.236-1.195,0.371-1.213,0.3
					c-0.017-0.067,0.489-0.314,1.129-0.546C387.599,182.926,388.143,182.793,388.172,182.856z"/>
			</g>
			<g>
				<path fill="#241352" d="M392.307,180.091c0.048,0.052-0.316,0.49-0.863,0.923c-0.549,0.436-1.052,0.692-1.088,0.634
					c-0.04-0.063,0.395-0.412,0.929-0.838C391.819,180.387,392.257,180.041,392.307,180.091z"/>
			</g>
			<g>
				<path fill="#241352" d="M395.321,176.121c0.063,0.033-0.194,0.535-0.571,1.122c-0.378,0.585-0.731,1.025-0.786,0.98
					c-0.058-0.043,0.199-0.547,0.57-1.124C394.906,176.525,395.26,176.085,395.321,176.121z"/>
			</g>
			<g>
				<path fill="#241352" d="M397.116,171.448c0.07,0.017-0.041,0.571-0.249,1.236c-0.209,0.667-0.43,1.186-0.496,1.161
					c-0.065-0.028,0.047-0.58,0.251-1.238C396.826,171.953,397.047,171.434,397.116,171.448z"/>
			</g>
			<g>
				<path fill="#241352" d="M397.739,166.486c0.071-0.001,0.089,0.562,0.044,1.257c-0.049,0.693-0.146,1.25-0.215,1.24
					c-0.072-0.009-0.09-0.571-0.043-1.256C397.574,167.041,397.669,166.485,397.739,166.486z"/>
			</g>
			<g>
				<path fill="#241352" d="M397.293,161.51c0.07-0.017,0.206,0.529,0.303,1.216c0.098,0.688,0.12,1.251,0.05,1.256
					c-0.072,0.007-0.206-0.538-0.305-1.217C397.243,162.085,397.225,161.524,397.293,161.51z"/>
			</g>
			<g>
				<path fill="#241352" d="M395.845,156.743c0.066-0.029,0.321,0.471,0.569,1.113c0.226,0.655,0.342,1.207,0.274,1.228
					c-0.068,0.021-0.294-0.489-0.515-1.135C395.927,157.311,395.778,156.771,395.845,156.743z"/>
			</g>
			<g>
				<path fill="#241352" d="M393.555,152.331c0.061-0.04,0.388,0.413,0.729,1.013c0.344,0.599,0.569,1.11,0.507,1.143
					c-0.062,0.036-0.389-0.418-0.729-1.011C393.722,152.883,393.496,152.371,393.555,152.331z"/>
			</g>
			<g>
				<path fill="#241352" d="M390.625,148.328c0.055-0.046,0.443,0.352,0.869,0.893c0.424,0.539,0.723,1.014,0.664,1.058
					c-0.057,0.042-0.445-0.357-0.868-0.894C390.868,148.848,390.572,148.374,390.625,148.328z"/>
			</g>
			<g>
				
					<ellipse transform="matrix(-0.7075 -0.7067 0.7067 -0.7075 559.7781 522.8988)" fill="#241352" cx="388.1" cy="145.607" rx="1.24" ry="0.13"/>
			</g>
			<g>
				
					<ellipse transform="matrix(-0.7722 -0.6354 0.6354 -0.7722 590.8661 496.4155)" fill="#241352" cx="384.426" cy="142.282" rx="1.239" ry="0.13"/>
			</g>
			<g>
				<path fill="#241352" d="M379.384,138.728c0.036-0.064,0.535,0.175,1.12,0.534c0.583,0.358,1.022,0.695,0.981,0.755
					c-0.039,0.06-0.54-0.18-1.116-0.533C379.792,139.13,379.35,138.792,379.384,138.728z"/>
			</g>
			<g>
				<path fill="#241352" d="M374.931,136.609c0.026-0.067,0.556,0.102,1.181,0.376s1.107,0.55,1.076,0.614
					c-0.031,0.066-0.56-0.101-1.181-0.374C375.387,136.952,374.902,136.675,374.931,136.609z"/>
			</g>
			<g>
				<path fill="#241352" d="M370.279,134.948c0.02-0.069,0.563,0.05,1.212,0.268c0.649,0.216,1.155,0.445,1.131,0.513
					c-0.024,0.069-0.566-0.05-1.214-0.265C370.764,135.247,370.256,135.018,370.279,134.948z"/>
			</g>
			<g>
				
					<ellipse transform="matrix(-0.9686 -0.2486 0.2486 -0.9686 688.6168 354.8455)" fill="#241352" cx="366.711" cy="133.947" rx="1.236" ry="0.132"/>
			</g>
			<g>
				
					<ellipse transform="matrix(-0.9819 -0.1897 0.1897 -0.9819 692.0144 331.949)" fill="#241352" cx="361.89" cy="132.863" rx="1.236" ry="0.13"/>
			</g>
			<g>
				
					<ellipse transform="matrix(-0.9908 -0.1351 0.1351 -0.9908 692.9194 311.1245)" fill="#241352" cx="357.013" cy="132.058" rx="1.236" ry="0.129"/>
			</g>
			<g>
				
					<ellipse transform="matrix(-0.9969 -0.0786 0.0786 -0.9969 692.7527 290.3357)" fill="#241352" cx="352.093" cy="131.527" rx="1.239" ry="0.132"/>
			</g>
			<g>
				<path fill="#241352" d="M345.905,131.282c0.001-0.072,0.556-0.124,1.242-0.115c0.688,0.01,1.239,0.074,1.236,0.147
					c-0.003,0.071-0.558,0.121-1.242,0.114C346.459,131.418,345.906,131.353,345.905,131.282z"/>
			</g>
			<g>
				<path fill="#241352" d="M340.952,131.532c-0.005-0.071,0.544-0.171,1.229-0.222c0.685-0.052,1.243-0.035,1.245,0.038
					c0.003,0.073-0.548,0.172-1.229,0.221C341.519,131.619,340.958,131.602,340.952,131.532z"/>
			</g>
		</g>
		<g opacity="0.36">
			<g>
				<path fill="#241352" d="M312.22,135.625c-0.035-0.062,0.42-0.394,1.013-0.74c0.593-0.344,1.104-0.575,1.14-0.513
					c0.038,0.061-0.415,0.393-1.013,0.74C312.764,135.459,312.253,135.691,312.22,135.625z"/>
			</g>
			<g>
				
					<ellipse transform="matrix(-0.9034 0.4287 -0.4287 -0.9034 646.8284 128.9498)" fill="#241352" cx="308.892" cy="137.322" rx="1.243" ry="0.128"/>
			</g>
			<g>
				
					<ellipse transform="matrix(-0.936 0.3519 -0.3519 -0.936 638.1705 162.5239)" fill="#241352" cx="304.313" cy="139.267" rx="1.243" ry="0.13"/>
			</g>
			<g>
				
					<ellipse transform="matrix(-0.9622 0.2723 -0.2723 -0.9622 626.2153 194.7393)" fill="#241352" cx="299.595" cy="140.821" rx="1.242" ry="0.129"/>
			</g>
			<g>
				<path fill="#241352" d="M293.551,142.213c-0.01-0.07,0.524-0.234,1.195-0.365c0.669-0.131,1.226-0.182,1.239-0.11
					c0.015,0.069-0.521,0.235-1.194,0.368C294.118,142.236,293.563,142.284,293.551,142.213z"/>
			</g>
			<g>
				<path fill="#241352" d="M288.635,142.852c-0.005-0.07,0.543-0.188,1.221-0.262c0.678-0.075,1.234-0.075,1.244-0.005
					c0.009,0.071-0.538,0.189-1.22,0.264C289.198,142.924,288.641,142.926,288.635,142.852z"/>
			</g>
			<g>
				<path fill="#241352" d="M283.686,143.027c0.003-0.073,0.559-0.134,1.238-0.137c0.682-0.003,1.235,0.051,1.238,0.123
					c0.002,0.072-0.552,0.134-1.239,0.138C284.237,143.153,283.683,143.098,283.686,143.027z"/>
			</g>
			<g>
				<path fill="#241352" d="M278.799,142.322c0.021-0.07,0.574-0.016,1.237,0.119c0.662,0.14,1.19,0.307,1.181,0.377
					c-0.009,0.073-0.563,0.021-1.234-0.119C279.307,142.559,278.779,142.389,278.799,142.322z"/>
			</g>
			<g>
				<path fill="#241352" d="M274.371,140.182c0.046-0.059,0.516,0.229,1.093,0.574c0.58,0.35,1.054,0.632,1.024,0.699
					c-0.03,0.063-0.564-0.119-1.156-0.474C274.739,140.628,274.328,140.237,274.371,140.182z"/>
			</g>
			<g>
				<path fill="#241352" d="M271.201,136.419c0.066-0.031,0.346,0.446,0.719,1.01c0.368,0.565,0.69,1.015,0.636,1.065
					c-0.05,0.049-0.471-0.335-0.853-0.919C271.319,136.993,271.137,136.448,271.201,136.419z"/>
			</g>
			<g>
				<path fill="#241352" d="M270.289,131.56c0.071,0.003,0.093,0.56,0.136,1.241c0.038,0.683,0.089,1.235,0.019,1.25
					c-0.068,0.016-0.236-0.531-0.275-1.231C270.125,132.122,270.221,131.554,270.289,131.56z"/>
			</g>
			<g>
				<path fill="#241352" d="M271.397,126.688c0.066,0.027-0.047,0.578-0.254,1.235c-0.208,0.655-0.432,1.174-0.501,1.158
					c-0.068-0.015,0.044-0.567,0.255-1.234C271.107,127.179,271.332,126.66,271.397,126.688z"/>
			</g>
			<g>
				<path fill="#241352" d="M273.805,122.294c0.059,0.042-0.197,0.543-0.568,1.123c-0.383,0.573-0.705,1.03-0.766,1
					c-0.063-0.035,0.162-0.559,0.549-1.139C273.395,122.692,273.746,122.252,273.805,122.294z"/>
			</g>
			<g>
				<path fill="#241352" d="M277.08,118.521c0.047,0.052-0.301,0.496-0.775,0.992c-0.474,0.494-0.903,0.858-0.958,0.81
					c-0.052-0.046,0.295-0.489,0.775-0.992C276.604,118.83,277.031,118.466,277.08,118.521z"/>
			</g>
			<g>
				<path fill="#241352" d="M281.021,115.464c0.039,0.061-0.386,0.43-0.948,0.823c-0.562,0.393-1.051,0.667-1.095,0.61
					c-0.044-0.059,0.381-0.425,0.95-0.825C280.494,115.677,280.985,115.403,281.021,115.464z"/>
			</g>
			<g>
				<path fill="#241352" d="M285.469,113.223c0.022,0.068-0.463,0.348-1.086,0.626c-0.627,0.277-1.156,0.448-1.189,0.385
					c-0.032-0.063,0.455-0.344,1.086-0.625C284.91,113.329,285.443,113.156,285.469,113.223z"/>
			</g>
			<g>
				<path fill="#241352" d="M290.248,111.901c0.01,0.071-0.52,0.249-1.186,0.396c-0.662,0.148-1.218,0.212-1.236,0.143
					c-0.018-0.068,0.511-0.247,1.185-0.397C289.682,111.893,290.238,111.828,290.248,111.901z"/>
			</g>
			<g>
				
					<ellipse transform="matrix(0.999 -0.0455 0.0455 0.999 -4.7759 13.4576)" fill="#241352" cx="293.105" cy="111.595" rx="0.397" ry="0.13"/>
			</g>
		</g>
		<g>
			<polygon fill="#DAD7E2" points="301.763,118.997 300.828,114.208 294.925,109.762 301.604,108.068 301.707,99.017 
				322.734,105.012 			"/>
			<polygon fill="#B0ACC7" points="294.925,109.762 300.828,114.208 322.734,105.012 301.604,108.068 			"/>
		</g>
		<g>
			<polygon fill="#FAC480" points="282.37,168.501 254.825,164.613 257.359,147.403 284.902,151.292 			"/>
			<g>
				<path fill="#241352" d="M284.012,150.912c0.006,0.008-0.085,0.072-0.262,0.191c-0.237,0.158-0.493,0.325-0.776,0.51
					c-0.802,0.51-1.761,1.121-2.878,1.831c-1.269,0.794-2.712,1.699-4.288,2.686c-0.807,0.496-1.648,1.072-2.66,1.401
					c-1.007,0.365-2.198,0.212-3.176-0.303c-0.993-0.498-1.839-1.15-2.69-1.728c-0.834-0.597-1.637-1.174-2.411-1.729
					c-1.522-1.121-2.868-2.166-3.979-3.066c-1.115-0.898-1.998-1.646-2.602-2.172c-0.248-0.223-0.476-0.423-0.686-0.612
					c-0.157-0.144-0.234-0.222-0.23-0.229c0.008-0.005,0.097,0.058,0.264,0.188c0.221,0.177,0.458,0.366,0.718,0.575
					c0.74,0.588,1.622,1.289,2.649,2.104c1.125,0.878,2.479,1.909,4.006,3.018c0.776,0.55,1.582,1.122,2.416,1.714
					c0.851,0.572,1.704,1.225,2.659,1.704c0.952,0.491,2.03,0.631,2.989,0.293c0.964-0.309,1.799-0.87,2.611-1.361
					c1.586-0.973,3.039-1.858,4.315-2.64c1.132-0.683,2.106-1.27,2.921-1.76c0.291-0.169,0.557-0.323,0.802-0.468
					C283.908,150.956,284.008,150.903,284.012,150.912z"/>
			</g>
			<g>
				<path fill="#241352" d="M255.39,163.323c-0.05-0.054,1.969-2.226,4.507-4.858c2.541-2.631,4.643-4.725,4.691-4.677
					c0.051,0.052-1.967,2.226-4.508,4.857C257.542,161.278,255.44,163.371,255.39,163.323z"/>
			</g>
			<g>
				<path fill="#241352" d="M282.822,162.309c-0.028,0.022-0.401-0.33-0.982-0.919c-0.58-0.589-1.369-1.416-2.23-2.339
					c-0.86-0.922-1.629-1.768-2.177-2.391c-0.547-0.621-0.872-1.019-0.847-1.043c0.023-0.026,0.396,0.324,0.979,0.914
					c0.581,0.59,1.371,1.417,2.234,2.343c0.861,0.923,1.631,1.771,2.177,2.393S282.85,162.285,282.822,162.309z"/>
			</g>
		</g>
		<path fill="#1A7D5A" d="M364.565,148.584c0.065-0.738,0.711-1.286,1.438-1.227c0.73,0.059,1.27,0.706,1.203,1.443
			c-0.067,0.738-0.711,1.287-1.44,1.228C365.038,149.969,364.501,149.323,364.565,148.584z"/>
	</g>
	<g opacity="0.59">
		
			<ellipse transform="matrix(0.9398 0.3418 -0.3418 0.9398 124.2103 -66.2919)" fill="#0E0E63" cx="250.215" cy="319.313" rx="1.414" ry="1.437"/>
		
			<ellipse transform="matrix(0.9398 0.3417 -0.3417 0.9398 127.1967 -71.5301)" opacity="0.21" fill="#0E0E63" cx="266.642" cy="325.292" rx="1.415" ry="1.436"/>
		
			<ellipse transform="matrix(0.9397 0.3421 -0.3421 0.9397 130.4088 -76.8508)" opacity="0.21" fill="#0E0E63" cx="283.069" cy="331.271" rx="1.414" ry="1.437"/>
	</g>
	<g opacity="0.54">
		<g>
			<linearGradient id="SVGID_5_" gradientUnits="userSpaceOnUse" x1="360.6465" y1="216.6606" x2="374.3398" y2="216.6606">
				<stop  offset="0" style="stop-color:#FD8F7E"/>
				<stop  offset="0.1512" style="stop-color:#FD847E"/>
				<stop  offset="0.7019" style="stop-color:#FD6280"/>
				<stop  offset="1" style="stop-color:#FD5580"/>
			</linearGradient>
			<path fill="url(#SVGID_5_)" d="M367.493,223.739c9.129,0,9.129-14.156,0-14.156S358.364,223.739,367.493,223.739L367.493,223.739
				z"/>
		</g>
	</g>
	<g opacity="0.43">
		<g>
			<linearGradient id="SVGID_6_" gradientUnits="userSpaceOnUse" x1="238.1074" y1="186.1968" x2="247.8105" y2="186.1968">
				<stop  offset="0.0108" style="stop-color:#F585C8"/>
				<stop  offset="1" style="stop-color:#6D76D8"/>
			</linearGradient>
			<path fill="url(#SVGID_6_)" d="M242.959,191.212c6.469,0,6.469-10.031,0-10.031S236.49,191.212,242.959,191.212L242.959,191.212z
				"/>
		</g>
	</g>
	<g opacity="0.33">
		<g>
			<linearGradient id="SVGID_7_" gradientUnits="userSpaceOnUse" x1="218.9307" y1="290.5649" x2="228.1123" y2="290.5649">
				<stop  offset="0.05" style="stop-color:#00C1CE"/>
				<stop  offset="1" style="stop-color:#82EBA1"/>
			</linearGradient>
			<path fill="url(#SVGID_7_)" d="M223.521,295.311c6.121,0,6.121-9.492,0-9.492S217.4,295.311,223.521,295.311L223.521,295.311z"/>
		</g>
	</g>
	<g>
		<g>
			<path fill="#0E0E63" d="M346.201,209.826c0.082,0.033,0.164,0.067,0.246,0.1c0.787,0.32,1.188-1.021,0.355-1.293
				c-0.083-0.027-0.167-0.054-0.25-0.082C345.725,208.281,345.434,209.514,346.201,209.826L346.201,209.826z"/>
		</g>
	</g>
	<g>
		<g>
			<path fill="#0E0E63" d="M359.198,202.258c0.538,0,0.538-0.834,0-0.834S358.66,202.258,359.198,202.258L359.198,202.258z"/>
		</g>
	</g>
	<g>
		<g>
			<path fill="#0E0E63" d="M327.77,208.578c0.199,0,0.199-0.31,0-0.31S327.57,208.578,327.77,208.578L327.77,208.578z"/>
		</g>
	</g>
	<g>
		<g>
			<path fill="#0E0E63" d="M268.998,182.291c0.154-0.097,0.274-0.189,0.404-0.315c0.297-0.289,0.099-0.936-0.364-0.88
				c-0.179,0.021-0.33,0.043-0.502,0.099C267.684,181.472,268.275,182.747,268.998,182.291L268.998,182.291z"/>
		</g>
	</g>
	<g>
		<g>
			<path fill="#0E0E63" d="M261.645,200.828c0.586,0,0.586-0.909,0-0.909S261.059,200.828,261.645,200.828L261.645,200.828z"/>
		</g>
	</g>
	<g>
		<g>
			<path fill="#0E0E63" d="M229.202,204.406c0.13,0.051,0.21,0.062,0.349,0.062c0.268,0,0.459-0.37,0.232-0.56
				c-0.129-0.108-0.225-0.163-0.384-0.216C228.939,203.538,228.767,204.237,229.202,204.406L229.202,204.406z"/>
		</g>
	</g>
	<g>
		<g>
			<path fill="#0E0E63" d="M252.239,119.075c0.646,0,0.646-1.003,0-1.003S251.593,119.075,252.239,119.075L252.239,119.075z"/>
		</g>
	</g>
	<g>
		<g>
			<path fill="#0E0E63" d="M272.72,103.009c0.568,0,0.568-0.881,0-0.881S272.151,103.009,272.72,103.009L272.72,103.009z"/>
		</g>
	</g>
	<g>
		<g>
			<path fill="#0E0E63" d="M260.752,93.937c0.387,0,0.387-0.6,0-0.6S260.365,93.937,260.752,93.937L260.752,93.937z"/>
		</g>
	</g>
	<g>
		<g>
			<path fill="#0E0E63" d="M388.294,131.614c0.544,0,0.544-0.844,0-0.844S387.75,131.614,388.294,131.614L388.294,131.614z"/>
		</g>
	</g>
	<g>
		<g>
			<path fill="#0E0E63" d="M412.081,172.947c0.174-0.132,0.345-0.256,0.494-0.417c0.566-0.61,0.219-1.834-0.729-1.76
				c-0.218,0.017-0.43,0.044-0.643,0.095c-0.604,0.145-0.956,0.819-0.796,1.401C410.585,172.912,411.482,173.401,412.081,172.947
				L412.081,172.947z"/>
		</g>
	</g>
	<g>
		<g>
			<path fill="#0E0E63" d="M406.241,182.133c0.46,0,0.46-0.713,0-0.713S405.781,182.133,406.241,182.133L406.241,182.133z"/>
		</g>
	</g>
	<g>
		<path fill="#4147C2" d="M296.324,384.375l-90.398-32.902c-7.498-2.729-11.332-11.111-8.562-18.722l0,0
			c2.77-7.609,11.095-11.567,18.593-8.838l90.397,32.902c7.499,2.729,11.335,11.112,8.564,18.723l0,0
			C312.149,383.149,303.823,387.105,296.324,384.375z"/>
		
			<rect x="220.726" y="350.135" transform="matrix(0.9397 0.342 -0.342 0.9397 136.9832 -66.0193)" fill="none" width="69.918" height="10.527"/>
		
			<text transform="matrix(0.9235 0.3361 -0.342 0.9397 239.8579 350.1313)" fill="#DADAEA" font-family="'Montserrat-Medium'" font-size="8.0683">Continue</text>
	</g>
	<g>
		<defs>
			<path id="SVGID_8_" d="M431.066,74.231l-16.11-5.865l-0.306,0.84c-2.363,6.49-9.461,9.865-15.856,7.537L317.6,47.19
				c-6.396-2.328-9.665-9.476-7.303-15.966l0.305-0.838l-13.133-4.781c-12.958-4.716-27.342,2.122-32.127,15.271L149.767,358.415
				c-4.786,13.151,1.837,27.635,14.795,32.353l133.597,48.624c12.958,4.717,27.343-2.121,32.129-15.272L445.862,106.58
				C450.648,93.431,444.024,78.948,431.066,74.231z"/>
		</defs>
		<clipPath id="SVGID_9_">
			<use xlink:href="#SVGID_8_"  overflow="visible"/>
		</clipPath>
		<g opacity="0.1" clip-path="url(#SVGID_9_)">
			<path fill="#0E0E63" d="M185.882,238.067c8.521-5.129,18.112-8.809,27.987-8.995c9.873-0.185,20.036,3.46,26.436,11.001
				c8.021,9.449,9.145,23.297,16.545,33.251c4.407,5.927,10.97,10.17,18.157,11.733c8.456,1.84,17.238,0.055,25.846-1.024
				c8.61-1.081,17.885-1.313,25.284,3.177c13.467,8.168,15.699,28.632,29.371,36.454c4.019,2.298,8.652,3.24,12.916,5.048
				c4.261,1.804,8.435,4.881,9.569,9.418l-43.711,120.097l-201.799-73.45L185.882,238.067z"/>
		</g>
		<g clip-path="url(#SVGID_9_)">
			<path fill="#0E0E63" d="M150.418,345.814c14.631-5.156,31.931-1.173,42.77,9.852c6.482,6.594,10.551,15.15,15.371,23.07
				c4.819,7.92,10.922,15.664,19.535,18.956c8.4,3.209,17.769,1.685,26.743,0.81c9.494-0.925,19.182-1.057,28.413,1.243
				c9.232,2.303,18.038,7.233,23.672,14.952c3.23,4.427,5.359,9.655,8.967,13.772s9.518,6.994,14.539,4.765l-6.21,17.061
				L140.95,383.591L150.418,345.814z"/>
		</g>
		<g opacity="0.1" clip-path="url(#SVGID_9_)">
			<path fill="#0E0E63" d="M151.228,347.262c14.629-5.158,31.93-1.171,42.77,9.854c6.48,6.59,10.552,15.149,15.37,23.067
				c4.82,7.923,10.924,15.666,19.534,18.957c8.399,3.21,17.769,1.686,26.746,0.812c9.493-0.928,19.18-1.061,28.413,1.241
				c9.232,2.302,18.038,7.231,23.67,14.952c3.231,4.428,5.357,9.654,8.967,13.77c3.607,4.118,9.517,6.998,14.539,4.768l-6.21,17.061
				l-183.268-66.704L151.228,347.262z"/>
		</g>
		<g opacity="0.43" clip-path="url(#SVGID_9_)">
			<g>
				<linearGradient id="SVGID_10_" gradientUnits="userSpaceOnUse" x1="312.6875" y1="57.5522" x2="338.7295" y2="57.5522">
					<stop  offset="0.0108" style="stop-color:#F585C8"/>
					<stop  offset="1" style="stop-color:#6D76D8"/>
				</linearGradient>
				<path fill="url(#SVGID_10_)" d="M315.432,69.682c8.815-4.935,19.168-9.263,26.651-16.137c3.657-3.361-0.128-10.301-4.972-8.54
					c-9.581,3.485-18.173,10.612-26.648,16.177C305.187,64.646,309.854,72.805,315.432,69.682L315.432,69.682z"/>
			</g>
		</g>
		<g opacity="0.54" clip-path="url(#SVGID_9_)">
			<g>
				<linearGradient id="SVGID_11_" gradientUnits="userSpaceOnUse" x1="156.6885" y1="321.3081" x2="193.3096" y2="321.3081">
					<stop  offset="0" style="stop-color:#FD8F7E"/>
					<stop  offset="0.1512" style="stop-color:#FD847E"/>
					<stop  offset="0.7019" style="stop-color:#FD6280"/>
					<stop  offset="1" style="stop-color:#FD5580"/>
				</linearGradient>
				<path fill="url(#SVGID_11_)" d="M159.529,337.376c12.263-6.997,24.576-13.9,36.642-21.231
					c6.811-4.138,0.551-14.901-6.246-10.686c-12.011,7.45-23.751,15.317-35.553,23.093
					C148.906,332.154,153.76,340.667,159.529,337.376L159.529,337.376z"/>
			</g>
		</g>
		<g opacity="0.33" clip-path="url(#SVGID_9_)">
			<g>
				<linearGradient id="SVGID_12_" gradientUnits="userSpaceOnUse" x1="351.1582" y1="285.5591" x2="381.7832" y2="285.5591">
					<stop  offset="0.05" style="stop-color:#00C1CE"/>
					<stop  offset="1" style="stop-color:#82EBA1"/>
				</linearGradient>
				<path fill="url(#SVGID_12_)" d="M346.269,263.894c4.619,8.536,9.212,17.086,13.896,25.586c2.634,4.778,5.267,9.557,7.9,14.335
					c2.229,4.046,4.719,10.15,9.09,12.249c5.305,2.547,11.156-0.535,11.47-6.582c0.241-4.658-3.347-9.259-5.745-13.012
					c-2.907-4.548-5.814-9.097-8.722-13.645c-5.466-8.553-11.017-17.051-16.549-25.561
					C353.007,250.185,342.219,256.41,346.269,263.894L346.269,263.894z"/>
			</g>
		</g>
	</g>
</g>
<g>
	<linearGradient id="SVGID_13_" gradientUnits="userSpaceOnUse" x1="117.9956" y1="-6.2314" x2="115.151" y2="335.0869">
		<stop  offset="0" style="stop-color:#20126A"/>
		<stop  offset="0.929" style="stop-color:#34238D"/>
	</linearGradient>
	<path fill="url(#SVGID_13_)" d="M199.232,454.917H32.863C14.713,454.917,0,439.771,0,421.091V33.825C0,15.145,14.713,0,32.863,0
		h166.369c18.15,0,32.863,15.145,32.863,33.825v387.266C232.096,439.771,217.382,454.917,199.232,454.917z"/>
	<path fill="#0E0E63" d="M193.172,13.422h-18.601v0.982c0,7.6-5.986,13.761-13.369,13.761H67.456
		c-7.383,0-13.368-6.162-13.368-13.761v-0.982H38.924c-14.96,0-27.088,12.482-27.088,27.882v371.822
		c0,15.396,12.128,27.881,27.088,27.881h154.248c14.961,0,27.088-12.484,27.088-27.881V41.304
		C220.26,25.905,208.133,13.422,193.172,13.422z"/>
	<g>
		<defs>
			<path id="SVGID_14_" d="M193.172,13.422h-18.601v0.982c0,7.6-5.986,13.761-13.369,13.761H67.456
				c-7.383,0-13.368-6.162-13.368-13.761v-0.982H38.924c-14.96,0-27.088,12.482-27.088,27.882v371.822
				c0,15.396,12.128,27.881,27.088,27.881h154.248c14.961,0,27.088-12.484,27.088-27.881V41.304
				C220.26,25.905,208.133,13.422,193.172,13.422z"/>
		</defs>
		<clipPath id="SVGID_15_">
			<use xlink:href="#SVGID_14_"  overflow="visible"/>
		</clipPath>
		<g clip-path="url(#SVGID_15_)">
			<g opacity="0.12">
				<linearGradient id="SVGID_16_" gradientUnits="userSpaceOnUse" x1="-110.313" y1="357.2896" x2="383.1934" y2="357.2896">
					<stop  offset="0.05" style="stop-color:#575AD8"/>
					<stop  offset="1" style="stop-color:#6537B8;stop-opacity:0"/>
				</linearGradient>
				<path fill="url(#SVGID_16_)" d="M-110.313,301.5c26.584-32.327,75.307-42.723,112.187-23.938
					c21.447,10.925,37.85,29.781,55.888,45.968c18.037,16.186,40.063,30.567,63.957,29.209
					c22.838-1.299,42.272-16.523,62.644-27.235c27.347-14.381,61.381-20.688,88.332-5.536
					c19.673,11.062,32.407,31.579,49.628,46.351c17.222,14.769,44.995,22.594,60.871,6.306v73.72h-484.518L-110.313,301.5z"/>
			</g>
			<g opacity="0.07">
				<path fill="#95EAF9" d="M-0.223,401.771c13.594-11.333,33.584-13.831,49.42-6.177c9.466,4.574,17.128,12.227,25.338,18.894
					c8.21,6.666,17.722,12.639,28.179,12.809c10.202,0.167,19.6-5.172,28.827-9.65c9.763-4.736,20.04-8.692,30.775-9.837
					c10.736-1.143,22.036,0.721,31.037,6.851c5.163,3.517,9.459,8.332,14.903,11.361c5.446,3.032,12.862,3.816,17.351-0.567v20.89
					H4.341L-0.223,401.771z"/>
			</g>
			<g opacity="0.07">
				<path fill="#95EAF9" d="M189.876,362.097c-0.714,0.231-0.806,0.271-0.275,0.12c0.848-0.211,1.654-0.543,2.421-0.998
					c0.562-0.287,1.122-0.62,1.66-0.952c1.702-1.06,3.137-2.527,4.45-4.055c3.075-3.575,5.554-8.209,4.33-13.086
					c-0.614-2.452-2.754-4.867-5.229-5.383c-2.729-0.567-5.319-0.376-7.78,1.114c-1.666,1.007-3.333,2.186-4.74,3.543
					c-1.309,1.261-2.702,2.794-3.643,4.35c-0.386,0.638-0.726,1.453-1.03,2.136c-0.294,0.719-0.588,1.436-0.883,2.153
					c-0.237,0.891-0.198,0.936,0.114,0.14c-1.866,2.782-1.172,7.417,1.212,9.671C182.804,363.042,187.111,364.281,189.876,362.097
					L189.876,362.097z"/>
			</g>
		</g>
		<g clip-path="url(#SVGID_15_)">
			<g>
				<path fill="#FFFFFF" d="M10.457,350.248c8.88-10.614,17.841-21.157,26.422-32.016c4.907-6.209-3.883-15.027-8.75-8.75
					c-8.801,11.352-17.214,22.983-25.696,34.573C-0.992,348.735,6.749,354.679,10.457,350.248L10.457,350.248z"/>
			</g>
		</g>
		<g opacity="0.43" clip-path="url(#SVGID_15_)">
			<g>
				<linearGradient id="SVGID_17_" gradientUnits="userSpaceOnUse" x1="60.1499" y1="30.8823" x2="81.2012" y2="30.8823">
					<stop  offset="0.0108" style="stop-color:#F585C8"/>
					<stop  offset="1" style="stop-color:#6D76D8"/>
				</linearGradient>
				<path fill="url(#SVGID_17_)" d="M77.329,14.574C70.24,22.97,61.313,31.363,56.13,41.109c-2.786,5.238,3.677,10.019,8.024,6.191
					c8.274-7.285,14.376-17.937,20.904-26.762C88.383,16.044,80.917,10.324,77.329,14.574L77.329,14.574z"/>
			</g>
		</g>
		<g opacity="0.54" clip-path="url(#SVGID_15_)">
			<g>
				<linearGradient id="SVGID_18_" gradientUnits="userSpaceOnUse" x1="179.958" y1="264.9165" x2="207.7515" y2="264.9165">
					<stop  offset="0" style="stop-color:#FD8F7E"/>
					<stop  offset="0.1512" style="stop-color:#FD847E"/>
					<stop  offset="0.7019" style="stop-color:#FD6280"/>
					<stop  offset="1" style="stop-color:#FD5580"/>
				</linearGradient>
				<path fill="url(#SVGID_18_)" d="M177.689,254.597c3.466,4.928,8.932,8.728,13.455,12.686
					c4.623,4.046,9.554,10.161,15.557,11.914c2.968,0.867,5.071-2.396,3.785-4.923c-2.67-5.246-9.361-8.833-13.918-12.415
					c-4.712-3.703-9.568-8.623-15.03-11.11C179.245,249.706,175.896,252.046,177.689,254.597L177.689,254.597z"/>
			</g>
		</g>
	</g>
	<rect x="32.357" y="314.988" fill="none" width="164.906" height="34.219"/>
	<text transform="matrix(0.969 0 0 1 38.6577 321.2905)" opacity="0.57"><tspan x="0" y="0" fill="#FFFFFF" font-family="'Montserrat-Light'" font-size="8.8778">Lorem ipsum dolor sit amet, consecte</tspan><tspan x="154.445" y="0" fill="#FFFFFF" font-family="'Montserrat-Light'" font-size="8.8778">-</tspan><tspan x="39" y="17.756" fill="#FFFFFF" font-family="'Montserrat-Light'" font-size="8.8778">tuer adipiscing elit.</tspan></text>
	<g>
		<path fill="#4D49E9" d="M168.234,400.057H63.861c-8.657,0-15.677-7.226-15.677-16.135l0,0c0-8.912,7.02-16.137,15.677-16.137
			h104.374c8.657,0,15.678,7.225,15.678,16.137l0,0C183.912,392.832,176.892,400.057,168.234,400.057z"/>
		<rect x="78.12" y="379.596" fill="none" width="75.856" height="11.584"/>
		<text transform="matrix(0.969 0 0 1 97.9561 385.8989)" fill="#DADAEA" font-family="'Montserrat-Medium'" font-size="8.8778">Continue</text>
	</g>
	<text transform="matrix(0.969 0 0 1 73.5298 301.9692)" fill="#FFFFFF" font-family="'Montserrat-Bold'" font-size="11.7394">Lorem Ipsum</text>
	<g>
		<g>
			<path fill="#D1D1E9" d="M201.208,101.816c-0.014-0.237-0.031-0.465-0.071-0.7c-0.071-0.413-0.761-0.413-0.832,0
				c-0.04,0.234-0.057,0.462-0.071,0.7C200.196,102.445,201.246,102.445,201.208,101.816L201.208,101.816z"/>
		</g>
	</g>
	<g>
		<g>
			<g>
				<path fill="#BA6136" d="M103.61,144.302c-4.391-7.465-5.466-16.91-2.868-25.219c0.315-1.005,0.713-2.043,1.507-2.713
					c0.793-0.671,2.094-0.815,2.795-0.043c4.004-4.328,9.322-7.28,14.963-8.699c1.126-0.282,2.293-0.507,3.438-0.318
					c1.143,0.19,2.269,0.863,2.74,1.952c0.47,1.089,0.073,2.579-0.993,3.043c2.147-0.88,4.319-1.769,6.607-2.106
					c0.83-0.12,1.765-0.138,2.398,0.425c0.85,0.757,0.698,2.24-0.016,3.131c-0.716,0.893-1.814,1.341-2.865,1.754
					c0.689-0.188,1.397-0.379,2.107-0.315c0.71,0.066,1.438,0.438,1.737,1.105c0.57,1.264-0.622,2.612-1.786,3.323
					c-2.958,1.803-6.452,2.428-9.879,2.703c-3.428,0.274-6.889,0.234-10.275,0.85c-1.128,0.205-2.296,0.51-3.139,1.309
					c-1.423,1.352-1.458,3.619-1.349,5.607c0.155,2.816,0.394,5.674-0.183,8.43c-0.578,2.756-2.127,5.459-4.625,6.619"/>
			</g>
			<path fill="#FFBFAC" d="M189.166,178.938c0,0,2.154-10.534,3.828-11.616c1.676-1.084,8.219-6.853,8.413-5.623
				c0.194,1.232-3.145,4.482-2.665,5.877c0.481,1.396,4.016,1.654,4.016,1.654s3.96,0.232,5.031-0.427
				c1.069-0.659,7.928-7.56,7.396-5.82c-0.531,1.74-4.57,10.495-7.014,11.75c-2.444,1.258-8.967,2.912-9.292,2.958
				c-0.325,0.045-2.486,5.477-2.486,5.477L189.166,178.938z"/>
			<path fill="#4D49E9" d="M133.347,195.669c0,0,25.462,33.464,38.782,28.226c13.318-5.242,26.246-43.143,26.246-43.143
				l-10.577-7.257l-21.937,25.479l-27.954-37.321L133.347,195.669z"/>
			<path fill="#4D49E9" d="M89.922,160.521c0,0-51.768,44.827-50.201,54.099c1.565,9.274,33.297,45.562,33.297,45.562l10.577-10.885
				l-22.329-33.467c0,0,30.948-23.789,31.731-27.418C93.781,184.785,89.922,160.521,89.922,160.521z"/>
			<path fill="#4D49E9" d="M80.853,178.408c0,0,9.938,42.202,9.545,46.043c-0.392,3.841-4.042,29.723-4.042,29.723l59.062-3.643
				l-3.757-79.962c-0.598-6.841-5.513-12.501-12.076-13.736c-6.237-1.175-15.443-1.928-28.489-0.913
				c-8.141,0.632-15.096,6.298-17.634,14.285L80.853,178.408z"/>
			<path fill="#FFFFFF" d="M98.977,156.208c-0.875,0.436,18.245,43.326,18.245,43.326l8.384-43.328
				C125.606,156.206,104.814,153.297,98.977,156.208z"/>
			<path fill="#FFBFAC" d="M103.023,157.77l0.953-16.972c0,0-3.239,0.393-4.192-2.157c-0.953-2.549,1.906-8.432,6.668-4.313
				l-0.463-14.155h22.966c0,0,4.17,32.783-9.928,32.783v6.863C119.026,159.819,109.689,167.29,103.023,157.77z"/>
			<path fill="#FFBFAC" d="M75.361,257.772c0,0,0.948,6.13,4.102,6.13c3.155,0,8.535-0.763,8.535-0.763s4.753,5.919,5.068,4.01
				c0.313-1.911-1.171-6.11-1.171-6.11s2.411,5.919,3.34,3.055c0.928-2.866-3.154-7.449-3.154-7.449s7.235,3.629,7.42,2.102
				c0.187-1.527-6.377-5.536-6.435-5.536c-0.058,0-7.479,0-7.479,0l-1.991-3.912L75.361,257.772z"/>
			<g>
				<path fill="#151352" d="M118.498,138.823c0.025-0.019,0.092,0.214,0.416,0.396c0.303,0.179,0.92,0.248,1.383-0.238
					c0.227-0.229,0.409-0.556,0.503-0.934c0.098-0.38,0.11-0.81,0.086-1.266c-0.061-0.928-0.125-1.937-0.194-2.996
					c-0.132-2.131-0.235-4.06-0.296-5.456c-0.031-0.7-0.051-1.264-0.058-1.657c-0.006-0.39-0.001-0.607,0.019-0.609
					c0.02-0.002,0.053,0.213,0.093,0.604c0.042,0.388,0.092,0.951,0.149,1.648c0.111,1.394,0.248,3.321,0.38,5.451
					c0.06,1.06,0.119,2.072,0.171,3.004c0.016,0.466-0.005,0.926-0.121,1.34c-0.115,0.416-0.326,0.771-0.594,1.023
					c-0.266,0.25-0.596,0.381-0.885,0.381c-0.289,0.004-0.528-0.086-0.695-0.198C118.516,139.08,118.488,138.816,118.498,138.823z"
					/>
			</g>
			<g>
				<path fill="#151352" d="M120.04,142.6c0.016,0.026-0.335,0.277-1.001,0.404c-0.653,0.132-1.646,0.084-2.554-0.459
					c-0.906-0.546-1.434-1.414-1.643-2.063c-0.219-0.659-0.178-1.097-0.148-1.096c0.048-0.005,0.083,0.416,0.338,1.019
					c0.247,0.599,0.764,1.381,1.598,1.886c0.835,0.501,1.753,0.582,2.38,0.508C119.647,142.729,120.021,142.554,120.04,142.6z"/>
			</g>
			<g>
				<path fill="#151352" d="M115.335,139.148c-0.022,0.078-0.488-0.022-0.959,0.264c-0.483,0.268-0.64,0.731-0.718,0.711
					c-0.033-0.008-0.05-0.147,0.028-0.35c0.076-0.201,0.265-0.453,0.548-0.618c0.284-0.165,0.591-0.2,0.798-0.164
					C115.24,139.028,115.348,139.115,115.335,139.148z"/>
			</g>
			<g>
				<path fill="#151352" d="M103.992,138.991c-0.031-0.041,0.389-0.212,0.588-0.826c0.096-0.294,0.121-0.687-0.025-1.063
					c-0.131-0.375-0.507-0.7-0.934-0.636c-0.39,0.035-0.605,0.53-0.444,0.804l-0.247,0.095c-0.221-1.353-0.341-2.314-0.281-2.326
					c0.06-0.012,0.281,0.931,0.544,2.275l0.146,0.753l-0.394-0.659c-0.274-0.461,0.053-1.167,0.635-1.234
					c0.29-0.042,0.571,0.049,0.787,0.21c0.216,0.167,0.355,0.393,0.434,0.619c0.16,0.458,0.103,0.912-0.032,1.236
					c-0.134,0.33-0.34,0.542-0.501,0.645C104.105,138.99,103.998,139.005,103.992,138.991z"/>
			</g>
			<g>
				<path fill="#BA6136" d="M115.443,125.038c0.076,0.399-0.768,0.904-1.884,1.125c-1.116,0.222-2.08,0.077-2.155-0.324
					c-0.076-0.4,0.768-0.902,1.883-1.125C114.403,124.492,115.368,124.638,115.443,125.038z"/>
			</g>
			<g>
				<path fill="#BA6136" d="M127.2,124.863c-0.03,0.406-0.766,0.683-1.647,0.616c-0.88-0.065-1.569-0.448-1.541-0.855
					c0.029-0.407,0.766-0.681,1.646-0.616C126.539,124.073,127.228,124.457,127.2,124.863z"/>
			</g>
			<g>
				<g>
					<g>
						<path fill="#151352" d="M121.088,152.814c0.002,0.014-0.211,0.047-0.6,0.094c-0.389,0.026-0.952,0.156-1.653,0.133
							c-1.403,0.012-3.352-0.243-5.366-1c-1.995-0.813-3.585-1.966-4.62-2.919c-0.526-0.463-0.857-0.928-1.125-1.211
							c-0.255-0.296-0.392-0.464-0.381-0.474c0.033-0.034,0.598,0.63,1.611,1.582c1.043,0.908,2.624,2.026,4.591,2.829
							c1.987,0.746,3.902,1.021,5.291,1.046C120.221,152.883,121.083,152.765,121.088,152.814z"/>
					</g>
				</g>
			</g>
			<path fill="#FFBFAC" d="M85.586,253.209c0,0,0.989-9.691,1.846-8.452c0.858,1.234,1.03,9.19,1.03,9.19L85.586,253.209z"/>
			<g>
				
					<ellipse transform="matrix(0.0456 0.999 -0.999 0.0456 337.8565 96.5732)" fill="#151352" cx="118.388" cy="225.099" rx="25.592" ry="0.149"/>
			</g>
			<g>
				<path fill="#151352" d="M116.543,199.534c0,0-0.625-0.293-1.668-0.987c-1.042-0.688-2.46-1.865-3.902-3.614
					c-1.448-1.743-2.856-4.125-3.767-7.031c-0.92-2.889-1.268-6.331-0.611-9.81l0.103,0.174c-0.189-0.06-0.393-0.128-0.599-0.194
					c-3.347-1.147-6.04-3.482-7.733-6.068c-1.718-2.603-2.392-5.443-2.498-7.789c-0.109-2.364,0.312-4.262,0.707-5.506
					c0.404-1.25,0.763-1.882,0.763-1.882c0.01,0.004-0.051,0.174-0.175,0.496c-0.127,0.316-0.298,0.796-0.478,1.422
					c-0.357,1.246-0.742,3.126-0.606,5.459c0.13,2.313,0.814,5.098,2.512,7.643c1.676,2.531,4.322,4.813,7.603,5.936
					c0.201,0.066,0.401,0.132,0.588,0.192l0.127,0.043l-0.025,0.135c-0.645,3.419-0.313,6.81,0.579,9.667
					c0.886,2.871,2.256,5.236,3.667,6.976c1.409,1.749,2.79,2.941,3.809,3.654c0.49,0.388,0.923,0.605,1.191,0.798
					C116.406,199.427,116.548,199.524,116.543,199.534z"/>
			</g>
			<g>
				<path fill="#151352" d="M117.222,199.534c-0.007-0.009,0.117-0.121,0.355-0.327c0.237-0.212,0.607-0.493,1.033-0.914
					c0.876-0.814,2.095-2.076,3.237-3.904c1.15-1.813,2.175-4.225,2.685-7.047c0.26-1.41,0.407-2.912,0.441-4.474
					c0.001-0.391,0.001-0.783,0.001-1.178c-0.011-0.373-0.139-0.749-0.27-1.115c-0.299-0.731-0.719-1.427-1.178-2.104
					c-0.482-0.702-1.005-1.37-1.522-1.963l-0.095-0.109l0.098-0.103c1.032-1.078,2.003-2.165,2.898-3.242
					c0.879-1.081,1.736-2.144,2.281-3.278c0.908-2.385,1.038-4.761,0.896-6.667c-0.148-1.926-0.608-3.425-0.97-4.423
					c-0.193-0.498-0.347-0.882-0.467-1.134c-0.114-0.256-0.169-0.392-0.161-0.396c0,0,0.317,0.496,0.73,1.489
					c0.395,0.993,0.889,2.5,1.068,4.447c0.166,1.935,0.066,4.329-0.855,6.796c-0.568,1.202-1.423,2.259-2.306,3.359
					c-0.897,1.086-1.868,2.176-2.904,3.265l0.004-0.209c0.532,0.608,1.057,1.278,1.549,1.995c0.467,0.688,0.896,1.396,1.208,2.165
					c0.137,0.389,0.277,0.785,0.291,1.218c-0.001,0.401-0.002,0.799-0.004,1.195c-0.038,1.58-0.194,3.099-0.464,4.523
					c-0.53,2.854-1.592,5.293-2.778,7.111c-1.178,1.837-2.431,3.086-3.335,3.875C117.781,199.175,117.222,199.534,117.222,199.534z"
					/>
			</g>
			<g>
				
					<ellipse transform="matrix(0.1073 0.9942 -0.9942 0.1073 325.5541 73.5279)" fill="#151352" cx="121.832" cy="218.055" rx="0.978" ry="0.149"/>
			</g>
			<g>
				<path fill="#151352" d="M123.654,237.827c-0.081,0.011-0.194-0.418-0.252-0.954c-0.058-0.539-0.039-0.981,0.043-0.989
					c0.08-0.013,0.193,0.418,0.251,0.954C123.755,237.376,123.736,237.818,123.654,237.827z"/>
			</g>
			<g>
				<path fill="#151352" d="M144.195,212.577c-0.082,0.005-0.696-6.761-1.371-15.115c-0.675-8.358-1.155-15.136-1.075-15.142
					c0.083-0.009,0.697,6.758,1.372,15.115C143.796,205.79,144.276,212.568,144.195,212.577z"/>
			</g>
			<g>
				<path fill="#151352" d="M90.398,192.454c0.014,0.017-0.167,0.181-0.504,0.461c-0.474,0.387-0.948,0.777-1.438,1.178
					c-1.216,0.991-2.892,2.367-4.715,3.915c-1.825,1.553-3.452,2.99-4.626,4.03c-0.477,0.421-0.938,0.828-1.395,1.229
					c-0.333,0.29-0.523,0.442-0.538,0.424c-0.014-0.014,0.15-0.194,0.459-0.51c0.438-0.43,0.879-0.86,1.334-1.305
					c1.141-1.086,2.749-2.548,4.577-4.104c1.828-1.553,3.526-2.904,4.777-3.849c0.509-0.378,1.004-0.742,1.495-1.104
					C90.183,192.569,90.387,192.437,90.398,192.454z"/>
			</g>
			<g>
				<path fill="#151352" d="M80.774,245.427c0.011,0.017-0.147,0.172-0.444,0.436l-1.276,1.093c-1.376,1.128-2.76,2.267-4.274,3.508
					c-1.535,1.221-2.936,2.332-4.33,3.441l-1.333,1.016c-0.319,0.235-0.501,0.355-0.515,0.34c-0.013-0.017,0.145-0.169,0.443-0.432
					l1.273-1.093c1.377-1.129,2.764-2.267,4.278-3.514c1.535-1.219,2.938-2.333,4.333-3.439l1.333-1.017
					C80.579,245.534,80.762,245.411,80.774,245.427z"/>
			</g>
			<g>
				<path fill="#151352" d="M73.139,256.164c-0.072,0.037-0.237-0.146-0.363-0.41c-0.126-0.263-0.171-0.507-0.098-0.544
					c0.074-0.038,0.235,0.146,0.363,0.408C73.17,255.882,73.211,256.126,73.139,256.164z"/>
			</g>
			<g>
				<path fill="#151352" d="M197.866,185.206c-0.008,0.02-0.221-0.058-0.598-0.212c-0.531-0.221-1.057-0.441-1.593-0.665
					c-1.343-0.568-3.199-1.348-5.266-2.165c-2.067-0.817-3.951-1.521-5.317-2.026c-0.544-0.203-1.079-0.402-1.618-0.602
					c-0.38-0.146-0.587-0.238-0.581-0.258c0.006-0.02,0.226,0.031,0.618,0.144c0.547,0.172,1.094,0.341,1.648,0.513
					c1.385,0.453,3.286,1.123,5.357,1.942c2.07,0.82,3.918,1.631,5.241,2.253c0.524,0.252,1.04,0.504,1.556,0.756
					C197.678,185.073,197.875,185.186,197.866,185.206z"/>
			</g>
			<g>
				<path fill="#151352" d="M187.232,176.37c0.062,0.054-0.199,0.473-0.582,0.935c-0.383,0.458-0.745,0.788-0.808,0.733
					c-0.062-0.054,0.2-0.473,0.582-0.935C186.808,176.645,187.17,176.315,187.232,176.37z"/>
			</g>
			<g>
				<ellipse fill="#151352" cx="165.479" cy="201.737" rx="0.149" ry="3.216"/>
			</g>
			<g>
				<path fill="#151352" d="M169.182,205.905c-0.082,0.031-0.646-1.488-1.542-3.257c-0.89-1.773-1.77-3.124-1.698-3.175
					c0.061-0.049,1.061,1.235,1.961,3.035C168.812,204.299,169.256,205.881,169.182,205.905z"/>
			</g>
			<g>
				<path fill="#151352" d="M61.572,215.695c-0.01,0.083-1.21-0.009-2.679-0.207c-1.471-0.196-2.654-0.427-2.643-0.51
					c0.011-0.082,1.211,0.009,2.682,0.206C60.401,215.381,61.583,215.612,61.572,215.695z"/>
			</g>
			<g>
				<path fill="#151352" d="M61.806,214.72c-0.044,0.086-1.22-0.605-2.828-0.932c-1.605-0.344-2.947-0.178-2.956-0.271
					c-0.023-0.069,1.349-0.382,3.015-0.026C60.707,213.829,61.853,214.664,61.806,214.72z"/>
			</g>
			<path fill="#FFFFFF" d="M102.633,157.153c-0.147-0.599,0-5.02,0-5.02s10.868,0.869,12.037,10.473c0,0,1.984-7.963,4.885-8.441
				l0.485,5.259l-1.543,5.615l-6.22,1.313l-6.655-2.269L102.633,157.153z"/>
			<polygon fill="#151352" points="114.565,164.455 113.331,168.376 115.267,171.259 116.069,167.335 			"/>
			<polygon fill="#151352" points="114.739,170.474 112.605,189.098 117.48,200.124 121.088,182.242 115.541,169.915 			"/>
			<g>
				<g>
					<g>
						<ellipse fill="#462C2C" cx="113.632" cy="130.589" rx="0.104" ry="1.334"/>
					</g>
				</g>
			</g>
			<g>
				<g>
					<g>
						
							<ellipse transform="matrix(0.0309 0.9995 -0.9995 0.0309 251.8519 0.4686)" fill="#462C2C" cx="125.684" cy="130.114" rx="1.24" ry="0.104"/>
					</g>
				</g>
			</g>
		</g>
		<linearGradient id="SVGID_19_" gradientUnits="userSpaceOnUse" x1="163.8481" y1="117.311" x2="178.5874" y2="166.2185">
			<stop  offset="0.05" style="stop-color:#00C1CE"/>
			<stop  offset="1" style="stop-color:#82EBA1"/>
		</linearGradient>
		<path opacity="0.58" fill="url(#SVGID_19_)" d="M151.8,135.563l5.457,19.518l7.63-1.531l-0.742-3.928l2.167-1.34l4.089,4.162
			l12.933-2.594l1.676-5.093l-3.681-0.846l4.752-1.633l-1.033-5.455l-4.11,0.37l5.642-1.583l-1.281-6.766l-13.145,2.637
			c0,0,0.851-9.458-3.032-12.529l-2.968,0.595c0,0,1.002,2.971,0.909,4.801c-0.093,1.831-2.676,10.278-2.676,10.278l-4.034,1.94
			l-0.96-2.751L151.8,135.563z"/>
		<path fill="#050538" d="M63.225,95.693l-3.076,11.003l-4.302-0.862l0.418-2.215l-1.221-0.754l-2.305,2.346l-7.291-1.463
			l-0.945-2.87l2.074-0.478l-2.679-0.92l0.583-3.076l2.318,0.21l-3.181-0.895l0.722-3.813l7.411,1.486c0,0-0.478-5.331,1.709-7.064
			l1.672,0.337c0,0-0.563,1.674-0.512,2.706c0.053,1.032,1.509,5.792,1.509,5.792l2.274,1.095l0.542-1.55L63.225,95.693z"/>
		<g>
			<polygon fill="#FAC480" points="45.962,119.121 44.792,141.106 70.004,141.106 71.015,146.46 72.389,141.106 91.768,141.106 
				93.102,120.636 			"/>
			<ellipse fill="#FFFFFF" cx="55.038" cy="129.413" rx="4.468" ry="4.598"/>
			<g>
				<path fill="#FFFFFF" d="M63.207,126.18c7.722,0.518,15.471,0.335,23.189,1.047c0.555,0.051,0.567-0.878,0-0.901
					c-7.708-0.321-15.475-1.046-23.189-0.576C62.937,125.766,62.937,126.161,63.207,126.18L63.207,126.18z"/>
			</g>
			<g>
				<path fill="#FFFFFF" d="M63.207,129.504c7.722,0.519,15.471,0.335,23.189,1.049c0.555,0.05,0.567-0.879,0-0.903
					c-7.708-0.32-15.475-1.042-23.189-0.576C62.937,129.092,62.937,129.487,63.207,129.504L63.207,129.504z"/>
			</g>
			<g>
				<path fill="#FFFFFF" d="M63.207,133.268c7.722,0.518,15.471,0.335,23.189,1.048c0.555,0.051,0.567-0.878,0-0.901
					c-7.708-0.321-15.475-1.045-23.189-0.577C62.937,132.854,62.937,133.25,63.207,133.268L63.207,133.268z"/>
			</g>
			<g opacity="0.48">
				<path fill="#FAC480" d="M57.735,133.792c0.914-0.427-0.381-2.081-1.153-2.74c-0.774-0.659-1.857-0.91-2.832-0.657
					c-0.972,0.255-1.809,1.009-2.183,1.967C51.567,132.362,53.46,135.791,57.735,133.792z"/>
			</g>
			<ellipse opacity="0.48" fill="#FAC480" cx="55.037" cy="128.033" rx="1.615" ry="1.664"/>
		</g>
		<polygon fill="#FFFFFF" points="74.885,89.21 76.277,104.301 97.13,101.916 99.161,108.7 101.115,100.889 111.318,99.964 
			108.717,79.861 		"/>
		<g>
			<path fill="#323286" d="M81.337,94.021c8.172-1.2,16.294-2.679,24.338-4.591c0.396-0.095,0.229-0.715-0.169-0.628
				c-8.058,1.789-16.133,3.46-24.266,4.859C81.01,93.701,81.111,94.054,81.337,94.021L81.337,94.021z"/>
		</g>
		<g>
			<path fill="#323286" d="M81.337,96.92c8.172-1.199,16.294-2.676,24.338-4.591c0.396-0.094,0.229-0.716-0.169-0.627
				c-8.058,1.791-16.133,3.462-24.266,4.86C81.01,96.602,81.111,96.954,81.337,96.92L81.337,96.92z"/>
		</g>
		<ellipse fill="#F95E79" cx="109.036" cy="83.774" rx="1.753" ry="1.805"/>
		<polygon fill="#FFFFFF" points="129.529,83.774 128.346,101.587 144.204,101.587 144.204,110.78 149.535,104.214 197.866,103.229 
			197.866,81.971 		"/>
		<g opacity="0.46">
			<path fill="#323286" d="M147.514,89.426c14.918,0.04,29.869-0.622,44.787-0.39c1.074,0.017,1.069-0.911-0.028-0.9
				c-14.884,0.156-29.897-0.085-44.773,0.86C146.98,89.03,146.994,89.426,147.514,89.426L147.514,89.426z"/>
		</g>
		<g opacity="0.46">
			<path fill="#323286" d="M147.613,92.75c14.92,0.039,29.872-0.623,44.788-0.39c1.073,0.017,1.068-0.913-0.027-0.901
				c-14.886,0.156-29.897-0.084-44.773,0.861C147.082,92.353,147.094,92.749,147.613,92.75L147.613,92.75z"/>
		</g>
		<g opacity="0.46">
			<path fill="#323286" d="M147.728,96.51c14.92,0.041,29.872-0.622,44.787-0.39c1.074,0.017,1.07-0.911-0.026-0.9
				c-14.886,0.156-29.898-0.086-44.773,0.86C147.196,96.115,147.208,96.51,147.728,96.51L147.728,96.51z"/>
		</g>
		<g>
			<g>
				<path fill="#323286" d="M141.842,96.106c0.51-0.266-0.008-1.383-0.782-2.042c-0.773-0.659-1.857-0.909-2.829-0.656
					c-0.974,0.254-1.81,1.007-2.184,1.966C136.047,95.374,137.671,98.302,141.842,96.106z"/>
			</g>
			<ellipse fill="#323286" cx="139.287" cy="91.181" rx="1.615" ry="1.664"/>
		</g>
		<g>
			<g>
				<path fill="#D1D1E9" d="M47.362,168.535c-0.05-0.036-0.099-0.071-0.148-0.107c-0.753-0.542-1.775,0.519-1.268,1.268
					c0.035,0.051,0.069,0.102,0.103,0.152c0.344,0.507,1.047,0.653,1.507,0.194C48.025,169.573,47.857,168.892,47.362,168.535
					L47.362,168.535z"/>
			</g>
		</g>
		<g>
			<g>
				<path fill="#D1D1E9" d="M46.615,153.649c-0.176,0.001-0.352,0.003-0.527,0.005c-0.314,0.002-0.314,0.485,0,0.487
					c0.176,0.001,0.352,0.003,0.527,0.005C46.935,154.149,46.935,153.646,46.615,153.649L46.615,153.649z"/>
			</g>
		</g>
		<g>
			<g>
				<path fill="#D1D1E9" d="M61.905,172.346c0.695,0,0.695-1.078,0-1.078S61.209,172.346,61.905,172.346L61.905,172.346z"/>
			</g>
		</g>
		<g>
			<g>
				<path fill="#D1D1E9" d="M39.761,190.5c-0.176-0.022-0.352-0.044-0.528-0.066c-0.471-0.059-0.471,0.79,0,0.731
					c0.176-0.022,0.352-0.044,0.528-0.066C40.146,191.052,40.146,190.548,39.761,190.5L39.761,190.5z"/>
			</g>
		</g>
		<g>
			<g>
				<path fill="#D1D1E9" d="M141.888,124.414c0.014,0.196,0.028,0.392,0.042,0.588c0.046,0.646,0.957,0.646,1.003,0
					c0.014-0.196,0.028-0.392,0.042-0.588C143.026,123.713,141.837,123.713,141.888,124.414L141.888,124.414z"/>
			</g>
		</g>
		<g>
			<g>
				<path fill="#D1D1E9" d="M139.585,149.388c0.459,0,0.459-0.713,0-0.713S139.125,149.388,139.585,149.388L139.585,149.388z"/>
			</g>
		</g>
		<g>
			<g>
				<path fill="#D1D1E9" d="M166.916,173.423c0.465,0,0.465-0.722,0-0.722S166.451,173.423,166.916,173.423L166.916,173.423z"/>
			</g>
		</g>
		<g>
			<g>
				<path fill="#D1D1E9" d="M200.513,144.379c0.804,0,0.804-1.247,0-1.247S199.709,144.379,200.513,144.379L200.513,144.379z"/>
			</g>
		</g>
		<g>
			<g>
				<path fill="#D1D1E9" d="M206.208,132.546c0.659,0,0.659-1.021,0-1.021S205.548,132.546,206.208,132.546L206.208,132.546z"/>
			</g>
		</g>
		<g>
			<g>
				<path fill="#D1D1E9" d="M194.793,120.897c0.014-0.195,0.027-0.39,0.046-0.585c-0.098,0.17-0.195,0.34-0.292,0.51
					c0.084-0.051,0.169-0.102,0.253-0.153c0.925-0.558,0.547-2.035-0.551-2.035s-1.476,1.477-0.551,2.035
					c0.084,0.051,0.169,0.102,0.253,0.153c-0.098-0.17-0.195-0.34-0.292-0.51c0.019,0.195,0.033,0.39,0.046,0.585
					C193.755,121.598,194.744,121.598,194.793,120.897L194.793,120.897z"/>
			</g>
		</g>
		<g>
			<g>
				<path fill="#D1D1E9" d="M36.517,79.294c0.012,0,0.012-0.019,0-0.019S36.504,79.294,36.517,79.294L36.517,79.294z"/>
			</g>
		</g>
		<g>
			<g>
				<path fill="#D1D1E9" d="M27.974,108.406c0.52,0,0.52-0.807,0-0.807S27.454,108.406,27.974,108.406L27.974,108.406z"/>
			</g>
		</g>
	</g>
	<g>
		<ellipse fill="#FFFFFF" cx="97.081" cy="275.063" rx="1.535" ry="1.579"/>
		<ellipse opacity="0.21" fill="#FFFFFF" cx="116.049" cy="275.063" rx="1.535" ry="1.579"/>
		<ellipse opacity="0.21" fill="#FFFFFF" cx="135.016" cy="275.063" rx="1.535" ry="1.579"/>
	</g>
	<text transform="matrix(0.969 0 0 1 93.4019 49.8862)" fill="#FFFFFF" font-family="'Montserrat-Bold'" font-size="5.7311">Lorem Ipsum</text>
	<g>
		<g>
			<g>
				<path fill="#FFFFFF" d="M35.792,54.984c-0.081,0-0.163-0.029-0.229-0.089l-5.466-5.099c-0.072-0.069-0.111-0.164-0.111-0.262
					c0-0.099,0.042-0.195,0.114-0.262l5.597-5.099c0.14-0.126,0.355-0.113,0.48,0.032c0.124,0.143,0.112,0.367-0.029,0.495
					l-5.313,4.839l5.185,4.837c0.139,0.13,0.15,0.351,0.025,0.494C35.979,54.946,35.886,54.984,35.792,54.984z"/>
			</g>
		</g>
		<g>
			<g>
				<path fill="#FFFFFF" d="M201.07,47.12h-10.119c-0.188,0-0.341-0.156-0.341-0.35c0-0.194,0.153-0.35,0.341-0.35h10.119
					c0.188,0,0.34,0.156,0.34,0.35C201.41,46.963,201.258,47.12,201.07,47.12z"/>
			</g>
			<g>
				<path fill="#FFFFFF" d="M201.07,50.236h-10.119c-0.188,0-0.341-0.156-0.341-0.351c0-0.193,0.153-0.35,0.341-0.35h10.119
					c0.188,0,0.34,0.157,0.34,0.35C201.41,50.081,201.258,50.236,201.07,50.236z"/>
			</g>
			<g>
				<path fill="#FFFFFF" d="M201.07,53.353h-10.119c-0.188,0-0.341-0.158-0.341-0.35c0-0.195,0.153-0.351,0.341-0.351h10.119
					c0.188,0,0.34,0.156,0.34,0.351C201.41,53.195,201.258,53.353,201.07,53.353z"/>
			</g>
		</g>
		<g>
			<g opacity="0.46">
				<g>
					<g>
						<ellipse fill="#FFFFFF" cx="182.889" cy="29.854" rx="0.56" ry="0.576"/>
						<path fill="#FFFFFF" d="M184.226,28.466c-0.01-0.008-0.018-0.016-0.025-0.025l-0.026-0.024
							c-0.003-0.005-0.01-0.008-0.014-0.013c-0.722-0.676-1.831-0.649-2.521,0.062l-0.082,0.083l-0.111,0.116
							c-0.137,0.141-0.136,0.37,0,0.51c0.138,0.142,0.361,0.142,0.496,0l0.194-0.199c0.44-0.451,1.155-0.451,1.591,0l0.14,0.14
							c0.137,0.139,0.356,0.139,0.492-0.001c0.067-0.067,0.102-0.157,0.102-0.252c0-0.096-0.035-0.186-0.099-0.253L184.226,28.466z"
							/>
						<path fill="#FFFFFF" d="M185.179,27.753l-0.116-0.119c0-0.002,0-0.002-0.002-0.002l-0.09-0.095
							c-0.015-0.016-0.034-0.03-0.053-0.043c-1.178-1.065-2.973-1.033-4.115,0.098c-0.004,0.005-0.01,0.009-0.017,0.014l-0.21,0.217
							c-0.125,0.128-0.122,0.336,0.002,0.465c0.125,0.129,0.327,0.129,0.452,0.001l0.21-0.215c0-0.003,0.002-0.004,0.003-0.006
							c0.924-0.917,2.389-0.923,3.319-0.018l0.165,0.169c0.126,0.129,0.329,0.128,0.452,0
							C185.302,28.089,185.304,27.882,185.179,27.753z"/>
					</g>
				</g>
			</g>
			
				<text transform="matrix(0.9716 0 0 1 24.272 30.8687)" opacity="0.48" fill="#FFFFFF" font-family="'Quicksand-Regular'" font-size="5.2705">10:30 AM</text>
			<g opacity="0.48">
				<text transform="matrix(0.9716 0 0 1 188.0269 30.3921)" fill="#FFFFFF" font-family="'Quicksand-Regular'" font-size="4.9875">85%</text>
				<path fill="#FFFFFF" d="M201.855,30.87c-0.244,0.001-0.44-0.185-0.44-0.414l-0.005-3.257c0-0.228,0.199-0.415,0.437-0.416
					l7.345-0.013c0.241,0.001,0.438,0.187,0.441,0.416l-0.001,0.673l0.567-0.004l0.004,1.92l-0.566,0.003l0.001,0.666
					c0,0.228-0.196,0.414-0.438,0.414L201.855,30.87z M209.328,27.065l-7.612,0.012l0.002,3.5l7.613-0.013L209.328,27.065z
					 M202.013,27.403l5.536-0.01l0.004,2.85l-5.537,0.006L202.013,27.403z"/>
			</g>
		</g>
	</g>
</g>
</svg>
