<?xml version="1.0" encoding="utf-8"?>
<!-- Generator: Adobe Illustrator 16.0.0, SVG Export Plug-In . SVG Version: 6.00 Build 0)  -->
<!DOCTYPE svg PUBLIC "-//W3C//DTD SVG 1.1//EN" "http://www.w3.org/Graphics/SVG/1.1/DTD/svg11.dtd">
<svg version="1.1" id="Layer_1" xmlns="http://www.w3.org/2000/svg" xmlns:xlink="http://www.w3.org/1999/xlink" x="0px" y="0px"
	 width="757.304px" height="498.65px" viewBox="0 0 757.304 498.65" enable-background="new 0 0 757.304 498.65"
	 xml:space="preserve">
<g>
	
		<image overflow="visible" opacity="0.7" enable-background="new    " width="867" height="513" xlink:href="8DAF9FE4.png"  transform="matrix(1.0703 0 0 1.203 -156.0337 -45.9014)">
	</image>
	<g>
		<g>
			<g>
				<g>
					
						<linearGradient id="SVGID_1_" gradientUnits="userSpaceOnUse" x1="-350.5005" y1="127.5376" x2="-340.833" y2="117.8701" gradientTransform="matrix(1 0 0 -1 244 636.2217)">
						<stop  offset="0" style="stop-color:#E9EBF9"/>
						<stop  offset="1" style="stop-color:#FFFFFF"/>
					</linearGradient>
					<path fill="url(#SVGID_1_)" d="M-91.999,513.517h-19.334C-111.333,513.517-103.776,514.29-91.999,513.517z"/>
					
						<linearGradient id="SVGID_2_" gradientUnits="userSpaceOnUse" x1="-42.5376" y1="497.0864" x2="353.418" y2="101.1306" gradientTransform="matrix(1 0 0 -1 244 636.2217)">
						<stop  offset="0" style="stop-color:#E9EBF9"/>
						<stop  offset="1" style="stop-color:#FFFFFF"/>
					</linearGradient>
					<path fill="url(#SVGID_2_)" d="M540.605,6.627C506.359-9.167,466.95,8.356,429.94,7.407
						c-37.009-0.947-77.779,7.043-101.504,38.987c-28.52,38.406-23.068,98.601-51.573,137.022
						c-49.936,67.306-165.143,23.747-211.434,94.275c-26.668,40.633-7.044,102.001-28.513,146.351
						c-112.198,164.89,586.216,85.333,586.216,85.333S898.132,171.535,540.605,6.627z"/>
				</g>
				<g opacity="0.4">
					<path fill="none" stroke="#938FFD" stroke-linecap="round" stroke-linejoin="round" stroke-miterlimit="10" d="
						M552.265,129.972c3.463,0.528,6.766,1.58,9.912,3.154c3.146,1.574,5.867,3.613,8.15,6.111c2.288,2.496,4.018,5.412,5.191,8.756
						c1.17,3.338,1.512,7.036,1.02,11.095c-0.396,3.31-1.205,6.115-2.42,8.418c-1.218,2.3-2.656,4.316-4.328,6.042
						c-1.669,1.726-3.448,3.264-5.336,4.625c-1.893,1.355-3.681,2.643-5.361,3.86c-1.685,1.218-3.196,2.528-4.525,3.925
						c-1.329,1.398-2.213,2.995-2.654,4.778c-0.26,0.89-0.688,1.626-1.279,2.208c-0.599,0.584-1.298,0.811-2.107,0.686l-8.398-1.278
						c-0.81-0.125-1.486-0.562-2.032-1.317c-0.547-0.755-0.727-1.588-0.542-2.486c0.533-3.206,1.486-5.95,2.847-8.226
						c1.358-2.28,2.913-4.276,4.659-5.993c1.744-1.713,3.575-3.227,5.497-4.537c1.92-1.309,3.703-2.573,5.351-3.799
						c1.647-1.224,3.039-2.488,4.17-3.79c1.132-1.3,1.802-2.823,2.012-4.564c0.381-3.141-0.484-5.906-2.596-8.295
						c-2.116-2.386-5.125-3.877-9.022-4.473c-6.261-0.952-11.291,1.863-15.082,8.452c-0.479,0.856-0.948,1.478-1.406,1.87
						c-0.463,0.391-1.173,0.521-2.127,0.374l-8.944-1.364c-0.668-0.099-1.208-0.438-1.625-1.007
						c-0.42-0.569-0.577-1.266-0.477-2.091c0.418-2.887,1.567-5.727,3.443-8.516c1.873-2.791,4.23-5.212,7.064-7.271
						c2.837-2.055,6.058-3.607,9.673-4.656C544.605,129.608,548.363,129.379,552.265,129.972z M548.183,201.168
						c0.807,0.123,1.468,0.561,1.977,1.315c0.513,0.752,0.709,1.582,0.603,2.489l-1.32,10.926c-0.109,0.912-0.499,1.655-1.166,2.227
						c-0.668,0.574-1.409,0.795-2.217,0.673l-9.497-1.449c-0.816-0.123-1.474-0.561-1.982-1.309
						c-0.511-0.752-0.71-1.588-0.602-2.496l1.319-10.923c0.11-0.912,0.496-1.652,1.168-2.225c0.666-0.573,1.406-0.798,2.219-0.677
						L548.183,201.168z"/>
				</g>
				<g>
					<path fill="#C2C2FF" d="M590.81,347.758c0.045-1.665-0.973-3.148-2.426-3.52l-15.258-3.937
						c-0.257-3.419-0.762-6.79-1.509-10.094l13.252-9.334c1.267-0.895,1.792-2.665,1.259-4.23
						c-3.397-10.011-8.444-19.051-14.979-26.852c-1.02-1.226-2.665-1.458-3.936-0.569l-13.248,9.346
						c-2.317-2.192-4.8-4.175-7.43-5.921l3.498-17.156c0.333-1.633-0.408-3.306-1.761-3.987c-8.699-4.378-17.975-6.767-27.492-7.082
						c-1.488-0.05-2.803,1.091-3.134,2.722l-3.5,17.154c-3.048,0.288-6.054,0.857-8.984,1.7l-8.313-14.904
						c-0.795-1.427-2.367-2.014-3.757-1.417c-8.918,3.82-16.947,9.48-23.891,16.841c-1.082,1.155-1.296,2.998-0.5,4.419
						l8.312,14.901c-1.952,2.599-3.715,5.392-5.271,8.349l-15.262-3.933c-1.451-0.375-2.938,0.458-3.546,1.985
						c-1.949,4.884-3.467,9.965-4.511,15.098c-1.047,5.135-1.652,10.447-1.79,15.803c-0.046,1.668,0.971,3.146,2.426,3.522
						l15.258,3.932c0.256,3.423,0.762,6.792,1.51,10.093l-13.257,9.344c-1.265,0.885-1.786,2.651-1.261,4.222
						c3.394,10.01,8.435,19.048,14.978,26.855c1.025,1.229,2.669,1.463,3.936,0.564l13.255-9.341
						c2.313,2.192,4.802,4.174,7.429,5.921l-3.5,17.155c-0.331,1.627,0.412,3.306,1.767,3.981c4.348,2.19,8.869,3.898,13.435,5.073
						c4.565,1.176,9.294,1.854,14.057,2.009c1.483,0.052,2.803-1.092,3.133-2.721l3.502-17.149c3.042-0.289,6.042-0.856,8.977-1.698
						l8.313,14.897c0.793,1.419,2.356,2.015,3.757,1.412c8.907-3.816,16.953-9.491,23.891-16.838c1.084-1.146,1.3-2.999,0.507-4.418
						l-8.314-14.898c1.951-2.603,3.715-5.393,5.269-8.348l15.262,3.934c1.451,0.374,2.943-0.458,3.548-1.985
						c1.947-4.885,3.465-9.965,4.512-15.096C590.069,358.429,590.67,353.116,590.81,347.758z M539.257,354.808
						c-3.437,9.742-12.685,16.252-21.983,15.487c-0.008,0-0.008,0-0.008,0c-7.188-0.575-13.519-4.827-17.301-11.62
						c-3.793-6.792-4.436-15.021-1.773-22.581c3.438-9.739,12.682-16.261,21.988-15.487c1.188,0.093,2.354,0.294,3.491,0.59
						c5.731,1.473,10.65,5.364,13.813,11.032C541.273,339.021,541.92,347.248,539.257,354.808z"/>
				</g>
				<g opacity="0.2">
					<path fill="#938FFD" d="M650.889,460.783c0.523-0.896,0.404-2.091-0.282-2.842l-7.214-7.899
						c0.877-1.969,1.602-4.012,2.171-6.107l10.063-0.146c0.961-0.017,1.772-0.793,1.946-1.851
						c1.112-6.776,1.028-13.639-0.242-20.377c-0.199-1.059-1.028-1.801-1.991-1.787l-10.058,0.152
						c-0.62-2.075-1.395-4.099-2.317-6.043l7.022-8.104c0.67-0.774,0.76-1.973,0.216-2.852c-3.471-5.673-7.855-10.471-12.993-14.225
						c-0.8-0.582-1.86-0.455-2.53,0.321l-7.025,8.105c-1.754-0.982-3.577-1.804-5.434-2.44l-0.134-11.31
						c-0.015-1.082-0.702-1.997-1.644-2.192c-6.035-1.252-12.129-1.156-18.13,0.272c-0.938,0.232-1.604,1.165-1.591,2.236
						l0.136,11.312c-1.846,0.694-3.644,1.566-5.379,2.602l-7.214-7.891c-0.683-0.751-1.75-0.854-2.535-0.243
						c-2.524,1.954-4.871,4.177-6.973,6.601c-2.098,2.428-4.011,5.12-5.683,8.007c-0.518,0.901-0.4,2.097,0.288,2.841l7.212,7.894
						c-0.875,1.976-1.604,4.02-2.173,6.106l-10.059,0.151c-0.958,0.017-1.772,0.788-1.95,1.847
						c-1.109,6.773-1.028,13.631,0.242,20.377c0.195,1.065,1.028,1.812,1.993,1.791l10.056-0.15c0.62,2.068,1.396,4.093,2.321,6.043
						l-7.024,8.111c-0.664,0.769-0.756,1.968-0.214,2.854c1.735,2.832,3.712,5.467,5.867,7.83c2.16,2.362,4.556,4.512,7.126,6.389
						c0.8,0.585,1.86,0.448,2.53-0.321l7.023-8.107c1.754,0.988,3.575,1.8,5.438,2.444l0.127,11.301
						c0.015,1.08,0.699,1.998,1.649,2.19c6.022,1.249,12.131,1.16,18.128-0.272c0.936-0.224,1.605-1.155,1.593-2.234l-0.138-11.304
						c1.851-0.702,3.646-1.57,5.38-2.61l7.211,7.896c0.687,0.75,1.752,0.85,2.537,0.246c2.524-1.952,4.871-4.177,6.969-6.603
						C647.308,466.364,649.223,463.671,650.889,460.783z M620.478,445.284c-4.787,4.06-11.804,4.164-16.681,0.25
						c-0.005-0.004-0.005-0.004-0.005-0.004c-3.775-3.02-5.986-7.731-6.045-12.888c-0.061-5.154,2.03-9.912,5.74-13.064
						c4.785-4.056,11.802-4.162,16.683-0.246c0.626,0.501,1.208,1.048,1.744,1.634c2.711,2.967,4.253,6.95,4.306,11.252
						C626.282,437.372,624.188,442.134,620.478,445.284z"/>
				</g>
				<path fill="#2E317B" d="M478.268,197.405c0,17.705-12.771,32.064-28.528,32.064c-15.752,0-28.521-14.359-28.521-32.064
					c0-17.71,12.77-32.067,28.521-32.067C465.497,165.338,478.268,179.694,478.268,197.405z"/>
				<path fill="#FFB900" d="M245.846,485.761c3.954,7.96,11.427,12.889,19.533,12.889h277.645c8.108,0,15.577-4.929,19.534-12.885
					c3.954-7.957,3.77-17.695-0.481-25.454L486.143,321.71c-5.748-10.489-17.229-14.561-27.095-10.266
					c-34.748-18.154-74.941-18.154-109.691,0c-9.867-4.29-21.349-0.224-27.091,10.266l-75.937,138.601
					C242.077,468.068,241.893,477.808,245.846,485.761z M502.969,448.35h-27.847v-50.828L502.969,448.35z M305.435,448.35
					l27.844-50.828v50.828H305.435z"/>
				<g>
					<path fill="#E19B00" d="M404.202,336.775L404.202,336.775c10.979,0,19.88-10.004,19.88-22.342v-75.415H384.32v75.415
						C384.32,326.771,393.223,336.775,404.202,336.775z"/>
					<path fill="#FF9E9B" d="M404.202,327.347L404.202,327.347c10.979,0,19.88-10,19.88-22.342v-75.415H384.32v75.415
						C384.32,317.347,393.223,327.347,404.202,327.347z"/>
					<path opacity="0.5" fill="#FF9E9B" enable-background="new    " d="M424.082,284.318c0,12.344-8.9,22.35-19.88,22.35
						s-19.882-10.006-19.882-22.35v-48.965h39.762V284.318z"/>
				</g>
				<path fill="#E19B00" d="M420.956,498.65h70.788v-0.405c0-21.973-15.848-39.782-35.395-39.782l0,0
					c-19.545,0-35.391,17.81-35.391,39.782v0.405H420.956z"/>
				<path fill="#FF9E9B" d="M407.199,287.351L407.199,287.351c23.25-2.115,40.57-25.011,38.69-51.142l-5.359-74.437l-84.19,7.653
					l5.358,74.443C363.578,269.996,383.952,289.468,407.199,287.351z"/>
				<ellipse fill="#2E317B" cx="409.536" cy="221.182" rx="2.759" ry="3.514"/>
				<ellipse fill="#2E317B" cx="375.621" cy="221.182" rx="2.759" ry="3.514"/>
				<path fill="#FFFFFF" d="M416.506,247.827c0.373,5.731-1.952,11.191-6.378,13.774c-4.425,2.582-9.735,1.577-13.689-2.063
					L416.506,247.827z"/>
				<path fill="#FF9E9B" d="M412.95,498.65h64.616v-0.372c0-20.054-14.46-36.314-32.307-36.314l0,0
					c-17.844,0-32.31,16.259-32.31,36.314V498.65z"/>
				<path fill="#5142B2" d="M404.041,498.65h42.951v-0.249c0-13.332-9.612-24.139-21.473-24.139h-0.004
					c-11.86,0-21.475,10.807-21.475,24.139V498.65L404.041,498.65z"/>
				<g>
					<path fill="#7C7EFD" d="M183.886,498.65h196.352c8.56,0,15.497-7.797,15.497-17.415l0,0H168.393l0,0
						C168.393,490.853,175.331,498.65,183.886,498.65z"/>
					<path fill="#5142B2" d="M163.906,481.235h157.051c4.436,0,7.716-4.647,6.709-9.501l-23.873-115.249
						c-0.729-3.503-3.505-5.988-6.711-5.988H140.031c-4.437,0-7.714,4.645-6.708,9.502l23.875,115.249
						C157.923,478.75,160.705,481.235,163.906,481.235z"/>
					<path fill="#938FFD" d="M158.49,481.235h157.05c4.438,0,7.716-4.647,6.709-9.501l-23.873-115.249
						c-0.727-3.503-3.509-5.988-6.711-5.988H134.614c-4.436,0-7.716,4.645-6.709,9.502l23.876,115.249
						C152.506,478.75,155.287,481.235,158.49,481.235z"/>
					<ellipse fill="#A6A5FB" cx="223.37" cy="415.866" rx="18.222" ry="20.482"/>
				</g>
				<path fill="#2E317B" d="M403.095,119.937c-27.693-4.199-53.684,21.899-58.053,58.299l100.291,15.206
					C449.699,157.044,430.791,124.136,403.095,119.937z"/>
				<path fill="#2E317B" d="M361.466,202.45c10.487,1.589,20.133-6.675,21.548-18.458l-37.974-5.757
					C343.627,190.017,350.98,200.862,361.466,202.45z"/>
				<path fill="#2E317B" d="M399.913,195.912c18.59,9.006,37.629,5.949,42.526-6.826l-67.319-32.604
					C370.225,169.254,381.323,186.907,399.913,195.912z"/>
				<ellipse fill="#FF9E9B" cx="446.558" cy="226.237" rx="15.328" ry="17.23"/>
				
					<path opacity="0.5" fill="none" stroke="#FF9E9B" stroke-width="0.9114" stroke-miterlimit="10" enable-background="new    " d="
					M396.38,218.747c0,0-2.615,18.889-8.933,25.445c6.059,3.077,7.337,0,7.337,0"/>
				<path fill="#2E317B" d="M376.222,208.958c-1.88-0.207-3.776,0.076-5.541,0.829c-0.994,0.413-2.191,0.104-2.753-0.915l0,0
					c-0.561-1.01,0.019-2.542,1.388-3.127c2.319-0.99,4.814-1.364,7.281-1.091c1.461,0.163,2.377,1.472,2.072,2.609l0,0
					C378.365,208.411,377.274,209.064,376.222,208.958z"/>
				<path fill="#2E317B" d="M410.528,208.958c1.879-0.207,3.775,0.076,5.538,0.829c0.994,0.413,2.194,0.104,2.755-0.915l0,0
					c0.559-1.01-0.017-2.542-1.388-3.127c-2.319-0.99-4.813-1.364-7.282-1.091c-1.459,0.163-2.376,1.472-2.068,2.609l0,0
					C408.389,208.411,409.475,209.064,410.528,208.958z"/>
				<ellipse fill="#2E317B" cx="443.777" cy="156.482" rx="15.3" ry="17.197"/>
				<path fill="#2E317B" d="M386.204,159.01c-1.844,15.362-14.418,26.135-28.083,24.062c-13.667-2.073-23.252-16.206-21.41-31.572
					c1.845-15.36,14.421-26.133,28.088-24.06C378.464,129.507,388.051,143.644,386.204,159.01z"/>
				<path fill="#2E317B" d="M453.732,224.42c0.893,4.459-1.599,8.878-5.563,9.881c-3.963,0.998-7.897-1.798-8.79-6.251
					c-0.887-4.457,1.6-8.88,5.566-9.879C448.908,217.168,452.841,219.964,453.732,224.42z"/>
				
					<path fill="none" stroke="#FFFFFF" stroke-width="1.7126" stroke-linecap="round" stroke-linejoin="round" stroke-miterlimit="10" d="
					M428.628,259.841c7.082-0.89,13.372-6.023,16.321-13.313c2.65-6.536,1.869-13.59,1.43-20.508"/>
				<path fill="#2E317B" d="M430.299,263.617l-11.314,0.991c-1.743,0.153-3.263-1.313-3.401-3.268l0,0
					c-0.136-1.96,1.168-3.672,2.91-3.826l11.313-0.993L430.299,263.617z"/>
				
					<ellipse fill="none" stroke="#FFFFFF" stroke-width="0.2441" stroke-linecap="round" stroke-linejoin="round" stroke-miterlimit="10" cx="446.44" cy="226.316" rx="4.567" ry="5.133"/>
				<g opacity="0.4">
					<polygon fill="none" stroke="#938FFD" stroke-linecap="round" stroke-linejoin="round" stroke-miterlimit="10" points="
						210.71,282.376 275.846,249.19 256.59,298.796 					"/>
					<polyline fill="none" stroke="#938FFD" stroke-linecap="round" stroke-linejoin="round" stroke-miterlimit="10" points="
						275.846,249.19 293.741,293.567 228.603,326.754 210.71,282.376 					"/>
					<polyline fill="none" stroke="#938FFD" stroke-linecap="round" stroke-linejoin="round" stroke-miterlimit="10" points="
						260.455,288.847 293.741,293.567 275.846,249.19 					"/>
					<polyline fill="none" stroke="#938FFD" stroke-linecap="round" stroke-linejoin="round" stroke-miterlimit="10" points="
						247.387,295.505 228.603,326.754 210.71,282.376 					"/>
				</g>
				<path fill="#938FFD" d="M108.962,426.672h-0.148c0,4.622-3.333,8.372-7.445,8.372v0.166c4.112,0,7.445,3.745,7.445,8.367h0.148
					c0-4.622,3.333-8.367,7.447-8.367v-0.166C112.296,435.044,108.962,431.294,108.962,426.672z"/>
				<path fill="#938FFD" d="M495.642,107.904h-0.146c0,4.623-3.336,8.367-7.447,8.367v0.165c4.111,0,7.447,3.75,7.447,8.376h0.146
					c0-4.626,3.335-8.376,7.446-8.376v-0.165C498.977,116.271,495.642,112.527,495.642,107.904z"/>
				<path fill="#938FFD" d="M87.696,412.03c0,1.428-1.031,2.591-2.305,2.591c-1.271,0-2.306-1.163-2.306-2.591
					c0-1.435,1.036-2.596,2.306-2.596C86.666,409.434,87.696,410.595,87.696,412.03z"/>
				<path fill="#938FFD" d="M210.159,47c0,1.431-1.032,2.589-2.308,2.589c-1.273,0-2.305-1.16-2.305-2.589
					c0-1.436,1.033-2.596,2.305-2.596C209.127,44.403,210.159,45.564,210.159,47z"/>
				<ellipse fill="#938FFD" cx="152.782" cy="209.533" rx="2.307" ry="2.593"/>
				<ellipse fill="#938FFD" cx="479.067" cy="100.286" rx="2.307" ry="2.592"/>
				<ellipse fill="#938FFD" cx="536.69" cy="84.755" rx="2.308" ry="2.594"/>
				<path fill="#938FFD" d="M597.655,184.829c0,1.429-1.032,2.59-2.307,2.59c-1.273,0-2.307-1.162-2.307-2.59
					c0-1.435,1.033-2.594,2.307-2.594C596.623,182.235,597.655,183.394,597.655,184.829z"/>
				<g>
					<path fill="none" stroke="#D8D8FF" stroke-miterlimit="10" d="M177.965,96.168c-0.195-0.69-0.803-1.131-1.446-1.051
						l-6.756,0.857c-0.544-1.362-1.184-2.66-1.915-3.891l4.241-5.971c0.404-0.573,0.393-1.381-0.027-1.937
						c-2.672-3.553-5.899-6.448-9.578-8.585c-0.575-0.336-1.279-0.166-1.685,0.401l-4.235,5.976c-1.229-0.525-2.5-0.936-3.804-1.229
						l-0.762-7.598c-0.069-0.722-0.586-1.289-1.229-1.349c-4.124-0.389-8.231,0.132-12.175,1.544
						c-0.615,0.219-1.007,0.9-0.937,1.623l0.762,7.596c-1.212,0.611-2.371,1.331-3.463,2.149l-5.314-4.765
						c-0.51-0.458-1.229-0.442-1.722,0.025c-3.167,3.008-5.734,6.629-7.637,10.765c-0.297,0.65-0.148,1.441,0.359,1.894l5.313,4.762
						c-0.464,1.382-0.83,2.813-1.09,4.277l-6.761,0.857c-0.643,0.078-1.145,0.661-1.199,1.384c-0.169,2.319-0.143,4.646,0.085,6.919
						c0.226,2.273,0.659,4.551,1.288,6.766c0.196,0.691,0.8,1.132,1.442,1.052l6.761-0.856c0.543,1.361,1.183,2.661,1.91,3.894
						l-4.237,5.971c-0.404,0.569-0.394,1.376,0.022,1.936c2.672,3.554,5.896,6.445,9.578,8.583c0.579,0.342,1.279,0.168,1.685-0.404
						l4.239-5.971c1.226,0.526,2.5,0.937,3.804,1.224l0.762,7.599c0.07,0.723,0.587,1.291,1.232,1.349
						c2.061,0.196,4.131,0.165,6.155-0.095c2.022-0.256,4.044-0.744,6.02-1.447c0.612-0.217,1.005-0.902,0.934-1.623l-0.762-7.599
						c1.21-0.606,2.367-1.329,3.464-2.148l5.311,4.763c0.511,0.458,1.228,0.445,1.722-0.025c3.164-3.004,5.738-6.636,7.638-10.768
						c0.296-0.645,0.15-1.439-0.357-1.892l-5.317-4.76c0.47-1.385,0.834-2.812,1.093-4.276l6.759-0.857
						c0.645-0.079,1.147-0.665,1.202-1.385c0.17-2.318,0.144-4.646-0.085-6.92C179.027,100.662,178.594,98.385,177.965,96.168z
						 M157.735,107.395c-0.162,4.549-3.117,8.711-7.026,9.906c-0.004,0-0.004,0-0.004,0c-3.02,0.924-6.162,0.204-8.582-1.968
						c-2.423-2.171-3.737-5.438-3.615-8.968c0.159-4.549,3.115-8.714,7.029-9.907c0.499-0.153,1.005-0.26,1.507-0.321
						c2.535-0.324,5.051,0.474,7.075,2.288C156.542,100.598,157.856,103.868,157.735,107.395z"/>
				</g>
				<path fill="#D8D8FF" d="M243.467,132.266c-3.833-20.02-18.672-35.64-36.694-38.648c-1.562-0.259-3.108-0.465-4.67-0.702
					c-1.44,0-2.879,0-4.336,0c-1.541,0.237-3.12,0.435-4.668,0.702c-19.379,3.298-34.715,20.742-37.357,42.485
					c-3.211,26.541,12.004,50.807,35.331,56.24c1.898,0.453,3.853,0.576,5.785,0.876c0.304,0.042,0.605,0.134,0.91,0.214
					c1.458,0,2.897,0,4.336,0c1.563-0.233,3.109-0.44,4.67-0.698c18.839-3.166,34.129-20.097,37.146-41.146
					c0.202-1.475,0.409-2.938,0.616-4.4c0-2.68,0-5.35,0-8.021C244.191,136.858,243.918,134.546,243.467,132.266z M228.086,162.027
					c-0.391,0.856-4.03,7.707-5.584,9.388c-1.52,1.633-3.584,2.196-5.176,2.196c-0.167,0-0.335-0.003-0.493-0.019
					c-2.19-0.175-16.641-5.628-26.569-17.874c-9.935-12.248-13.426-28.915-13.381-31.385c0.035-1.846,0.701-4.426,2.453-6.132
					c1.637-1.601,8.081-5.056,8.838-5.393c0.721-0.32,2.217-1.001,3.417,0.773c0.462,0.682,7.904,13.978,8.262,15.511
					c0.205,0.894,0.158,2.263-1.248,3.716c-0.615,0.628-6.632,4.851-6.896,5.029c-0.191,0.125-0.31,0.214-0.351,0.269
					c0.006,0.009,0.014,0.121,0.065,0.333c0.222,0.883,2.979,6.819,5.735,10.22c2.757,3.404,7.76,7.029,8.521,7.357
					c0.249,0.11,0.333,0.093,0.326,0.093c0.023-0.03,0.187-0.277,0.242-0.361c0.161-0.247,4.464-6.611,5.081-7.247
					c1.418-1.438,2.643-1.368,3.411-1.058c1.289,0.522,12.405,10.085,12.975,10.675
					C229.175,159.645,228.439,161.257,228.086,162.027z"/>
				<path fill="#938FFD" d="M186.734,49.435h-0.175c0,5.409-3.9,9.793-8.711,9.793v0.192c4.811,0,8.711,4.384,8.711,9.792h0.175
					c0-5.408,3.899-9.792,8.711-9.792v-0.192C190.633,59.227,186.734,54.844,186.734,49.435z"/>
				<path fill="#938FFD" d="M66.534,171.535h-0.171c0,5.408-3.9,9.795-8.711,9.795v0.193c4.811,0,8.711,4.388,8.711,9.795h0.171
					c0-5.407,3.904-9.795,8.715-9.795v-0.193C70.438,181.33,66.534,176.943,66.534,171.535z"/>
				<path fill="#938FFD" d="M300.527,51.865c-0.101-0.35-0.392-0.586-0.72-0.586h-7.542l-2.33-8.064
					c-0.104-0.349-0.394-0.586-0.721-0.586c-0.33,0-0.616,0.237-0.72,0.586l-2.331,8.064h-7.545c-0.324,0-0.615,0.237-0.718,0.586
					c-0.101,0.349,0.011,0.733,0.274,0.95l6.103,4.984l-2.331,8.063c-0.097,0.35,0.012,0.731,0.274,0.948
					c0.267,0.219,0.624,0.219,0.891,0l6.102-4.982l6.102,4.982c0.132,0.107,0.291,0.164,0.443,0.164
					c0.157,0,0.313-0.056,0.446-0.164c0.266-0.217,0.376-0.598,0.276-0.948l-2.332-8.063l6.1-4.984
					C300.52,52.6,300.628,52.214,300.527,51.865z"/>
				<path fill="#938FFD" d="M334.567,51.865c-0.098-0.35-0.389-0.586-0.718-0.586h-7.544l-2.332-8.064
					c-0.099-0.349-0.39-0.586-0.718-0.586c-0.329,0-0.618,0.237-0.716,0.586l-2.332,8.064h-7.546c-0.327,0-0.617,0.237-0.717,0.586
					c-0.102,0.349,0.007,0.733,0.275,0.95l6.102,4.984l-2.332,8.063c-0.103,0.35,0.012,0.731,0.274,0.948
					c0.267,0.219,0.622,0.219,0.889,0l6.103-4.982l6.102,4.982c0.134,0.107,0.289,0.164,0.444,0.164
					c0.154,0,0.312-0.056,0.445-0.164c0.262-0.217,0.377-0.598,0.272-0.948l-2.33-8.063l6.102-4.984
					C334.562,52.6,334.67,52.214,334.567,51.865z"/>
				<path fill="#938FFD" d="M368.612,51.865c-0.104-0.35-0.389-0.586-0.718-0.586h-7.546l-2.332-8.064
					c-0.101-0.349-0.388-0.586-0.716-0.586c-0.329,0-0.62,0.237-0.723,0.586l-2.33,8.064h-7.544c-0.326,0-0.617,0.237-0.718,0.586
					c-0.101,0.349,0.009,0.733,0.276,0.95l6.1,4.984l-2.332,8.063c-0.101,0.35,0.011,0.731,0.276,0.948
					c0.269,0.219,0.624,0.219,0.89,0l6.103-4.982l6.1,4.982c0.134,0.107,0.288,0.164,0.443,0.164c0.157,0,0.316-0.056,0.448-0.164
					c0.264-0.217,0.372-0.598,0.274-0.948l-2.332-8.063l6.102-4.984C368.6,52.6,368.715,52.214,368.612,51.865z"/>
			</g>
		</g>
	</g>
</g>
</svg>
