<?xml version="1.0" encoding="utf-8"?>
<!-- Generator: Adobe Illustrator 16.0.0, SVG Export Plug-In . SVG Version: 6.00 Build 0)  -->
<!DOCTYPE svg PUBLIC "-//W3C//DTD SVG 1.1//EN" "http://www.w3.org/Graphics/SVG/1.1/DTD/svg11.dtd">
<svg version="1.1" id="Layer_1" xmlns="http://www.w3.org/2000/svg" xmlns:xlink="http://www.w3.org/1999/xlink" x="0px" y="0px"
	 width="500px" height="600px" viewBox="0 0 500 600" enable-background="new 0 0 500 600" xml:space="preserve">
<g>
	<g id="Слой_2">
		<g>
			<path fill="#333343" d="M386.646,94.876h-0.614V35.592C386.031,15.935,368.7,0,347.324,0H112.703
				C91.326,0,73.996,15.935,73.996,35.592v59.285H73.38c-2.791,0-5.053,2.081-5.053,4.646v41.009c0,2.566,2.262,4.646,5.053,4.646
				h0.615v9.781H73.38c-2.791,0-5.053,2.081-5.053,4.647v41.009c0,2.566,2.262,4.646,5.053,4.646h0.615v359.145
				c0,19.657,17.33,35.593,38.707,35.593h234.622c21.376,0,38.707-15.936,38.707-35.593V170.331h0.614
				c2.791,0,5.053-2.08,5.053-4.646V99.523C391.699,96.957,389.437,94.876,386.646,94.876z"/>
			<path fill="#FFFFFF" d="M343.328,591.197h-226.63c-17.364,0-31.438-12.943-31.438-28.909V37.711
				c0-15.966,14.075-28.909,31.438-28.909h226.63c17.362,0,31.439,12.943,31.439,28.909v524.577
				C374.768,578.254,360.691,591.197,343.328,591.197z"/>
		</g>
		<g>
			<g>
				<g>
					<path fill="#3E3D51" d="M135.593,46.617h-18.539c-0.419,0-0.76-0.313-0.76-0.699c0-0.386,0.34-0.699,0.76-0.699h18.539
						c0.42,0,0.76,0.313,0.76,0.699C136.354,46.305,136.013,46.617,135.593,46.617z"/>
					<path fill="#3E3D51" d="M135.593,52.905h-18.539c-0.419,0-0.76-0.313-0.76-0.699c0-0.386,0.34-0.699,0.76-0.699h18.539
						c0.42,0,0.76,0.313,0.76,0.699C136.354,52.592,136.013,52.905,135.593,52.905z"/>
					<path fill="#3E3D51" d="M135.593,59.193h-18.539c-0.419,0-0.76-0.313-0.76-0.699c0-0.386,0.34-0.699,0.76-0.699h18.539
						c0.42,0,0.76,0.313,0.76,0.699C136.354,58.88,136.013,59.193,135.593,59.193z"/>
				</g>
				<g>
					<g>
						<path fill="#3E3D51" d="M299.18,55.525c-0.64-0.196-1.142-0.449-1.507-0.761l0.483-0.935c0.349,0.288,0.793,0.521,1.335,0.701
							c0.544,0.18,1.102,0.27,1.674,0.27c0.756,0,1.322-0.118,1.696-0.354c0.371-0.235,0.558-0.549,0.558-0.94
							c0-0.288-0.102-0.521-0.305-0.701c-0.204-0.18-0.458-0.317-0.755-0.413c-0.301-0.096-0.726-0.204-1.272-0.324
							c-0.686-0.151-1.239-0.304-1.66-0.455s-0.782-0.385-1.081-0.701c-0.301-0.315-0.45-0.741-0.45-1.276
							c0-0.447,0.128-0.851,0.384-1.21c0.258-0.359,0.645-0.647,1.166-0.862c0.521-0.216,1.169-0.324,1.943-0.324
							c0.538,0,1.067,0.064,1.589,0.192c0.52,0.128,0.968,0.312,1.342,0.551l-0.43,0.959c-0.383-0.224-0.791-0.394-1.226-0.509
							c-0.434-0.116-0.859-0.174-1.275-0.174c-0.738,0-1.294,0.124-1.664,0.372c-0.368,0.247-0.553,0.567-0.553,0.958
							c0,0.288,0.106,0.521,0.314,0.701c0.207,0.18,0.467,0.32,0.774,0.419c0.309,0.1,0.728,0.206,1.258,0.318
							c0.686,0.151,1.237,0.303,1.653,0.455c0.418,0.152,0.775,0.383,1.077,0.695c0.299,0.312,0.448,0.731,0.448,1.258
							c0,0.439-0.13,0.841-0.392,1.205c-0.26,0.363-0.655,0.651-1.185,0.862c-0.529,0.212-1.183,0.318-1.956,0.318
							C300.48,55.819,299.816,55.721,299.18,55.525z"/>
						<path fill="#3E3D51" d="M309.102,52.763l-1.435,1.222v1.737h-1.251v-8.89h1.251v5.703l3.767-3.163h1.511l-2.904,2.624
							l3.191,3.726h-1.537L309.102,52.763z"/>
						<path fill="#3E3D51" d="M314.371,47.935c-0.16-0.144-0.241-0.319-0.241-0.527c0-0.208,0.081-0.385,0.241-0.533
							c0.161-0.148,0.363-0.222,0.605-0.222c0.244,0,0.446,0.07,0.608,0.209c0.159,0.14,0.239,0.314,0.239,0.521
							c0,0.215-0.08,0.397-0.239,0.545c-0.162,0.147-0.364,0.221-0.608,0.221C314.734,48.15,314.532,48.079,314.371,47.935z
							 M314.351,49.373h1.253v6.35h-1.253V49.373z"/>
						<path fill="#3E3D51" d="M323.447,49.72c0.528,0.272,0.944,0.651,1.244,1.138c0.299,0.487,0.449,1.051,0.449,1.689
							c0,0.639-0.149,1.204-0.449,1.695s-0.716,0.873-1.244,1.144c-0.531,0.271-1.13,0.408-1.798,0.408
							c-0.496,0-0.949-0.088-1.362-0.264s-0.763-0.431-1.049-0.767v3.283h-1.251v-8.674h1.2v1.007
							c0.277-0.352,0.628-0.617,1.056-0.797c0.423-0.18,0.894-0.27,1.406-0.27C322.317,49.313,322.916,49.449,323.447,49.72z
							 M322.736,54.507c0.352-0.188,0.629-0.451,0.834-0.791c0.203-0.339,0.307-0.729,0.307-1.168c0-0.439-0.104-0.829-0.307-1.168
							c-0.205-0.339-0.482-0.601-0.834-0.785c-0.351-0.184-0.75-0.275-1.192-0.275c-0.435,0-0.826,0.094-1.179,0.282
							c-0.352,0.188-0.631,0.449-0.835,0.785s-0.305,0.723-0.305,1.162s0.099,0.829,0.299,1.168c0.199,0.34,0.478,0.604,0.835,0.791
							c0.354,0.188,0.75,0.281,1.185,0.281C321.986,54.788,322.386,54.694,322.736,54.507z"/>
					</g>
					<path fill="#3E3D51" d="M329.244,65.528h-35.66c-7.988,0-14.487-5.976-14.487-13.322c0-7.346,6.499-13.322,14.487-13.322h35.66
						c7.988,0,14.488,5.976,14.488,13.322C343.732,59.552,337.232,65.528,329.244,65.528z M293.584,40.282
						c-7.15,0-12.968,5.349-12.968,11.925c0,6.575,5.817,11.925,12.968,11.925h35.66c7.148,0,12.969-5.35,12.969-11.925
						c0-6.576-5.82-11.925-12.969-11.925H293.584z"/>
				</g>
			</g>
			<g>
				<path fill="#8282A8" d="M211.416,538.519c-2.56,0-4.643,1.915-4.643,4.27c0,2.354,2.084,4.269,4.643,4.269
					c2.561,0,4.643-1.915,4.643-4.269C216.059,540.434,213.977,538.519,211.416,538.519z"/>
				<path fill="#8282A8" d="M230.013,547.119c-2.56,0-4.642-1.915-4.642-4.269c0-2.354,2.082-4.269,4.642-4.269
					c2.559,0,4.642,1.915,4.642,4.269S232.572,547.119,230.013,547.119z M230.013,539.979c-1.722,0-3.124,1.288-3.124,2.871
					s1.401,2.871,3.124,2.871c1.722,0,3.123-1.288,3.123-2.871S231.735,539.979,230.013,539.979z"/>
				<path fill="#8282A8" d="M248.609,547.183c-2.558,0-4.641-1.916-4.641-4.27s2.083-4.269,4.641-4.269
					c2.56,0,4.645,1.915,4.645,4.269S251.17,547.183,248.609,547.183z M248.609,540.041c-1.722,0-3.122,1.289-3.122,2.872
					s1.4,2.871,3.122,2.871c1.723,0,3.124-1.288,3.124-2.871S250.332,540.041,248.609,540.041z"/>
			</g>
			<g>
				<g>
					<path fill="#3E3D51" d="M132.956,406.654h5.439v22.697h15.312v4.23h-20.751V406.654L132.956,406.654z"/>
					<path fill="#3E3D51" d="M161.237,432.506c-1.813-0.897-3.229-2.148-4.247-3.751c-1.018-1.603-1.526-3.417-1.526-5.443
						c0-2.025,0.509-3.834,1.526-5.425c1.019-1.589,2.434-2.833,4.247-3.731c1.813-0.896,3.849-1.346,6.108-1.346
						c2.286,0,4.336,0.449,6.149,1.346c1.813,0.898,3.228,2.143,4.246,3.731c1.019,1.591,1.527,3.399,1.527,5.425
						c0,2.026-0.509,3.84-1.527,5.443c-1.018,1.603-2.433,2.854-4.246,3.751s-3.863,1.346-6.149,1.346
						C165.086,433.853,163.05,433.403,161.237,432.506z M172.114,427.966c1.255-1.179,1.883-2.73,1.883-4.654
						s-0.628-3.475-1.883-4.654c-1.255-1.18-2.844-1.77-4.768-1.77c-1.925,0-3.508,0.59-4.749,1.77s-1.861,2.73-1.861,4.654
						s0.62,3.476,1.861,4.654c1.241,1.181,2.824,1.77,4.749,1.77C169.27,429.735,170.859,429.146,172.114,427.966z"/>
					<path fill="#3E3D51" d="M197.215,412.81v4.578c-0.447-0.077-0.851-0.115-1.212-0.115c-2.037,0-3.626,0.545-4.77,1.635
						c-1.144,1.091-1.714,2.661-1.714,4.712v9.963h-5.23V413.04h4.979v3.001C190.772,413.887,193.421,412.81,197.215,412.81z"/>
					<path fill="#3E3D51" d="M222.358,424.851h-17.529c0.307,1.514,1.108,2.711,2.406,3.597c1.297,0.885,2.907,1.327,4.832,1.327
						c2.454,0,4.477-0.743,6.066-2.231l2.803,2.962c-1.004,1.104-2.273,1.938-3.807,2.501c-1.534,0.564-3.262,0.847-5.187,0.847
						c-2.455,0-4.616-0.449-6.484-1.347c-1.869-0.897-3.312-2.148-4.33-3.751c-1.019-1.603-1.527-3.417-1.527-5.443
						c0-2,0.495-3.802,1.485-5.405c0.99-1.602,2.364-2.853,4.122-3.75c1.757-0.897,3.736-1.347,5.94-1.347
						c2.176,0,4.121,0.442,5.836,1.327s3.054,2.129,4.016,3.731c0.962,1.604,1.443,3.456,1.443,5.559
						C222.442,423.76,222.414,424.234,222.358,424.851z M206.9,418.022c-1.157,0.91-1.862,2.122-2.113,3.635h12.676
						c-0.224-1.486-0.907-2.692-2.049-3.616c-1.145-0.923-2.567-1.385-4.268-1.385C209.473,416.656,208.057,417.112,206.9,418.022z"
						/>
					<path fill="#3E3D51" d="M262.352,415.061c1.645,1.5,2.469,3.75,2.469,6.751v11.771h-5.229v-11.155
						c0-1.795-0.433-3.147-1.297-4.059c-0.865-0.91-2.106-1.365-3.723-1.365c-1.757,0-3.167,0.532-4.226,1.597
						s-1.588,2.583-1.588,4.559v10.425h-5.23v-11.156c0-1.795-0.433-3.147-1.297-4.058c-0.865-0.91-2.105-1.366-3.725-1.366
						c-1.784,0-3.199,0.526-4.245,1.577c-1.046,1.053-1.568,2.578-1.568,4.578v10.425h-5.23v-20.542h4.978v2.616
						c0.838-0.924,1.884-1.629,3.139-2.116c1.256-0.487,2.649-0.73,4.183-0.73c1.674,0,3.16,0.288,4.456,0.865
						c1.297,0.577,2.322,1.43,3.074,2.559c0.922-1.077,2.107-1.917,3.557-2.521c1.449-0.602,3.054-0.903,4.811-0.903
						C258.477,412.81,260.706,413.56,262.352,415.061z"/>
					<path fill="#3E3D51" d="M284.65,433.197c-1.729-0.436-3.111-0.986-4.143-1.653l2.009-3.654c1.003,0.615,2.208,1.109,3.618,1.48
						c1.408,0.372,2.795,0.558,4.162,0.558c3.123,0,4.686-0.756,4.686-2.27c0-0.717-0.396-1.217-1.191-1.5
						c-0.795-0.281-2.072-0.552-3.828-0.808c-1.842-0.256-3.341-0.552-4.498-0.885c-1.158-0.333-2.162-0.917-3.013-1.751
						c-0.851-0.833-1.275-1.993-1.275-3.481c0-1.948,0.885-3.507,2.656-4.674s4.163-1.75,7.176-1.75c1.532,0,3.065,0.16,4.601,0.48
						c1.534,0.321,2.789,0.75,3.766,1.289l-2.007,3.654c-1.896-1.025-4.032-1.539-6.401-1.539c-1.535,0-2.697,0.212-3.493,0.635
						c-0.795,0.424-1.192,0.981-1.192,1.673c0,0.77,0.423,1.314,1.274,1.635c0.851,0.321,2.171,0.623,3.954,0.904
						c1.785,0.257,3.25,0.553,4.392,0.885c1.145,0.334,2.128,0.898,2.951,1.693s1.235,1.924,1.235,3.385
						c0,1.924-0.908,3.463-2.72,4.616c-1.813,1.154-4.282,1.731-7.405,1.731C288.148,433.853,286.379,433.634,284.65,433.197z"/>
					<path fill="#3E3D51" d="M304.856,408.828c-0.642-0.551-0.962-1.237-0.962-2.058c0-0.821,0.32-1.507,0.962-2.058
						c0.641-0.552,1.437-0.828,2.384-0.828s1.742,0.264,2.386,0.789c0.642,0.526,0.962,1.187,0.962,1.981
						c0,0.846-0.314,1.558-0.94,2.135c-0.629,0.577-1.431,0.865-2.407,0.865C306.292,409.655,305.497,409.38,304.856,408.828z
						 M304.604,413.04h5.229v20.542h-5.229V413.04z"/>
					<path fill="#3E3D51" d="M330.123,432.467c-0.614,0.462-1.359,0.808-2.236,1.039c-0.88,0.23-1.808,0.347-2.783,0.347
						c-2.455,0-4.35-0.591-5.69-1.77c-1.338-1.18-2.006-2.898-2.006-5.155v-9.887h-3.682v-3.847h3.682v-4.692h5.229v4.692h5.982
						v3.847h-5.982v9.771c0,1,0.265,1.764,0.794,2.289s1.299,0.788,2.301,0.788c1.173,0,2.147-0.282,2.931-0.847L330.123,432.467z"
						/>
				</g>
				<g>
					<path fill="#8282A8" d="M118.319,460.712h3.407c0.855,0,1.613,0.156,2.275,0.468c0.662,0.312,1.177,0.749,1.542,1.312
						c0.366,0.563,0.55,1.209,0.55,1.938s-0.184,1.375-0.55,1.938c-0.365,0.563-0.88,1-1.542,1.312
						c-0.663,0.312-1.42,0.467-2.275,0.467h-3.407V460.712z M121.658,467.222c0.654,0,1.229-0.116,1.726-0.351
						c0.496-0.233,0.88-0.561,1.149-0.981c0.269-0.422,0.404-0.908,0.404-1.461c0-0.552-0.136-1.039-0.404-1.46
						c-0.27-0.421-0.653-0.749-1.149-0.982c-0.497-0.233-1.072-0.351-1.726-0.351h-2.183v5.585L121.658,467.222L121.658,467.222z"/>
					<path fill="#8282A8" d="M128.679,467.838c-0.485-0.248-0.864-0.589-1.138-1.025c-0.273-0.435-0.41-0.929-0.41-1.48
						c0-0.553,0.137-1.046,0.41-1.481c0.273-0.437,0.652-0.775,1.138-1.02s1.032-0.367,1.64-0.367c0.608,0,1.153,0.123,1.635,0.367
						c0.48,0.244,0.858,0.584,1.132,1.02c0.272,0.435,0.41,0.929,0.41,1.481c0,0.552-0.138,1.046-0.41,1.48
						c-0.273,0.437-0.651,0.777-1.132,1.025c-0.481,0.248-1.027,0.372-1.635,0.372S129.164,468.086,128.679,467.838z
						 M131.375,467.067c0.312-0.166,0.557-0.399,0.733-0.7c0.177-0.301,0.266-0.646,0.266-1.036c0-0.389-0.089-0.733-0.266-1.035
						c-0.176-0.301-0.422-0.532-0.733-0.695c-0.311-0.162-0.664-0.244-1.057-0.244c-0.392,0-0.745,0.082-1.057,0.244
						c-0.312,0.163-0.559,0.395-0.739,0.695c-0.182,0.302-0.271,0.646-0.271,1.035c0,0.391,0.09,0.735,0.271,1.036
						c0.181,0.301,0.427,0.534,0.739,0.7c0.312,0.167,0.665,0.251,1.057,0.251C130.711,467.318,131.064,467.234,131.375,467.067z"/>
					<path fill="#8282A8" d="M135.031,460.267h1.109v7.879h-1.109V460.267z"/>
					<path fill="#8282A8" d="M139.235,467.838c-0.485-0.248-0.865-0.589-1.138-1.025c-0.273-0.435-0.41-0.929-0.41-1.48
						c0-0.553,0.136-1.046,0.41-1.481c0.273-0.437,0.652-0.775,1.138-1.02c0.485-0.244,1.031-0.367,1.639-0.367
						c0.608,0,1.153,0.123,1.634,0.367c0.481,0.244,0.858,0.584,1.132,1.02c0.273,0.436,0.41,0.929,0.41,1.481
						c0,0.552-0.137,1.046-0.41,1.48c-0.273,0.437-0.651,0.777-1.132,1.025c-0.481,0.248-1.026,0.372-1.634,0.372
						C140.266,468.21,139.72,468.086,139.235,467.838z M141.931,467.067c0.312-0.166,0.556-0.399,0.733-0.7s0.267-0.646,0.267-1.036
						c0-0.389-0.089-0.733-0.267-1.035c-0.177-0.301-0.421-0.532-0.733-0.695c-0.312-0.162-0.665-0.244-1.057-0.244
						s-0.745,0.082-1.057,0.244c-0.311,0.163-0.559,0.395-0.738,0.695c-0.181,0.302-0.272,0.646-0.272,1.035
						c0,0.391,0.091,0.735,0.272,1.036c0.18,0.301,0.427,0.534,0.738,0.7c0.313,0.167,0.665,0.251,1.057,0.251
						S141.619,467.234,141.931,467.067z"/>
					<path fill="#8282A8" d="M147.504,462.72c0.376-0.17,0.835-0.255,1.374-0.255v0.987c-0.063-0.007-0.146-0.011-0.254-0.011
						c-0.601,0-1.072,0.165-1.415,0.494c-0.343,0.329-0.514,0.798-0.514,1.407v2.804h-1.109v-5.629h1.063v0.945
						C146.841,463.138,147.126,462.889,147.504,462.72z"/>
					<path fill="#8282A8" d="M153.74,468.023c-0.463-0.123-0.824-0.281-1.086-0.472l0.462-0.808c0.27,0.177,0.598,0.319,0.981,0.425
						c0.385,0.106,0.773,0.159,1.167,0.159c0.97,0,1.455-0.255,1.455-0.765c0-0.17-0.066-0.304-0.196-0.403
						c-0.131-0.099-0.295-0.171-0.491-0.218c-0.197-0.046-0.476-0.097-0.838-0.153c-0.492-0.071-0.895-0.152-1.207-0.245
						c-0.312-0.092-0.58-0.247-0.803-0.467c-0.223-0.22-0.334-0.527-0.334-0.924c0-0.51,0.231-0.919,0.693-1.227
						c0.461-0.309,1.081-0.462,1.858-0.462c0.409,0,0.817,0.046,1.225,0.138c0.408,0.092,0.744,0.216,1.005,0.372l-0.474,0.807
						c-0.5-0.297-1.089-0.445-1.767-0.445c-0.47,0-0.828,0.07-1.074,0.212c-0.247,0.142-0.37,0.329-0.37,0.563
						c0,0.185,0.07,0.33,0.208,0.437c0.139,0.105,0.31,0.184,0.513,0.233c0.205,0.049,0.492,0.105,0.861,0.17
						c0.493,0.077,0.891,0.16,1.196,0.249c0.304,0.089,0.564,0.239,0.779,0.451c0.215,0.213,0.324,0.51,0.324,0.892
						c0,0.51-0.237,0.916-0.71,1.217c-0.474,0.301-1.119,0.451-1.935,0.451C154.683,468.21,154.201,468.147,153.74,468.023z"/>
					<path fill="#8282A8" d="M159.231,461.243c-0.143-0.128-0.213-0.283-0.213-0.467c0-0.185,0.071-0.342,0.213-0.473
						s0.322-0.196,0.537-0.196c0.216,0,0.395,0.062,0.537,0.186c0.143,0.124,0.213,0.278,0.213,0.462
						c0,0.191-0.071,0.353-0.213,0.483c-0.142,0.131-0.321,0.196-0.537,0.196S159.374,461.37,159.231,461.243z M159.214,462.518
						h1.108v5.628h-1.108V462.518z"/>
					<path fill="#8282A8" d="M165.878,467.816c-0.162,0.128-0.363,0.226-0.602,0.292c-0.239,0.067-0.484,0.102-0.739,0.102
						c-0.616,0-1.093-0.152-1.433-0.457c-0.338-0.305-0.508-0.739-0.508-1.307v-3.09h-1.039v-0.839h1.039v-1.231h1.109v1.231h1.755
						v0.839h-1.755v3.048c0,0.304,0.083,0.538,0.248,0.7c0.165,0.163,0.402,0.245,0.71,0.245c0.338,0,0.627-0.089,0.866-0.266
						L165.878,467.816z"/>
					<path fill="#8282A8" d="M174.498,463.038c0.451,0.382,0.676,0.952,0.676,1.709v3.398h-1.051v-0.743
						c-0.185,0.262-0.449,0.462-0.792,0.6c-0.343,0.138-0.749,0.207-1.219,0.207c-0.686,0-1.234-0.152-1.646-0.456
						c-0.412-0.305-0.618-0.705-0.618-1.2s0.196-0.894,0.589-1.194c0.392-0.301,1.017-0.452,1.871-0.452h1.755v-0.201
						c0-0.439-0.138-0.775-0.416-1.009c-0.276-0.233-0.685-0.351-1.223-0.351c-0.362,0-0.716,0.055-1.063,0.165
						c-0.346,0.109-0.639,0.256-0.877,0.44l-0.462-0.765c0.315-0.233,0.692-0.412,1.132-0.536c0.438-0.124,0.904-0.187,1.397-0.187
						C173.399,462.465,174.048,462.655,174.498,463.038z M173.396,467.163c0.308-0.173,0.531-0.419,0.669-0.737v-0.786h-1.709
						c-0.94,0-1.409,0.29-1.409,0.871c0,0.283,0.119,0.506,0.358,0.669c0.239,0.162,0.57,0.244,0.993,0.244
						C172.721,467.424,173.087,467.337,173.396,467.163z"/>
					<path fill="#8282A8" d="M186.717,463.081c0.45,0.41,0.676,1.019,0.676,1.826v3.238h-1.108v-3.122
						c0-0.545-0.137-0.955-0.41-1.231s-0.664-0.414-1.172-0.414c-0.562,0-1.008,0.161-1.339,0.483s-0.497,0.784-0.497,1.386v2.898
						h-1.107v-3.122c0-0.545-0.138-0.955-0.411-1.231s-0.665-0.414-1.172-0.414c-0.562,0-1.008,0.161-1.339,0.483
						c-0.331,0.322-0.498,0.784-0.498,1.386v2.898h-1.108v-5.628h1.063v0.839c0.223-0.29,0.516-0.511,0.877-0.664
						c0.362-0.151,0.774-0.228,1.236-0.228c0.477,0,0.901,0.089,1.271,0.266c0.369,0.177,0.653,0.435,0.854,0.774
						c0.231-0.325,0.553-0.58,0.965-0.765c0.411-0.184,0.876-0.275,1.391-0.275C185.656,462.465,186.267,462.67,186.717,463.081z"/>
					<path fill="#8282A8" d="M194.98,465.672h-4.966c0.069,0.495,0.305,0.894,0.709,1.194s0.907,0.451,1.507,0.451
						c0.732,0,1.321-0.227,1.768-0.68l0.612,0.658c-0.277,0.297-0.622,0.524-1.033,0.68c-0.412,0.156-0.872,0.233-1.38,0.233
						c-0.647,0-1.221-0.122-1.721-0.366c-0.501-0.244-0.888-0.585-1.161-1.024s-0.41-0.935-0.41-1.487
						c0-0.544,0.133-1.037,0.399-1.476c0.264-0.438,0.631-0.78,1.096-1.025c0.466-0.243,0.991-0.366,1.577-0.366
						c0.585,0,1.107,0.123,1.565,0.366c0.458,0.245,0.816,0.587,1.074,1.025s0.387,0.941,0.387,1.508
						C195.004,465.441,194.995,465.544,194.98,465.672z M190.644,463.771c-0.358,0.297-0.568,0.688-0.629,1.168h3.927
						c-0.062-0.474-0.272-0.861-0.63-1.162c-0.358-0.301-0.803-0.451-1.334-0.451S191.002,463.473,190.644,463.771z"/>
					<path fill="#8282A8" d="M199.98,467.816c-0.161,0.128-0.361,0.226-0.6,0.292c-0.239,0.067-0.485,0.102-0.74,0.102
						c-0.615,0-1.093-0.152-1.432-0.457s-0.508-0.739-0.508-1.307v-3.09h-1.04v-0.839h1.04v-1.231h1.108v1.231h1.755v0.839h-1.755
						v3.048c0,0.304,0.082,0.538,0.248,0.7c0.166,0.163,0.402,0.245,0.71,0.245c0.338,0,0.627-0.089,0.867-0.266L199.98,467.816z"/>
					<path fill="#8282A8" d="M202.25,466.962c0.142,0.138,0.214,0.31,0.214,0.515c0,0.106-0.014,0.209-0.041,0.309
						c-0.027,0.099-0.08,0.251-0.156,0.456l-0.542,1.477h-0.729l0.428-1.582c-0.146-0.05-0.264-0.134-0.353-0.25
						c-0.088-0.117-0.132-0.253-0.132-0.409c0-0.212,0.072-0.385,0.219-0.52c0.146-0.135,0.331-0.202,0.554-0.202
						C201.929,466.755,202.107,466.824,202.25,466.962z"/>
					<path fill="#8282A8" d="M208.163,467.838c-0.489-0.248-0.872-0.589-1.149-1.025c-0.277-0.435-0.416-0.929-0.416-1.48
						c0-0.553,0.139-1.046,0.416-1.481c0.277-0.437,0.66-0.775,1.149-1.02c0.489-0.244,1.045-0.367,1.668-0.367
						c0.555,0,1.049,0.103,1.484,0.309c0.435,0.205,0.772,0.503,1.011,0.893l-0.843,0.498c-0.192-0.269-0.432-0.471-0.716-0.604
						c-0.285-0.135-0.601-0.202-0.946-0.202c-0.401,0-0.761,0.081-1.08,0.244c-0.32,0.163-0.571,0.395-0.751,0.695
						s-0.271,0.646-0.271,1.035c0,0.397,0.09,0.746,0.271,1.047s0.431,0.532,0.751,0.695c0.319,0.163,0.679,0.244,1.08,0.244
						c0.346,0,0.661-0.067,0.946-0.202c0.285-0.134,0.523-0.336,0.716-0.605l0.843,0.488c-0.238,0.39-0.576,0.688-1.011,0.897
						c-0.436,0.209-0.93,0.313-1.484,0.313C209.208,468.21,208.651,468.086,208.163,467.838z"/>
					<path fill="#8282A8" d="M214.647,467.838c-0.485-0.248-0.864-0.589-1.137-1.025c-0.273-0.435-0.41-0.929-0.41-1.48
						c0-0.553,0.137-1.046,0.41-1.481c0.273-0.437,0.652-0.775,1.137-1.02s1.032-0.367,1.64-0.367c0.607,0,1.153,0.123,1.634,0.367
						c0.481,0.244,0.859,0.584,1.133,1.02c0.273,0.435,0.41,0.929,0.41,1.481c0,0.552-0.136,1.046-0.41,1.48
						c-0.274,0.437-0.651,0.777-1.133,1.025c-0.481,0.248-1.026,0.372-1.634,0.372C215.679,468.21,215.132,468.086,214.647,467.838z
						 M217.344,467.067c0.312-0.166,0.557-0.399,0.733-0.7s0.266-0.646,0.266-1.036c0-0.389-0.089-0.733-0.266-1.035
						c-0.177-0.301-0.421-0.532-0.733-0.695c-0.312-0.162-0.664-0.244-1.057-0.244s-0.745,0.082-1.057,0.244
						c-0.312,0.163-0.559,0.395-0.74,0.695c-0.181,0.302-0.272,0.646-0.272,1.035c0,0.391,0.091,0.735,0.272,1.036
						s0.427,0.534,0.74,0.7c0.312,0.167,0.664,0.251,1.057,0.251S217.032,467.234,217.344,467.067z"/>
					<path fill="#8282A8" d="M226.121,463.086c0.458,0.414,0.688,1.021,0.688,1.821v3.238H225.7v-3.122
						c0-0.545-0.144-0.955-0.428-1.231c-0.285-0.276-0.692-0.414-1.225-0.414c-0.601,0-1.073,0.161-1.42,0.483
						c-0.346,0.322-0.519,0.784-0.519,1.386v2.898h-1.11v-5.628h1.063v0.85c0.223-0.29,0.525-0.513,0.907-0.669
						s0.814-0.234,1.299-0.234C225.046,462.465,225.664,462.672,226.121,463.086z"/>
					<path fill="#8282A8" d="M229.176,468.023c-0.461-0.123-0.823-0.281-1.085-0.472l0.462-0.808
						c0.27,0.177,0.597,0.319,0.982,0.425c0.385,0.106,0.773,0.159,1.166,0.159c0.97,0,1.456-0.255,1.456-0.765
						c0-0.17-0.065-0.304-0.196-0.403c-0.13-0.099-0.295-0.171-0.492-0.218c-0.195-0.046-0.476-0.097-0.837-0.153
						c-0.492-0.071-0.895-0.152-1.207-0.245c-0.312-0.092-0.579-0.247-0.802-0.467c-0.223-0.22-0.335-0.527-0.335-0.924
						c0-0.51,0.232-0.919,0.692-1.227c0.463-0.309,1.082-0.462,1.86-0.462c0.407,0,0.816,0.046,1.224,0.138
						c0.408,0.092,0.744,0.216,1.004,0.372l-0.474,0.807c-0.5-0.297-1.089-0.445-1.767-0.445c-0.469,0-0.827,0.07-1.073,0.212
						c-0.247,0.142-0.37,0.329-0.37,0.563c0,0.185,0.069,0.33,0.208,0.437c0.138,0.105,0.311,0.184,0.514,0.233
						c0.204,0.049,0.491,0.105,0.86,0.17c0.492,0.077,0.891,0.16,1.195,0.249c0.305,0.089,0.564,0.239,0.779,0.451
						c0.216,0.213,0.324,0.51,0.324,0.892c0,0.51-0.237,0.916-0.71,1.217s-1.119,0.451-1.935,0.451
						C230.119,468.21,229.638,468.147,229.176,468.023z"/>
					<path fill="#8282A8" d="M240.159,465.672h-4.966c0.069,0.495,0.306,0.894,0.71,1.194c0.404,0.301,0.907,0.451,1.507,0.451
						c0.73,0,1.32-0.227,1.766-0.68l0.613,0.658c-0.278,0.297-0.621,0.524-1.034,0.68c-0.412,0.156-0.872,0.233-1.38,0.233
						c-0.647,0-1.22-0.122-1.721-0.366c-0.5-0.244-0.888-0.585-1.161-1.024s-0.41-0.935-0.41-1.487c0-0.544,0.132-1.037,0.397-1.476
						c0.267-0.438,0.632-0.78,1.097-1.025c0.467-0.243,0.991-0.366,1.578-0.366c0.584,0,1.105,0.123,1.564,0.366
						c0.458,0.245,0.817,0.587,1.074,1.025c0.258,0.438,0.388,0.941,0.388,1.508C240.183,465.441,240.175,465.544,240.159,465.672z
						 M235.823,463.771c-0.359,0.297-0.569,0.688-0.63,1.168h3.926c-0.062-0.474-0.272-0.861-0.628-1.162
						c-0.359-0.301-0.803-0.451-1.334-0.451C236.625,463.325,236.179,463.473,235.823,463.771z"/>
					<path fill="#8282A8" d="M242.717,467.838c-0.489-0.248-0.873-0.589-1.149-1.025c-0.277-0.435-0.416-0.929-0.416-1.48
						c0-0.553,0.138-1.046,0.416-1.481c0.276-0.437,0.66-0.775,1.149-1.02c0.489-0.244,1.046-0.367,1.669-0.367
						c0.554,0,1.048,0.103,1.483,0.309c0.436,0.205,0.772,0.503,1.012,0.893l-0.844,0.498c-0.193-0.269-0.431-0.471-0.715-0.604
						c-0.285-0.135-0.603-0.202-0.949-0.202c-0.399,0-0.759,0.081-1.08,0.244s-0.568,0.395-0.75,0.695
						c-0.18,0.301-0.272,0.646-0.272,1.035c0,0.397,0.092,0.746,0.272,1.047c0.182,0.301,0.43,0.532,0.75,0.695
						s0.68,0.244,1.08,0.244c0.348,0,0.664-0.067,0.949-0.202c0.284-0.134,0.523-0.336,0.715-0.605l0.844,0.488
						c-0.239,0.39-0.576,0.688-1.012,0.897c-0.435,0.209-0.93,0.313-1.483,0.313C243.763,468.21,243.206,468.086,242.717,467.838z"
						/>
					<path fill="#8282A8" d="M251.835,467.816c-0.162,0.128-0.361,0.226-0.6,0.292c-0.239,0.067-0.486,0.102-0.74,0.102
						c-0.616,0-1.093-0.152-1.432-0.457c-0.339-0.305-0.508-0.739-0.508-1.307v-3.09h-1.039v-0.839h1.039v-1.231h1.109v1.231h1.755
						v0.839h-1.755v3.048c0,0.304,0.082,0.538,0.248,0.7c0.166,0.163,0.401,0.245,0.709,0.245c0.339,0,0.628-0.089,0.866-0.266
						L251.835,467.816z"/>
					<path fill="#8282A8" d="M258.477,465.672h-4.967c0.069,0.495,0.306,0.894,0.71,1.194s0.905,0.451,1.508,0.451
						c0.731,0,1.319-0.227,1.767-0.68l0.612,0.658c-0.277,0.297-0.622,0.524-1.034,0.68c-0.411,0.156-0.87,0.233-1.381,0.233
						c-0.646,0-1.219-0.122-1.72-0.366s-0.888-0.585-1.161-1.024s-0.409-0.935-0.409-1.487c0-0.544,0.132-1.037,0.397-1.476
						c0.267-0.438,0.632-0.78,1.099-1.025c0.463-0.243,0.991-0.366,1.574-0.366c0.587,0,1.107,0.123,1.566,0.366
						c0.458,0.245,0.814,0.587,1.073,1.025c0.258,0.438,0.388,0.941,0.388,1.508C258.499,465.441,258.491,465.544,258.477,465.672z
						 M254.139,463.771c-0.357,0.297-0.567,0.688-0.629,1.168h3.927c-0.063-0.474-0.271-0.861-0.63-1.162
						c-0.357-0.301-0.803-0.451-1.335-0.451C254.941,463.325,254.498,463.473,254.139,463.771z"/>
					<path fill="#8282A8" d="M263.476,467.816c-0.161,0.128-0.36,0.226-0.602,0.292c-0.237,0.067-0.483,0.102-0.738,0.102
						c-0.616,0-1.093-0.152-1.432-0.457s-0.508-0.739-0.508-1.307v-3.09h-1.04v-0.839h1.04v-1.231h1.108v1.231h1.754v0.839h-1.754
						v3.048c0,0.304,0.083,0.538,0.248,0.7c0.165,0.163,0.402,0.245,0.71,0.245c0.338,0,0.628-0.089,0.867-0.266L263.476,467.816z"
						/>
					<path fill="#8282A8" d="M270.521,462.518v5.628h-1.051v-0.849c-0.223,0.29-0.518,0.515-0.883,0.674
						c-0.366,0.159-0.765,0.239-1.196,0.239c-0.814,0-1.459-0.208-1.929-0.621c-0.47-0.415-0.704-1.025-0.704-1.832v-3.24h1.108
						v3.123c0,0.545,0.144,0.958,0.428,1.237c0.286,0.279,0.692,0.419,1.223,0.419c0.585,0,1.048-0.163,1.387-0.488
						c0.338-0.325,0.509-0.786,0.509-1.381v-2.909H270.521L270.521,462.518z"/>
					<path fill="#8282A8" d="M274.551,462.72c0.378-0.17,0.835-0.255,1.375-0.255v0.987c-0.063-0.007-0.148-0.011-0.254-0.011
						c-0.601,0-1.073,0.165-1.415,0.494c-0.344,0.329-0.515,0.798-0.515,1.407v2.804h-1.108v-5.629h1.063v0.945
						C273.889,463.138,274.175,462.889,274.551,462.72z"/>
					<path fill="#8282A8" d="M284.651,463.038c0.449,0.382,0.675,0.952,0.675,1.709v3.398h-1.053v-0.743
						c-0.183,0.262-0.446,0.462-0.789,0.6c-0.344,0.138-0.75,0.207-1.22,0.207c-0.685,0-1.233-0.152-1.646-0.456
						c-0.412-0.305-0.616-0.705-0.616-1.2s0.195-0.894,0.589-1.194c0.392-0.301,1.016-0.452,1.87-0.452h1.755v-0.201
						c0-0.439-0.139-0.775-0.415-1.009c-0.277-0.233-0.686-0.351-1.225-0.351c-0.363,0-0.715,0.055-1.062,0.165
						c-0.347,0.109-0.64,0.256-0.88,0.44l-0.461-0.765c0.315-0.233,0.692-0.412,1.133-0.536c0.438-0.124,0.904-0.187,1.396-0.187
						C283.551,462.465,284.201,462.655,284.651,463.038z M283.547,467.163c0.31-0.173,0.531-0.419,0.67-0.737v-0.786h-1.708
						c-0.939,0-1.411,0.29-1.411,0.871c0,0.283,0.121,0.506,0.359,0.669c0.238,0.162,0.569,0.244,0.993,0.244
						S283.239,467.337,283.547,467.163z"/>
					<path fill="#8282A8" d="M293.19,460.267v7.879h-1.063v-0.892c-0.247,0.312-0.558,0.549-0.936,0.711
						c-0.377,0.163-0.793,0.245-1.247,0.245c-0.593,0-1.125-0.121-1.594-0.361c-0.47-0.24-0.837-0.579-1.103-1.015
						c-0.267-0.435-0.399-0.936-0.399-1.502s0.133-1.066,0.399-1.498c0.266-0.432,0.633-0.768,1.103-1.008
						c0.469-0.241,1.001-0.361,1.594-0.361c0.438,0,0.843,0.076,1.212,0.228c0.369,0.153,0.677,0.378,0.924,0.675v-3.101H293.19z
						 M291.089,467.067c0.314-0.166,0.562-0.399,0.74-0.7c0.175-0.301,0.265-0.646,0.265-1.036c0-0.389-0.09-0.733-0.265-1.035
						c-0.179-0.301-0.426-0.532-0.74-0.695c-0.316-0.162-0.666-0.244-1.05-0.244c-0.394,0-0.747,0.082-1.058,0.244
						c-0.311,0.163-0.559,0.395-0.739,0.695c-0.182,0.302-0.271,0.646-0.271,1.035c0,0.391,0.09,0.735,0.271,1.036
						c0.181,0.301,0.427,0.534,0.739,0.7c0.311,0.167,0.664,0.251,1.058,0.251C290.423,467.318,290.772,467.234,291.089,467.067z"/>
					<path fill="#8282A8" d="M295.311,461.243c-0.143-0.128-0.214-0.283-0.214-0.467c0-0.185,0.071-0.342,0.214-0.473
						c0.141-0.131,0.321-0.196,0.537-0.196c0.215,0,0.396,0.062,0.537,0.186c0.143,0.124,0.213,0.278,0.213,0.462
						c0,0.191-0.07,0.353-0.213,0.483c-0.142,0.131-0.322,0.196-0.537,0.196C295.632,461.435,295.451,461.37,295.311,461.243z
						 M295.293,462.518h1.109v5.628h-1.109V462.518z"/>
					<path fill="#8282A8" d="M303.354,462.826c0.47,0.24,0.837,0.576,1.103,1.008c0.265,0.433,0.399,0.932,0.399,1.498
						s-0.135,1.067-0.399,1.502c-0.266,0.436-0.633,0.774-1.103,1.015c-0.469,0.24-0.999,0.361-1.595,0.361
						c-0.438,0-0.84-0.078-1.206-0.234c-0.366-0.155-0.675-0.382-0.929-0.679v2.909h-1.11v-7.689h1.063v0.893
						c0.246-0.312,0.559-0.547,0.937-0.706s0.792-0.239,1.246-0.239C302.354,462.465,302.885,462.585,303.354,462.826z
						 M302.723,467.067c0.313-0.166,0.56-0.399,0.742-0.7c0.18-0.301,0.27-0.646,0.27-1.036c0-0.389-0.09-0.733-0.27-1.035
						c-0.183-0.301-0.429-0.532-0.742-0.695c-0.311-0.162-0.662-0.244-1.057-0.244c-0.385,0-0.731,0.083-1.044,0.25
						s-0.56,0.397-0.739,0.695c-0.181,0.297-0.272,0.641-0.272,1.03s0.09,0.734,0.268,1.035c0.177,0.301,0.423,0.535,0.737,0.701
						c0.316,0.166,0.666,0.25,1.051,0.25C302.061,467.318,302.412,467.234,302.723,467.067z"/>
					<path fill="#8282A8" d="M306.407,461.243c-0.143-0.128-0.212-0.283-0.212-0.467c0-0.185,0.069-0.342,0.212-0.473
						s0.323-0.196,0.537-0.196c0.217,0,0.396,0.062,0.539,0.186c0.141,0.124,0.214,0.278,0.214,0.462
						c0,0.191-0.073,0.353-0.214,0.483c-0.144,0.131-0.322,0.196-0.539,0.196C306.73,461.435,306.55,461.37,306.407,461.243z
						 M306.391,462.518h1.107v5.628h-1.107V462.518z"/>
					<path fill="#8282A8" d="M309.926,468.023c-0.464-0.123-0.824-0.281-1.087-0.472l0.463-0.808
						c0.27,0.177,0.596,0.319,0.981,0.425c0.385,0.106,0.773,0.159,1.167,0.159c0.969,0,1.454-0.255,1.454-0.765
						c0-0.17-0.064-0.304-0.196-0.403c-0.132-0.099-0.294-0.171-0.491-0.218c-0.195-0.046-0.475-0.097-0.836-0.153
						c-0.493-0.071-0.896-0.152-1.208-0.245c-0.312-0.092-0.579-0.247-0.803-0.467s-0.335-0.527-0.335-0.924
						c0-0.51,0.231-0.919,0.692-1.227c0.464-0.309,1.082-0.462,1.859-0.462c0.408,0,0.816,0.046,1.225,0.138
						s0.743,0.216,1.004,0.372l-0.472,0.807c-0.502-0.297-1.091-0.445-1.768-0.445c-0.47,0-0.828,0.07-1.076,0.212
						c-0.245,0.142-0.369,0.329-0.369,0.563c0,0.185,0.071,0.33,0.208,0.437c0.141,0.105,0.311,0.184,0.515,0.233
						c0.203,0.049,0.49,0.105,0.86,0.17c0.493,0.077,0.892,0.16,1.196,0.249c0.304,0.089,0.564,0.239,0.779,0.451
						c0.216,0.213,0.322,0.51,0.322,0.892c0,0.51-0.235,0.916-0.709,1.217s-1.118,0.451-1.935,0.451
						C310.868,468.21,310.386,468.147,309.926,468.023z"/>
					<path fill="#8282A8" d="M316.397,467.838c-0.488-0.248-0.871-0.589-1.149-1.025c-0.275-0.435-0.415-0.929-0.415-1.48
						c0-0.553,0.14-1.046,0.415-1.481c0.278-0.437,0.661-0.775,1.149-1.02c0.489-0.244,1.045-0.367,1.67-0.367
						c0.555,0,1.048,0.103,1.484,0.309c0.433,0.205,0.771,0.503,1.01,0.893l-0.845,0.498c-0.192-0.269-0.431-0.471-0.715-0.604
						c-0.284-0.135-0.6-0.202-0.946-0.202c-0.399,0-0.761,0.081-1.08,0.244s-0.569,0.395-0.751,0.695
						c-0.183,0.301-0.271,0.646-0.271,1.035c0,0.397,0.089,0.746,0.271,1.047c0.182,0.301,0.432,0.532,0.751,0.695
						s0.681,0.244,1.08,0.244c0.347,0,0.662-0.067,0.946-0.202c0.285-0.134,0.523-0.336,0.715-0.605l0.845,0.488
						c-0.238,0.39-0.577,0.688-1.01,0.897c-0.437,0.209-0.93,0.313-1.484,0.313C317.442,468.21,316.887,468.086,316.397,467.838z"/>
					<path fill="#8282A8" d="M322.012,461.243c-0.144-0.128-0.216-0.283-0.216-0.467c0-0.185,0.072-0.342,0.216-0.473
						c0.143-0.131,0.32-0.196,0.538-0.196c0.213,0,0.392,0.062,0.535,0.186s0.213,0.278,0.213,0.462
						c0,0.191-0.069,0.353-0.213,0.483s-0.322,0.196-0.535,0.196C322.332,461.435,322.154,461.37,322.012,461.243z M321.993,462.518
						h1.109v5.628h-1.109V462.518z"/>
					<path fill="#8282A8" d="M330.338,463.086c0.458,0.414,0.687,1.021,0.687,1.821v3.238h-1.108v-3.122
						c0-0.545-0.143-0.955-0.428-1.231s-0.692-0.414-1.224-0.414c-0.603,0-1.073,0.161-1.421,0.483
						c-0.346,0.322-0.518,0.784-0.518,1.386v2.898h-1.109v-5.628h1.062v0.85c0.224-0.29,0.526-0.513,0.906-0.669
						c0.381-0.156,0.815-0.234,1.3-0.234C329.261,462.465,329.879,462.672,330.338,463.086z"/>
					<path fill="#8282A8" d="M338.971,462.518v4.863c0,0.984-0.267,1.712-0.797,2.184c-0.53,0.47-1.325,0.705-2.379,0.705
						c-0.577,0-1.129-0.072-1.653-0.218c-0.521-0.145-0.944-0.352-1.271-0.621l0.532-0.785c0.285,0.227,0.637,0.404,1.058,0.535
						c0.42,0.132,0.853,0.197,1.298,0.197c0.716,0,1.246-0.156,1.588-0.468c0.343-0.312,0.514-0.786,0.514-1.423v-0.446
						c-0.26,0.291-0.581,0.508-0.964,0.653c-0.379,0.146-0.794,0.218-1.24,0.218c-0.586,0-1.115-0.115-1.588-0.345
						c-0.475-0.23-0.846-0.553-1.117-0.967c-0.269-0.414-0.402-0.887-0.402-1.418c0-0.53,0.134-1.004,0.402-1.417
						c0.271-0.414,0.643-0.735,1.117-0.961c0.473-0.227,1.002-0.341,1.588-0.341c0.461,0,0.891,0.078,1.287,0.234
						s0.722,0.386,0.976,0.69v-0.871H338.971L338.971,462.518z M336.863,466.787c0.318-0.156,0.568-0.374,0.749-0.654
						c0.181-0.279,0.273-0.596,0.273-0.949c0-0.546-0.196-0.986-0.589-1.322s-0.898-0.505-1.514-0.505
						c-0.624,0-1.132,0.169-1.524,0.505s-0.589,0.776-0.589,1.322c0,0.354,0.091,0.67,0.27,0.949
						c0.181,0.28,0.432,0.498,0.752,0.654c0.319,0.155,0.683,0.233,1.092,0.233C336.184,467.021,336.543,466.942,336.863,466.787z"
						/>
					<path fill="#8282A8" d="M123.667,481.042h-4.966c0.07,0.495,0.306,0.894,0.71,1.194s0.906,0.451,1.506,0.451
						c0.731,0,1.321-0.227,1.767-0.68l0.614,0.658c-0.278,0.298-0.623,0.524-1.034,0.68c-0.412,0.156-0.873,0.234-1.38,0.234
						c-0.646,0-1.22-0.123-1.721-0.367c-0.5-0.244-0.887-0.585-1.161-1.024c-0.273-0.438-0.41-0.935-0.41-1.487
						c0-0.544,0.133-1.037,0.399-1.476c0.265-0.438,0.63-0.78,1.097-1.024c0.465-0.244,0.991-0.367,1.576-0.367
						c0.585,0,1.107,0.123,1.564,0.367c0.458,0.244,0.816,0.586,1.074,1.024s0.387,0.941,0.387,1.508
						C123.689,480.813,123.683,480.914,123.667,481.042z M119.33,479.141c-0.358,0.298-0.568,0.688-0.629,1.168h3.927
						c-0.062-0.474-0.272-0.861-0.629-1.162c-0.358-0.301-0.804-0.451-1.334-0.451C120.132,478.695,119.688,478.844,119.33,479.141z
						"/>
					<path fill="#8282A8" d="M125.226,475.637h1.108v7.879h-1.108V475.637z"/>
					<path fill="#8282A8" d="M128.465,476.613c-0.143-0.127-0.214-0.283-0.214-0.467s0.071-0.342,0.214-0.473
						c0.142-0.131,0.321-0.196,0.538-0.196c0.215,0,0.394,0.063,0.537,0.186c0.143,0.124,0.213,0.278,0.213,0.462
						c0,0.191-0.071,0.353-0.213,0.483c-0.144,0.131-0.322,0.196-0.537,0.196C128.786,476.805,128.607,476.741,128.465,476.613z
						 M128.448,477.888h1.108v5.629h-1.108V477.888z"/>
					<path fill="#8282A8" d="M135.111,483.188c-0.162,0.127-0.362,0.225-0.601,0.292c-0.24,0.066-0.485,0.101-0.739,0.101
						c-0.616,0-1.094-0.152-1.432-0.457c-0.339-0.304-0.508-0.739-0.508-1.307v-3.09h-1.04v-0.839h1.04v-1.231h1.108v1.231h1.756
						v0.839h-1.756v3.048c0,0.305,0.083,0.538,0.249,0.7c0.165,0.164,0.402,0.245,0.709,0.245c0.339,0,0.627-0.089,0.866-0.266
						L135.111,483.188z"/>
					<path fill="#8282A8" d="M137.381,482.332c0.143,0.139,0.213,0.31,0.213,0.515c0,0.106-0.013,0.209-0.041,0.309
						s-0.08,0.251-0.156,0.457l-0.543,1.476h-0.728l0.427-1.582c-0.146-0.05-0.264-0.133-0.351-0.25
						c-0.089-0.117-0.133-0.253-0.133-0.409c0-0.212,0.073-0.385,0.22-0.52c0.146-0.135,0.33-0.202,0.554-0.202
						C137.059,482.125,137.237,482.194,137.381,482.332z"/>
					<path fill="#8282A8" d="M142.606,483.394c-0.463-0.123-0.824-0.281-1.086-0.472l0.463-0.808
						c0.27,0.177,0.597,0.319,0.981,0.425c0.385,0.106,0.774,0.159,1.167,0.159c0.969,0,1.455-0.255,1.455-0.765
						c0-0.169-0.065-0.304-0.196-0.403c-0.132-0.099-0.295-0.171-0.491-0.218c-0.196-0.045-0.475-0.097-0.837-0.153
						c-0.493-0.071-0.896-0.152-1.208-0.245c-0.311-0.091-0.579-0.247-0.803-0.467c-0.223-0.22-0.335-0.527-0.335-0.924
						c0-0.51,0.231-0.918,0.693-1.227c0.461-0.309,1.082-0.462,1.859-0.462c0.408,0,0.816,0.046,1.225,0.138
						c0.407,0.093,0.742,0.216,1.005,0.372l-0.475,0.808c-0.5-0.298-1.089-0.446-1.767-0.446c-0.469,0-0.827,0.07-1.073,0.212
						c-0.247,0.142-0.37,0.329-0.37,0.563c0,0.184,0.069,0.329,0.208,0.436c0.139,0.105,0.311,0.184,0.514,0.233
						c0.204,0.049,0.491,0.105,0.86,0.17c0.493,0.078,0.892,0.161,1.196,0.249c0.303,0.089,0.564,0.239,0.779,0.451
						c0.216,0.213,0.323,0.51,0.323,0.893c0,0.51-0.236,0.915-0.71,1.216s-1.119,0.451-1.935,0.451
						C143.549,483.58,143.068,483.518,142.606,483.394z"/>
					<path fill="#8282A8" d="M153.59,481.042h-4.966c0.068,0.495,0.306,0.894,0.71,1.194s0.906,0.451,1.506,0.451
						c0.731,0,1.321-0.227,1.767-0.68l0.613,0.658c-0.277,0.298-0.622,0.524-1.034,0.68c-0.412,0.156-0.872,0.234-1.38,0.234
						c-0.646,0-1.221-0.123-1.721-0.367s-0.887-0.585-1.16-1.024c-0.274-0.438-0.411-0.935-0.411-1.487
						c0-0.544,0.133-1.037,0.399-1.476c0.265-0.438,0.631-0.78,1.098-1.024c0.465-0.244,0.99-0.367,1.576-0.367
						s1.107,0.123,1.565,0.367s0.816,0.586,1.074,1.024c0.257,0.438,0.386,0.941,0.386,1.508
						C153.611,480.813,153.604,480.914,153.59,481.042z M149.252,479.141c-0.358,0.298-0.567,0.688-0.629,1.168h3.926
						c-0.061-0.474-0.271-0.861-0.629-1.162c-0.358-0.301-0.802-0.451-1.334-0.451C150.055,478.695,149.61,478.844,149.252,479.141z
						"/>
					<path fill="#8282A8" d="M160.923,475.637v7.879h-1.063v-0.892c-0.246,0.312-0.558,0.549-0.936,0.712
						c-0.376,0.163-0.792,0.244-1.247,0.244c-0.593,0-1.125-0.121-1.594-0.361c-0.47-0.24-0.837-0.578-1.103-1.015
						c-0.265-0.435-0.399-0.936-0.399-1.502s0.134-1.065,0.399-1.497c0.266-0.432,0.633-0.769,1.103-1.009
						c0.469-0.241,1.001-0.361,1.594-0.361c0.438,0,0.842,0.076,1.212,0.228c0.37,0.153,0.677,0.378,0.924,0.675v-3.101H160.923z
						 M158.821,482.438c0.315-0.166,0.562-0.4,0.739-0.701c0.177-0.301,0.267-0.646,0.267-1.035s-0.089-0.734-0.267-1.036
						c-0.177-0.301-0.424-0.532-0.739-0.695c-0.315-0.162-0.666-0.244-1.051-0.244c-0.393,0-0.744,0.082-1.056,0.244
						c-0.312,0.163-0.558,0.395-0.739,0.695c-0.181,0.302-0.272,0.646-0.272,1.036s0.091,0.734,0.272,1.035s0.427,0.535,0.739,0.701
						c0.312,0.166,0.664,0.25,1.056,0.25C158.155,482.688,158.505,482.604,158.821,482.438z"/>
					<path fill="#8282A8" d="M171.64,481.042h-4.967c0.07,0.495,0.307,0.894,0.711,1.194c0.404,0.301,0.906,0.451,1.507,0.451
						c0.73,0,1.32-0.227,1.766-0.68l0.613,0.658c-0.277,0.298-0.622,0.524-1.034,0.68c-0.412,0.156-0.872,0.234-1.38,0.234
						c-0.646,0-1.22-0.123-1.72-0.367c-0.501-0.244-0.888-0.585-1.162-1.024c-0.272-0.438-0.409-0.935-0.409-1.487
						c0-0.544,0.132-1.037,0.398-1.476c0.265-0.438,0.631-0.78,1.096-1.024c0.466-0.244,0.992-0.367,1.577-0.367
						c0.585,0,1.106,0.123,1.565,0.367c0.457,0.244,0.815,0.586,1.074,1.024s0.387,0.941,0.387,1.508
						C171.663,480.813,171.655,480.914,171.64,481.042z M167.303,479.141c-0.358,0.298-0.568,0.688-0.63,1.168h3.927
						c-0.062-0.474-0.271-0.861-0.63-1.162c-0.357-0.301-0.802-0.451-1.334-0.451C168.106,478.695,167.662,478.844,167.303,479.141z
						"/>
					<path fill="#8282A8" d="M173.217,476.613c-0.143-0.127-0.214-0.283-0.214-0.467s0.071-0.342,0.214-0.473
						c0.142-0.131,0.321-0.196,0.537-0.196c0.215,0,0.395,0.063,0.537,0.186c0.143,0.124,0.214,0.278,0.214,0.462
						c0,0.191-0.072,0.353-0.214,0.483c-0.142,0.131-0.321,0.196-0.537,0.196C173.538,476.805,173.359,476.741,173.217,476.613z
						 M173.199,477.888h1.109v5.629h-1.109V477.888z"/>
					<path fill="#8282A8" d="M182.127,477.888v5.629h-1.052v-0.85c-0.224,0.29-0.518,0.515-0.883,0.674
						c-0.366,0.159-0.764,0.239-1.196,0.239c-0.816,0-1.459-0.207-1.929-0.621s-0.704-1.025-0.704-1.832v-3.239h1.108v3.122
						c0,0.545,0.143,0.958,0.427,1.237c0.285,0.28,0.693,0.42,1.225,0.42c0.584,0,1.047-0.163,1.386-0.489
						c0.339-0.325,0.507-0.786,0.507-1.381v-2.909H182.127L182.127,477.888z"/>
					<path fill="#8282A8" d="M184.552,483.394c-0.463-0.123-0.825-0.281-1.086-0.472l0.462-0.808
						c0.27,0.177,0.597,0.319,0.982,0.425c0.385,0.106,0.773,0.159,1.166,0.159c0.97,0,1.455-0.255,1.455-0.765
						c0-0.169-0.065-0.304-0.196-0.403c-0.131-0.099-0.294-0.171-0.491-0.218c-0.196-0.045-0.475-0.097-0.837-0.153
						c-0.493-0.071-0.896-0.152-1.207-0.245c-0.313-0.091-0.58-0.247-0.803-0.467c-0.224-0.22-0.335-0.527-0.335-0.924
						c0-0.51,0.23-0.918,0.692-1.227c0.462-0.309,1.083-0.462,1.86-0.462c0.408,0,0.816,0.046,1.224,0.138
						c0.408,0.093,0.742,0.216,1.004,0.372l-0.473,0.808c-0.502-0.298-1.09-0.446-1.768-0.446c-0.47,0-0.828,0.07-1.074,0.212
						c-0.247,0.142-0.37,0.329-0.37,0.563c0,0.184,0.07,0.329,0.208,0.436c0.138,0.105,0.31,0.184,0.514,0.233
						c0.204,0.049,0.491,0.105,0.86,0.17c0.493,0.078,0.891,0.161,1.196,0.249c0.303,0.089,0.563,0.239,0.779,0.451
						c0.216,0.213,0.323,0.51,0.323,0.893c0,0.51-0.236,0.915-0.71,1.216c-0.473,0.301-1.119,0.451-1.935,0.451
						C185.495,483.58,185.014,483.518,184.552,483.394z"/>
					<path fill="#8282A8" d="M199.513,478.451c0.45,0.41,0.675,1.019,0.675,1.826v3.239h-1.108v-3.122
						c0-0.546-0.137-0.956-0.411-1.232c-0.273-0.276-0.663-0.414-1.171-0.414c-0.563,0-1.008,0.161-1.339,0.483
						c-0.332,0.322-0.497,0.784-0.497,1.386v2.899h-1.109v-3.122c0-0.546-0.137-0.956-0.41-1.232
						c-0.273-0.276-0.664-0.414-1.172-0.414c-0.562,0-1.008,0.161-1.339,0.483c-0.332,0.322-0.497,0.784-0.497,1.386v2.899h-1.108
						v-5.629h1.062v0.839c0.224-0.29,0.517-0.511,0.878-0.664c0.361-0.151,0.774-0.228,1.236-0.228c0.478,0,0.902,0.089,1.271,0.266
						c0.37,0.177,0.654,0.436,0.855,0.775c0.231-0.326,0.552-0.581,0.965-0.765c0.411-0.185,0.875-0.276,1.391-0.276
						C198.453,477.835,199.062,478.04,199.513,478.451z"/>
					<path fill="#8282A8" d="M203.249,483.208c-0.485-0.248-0.864-0.589-1.137-1.024c-0.274-0.436-0.41-0.93-0.41-1.481
						s0.136-1.046,0.41-1.481c0.272-0.436,0.652-0.775,1.137-1.02c0.486-0.244,1.032-0.366,1.64-0.366
						c0.608,0,1.153,0.122,1.635,0.366c0.48,0.244,0.857,0.584,1.131,1.02c0.273,0.436,0.411,0.93,0.411,1.481
						s-0.138,1.046-0.411,1.481s-0.651,0.776-1.131,1.024c-0.482,0.248-1.026,0.372-1.635,0.372
						C204.281,483.58,203.734,483.456,203.249,483.208z M205.945,482.438c0.312-0.166,0.557-0.4,0.734-0.701
						c0.176-0.301,0.266-0.646,0.266-1.035s-0.089-0.734-0.266-1.036c-0.177-0.301-0.422-0.532-0.734-0.695
						c-0.311-0.162-0.664-0.244-1.057-0.244s-0.744,0.082-1.057,0.244c-0.312,0.163-0.559,0.395-0.739,0.695
						c-0.181,0.302-0.271,0.646-0.271,1.036s0.09,0.734,0.271,1.035c0.181,0.301,0.427,0.535,0.739,0.701
						c0.312,0.166,0.664,0.25,1.057,0.25S205.634,482.604,205.945,482.438z"/>
					<path fill="#8282A8" d="M215.375,475.637v7.879h-1.063v-0.892c-0.247,0.312-0.559,0.549-0.935,0.712
						c-0.377,0.163-0.793,0.244-1.247,0.244c-0.593,0-1.125-0.121-1.593-0.361c-0.47-0.24-0.838-0.578-1.104-1.015
						c-0.266-0.435-0.398-0.936-0.398-1.502s0.133-1.065,0.398-1.497s0.633-0.769,1.104-1.009c0.469-0.241,1-0.361,1.593-0.361
						c0.438,0,0.843,0.076,1.212,0.228c0.37,0.153,0.678,0.378,0.924,0.675v-3.101H215.375z M213.274,482.438
						c0.315-0.166,0.561-0.4,0.739-0.701c0.177-0.301,0.266-0.646,0.266-1.035s-0.088-0.734-0.266-1.036
						c-0.178-0.301-0.423-0.532-0.739-0.695c-0.316-0.162-0.667-0.244-1.051-0.244c-0.393,0-0.745,0.082-1.058,0.244
						c-0.311,0.163-0.558,0.395-0.739,0.695c-0.181,0.302-0.271,0.646-0.271,1.036s0.09,0.734,0.271,1.035
						c0.181,0.301,0.428,0.535,0.739,0.701s0.665,0.25,1.058,0.25C212.607,482.688,212.958,482.604,213.274,482.438z"/>
					<path fill="#8282A8" d="M224.025,483.188c-0.162,0.127-0.362,0.225-0.602,0.292c-0.238,0.066-0.484,0.101-0.739,0.101
						c-0.616,0-1.093-0.152-1.433-0.457c-0.337-0.304-0.507-0.739-0.507-1.307v-3.09h-1.04v-0.839h1.04v-1.231h1.109v1.231h1.755
						v0.839h-1.755v3.048c0,0.305,0.082,0.538,0.248,0.7c0.165,0.164,0.402,0.245,0.71,0.245c0.339,0,0.627-0.089,0.866-0.266
						L224.025,483.188z"/>
					<path fill="#8282A8" d="M230.665,481.042h-4.966c0.069,0.495,0.307,0.894,0.71,1.194c0.404,0.301,0.907,0.451,1.508,0.451
						c0.731,0,1.32-0.227,1.766-0.68l0.613,0.658c-0.277,0.298-0.622,0.524-1.034,0.68c-0.412,0.156-0.872,0.234-1.38,0.234
						c-0.647,0-1.22-0.123-1.721-0.367c-0.5-0.244-0.887-0.585-1.161-1.024c-0.272-0.438-0.41-0.935-0.41-1.487
						c0-0.544,0.133-1.037,0.399-1.476c0.266-0.438,0.631-0.78,1.097-1.024c0.466-0.244,0.992-0.367,1.577-0.367
						c0.585,0,1.108,0.123,1.564,0.367c0.459,0.244,0.817,0.586,1.075,1.024c0.257,0.438,0.387,0.941,0.387,1.508
						C230.688,480.813,230.682,480.914,230.665,481.042z M226.329,479.141c-0.358,0.298-0.569,0.688-0.629,1.168h3.926
						c-0.062-0.474-0.272-0.861-0.63-1.162c-0.357-0.301-0.802-0.451-1.334-0.451C227.132,478.695,226.687,478.844,226.329,479.141z
						"/>
					<path fill="#8282A8" d="M241.711,478.451c0.451,0.41,0.676,1.019,0.676,1.826v3.239h-1.108v-3.122
						c0-0.546-0.137-0.956-0.41-1.232c-0.274-0.276-0.665-0.414-1.173-0.414c-0.562,0-1.008,0.161-1.34,0.483
						c-0.33,0.322-0.496,0.784-0.496,1.386v2.899h-1.108v-3.122c0-0.546-0.137-0.956-0.41-1.232s-0.664-0.414-1.172-0.414
						c-0.563,0-1.009,0.161-1.34,0.483c-0.332,0.322-0.498,0.784-0.498,1.386v2.899h-1.109v-5.629h1.063v0.839
						c0.223-0.29,0.516-0.511,0.879-0.664c0.361-0.151,0.773-0.228,1.235-0.228c0.477,0,0.9,0.089,1.271,0.266
						c0.369,0.177,0.653,0.436,0.854,0.775c0.231-0.326,0.553-0.581,0.964-0.765c0.412-0.185,0.875-0.276,1.391-0.276
						C240.65,477.835,241.262,478.04,241.711,478.451z"/>
					<path fill="#8282A8" d="M249.271,478.196c0.468,0.24,0.837,0.577,1.103,1.009c0.265,0.432,0.398,0.931,0.398,1.497
						s-0.132,1.067-0.398,1.502c-0.265,0.437-0.634,0.774-1.103,1.015c-0.47,0.24-1.001,0.361-1.593,0.361
						c-0.438,0-0.841-0.078-1.207-0.233c-0.366-0.156-0.676-0.383-0.93-0.68v2.909h-1.109v-7.688h1.062v0.892
						c0.247-0.312,0.559-0.547,0.937-0.706c0.376-0.159,0.792-0.238,1.247-0.238C248.27,477.835,248.801,477.955,249.271,478.196z
						 M248.643,482.438c0.311-0.166,0.558-0.4,0.739-0.701c0.18-0.301,0.271-0.646,0.271-1.035s-0.091-0.734-0.271-1.036
						c-0.181-0.301-0.428-0.532-0.739-0.695c-0.313-0.162-0.666-0.244-1.058-0.244c-0.386,0-0.734,0.084-1.045,0.25
						c-0.311,0.167-0.559,0.398-0.741,0.695c-0.18,0.298-0.271,0.641-0.271,1.03s0.088,0.734,0.266,1.035
						c0.177,0.302,0.424,0.535,0.74,0.701c0.314,0.166,0.665,0.25,1.051,0.25C247.977,482.688,248.33,482.604,248.643,482.438z"/>
					<path fill="#8282A8" d="M253.289,483.208c-0.483-0.248-0.864-0.589-1.137-1.024c-0.273-0.436-0.41-0.93-0.41-1.481
						s0.137-1.046,0.41-1.481c0.272-0.436,0.653-0.775,1.137-1.02c0.486-0.244,1.032-0.366,1.641-0.366s1.152,0.122,1.636,0.366
						c0.479,0.244,0.856,0.584,1.13,1.02c0.272,0.436,0.411,0.93,0.411,1.481s-0.139,1.046-0.411,1.481
						c-0.273,0.436-0.651,0.776-1.13,1.024c-0.483,0.248-1.027,0.372-1.636,0.372S253.775,483.456,253.289,483.208z
						 M255.986,482.438c0.313-0.166,0.557-0.4,0.732-0.701c0.179-0.301,0.267-0.646,0.267-1.035s-0.088-0.734-0.267-1.036
						c-0.176-0.301-0.42-0.532-0.732-0.695c-0.312-0.162-0.664-0.244-1.057-0.244s-0.744,0.082-1.057,0.244
						c-0.313,0.163-0.559,0.395-0.739,0.695c-0.182,0.302-0.272,0.646-0.272,1.036s0.091,0.734,0.272,1.035
						c0.181,0.301,0.427,0.535,0.739,0.701c0.312,0.166,0.664,0.25,1.057,0.25S255.675,482.604,255.986,482.438z"/>
					<path fill="#8282A8" d="M261.559,478.09c0.377-0.17,0.837-0.255,1.375-0.255v0.987c-0.063-0.007-0.146-0.011-0.254-0.011
						c-0.601,0-1.072,0.165-1.415,0.494c-0.344,0.329-0.513,0.798-0.513,1.407v2.804h-1.11v-5.629h1.063v0.945
						C260.896,478.508,261.182,478.26,261.559,478.09z"/>
					<path fill="#8282A8" d="M267.502,476.613c-0.144-0.127-0.215-0.283-0.215-0.467s0.071-0.342,0.215-0.473
						c0.141-0.131,0.32-0.196,0.537-0.196c0.214,0,0.393,0.063,0.535,0.186c0.144,0.124,0.214,0.278,0.214,0.462
						c0,0.191-0.07,0.353-0.214,0.483c-0.143,0.131-0.321,0.196-0.535,0.196C267.822,476.805,267.643,476.741,267.502,476.613z
						 M267.483,477.888h1.108v5.629h-1.108V477.888z"/>
					<path fill="#8282A8" d="M275.828,478.456c0.457,0.414,0.686,1.021,0.686,1.821v3.239h-1.107v-3.122
						c0-0.546-0.144-0.956-0.428-1.232c-0.285-0.276-0.693-0.414-1.225-0.414c-0.601,0-1.073,0.161-1.422,0.483
						c-0.346,0.322-0.517,0.784-0.517,1.386v2.899h-1.11v-5.629h1.063v0.85c0.224-0.29,0.524-0.513,0.906-0.669
						s0.813-0.233,1.299-0.233C274.751,477.835,275.368,478.042,275.828,478.456z"/>
					<path fill="#8282A8" d="M279.604,483.208c-0.489-0.248-0.872-0.589-1.149-1.024s-0.416-0.93-0.416-1.481
						s0.139-1.046,0.416-1.481s0.66-0.775,1.149-1.02c0.488-0.244,1.046-0.366,1.669-0.366c0.555,0,1.047,0.103,1.483,0.308
						c0.435,0.206,0.771,0.503,1.01,0.893l-0.843,0.498c-0.193-0.269-0.431-0.47-0.716-0.604c-0.284-0.135-0.601-0.202-0.947-0.202
						c-0.398,0-0.759,0.082-1.08,0.244c-0.32,0.163-0.569,0.395-0.751,0.695c-0.182,0.302-0.27,0.646-0.27,1.035
						c0,0.397,0.088,0.746,0.27,1.047s0.431,0.532,0.751,0.695c0.321,0.163,0.681,0.244,1.08,0.244c0.347,0,0.663-0.067,0.947-0.202
						c0.285-0.134,0.523-0.336,0.716-0.605l0.843,0.489c-0.238,0.389-0.575,0.688-1.01,0.897c-0.437,0.209-0.929,0.313-1.483,0.313
						C280.65,483.58,280.093,483.456,279.604,483.208z"/>
					<path fill="#8282A8" d="M285.216,476.613c-0.142-0.127-0.213-0.283-0.213-0.467s0.071-0.342,0.213-0.473
						c0.144-0.131,0.322-0.196,0.538-0.196c0.217,0,0.395,0.063,0.537,0.186c0.142,0.124,0.214,0.278,0.214,0.462
						c0,0.191-0.072,0.353-0.214,0.483c-0.143,0.131-0.32,0.196-0.537,0.196C285.538,476.805,285.359,476.741,285.216,476.613z
						 M285.199,477.888h1.108v5.629h-1.108V477.888z"/>
					<path fill="#8282A8" d="M294.195,475.637v7.879h-1.062v-0.892c-0.247,0.312-0.559,0.549-0.937,0.712
						c-0.377,0.163-0.791,0.244-1.247,0.244c-0.593,0-1.124-0.121-1.594-0.361c-0.471-0.24-0.837-0.578-1.104-1.015
						c-0.265-0.435-0.397-0.936-0.397-1.502s0.133-1.065,0.397-1.497c0.267-0.432,0.633-0.769,1.104-1.009
						c0.47-0.241,1.001-0.361,1.594-0.361c0.438,0,0.843,0.076,1.213,0.228c0.37,0.153,0.677,0.378,0.923,0.675v-3.101H294.195z
						 M292.094,482.438c0.315-0.166,0.562-0.4,0.74-0.701c0.176-0.301,0.264-0.646,0.264-1.035s-0.088-0.734-0.264-1.036
						c-0.179-0.301-0.425-0.532-0.74-0.695c-0.315-0.162-0.666-0.244-1.05-0.244c-0.394,0-0.745,0.082-1.058,0.244
						c-0.312,0.163-0.558,0.395-0.739,0.695c-0.181,0.302-0.271,0.646-0.271,1.036s0.091,0.734,0.271,1.035
						c0.182,0.301,0.428,0.535,0.739,0.701c0.313,0.166,0.664,0.25,1.058,0.25C291.428,482.688,291.778,482.604,292.094,482.438z"/>
					<path fill="#8282A8" d="M296.313,476.613c-0.142-0.127-0.214-0.283-0.214-0.467s0.072-0.342,0.214-0.473
						c0.143-0.131,0.324-0.196,0.538-0.196c0.216,0,0.396,0.063,0.537,0.186c0.144,0.124,0.215,0.278,0.215,0.462
						c0,0.191-0.071,0.353-0.215,0.483c-0.142,0.131-0.321,0.196-0.537,0.196C296.638,476.805,296.456,476.741,296.313,476.613z
						 M296.298,477.888h1.108v5.629h-1.108V477.888z"/>
					<path fill="#8282A8" d="M305.294,475.637v7.879h-1.062v-0.892c-0.248,0.312-0.56,0.549-0.937,0.712
						c-0.376,0.163-0.792,0.244-1.247,0.244c-0.593,0-1.124-0.121-1.594-0.361s-0.838-0.578-1.103-1.015
						c-0.267-0.435-0.399-0.936-0.399-1.502s0.133-1.065,0.399-1.497c0.265-0.432,0.633-0.769,1.103-1.009
						c0.47-0.241,1.001-0.361,1.594-0.361c0.438,0,0.843,0.076,1.212,0.228c0.371,0.153,0.678,0.378,0.925,0.675v-3.101H305.294z
						 M303.192,482.438c0.316-0.166,0.562-0.4,0.739-0.701c0.177-0.301,0.265-0.646,0.265-1.035s-0.088-0.734-0.265-1.036
						c-0.178-0.301-0.423-0.532-0.739-0.695c-0.315-0.162-0.666-0.244-1.052-0.244c-0.393,0-0.743,0.082-1.056,0.244
						c-0.313,0.163-0.558,0.395-0.74,0.695c-0.18,0.302-0.271,0.646-0.271,1.036s0.092,0.734,0.271,1.035
						c0.183,0.301,0.428,0.535,0.74,0.701c0.311,0.166,0.663,0.25,1.056,0.25C302.526,482.688,302.877,482.604,303.192,482.438z"/>
					<path fill="#8282A8" d="M313.102,477.888v5.629h-1.051v-0.85c-0.223,0.29-0.517,0.515-0.883,0.674
						c-0.368,0.159-0.765,0.239-1.196,0.239c-0.817,0-1.459-0.207-1.928-0.621c-0.471-0.414-0.706-1.025-0.706-1.832v-3.239h1.109
						v3.122c0,0.545,0.143,0.958,0.428,1.237c0.284,0.28,0.69,0.42,1.223,0.42c0.586,0,1.046-0.163,1.387-0.489
						c0.338-0.325,0.508-0.786,0.508-1.381v-2.909H313.102L313.102,477.888z"/>
					<path fill="#8282A8" d="M320.336,478.456c0.458,0.414,0.688,1.021,0.688,1.821v3.239h-1.107v-3.122
						c0-0.546-0.144-0.956-0.428-1.232c-0.285-0.276-0.692-0.414-1.225-0.414c-0.601,0-1.074,0.161-1.42,0.483
						c-0.347,0.322-0.521,0.784-0.521,1.386v2.899h-1.106v-5.629h1.062v0.85c0.225-0.29,0.527-0.513,0.906-0.669
						c0.382-0.156,0.814-0.233,1.3-0.233C319.26,477.835,319.879,478.042,320.336,478.456z"/>
					<path fill="#8282A8" d="M326.521,483.188c-0.162,0.127-0.362,0.225-0.603,0.292c-0.237,0.066-0.483,0.101-0.738,0.101
						c-0.615,0-1.093-0.152-1.432-0.457c-0.338-0.304-0.509-0.739-0.509-1.307v-3.09h-1.038v-0.839h1.038v-1.231h1.109v1.231h1.756
						v0.839h-1.756v3.048c0,0.305,0.084,0.538,0.248,0.7c0.166,0.164,0.402,0.245,0.709,0.245c0.341,0,0.628-0.089,0.868-0.266
						L326.521,483.188z"/>
					<path fill="#8282A8" d="M336.672,477.888v5.629h-1.05v-0.85c-0.224,0.29-0.519,0.515-0.883,0.674
						c-0.368,0.159-0.766,0.239-1.196,0.239c-0.818,0-1.46-0.207-1.929-0.621c-0.471-0.414-0.705-1.025-0.705-1.832v-3.239h1.109
						v3.122c0,0.545,0.141,0.958,0.426,1.237c0.285,0.28,0.692,0.42,1.226,0.42c0.584,0,1.045-0.163,1.387-0.489
						c0.336-0.325,0.507-0.786,0.507-1.381v-2.909H336.672L336.672,477.888z"/>
					<path fill="#8282A8" d="M342.228,483.188c-0.162,0.127-0.363,0.225-0.6,0.292c-0.24,0.066-0.486,0.101-0.739,0.101
						c-0.617,0-1.094-0.152-1.433-0.457c-0.34-0.304-0.51-0.739-0.51-1.307v-3.09h-1.039v-0.839h1.039v-1.231h1.108v1.231h1.757
						v0.839h-1.757v3.048c0,0.305,0.084,0.538,0.249,0.7c0.167,0.164,0.402,0.245,0.71,0.245c0.339,0,0.629-0.089,0.866-0.266
						L342.228,483.188z"/>
					<path fill="#8282A8" d="M118.158,491.007h1.108v7.88h-1.108V491.007z"/>
					<path fill="#8282A8" d="M125.555,493.778c0.451,0.382,0.676,0.952,0.676,1.71v3.398h-1.051v-0.744
						c-0.185,0.263-0.449,0.463-0.791,0.6c-0.343,0.139-0.75,0.208-1.219,0.208c-0.686,0-1.234-0.152-1.646-0.457
						c-0.411-0.304-0.617-0.704-0.617-1.2c0-0.495,0.196-0.894,0.589-1.194c0.392-0.301,1.016-0.451,1.87-0.451h1.755v-0.202
						c0-0.438-0.139-0.775-0.416-1.009s-0.685-0.351-1.224-0.351c-0.362,0-0.716,0.056-1.062,0.165
						c-0.346,0.11-0.64,0.257-0.878,0.44l-0.462-0.765c0.315-0.233,0.693-0.412,1.132-0.536c0.439-0.123,0.905-0.186,1.397-0.186
						C124.456,493.205,125.104,493.396,125.555,493.778z M124.452,497.904c0.307-0.174,0.53-0.42,0.669-0.738v-0.786h-1.709
						c-0.94,0-1.409,0.291-1.409,0.871c0,0.283,0.12,0.506,0.358,0.669s0.569,0.244,0.994,0.244
						C123.778,498.164,124.144,498.077,124.452,497.904z"/>
					<path fill="#8282A8" d="M133.125,493.566c0.469,0.24,0.837,0.577,1.102,1.009c0.266,0.432,0.398,0.931,0.398,1.497
						s-0.133,1.067-0.398,1.503c-0.265,0.436-0.633,0.773-1.102,1.014c-0.471,0.24-1.001,0.361-1.594,0.361
						c-0.455,0-0.871-0.081-1.248-0.244c-0.377-0.163-0.69-0.4-0.937-0.712v0.893h-1.062v-7.88h1.109v3.101
						c0.246-0.297,0.554-0.521,0.924-0.674c0.369-0.152,0.773-0.229,1.212-0.229C132.124,493.205,132.655,493.325,133.125,493.566z
						 M132.496,497.809c0.312-0.166,0.558-0.399,0.74-0.701c0.18-0.301,0.271-0.646,0.271-1.035s-0.091-0.734-0.271-1.035
						c-0.182-0.301-0.427-0.533-0.74-0.695c-0.311-0.163-0.664-0.245-1.057-0.245c-0.385,0-0.734,0.082-1.05,0.245
						c-0.316,0.162-0.563,0.395-0.739,0.695c-0.178,0.301-0.266,0.646-0.266,1.035s0.088,0.734,0.266,1.035
						c0.177,0.302,0.423,0.535,0.739,0.701c0.316,0.166,0.665,0.25,1.05,0.25C131.832,498.059,132.185,497.975,132.496,497.809z"/>
					<path fill="#8282A8" d="M137.145,498.578c-0.486-0.247-0.865-0.589-1.139-1.024c-0.272-0.436-0.409-0.929-0.409-1.481
						c0-0.552,0.136-1.046,0.409-1.481c0.273-0.436,0.653-0.775,1.139-1.02c0.485-0.244,1.031-0.366,1.64-0.366
						c0.607,0,1.153,0.122,1.634,0.366s0.858,0.584,1.132,1.02s0.411,0.93,0.411,1.481c0,0.553-0.137,1.046-0.411,1.481
						c-0.273,0.436-0.651,0.777-1.132,1.024c-0.481,0.248-1.026,0.372-1.634,0.372C138.175,498.95,137.629,498.826,137.145,498.578z
						 M139.84,497.809c0.312-0.166,0.556-0.399,0.733-0.701c0.177-0.301,0.266-0.646,0.266-1.035s-0.089-0.734-0.266-1.035
						s-0.421-0.533-0.733-0.695c-0.311-0.163-0.664-0.245-1.057-0.245c-0.392,0-0.744,0.082-1.057,0.245
						c-0.312,0.162-0.558,0.395-0.739,0.695s-0.272,0.646-0.272,1.035s0.091,0.734,0.272,1.035c0.181,0.302,0.427,0.535,0.739,0.701
						c0.312,0.166,0.665,0.25,1.057,0.25C139.176,498.059,139.528,497.975,139.84,497.809z"/>
					<path fill="#8282A8" d="M145.414,493.46c0.376-0.17,0.834-0.255,1.374-0.255v0.988c-0.062-0.008-0.146-0.012-0.254-0.012
						c-0.601,0-1.072,0.165-1.415,0.494c-0.344,0.33-0.514,0.798-0.514,1.407v2.804h-1.109v-5.629h1.062v0.945
						C144.75,493.878,145.036,493.63,145.414,493.46z"/>
					<path fill="#8282A8" d="M153.601,496.412h-4.966c0.07,0.495,0.306,0.895,0.71,1.194c0.404,0.301,0.907,0.452,1.508,0.452
						c0.731,0,1.321-0.227,1.767-0.681l0.613,0.659c-0.278,0.297-0.622,0.523-1.035,0.68c-0.411,0.155-0.871,0.233-1.379,0.233
						c-0.647,0-1.221-0.123-1.721-0.366c-0.501-0.245-0.889-0.586-1.161-1.025c-0.273-0.438-0.41-0.935-0.41-1.486
						c0-0.545,0.133-1.037,0.398-1.477c0.266-0.438,0.631-0.78,1.097-1.024c0.466-0.244,0.991-0.366,1.577-0.366
						c0.585,0,1.107,0.122,1.565,0.366c0.458,0.244,0.815,0.586,1.074,1.024c0.258,0.439,0.387,0.941,0.387,1.508
						C153.624,496.183,153.616,496.284,153.601,496.412z M149.265,494.511c-0.357,0.298-0.568,0.688-0.629,1.168h3.926
						c-0.062-0.474-0.271-0.861-0.629-1.162c-0.358-0.301-0.803-0.451-1.334-0.451C150.068,494.065,149.623,494.214,149.265,494.511
						z"/>
					<path fill="#8282A8" d="M163.775,496.412h-4.965c0.069,0.495,0.306,0.895,0.709,1.194c0.404,0.301,0.907,0.452,1.507,0.452
						c0.731,0,1.321-0.227,1.767-0.681l0.612,0.659c-0.277,0.297-0.622,0.523-1.034,0.68c-0.412,0.155-0.871,0.233-1.38,0.233
						c-0.646,0-1.22-0.123-1.721-0.366c-0.5-0.245-0.887-0.586-1.16-1.025c-0.273-0.438-0.41-0.935-0.41-1.486
						c0-0.545,0.133-1.037,0.398-1.477c0.266-0.438,0.631-0.78,1.098-1.024c0.465-0.244,0.991-0.366,1.576-0.366
						c0.585,0,1.106,0.122,1.564,0.366c0.458,0.244,0.816,0.586,1.074,1.024c0.257,0.439,0.387,0.941,0.387,1.508
						C163.799,496.183,163.791,496.284,163.775,496.412z M159.439,494.511c-0.359,0.298-0.568,0.688-0.629,1.168h3.926
						c-0.062-0.474-0.271-0.861-0.628-1.162c-0.359-0.301-0.804-0.451-1.334-0.451C160.241,494.065,159.797,494.214,159.439,494.511
						z"/>
					<path fill="#8282A8" d="M168.776,498.558c-0.162,0.127-0.362,0.225-0.601,0.292c-0.239,0.066-0.485,0.101-0.739,0.101
						c-0.616,0-1.094-0.152-1.433-0.457c-0.338-0.304-0.508-0.739-0.508-1.306v-3.091h-1.039v-0.839h1.039v-1.231h1.109v1.231h1.756
						v0.839h-1.756v3.048c0,0.305,0.083,0.538,0.249,0.701c0.165,0.163,0.402,0.244,0.71,0.244c0.339,0,0.627-0.088,0.866-0.266
						L168.776,498.558z"/>
					<path fill="#8282A8" d="M178.997,491.007v7.88h-1.063v-0.893c-0.247,0.312-0.559,0.549-0.936,0.712
						c-0.378,0.163-0.793,0.244-1.247,0.244c-0.593,0-1.125-0.121-1.594-0.361c-0.469-0.24-0.837-0.578-1.103-1.014
						c-0.266-0.436-0.398-0.937-0.398-1.503s0.132-1.065,0.398-1.497c0.265-0.432,0.633-0.769,1.103-1.009
						c0.47-0.24,1.001-0.361,1.594-0.361c0.438,0,0.843,0.076,1.213,0.229c0.369,0.152,0.678,0.377,0.924,0.674v-3.101H178.997z
						 M176.895,497.809c0.316-0.166,0.563-0.399,0.739-0.701c0.178-0.301,0.266-0.646,0.266-1.035s-0.087-0.734-0.266-1.035
						c-0.177-0.301-0.423-0.533-0.739-0.695c-0.315-0.163-0.666-0.245-1.05-0.245c-0.393,0-0.745,0.082-1.057,0.245
						c-0.313,0.162-0.558,0.395-0.739,0.695c-0.181,0.301-0.271,0.646-0.271,1.035s0.09,0.734,0.271,1.035
						c0.181,0.302,0.426,0.535,0.739,0.701c0.312,0.166,0.664,0.25,1.057,0.25C176.229,498.059,176.579,497.975,176.895,497.809z"/>
					<path fill="#8282A8" d="M182.08,498.578c-0.485-0.247-0.864-0.589-1.138-1.024c-0.272-0.436-0.41-0.929-0.41-1.481
						c0-0.552,0.136-1.046,0.41-1.481s0.653-0.775,1.138-1.02c0.486-0.244,1.032-0.366,1.64-0.366s1.153,0.122,1.634,0.366
						c0.481,0.244,0.859,0.584,1.132,1.02s0.411,0.93,0.411,1.481c0,0.553-0.137,1.046-0.411,1.481s-0.651,0.777-1.132,1.024
						c-0.481,0.248-1.026,0.372-1.634,0.372S182.566,498.826,182.08,498.578z M184.776,497.809c0.313-0.166,0.557-0.399,0.733-0.701
						c0.178-0.301,0.267-0.646,0.267-1.035s-0.089-0.734-0.267-1.035c-0.177-0.301-0.421-0.533-0.733-0.695
						c-0.311-0.163-0.664-0.245-1.056-0.245c-0.393,0-0.745,0.082-1.057,0.245c-0.312,0.162-0.559,0.395-0.738,0.695
						c-0.182,0.301-0.272,0.646-0.272,1.035s0.09,0.734,0.272,1.035c0.18,0.302,0.426,0.535,0.738,0.701
						c0.312,0.166,0.664,0.25,1.057,0.25C184.113,498.059,184.466,497.975,184.776,497.809z"/>
					<path fill="#8282A8" d="M188.432,491.007h1.109v7.88h-1.109V491.007z"/>
					<path fill="#8282A8" d="M192.636,498.578c-0.485-0.247-0.864-0.589-1.138-1.024c-0.273-0.436-0.41-0.929-0.41-1.481
						c0-0.552,0.137-1.046,0.41-1.481c0.274-0.436,0.653-0.775,1.138-1.02c0.485-0.244,1.032-0.366,1.64-0.366
						c0.608,0,1.153,0.122,1.634,0.366c0.481,0.244,0.858,0.584,1.132,1.02c0.273,0.436,0.41,0.93,0.41,1.481
						c0,0.553-0.137,1.046-0.41,1.481c-0.273,0.436-0.651,0.777-1.132,1.024c-0.481,0.248-1.026,0.372-1.634,0.372
						C193.667,498.95,193.121,498.826,192.636,498.578z M195.333,497.809c0.312-0.166,0.556-0.399,0.734-0.701
						c0.177-0.301,0.266-0.646,0.266-1.035s-0.089-0.734-0.266-1.035c-0.178-0.301-0.422-0.533-0.734-0.695
						c-0.312-0.163-0.664-0.245-1.057-0.245c-0.392,0-0.745,0.082-1.057,0.245c-0.312,0.162-0.558,0.395-0.739,0.695
						c-0.181,0.301-0.271,0.646-0.271,1.035s0.09,0.734,0.271,1.035c0.181,0.302,0.427,0.535,0.739,0.701
						c0.312,0.166,0.665,0.25,1.057,0.25C194.668,498.059,195.021,497.975,195.333,497.809z"/>
					<path fill="#8282A8" d="M200.904,493.46c0.378-0.17,0.836-0.255,1.375-0.255v0.988c-0.062-0.008-0.146-0.012-0.254-0.012
						c-0.601,0-1.072,0.165-1.415,0.494c-0.343,0.33-0.514,0.798-0.514,1.407v2.804h-1.108v-5.629h1.063v0.945
						C200.243,493.878,200.527,493.63,200.904,493.46z"/>
					<path fill="#8282A8" d="M209.093,496.412h-4.966c0.07,0.495,0.306,0.895,0.71,1.194c0.404,0.301,0.907,0.452,1.507,0.452
						c0.731,0,1.32-0.227,1.767-0.681l0.612,0.659c-0.277,0.297-0.622,0.523-1.034,0.68c-0.411,0.155-0.872,0.233-1.38,0.233
						c-0.647,0-1.22-0.123-1.721-0.366c-0.5-0.245-0.888-0.586-1.16-1.025c-0.273-0.438-0.41-0.935-0.41-1.486
						c0-0.545,0.133-1.037,0.398-1.477c0.266-0.438,0.631-0.78,1.098-1.024c0.466-0.244,0.991-0.366,1.576-0.366
						c0.585,0,1.107,0.122,1.565,0.366c0.458,0.244,0.816,0.586,1.075,1.024c0.258,0.439,0.387,0.941,0.387,1.508
						C209.116,496.183,209.108,496.284,209.093,496.412z M204.756,494.511c-0.357,0.298-0.567,0.688-0.629,1.168h3.926
						c-0.061-0.474-0.271-0.861-0.629-1.162c-0.358-0.301-0.803-0.451-1.334-0.451S205.114,494.214,204.756,494.511z"/>
					<path fill="#8282A8" d="M223.246,493.821c0.451,0.41,0.675,1.019,0.675,1.826v3.239h-1.108v-3.122
						c0-0.546-0.136-0.956-0.41-1.232c-0.273-0.275-0.665-0.414-1.172-0.414c-0.563,0-1.008,0.162-1.339,0.483
						c-0.332,0.322-0.497,0.784-0.497,1.386v2.899h-1.108v-3.122c0-0.546-0.138-0.956-0.409-1.232
						c-0.274-0.275-0.665-0.414-1.173-0.414c-0.562,0-1.008,0.162-1.339,0.483c-0.331,0.322-0.497,0.784-0.497,1.386v2.899h-1.108
						v-5.629h1.063v0.839c0.223-0.29,0.516-0.511,0.877-0.663c0.362-0.152,0.774-0.229,1.236-0.229c0.477,0,0.901,0.089,1.27,0.266
						c0.37,0.177,0.654,0.436,0.855,0.775c0.231-0.326,0.552-0.581,0.964-0.765c0.412-0.185,0.876-0.276,1.392-0.276
						C222.186,493.205,222.796,493.411,223.246,493.821z"/>
					<path fill="#8282A8" d="M230.141,493.778c0.45,0.382,0.676,0.952,0.676,1.71v3.398h-1.051v-0.744
						c-0.185,0.263-0.448,0.463-0.792,0.6c-0.342,0.139-0.749,0.208-1.218,0.208c-0.686,0-1.234-0.152-1.646-0.457
						c-0.412-0.304-0.617-0.704-0.617-1.2c0-0.495,0.195-0.894,0.588-1.194c0.393-0.301,1.017-0.451,1.871-0.451h1.755v-0.202
						c0-0.438-0.138-0.775-0.415-1.009s-0.686-0.351-1.224-0.351c-0.362,0-0.717,0.056-1.063,0.165
						c-0.347,0.11-0.64,0.257-0.878,0.44l-0.463-0.765c0.315-0.233,0.693-0.412,1.132-0.536c0.439-0.123,0.905-0.186,1.398-0.186
						C229.042,493.205,229.69,493.396,230.141,493.778z M229.038,497.904c0.308-0.174,0.531-0.42,0.669-0.738v-0.786h-1.709
						c-0.939,0-1.409,0.291-1.409,0.871c0,0.283,0.12,0.506,0.358,0.669s0.569,0.244,0.993,0.244S228.729,498.077,229.038,497.904z"
						/>
					<path fill="#8282A8" d="M238.763,493.258v4.864c0,0.983-0.267,1.711-0.796,2.183c-0.533,0.471-1.327,0.705-2.38,0.705
						c-0.577,0-1.128-0.072-1.651-0.218c-0.524-0.145-0.947-0.352-1.271-0.621l0.531-0.785c0.285,0.227,0.637,0.405,1.057,0.536
						s0.853,0.196,1.299,0.196c0.716,0,1.246-0.155,1.589-0.468c0.342-0.312,0.514-0.786,0.514-1.423v-0.445
						c-0.263,0.29-0.584,0.508-0.965,0.652c-0.381,0.146-0.795,0.218-1.242,0.218c-0.584,0-1.114-0.115-1.587-0.345
						c-0.473-0.23-0.844-0.553-1.114-0.967c-0.27-0.414-0.404-0.887-0.404-1.417c0-0.531,0.135-1.004,0.404-1.418
						c0.27-0.414,0.642-0.734,1.114-0.961c0.473-0.227,1.003-0.34,1.587-0.34c0.463,0,0.893,0.078,1.288,0.233
						c0.397,0.156,0.722,0.386,0.977,0.69v-0.871H238.763L238.763,493.258z M236.655,497.527c0.318-0.156,0.569-0.373,0.75-0.653
						c0.18-0.279,0.271-0.597,0.271-0.95c0-0.545-0.196-0.985-0.588-1.322c-0.392-0.336-0.897-0.505-1.514-0.505
						c-0.622,0-1.131,0.169-1.523,0.505c-0.394,0.337-0.59,0.777-0.59,1.322c0,0.354,0.09,0.671,0.271,0.95
						c0.18,0.28,0.432,0.497,0.75,0.653c0.321,0.155,0.684,0.233,1.092,0.233C235.975,497.761,236.335,497.683,236.655,497.527z"/>
					<path fill="#8282A8" d="M245.997,493.826c0.459,0.414,0.688,1.021,0.688,1.821v3.239h-1.108v-3.122
						c0-0.546-0.143-0.956-0.428-1.232c-0.284-0.275-0.692-0.414-1.223-0.414c-0.601,0-1.073,0.162-1.42,0.483
						c-0.348,0.322-0.52,0.784-0.52,1.386v2.899h-1.109v-5.629h1.062v0.85c0.224-0.29,0.526-0.513,0.908-0.669
						c0.381-0.155,0.813-0.233,1.298-0.233C244.921,493.205,245.54,493.412,245.997,493.826z"/>
					<path fill="#8282A8" d="M252.915,493.778c0.45,0.382,0.675,0.952,0.675,1.71v3.398h-1.051v-0.744
						c-0.185,0.263-0.449,0.463-0.79,0.6c-0.345,0.139-0.751,0.208-1.22,0.208c-0.686,0-1.234-0.152-1.646-0.457
						c-0.412-0.304-0.618-0.704-0.618-1.2c0-0.495,0.196-0.894,0.59-1.194c0.392-0.301,1.017-0.451,1.872-0.451h1.755v-0.202
						c0-0.438-0.139-0.775-0.415-1.009c-0.277-0.233-0.688-0.351-1.226-0.351c-0.362,0-0.715,0.056-1.062,0.165
						c-0.347,0.11-0.64,0.257-0.877,0.44l-0.462-0.765c0.316-0.233,0.692-0.412,1.132-0.536c0.438-0.123,0.904-0.186,1.396-0.186
						C251.815,493.205,252.465,493.396,252.915,493.778z M251.813,497.904c0.308-0.174,0.531-0.42,0.67-0.738v-0.786h-1.71
						c-0.94,0-1.408,0.291-1.408,0.871c0,0.283,0.118,0.506,0.358,0.669c0.237,0.163,0.568,0.244,0.992,0.244
						S251.505,498.077,251.813,497.904z"/>
					<path fill="#8282A8" d="M262.929,493.778c0.45,0.382,0.674,0.952,0.674,1.71v3.398h-1.051v-0.744
						c-0.185,0.263-0.448,0.463-0.79,0.6c-0.343,0.139-0.75,0.208-1.219,0.208c-0.685,0-1.235-0.152-1.647-0.457
						c-0.411-0.304-0.615-0.704-0.615-1.2c0-0.495,0.196-0.894,0.588-1.194s1.017-0.451,1.871-0.451h1.755v-0.202
						c0-0.438-0.138-0.775-0.415-1.009c-0.276-0.233-0.685-0.351-1.225-0.351c-0.362,0-0.715,0.056-1.062,0.165
						c-0.346,0.11-0.64,0.257-0.878,0.44l-0.463-0.765c0.317-0.233,0.693-0.412,1.132-0.536c0.439-0.123,0.905-0.186,1.398-0.186
						C261.829,493.205,262.479,493.396,262.929,493.778z M261.825,497.904c0.308-0.174,0.531-0.42,0.669-0.738v-0.786h-1.708
						c-0.939,0-1.409,0.291-1.409,0.871c0,0.283,0.119,0.506,0.357,0.669c0.239,0.163,0.57,0.244,0.993,0.244
						C261.151,498.164,261.517,498.077,261.825,497.904z"/>
					<path fill="#8282A8" d="M265.66,491.007h1.108v7.88h-1.108V491.007z"/>
					<path fill="#8282A8" d="M268.899,491.984c-0.142-0.128-0.216-0.284-0.216-0.468s0.074-0.342,0.216-0.473
						s0.319-0.196,0.537-0.196c0.214,0,0.393,0.063,0.537,0.186c0.142,0.124,0.212,0.278,0.212,0.462
						c0,0.191-0.07,0.353-0.212,0.483c-0.145,0.131-0.323,0.196-0.537,0.196C269.219,492.175,269.041,492.111,268.899,491.984z
						 M268.883,493.258h1.107v5.629h-1.107V493.258z"/>
					<path fill="#8282A8" d="M277.877,493.258v7.689h-1.108v-2.91c-0.255,0.297-0.563,0.524-0.93,0.68
						c-0.364,0.156-0.767,0.233-1.206,0.233c-0.594,0-1.125-0.12-1.594-0.361c-0.471-0.239-0.837-0.578-1.103-1.014
						c-0.267-0.436-0.399-0.937-0.399-1.503c0-0.565,0.133-1.065,0.399-1.497c0.266-0.432,0.632-0.768,1.103-1.009
						c0.469-0.24,1-0.361,1.594-0.361c0.453,0,0.87,0.08,1.247,0.239c0.376,0.159,0.689,0.395,0.936,0.706v-0.893H277.877
						L277.877,493.258z M275.774,497.809c0.315-0.166,0.563-0.399,0.739-0.701c0.179-0.301,0.266-0.646,0.266-1.035
						s-0.089-0.732-0.27-1.03c-0.182-0.298-0.428-0.529-0.739-0.695c-0.313-0.166-0.66-0.25-1.046-0.25
						c-0.393,0-0.745,0.082-1.058,0.244c-0.312,0.163-0.559,0.395-0.738,0.695c-0.182,0.302-0.271,0.646-0.271,1.035
						c0,0.391,0.09,0.735,0.271,1.036c0.18,0.301,0.427,0.534,0.738,0.7c0.313,0.167,0.665,0.251,1.058,0.251
						C275.11,498.059,275.459,497.975,275.774,497.809z"/>
					<path fill="#8282A8" d="M285.686,493.258v5.629h-1.052v-0.85c-0.223,0.29-0.519,0.515-0.884,0.674s-0.764,0.239-1.194,0.239
						c-0.817,0-1.461-0.207-1.931-0.621c-0.469-0.414-0.703-1.025-0.703-1.832v-3.239h1.107v3.122c0,0.545,0.144,0.958,0.428,1.237
						c0.286,0.28,0.693,0.42,1.226,0.42c0.584,0,1.046-0.163,1.386-0.488c0.338-0.326,0.508-0.786,0.508-1.381v-2.91H285.686
						L285.686,493.258z"/>
					<path fill="#8282A8" d="M291.973,493.778c0.451,0.382,0.675,0.952,0.675,1.71v3.398h-1.05v-0.744
						c-0.185,0.263-0.449,0.463-0.791,0.6c-0.344,0.139-0.75,0.208-1.219,0.208c-0.686,0-1.234-0.152-1.645-0.457
						c-0.412-0.304-0.618-0.704-0.618-1.2c0-0.495,0.195-0.894,0.589-1.194s1.016-0.451,1.871-0.451h1.755v-0.202
						c0-0.438-0.139-0.775-0.416-1.009s-0.686-0.351-1.225-0.351c-0.361,0-0.717,0.056-1.062,0.165
						c-0.347,0.11-0.641,0.257-0.877,0.44l-0.463-0.765c0.315-0.233,0.693-0.412,1.131-0.536c0.439-0.123,0.905-0.186,1.397-0.186
						C290.874,493.205,291.522,493.396,291.973,493.778z M290.87,497.904c0.309-0.174,0.531-0.42,0.67-0.738v-0.786h-1.71
						c-0.939,0-1.408,0.291-1.408,0.871c0,0.283,0.118,0.506,0.358,0.669c0.238,0.163,0.569,0.244,0.992,0.244
						C290.196,498.164,290.563,498.077,290.87,497.904z"/>
					<path fill="#8282A8" d="M294.416,498.743c-0.154-0.138-0.232-0.313-0.232-0.526c0-0.205,0.078-0.376,0.232-0.515
						c0.153-0.138,0.336-0.207,0.554-0.207c0.217,0,0.396,0.067,0.543,0.202c0.146,0.135,0.22,0.308,0.22,0.52
						c0,0.213-0.076,0.389-0.226,0.526c-0.151,0.138-0.328,0.207-0.537,0.207C294.753,498.95,294.569,498.881,294.416,498.743z"/>
				</g>
			</g>
		</g>
	</g>
	<g id="Layer_1_1_">
		<path fill="#ECE1EF" d="M332.854,335.993c24.268-14.312,25.854-83.704-21.08-99.945s-38.239-57.227-77.723-87.864
			c-35.994-27.926-95.537-4.254-115.369,68.372c-14.142,51.787,2.36,116.749,13.62,119.438
			C241.8,335.993,332.854,335.993,332.854,335.993z"/>
		<g>
			<g>
				<g>
					<g>
						<path fill="#8282A8" d="M297.168,334.604c0,0,24.093-10.924,28.236-16.62c4.144-5.698-1.947-6.021-1.947-6.021
							s10.752-9.615,9.238-13.663c-1.513-4.048-7.157-0.18-7.157-0.18s6.99-14.307,3.729-15.729
							c-6.07-2.65-14.59,12.576-14.59,12.576s1.832-6.614-2.351-6.399c-6.305,0.324-6.046,15.286-6.046,15.286
							s-0.71-5.737-4.511-3.874C294.951,303.324,297.168,334.604,297.168,334.604z"/>
					</g>
					<path fill="#B1B1DE" d="M301.181,297.688c4.125-1.141,5.08,3.06,5.08,3.06s-0.238-11.855,6.066-12.18
						c4.183-0.215,2.351,6.399,2.351,6.399s8.52-15.226,14.59-12.576l-32.129,51.971
						C296.913,330.732,295.247,299.329,301.181,297.688z"/>
				</g>
				<g>
					<g>
						<path fill="#8282A8" d="M297.791,334.739c0,0,19.705,2.251,24.807,0.245c5.102-2.005,1.446-4.482,1.446-4.482
							s10.955-1.979,11.8-5.07c0.845-3.09-4.385-2.786-4.385-2.786s10.682-6.313,9.275-8.418
							c-2.614-3.922-14.656,2.393-14.656,2.393s4.065-3.44,1.361-4.869c-4.076-2.153-10.525,7.276-10.525,7.276
							s0.401-2.324-2.794-2.582C308.39,315.982,297.791,334.739,297.791,334.739z"/>
					</g>
					<path fill="#3E3D51" d="M313.842,315.829c3.193,0.258,3.073,3.198,3.073,3.198s6.448-9.431,10.525-7.276
						c2.704,1.428-1.361,4.869-1.361,4.869s12.041-6.314,14.657-2.393l-43.006,20.411
						C299.192,332.291,308.488,315.397,313.842,315.829z"/>
				</g>
			</g>
			<g>
				<path fill="#3E3D51" d="M348.839,335.765c0-0.42-0.244-0.761-0.544-0.761H112.547c-0.371,0-0.67,0.341-0.67,0.761
					s0.299,0.761,0.67,0.761h235.748C348.595,336.524,348.839,336.184,348.839,335.765L348.839,335.765z"/>
			</g>
			<g>
				<g>
					<g>
						<path fill="#8282A8" d="M170.164,334.652c0,0-31.406-14.239-36.808-21.666c-5.401-7.426,2.539-7.848,2.539-7.848
							s-14.016-12.534-12.044-17.81c1.973-5.277,9.331-0.235,9.331-0.235s-9.11-18.649-4.861-20.503
							c7.916-3.454,19.019,16.394,19.019,16.394s-2.387-8.622,3.064-8.342c8.219,0.422,7.88,19.926,7.88,19.926
							s0.929-7.478,5.882-5.049C173.053,293.877,170.164,334.652,170.164,334.652z"/>
					</g>
					<path fill="#B1B1DE" d="M165.846,287.476c-4.333-2.355-7.64,3.186-7.64,3.186s0.416-15.597-7.803-16.02
						c-5.451-0.28-3.065,8.342-3.065,8.342s-11.103-19.847-19.018-16.394l41.88,67.746
						C170.496,329.605,171.604,290.604,165.846,287.476z"/>
				</g>
				<g>
					<g>
						<path fill="#8282A8" d="M169.353,334.829c0,0-25.687,2.934-32.337,0.319c-6.651-2.614-1.885-5.843-1.885-5.843
							s-14.28-2.581-15.383-6.609c-1.101-4.027,5.716-3.632,5.716-3.632s-13.923-8.229-12.092-10.973
							c3.411-5.111,19.106,3.119,19.106,3.119s-5.298-4.486-1.775-6.348c5.313-2.808,13.721,9.484,13.721,9.484
							s-0.522-3.03,3.641-3.365C155.534,310.379,169.353,334.829,169.353,334.829z"/>
					</g>
					<path fill="#3E3D51" d="M148.046,308.937c-4.163,0.336-3.622,5.41-3.622,5.41s-7.443-13.11-13.744-9.671
						c-3.496,1.908,1.351,6.361,1.351,6.361s-15.25-8.057-18.66-2.945l56.059,26.606
						C167.525,331.637,155.023,308.374,148.046,308.937z"/>
				</g>
			</g>
			<path fill="#3E3D51" d="M301.175,312.586H165.328c-5.188,0-9.394-3.368-9.394-7.522v-4.473c0-4.155,4.206-7.522,9.394-7.522
				h135.847l0,0c-6.215,5.438-6.322,13.75-0.25,19.29L301.175,312.586z"/>
			<path fill="#FBF3FF" d="M299.271,295.305h-68.358c-4.708,0-8.525,3.368-8.525,7.521l0,0c0,4.155,3.817,7.523,8.525,7.523h68.366
				C296.082,305.734,296.089,299.907,299.271,295.305z"/>
			<g>
				<path fill="#FF7685" d="M321.483,311.558H150.351c-5.315,0-9.622,3.729-9.622,8.326v7.004c0,4.598,4.307,8.325,9.622,8.325
					h171.133l-0.091-0.08C314.072,328.539,314.111,318.11,321.483,311.558z"/>
				<path fill="#FBF3FF" d="M318.453,315.06h-91.484c-5.314,0-9.622,3.728-9.622,8.326l0,0c0,4.598,4.308,8.326,9.622,8.326h91.483
					C315.089,326.556,315.093,320.211,318.453,315.06z"/>
			</g>
			<g>
				<path fill="#3E3D51" d="M265.703,323.43h-6.98c-1.502,0-2.719,1.118-2.719,2.499v0.224h9.699V323.43z"/>
				<path fill="#8282A8" d="M259.007,323.438c1.668,0,4.162,1.299,5.566,2.901l16.559,18.884l9.727-0.006l-15.748-17.959
					c-1.853-2.113-5.138-3.826-7.34-3.824L259.007,323.438z"/>
			</g>
			<path fill="#FF7685" d="M149.099,194.189c-0.045,0.131-0.169,0.227-0.318,0.248c-0.149,0.021-0.298-0.039-0.384-0.152
				l-1.634-2.174l-2.875,0.006c-0.151,0-0.288-0.078-0.355-0.202c-0.066-0.124-0.052-0.272,0.04-0.382l1.744-2.102l-0.894-2.512
				c-0.046-0.131-0.008-0.276,0.099-0.373c0.108-0.097,0.266-0.129,0.407-0.083l2.712,0.875l2.322-1.559
				c0.122-0.082,0.283-0.092,0.417-0.028c0.133,0.064,0.215,0.192,0.211,0.33l-0.067,2.643l2.33,1.549
				c0.122,0.081,0.183,0.219,0.158,0.355c-0.024,0.137-0.132,0.248-0.275,0.288l-2.754,0.758L149.099,194.189z"/>
			<path fill="#8282A8" d="M252.244,162.619c0.192-0.455,0.126-2.084,2.59-3.651c1.011-0.637,1.841-1.179,2.066-1.923
				c0.386-1.283-1.082-1.899-2.545-1.893c-0.756,0.004-1.375-0.554-1.398-1.25l0,0c-0.025-0.707,0.571-1.298,1.339-1.333
				c0.838-0.038,1.828,0.037,2.864,0.302c3.141,0.802,4.085,2.763,3.538,4.578c-0.502,1.663-1.95,2.471-3.132,3.159
				c-1.989,1.161-1.987,2.456-2.158,2.818L252.244,162.619z M250.715,165.479c0.351-1.159,1.481-1.766,2.718-1.45
				c1.286,0.328,1.866,1.372,1.54,2.537c-0.344,1.138-1.457,1.772-2.741,1.444C250.969,167.689,250.37,166.617,250.715,165.479z"/>
			<path fill="#FF7685" d="M331.602,192.11l1.168,1.785c0.127,0.193,0.44,0.169,0.528-0.041l0.831-1.938l2.207-0.47
				c0.238-0.051,0.309-0.332,0.12-0.476l-1.747-1.325l0.194-2.075c0.021-0.225-0.247-0.374-0.454-0.253l-1.91,1.12l-2.085-0.813
				c-0.226-0.088-0.463,0.1-0.402,0.319l0.568,2.016l-1.484,1.573c-0.162,0.17-0.041,0.437,0.205,0.45L331.602,192.11z"/>
			<polygon fill="#FF7685" points="278.438,165.542 275.883,163.874 276.593,160.998 277.423,161.171 276.842,163.537 
				279.481,165.263 278.121,168.351 281.104,169.831 279.746,172.558 278.727,172.722 279.994,170.172 277.045,168.707 			"/>
			<polygon fill="#8282A8" points="160.732,177.541 162.314,178.822 164.283,178.029 165.945,179.58 167.759,178.141 
				169.724,179.818 171.572,178.682 173.748,180.013 173.2,180.77 171.573,179.775 169.624,180.975 167.734,179.361 
				165.891,180.825 164.056,179.113 162.133,179.888 160.667,178.701 159.521,179.453 158.946,178.711 			"/>
			<g>
				<ellipse fill="#ECE1EF" cx="335.535" cy="208.345" rx="5.48" ry="5.039"/>
				<path fill="#8282A8" d="M339.21,208.921l-2.333,0.659l-0.729,2.14c-0.06,0.173-0.31,0.208-0.423,0.06l-1.402-1.835l-2.438,0.021
					c-0.198,0.001-0.312-0.205-0.194-0.35l1.466-1.793l-0.776-2.126c-0.063-0.172,0.116-0.335,0.303-0.276l2.309,0.727l1.96-1.336
					c0.157-0.108,0.381-0.002,0.378,0.179l-0.04,2.243l1.988,1.301C339.438,208.64,339.398,208.868,339.21,208.921z"/>
			</g>
			<g>
				<path fill="#B1B1DE" d="M178.184,162.134c-3.071,1.6-2.465,5.875,0.958,6.72c0.615,0.152,1.144,0.515,1.5,1l1.229,1.668
					c0.339,0.459,1.004,0.603,1.529,0.329l1.165-0.606c0.525-0.273,0.734-0.873,0.479-1.376c-0.929-1.837-1.416-2.453-1.084-3.524
					C184.931,163.211,181.257,160.534,178.184,162.134z"/>
				<g>
					<path fill="#FBF3FF" d="M181.725,170.043c-0.862-1.551-1.846-3.165-2.142-3.616c-1.835,0.729-1.85-1.329-0.69-0.882
						c0.331,0.127,0.562,0.373,0.764,0.66c0.602-0.262,1.146-0.631,1.595-1.082c-0.191-0.391-0.355-0.679-0.336-0.977
						c0.03-0.449,0.52-0.735,0.888-0.431c0.139,0.114,0.225,0.291,0.226,0.46c0.003,0.363-0.291,0.702-0.554,0.979
						c0.614,1.257,1.271,2.512,1.955,3.735l-0.169,0.08c-0.672-1.203-1.319-2.437-1.926-3.674c-0.449,0.438-0.986,0.798-1.578,1.059
						c0.377,0.579,1.329,2.153,2.138,3.61L181.725,170.043z M178.54,166.345c0.232,0.109,0.54,0.087,0.94-0.068
						c-0.181-0.252-0.384-0.465-0.661-0.571C178.195,165.466,178.15,166.163,178.54,166.345z M181.105,164.157
						c-0.016,0.25,0.133,0.513,0.283,0.822c0.212-0.23,0.453-0.511,0.451-0.802c-0.001-0.204-0.183-0.431-0.401-0.411
						C181.415,163.768,181.116,163.981,181.105,164.157z"/>
				</g>
				<path fill="#8282A8" d="M180.61,169.813c0.011,0.014,0.022,0.026,0.033,0.041l1.229,1.668c0.338,0.459,1.005,0.603,1.53,0.329
					l1.163-0.606c0.526-0.273,0.735-0.873,0.48-1.376c-0.413-0.817-0.739-1.393-0.944-1.874L180.61,169.813z"/>
				<g>
					<path fill="#B1B1DE" d="M175.213,161.583l-1.634-1.311c-0.158-0.127-0.174-0.348-0.037-0.493
						c0.138-0.146,0.378-0.16,0.536-0.034l1.634,1.311c0.158,0.127,0.174,0.348,0.036,0.493
						C175.61,161.696,175.37,161.709,175.213,161.583z"/>
				</g>
				<g>
					<path fill="#B1B1DE" d="M174.662,166.275l-2.199,0.549c-0.202,0.05-0.412-0.06-0.466-0.246
						c-0.054-0.186,0.064-0.378,0.267-0.429l2.2-0.549c0.203-0.051,0.411,0.06,0.466,0.246
						C174.984,166.033,174.865,166.224,174.662,166.275z"/>
				</g>
				<g>
					<path fill="#B1B1DE" d="M174.951,172.997c-0.189-0.082-0.272-0.29-0.182-0.465c0.334-0.653,0.737-1.28,1.199-1.863
						c0.123-0.156,0.36-0.19,0.53-0.077s0.207,0.332,0.083,0.488c-0.433,0.547-0.812,1.136-1.125,1.749
						C175.367,173.003,175.142,173.08,174.951,172.997z"/>
				</g>
				<g>
					<path fill="#B1B1DE" d="M180.442,159.714c-0.209,0.018-0.394-0.124-0.412-0.316c-0.091-0.913-0.286-1.819-0.578-2.695
						c-0.062-0.185,0.05-0.38,0.251-0.437c0.2-0.057,0.414,0.047,0.476,0.231c0.308,0.922,0.512,1.876,0.608,2.836
						C180.806,159.528,180.65,159.697,180.442,159.714z"/>
				</g>
				<g>
					<path fill="#B1B1DE" d="M183.645,161.492c-0.126-0.154-0.092-0.373,0.076-0.489l1.97-1.363
						c0.168-0.116,0.405-0.085,0.532,0.069s0.092,0.373-0.075,0.489l-1.971,1.363C184.01,161.676,183.771,161.646,183.645,161.492z"
						/>
				</g>
				<g>
					<path fill="#B1B1DE" d="M189.452,165.683c-0.032,0.011-0.066,0.018-0.102,0.02c-0.847,0.062-1.703,0.039-2.546-0.068
						c-0.208-0.026-0.353-0.202-0.324-0.394c0.028-0.191,0.22-0.325,0.427-0.299c0.789,0.1,1.591,0.121,2.384,0.063
						c0.209-0.015,0.392,0.129,0.408,0.321C189.713,165.487,189.608,165.63,189.452,165.683z"/>
				</g>
			</g>
			<g>
				<path fill="#B1B1DE" d="M305.2,164.794l-0.975,1.654c-2.302,3.913-5.41,7.469-9.167,10.491l-0.411,0.332
					c0,0,0.794,3.338,4.447,2.752l0,0c2.832-3.977,6.098-7.529,9.97-10.809l1.428-1.07L305.2,164.794z"/>
				<path fill="#D6D6ED" d="M310.495,168.14c-0.214,0.239-1.571-0.316-3.027-1.242c-1.457-0.926-2.477-1.873-2.26-2.112
					c0.216-0.24,1.587,0.319,3.043,1.244C309.707,166.955,310.712,167.9,310.495,168.14z"/>
				<path fill="#8282A8" d="M310.489,168.147l0.003-0.005c0,0-3.356-1.725-3.967-2.665l-0.4,0.465
					c0.37,0.299,0.829,0.629,1.343,0.955C308.907,167.813,310.25,168.366,310.489,168.147z"/>
				<g>
					<path fill="#FF7685" d="M304.414,173.587c-0.43,0.132-2.332,0.545-4.011-1.807c-0.217,0.252-0.437,0.502-0.661,0.749
						c1.152,1.463,2.412,1.9,3.292,2.004c0.137,0.017,0.321,0.031,0.461,0.036C303.797,174.239,304.102,173.912,304.414,173.587z"/>
					<polygon fill="#FF7685" points="301.031,171.849 299.859,168.001 299.264,169.172 297.908,168.98 300.269,172.251 					"/>
					<polygon fill="#FF7685" points="300.099,172.508 296.815,171.992 297.582,172.813 296.817,173.444 299.995,173.202 					"/>
					<path fill="#FF7685" d="M299.519,173.25c-0.29-0.65,0.124-1.415,0.93-1.708c0.804-0.292,1.69-0.002,1.981,0.648
						c0.291,0.651-0.126,1.415-0.93,1.708C300.695,174.191,299.81,173.901,299.519,173.25z"/>
				</g>
			</g>
			<polygon fill="#D6D6ED" points="313.024,187.657 314.626,187.176 315.751,189.459 318.186,189.022 319.333,190.605 
				320.203,190.071 318.67,187.955 316.363,188.369 315.191,185.994 312.782,186.717 			"/>
			<polygon fill="#FF7685" points="318.014,272.964 319.615,272.484 320.741,274.768 323.177,274.331 324.322,275.913 
				325.193,275.379 323.66,273.263 321.354,273.677 320.183,271.302 317.772,272.024 			"/>
			<g>
				<ellipse fill="#B1B1DE" cx="218.434" cy="157.324" rx="6.006" ry="5.523"/>
				<path fill="#EFEFEF" d="M215.098,157.596c-0.352,1.599,0.772,3.157,2.51,3.48c1.738,0.323,3.433-0.71,3.784-2.309
					L215.098,157.596z"/>
			</g>
			<g>
				<path fill="#FF7685" d="M134.84,220.988c-0.488-0.598-1.028-0.901-1.604-0.901c-3.271,0-4.007,8.859-4.007,11.962
					c0,3.54,0.427,6.584,1.234,8.803c0.744,2.044,1.737,3.169,2.796,3.169c1.124,0,2.15-1.293,2.892-3.643
					C138.044,234.385,137.345,224.055,134.84,220.988z M135.5,240.311c-0.63,1.942-1.478,3.102-2.264,3.102
					c-0.787,0-1.633-1.16-2.264-3.102c-0.704-2.166-1.091-5.1-1.091-8.261c0-3.162,0.387-6.096,1.091-8.262
					c0.631-1.942,1.477-3.102,2.264-3.102c0.786,0,1.633,1.16,2.264,3.102c0.704,2.166,1.092,5.1,1.092,8.262
					C136.591,235.211,136.204,238.145,135.5,240.311z"/>
				<path fill="#FF7685" d="M144.35,235.358c-2.615-3.99-14.703-9.928-20.209-9.928c-1.27,0-2.097,0.32-2.46,0.952
					c-0.34,0.59-0.225,1.326,0.338,2.187c2.623,4.001,14.693,9.957,20.181,9.957c1.281,0,2.118-0.326,2.487-0.969
					C145.029,236.96,144.916,236.221,144.35,235.358z M144.183,237.175c-0.198,0.449-0.877,0.686-1.965,0.686h-0.001
					c-3.813,0-12.487-2.985-17.953-7.844c-2.084-1.853-2.281-2.791-2.079-3.251c0.197-0.447,0.875-0.684,1.96-0.684
					c2.03,0,5.2,0.807,8.483,2.157c3.704,1.525,7.07,3.542,9.475,5.68C144.189,235.774,144.386,236.714,144.183,237.175z"/>
				<path fill="#FF7685" d="M144.463,226.251c-0.378-0.643-1.204-0.968-2.454-0.968c-2.497,0-6.743,1.371-11.083,3.578
					c-4.335,2.205-7.786,4.746-9.006,6.631c-0.558,0.861-0.669,1.588-0.332,2.16c0.37,0.627,1.186,0.945,2.427,0.945
					c5.448,0,17.481-6.061,20.118-10.133C144.701,227.588,144.813,226.843,144.463,226.251z M138.365,232.563
					c-3.855,2.474-8.361,4.391-12.052,5.13c-0.885,0.177-1.662,0.267-2.309,0.267h0c-0.976,0-1.613-0.205-1.842-0.593
					c-0.224-0.379-0.123-0.901,0.298-1.552c1.111-1.716,4.415-4.179,8.415-6.274c4.3-2.252,8.477-3.596,11.173-3.596
					c1.238,0,1.901,0.298,1.971,0.888C144.157,228.021,141.938,230.27,138.365,232.563z"/>
				<ellipse fill="#FF7685" cx="133.248" cy="231.69" rx="2.083" ry="1.915"/>
				<ellipse fill="#FF7685" cx="131.08" cy="222.717" rx="1.561" ry="1.436"/>
				<ellipse fill="#FF7685" cx="136.154" cy="239.747" rx="1.302" ry="1.197"/>
				<ellipse fill="#FF7685" cx="123.489" cy="234.003" rx="1.344" ry="1.236"/>
				<ellipse fill="#FF7685" cx="143.637" cy="228.48" rx="1.106" ry="1.017"/>
				<ellipse fill="#FF7685" cx="127.256" cy="226.348" rx="1.106" ry="1.017"/>
			</g>
			<g>
				<g>
					<polygon fill="#8282A8" points="340.023,250.301 345.24,248.733 345.534,249.559 340.317,251.127 					"/>
				</g>
				<g>
					<polygon fill="#8282A8" points="335.824,239.157 336.656,239.568 333.917,244.249 333.085,243.837 					"/>
				</g>
				<g>
					<polygon fill="#8282A8" points="337.753,259.077 341.672,263.294 340.954,263.859 337.034,259.642 					"/>
				</g>
				<g>
					<polygon fill="#8282A8" points="337.708,259.426 328.212,261.785 321.043,256.306 321.646,255.638 328.438,260.828 
						336.94,258.716 339.37,250.672 333.098,244.499 333.787,243.905 340.421,250.435 					"/>
				</g>
				<g>
					<ellipse fill="#B1B1DE" cx="321.171" cy="255.952" rx="2.282" ry="2.1"/>
				</g>
				<g>
					<ellipse fill="#B1B1DE" cx="328.355" cy="261.604" rx="2.285" ry="2.1"/>
				</g>
				<g>
					<ellipse fill="#B1B1DE" cx="337.358" cy="259.086" rx="2.282" ry="2.101"/>
				</g>
				<g>
					<ellipse fill="#B1B1DE" cx="341.966" cy="264.117" rx="2.284" ry="2.1"/>
				</g>
				<g>
					<ellipse fill="#B1B1DE" cx="346.869" cy="248.848" rx="2.284" ry="2.1"/>
				</g>
				<g>
					<ellipse fill="#B1B1DE" cx="337.15" cy="238.566" rx="2.282" ry="2.1"/>
				</g>
				<g>
					<ellipse fill="#B1B1DE" cx="340.274" cy="250.455" rx="2.284" ry="2.1"/>
				</g>
				<g>
					<ellipse fill="#B1B1DE" cx="333.521" cy="244.048" rx="2.283" ry="2.1"/>
				</g>
			</g>
			<g>
				<polygon fill="#FF7685" points="346.545,227.91 343.479,227.323 344.129,225.047 345.043,225.268 344.646,226.659 
					346.737,227.059 				"/>
			</g>
			<polygon fill="#B1B1DE" points="139.347,253.079 138.657,254.838 135.457,254.13 134.103,256.588 131.613,256.418 
				131.519,257.577 134.849,257.804 136.132,255.475 139.462,256.211 140.5,253.563 			"/>
			<polygon fill="#8282A8" points="136.417,204.187 138.093,204.347 138.111,206.854 140.53,207.365 140.877,209.239 
				141.909,209.077 141.444,206.571 139.152,206.086 139.133,203.478 136.612,203.238 			"/>
			<g>
				<path fill="#F7A491" d="M203.232,240.869l-4.576,13.521l-14.409-19.387l0.004-0.016c0,0-5.287-2.472-6.613-2.703
					c-1.184-0.206-4.982-0.536-5.578,0.048c-0.029-0.04-0.067-0.071-0.12-0.083c-0.503-0.118-1.431,1.448-1.562,1.827
					c-0.129,0.379,0.916,2.583,1.009,2.75c0.094,0.167-0.268,0.256-0.728,0.095c-0.458-0.16-1.9-1.688-1.9-1.688
					s-0.138-2.47-1.004-2.457c-0.865,0.014-0.078,3.102-0.078,3.102l0.84,1.034l-1.244-0.692c0,0-0.852-1.663-1.079-1.576
					c-0.226,0.087-0.529,0.931-0.057,1.803c0.472,0.873,1.493,1.82,1.493,1.82l1.885,0.892c0,0-2.19-0.175-2.837-0.625
					c-0.647-0.451-0.908,0.182-0.396,0.719c0.511,0.537,3.399,1.455,5.226,1.635c1.826,0.181,7.52,0.048,8.339-0.091
					c0.665-0.113,1.903-0.291,2.52,0.029c0.81,2.176,7.839,25.742,16.343,28.491c0,0,3.928-0.474,8.402-9.84
					c4.476-9.366,6.875-14.997,6.875-14.997L203.232,240.869z M176.798,236.069c-0.634,0.22-2.91,0.34-3.507,0.14
					c-0.596-0.2-1.502-2.323-1.502-2.323s0.272-0.632,0.33-1.112c0.667,0.669,3.492,0.372,4.13,0.748
					C176.939,233.93,177.432,235.85,176.798,236.069z"/>
				<path fill="#F7A491" d="M254.406,243.838c0,0,2.608,5.552,7.434,14.77c4.823,9.218,8.768,9.566,8.768,9.566
					c8.395-3.019,14.537-26.794,15.263-28.994c0.604-0.338,1.848-0.201,2.518-0.109c0.822,0.113,6.519,0.064,8.337-0.174
					s4.67-1.248,5.161-1.8c0.49-0.553,0.206-1.177-0.423-0.706c-0.629,0.471-2.812,0.715-2.812,0.715l1.849-0.951
					c0,0,0.985-0.979,1.424-1.867c0.439-0.887,0.105-1.72-0.124-1.8s-1.019,1.609-1.019,1.609l-1.217,0.732l0.802-1.061
					c0,0,0.67-3.112-0.196-3.098c-0.864,0.014-0.909,2.487-0.909,2.487s-1.384,1.572-1.838,1.747
					c-0.45,0.175-0.817,0.097-0.729-0.072c0.088-0.168,1.049-2.405,0.905-2.78c-0.144-0.375-1.129-1.91-1.629-1.776
					c-0.052,0.014-0.089,0.046-0.116,0.087c-0.616-0.565-4.401-0.114-5.575,0.129c-1.317,0.272-6.508,2.911-6.508,2.911l0.004,0.016
					l-13.671,19.833l-5.083-13.367L254.406,243.838z M291.711,231.685c0.624-0.396,3.459-0.189,4.1-0.879
					c0.076,0.479,0.373,1.101,0.373,1.101s-0.826,2.15-1.415,2.369s-2.868,0.171-3.51-0.028S291.036,232.114,291.711,231.685z"/>
				<path fill="#8282A8" d="M231.535,278.458c0,0-6.403-3.048-15.14-5.429c-11.703-3.19-27.465-5.303-36.412,1.557
					c-5.262,4.034,49.172,9.354,49.172,9.354L231.535,278.458z"/>
				<path fill="#8282A8" d="M290.367,277.135c0,0-5.181-6.989-18.508-6.827c-5.191,0.063-12.384,1.012-18.939,2.204
					c-11.697,2.127-22.726,5.704-22.726,5.704l-1.039,5.724L290.367,277.135z"/>
				<polygon fill="#8282A8" points="214.567,287.079 238.248,297.683 256.777,284.063 250.7,271.832 217.124,273.771 				"/>
				<path fill="#333343" d="M219.737,209.633c-2.651-4.968-2.792-14.355-0.715-19.867c1.683-4.46,5.708-7.002,10.894-7.521
					c6.013-0.602,9.847,0.484,14.534,3.3c4.88,2.931,10.712,6.108,16.319,7.402c7.313,1.687,14.863,2.929,21.558,6.124
					c4.416,2.108,8.525,5.242,10.29,9.521c2.526,6.124-0.367,13.175-5.034,18.122c-7.043,7.462-18.192,11.464-28.87,10.362
					c-8.311-0.858-16.15-4.785-21.604-10.588c-2.46-2.617-4.325-4.563-7.26-6.682C226.089,217.093,221.872,213.635,219.737,209.633z
					"/>
				<path fill="#FF7685" d="M251.294,216.168c0,0-9.248-0.85-18.362-1.118c-8.132-0.239-16.835,1.144-17.407,1.687
					c-2.275,2.166-3.098,20.777-1.826,24.212c1.272,3.434,7.209,12.346,6.111,18.163c-1.099,5.816-3.37,13.923-3.37,13.923
					s7.731,4.064,17.488,4c5.855-0.04,13.958-1.11,18.989-4.527c0,0-2.935-7.214-2.639-12.894c0.295-5.68,3.468-15.354,5.147-18.835
					C257.104,237.297,254.392,216.736,251.294,216.168z"/>
				<path fill="#FF7685" d="M219.177,218.283l-3.485-1.627c0,0-3.952,1.036-6.001,3.752c-1.686,2.232-9.238,22.479-9.238,22.479
					s10.537,3.78,13.888,3.604l5.133-12.419L219.177,218.283z"/>
				<path fill="#FF7685" d="M247.614,217.831l3.74-1.662c0,0,2.38,0.445,5.434,3.704c1.928,2.058,10.465,21.951,10.465,21.951
					s-10.388,4.113-13.745,4.043l-5.597-12.249L247.614,217.831z"/>
				<path fill="#F7A491" d="M237.015,204.31c0,0,0.635,8.31,1.209,10.957c0.593,2.735,1.388,15.309-4.794,16.802
					c-6.18,1.494-4.652-14.207-4.806-16.979c-0.156-2.772-1.569-12.276-1.569-12.276L237.015,204.31z"/>
				<path fill="#F47458" d="M227.056,202.813c0,0,0.285,1.918,0.613,4.281c2.314,1.61,5.479,2.011,9.105,0.039
					c0.157-0.085,0.304-0.176,0.454-0.266c-0.131-1.489-0.212-2.556-0.212-2.556L227.056,202.813z"/>
				<path fill="#F7A491" d="M234.114,184.875c0,0,3.655,0.874,5.814,4.133c2.16,3.259,3.384,12.697-4.261,16.854
					c-7.644,4.157-13.245-2.22-13.124-8.27C222.663,191.541,224.36,183.513,234.114,184.875z"/>
				<path fill="#F7A491" d="M223.64,197.753c-0.938,0.314-2.172-0.63-2.758-2.108c-0.587-1.479-0.303-2.932,0.634-3.247
					c0.937-0.314,2.171,0.63,2.758,2.108C224.861,195.986,224.577,197.439,223.64,197.753z"/>
				<path fill="#333343" d="M233.018,184.644c0,0,4.347,9.822,8.44,10.812c4.091,0.989,3.858,5.858,3.858,5.858
					s0.31-11.251-3.462-13.949C238.083,184.668,233.018,184.644,233.018,184.644z"/>
				<path fill="#F7A491" d="M240.718,200.909c-1.145-0.372-1.586-1.935-0.987-3.491c0.598-1.556,2.012-2.515,3.155-2.143
					c1.145,0.372,1.587,1.935,0.987,3.491C243.274,200.322,241.86,201.281,240.718,200.909z"/>
				<path fill="#F7A491" d="M194.69,291.767c0,0-2.734-2.071-5.977-2.862c-3.241-0.791-3.178,1.395-4.012,4.765
					c-0.833,3.371-2.237,5.58-4.013,8.849c-1.775,3.268,0.4,10.71,1.396,10.806c2.406,0.233,3.521-4.501,5.796-8.54
					c2.276-4.04,8.622-5.397,10.472-5.578c0.333-0.032,8.587-1.236,19.648-1.158c-2.321-4.062-5.675-7.374-9.119-10.908
					C200.482,289.817,194.69,291.767,194.69,291.767z"/>
				<path fill="#B1B1DE" d="M292.145,280.868c-1.131-5.245-5.91-7.387-11.432-7.255c-12.721,0.302-48.588,7.84-69.938,13.999
					c1.277,4.226,0.299,6.985,1.822,11.333c22.614-1.107,65.052-4.346,77.321-10.848
					C291.829,287.084,292.691,283.404,292.145,280.868z"/>
				<path fill="#F7A491" d="M277.302,303.852c-1.608-3.342-3.223-5.545-3.884-8.948c-0.78-4.026-0.415-6.275-5.787-4.367
					c-3.083,1.095-6.496,1.11-9.554-0.042c-2.009-0.757-4.492-1.687-7.313-2.728c-1.809,3.509-2.962,7.225-3.259,11.187
					c6.677,0.632,11.544,1.251,11.791,1.275c1.073,0.103,8.313,1.506,10.38,5.64c2.066,4.133,2.995,9.278,5.353,8.782
					C276.399,314.361,278.907,307.192,277.302,303.852z"/>
				<path fill="#D6D6ED" d="M192.774,271.765c-5.004-0.127-13.655,0.74-14.949,5.937c-0.625,2.513-0.393,6.052,0.722,8.426
					c1.392,2.963,4.597,4.578,7.778,5.832c6.063,2.363,43.616,6.027,62.962,7.859c2.283-3.802,4.172-8.028,4.03-11.725
					C234.64,281.196,202.361,272.01,192.774,271.765z"/>
			</g>
		</g>
	</g>
</g>
</svg>
