<?xml version="1.0" encoding="utf-8"?>
<!-- Generator: Adobe Illustrator 16.0.0, SVG Export Plug-In . SVG Version: 6.00 Build 0)  -->
<!DOCTYPE svg PUBLIC "-//W3C//DTD SVG 1.1//EN" "http://www.w3.org/Graphics/SVG/1.1/DTD/svg11.dtd">
<svg version="1.1" xmlns="http://www.w3.org/2000/svg" xmlns:xlink="http://www.w3.org/1999/xlink" x="0px" y="0px" width="3710px"
	 height="3710px" viewBox="0 0 3710 3710" enable-background="new 0 0 3710 3710" xml:space="preserve">
<g id="Background">
	<g>
		<g>
			<rect fill="transparent" width="3710" height="3710"/>
		</g>
	</g>
</g>
<g id="Illustration">
	<g>
		<linearGradient id="SVGID_1_" gradientUnits="userSpaceOnUse" x1="3581.3594" y1="4069.3867" x2="1126.1362" y2="1020.1533">
			<stop  offset="0" style="stop-color:#B37CFF"/>
			<stop  offset="1" style="stop-color:#F895E7"/>
		</linearGradient>
		<path opacity="0.3" fill="url(#SVGID_1_)" d="M2905.911,2866.88c-56.396,59.37-109.757,97.658-151.916,127.908
			c-495.575,355.581-1081.972,251.931-1206.599,226.618c-184.033-37.378-539.766-109.629-796.954-412.078
			c-389.104-457.578-328.515-1178.481-26.699-1654.359c55.207-87.046,346.825-570.172,939.538-647.651
			c358.703-46.889,776.837,47.681,1079.638,301.367C3378.524,1341.197,3333.276,2416.964,2905.911,2866.88z"/>
		<g>
			
				<linearGradient id="SVGID_2_" gradientUnits="userSpaceOnUse" x1="3656.9463" y1="1407.4727" x2="2302.7773" y2="2895.9407" gradientTransform="matrix(0.9909 0.1349 -0.1349 0.9909 -207.4565 9.2422)">
				<stop  offset="0" style="stop-color:#B37CFF"/>
				<stop  offset="1" style="stop-color:#F895E7"/>
			</linearGradient>
			<path fill="url(#SVGID_2_)" d="M2355.356,3161.77c-4.772-0.65-9.046-3.165-11.916-7.034
				c-41.829-56.372-345.976-497.524,58.804-900.774c384.262-382.811,558.444-461.412,581.609-686.33
				c2.705-26.266,38.215-32.57,49.898-8.891c87.313,176.968,223.35,589.923-226.836,860.968
				c-496.602,298.991-455.902,626.748-431.887,719.889C2378.203,3151.908,2367.954,3163.484,2355.356,3161.77L2355.356,3161.77z"/>
			
				<linearGradient id="SVGID_3_" gradientUnits="userSpaceOnUse" x1="3970.582" y1="1692.7832" x2="2616.3965" y2="3181.2695" gradientTransform="matrix(0.9909 0.1349 -0.1349 0.9909 -207.4565 9.2422)">
				<stop  offset="0" style="stop-color:#B37CFF"/>
				<stop  offset="1" style="stop-color:#F895E7"/>
			</linearGradient>
			<path fill="url(#SVGID_3_)" d="M2416.945,3170.152c-11.299-1.538-20.252-10.252-21.994-21.521
				c-11.855-76.713-40.967-363.366,170.214-439.381c232.479-83.682,420.166,132.832,591.056-36.633
				c8.991-8.917,24.11-1.146,21.965,11.334c-15.219,88.522-82.96,293.563-384.379,334.819
				c-322.623,44.159-358.93,81.17-352.415,127.081C2443.4,3160.006,2431.111,3172.081,2416.945,3170.152L2416.945,3170.152z"/>
			<path opacity="0.47" fill="#FFFFFF" d="M2972.615,1796.947c-3.939,16.688-9.18,32.343-15.434,47.888
				c-6.141,15.526-13.211,30.666-20.92,45.478c-15.264,29.729-33.58,57.849-53.633,84.639
				c-40.377,53.447-89.229,100.396-143.073,140.21c-26.854,19.792-55.563,37.984-83.942,54.421
				c-27.632,16.026-54.219,33.957-79.684,53.375c-50.969,38.831-97.18,83.891-137.99,133.293
				c-81.303,98.884-139.004,218.217-157.998,345.271c-9.693,63.381-9.809,128.276-1.079,192.188
				c8.627,63.992,26.868,126.656,50.921,187.073c1.299,3.221-0.256,6.885-3.478,8.185c-3.094,1.25-6.62-0.184-8.044-3.15
				c-28.126-59.705-49.141-123.179-60.773-188.72c-5.945-32.735-9.465-65.984-10.469-99.362
				c-0.801-33.371,0.605-66.883,4.813-100.087c8.08-66.481,26.834-131.604,53.843-192.905
				c27.087-61.333,62.868-118.621,104.667-170.878c41.783-52.331,90.26-99.149,143.268-140.053
				c26.557-20.405,54.324-39.284,83.309-56.243c28.376-16.283,55.313-32.826,81.404-51.656
				c52.078-37.197,100.203-80.14,141.605-129.147c20.961-24.288,39.938-50.286,57.278-77.387
				c16.998-27.155,32.884-55.806,44.317-85.433l0.148-0.384c1.141-2.958,4.465-4.43,7.422-3.289
				C2971.805,1791.317,2973.268,1794.197,2972.615,1796.947z"/>
			<path opacity="0.47" fill="#FFFFFF" d="M2403.553,3118.127c0.986-2.776,0.678-5.357,0.588-8.011l-0.246-7.905l-0.184-15.806
				c0.02-10.533,0.245-21.065,0.705-31.59c0.938-21.047,2.73-42.07,5.547-62.988c5.742-41.766,15.206-83.413,32.065-122.638
				c16.672-38.953,41.92-76.181,78.563-100.503c18.254-11.939,38.846-20.441,60.186-24.76c21.322-4.493,43.232-5.161,64.66-3.279
				c83.982,9.739,166.3,25.842,248.834,38.917c41.111,6.129,82.801,11.601,123.162,6.082c10.03-1.471,19.912-3.66,29.512-6.744
				c9.498-3.314,18.833-7.198,27.553-12.309c17.553-10.021,32.984-23.721,46.775-38.925l0.043-0.046
				c1.9-2.095,5.137-2.254,7.23-0.354c2.066,1.873,2.244,5.053,0.427,7.149c-13.976,16.092-29.946,30.966-48.608,42.165
				c-9.266,5.693-19.264,10.132-29.459,13.919c-10.288,3.559-20.867,6.137-31.539,7.93c-42.984,6.298-85.598,0.942-127.18-4.758
				c-41.703-5.935-82.881-13.665-124.203-20.353c-41.193-6.705-82.867-13.187-123.891-17.997
				c-20.251-1.961-40.729-1.484-60.471,2.499c-19.775,3.819-38.68,11.451-55.595,22.285c-34.096,21.711-58.836,56.262-75.634,93.663
				c-16.996,37.587-27.095,78.283-33.498,119.342c-3.155,20.569-5.311,41.314-6.619,62.118c-0.646,10.402-1.063,20.821-1.271,31.243
				l-0.104,15.63l0.099,7.806c0.069,2.584-0.05,5.238,1.223,7.693c1.207,2.331,0.298,5.2-2.032,6.408s-5.199,0.298-6.408-2.032
				c-0.627-1.212-0.682-2.57-0.264-3.764L2403.553,3118.127z"/>
		</g>
		<g>
			<g>
				<linearGradient id="SVGID_4_" gradientUnits="userSpaceOnUse" x1="5352.0137" y1="-1425.2778" x2="221.1177" y2="2948.1001">
					<stop  offset="0" style="stop-color:#CB236D"/>
					<stop  offset="1" style="stop-color:#4C246D"/>
				</linearGradient>
				<path fill="url(#SVGID_4_)" d="M1964.757,497.397c-126.53-0.998-254.159,19.067-367.078,65.919
					c-262.854,109.062-485.929,397.641-398.631,692.407c28.358,95.755,13.46,201.396,108.853,243.008
					c51.613,22.516,192.168,35.917,245.611,18.174c142.042-47.16,235.406-176.23,158.155-319.363
					c-24.739-45.836-56.759-87.709-78.121-135.214c-21.362-47.504-31.099-103.889-9.319-151.208
					c42.752-92.878,184.775-122.404,276.875-119.618c108.706,3.289,207.205,57.056,265.703,149.292
					c72.906,114.955,91.377,254.776,80.707,388.214c-11.418,142.783-71.621,251.819-161.845,361.353
					c-77.678,94.303-163.219,184.824-214.847,295.556c-47.396,101.657-62.885,214.295-65.026,325.51
					c-0.415,21.556-107.614,224.694-107.154,286.754c0.065,8.768,121.583,37.813,130.35,37.911
					c45.75,0.512,175.338,1.96,223.034,2.493c9.81,0.109,17.894-7.73,18.005-17.539c3.395-301.934,96.266-589.793,331.362-792.573
					c85.545-73.785,177.671-133.871,244.188-227.002c94.805-132.741,141.577-263.374,128.079-427.197
					c-12.328-149.621-61.595-299.323-159.122-415.411c-104.822-124.771-258.244-202.688-417.696-236.313
					C2122.482,506.871,2043.834,498.021,1964.757,497.397z"/>
				<linearGradient id="SVGID_5_" gradientUnits="userSpaceOnUse" x1="6100.3652" y1="-547.3003" x2="969.4644" y2="3826.0815">
					<stop  offset="0" style="stop-color:#CB236D"/>
					<stop  offset="1" style="stop-color:#4C246D"/>
				</linearGradient>
				<path fill="url(#SVGID_5_)" d="M2198.091,2977.058c0,138.842-76.96,261.679-215.802,261.679
					c-29.993,0-132.005,0.276-158.675-9.358c-96.789-34.968-97.138-109.326-97.138-218.175
					c0-138.843,46.884-275.392,185.727-275.392C2051.045,2735.812,2198.091,2838.216,2198.091,2977.058z"/>
			</g>
			<g>
				<linearGradient id="SVGID_6_" gradientUnits="userSpaceOnUse" x1="562.0991" y1="2737.6533" x2="5016.2798" y2="-1979.1353">
					<stop  offset="0" style="stop-color:#CB236D"/>
					<stop  offset="1" style="stop-color:#4C246D"/>
				</linearGradient>
				<path fill="url(#SVGID_6_)" d="M1844.529,465.758c-126.53-0.998-254.16,19.067-367.078,65.919
					c-262.854,109.062-485.929,397.641-398.631,692.407c28.358,95.755,93.928,216.289,189.321,257.902
					c51.613,22.515,111.701,21.023,165.143,3.28c142.042-47.159,235.407-176.23,158.155-319.363
					c-24.739-45.836-56.759-87.709-78.121-135.213c-21.363-47.504-31.099-103.889-9.32-151.208
					c42.752-92.878,184.776-122.405,276.876-119.618c108.706,3.289,207.205,57.055,265.703,149.292
					c72.907,114.955,91.376,254.777,80.706,388.215c-11.418,142.783-71.62,251.819-161.844,361.353
					c-77.678,94.303-163.219,184.825-214.847,295.556c-47.397,101.657-62.886,214.295-65.026,325.51
					c-0.415,21.555,6.841,246.656,7.302,308.717c0.065,8.768,7.127,15.85,15.894,15.948c45.75,0.511,175.338,1.96,223.035,2.492
					c9.81,0.11,17.895-7.729,18.004-17.538c3.396-301.934,96.267-589.793,331.363-792.574
					c85.544-73.785,177.67-133.871,244.188-227.002c94.807-132.74,141.578-263.374,128.08-427.196
					c-12.328-149.621-61.596-299.323-159.123-415.411c-104.822-124.771-258.242-202.688-417.695-236.312
					C2002.254,475.232,1923.606,466.382,1844.529,465.758z"/>
				<linearGradient id="SVGID_7_" gradientUnits="userSpaceOnUse" x1="1367.6968" y1="3498.3984" x2="5821.896" y2="-1218.4097">
					<stop  offset="0" style="stop-color:#CB236D"/>
					<stop  offset="1" style="stop-color:#4C246D"/>
				</linearGradient>
				<circle fill="url(#SVGID_7_)" cx="1857.645" cy="2979.563" r="251.396"/>
			</g>
			<g>
				<path fill="#FFFFFF" d="M1162.034,1195.209c-1.479,0-2.813-1.024-3.146-2.53c-17.618-79.547-20.205-204.117,67.52-345.824
					c85.623-138.313,205.728-230.863,356.984-275.075c161.682-47.261,353.648-37.144,570.569,30.071
					c1.701,0.527,2.654,2.334,2.127,4.037c-0.527,1.703-2.334,2.653-4.037,2.127c-215.692-66.835-406.405-76.94-566.849-30.043
					c-149.68,43.753-268.549,135.361-353.308,272.278c-86.584,139.865-84.066,262.654-66.708,341.035
					c0.387,1.739-0.711,3.462-2.452,3.846C1162.499,1195.185,1162.266,1195.209,1162.034,1195.209z"/>
			</g>
			<g>
				<path fill="#FFFFFF" d="M1214.917,1323.198c-0.995,0-1.976-0.459-2.608-1.323c-0.763-1.044-18.877-26.073-35.724-70.16
					c-0.636-1.665,0.197-3.529,1.861-4.165c1.668-0.635,3.529,0.197,4.166,1.86c16.541,43.287,34.726,68.41,34.908,68.658
					c1.051,1.438,0.737,3.457-0.701,4.509C1216.243,1322.996,1215.576,1323.198,1214.917,1323.198z"/>
			</g>
			<g>
				<path fill="#FFFFFF" d="M1941.764,2816.625c-0.489,0-0.986-0.111-1.456-0.35c-25.757-13.066-53.569-19.69-82.663-19.69
					c-1.782,0-3.227-1.445-3.227-3.228c0-1.781,1.445-3.227,3.227-3.227c30.117,0,58.913,6.861,85.582,20.391
					c1.59,0.806,2.225,2.747,1.418,4.337C1944.076,2815.979,1942.941,2816.625,1941.764,2816.625z"/>
			</g>
			<g>
				<path fill="#FFFFFF" d="M1753.532,3137.195c-0.621,0-1.249-0.18-1.803-0.555c-52.295-35.327-83.517-94.048-83.517-157.078
					c0-69.873,38.27-133.852,99.873-166.965c1.566-0.846,3.524-0.253,4.369,1.315c0.843,1.569,0.255,3.525-1.315,4.369
					c-59.507,31.985-96.473,93.785-96.473,161.28c0,60.883,30.16,117.605,80.677,151.733c1.476,0.996,1.864,3.001,0.866,4.479
					C1755.585,3136.697,1754.568,3137.195,1753.532,3137.195z"/>
			</g>
		</g>
		<g>
			<g>
				<g opacity="0.3">
					
						<linearGradient id="SVGID_8_" gradientUnits="userSpaceOnUse" x1="-1163.2622" y1="1945.1172" x2="-729.3184" y2="1945.1172" gradientTransform="matrix(-0.5449 0.8385 0.8385 0.5449 -1381.6563 749.8728)">
						<stop  offset="0" style="stop-color:#B37CFF"/>
						<stop  offset="1" style="stop-color:#F895E7"/>
					</linearGradient>
					<path fill="url(#SVGID_8_)" d="M1021.376,936.049c-2.645,3.267-7.437,3.77-10.701,1.125
						c-6.345-5.137-13.006-10.075-19.801-14.677c-3.438-2.328-4.366-6.976-2.114-10.441c0.027-0.041,0.054-0.083,0.081-0.125
						c2.356-3.479,7.087-4.388,10.567-2.031c7.151,4.844,14.165,10.042,20.843,15.45c3.054,2.472,3.691,6.825,1.596,10.049
						C1021.703,935.622,1021.547,935.84,1021.376,936.049z M956.266,902.368c-7.355-3.631-14.935-6.981-22.536-9.961
						c-3.909-1.532-5.84-5.946-4.308-9.858c1.553-3.921,5.95-5.84,9.862-4.306c7.997,3.134,15.976,6.66,23.715,10.479
						c3.768,1.859,5.314,6.423,3.454,10.19c-0.135,0.273-0.285,0.536-0.447,0.785C963.935,902.887,959.76,904.093,956.266,902.368z
						 M895.549,880.432c-7.957-1.897-16.092-3.472-24.186-4.679c-4.155-0.62-7.022-4.492-6.403-8.647
						c0.624-4.15,4.491-7.02,8.648-6.402c8.522,1.271,17.092,2.93,25.469,4.928c4.087,0.975,6.609,5.078,5.637,9.166
						c-0.208,0.871-0.558,1.671-1.02,2.381C901.991,879.801,898.764,881.2,895.549,880.432z M831.45,872.627
						c-8.189-0.072-16.477,0.213-24.633,0.843c-4.189,0.322-7.848-2.813-8.17-7c-0.319-4.189,2.815-7.844,7-8.171
						c8.588-0.662,17.313-0.96,25.932-0.888c4.201,0.036,7.579,3.472,7.542,7.673c-0.012,1.503-0.46,2.901-1.223,4.075
						C836.529,871.265,834.148,872.648,831.45,872.627z M767.21,879.296c-7.981,1.745-16.002,3.857-23.836,6.28
						c-4.016,1.239-8.275-1.009-9.516-5.023c-1.243-4.017,1.008-8.276,5.023-9.514c8.241-2.548,16.681-4.77,25.079-6.606
						c4.104-0.899,8.159,1.701,9.057,5.807c0.453,2.068,0.017,4.124-1.053,5.77C770.913,877.629,769.247,878.851,767.21,879.296z
						 M706.048,900.012c-7.409,3.472-14.759,7.305-21.851,11.395c-3.639,2.099-8.292,0.85-10.39-2.788
						c-2.1-3.641-0.853-8.292,2.788-10.393c7.461-4.305,15.2-8.339,22.997-11.993c3.806-1.781,8.333-0.143,10.118,3.662
						c1.158,2.472,0.871,5.248-0.514,7.38C708.448,898.425,707.383,899.388,706.048,900.012z M534.584,1124.541
						c-4.154-0.626-7.016-4.502-6.389-8.658c1.286-8.511,2.959-17.082,4.977-25.471c0.982-4.086,5.091-6.602,9.176-5.618
						c4.083,0.98,6.599,5.089,5.617,9.174c-1.916,7.966-3.504,16.104-4.723,24.187c-0.167,1.108-0.565,2.124-1.14,3.007
						C540.528,1123.586,537.631,1125.001,534.584,1124.541z M651.032,933.75c-6.448,5.03-12.755,10.401-18.747,15.967
						c-3.081,2.859-7.895,2.681-10.754-0.398c-2.861-3.08-2.666-7.879,0.399-10.752c6.311-5.86,12.953-11.517,19.743-16.813
						c3.313-2.583,8.093-1.993,10.678,1.32c2.05,2.627,2.102,6.179,0.382,8.825C652.287,932.588,651.717,933.215,651.032,933.75z
						 M550.15,1060.087c-3.908-1.54-5.828-5.959-4.287-9.869c3.158-8.006,6.704-15.981,10.533-23.707
						c1.852-3.776,6.432-5.301,10.196-3.436c3.763,1.866,5.301,6.431,3.436,10.197c-3.641,7.341-7.01,14.921-10.009,22.53
						c-0.191,0.485-0.43,0.938-0.703,1.359C557.386,1060.133,553.572,1061.438,550.15,1060.087z M604.945,978.93
						c-5.157,6.342-10.107,12.99-14.714,19.762c-2.362,3.476-7.093,4.376-10.569,2.013c-3.428-2.333-4.351-6.972-2.102-10.433
						c0.029-0.045,0.06-0.091,0.091-0.134c4.847-7.132,10.059-14.131,15.485-20.807c2.653-3.259,7.443-3.754,10.704-1.104
						c3.045,2.475,3.676,6.821,1.584,10.041C605.278,978.494,605.117,978.715,604.945,978.93z"/>
					
						<linearGradient id="SVGID_9_" gradientUnits="userSpaceOnUse" x1="-708.2236" y1="1830.8218" x2="-682.8799" y2="1830.8218" gradientTransform="matrix(-0.5449 0.8385 0.8385 0.5449 -1381.6563 749.8728)">
						<stop  offset="0" style="stop-color:#B37CFF"/>
						<stop  offset="1" style="stop-color:#F895E7"/>
					</linearGradient>
					<path fill="url(#SVGID_9_)" d="M538.945,1174.49c0.816-1.256,1.272-2.765,1.221-4.377c-0.124-3.921-0.166-7.909-0.132-11.856
						c0.04-4.2-3.335-7.64-7.536-7.677c-4.202-0.041-7.646,3.333-7.677,7.538c-0.04,4.151,0.006,8.345,0.135,12.471
						c0.132,4.198,3.644,7.498,7.842,7.365C535.389,1177.874,537.633,1176.508,538.945,1174.49z"/>
				</g>
				<g opacity="0.3">
					
						<linearGradient id="SVGID_10_" gradientUnits="userSpaceOnUse" x1="-576.6777" y1="2024.4795" x2="-559.2866" y2="2024.4795" gradientTransform="matrix(-0.5449 0.8385 0.8385 0.5449 -1381.6563 749.8728)">
						<stop  offset="0" style="stop-color:#B37CFF"/>
						<stop  offset="1" style="stop-color:#F895E7"/>
					</linearGradient>
					<path fill="url(#SVGID_10_)" d="M636.176,1385.07c2.001-3.079,1.529-7.239-1.281-9.781c-2.909-2.63-5.813-5.366-8.627-8.13
						c-2.999-2.945-7.816-2.901-10.759,0.097c-2.956,3.011-2.9,7.816,0.097,10.759c2.964,2.91,6.021,5.792,9.084,8.562
						c3.116,2.817,7.928,2.575,10.746-0.541C635.713,1385.729,635.958,1385.406,636.176,1385.07z"/>
					
						<linearGradient id="SVGID_11_" gradientUnits="userSpaceOnUse" x1="-1002.5425" y1="2222.2979" x2="-555.5693" y2="2222.2979" gradientTransform="matrix(-0.5449 0.8385 0.8385 0.5449 -1381.6563 749.8728)">
						<stop  offset="0" style="stop-color:#B37CFF"/>
						<stop  offset="1" style="stop-color:#F895E7"/>
					</linearGradient>
					<path fill="url(#SVGID_11_)" d="M1074.892,1339.502c-2.458,3.407-7.215,4.176-10.623,1.714
						c-3.406-2.459-4.169-7.207-1.713-10.621c4.682-6.486,9.16-13.272,13.365-20.246c2.147-3.588,6.846-4.755,10.444-2.585
						c3.598,2.169,4.755,6.846,2.587,10.444c-1.821,3.021-3.686,6-5.594,8.936
						C1080.637,1331.333,1077.79,1335.491,1074.892,1339.502z M1097.907,1285.309c-3.856-1.663-5.637-6.138-3.973-9.996
						c3.191-7.409,6.106-15.03,8.659-22.657c1.32-3.984,5.645-6.134,9.629-4.8c3.982,1.333,6.131,5.645,4.797,9.628
						c-2.688,8.03-5.754,16.054-9.115,23.849c-0.174,0.404-0.379,0.787-0.611,1.143
						C1105.311,1285.527,1101.362,1286.798,1097.907,1285.309z M1048.382,1371.375c-5.846,6.122-12.034,12.077-18.395,17.699
						c-3.148,2.783-7.956,2.487-10.741-0.662c-2.782-3.147-2.481-7.951,0.663-10.739c6.042-5.338,11.917-10.992,17.467-16.806
						c2.903-3.038,7.718-3.15,10.758-0.248c2.688,2.567,3.083,6.632,1.129,9.64
						C1049.009,1370.65,1048.716,1371.025,1048.382,1371.375z M1118.575,1223.42c-4.129-0.774-6.851-4.751-6.074-8.88
						c1.486-7.916,2.649-15.99,3.462-23.997c0.422-4.184,4.154-7.226,8.336-6.801c4.18,0.423,7.224,4.154,6.801,8.333
						c-0.854,8.433-2.081,16.936-3.645,25.271c-0.19,1.007-0.567,1.931-1.094,2.741
						C1124.732,1222.596,1121.696,1224.006,1118.575,1223.42z M997.135,1414.311c-7.044,4.683-14.388,9.129-21.829,13.216
						c-3.682,2.023-8.305,0.679-10.329-3.002c-2.026-3.684-0.679-8.309,3.003-10.332c7.067-3.884,14.043-8.106,20.732-12.554
						c3.5-2.326,8.222-1.375,10.548,2.125c1.733,2.607,1.646,5.893,0.042,8.36C998.755,1412.969,998.027,1413.719,997.135,1414.311z
						 M937.715,1444.967c-7.917,3.037-16.054,5.774-24.186,8.139c-4.036,1.171-8.256-1.148-9.43-5.183
						c-1.173-4.041,1.146-8.261,5.184-9.428c7.726-2.247,15.459-4.848,22.983-7.733c3.923-1.505,8.323,0.456,9.828,4.379
						c0.906,2.364,0.554,4.902-0.728,6.874C940.521,1443.315,939.272,1444.37,937.715,1444.967z M873.023,1461.946
						c-8.394,1.241-16.936,2.141-25.382,2.677c-4.195,0.265-7.808-2.918-8.074-7.111c-0.266-4.199,2.919-7.808,7.111-8.074
						c8.028-0.507,16.141-1.365,24.12-2.545c4.156-0.614,8.025,2.257,8.638,6.413c0.283,1.91-0.169,3.756-1.145,5.256
						C877.143,1460.33,875.271,1461.613,873.023,1461.946z M806.169,1464.408c-8.462-0.624-16.996-1.617-25.363-2.953
						c-4.149-0.662-6.977-4.562-6.314-8.712c0.661-4.142,4.564-6.974,8.713-6.312c7.944,1.268,16.046,2.21,24.086,2.803
						c4.19,0.309,7.335,3.955,7.026,8.146c-0.098,1.324-0.528,2.542-1.203,3.581
						C811.649,1463.212,809.038,1464.619,806.169,1464.408z M740.374,1452.114c-8.096-2.467-16.195-5.314-24.072-8.462
						c-3.902-1.56-5.802-5.988-4.242-9.889c1.556-3.889,5.985-5.801,9.887-4.241c7.483,2.992,15.175,5.695,22.866,8.04
						c4.018,1.224,6.283,5.476,5.058,9.494c-0.213,0.7-0.518,1.347-0.897,1.932C747.172,1451.758,743.693,1453.125,740.374,1452.114
						z M678.947,1425.7c-5.427-3.074-10.827-6.353-16.048-9.745c-1.891-1.229-3.761-2.475-5.616-3.738
						c-3.471-2.365-4.466-7.1-2.002-10.569c2.363-3.473,7.097-4.371,10.571-2.005c1.762,1.199,3.542,2.387,5.339,3.554
						c4.963,3.226,10.094,6.342,15.255,9.265c3.656,2.069,4.94,6.712,2.87,10.368c-0.078,0.137-0.159,0.272-0.244,0.403
						C686.897,1426.578,682.465,1427.693,678.947,1425.7z"/>
					
						<linearGradient id="SVGID_12_" gradientUnits="userSpaceOnUse" x1="-1047.0957" y1="2316.5098" x2="-1022.0752" y2="2316.5098" gradientTransform="matrix(-0.5449 0.8385 0.8385 0.5449 -1381.6563 749.8728)">
						<stop  offset="0" style="stop-color:#B37CFF"/>
						<stop  offset="1" style="stop-color:#F895E7"/>
					</linearGradient>
					<path fill="url(#SVGID_12_)" d="M1131.212,1154.852c0.824-1.269,1.28-2.792,1.222-4.417c-0.15-4.116-0.389-8.307-0.712-12.456
						c-0.325-4.19-3.985-7.322-8.174-6.996c-4.189,0.327-7.322,3.981-6.995,8.174c0.306,3.941,0.533,7.922,0.676,11.83
						c0.151,4.196,3.678,7.478,7.878,7.325C1127.68,1158.219,1129.909,1156.857,1131.212,1154.852z"/>
				</g>
				<g>
					<linearGradient id="SVGID_13_" gradientUnits="userSpaceOnUse" x1="481.7822" y1="1923.1104" x2="1148.3943" y2="448.4855">
						<stop  offset="0" style="stop-color:#B37CFF"/>
						<stop  offset="1" style="stop-color:#F895E7"/>
					</linearGradient>
					<path fill="url(#SVGID_13_)" d="M1035.787,1065.942c-0.464-1.445-1.791-2.437-3.309-2.469l-43.266-0.951
						c-10.394-17.333-23.626-33.133-39.461-46.618l6.174-42.806c0.216-1.501-0.544-2.975-1.893-3.669l-46.155-23.754
						c-1.349-0.695-2.99-0.457-4.086,0.592l-31.246,29.903c-20.176-5.049-40.725-6.635-60.871-5.02l-25.918-34.656
						c-0.909-1.214-2.488-1.719-3.933-1.256l-49.434,15.84c-1.444,0.462-2.437,1.792-2.47,3.308l-0.95,43.266
						c-17.333,10.393-33.134,23.625-46.618,39.461l-42.806-6.174c-1.502-0.217-2.976,0.542-3.669,1.892l-23.755,46.156
						c-0.693,1.349-0.456,2.989,0.593,4.085l29.903,31.247c-5.049,20.176-6.635,40.725-5.019,60.87l-34.657,25.919
						c-1.215,0.908-1.72,2.487-1.256,3.932l15.839,49.435c0.463,1.444,1.792,2.436,3.308,2.47l43.267,0.95
						c10.393,17.333,23.625,33.133,39.46,46.618l-6.174,42.806c-0.217,1.501,0.542,2.975,1.892,3.669l46.156,23.755
						c1.349,0.694,2.99,0.456,4.085-0.593l31.246-29.902c20.177,5.049,40.725,6.635,60.871,5.019l25.918,34.656
						c0.909,1.215,2.487,1.719,3.933,1.256l49.434-15.84c1.444-0.463,2.436-1.792,2.469-3.308l0.951-43.267
						c17.333-10.394,33.133-23.626,46.619-39.461l42.805,6.174c1.5,0.216,2.974-0.543,3.669-1.892l23.754-46.156
						c0.694-1.349,0.457-2.989-0.593-4.085l-29.902-31.246c5.049-20.177,6.634-40.725,5.019-60.871l34.656-25.919
						c1.215-0.908,1.719-2.488,1.256-3.932L1035.787,1065.942z"/>
					<path opacity="0.56" fill="#FFFFFF" d="M865.795,1194.716c-19.028,21.58-52.063,23.66-73.647,4.631
						c-10.455-9.216-16.695-21.954-17.568-35.864c-0.876-13.908,3.716-27.327,12.938-37.781
						c19.028-21.581,52.063-23.66,73.647-4.631c19.634,17.312,23.125,46.216,9.266,67.543
						C869.057,1190.728,867.51,1192.77,865.795,1194.716z M786.729,1162.72c0.671,10.666,5.454,20.43,13.471,27.499
						c16.546,14.586,41.878,12.995,56.466-3.552c14.598-16.547,12.995-41.878-3.552-56.468
						c-16.545-14.586-41.878-12.995-56.466,3.552c-1.322,1.501-2.518,3.079-3.588,4.726
						C788.411,1145.629,786.185,1154.051,786.729,1162.72z"/>
					<path opacity="0.56" fill="#FFFFFF" d="M933.042,1230.573c2.38-3.663,4.59-7.467,6.617-11.404l0,0
						c0.638-1.238,1.256-2.489,1.854-3.748c2.947-6.209,5.396-12.644,7.308-19.204c0.026-0.089,0.053-0.179,0.079-0.268
						c0.073-0.254,0.146-0.508,0.216-0.764c0.141-0.495,0.276-0.992,0.411-1.487c0.352-1.306-0.201-2.642-1.276-3.343
						c-0.262-0.17-0.555-0.302-0.872-0.387c-1.623-0.438-3.288,0.528-3.728,2.147c-2.248,8.351-5.412,16.515-9.404,24.266
						c-19.812,38.51-57.386,62.036-97.609,65.754c-22.374,2.071-45.567-1.99-66.984-13.014c-3.756-1.932-7.387-4.04-10.879-6.312
						c-23.511-15.282-40.907-37.996-49.577-65.061c-9.962-31.087-7.221-64.194,7.717-93.219
						c30.857-59.942,104.677-83.578,164.593-52.741c3.695,1.901,7.279,3.983,10.739,6.233c14.997,9.749,27.694,22.671,37.135,37.884
						c0.244,0.393,0.563,0.711,0.927,0.946c0.957,0.622,2.229,0.677,3.263,0.034c1.426-0.891,1.872-2.76,0.98-4.191
						c-9.912-15.971-23.241-29.54-38.986-39.774c-3.632-2.362-7.394-4.546-11.271-6.543
						c-62.907-32.377-140.427-7.518-172.792,55.365c-15.684,30.472-18.56,65.226-8.101,97.862
						c9.102,28.413,27.364,52.258,52.046,68.302c3.668,2.384,7.479,4.596,11.42,6.625c30.474,15.683,65.229,18.561,97.864,8.104
						C893.149,1273.533,916.998,1255.263,933.042,1230.573z"/>
				</g>
			</g>
			<g>
				<g opacity="0.3">
					
						<linearGradient id="SVGID_14_" gradientUnits="userSpaceOnUse" x1="-1421.3921" y1="2306.5391" x2="-1409.0229" y2="2306.5391" gradientTransform="matrix(-0.5449 0.8385 0.8385 0.5449 -1381.6563 749.8728)">
						<stop  offset="0" style="stop-color:#B37CFF"/>
						<stop  offset="1" style="stop-color:#F895E7"/>
					</linearGradient>
					<path fill="url(#SVGID_14_)" d="M1331.42,826.954c1.107-1.704,1.016-3.997-0.376-5.619c-2.597-3.028-5.321-6.019-8.097-8.887
						c-1.804-1.864-4.776-1.914-6.644-0.109c-1.875,1.8-1.913,4.779-0.109,6.644c2.646,2.734,5.242,5.584,7.721,8.474
						c1.688,1.969,4.654,2.194,6.626,0.507C1330.889,827.662,1331.182,827.321,1331.42,826.954z"/>
					
						<linearGradient id="SVGID_15_" gradientUnits="userSpaceOnUse" x1="-1426.3994" y1="2167.584" x2="-1183.979" y2="2167.584" gradientTransform="matrix(-0.5449 0.8385 0.8385 0.5449 -1381.6563 749.8728)">
						<stop  offset="0" style="stop-color:#B37CFF"/>
						<stop  offset="1" style="stop-color:#F895E7"/>
					</linearGradient>
					<path fill="url(#SVGID_15_)" d="M1305.186,802.187c-1.63,2.02-4.585,2.34-6.607,0.71c-5.102-4.106-10.474-8-15.965-11.568
						c-1.158-0.752-2.33-1.494-3.511-2.227c-2.203-1.368-2.882-4.265-1.514-6.47c1.376-2.034,4.264-2.882,6.473-1.515
						c1.236,0.768,2.461,1.544,3.673,2.332c5.755,3.741,11.388,7.822,16.738,12.131c1.894,1.523,2.293,4.218,0.996,6.215
						C1305.381,801.928,1305.286,802.058,1305.186,802.187z M1258.096,777.78c-7.207-3.334-14.685-6.254-22.225-8.672
						c-2.472-0.794-3.831-3.436-3.039-5.909c0.792-2.457,3.438-3.833,5.91-3.039c7.902,2.534,15.743,5.593,23.299,9.091
						c2.356,1.091,3.382,3.883,2.293,6.24c-0.095,0.206-0.208,0.404-0.329,0.591C1262.751,778.01,1260.242,778.773,1258.096,777.78z
						 M1212.736,763.252c-7.793-1.466-15.758-2.456-23.682-2.945c-2.588-0.16-4.559-2.391-4.398-4.979
						c0.162-2.598,2.385-4.563,4.979-4.401c8.308,0.512,16.666,1.554,24.836,3.087c2.55,0.48,4.232,2.936,3.752,5.486
						c-0.12,0.621-0.353,1.191-0.678,1.691C1216.538,762.74,1214.664,763.612,1212.736,763.252z M1165.191,760.312
						c-7.926,0.491-15.896,1.48-23.674,2.94c-2.554,0.477-5.008-1.203-5.485-3.753c-0.475-2.544,1.2-5.004,3.75-5.484
						c8.163-1.53,16.515-2.566,24.828-3.082c2.589-0.162,4.821,1.811,4.982,4.401c0.061,1.043-0.219,2.029-0.75,2.846
						C1168.06,759.385,1166.737,760.216,1165.191,760.312z M1118.37,769.069c-7.565,2.403-15.049,5.297-22.252,8.6
						c-2.356,1.082-5.146,0.046-6.229-2.313c-1.083-2.359-0.051-5.15,2.313-6.229c7.547-3.463,15.395-6.495,23.322-9.017
						c2.474-0.784,5.116,0.583,5.901,3.054c0.443,1.397,0.201,2.848-0.539,3.987C1120.314,768.03,1119.447,768.726,1118.37,769.069z
						 M1075.093,788.926c-6.746,4.167-13.293,8.793-19.462,13.757c-2.02,1.626-4.98,1.306-6.605-0.716
						c-1.625-2.022-1.307-4.971,0.715-6.608c6.469-5.204,13.339-10.059,20.415-14.43c2.209-1.361,5.104-0.679,6.466,1.528
						c0.986,1.599,0.901,3.557-0.058,5.033C1076.197,788.053,1075.706,788.549,1075.093,788.926z M1038.003,818.751
						c-5.5,5.677-10.717,11.776-15.503,18.13c-1.564,2.07-4.51,2.484-6.581,0.922c-2.072-1.56-2.457-4.48-0.926-6.583
						c5.022-6.658,10.491-13.053,16.259-19.007c1.807-1.863,4.782-1.911,6.646-0.105c1.639,1.588,1.872,4.084,0.672,5.931
						C1038.408,818.289,1038.219,818.528,1038.003,818.751z M992.549,880.647c-2.391-1.012-3.506-3.767-2.495-6.158
						c2.8-6.616,6.012-13.192,9.533-19.529c0.53-0.966,1.072-1.919,1.62-2.871c1.226-2.273,4.172-3.018,6.422-1.713
						c2.247,1.299,3.013,4.172,1.715,6.421c-0.518,0.89-1.025,1.788-1.531,2.71c-3.372,6.064-6.436,12.337-9.106,18.646
						c-0.109,0.26-0.242,0.505-0.389,0.732C997.099,880.761,994.677,881.549,992.549,880.647z"/>
				</g>
				<g opacity="0.3">
					
						<linearGradient id="SVGID_16_" gradientUnits="userSpaceOnUse" x1="-1318.2114" y1="2399.9785" x2="-1041.5264" y2="2399.9785" gradientTransform="matrix(-0.5449 0.8385 0.8385 0.5449 -1381.6563 749.8728)">
						<stop  offset="0" style="stop-color:#B37CFF"/>
						<stop  offset="1" style="stop-color:#F895E7"/>
					</linearGradient>
					<path fill="url(#SVGID_16_)" d="M1345.605,1066.464c-4.551,6.809-9.56,13.396-14.879,19.587
						c-1.692,1.965-4.659,2.191-6.628,0.498c-1.97-1.693-2.162-4.658-0.498-6.627c5.077-5.901,9.851-12.187,14.192-18.682
						c1.44-2.158,4.361-2.737,6.517-1.295c2.14,1.431,2.729,4.315,1.331,6.466
						C1345.629,1066.427,1345.616,1066.446,1345.605,1066.464z M1351.711,1047.281c-2.313-1.173-3.239-4.001-2.065-6.314
						c3.53-6.963,6.673-14.209,9.341-21.541c0.89-2.421,3.584-3.696,6.026-2.804c2.438,0.887,3.692,3.581,2.807,6.021
						c-2.797,7.682-6.092,15.277-9.793,22.572c-0.078,0.154-0.162,0.3-0.254,0.442
						C1356.484,1047.643,1353.876,1048.379,1351.711,1047.281z M1313.563,1103.696c-6.065,5.509-12.517,10.696-19.178,15.414
						c-2.118,1.5-5.054,0.998-6.551-1.119c-1.503-2.117-1-5.039,1.115-6.551c6.356-4.5,12.509-9.446,18.298-14.7
						c1.922-1.745,4.893-1.601,6.635,0.317c1.467,1.616,1.6,3.972,0.464,5.719
						C1314.131,1103.108,1313.87,1103.417,1313.563,1103.696z M1369.173,1002.557c-2.528-0.582-4.105-3.105-3.524-5.634
						c1.752-7.606,3.053-15.394,3.865-23.152c0.274-2.577,2.586-4.451,5.16-4.185c2.582,0.271,4.457,2.582,4.186,5.164
						c-0.849,8.136-2.213,16.307-4.052,24.283c-0.129,0.551-0.348,1.057-0.639,1.505
						C1373.123,1002.146,1371.149,1003.012,1369.173,1002.557z M1273.485,1132.071c-7.195,3.88-14.704,7.36-22.32,10.346
						c-2.416,0.947-5.144-0.245-6.091-2.661c-0.948-2.417,0.24-5.145,2.661-6.091c7.266-2.844,14.426-6.165,21.287-9.868
						c2.283-1.231,5.134-0.379,6.367,1.908c0.845,1.564,0.708,3.399-0.199,4.794
						C1274.777,1131.135,1274.202,1131.683,1273.485,1132.071z M1227.765,1150.005c-7.931,2.048-16.059,3.632-24.151,4.71
						c-2.571,0.343-4.933-1.462-5.275-4.035c-0.345-2.569,1.461-4.936,4.038-5.279c7.717-1.029,15.47-2.542,23.039-4.496
						c2.512-0.649,5.076,0.863,5.725,3.375c0.342,1.327,0.083,2.67-0.611,3.737
						C1229.911,1148.968,1228.948,1149.7,1227.765,1150.005z M1179.062,1156.478c-8.196,0.092-16.47-0.322-24.586-1.223
						c-2.582-0.288-4.438-2.61-4.151-5.19c0.285-2.578,2.613-4.434,5.187-4.151c7.741,0.863,15.629,1.255,23.443,1.164
						c2.596-0.028,4.724,2.052,4.751,4.647c0.014,0.964-0.268,1.859-0.755,2.609
						C1182.123,1155.607,1180.694,1156.458,1179.062,1156.478z"/>
					
						<linearGradient id="SVGID_17_" gradientUnits="userSpaceOnUse" x1="-1348.6274" y1="2417.2842" x2="-1329.7046" y2="2417.2842" gradientTransform="matrix(-0.5449 0.8385 0.8385 0.5449 -1381.6563 749.8728)">
						<stop  offset="0" style="stop-color:#B37CFF"/>
						<stop  offset="1" style="stop-color:#F895E7"/>
					</linearGradient>
					<path fill="url(#SVGID_17_)" d="M1379.17,952.578c0.494-0.76,0.773-1.67,0.755-2.645c-0.074-4.021-0.269-8.058-0.575-12
						c-0.202-2.586-2.462-4.522-5.05-4.322c-2.582,0.208-4.518,2.463-4.322,5.051c0.293,3.759,0.478,7.61,0.551,11.448
						c0.048,2.595,2.193,4.659,4.786,4.61C1376.935,954.688,1378.349,953.842,1379.17,952.578z"/>
				</g>
				<g>
					<linearGradient id="SVGID_18_" gradientUnits="userSpaceOnUse" x1="693.6626" y1="2018.8887" x2="1360.2756" y2="544.2616">
						<stop  offset="0" style="stop-color:#B37CFF"/>
						<stop  offset="1" style="stop-color:#F895E7"/>
					</linearGradient>
					<path fill="url(#SVGID_18_)" d="M1315.544,889.698c-0.31-0.967-1.199-1.63-2.214-1.653l-28.952-0.636
						c-6.955-11.599-15.809-22.171-26.405-31.194l4.131-28.644c0.145-1.005-0.363-1.99-1.266-2.456l-30.885-15.895
						c-0.902-0.465-2.001-0.306-2.734,0.396l-20.908,20.01c-13.501-3.378-27.251-4.44-40.731-3.359l-17.344-23.19
						c-0.608-0.813-1.665-1.15-2.631-0.841l-33.079,10.599c-0.966,0.31-1.631,1.199-1.652,2.214l-0.636,28.951
						c-11.599,6.955-22.171,15.81-31.195,26.406l-28.643-4.132c-1.005-0.145-1.991,0.363-2.456,1.266l-15.896,30.886
						c-0.464,0.903-0.305,2,0.397,2.733l20.009,20.909c-3.379,13.501-4.44,27.251-3.358,40.731l-23.191,17.344
						c-0.813,0.608-1.151,1.665-0.841,2.631l10.6,33.08c0.31,0.966,1.199,1.629,2.213,1.652l28.953,0.636
						c6.955,11.599,15.809,22.171,26.405,31.194l-4.132,28.644c-0.145,1.004,0.363,1.991,1.266,2.455l30.886,15.896
						c0.903,0.464,2,0.305,2.733-0.397l20.909-20.009c13.5,3.379,27.251,4.439,40.732,3.358l17.343,23.19
						c0.607,0.813,1.664,1.15,2.631,0.841l33.079-10.6c0.967-0.31,1.63-1.199,1.654-2.213l0.635-28.952
						c11.599-6.955,22.171-15.81,31.195-26.405l28.644,4.132c1.004,0.144,1.99-0.364,2.455-1.267l15.896-30.886
						c0.464-0.902,0.305-2-0.397-2.733l-20.009-20.908c3.379-13.501,4.439-27.251,3.358-40.732l23.191-17.344
						c0.813-0.608,1.15-1.665,0.841-2.631L1315.544,889.698z"/>
					<path opacity="0.56" fill="#FFFFFF" d="M1202.265,976.279c-6.278,7.125-14.955,11.375-24.431,11.97
						c-9.473,0.597-18.614-2.532-25.735-8.813c-14.7-12.959-16.108-35.425-3.156-50.168c12.966-14.698,35.469-16.112,50.164-3.153
						c7.122,6.278,11.373,14.954,11.969,24.428c0.484,7.702-1.494,15.184-5.625,21.54
						C1204.502,973.544,1203.437,974.948,1202.265,976.279z M1158.311,972.387c5.24,4.62,11.963,6.922,18.935,6.484
						c6.967-0.438,13.351-3.566,17.969-8.804l0,0c4.611-5.245,6.919-11.962,6.481-18.935c-0.436-6.967-3.567-13.35-8.802-17.967
						c-10.813-9.534-27.365-8.494-36.902,2.317c-0.859,0.977-1.633,1.998-2.321,3.059
						C1146.726,949.229,1148.476,963.715,1158.311,972.387z"/>
					<path opacity="0.56" fill="#FFFFFF" d="M1249.07,1001.233c1.621-2.493,3.126-5.088,4.517-7.785
						c2.759-5.357,4.976-11,6.592-16.788c0.07-0.26,0.141-0.521,0.212-0.781c0.544-2.017-0.31-4.079-1.971-5.161
						c-0.404-0.262-0.857-0.467-1.346-0.598c-2.505-0.675-5.074,0.818-5.756,3.316c-1.457,5.417-3.507,10.702-6.086,15.708
						l-0.001,0.002c-0.14,0.275-0.286,0.55-0.429,0.821c-6.213,11.792-15.129,21.588-25.936,28.786
						c-5.866,3.907-12.295,7.046-19.159,9.314c-0.055,0.019-0.111,0.037-0.167,0.056c-0.173,0.055-0.341,0.112-0.512,0.165
						c-20.126,6.447-41.558,4.674-60.348-4.998c-2.433-1.25-4.781-2.614-7.043-4.084c-15.22-9.893-26.48-24.599-32.097-42.121
						c-6.447-20.126-4.67-41.556,5-60.344c9.671-18.773,26.081-32.689,46.204-39.142c20.125-6.447,41.558-4.674,60.348,4.997
						c2.392,1.229,4.711,2.578,6.951,4.033c9.71,6.313,17.929,14.677,24.04,24.525c0.377,0.607,0.868,1.098,1.431,1.461
						c1.477,0.96,3.441,1.046,5.038,0.053c2.202-1.374,2.885-4.263,1.514-6.473c-6.838-11.019-16.034-20.379-26.893-27.441
						c-2.509-1.63-5.103-3.138-7.776-4.515c-21.026-10.82-45.003-12.805-67.521-5.589c-22.513,7.216-40.88,22.747-51.69,43.788
						c-10.821,21.022-12.808,44.998-5.589,67.516c6.278,19.603,18.878,36.054,35.907,47.122c2.528,1.643,5.158,3.171,7.876,4.571
						C1175.079,1052.591,1224.644,1038.821,1249.07,1001.233z"/>
				</g>
			</g>
		</g>
		<g>
			<linearGradient id="SVGID_19_" gradientUnits="userSpaceOnUse" x1="1745.8818" y1="2245.5781" x2="4400.8223" y2="-2197.5234">
				<stop  offset="0" style="stop-color:#FDF53F"/>
				<stop  offset="1" style="stop-color:#D93C65"/>
			</linearGradient>
			<polygon fill="url(#SVGID_19_)" points="2283.073,1320.214 2146.429,1459.992 2310.338,1416.208 			"/>
			<linearGradient id="SVGID_20_" gradientUnits="userSpaceOnUse" x1="2011.1719" y1="2366.0518" x2="4617.1172" y2="-1995.0562">
				<stop  offset="0" style="stop-color:#FDF53F"/>
				<stop  offset="1" style="stop-color:#D93C65"/>
			</linearGradient>
			<path fill="url(#SVGID_20_)" d="M3096.143,1378.071l-776.434,37.682c-19.939,0.968-36.636-14.938-36.636-34.902v-319.426
				c0-34.719,27.575-63.161,62.277-64.234l699.767-21.654c52.111,0,94.354,42.244,94.354,94.355v262.696
				C3139.472,1356.879,3120.405,1376.894,3096.143,1378.071z"/>
			<path opacity="0.85" fill="#FFFFFF" d="M2342.93,1402.925c-12.373,0-24.035-4.664-33.061-13.27
				c-9.591-9.147-14.872-21.485-14.872-34.739v-287.897c0-33.929,27.204-61.327,61.932-62.375l677.528-20.46
				c51.354,0,93.091,40.749,93.091,90.835v248.209c0,23.884-19.132,43.499-43.556,44.656l-738.718,34.985
				C2344.492,1402.905,2343.709,1402.925,2342.93,1402.925z M3034.509,987.55l-677.479,20.46
				c-32.897,0.993-58.667,26.913-58.667,59.009v287.897c0,12.325,4.912,23.796,13.83,32.303
				c8.918,8.506,20.618,12.857,32.924,12.287l738.717-34.986l0.08,1.682l-0.08-1.682c22.625-1.072,40.348-19.208,40.348-41.292
				v-248.209C3124.182,1026.788,3083.954,987.55,3034.509,987.55z"/>
			<path opacity="0.94" fill="#FFFFFF" d="M3032.246,1045.788l-620.849,23.236c-6.097,0.228-10.896,4.269-10.694,9.003l0.234,5.458
				c0.199,4.685,5.227,8.285,11.26,8.064l620.872-22.672c6.101-0.223,10.909-4.266,10.706-9.003l-0.257-6.021
				C3043.317,1049.164,3038.283,1045.562,3032.246,1045.788z"/>
			<path opacity="0.94" fill="#FFFFFF" d="M2976.688,1202.965l-620.854,23.118c-6.098,0.227-10.891,4.405-10.682,9.309l0.243,5.653
				c0.206,4.852,5.239,8.588,11.272,8.37l620.877-22.533c6.104-0.221,10.904-4.401,10.694-9.309l-0.267-6.237
				C2987.765,1206.479,2982.725,1202.741,2976.688,1202.965z"/>
			<path opacity="0.94" fill="#FFFFFF" d="M3049.22,1268.716l-692.116,26.131c-6.797,0.257-12.158,4.498-11.946,9.45l0.243,5.708
				c0.21,4.9,5.803,8.651,12.527,8.403l692.142-25.542c6.804-0.251,12.173-4.494,11.961-9.45l-0.269-6.298
				C3061.552,1272.215,3055.95,1268.462,3049.22,1268.716z"/>
			<path opacity="0.94" fill="#FFFFFF" d="M2691.852,1138.456l-338.389,9.864c-3.323,0.097-5.808,4.658-5.535,10.162l0.313,6.344
				c0.27,5.446,3.138,9.766,6.426,9.677l338.422-9.208c3.326-0.09,5.814-4.653,5.543-10.162l-0.346-7
				C2698.016,1142.681,2695.143,1138.359,2691.852,1138.456z"/>
			<path opacity="0.94" fill="#FFFFFF" d="M3064.711,1126.759l-319.845,9.169c-3.141,0.09-5.476,4.645-5.202,10.149l0.316,6.345
				c0.271,5.446,2.995,9.771,6.104,9.688l319.877-8.513c3.144-0.084,5.482-4.641,5.207-10.149l-0.348-7
				C3070.549,1130.997,3067.82,1126.67,3064.711,1126.759z"/>
		</g>
		<g>
			
				<linearGradient id="SVGID_21_" gradientUnits="userSpaceOnUse" x1="7783.8369" y1="3089.8193" x2="7165.8594" y2="3762.0061" gradientTransform="matrix(1 0 0 1 -6484.3516 0)">
				<stop  offset="0" style="stop-color:#2B3582"/>
				<stop  offset="1" style="stop-color:#150E42"/>
			</linearGradient>
			<path fill="url(#SVGID_21_)" d="M1104.142,3139.894c0,0-6.4,36.23-9.538,72.096c-1.227,14.016,9.58,26.187,23.639,26.772
				c47.76,1.988,149.924,5.856,186.584,4.221c5.512-0.246,9.115-5.888,7.076-11.014l0,0c-1.71-4.295-5.006-7.768-9.207-9.697
				l-168.755-77.561L1104.142,3139.894z"/>
			
				<linearGradient id="SVGID_22_" gradientUnits="userSpaceOnUse" x1="7583.25" y1="3139.7432" x2="7638.1406" y2="3139.7432" gradientTransform="matrix(1 0 0 1 -6484.3516 0)">
				<stop  offset="0" style="stop-color:#F9B776"/>
				<stop  offset="1" style="stop-color:#F47960"/>
			</linearGradient>
			<path fill="url(#SVGID_22_)" d="M1098.898,3118.605l5.143,43.336c0,0,29.561,13.762,49.749-1.734l-12.241-48.295
				L1098.898,3118.605z"/>
			
				<linearGradient id="SVGID_23_" gradientUnits="userSpaceOnUse" x1="7832.4961" y1="2329.6484" x2="7306.6567" y2="3042.3557" gradientTransform="matrix(1 0 0 1 -6484.3516 0)">
				<stop  offset="0" style="stop-color:#2B3582"/>
				<stop  offset="1" style="stop-color:#150E42"/>
			</linearGradient>
			<path fill="url(#SVGID_23_)" d="M1102.763,2303.854c-2.221,11.317-11.922,564.757,47.237,812.771
				c0.965,4.047-1.086,8.218-4.938,9.792c-9.073,3.707-26.862,9.075-48.18,9.792c-6.602,0.222-12.521-4.069-14.383-10.406
				c-16.91-57.544-97.941-345.852-108.512-621.264c-11.812-307.746,0-10.479,0-10.479l6.928-190.23L1102.763,2303.854z"/>
			
				<linearGradient id="SVGID_24_" gradientUnits="userSpaceOnUse" x1="7645.2021" y1="2962.3672" x2="7027.2271" y2="3634.5513" gradientTransform="matrix(1 0 0 1 -6484.3516 0)">
				<stop  offset="0" style="stop-color:#2B3582"/>
				<stop  offset="1" style="stop-color:#150E42"/>
			</linearGradient>
			<path fill="url(#SVGID_24_)" d="M910.017,3158.794c0,0-10.187,18.291-20.05,66.894c-1.781,8.778,4.352,17.18,13.266,18.055
				c15.77,1.551,40.049,3.545,59.497,3.411c8.965-0.062,15.962-7.868,14.881-16.768c-2.154-17.74-8.865-46.847-29.597-69.532
				L910.017,3158.794z"/>
			
				<linearGradient id="SVGID_25_" gradientUnits="userSpaceOnUse" x1="7385.4199" y1="3136.9287" x2="7432.8145" y2="3136.9287" gradientTransform="matrix(1 0 0 1 -6484.3516 0)">
				<stop  offset="0" style="stop-color:#F9B776"/>
				<stop  offset="1" style="stop-color:#F47960"/>
			</linearGradient>
			<path fill="url(#SVGID_25_)" d="M901.069,3103.053l12.016,65.537c0,0,11.879,8.837,35.378,2.431l-5.734-70.514L901.069,3103.053z
				"/>
			
				<linearGradient id="SVGID_26_" gradientUnits="userSpaceOnUse" x1="7738.7783" y1="2260.5039" x2="7212.9395" y2="2973.2104" gradientTransform="matrix(1 0 0 1 -6484.3516 0)">
				<stop  offset="0" style="stop-color:#2B3582"/>
				<stop  offset="1" style="stop-color:#150E42"/>
			</linearGradient>
			<path fill="url(#SVGID_26_)" d="M868.612,2320.837c-48.384,291.999,10.495,721.7,30.353,805.803
				c1.216,5.149,5.372,9.095,10.591,9.96c8.863,1.469,23.456,2.668,37.843-1.511c4.958-1.439,8.439-5.91,8.642-11.069
				c2.664-67.994-2.131-485.415,42.952-650.382c2.284-8.36,7.39-15.651,14.454-20.673l87.502-62.207l6.708-100.551L868.612,2320.837
				z"/>
			<g>
				<linearGradient id="SVGID_27_" gradientUnits="userSpaceOnUse" x1="1068.4951" y1="1943.3828" x2="1906.8109" y2="499.0549">
					<stop  offset="0" style="stop-color:#FDF53F"/>
					<stop  offset="1" style="stop-color:#D93C65"/>
				</linearGradient>
				<path fill="url(#SVGID_27_)" d="M1176.914,1767.555c-144.997-2.396-304.984,38.071-304.984,38.071
					c-43.221,252.19-7.558,543.075-7.558,543.075c112.252,29.438,238.88-17.998,238.88-17.998
					c18.658-105.41,105.707-402.067,105.707-402.067c70.845-8.792,129.206-29.232,177.267-56.256
					c-36.659-42.494-53.942-96.565-61.448-128.528C1273.512,1759.784,1221.637,1768.294,1176.914,1767.555z"/>
				
					<linearGradient id="SVGID_28_" gradientUnits="userSpaceOnUse" x1="-3071.0352" y1="1380.9536" x2="-2974.1858" y2="1657.667" gradientTransform="matrix(-1 0 0 1 -1509.0684 0)">
					<stop  offset="0" style="stop-color:#F9B776"/>
					<stop  offset="1" style="stop-color:#F47960"/>
				</linearGradient>
				<path fill="url(#SVGID_28_)" d="M1605.209,1553.982c-14.243-17.204-32.271-9.065-32.271-9.065
					c-21.338,90.132-133.219,163.213-248.16,198.935c7.506,31.963,24.789,86.035,61.448,128.528
					C1576.983,1765.125,1605.209,1553.982,1605.209,1553.982z"/>
			</g>
			<g>
				
					<linearGradient id="SVGID_29_" gradientUnits="userSpaceOnUse" x1="-3153.8127" y1="1409.9268" x2="-3056.9641" y2="1686.6377" gradientTransform="matrix(-1 0 0 1 -1509.0684 0)">
					<stop  offset="0" style="stop-color:#F9B776"/>
					<stop  offset="1" style="stop-color:#F47960"/>
				</linearGradient>
				<path fill="url(#SVGID_29_)" d="M1601.752,1558.356c1.491,4.739-15.768,11.953-25.93-7.425
					c-0.356-9.287-6.003-49.076-0.454-56.642c29.557-40.295,86.861-90.809,86.861-90.809c9.685,9.556,1.706,18.943,1.706,18.943
					l-27.799,28.959c5.815,10.508,12.907,19.377,16.231,32.087c2.518,9.625,0.978,19.91-3.884,28.67
					c-4.879,8.791-11.537,20.218-17.831,29.162C1618.739,1558.23,1601.752,1558.356,1601.752,1558.356z"/>
				
					<linearGradient id="SVGID_30_" gradientUnits="userSpaceOnUse" x1="-3079.4116" y1="1586.7163" x2="-3152.3638" y2="1439.554" gradientTransform="matrix(-1 0 0 1 -1509.0684 0)">
					<stop  offset="0" style="stop-color:#F9B776"/>
					<stop  offset="1" style="stop-color:#F47960"/>
				</linearGradient>
				<path fill="url(#SVGID_30_)" d="M1623.977,1470.174l-25.333,21.476l-7.954,21.381l22.587,25.057c0,0,7.594-42.424,13.239-51.606
					C1632.16,1477.299,1629.233,1472.859,1623.977,1470.174z"/>
			</g>
			<linearGradient id="SVGID_31_" gradientUnits="userSpaceOnUse" x1="894.123" y1="1842.1733" x2="1732.4373" y2="397.8483">
				<stop  offset="0" style="stop-color:#FDF53F"/>
				<stop  offset="1" style="stop-color:#D93C65"/>
			</linearGradient>
			<path fill="url(#SVGID_31_)" d="M927.545,1946.026l-55.615-140.4c0,0-135.435,92.022-157.708,208.696
				c25.59,1.885,72.157,8.542,117.736,31.557C841.975,1990.786,927.545,1946.026,927.545,1946.026z"/>
			
				<linearGradient id="SVGID_32_" gradientUnits="userSpaceOnUse" x1="7195.4854" y1="2104.9102" x2="7550.375" y2="2104.9102" gradientTransform="matrix(1 0 0 1 -6484.3516 0)">
				<stop  offset="0" style="stop-color:#F9B776"/>
				<stop  offset="1" style="stop-color:#F47960"/>
			</linearGradient>
			<path fill="url(#SVGID_32_)" d="M1045.9,2078.138c0,0-152.059,85.937-203.367,12.558c-10.653-15.238-13.199-30.38-10.575-44.816
				c-45.58-23.015-92.146-29.672-117.736-31.557c-6.716,35.174-3.165,72.584,17.503,110.393
				c89.873,164.402,334.298-9.086,334.298-9.086L1045.9,2078.138z"/>
			<g>
				<linearGradient id="SVGID_33_" gradientUnits="userSpaceOnUse" x1="1336.2925" y1="1679.9609" x2="1153.4757" y2="2178.5522">
					<stop  offset="0" style="stop-color:#2B3582"/>
					<stop  offset="1" style="stop-color:#150E42"/>
				</linearGradient>
				<path fill="url(#SVGID_33_)" d="M1027.63,2186.856l82.989-289.814c0.941-3.29,3.748-5.689,7.147-6.086
					c15.036-1.753,58.604-6.679,108.909-10.934c60.594-5.125,130.96-9.278,173.009-5.745c5.978,0.502,9.591,6.825,6.933,12.203
					c-23.912,48.376-122.269,245.158-171.523,309.622c-1.633,2.136-4.155,3.384-6.843,3.359l-192.547-1.792
					C1030.101,2197.618,1026.087,2192.242,1027.63,2186.856z"/>
				
					<linearGradient id="SVGID_34_" gradientUnits="userSpaceOnUse" x1="4982.9688" y1="9119.9121" x2="4805.6909" y2="9585.2656" gradientTransform="matrix(1 0 0 1 -6484.3516 0)">
					<stop  offset="0" style="stop-color:#53D8FF"/>
					<stop  offset="1" style="stop-color:#3840F7"/>
				</linearGradient>
				<path fill="url(#SVGID_34_)" d="M1235.284,1854.896l60.168-10.025c3.205-0.533,5.829,2.528,4.811,5.613l-5.956,18.049
					c-0.519,1.571-1.889,2.707-3.529,2.926l-57.9,7.735c-2.995,0.399-5.465-2.322-4.776-5.265l3.687-15.758
					C1232.185,1856.475,1233.564,1855.184,1235.284,1854.896z"/>
				
					<linearGradient id="SVGID_35_" gradientUnits="userSpaceOnUse" x1="4987.7637" y1="9121.6953" x2="4810.4868" y2="9587.0459" gradientTransform="matrix(1 0 0 1 -6484.3516 0)">
					<stop  offset="0" style="stop-color:#53D8FF"/>
					<stop  offset="1" style="stop-color:#3840F7"/>
				</linearGradient>
				<path fill="url(#SVGID_35_)" d="M1190.231,1905.834l4.957-25.818c0.497-2.59,2.635-4.546,5.258-4.813l121.525-12.332
					c4.091-0.415,7.366,3.333,6.406,7.331l-7.728,32.173c-0.618,2.574-2.858,4.434-5.503,4.565l-118.755,5.979
					C1192.527,1913.114,1189.502,1909.635,1190.231,1905.834z"/>
				
					<linearGradient id="SVGID_36_" gradientUnits="userSpaceOnUse" x1="7524.0254" y1="2067.7012" x2="7634.5879" y2="2067.7012" gradientTransform="matrix(1 0 0 1 -6484.3516 0)">
					<stop  offset="0" style="stop-color:#F9B776"/>
					<stop  offset="1" style="stop-color:#F47960"/>
				</linearGradient>
				<path fill="url(#SVGID_36_)" d="M1047.68,2116.838c0,0-11.56-47.536-6.897-64.4c4.664-16.865,13.699-38.549,43.814-33.73
					c30.116,4.818,65.641,17.505,65.641,17.505s-1.795,21.968-24.683,14.88l14.193,10.982c0,0-2.028,17.588-21.362,8.191
					l13.201,14.565c0,0-8.303,14.445-22.526,5.181C1094.837,2080.745,1088.018,2122.562,1047.68,2116.838z"/>
			</g>
			
				<linearGradient id="SVGID_37_" gradientUnits="userSpaceOnUse" x1="7467.9912" y1="1725.5132" x2="7608.3027" y2="1725.5132" gradientTransform="matrix(1 0 0 1 -6484.3516 0)">
				<stop  offset="0" style="stop-color:#F9B776"/>
				<stop  offset="1" style="stop-color:#F47960"/>
			</linearGradient>
			<path fill="url(#SVGID_37_)" d="M1030.044,1649.84l-46.135,133.422c-0.764,2.21,0.144,4.657,2.191,5.79
				c12.576,6.953,57.885,27.051,112.487-7.567c5.688-3.606,9.561-9.488,10.424-16.168l14.94-115.476H1030.044z"/>
			<g>
				
					<linearGradient id="SVGID_38_" gradientUnits="userSpaceOnUse" x1="252.0479" y1="3494.9863" x2="199.6152" y2="3322.051" gradientTransform="matrix(0.746 -0.6659 0.6659 0.746 -1358.0156 -803.1724)">
					<stop  offset="0" style="stop-color:#F9B776"/>
					<stop  offset="1" style="stop-color:#F47960"/>
				</linearGradient>
				<path fill="url(#SVGID_38_)" d="M1130.43,1526.288c0,0,50.662,95.366,44.168,133.889c-6.494,38.522-69.282,35.756-124.11,4.469
					l-38.313-102.973L1130.43,1526.288z"/>
				
					<linearGradient id="SVGID_39_" gradientUnits="userSpaceOnUse" x1="204.7422" y1="3193.6699" x2="248.6022" y2="3443.8345" gradientTransform="matrix(0.746 -0.6659 0.6659 0.746 -1358.0156 -803.1724)">
					<stop  offset="0" style="stop-color:#2B3582"/>
					<stop  offset="1" style="stop-color:#150E42"/>
				</linearGradient>
				<path fill="url(#SVGID_39_)" d="M1052.912,1614.076c2.228-0.987,3.05-3.714,1.715-5.753
					c-4.059-6.201-11.668-18.851-14.095-29.926c0,0-9.107-5.833,23.181-13.561c32.288-7.729,80.437-19.725,90.558-47.207
					c9.867-26.795-16.059-94.181-57.421-40.489c-1.573,2.042-4.656,2.087-6.228,0.043c-6.781-8.826-24.608-27.143-49.358-16.039
					c-23.161,10.393-25.77,27.364-25.451,35.919c0.093,2.516-2.157,4.473-4.63,4.001c-11.71-2.233-39.811-4.151-52.927,24.675
					c-10.804,23.745-3.782,37.186,2.613,43.76c2.073,2.13,1.165,5.637-1.677,6.506c-7.695,2.356-17.633,8.882-16.639,26.913
					c1.376,24.927,29.245,22.73,37.18,21.595c1.301-0.186,2.61,0.26,3.491,1.233c6.804,7.53,37.457,39.499,70.634,43.352
					c2.872,0.333,5.099-2.503,4.158-5.238l-14.358-41.737c-0.667-1.938,0.261-4.064,2.134-4.895L1052.912,1614.076z"/>
				
					<linearGradient id="SVGID_40_" gradientUnits="userSpaceOnUse" x1="198.4482" y1="3494.1797" x2="151.2744" y2="3338.5894" gradientTransform="matrix(0.746 -0.6659 0.6659 0.746 -1358.0156 -803.1724)">
					<stop  offset="0" style="stop-color:#F9B776"/>
					<stop  offset="1" style="stop-color:#F47960"/>
				</linearGradient>
				<path fill="url(#SVGID_40_)" d="M1058.683,1620c0,0-36.071-24.749-38.707-3.907c-2.635,20.841,32.482,30.188,49.876,22.418
					L1058.683,1620z"/>
			</g>
		</g>
	</g>
</g>
</svg>
