<svg xmlns="http://www.w3.org/2000/svg" width="199.821" height="64" viewBox="0 0 199.821 64">
  <g id="google-play-store-light" transform="translate(-1.546 -1)">
    <path id="Path_23" data-name="Path 23" d="M203.383,61.146a6.812,6.812,0,0,1-1.686,4.539,5.462,5.462,0,0,1-4.068,1.877H9.324c-3.178,0-5.757-2.868-5.762-6.415V9.985c0-3.548,2.582-6.423,5.762-6.424h188.3c3.178,0,5.755,2.876,5.754,6.424l0,51.161Z" transform="translate(-2.016 -2.561)" fill="transparent"/>
    <g id="Group_10" data-name="Group 10" transform="translate(0 2.852)">
      <g id="Group_108" data-name="Group 108">
        <path id="Path_14" data-name="Path 14" d="M1699.536,281a4.565,4.565,0,0,1-3.408-1.41,4.8,4.8,0,0,1-1.377-3.441,4.7,4.7,0,0,1,1.377-3.438,4.551,4.551,0,0,1,3.4-1.41,4.612,4.612,0,0,1,3.408,1.41,4.98,4.98,0,0,1,0,6.875A4.526,4.526,0,0,1,1699.536,281Zm-40.4,0a4.734,4.734,0,0,1-3.423-1.392,4.848,4.848,0,0,1,3.423-8.3,4.769,4.769,0,0,1,1.911.4,3.866,3.866,0,0,1,1.455,1.04l.09.108-1.014.995-.1-.123a2.881,2.881,0,0,0-2.353-1.014,3.252,3.252,0,0,0-2.345.958,3.636,3.636,0,0,0,0,4.983,3.429,3.429,0,0,0,4.754,0,2.592,2.592,0,0,0,.688-1.56h-3.251v-1.4h4.646l.019.127a5.129,5.129,0,0,1,.067.7,4.212,4.212,0,0,1-1.16,3.1A4.526,4.526,0,0,1,1659.133,281Zm53.719-.2h-1.433l-4.388-7.021.037,1.264V280.8h-1.433v-9.3h1.635l.045.071,4.126,6.613-.037-1.261V271.5h1.448Zm-24.083,0h-1.451v-7.9H1684.8v-1.4h6.482v1.4h-2.517v7.9Zm-5.151,0h-1.448v-9.3h1.448Zm-8.136,0h-1.448v-7.9h-2.518v-1.4H1678v1.4h-2.517Zm-4.882-.015h-5.551V271.5h5.551v1.4h-4.1v2.551h3.7v1.384h-3.7v2.551h4.1Zm26.588-2.158a3.2,3.2,0,0,0,2.345.973,3.122,3.122,0,0,0,2.345-.973,3.685,3.685,0,0,0,0-4.953,3.209,3.209,0,0,0-2.345-.973,3.108,3.108,0,0,0-2.342.973,3.692,3.692,0,0,0-.008,4.953Z" transform="translate(-1592.419 -261.152)" fill="#3C404D"/>
        <path id="Path_15" data-name="Path 15" d="M1687.3,690.085a6.382,6.382,0,1,0,6.4,6.382A6.282,6.282,0,0,0,1687.3,690.085Zm0,10.234a3.878,3.878,0,1,1,3.6-3.868A3.693,3.693,0,0,1,1687.3,700.319Zm-13.964-10.234a6.382,6.382,0,1,0,6.4,6.382A6.282,6.282,0,0,0,1673.337,690.085Zm0,10.234a3.878,3.878,0,1,1,3.6-3.868A3.693,3.693,0,0,1,1673.337,700.319Zm-16.616-8.286v2.7h6.482a5.693,5.693,0,0,1-1.466,3.4,6.615,6.615,0,0,1-5,1.983,7.2,7.2,0,0,1,0-14.4,6.92,6.92,0,0,1,4.882,1.934l1.915-1.915a9.419,9.419,0,0,0-6.782-2.734,9.9,9.9,0,1,0,0,19.8,9.064,9.064,0,0,0,6.917-2.783,8.961,8.961,0,0,0,2.349-6.333,8.344,8.344,0,0,0-.15-1.683h-9.149S1656.721,692.034,1656.721,692.034Zm67.964,2.1a5.93,5.93,0,0,0-5.465-4.066,6.063,6.063,0,0,0-6.015,6.382,6.237,6.237,0,0,0,6.333,6.381,6.334,6.334,0,0,0,5.315-2.832l-2.166-1.451a3.629,3.629,0,0,1-3.135,1.766,3.26,3.26,0,0,1-3.1-1.934l8.533-3.535S1724.685,694.136,1724.685,694.136Zm-8.7,2.132a3.5,3.5,0,0,1,3.333-3.718,2.46,2.46,0,0,1,2.368,1.35Zm-6.931,6.183h2.8V683.7h-2.8Zm-4.6-10.949h-.1a4.42,4.42,0,0,0-3.366-1.433,6.381,6.381,0,0,0,0,12.752,4.408,4.408,0,0,0,3.366-1.451h.1v.917c0,2.435-1.3,3.748-3.4,3.748a3.537,3.537,0,0,1-3.217-2.267l-2.435,1.017a6.091,6.091,0,0,0,5.648,3.767c3.284,0,6.067-1.934,6.067-6.651v-11.45h-2.648V691.5Zm-3.217,8.817a3.88,3.88,0,0,1,0-7.732,3.587,3.587,0,0,1,3.4,3.883A3.543,3.543,0,0,1,1701.235,700.319ZM1737.8,683.7h-6.7v18.748h2.8v-7.1h3.9a5.833,5.833,0,1,0,0-11.648Zm.082,9.03H1733.9V686.3h3.984a3.218,3.218,0,1,1,0,6.434Zm17.3-2.682a5.276,5.276,0,0,0-5,2.865l2.484,1.032a2.664,2.664,0,0,1,2.551-1.384,2.706,2.706,0,0,1,2.951,2.416v.2a6.275,6.275,0,0,0-2.917-.718c-2.682,0-5.4,1.466-5.4,4.216,0,2.517,2.2,4.133,4.65,4.133a3.944,3.944,0,0,0,3.565-1.833h.1v1.451h2.7v-7.182C1760.868,691.9,1758.385,690.051,1755.186,690.051Zm-.352,10.268c-.917,0-2.2-.449-2.2-1.6,0-1.451,1.6-2,2.966-2a4.863,4.863,0,0,1,2.551.632A3.373,3.373,0,0,1,1754.835,700.319Zm15.886-9.868-3.217,8.132h-.1l-3.333-8.132h-3.015l5,11.368-2.85,6.318h2.918l7.694-17.686Zm-25.219,12h2.8V683.7h-2.8Z" transform="translate(-1585.103 -657.451)" fill="#3C404D" fill-rule="evenodd"/>
      </g>
      <g id="Group_9" data-name="Group 9">
        <path id="Path_16" data-name="Path 16" d="M400.785,299.5a3.038,3.038,0,0,0-.685,2.117v33.168a2.892,2.892,0,0,0,.7,2.1l.116.1L419.5,318.4v-.415L400.9,299.4Z" transform="translate(-385.134 -288.201)" fill="#00d9ff" fill-rule="evenodd"/>
        <path id="Path_17" data-name="Path 17" d="M924.5,643.331l-6.2-6.2V636.7l6.2-6.2.135.082,7.332,4.167c2.1,1.182,2.1,3.135,0,4.332l-7.332,4.167Z" transform="translate(-883.95 -606.915)" fill="#ffc801" fill-rule="evenodd"/>
        <path id="Path_18" data-name="Path 18" d="M443.432,808.333,437.1,802l-18.7,18.7c.685.733,1.833.815,3.116.1l21.916-12.468" transform="translate(-402.749 -772)" fill="#f93647" fill-rule="evenodd"/>
        <path id="Path_19" data-name="Path 19" d="M443.432,299.431l-21.917-12.449c-1.283-.733-2.435-.632-3.116.1l18.7,18.681Z" transform="translate(-402.749 -275.764)" fill="#00ef77" fill-rule="evenodd"/>
      </g>
    </g>
    <path id="Path_20" data-name="Path 20" d="M443.683,967.7l-21.767,12.367a2.47,2.47,0,0,1-3,.015l-.116.116.116.1a2.475,2.475,0,0,0,3-.015l21.916-12.449Z" transform="translate(-403.134 -931.502)" fill="#3C404D" fill-rule="evenodd" opacity="0.2"/>
    <path id="Path_21" data-name="Path 21" d="M1090.985,803.949,1083.5,808.2l.135.135,7.332-4.167a2.628,2.628,0,0,0,1.567-2.166A2.7,2.7,0,0,1,1090.985,803.949Z" transform="translate(-1042.97 -772)" fill="#3C404D" fill-rule="evenodd" opacity="0.12"/>
    <path id="Path_22" data-name="Path 22" d="M403.9,287.031l29.248,16.616a2.756,2.756,0,0,1,1.567,1.949,2.627,2.627,0,0,0-1.567-2.166L403.9,286.814c-2.1-1.2-3.8-.2-3.8,2.2v.217C400.1,286.829,401.8,285.846,403.9,287.031Z" transform="translate(-385.134 -275.596)" fill="#3C404D" fill-rule="evenodd" opacity="0.25"/>
  </g>
</svg>
