<?xml version="1.0" encoding="utf-8"?>
<!-- Generator: Adobe Illustrator 16.0.0, SVG Export Plug-In . SVG Version: 6.00 Build 0)  -->
<!DOCTYPE svg PUBLIC "-//W3C//DTD SVG 1.1//EN" "http://www.w3.org/Graphics/SVG/1.1/DTD/svg11.dtd">
<svg version="1.1" id="Layer_1" xmlns="http://www.w3.org/2000/svg" xmlns:xlink="http://www.w3.org/1999/xlink" x="0px" y="0px"
	 width="327.021px" height="608.425px" viewBox="0 0 327.021 608.425" enable-background="new 0 0 327.021 608.425"
	 xml:space="preserve">
<g>
	<g>
		<path fill="#F9F9F9" d="M280.716,608.425H46.305C20.731,608.425,0,588.171,0,563.186V45.24C0,20.254,20.731,0,46.305,0h234.411
			c25.573,0,46.306,20.254,46.306,45.24v517.949C327.021,588.171,306.291,608.425,280.716,608.425z"/>
		<path fill="#FFFFFF" d="M272.177,18.278h-26.208v1.313c0,10.164-8.435,18.403-18.839,18.403H95.044
			c-10.403,0-18.838-8.239-18.838-18.403v-1.313H54.844c-21.08,0-38.167,16.694-38.167,37.289v497.294
			c0,20.591,17.087,37.29,38.167,37.29h217.333c21.078,0,38.168-16.699,38.168-37.29V55.567
			C310.345,34.972,293.255,18.278,272.177,18.278z"/>
	</g>
	<path fill="#FFFFFF" d="M278.376,322.546H122.544c-1.75,0-3.168-1.389-3.168-3.098l0,0c0-1.709,1.418-3.092,3.168-3.092h155.832
		c1.749,0,3.169,1.383,3.169,3.092l0,0C281.545,321.158,280.125,322.546,278.376,322.546z"/>
	
		<text transform="matrix(1.0209 0 0 1 138.5825 79.2725)" opacity="0.49" fill="#0E0E63" enable-background="new    " font-family="'ArialMT'" font-size="7.6651">Lorem Ipsum</text>
	<g>
		<g>
			<g>
				<path fill="#0E0E63" d="M50.055,87.497c-0.116,0-0.229-0.041-0.321-0.124l-7.702-6.82c-0.103-0.09-0.159-0.216-0.159-0.35
					c0.002-0.133,0.06-0.261,0.163-0.349l7.886-6.821c0.198-0.172,0.5-0.153,0.678,0.04c0.174,0.196,0.156,0.491-0.042,0.664
					l-7.487,6.473l7.306,6.469c0.197,0.174,0.211,0.471,0.034,0.663C50.316,87.443,50.186,87.497,50.055,87.497z"/>
			</g>
		</g>
		<g>
			<g>
				<path fill="#0E0E63" d="M282.929,76.039H268.67c-0.266,0-0.478-0.208-0.478-0.467s0.212-0.467,0.478-0.467h14.259
					c0.264,0,0.48,0.208,0.48,0.467S283.192,76.039,282.929,76.039z"/>
			</g>
			<g>
				<path fill="#0E0E63" d="M282.929,80.208H268.67c-0.266,0-0.478-0.208-0.478-0.469c0-0.257,0.212-0.467,0.478-0.467h14.259
					c0.264,0,0.48,0.209,0.48,0.467C283.409,80,283.192,80.208,282.929,80.208z"/>
			</g>
			<g>
				<path fill="#0E0E63" d="M282.929,84.376H268.67c-0.266,0-0.478-0.21-0.478-0.467c0-0.261,0.212-0.469,0.478-0.469h14.259
					c0.264,0,0.48,0.208,0.48,0.469C283.409,84.166,283.192,84.376,282.929,84.376z"/>
			</g>
		</g>
		<g>
			<g opacity="0.46">
				<g>
					<g>
						<ellipse fill="#0E0E63" cx="257.312" cy="42.731" rx="0.79" ry="0.771"/>
						<path fill="#0E0E63" d="M259.196,40.875c-0.014-0.01-0.027-0.021-0.036-0.033l-0.037-0.033
							c-0.007-0.006-0.016-0.01-0.021-0.018c-1.021-0.905-2.58-0.867-3.554,0.083l-0.117,0.112l-0.157,0.155
							c-0.192,0.188-0.192,0.494,0,0.683c0.195,0.191,0.507,0.192,0.699,0l0.276-0.265c0.619-0.606,1.626-0.606,2.24,0l0.197,0.187
							c0.196,0.186,0.504,0.186,0.696-0.002c0.093-0.088,0.142-0.21,0.142-0.337c0-0.13-0.049-0.249-0.14-0.339L259.196,40.875z"/>
						<path fill="#0E0E63" d="M260.538,39.923l-0.164-0.159c0-0.002,0-0.002-0.002-0.002l-0.128-0.126
							c-0.022-0.023-0.047-0.041-0.073-0.057c-1.66-1.427-4.19-1.383-5.801,0.13c-0.004,0.008-0.013,0.012-0.021,0.019l-0.297,0.287
							c-0.177,0.173-0.175,0.449,0.002,0.624c0.175,0.171,0.46,0.173,0.635,0l0.295-0.286c0.002-0.004,0.004-0.006,0.006-0.008
							c1.303-1.227,3.368-1.234,4.678-0.023l0.232,0.225c0.177,0.173,0.462,0.171,0.635-0.001
							C260.713,40.373,260.713,40.096,260.538,39.923z"/>
					</g>
				</g>
			</g>
			
				<text transform="matrix(1.0235 0 0 1 33.8213 44.0908)" opacity="0.48" fill="#0E0E63" enable-background="new    " font-family="'ArialMT'" font-size="7.0491">10:30 AM</text>
			<g opacity="0.48">
				<text transform="matrix(1.0235 0 0 1 264.5527 43.4541)" fill="#0E0E63" font-family="'ArialMT'" font-size="6.6705">85%</text>
				<path fill="#0E0E63" d="M284.035,44.094c-0.343,0-0.622-0.249-0.622-0.555l-0.006-4.355c0-0.306,0.278-0.555,0.617-0.558
					l10.347-0.017c0.339,0.001,0.615,0.249,0.622,0.555l-0.003,0.901l0.799-0.006l0.007,2.569l-0.799,0.004l0.002,0.889
					c0,0.304-0.278,0.554-0.619,0.554L284.035,44.094z M294.563,39.003l-10.723,0.016l0.004,4.685l10.726-0.02L294.563,39.003z
					 M284.256,39.456l7.803-0.014l0.006,3.809l-7.802,0.008L284.256,39.456z"/>
			</g>
		</g>
	</g>
	<g>
		<g opacity="0.54">
			
				<linearGradient id="SVGID_1_" gradientUnits="userSpaceOnUse" x1="-310.3779" y1="466.1343" x2="-302.1909" y2="466.1343" gradientTransform="matrix(1.7741 0 0 -1.7741 699.6481 1186.1143)">
				<stop  offset="0" style="stop-color:#FD8F7E"/>
				<stop  offset="0.1512" style="stop-color:#FD847E"/>
				<stop  offset="0.7019" style="stop-color:#FD6280"/>
				<stop  offset="1" style="stop-color:#FD5580"/>
			</linearGradient>
			<path fill="url(#SVGID_1_)" d="M153.076,352.544c4.737-2.059,10.944,2.342,10.414,7.379c-0.53,5.04-7.525,8.11-11.733,5.157
				c-4.211-2.956-3.457-10.417,1.261-12.508"/>
		</g>
		<path fill="#F7928C" d="M192.932,232.21c0,0,9.922-9.218,10.115-7.847c0.19,1.376-1.784,2.378-2.82,5.241
			c0,0,13.181-6.148,13.081-4.791c-0.104,1.36-8.501,5.715-8.463,5.923c0.04,0.203,9.538-4.075,9.816-2.997
			c0.279,1.077-8.561,5.021-8.561,5.021s8.506-3.036,8.868-1.906c0.362,1.134-7.472,3.95-7.472,3.95s6.587-2.297,6.905-1.266
			c0.192,0.628-14.692,10.924-34.147,8.912C161.107,240.468,192.932,232.21,192.932,232.21"/>
		<path fill="#4147C2" d="M169.579,263.917l6.656-0.132c17.764,7.778,41.199,26.885,38.939,43.135
			c-3.438,24.669-45.994,57.837-45.994,57.837l-7.692-24.114c0,0,29.064-24.679,27.918-34.205
			c-1.146-9.528-34.134-18.371-34.134-18.371l-5.783-23.391L169.579,263.917z"/>
		<polygon fill="#4147C2" points="179.559,420.913 155.31,420.913 121.383,263.64 151.266,262.756 		"/>
		
			<linearGradient id="SVGID_2_" gradientUnits="userSpaceOnUse" x1="-308.8887" y1="562.5571" x2="-311.9725" y2="514.7585" gradientTransform="matrix(1.7741 0 0 -1.7741 699.6481 1186.1143)">
			<stop  offset="0.05" style="stop-color:#00C1CE"/>
			<stop  offset="1" style="stop-color:#82EBA1"/>
		</linearGradient>
		<path fill="url(#SVGID_2_)" d="M149.611,178.061c0,0-28.142,0.565-28.525,27.32c-0.386,26.754-1.545,61.796-1.545,61.796
			l56.697-3.392v-60.053c0-13.796-11.149-25.348-25.265-25.66C150.525,178.061,150.071,178.057,149.611,178.061z"/>
		<g>
			<polygon fill="#241352" points="149.792,234.498 149.864,232.521 179.939,230.151 189.518,203.57 222.601,204.725 
				211.89,233.474 			"/>
			<ellipse fill="#FFFFFF" cx="202.18" cy="217.546" rx="2.45" ry="2.395"/>
			<ellipse opacity="0.6" fill="#FFFFFF" enable-background="new    " cx="202.18" cy="217.548" rx="3.433" ry="3.354"/>
		</g>
		<g>
			<path fill="#FFAEA6" d="M126.278,191.077c-0.685,1.207-11.392,36.771-1.397,56.505c9.994,19.741,58.984-9.749,58.984-9.749
				l-5.325-9.297c0,0-36.719,13.692-40.012,8.554c-3.291-5.136,4.666-33.487,4.666-33.487L126.278,191.077z"/>
			
				<linearGradient id="SVGID_3_" gradientUnits="userSpaceOnUse" x1="-319.957" y1="563.1948" x2="-323.041" y2="515.3936" gradientTransform="matrix(1.7741 0 0 -1.7741 699.6481 1186.1143)">
				<stop  offset="0.05" style="stop-color:#00C1CE"/>
				<stop  offset="1" style="stop-color:#82EBA1"/>
			</linearGradient>
			<path fill="url(#SVGID_3_)" d="M122.082,194.631c-2.314,8.675-5.146,22.02-4.821,34.511l23.678-1.877
				c0,0,5.042-34.604,0.49-39.07c-1.137-1.115-1.298-4.105-3.202-4.374C130.867,182.775,123.958,187.599,122.082,194.631z"/>
		</g>
		<g>
			<path fill="#FFAEA6" d="M138.743,143.15l1.164,14.965c0,0-5.759,0.757-4.119,5.892c1.64,5.131,5.581,2.887,5.581,2.887
				s0.984,13.156,14.778,8.985c13.79-4.171,9.194-25.027,7.881-37.539L138.743,143.15z"/>
			<path fill="#FFAEA6" d="M139.907,163.608l3.716,19.36c0.837,4.364,5.239,7.154,9.66,6.124l0,0
				c4.094-0.956,6.718-4.863,5.982-8.912l-2.017-11.098L139.907,163.608z"/>
			<g>
				<path fill="#241352" d="M155.229,163.828c0.03-0.027,0.132,0.168,0.456,0.25c0.303,0.077,0.872-0.016,1.213-0.468
					c0.347-0.471,0.357-1.214,0.261-2.018c-0.089-0.908-0.171-1.77-0.26-2.67c-0.17-1.895-0.303-3.613-0.381-4.859
					c-0.076-1.246-0.096-2.017-0.042-2.021c0.054-0.005,0.172,0.76,0.321,2c0.146,1.238,0.326,2.951,0.496,4.851
					c0.076,0.901,0.148,1.762,0.227,2.67c0.074,0.81,0.054,1.66-0.4,2.214c-0.472,0.541-1.131,0.579-1.48,0.447
					C155.268,164.069,155.215,163.823,155.229,163.828z"/>
			</g>
			<g>
				<path fill="#241352" d="M160.217,174.1c0.014,0.02-0.126,0.157-0.406,0.373c-0.279,0.216-0.711,0.504-1.278,0.802
					c-1.125,0.601-2.854,1.188-4.833,1.231c-1.98,0.041-3.734-0.479-4.885-1.031c-0.579-0.276-1.021-0.542-1.31-0.75
					c-0.289-0.205-0.437-0.337-0.422-0.359c0.03-0.134,2.713,1.843,6.606,1.754C157.584,176.051,160.181,173.967,160.217,174.1z"/>
			</g>
			<g>
				<path fill="#241352" d="M156.943,166.542c0.036,0.021-0.177,0.416-0.78,0.787c-0.583,0.37-1.617,0.667-2.686,0.337
					c-1.065-0.341-1.728-1.17-1.981-1.802c-0.267-0.648-0.207-1.089-0.163-1.084c0.064-0.009,0.106,0.406,0.414,0.967
					c0.293,0.554,0.922,1.259,1.852,1.552c0.93,0.289,1.859,0.075,2.429-0.207C156.614,166.813,156.895,166.499,156.943,166.542z"/>
			</g>
			<g>
				<path fill="#241352" d="M152.009,164.525c0.004,0.111-0.544,0.199-1.055,0.596c-0.52,0.38-0.747,0.879-0.857,0.847
					c-0.107-0.009-0.016-0.681,0.619-1.152C151.343,164.337,152.028,164.42,152.009,164.525z"/>
			</g>
			<g>
				<path fill="#241352" d="M139.474,164.651c0.004,0.039-0.335,0.138-0.877-0.048c-0.259-0.096-0.579-0.322-0.711-0.7
					c-0.156-0.341-0.056-0.968,0.471-1.151c0.325-0.127,0.765-0.047,0.958,0.274l-0.333,0.168c-0.46-1.074-0.741-1.875-0.661-1.91
					c0.083-0.036,0.502,0.704,1.007,1.761l-0.334,0.168c-0.074-0.122-0.295-0.179-0.496-0.102c-0.275,0.087-0.352,0.413-0.267,0.678
					c0.078,0.271,0.283,0.454,0.487,0.567C139.139,164.573,139.482,164.586,139.474,164.651z"/>
			</g>
			<g>
				<path fill="#241352" d="M161.946,154.186c0.135,0.584,0.029,1.106-0.236,1.165c-0.265,0.059-0.589-0.368-0.724-0.953
					s-0.029-1.106,0.235-1.165C161.487,153.175,161.812,153.601,161.946,154.186z"/>
			</g>
			<g>
				<path fill="#241352" d="M150.99,155.23c0.167,0.585,0.09,1.119-0.172,1.19s-0.609-0.346-0.776-0.932
					c-0.167-0.586-0.09-1.118,0.171-1.189C150.475,154.228,150.823,154.645,150.99,155.23z"/>
			</g>
			<path fill="#241352" d="M138.649,158.446c-1.782-3.921-2.314-7.795-2.758-12.062c-0.181-1.744-0.241-3.533,0.259-5.213
				c0.498-1.68,1.637-3.254,3.292-3.929c2.366-0.963,5.185,0.066,7.589-0.799c1.229-0.445,2.226-1.347,3.118-2.286
				c0.893-0.94,1.72-1.955,2.771-2.725c1.049-0.771,2.384-1.279,3.672-1.036c1.288,0.244,2.429,1.421,2.288,2.692
				c1.209-2.139,3.71-3.519,6.209-3.42c2.501,0.096,4.884,1.663,5.915,3.888c1.034,2.228,0.666,5.008-0.906,6.909
				c-1.473,1.776-4.194,1.87-6.022,3.293c-3.859,3.002-9.914,3.621-16,2.261c-2.638-0.59-5.81,0.414-6.337,3.004
				c-0.197,0.958-0.022,4.756,0.034,5.731c0.052,0.975-0.002,2.01-0.541,2.833C140.69,158.411,139.528,158.914,138.649,158.446"/>
			<g>
				<path fill="#241352" d="M150.095,151.603c-0.271,0.76-0.745,1.295-1.103,1.411c-0.37,0.071-1.052-0.168-1.669-0.7
					c-0.281-0.281-0.406-0.681-0.253-1.105c0.145-0.42,0.581-0.833,1.173-0.985c0.593-0.151,1.179,0,1.515,0.295
					C150.105,150.814,150.198,151.223,150.095,151.603z"/>
			</g>
			<g>
				<path fill="#241352" d="M162.018,149.755c-0.344,0.73-0.977,1.172-1.477,1.234c-0.502,0.025-1.208-0.3-1.673-0.961
					c-0.474-0.643,0.097-1.792,1.417-1.912C161.604,148.01,162.373,149.043,162.018,149.755z"/>
			</g>
		</g>
		<g>
			<path fill="#241352" d="M139.129,227.349c-0.014,0-0.008-0.177,0.014-0.51c0.034-0.445,0.068-0.925,0.111-1.456
				c0.112-1.476,0.245-3.267,0.401-5.358c0.307-4.528,0.619-10.786,0.629-17.704c-0.044-3.451,0.132-6.785-0.603-9.674
				c-0.372-1.431-0.97-2.741-1.828-3.746c-0.83-1.029-1.904-1.721-2.931-2.199c-2.093-0.948-4.053-0.907-5.301-0.685
				c-1.267,0.233-1.906,0.587-1.924,0.54c0,0,0.612-0.402,1.894-0.691c1.262-0.268,3.27-0.361,5.446,0.587
				c1.064,0.477,2.188,1.178,3.067,2.243c0.902,1.042,1.537,2.396,1.927,3.864c0.773,2.968,0.599,6.31,0.645,9.763
				c-0.014,6.927-0.368,13.197-0.747,17.722c-0.189,2.261-0.38,4.09-0.526,5.352c-0.068,0.532-0.129,1.014-0.185,1.452
				C139.173,227.176,139.143,227.349,139.129,227.349z"/>
		</g>
		<g>
			<path fill="#241352" d="M141.212,227.76c0.004,0.024-0.317,0.088-0.904,0.181c-0.81,0.107-1.633,0.221-2.481,0.338
				c-2.102,0.26-5.008,0.566-8.23,0.819c-3.222,0.25-6.143,0.399-8.256,0.468c-0.86,0.02-1.689,0.035-2.507,0.052
				c-0.593,0-0.92-0.011-0.92-0.039c-0.002-0.028,0.324-0.065,0.914-0.112c0.815-0.056,1.642-0.115,2.499-0.177
				c2.551-0.179,5.261-0.369,8.24-0.578c2.975-0.257,5.681-0.487,8.23-0.708c0.856-0.072,1.682-0.146,2.495-0.214
				C140.881,227.744,141.208,227.729,141.212,227.76z"/>
		</g>
		<path fill="#FFAEA6" d="M175.444,229.432c0,0,9.921-9.219,10.115-7.842c0.19,1.376-1.785,2.376-2.822,5.239
			c0,0,13.183-6.148,13.082-4.79s-8.5,5.715-8.463,5.919c0.041,0.206,9.538-4.069,9.818-2.994c0.278,1.078-8.562,5.023-8.562,5.023
			s8.504-3.036,8.869-1.905c0.362,1.13-7.473,3.949-7.473,3.949s6.588-2.297,6.905-1.266c0.195,0.626-19.023,9.87-18.845,10.315
			C178.159,241.311,175.444,229.432,175.444,229.432"/>
		<g>
			<path fill="#36267A" d="M169.115,417.302c0,0-3.35-7.979-7.686-21.252c-2.191-6.631-4.52-14.607-6.888-23.522
				c-2.314-8.928-4.63-18.799-6.771-29.218c-4.23-20.86-7.156-39.899-9.205-53.681c-0.982-6.825-1.784-12.382-2.354-16.33
				c-0.255-1.862-0.46-3.342-0.61-4.446c-0.135-1.018-0.187-1.554-0.187-1.554s0.104,0.532,0.265,1.543
				c0.171,1.1,0.398,2.578,0.685,4.434c0.599,3.945,1.442,9.496,2.477,16.317c2.12,13.77,5.084,32.791,9.314,53.642
				c2.14,10.414,4.444,20.281,6.738,29.204c2.346,8.913,4.646,16.892,6.802,23.527c1.014,3.338,2.085,6.312,2.971,8.937
				c0.874,2.629,1.695,4.87,2.386,6.7c0.649,1.767,1.166,3.174,1.548,4.219C168.948,416.791,169.115,417.302,169.115,417.302z"/>
		</g>
		<g>
			<ellipse fill="#36267A" cx="166.72" cy="416.602" rx="12.34" ry="0.192"/>
		</g>
		<g>
			<path fill="#36267A" d="M169.773,366.202c-0.029,0.005-0.142-0.378-0.324-1.08c-0.189-0.704-0.424-1.73-0.696-2.997
				c-0.54-2.543-1.13-6.084-1.7-9.999c-0.568-3.917-1.115-7.454-1.583-10.004c-0.205-1.078-0.392-2.076-0.571-3.019
				c-0.137-0.708-0.201-1.105-0.175-1.11c0.029-0.006,0.142,0.381,0.323,1.083c0.19,0.699,0.424,1.724,0.696,2.996
				c0.54,2.541,1.13,6.085,1.701,9.997c0.571,3.918,1.115,7.452,1.585,10.002c0.205,1.08,0.39,2.078,0.568,3.016
				C169.735,365.8,169.798,366.193,169.773,366.202z"/>
		</g>
		<g>
			<path fill="#36267A" d="M159.03,281.547c0,0,0.369,0.033,1.064,0.124c0.804,0.116,1.812,0.261,3.049,0.438
				c2.638,0.419,6.477,0.989,11.09,2.258c4.577,1.271,10.064,3.325,14.915,7.404c2.384,2.04,4.646,4.526,6.211,7.566
				c1.593,3.012,2.407,6.547,2.276,10.138c-0.129,3.595-1.003,7.05-2.302,10.174c-1.269,3.144-2.904,6.003-4.693,8.559
				c-3.638,5.095-7.751,9.024-11.354,12.091c-3.62,3.063-6.738,5.313-8.899,6.849c-2.166,1.528-3.408,2.321-3.408,2.321
				s0.285-0.236,0.851-0.645c0.651-0.475,1.464-1.069,2.467-1.797c2.133-1.573,5.221-3.855,8.806-6.936
				c3.572-3.077,7.647-7.014,11.241-12.083c1.768-2.545,3.384-5.38,4.633-8.497c1.281-3.092,2.139-6.508,2.266-10.043
				c0.13-3.539-0.664-6.993-2.224-9.96c-1.532-2.986-3.755-5.442-6.104-7.47c-4.779-4.044-10.203-6.112-14.753-7.413
				c-4.585-1.294-8.414-1.907-11.04-2.367c-1.229-0.206-2.234-0.374-3.035-0.51C159.392,281.627,159.03,281.547,159.03,281.547z"/>
		</g>
		<g>
			<path fill="#36267A" d="M157.316,263.785c0.028,0,0.072,0.352,0.129,0.992c0.066,0.866,0.134,1.763,0.209,2.716
				c0.163,2.699,0.341,5.68,0.539,8.96c0.084,1.727,0.166,3.371,0.243,4.941c0.024,0.765-0.034,1.541-0.378,2.182
				c-0.315,0.65-0.854,1.096-1.357,1.411c-1.049,0.599-2.013,0.775-2.656,0.9c-0.651,0.115-1.014,0.141-1.019,0.115
				c-0.006-0.028,0.352-0.104,0.986-0.262c0.625-0.164,1.565-0.387,2.537-0.985c0.466-0.313,0.947-0.73,1.214-1.317
				c0.295-0.575,0.342-1.288,0.309-2.031c-0.088-1.569-0.179-3.208-0.277-4.935c-0.152-3.284-0.293-6.266-0.419-8.964
				c-0.03-0.955-0.057-1.852-0.084-2.722C157.284,264.139,157.292,263.785,157.316,263.785z"/>
		</g>
		<g opacity="0.31">
			<path fill="#FFFFFF" d="M153.545,196.304c0.932-0.823,1.746-1.428,1.819-1.35c0.073,0.079-0.623,0.812-1.555,1.635
				c-0.932,0.825-1.747,1.428-1.82,1.35C151.917,197.86,152.613,197.129,153.545,196.304z"/>
		</g>
		<g opacity="0.31">
			<path fill="#FFFFFF" d="M150.319,208.221c0.4,0.823,0.645,1.527,0.547,1.572c-0.098,0.046-0.502-0.584-0.902-1.406
				c-0.4-0.823-0.645-1.526-0.546-1.573C149.516,206.77,149.919,207.4,150.319,208.221z"/>
		</g>
		<g opacity="0.31">
			<path fill="#FFFFFF" d="M160.208,207.125c0.629-0.73,1.208-1.267,1.29-1.2c0.082,0.069-0.361,0.715-0.992,1.445
				c-0.629,0.73-1.207,1.267-1.289,1.199C159.135,208.502,159.579,207.855,160.208,207.125z"/>
		</g>
		<g opacity="0.31">
			
				<ellipse transform="matrix(0.0304 -0.9995 0.9995 0.0304 -48.1198 354.1413)" fill="#FFFFFF" cx="158.486" cy="201.875" rx="0.192" ry="2.652"/>
		</g>
		<g opacity="0.31">
			<path fill="#FFFFFF" d="M165.344,194.117c-0.532,1.084-1.043,1.925-1.141,1.879c-0.098-0.045,0.254-0.961,0.786-2.046
				c0.532-1.083,1.043-1.924,1.142-1.877C166.229,192.119,165.877,193.035,165.344,194.117z"/>
		</g>
		<g opacity="0.31">
			<path fill="#FFFFFF" d="M143.942,195.852c-0.014,0.102-1.053-0.179-1.757-1.199c-0.354-0.497-0.513-1.037-0.552-1.424
				l-0.049-0.469l0.285,0.352c0.235,0.288,0.364,0.488,0.324,0.523c-0.04,0.04-0.235-0.092-0.524-0.337l0.237-0.119
				c0.106,0.345,0.289,0.808,0.606,1.258C143.13,195.346,143.992,195.75,143.942,195.852z"/>
		</g>
		<g opacity="0.31">
			<path fill="#FFFFFF" d="M135.75,183.757c0.004-0.114,0.856-0.153,1.814-0.503c0.966-0.337,1.646-0.84,1.722-0.756
				c0.074,0.067-0.539,0.749-1.587,1.115C136.654,183.99,135.736,183.854,135.75,183.757z"/>
		</g>
		<g opacity="0.31">
			<path fill="#FFFFFF" d="M145.392,190.035c-0.056,0.084-0.928-0.411-1.748-1.304c-0.825-0.89-1.235-1.789-1.143-1.836
				c0.098-0.056,0.643,0.724,1.436,1.58C144.723,189.333,145.458,189.945,145.392,190.035z"/>
		</g>
		<g opacity="0.31">
			<path fill="#FFFFFF" d="M160.248,187.322c0.845-1.083,1.6-1.908,1.686-1.843c0.086,0.063-0.528,0.994-1.373,2.076
				c-0.845,1.083-1.599,1.908-1.686,1.844C158.789,189.335,159.404,188.404,160.248,187.322z"/>
		</g>
		<g opacity="0.31">
			<path fill="#FFFFFF" d="M145.19,202.227c-0.578,1.039-1.123,1.841-1.218,1.79c-0.095-0.05,0.297-0.934,0.875-1.972
				c0.578-1.04,1.123-1.841,1.217-1.79C146.16,200.305,145.768,201.188,145.19,202.227z"/>
		</g>
		<g opacity="0.31">
			<path fill="#FFFFFF" d="M133.492,201.668c-0.032,0.097-0.898-0.184-1.611-0.993c-0.717-0.8-0.88-1.678-0.78-1.697
				c0.111-0.036,0.42,0.717,1.077,1.445C132.826,201.163,133.542,201.569,133.492,201.668z"/>
		</g>
		<g opacity="0.31">
			<path fill="#FFFFFF" d="M132.522,194.91c-1.154,0.953-2.147,1.658-2.217,1.577c-0.07-0.081,0.809-0.918,1.963-1.871
				c1.155-0.953,2.147-1.66,2.217-1.577C134.556,193.119,133.676,193.957,132.522,194.91z"/>
		</g>
		<g opacity="0.31">
			<path fill="#FFFFFF" d="M128.016,192.598c0.749,0.445,1.309,0.877,1.253,0.968c-0.057,0.091-0.709-0.194-1.458-0.638
				c-0.748-0.444-1.309-0.876-1.253-0.967C126.615,191.87,127.267,192.155,128.016,192.598z"/>
		</g>
		<g opacity="0.31">
			
				<ellipse transform="matrix(0.9949 0.1005 -0.1005 0.9949 21.5161 -11.5981)" fill="#FFFFFF" cx="125.885" cy="207.779" rx="0.197" ry="2.055"/>
		</g>
		<g opacity="0.31">
			<path fill="#FFFFFF" d="M124.467,199.127c-0.311,0.91-0.646,1.621-0.75,1.586c-0.103-0.032,0.065-0.797,0.376-1.708
				c0.311-0.911,0.646-1.621,0.749-1.587C124.947,197.453,124.778,198.218,124.467,199.127z"/>
		</g>
		<g opacity="0.31">
			<path fill="#FFFFFF" d="M133.683,209.658c0.843,0.996,1.458,1.86,1.375,1.927c-0.084,0.067-0.835-0.685-1.679-1.683
				c-0.842-0.996-1.458-1.859-1.375-1.927C132.089,207.908,132.84,208.661,133.683,209.658z"/>
		</g>
		<g opacity="0.31">
			<path fill="#FFFFFF" d="M138.645,207.774c-0.111-0.031,0.171-1.238,0.343-2.744c0.181-1.507,0.185-2.744,0.299-2.75
				c0.103-0.01,0.275,1.248,0.09,2.792C139.201,206.618,138.741,207.806,138.645,207.774z"/>
		</g>
		<g opacity="0.31">
			<path fill="#FFFFFF" d="M125.729,219.474c1.241,0.827,2.198,1.568,2.136,1.657c-0.062,0.086-1.117-0.512-2.358-1.338
				c-1.241-0.826-2.198-1.567-2.136-1.656C123.432,218.049,124.488,218.648,125.729,219.474z"/>
		</g>
		<g opacity="0.31">
			
				<ellipse transform="matrix(0.9994 -0.0335 0.0335 0.9994 -7.1399 4.5018)" fill="#FFFFFF" cx="130.854" cy="215.451" rx="0.197" ry="2.356"/>
		</g>
		<g opacity="0.31">
			<path fill="#FFFFFF" d="M134.429,222.649c2.002-1.293,3.673-2.27,3.732-2.181c0.059,0.087-1.515,1.206-3.518,2.499
				c-2.002,1.293-3.673,2.27-3.732,2.181C130.852,225.06,132.426,223.942,134.429,222.649z"/>
		</g>
		<g opacity="0.31">
			
				<ellipse transform="matrix(0.0857 -0.9963 0.9963 0.0857 -109.1775 329.7213)" fill="#FFFFFF" cx="125.06" cy="224.346" rx="0.191" ry="2.661"/>
		</g>
		<g opacity="0.31">
			
				<ellipse transform="matrix(0.9996 -0.0273 0.0273 0.9996 -5.9642 4.0558)" fill="#FFFFFF" cx="145.635" cy="220.575" rx="0.197" ry="2.749"/>
		</g>
		<g opacity="0.31">
			<path fill="#FFFFFF" d="M158.247,218.759c-0.008,0.097-1.125,0.036-2.369-0.506c-1.246-0.53-2.049-1.288-1.979-1.361
				c0.07-0.092,0.948,0.503,2.138,1.013C157.226,218.419,158.267,218.648,158.247,218.759z"/>
		</g>
		<g opacity="0.31">
			<path fill="#FFFFFF" d="M151.537,223.979c-0.708,1.259-1.36,2.236-1.457,2.185c-0.096-0.051,0.399-1.113,1.108-2.373
				c0.708-1.257,1.36-2.236,1.457-2.184C152.741,221.658,152.244,222.719,151.537,223.979z"/>
		</g>
		<g opacity="0.31">
			<path fill="#FFFFFF" d="M166.62,215.436c-0.043,0.093-1.111-0.349-2.103-1.33c-0.999-0.969-1.449-2.016-1.357-2.059
				c0.101-0.053,0.683,0.861,1.633,1.786C165.74,214.769,166.678,215.336,166.62,215.436z"/>
		</g>
		<g opacity="0.31">
			<path fill="#FFFFFF" d="M171.792,204.453c-0.824,1.44-1.569,2.565-1.664,2.513c-0.095-0.052,0.497-1.261,1.32-2.701
				c0.825-1.439,1.57-2.564,1.665-2.513S172.615,203.014,171.792,204.453z"/>
		</g>
		<g opacity="0.31">
			<path fill="#FFFFFF" d="M168.112,199.268c0.302,0.956,0.463,1.756,0.359,1.788s-0.434-0.718-0.737-1.673
				c-0.301-0.957-0.462-1.756-0.358-1.789C167.48,197.563,167.81,198.313,168.112,199.268z"/>
		</g>
		<g opacity="0.31">
			<path fill="#FFFFFF" d="M173.051,221.109c-0.095,0.037-0.596-1.218-0.747-2.858c-0.158-1.638,0.097-2.96,0.197-2.945
				c0.115,0.013,0.041,1.316,0.198,2.909C172.843,219.811,173.164,221.079,173.051,221.109z"/>
		</g>
		<g opacity="0.31">
			<path fill="#FFFFFF" d="M166.607,225.97c-0.024,0.096-1.375-0.207-2.804-1.093c-1.433-0.877-2.292-1.943-2.214-2.004
				c0.084-0.08,1.042,0.836,2.423,1.679C165.391,225.407,166.646,225.862,166.607,225.97z"/>
		</g>
		<g opacity="0.31">
			<path fill="#FFFFFF" d="M157.432,228.439c-0.705,1.13-1.352,2.001-1.444,1.945c-0.093-0.054,0.403-1.016,1.107-2.145
				c0.705-1.131,1.351-2.002,1.444-1.946C158.632,226.347,158.136,227.308,157.432,228.439z"/>
		</g>
		<g opacity="0.31">
			
				<ellipse transform="matrix(0.9994 0.0335 -0.0335 0.9994 7.9127 -4.7089)" fill="#FFFFFF" cx="144.564" cy="233.919" rx="0.197" ry="1.963"/>
		</g>
		<g opacity="0.31">
			<path fill="#FFFFFF" d="M126.914,256.912c-0.068,0.076-0.979-0.624-1.836-1.732c-0.864-1.106-1.308-2.148-1.216-2.193
				c0.101-0.05,0.691,0.888,1.529,1.962C126.223,256.021,126.992,256.83,126.914,256.912z"/>
		</g>
		<g opacity="0.31">
			<path fill="#FFFFFF" d="M125.161,263.173c1.082-0.936,2.017-1.629,2.09-1.549c0.073,0.082-0.745,0.905-1.826,1.841
				s-2.017,1.629-2.09,1.549C123.262,264.934,124.08,264.109,125.161,263.173z"/>
		</g>
		<g opacity="0.31">
			<path fill="#FFFFFF" d="M122.478,258.407c0.748,0.744,1.292,1.407,1.215,1.48c-0.078,0.076-0.748-0.466-1.496-1.209
				c-0.749-0.744-1.292-1.407-1.215-1.482C121.06,257.122,121.729,257.664,122.478,258.407z"/>
		</g>
		<g opacity="0.31">
			<path fill="#FFFFFF" d="M123.22,247.962c-0.113,0.018-0.358-0.952-0.755-2.11c-0.392-1.158-0.794-2.078-0.693-2.128
				c0.092-0.048,0.661,0.812,1.065,2.009C123.248,246.926,123.322,247.947,123.22,247.962z"/>
		</g>
		<g opacity="0.31">
			<path fill="#FFFFFF" d="M139.155,261.717c0.036,0.093-1.529,0.696-3.576,0.873c-2.049,0.192-3.7-0.115-3.682-0.209
				c0.012-0.115,1.645,0.02,3.644-0.173C137.54,262.032,139.123,261.604,139.155,261.717z"/>
		</g>
		<g opacity="0.31">
			<path fill="#FFFFFF" d="M138.299,258.543c-0.032,0.102-1.316-0.216-2.786-0.901c-1.473-0.683-2.539-1.448-2.481-1.536
				c0.061-0.091,1.203,0.523,2.649,1.188C137.126,257.964,138.335,258.439,138.299,258.543z"/>
		</g>
		<g opacity="0.31">
			<path fill="#FFFFFF" d="M146.221,256.223c1.359-1.139,2.519-1.997,2.589-1.917s-0.974,1.069-2.333,2.208
				c-1.359,1.139-2.519,1.997-2.589,1.917C143.817,258.349,144.862,257.361,146.221,256.223z"/>
		</g>
		<g opacity="0.31">
			
				<ellipse transform="matrix(0.3063 -0.9519 0.9519 0.3063 -146.0498 322.5279)" fill="#FFFFFF" cx="148.28" cy="261.477" rx="0.193" ry="3.195"/>
		</g>
		<g opacity="0.31">
			<path fill="#FFFFFF" d="M151.66,258.323c-0.107-0.041,0.194-0.882,0.277-1.951c0.092-1.069-0.068-1.942,0.042-1.97
				c0.097-0.035,0.448,0.855,0.35,2C152.238,257.547,151.748,258.37,151.66,258.323z"/>
		</g>
		<g opacity="0.31">
			
				<ellipse transform="matrix(0.9742 -0.2256 0.2256 0.9742 -53.8186 42.5147)" fill="#FFFFFF" cx="159.127" cy="256.757" rx="0.197" ry="2.423"/>
		</g>
		<g opacity="0.31">
			<path fill="#FFFFFF" d="M162.265,262.404c0,0.098-1.607,0.124-3.51-0.365c-1.904-0.476-3.296-1.266-3.247-1.351
				c0.05-0.104,1.487,0.514,3.347,0.979C160.711,262.143,162.272,262.29,162.265,262.404z"/>
		</g>
		<g opacity="0.31">
			<path fill="#FFFFFF" d="M169.988,257.354c1.234-0.963,2.289-1.676,2.357-1.594c0.066,0.082-0.878,0.931-2.112,1.895
				c-1.234,0.966-2.289,1.679-2.356,1.597C167.81,259.167,168.754,258.32,169.988,257.354z"/>
		</g>
		<g opacity="0.31">
			<path fill="#FFFFFF" d="M170.325,251.908c0.083,0.059-0.687,1.163-2.033,2.12c-1.341,0.966-2.649,1.346-2.679,1.255
				c-0.042-0.108,1.155-0.633,2.447-1.564C169.36,252.793,170.236,251.836,170.325,251.908z"/>
		</g>
		<g opacity="0.31">
			
				<ellipse transform="matrix(0.1236 -0.9923 0.9923 0.1236 -105.0206 383.0704)" fill="#FFFFFF" cx="164.354" cy="250.99" rx="0.192" ry="2.749"/>
		</g>
		<g opacity="0.31">
			<path fill="#FFFFFF" d="M170.788,248.125c-0.072-0.069,0.521-0.728,1.483-1.242c0.959-0.514,1.846-0.644,1.87-0.544
				c0.03,0.108-0.771,0.396-1.682,0.886C171.543,247.706,170.864,248.209,170.788,248.125z"/>
		</g>
		<g opacity="0.31">
			
				<ellipse transform="matrix(0.9492 -0.3147 0.3147 0.9492 -62.3607 65.2195)" fill="#FFFFFF" cx="170.775" cy="225.713" rx="0.196" ry="2.424"/>
		</g>
		<path fill="#110B2D" d="M157.52,420.913c0,0,25.693,4.271,24.463,2.896c-1.231-1.372-4.225-2.896-4.225-2.896H157.52z"/>
		<g>
			<path fill="none" stroke="#292442" stroke-miterlimit="10" d="M140.742,441.464"/>
		</g>
		<g>
			<path fill="#DAD7E2" d="M179.54,155.399c-0.299,0.877,0,22.481,0,22.481l14.7,1.173l-1.727,8.349l8.65-8.502l15.729,1.025
				l1.198-25.869L179.54,155.399z"/>
			<g>
				<ellipse fill="#FFFFFF" cx="206.42" cy="167.335" rx="1.695" ry="1.656"/>
				<ellipse fill="#FFFFFF" cx="198.48" cy="167.16" rx="1.696" ry="1.656"/>
				<ellipse fill="#FFFFFF" cx="191.074" cy="166.723" rx="1.696" ry="1.657"/>
			</g>
		</g>
		<g opacity="0.36">
			<g>
				<path fill="#241352" d="M225.15,220.227c-0.016,0.108-0.86,0.023-1.887-0.185c-1.028-0.205-1.838-0.455-1.809-0.56
					c0.026-0.104,0.873-0.02,1.889,0.186C224.358,219.875,225.17,220.124,225.15,220.227z"/>
			</g>
			<g>
				<path fill="#241352" d="M232.681,220.729c0.004,0.104-0.845,0.173-1.891,0.153c-1.049-0.023-1.892-0.125-1.885-0.229
					c0.009-0.108,0.855-0.177,1.894-0.158C231.833,220.52,232.676,220.624,232.681,220.729z"/>
			</g>
			<g>
				<path fill="#241352" d="M240.164,219.733c0.026,0.104-0.787,0.345-1.818,0.536c-1.03,0.195-1.879,0.268-1.891,0.16
					c-0.016-0.104,0.799-0.346,1.815-0.536C239.288,219.703,240.133,219.63,240.164,219.733z"/>
			</g>
			<g>
				<path fill="#241352" d="M247.177,217.035c0.053,0.091-0.666,0.539-1.608,1.004c-0.944,0.455-1.784,0.655-1.813,0.571
					c-0.044-0.116,0.719-0.467,1.648-0.921C246.325,217.233,247.123,216.944,247.177,217.035z"/>
			</g>
			<g>
				<path fill="#241352" d="M253.17,212.573c0.079,0.072-0.498,0.683-1.29,1.36c-0.791,0.677-1.481,1.161-1.548,1.077
					c-0.063-0.089,0.511-0.696,1.289-1.364C252.397,212.979,253.095,212.5,253.17,212.573z"/>
			</g>
			<g>
				<path fill="#241352" d="M257.604,206.623c0.098,0.047-0.272,0.795-0.822,1.672c-0.554,0.875-1.075,1.534-1.161,1.469
					c-0.087-0.061,0.283-0.813,0.824-1.67C256.989,207.234,257.504,206.575,257.604,206.623z"/>
			</g>
			<g>
				<path fill="#241352" d="M259.806,199.601c0.091,0.005,0.131,0.858-0.147,1.854c-0.246,1.002-0.528,1.79-0.628,1.759
					c-0.104-0.035,0.006-0.856,0.243-1.839C259.548,200.399,259.678,199.586,259.806,199.601z"/>
			</g>
			<g>
				<path fill="#241352" d="M259.172,192.289c0.104-0.031,0.431,0.748,0.619,1.763c0.189,1.016,0.165,1.854,0.058,1.862
					c-0.111,0.008-0.259-0.802-0.445-1.793C259.218,193.127,259.063,192.319,259.172,192.289z"/>
			</g>
			<g>
				<path fill="#241352" d="M255.816,185.723c0.084-0.065,0.69,0.536,1.247,1.413c0.56,0.875,0.852,1.67,0.755,1.711
					c-0.1,0.048-0.542-0.653-1.089-1.508C256.184,186.483,255.73,185.791,255.816,185.723z"/>
			</g>
			<g>
				<path fill="#241352" d="M250.049,181.065c0.045-0.095,0.86,0.186,1.747,0.752c0.887,0.563,1.479,1.177,1.411,1.256
					c-0.073,0.083-0.763-0.387-1.625-0.937C250.722,181.585,250.001,181.164,250.049,181.065z"/>
			</g>
			<g>
				<path fill="#241352" d="M242.696,180.056c-0.031-0.099,0.798-0.397,1.873-0.413c1.068-0.024,1.908,0.214,1.887,0.313
					c-0.019,0.112-0.856,0.045-1.883,0.069C243.552,180.041,242.725,180.164,242.696,180.056z"/>
			</g>
			<g>
				<path fill="#241352" d="M237.793,185.047c-0.104,0-0.126-0.884,0.363-1.841c0.473-0.961,1.205-1.481,1.263-1.413
					c0.088,0.086-0.476,0.696-0.909,1.583C238.061,184.254,237.908,185.062,237.793,185.047z"/>
			</g>
			<g>
				<path fill="#241352" d="M240.264,191.816c-0.077,0.069-0.717-0.505-1.274-1.397c-0.557-0.887-0.773-1.719-0.672-1.753
					c0.106-0.037,0.469,0.7,1.009,1.552C239.858,191.077,240.348,191.745,240.264,191.816z"/>
			</g>
			<g>
				<path fill="#241352" d="M246.509,195.776c-0.031,0.102-0.856-0.111-1.843-0.478c-0.955-0.449-1.643-0.962-1.585-1.039
					c0.066-0.1,0.824,0.255,1.744,0.687C245.783,195.302,246.54,195.673,246.509,195.776z"/>
			</g>
			<g>
				<path fill="#241352" d="M253.981,196.417c0.016,0.104-0.823,0.296-1.88,0.314c-1.058,0.02-1.902-0.151-1.891-0.255
					c0.013-0.108,0.854-0.113,1.884-0.13C253.123,196.329,253.968,196.309,253.981,196.417z"/>
			</g>
			<g>
				<path fill="#241352" d="M261.187,194.317c0.048,0.094-0.704,0.474-1.686,0.855c-0.979,0.375-1.8,0.599-1.826,0.496
					c-0.029-0.102,0.723-0.484,1.685-0.856C260.319,194.442,261.14,194.221,261.187,194.317z"/>
			</g>
			<g>
				<path fill="#241352" d="M267.354,190.085c0.078,0.077-0.521,0.672-1.335,1.327c-0.814,0.656-1.524,1.115-1.586,1.026
					c-0.06-0.086,0.537-0.68,1.336-1.324C266.566,190.47,267.278,190.011,267.354,190.085z"/>
			</g>
			<g>
				<path fill="#241352" d="M271.848,184.183c0.098,0.045-0.201,0.836-0.759,1.709c-0.557,0.877-1.147,1.488-1.231,1.423
					c-0.089-0.065,0.354-0.768,0.897-1.626C271.304,184.833,271.75,184.133,271.848,184.183z"/>
			</g>
			<g>
				<path fill="#241352" d="M274.101,177.169c0.108,0.016,0.003,0.838-0.231,1.841c-0.237,1.001-0.516,1.787-0.619,1.754
					c-0.104-0.03,0-0.858,0.234-1.841C273.719,177.938,273.993,177.156,274.101,177.169z"/>
			</g>
			<g>
				<path fill="#241352" d="M274.24,169.806c0.108-0.012,0.236,0.808,0.29,1.834c0.049,1.025,0.002,1.856-0.106,1.854
					c-0.11-0.004-0.238-0.827-0.29-1.836C274.083,170.651,274.132,169.821,274.24,169.806z"/>
			</g>
			<g>
				<path fill="#241352" d="M272.54,162.628c0.102-0.037,0.422,0.732,0.719,1.718c0.292,0.983,0.444,1.802,0.338,1.826
					c-0.105,0.023-0.427-0.747-0.717-1.716C272.589,163.482,272.436,162.666,272.54,162.628z"/>
			</g>
			<g>
				<path fill="#241352" d="M269.296,155.974c0.093-0.057,0.57,0.629,1.072,1.529c0.5,0.902,0.825,1.672,0.726,1.713
					c-0.1,0.045-0.577-0.64-1.073-1.529C269.527,156.796,269.205,156.028,269.296,155.974z"/>
			</g>
			<g>
				<path fill="#241352" d="M264.72,150.11c0.082-0.074,0.71,0.488,1.402,1.253c0.666,0.791,1.123,1.498,1.037,1.559
					c-0.088,0.065-0.679-0.528-1.333-1.31C265.136,150.855,264.643,150.181,264.72,150.11z"/>
			</g>
			<g>
				<path fill="#241352" d="M260.463,146.482c-0.803-0.652-1.397-1.247-1.327-1.327c0.069-0.081,0.774,0.383,1.575,1.033
					c0.803,0.652,1.397,1.246,1.326,1.326C261.969,147.596,261.264,147.132,260.463,146.482z"/>
			</g>
			<g>
				<path fill="#241352" d="M254.328,142.231c-0.889-0.531-1.565-1.035-1.508-1.125c0.055-0.091,0.822,0.266,1.714,0.798
					c0.889,0.531,1.565,1.036,1.508,1.125C255.984,143.12,255.218,142.763,254.328,142.231z"/>
			</g>
			<g>
				<path fill="#241352" d="M247.691,138.773c-0.948-0.425-1.683-0.848-1.636-0.943c0.044-0.096,0.849,0.172,1.798,0.598
					c0.948,0.426,1.683,0.848,1.636,0.944C249.445,139.467,248.641,139.199,247.691,138.773z"/>
			</g>
			<g>
				<path fill="#241352" d="M240.71,136.036c-0.986-0.335-1.758-0.688-1.723-0.788s0.865,0.092,1.852,0.428
					c0.983,0.336,1.756,0.688,1.72,0.788C242.523,136.563,241.694,136.372,240.71,136.036z"/>
			</g>
			<g>
				<path fill="#241352" d="M231.658,133.482c0.019-0.106,0.86-0.026,1.887,0.174c1.026,0.204,1.833,0.449,1.805,0.551
					c-0.026,0.104-0.871,0.025-1.884-0.174C232.452,133.833,231.641,133.586,231.658,133.482z"/>
			</g>
			<g>
				
					<ellipse transform="matrix(-0.0717 0.9974 -0.9974 -0.0717 374.8147 -83.0129)" fill="#241352" cx="226.037" cy="132.912" rx="0.191" ry="1.883"/>
			</g>
			<g>
				
					<ellipse transform="matrix(0.0279 0.9996 -0.9996 0.0279 345.1409 -89.3293)" fill="#241352" cx="218.5" cy="132.791" rx="0.192" ry="1.888"/>
			</g>
			<g>
				
					<ellipse transform="matrix(0.1005 0.9949 -0.9949 0.1005 322.3196 -90.0271)" fill="#241352" cx="210.949" cy="133.245" rx="0.194" ry="1.888"/>
			</g>
			<g>
				
					<ellipse transform="matrix(0.1597 0.9872 -0.9872 0.1597 303.4475 -88.1001)" fill="#241352" cx="203.471" cy="134.186" rx="0.193" ry="1.887"/>
			</g>
			<g>
				
					<ellipse transform="matrix(0.2129 0.9771 -0.9771 0.2129 286.7078 -84.867)" fill="#241352" cx="196.029" cy="135.521" rx="0.193" ry="1.888"/>
			</g>
			<g>
				
					<ellipse transform="matrix(0.2687 0.9632 -0.9632 0.2687 270.2147 -81.3741)" fill="#241352" cx="188.697" cy="137.266" rx="0.193" ry="1.888"/>
			</g>
			<g>
				<path fill="#241352" d="M181.522,139.611c-0.987,0.332-1.817,0.52-1.852,0.42c-0.036-0.101,0.736-0.451,1.724-0.783
					c0.987-0.333,1.816-0.521,1.851-0.42C183.28,138.929,182.509,139.279,181.522,139.611z"/>
			</g>
			<g>
				<path fill="#241352" d="M174.495,142.309c-0.956,0.414-1.766,0.671-1.81,0.574c-0.043-0.098,0.695-0.512,1.651-0.926
					c0.955-0.414,1.765-0.67,1.809-0.573C176.189,141.481,175.45,141.895,174.495,142.309z"/>
			</g>
		</g>
		<g opacity="0.36">
			<g>
				<path fill="#241352" d="M134.914,161.718c-0.673,0.779-1.286,1.354-1.369,1.284c-0.083-0.068,0.395-0.754,1.068-1.533
					c0.674-0.779,1.286-1.354,1.37-1.285C136.066,160.253,135.588,160.939,134.914,161.718z"/>
			</g>
			<g>
				<path fill="#241352" d="M129.799,167.161c-0.738,0.72-1.398,1.243-1.474,1.169c-0.076-0.076,0.46-0.719,1.198-1.439
					c0.738-0.719,1.398-1.243,1.474-1.169C131.074,165.796,130.537,166.441,129.799,167.161z"/>
			</g>
			<g>
				<path fill="#241352" d="M124.235,172.161c-0.797,0.657-1.499,1.125-1.569,1.043c-0.07-0.082,0.519-0.681,1.315-1.337
					c0.796-0.658,1.499-1.126,1.569-1.043C125.621,170.903,125.032,171.503,124.235,172.161z"/>
			</g>
			<g>
				<path fill="#241352" d="M118.251,176.692c-0.85,0.59-1.59,0.998-1.653,0.912s0.575-0.635,1.425-1.225
					c0.85-0.592,1.59-1,1.653-0.914C119.739,175.552,119.101,176.101,118.251,176.692z"/>
			</g>
			<g>
				<path fill="#241352" d="M111.903,180.741c-0.897,0.521-1.668,0.869-1.724,0.775c-0.056-0.09,0.627-0.585,1.523-1.106
					c0.897-0.519,1.669-0.867,1.725-0.776C113.482,179.726,112.8,180.222,111.903,180.741z"/>
			</g>
			<g>
				<path fill="#241352" d="M105.231,184.228c-0.938,0.445-1.738,0.728-1.785,0.632c-0.047-0.096,0.675-0.534,1.614-0.978
					c0.938-0.445,1.738-0.728,1.785-0.632C106.892,183.346,106.17,183.784,105.231,184.228z"/>
			</g>
			<g>
				<path fill="#241352" d="M98.274,187.143c-0.98,0.35-1.804,0.552-1.841,0.454c-0.037-0.099,0.728-0.462,1.708-0.81
					c0.98-0.35,1.804-0.552,1.841-0.454C100.019,186.432,99.254,186.795,98.274,187.143z"/>
			</g>
			<g>
				<path fill="#241352" d="M89.046,189.081c-0.006-0.108,0.817-0.31,1.84-0.456c1.024-0.14,1.873-0.176,1.895-0.071
					c0.022,0.104-0.798,0.307-1.84,0.454C89.901,189.153,89.054,189.184,89.046,189.081z"/>
			</g>
			<g>
				<path fill="#241352" d="M81.567,188.35c0.035-0.104,0.86,0.058,1.872,0.244c1.015,0.192,1.842,0.345,1.834,0.452
					c-0.01,0.104-0.872,0.121-1.906-0.073C82.328,188.78,81.535,188.449,81.567,188.35z"/>
			</g>
			<g>
				<path fill="#241352" d="M75.046,184.743c0.078-0.077,0.729,0.444,1.559,1.034c0.826,0.597,1.525,1.057,1.471,1.153
					c-0.046,0.092-0.852-0.226-1.706-0.841C75.517,185.475,74.97,184.813,75.046,184.743z"/>
			</g>
			<g>
				<path fill="#241352" d="M71.195,178.48c0.106-0.031,0.428,0.729,0.844,1.649c0.412,0.925,0.775,1.664,0.681,1.72
					c-0.09,0.054-0.619-0.616-1.043-1.564C71.254,179.341,71.095,178.509,71.195,178.48z"/>
			</g>
			<g>
				<path fill="#241352" d="M70.241,171.186c0.109,0.005,0.233,0.826,0.281,1.839c0.044,1.009-0.006,1.841-0.114,1.852
					c-0.106,0.014-0.233-0.806-0.282-1.836C70.083,172.012,70.133,171.182,70.241,171.186z"/>
			</g>
			<g>
				<path fill="#241352" d="M71.4,163.899c0.107,0.029,0.002,0.854-0.227,1.841c-0.249,0.985-0.472,1.78-0.576,1.766
					c-0.111-0.019-0.06-0.854,0.192-1.848C71.021,164.654,71.296,163.869,71.4,163.899z"/>
			</g>
			<g>
				<path fill="#241352" d="M74.132,157.031c0.097,0.049-0.17,0.839-0.594,1.762c-0.424,0.922-0.85,1.642-0.952,1.602
					c-0.101-0.04,0.165-0.827,0.594-1.76C73.61,157.7,74.034,156.98,74.132,157.031z"/>
			</g>
			<g>
				<path fill="#241352" d="M76.939,152.212c0.604-0.832,1.165-1.455,1.253-1.394c0.089,0.062-0.329,0.784-0.933,1.616
					c-0.604,0.83-1.165,1.454-1.254,1.392C75.918,153.766,76.335,153.042,76.939,152.212z"/>
			</g>
			<g>
				<path fill="#241352" d="M83.413,145.484c0.07,0.082-0.482,0.712-1.233,1.413c-0.753,0.696-1.426,1.204-1.507,1.13
					c-0.078-0.071,0.474-0.702,1.234-1.411C82.668,145.912,83.343,145.403,83.413,145.484z"/>
			</g>
			<g>
				<path fill="#241352" d="M89.588,141.25c0.05,0.093-0.616,0.607-1.493,1.144c-0.875,0.538-1.639,0.907-1.703,0.821
					s0.604-0.601,1.493-1.146C88.771,141.521,89.534,141.154,89.588,141.25z"/>
			</g>
			<g>
				<path fill="#241352" d="M93.457,139.208c0.309-0.124,0.593-0.145,0.634-0.046c0.041,0.098-0.176,0.278-0.485,0.402
					c-0.309,0.124-0.593,0.144-0.634,0.046C92.931,139.511,93.148,139.332,93.457,139.208z"/>
			</g>
		</g>
		<g>
			<polygon fill="#DAD7E2" points="109.838,145.268 105.994,139.115 95.191,135.937 103.898,130.232 99.311,117.664 
				132.652,115.372 			"/>
			<polygon fill="#B0ACC7" points="95.191,135.937 105.994,139.115 132.652,115.372 103.898,130.232 			"/>
		</g>
		<g>
			<polygon fill="#FAC480" points="60.904,206.901 102.503,198.415 107.862,223.489 66.263,231.975 			"/>
			<g>
				<path fill="#241352" d="M101.026,198.336c0.012,0.008-0.084,0.143-0.275,0.396c-0.261,0.338-0.54,0.698-0.85,1.098
					c-0.886,1.108-1.944,2.435-3.178,3.978c-1.407,1.739-3.007,3.716-4.753,5.877c-0.9,1.089-1.808,2.312-3.089,3.273
					c-1.258,1.013-3.047,1.4-4.721,1.182c-1.689-0.188-3.244-0.667-4.769-1.035c-1.509-0.406-2.967-0.797-4.367-1.178
					c-2.774-0.784-5.253-1.556-7.322-2.238c-2.069-0.684-3.729-1.272-4.871-1.694c-0.475-0.185-0.906-0.348-1.308-0.503
					c-0.297-0.119-0.452-0.188-0.448-0.199c0.006-0.013,0.168,0.03,0.474,0.125c0.41,0.133,0.85,0.277,1.333,0.434
					c1.369,0.441,3.001,0.966,4.903,1.578c2.077,0.647,4.56,1.392,7.333,2.154c1.4,0.372,2.859,0.756,4.368,1.154
					c1.52,0.365,3.087,0.836,4.712,1.022c1.625,0.199,3.244-0.149,4.445-1.102c1.222-0.912,2.131-2.108,3.04-3.198
					c1.771-2.141,3.395-4.097,4.818-5.821c1.272-1.512,2.363-2.815,3.276-3.903c0.33-0.381,0.629-0.727,0.909-1.05
					C100.9,198.448,101.016,198.326,101.026,198.336z"/>
			</g>
			<g>
				<path fill="#241352" d="M70.684,221.079c-2.272,4.918-4.195,8.871-4.294,8.828c-0.099-0.045,1.663-4.068,3.936-8.986
					s4.195-8.872,4.294-8.827C74.718,212.136,72.957,216.16,70.684,221.079z"/>
			</g>
			<g>
				<path fill="#241352" d="M105.274,214.692c-0.028,0.045-0.747-0.253-1.89-0.775c-1.141-0.522-2.708-1.268-4.425-2.111
					c-1.718-0.845-3.264-1.625-4.377-2.212c-1.111-0.583-1.788-0.97-1.764-1.017c0.021-0.046,0.739,0.25,1.884,0.771
					c1.143,0.526,2.712,1.267,4.434,2.116c1.719,0.843,3.27,1.629,4.381,2.211C104.626,214.263,105.301,214.647,105.274,214.692z"/>
			</g>
		</g>
		<ellipse fill="#1A7D5A" cx="217.479" cy="154.056" rx="2.021" ry="1.976"/>
	</g>
	<g opacity="0.59">
		<ellipse fill="#0E0E63" cx="140.525" cy="448.225" rx="2.163" ry="2.113"/>
		<ellipse opacity="0.21" fill="#0E0E63" enable-background="new    " cx="167.248" cy="448.225" rx="2.163" ry="2.113"/>
		<ellipse opacity="0.21" fill="#0E0E63" enable-background="new    " cx="193.974" cy="448.225" rx="2.163" ry="2.113"/>
	</g>
	<g opacity="0.54">
		<g>
			
				<linearGradient id="SVGID_4_" gradientUnits="userSpaceOnUse" x1="-258.1968" y1="529.2026" x2="-242.6929" y2="529.2026" gradientTransform="matrix(1.7741 0 0 -1.7741 699.6481 1186.1143)">
				<stop  offset="0" style="stop-color:#FD8F7E"/>
				<stop  offset="0.1512" style="stop-color:#FD847E"/>
				<stop  offset="0.7019" style="stop-color:#FD6280"/>
				<stop  offset="1" style="stop-color:#FD5580"/>
			</linearGradient>
			<path fill="url(#SVGID_4_)" d="M255.326,261.131c18.337,0,18.337-27.783,0-27.783
				C236.986,233.349,236.988,261.131,255.326,261.131L255.326,261.131z"/>
		</g>
	</g>
	<g opacity="0.43">
		<g>
			
				<linearGradient id="SVGID_5_" gradientUnits="userSpaceOnUse" x1="-365.7524" y1="517.6167" x2="-354.7656" y2="517.6167" gradientTransform="matrix(1.7741 0 0 -1.7741 699.6481 1186.1143)">
				<stop  offset="0.0108" style="stop-color:#F585C8"/>
				<stop  offset="1" style="stop-color:#6D76D8"/>
			</linearGradient>
			<path fill="url(#SVGID_5_)" d="M60.5,277.636c12.995,0,12.995-19.688,0-19.688C47.506,257.949,47.506,277.636,60.5,277.636
				L60.5,277.636z"/>
		</g>
	</g>
	<g opacity="0.33">
		<g>
			
				<linearGradient id="SVGID_6_" gradientUnits="userSpaceOnUse" x1="-350.4375" y1="430.7495" x2="-340.0415" y2="430.7495" gradientTransform="matrix(1.7741 0 0 -1.7741 699.6481 1186.1143)">
				<stop  offset="0.05" style="stop-color:#00C1CE"/>
				<stop  offset="1" style="stop-color:#82EBA1"/>
			</linearGradient>
			<path fill="url(#SVGID_6_)" d="M87.147,431.221c12.296,0,12.296-18.629,0-18.629C74.852,412.592,74.852,431.221,87.147,431.221
				L87.147,431.221z"/>
		</g>
	</g>
	<g>
		<g>
			<path fill="#0E0E63" d="M221.083,248.835c0.136,0.004,0.271,0.011,0.405,0.015c1.735,0.08,1.735-2.709,0-2.629
				c-0.135,0.006-0.27,0.011-0.405,0.02C219.372,246.314,219.372,248.755,221.083,248.835L221.083,248.835z"/>
		</g>
	</g>
	<g>
		<g>
			<path fill="#0E0E63" d="M235.657,231.739c1.081,0,1.081-1.636,0-1.636C234.575,230.104,234.575,231.739,235.657,231.739
				L235.657,231.739z"/>
		</g>
	</g>
	<g>
		<g>
			<path fill="#0E0E63" d="M193.955,256.143c0.401,0,0.401-0.605,0-0.605S193.554,256.143,193.955,256.143L193.955,256.143z"/>
		</g>
	</g>
	<g>
		<g>
			<path fill="#0E0E63" d="M96.201,249.317c0.17-0.233,0.265-0.456,0.363-0.724c0.26-0.7-0.554-1.495-1.273-1.242
				c-0.275,0.097-0.5,0.188-0.739,0.354C92.963,248.82,95.064,250.871,96.201,249.317L96.201,249.317z"/>
		</g>
	</g>
	<g>
		<g>
			<path fill="#0E0E63" d="M94.757,278.887c1.177,0,1.177-1.787,0-1.787C93.58,277.101,93.578,278.887,94.757,278.887
				L94.757,278.887z"/>
		</g>
	</g>
	<g>
		<g>
			<path fill="#0E0E63" d="M50.218,300.085c0.291,0.006,0.478-0.041,0.737-0.173c0.43-0.21,0.43-0.897,0-1.111
				c-0.257-0.127-0.446-0.181-0.737-0.17C49.258,298.657,49.258,300.052,50.218,300.085L50.218,300.085z"/>
		</g>
	</g>
	<g>
		<g>
			<path fill="#0E0E63" d="M38.476,170.592c1.3,0,1.3-1.971,0-1.971S37.176,170.592,38.476,170.592L38.476,170.592z"/>
		</g>
	</g>
	<g>
		<g>
			<path fill="#0E0E63" d="M59.53,138.031c1.141,0,1.141-1.729,0-1.729S58.388,138.031,59.53,138.031L59.53,138.031z"/>
		</g>
	</g>
	<g>
		<g>
			<path fill="#0E0E63" d="M37.667,131.428c0.777,0,0.777-1.178,0-1.178S36.89,131.428,37.667,131.428L37.667,131.428z"/>
		</g>
	</g>
	<g>
		<g>
			<path fill="#0E0E63" d="M240.516,119.404c1.095,0,1.095-1.656,0-1.656C239.423,117.748,239.423,119.404,240.516,119.404
				L240.516,119.404z"/>
		</g>
	</g>
	<g>
		<g>
			<path fill="#0E0E63" d="M297.155,164.407c0.178-0.316,0.323-0.64,0.425-0.988c0.432-1.469-1.037-2.921-2.55-2.49
				c-0.352,0.103-0.684,0.241-1.006,0.418c-1.292,0.707-1.493,2.504-0.463,3.511C294.586,165.86,296.435,165.67,297.155,164.407
				L297.155,164.407z"/>
		</g>
	</g>
	<g>
		<g>
			<path fill="#0E0E63" d="M292.748,180.196c0.922,0,0.922-1.4,0-1.4S291.826,180.196,292.748,180.196L292.748,180.196z"/>
		</g>
	</g>
	<g>
		<path fill="#4147C2" d="M240.778,514.992H93.718c-12.199,0-22.088-9.664-22.088-21.58l0,0c0-11.918,9.89-21.58,22.088-21.58
			h147.061c12.199,0,22.089,9.662,22.089,21.58l0,0C262.867,505.328,252.979,514.992,240.778,514.992z"/>
		<rect x="113.808" y="487.625" fill="none" width="106.881" height="15.496"/>
		<text transform="matrix(1.0209 0 0 1 141.7573 496.062)" fill="#DADAEA" font-family="'ArialMT'" font-size="11.8735">Continue</text>
	</g>
	<g>
		<g>
			<defs>
				<path id="SVGID_7_" d="M272.177,18.278h-26.208v1.313c0,10.164-8.435,18.403-18.839,18.403H95.044
					c-10.403,0-18.838-8.239-18.838-18.403v-1.313H54.844c-21.08,0-38.167,16.694-38.167,37.289v497.294
					c0,20.591,17.087,37.29,38.167,37.29h217.333c21.078,0,38.168-16.699,38.168-37.29V55.567
					C310.345,34.972,293.255,18.278,272.177,18.278z"/>
			</defs>
			<clipPath id="SVGID_8_">
				<use xlink:href="#SVGID_7_"  overflow="visible"/>
			</clipPath>
			<g opacity="0.1" clip-path="url(#SVGID_8_)">
				<path fill="#0E0E63" d="M5.63,368.252c9.56-11.38,21.414-21.302,35.502-26.526c14.087-5.224,30.591-5.302,43.729,1.906
					c16.459,9.031,25.314,27.614,41.148,37.659c9.431,5.974,21.076,8.541,32.219,7.082c13.107-1.709,24.791-8.599,36.592-14.426
					c11.804-5.827,25.005-10.816,37.979-8.334c23.618,4.519,37.526,31.694,61.251,35.631c6.978,1.153,14.127,0.125,21.192,0.478
					c7.067,0.35,14.671,2.504,18.674,8.208v188.081H5.63V368.252z"/>
			</g>
		</g>
		<g>
			<defs>
				<path id="SVGID_9_" d="M272.177,18.278h-26.208v1.313c0,10.164-8.435,18.403-18.839,18.403H95.044
					c-10.403,0-18.838-8.239-18.838-18.403v-1.313H54.844c-21.08,0-38.167,16.694-38.167,37.289v497.294
					c0,20.591,17.087,37.29,38.167,37.29h217.333c21.078,0,38.168-16.699,38.168-37.29V55.567
					C310.345,34.972,293.255,18.278,272.177,18.278z"/>
			</defs>
			<clipPath id="SVGID_10_">
				<use xlink:href="#SVGID_9_"  overflow="visible"/>
			</clipPath>
			<g clip-path="url(#SVGID_10_)">
				<path fill="#0E0E63" d="M11.022,535.105c18.318-14.498,45.252-17.695,66.59-7.903c12.756,5.853,23.077,15.641,34.141,24.168
					c11.063,8.524,23.881,16.159,37.97,16.38c13.747,0.21,26.408-6.613,38.842-12.339c13.155-6.061,26.998-11.121,41.466-12.584
					c14.467-1.46,29.69,0.923,41.82,8.762c6.958,4.496,12.745,10.658,20.081,14.532c7.335,3.88,17.328,4.883,23.377-0.729v26.721
					H17.173L11.022,535.105z"/>
			</g>
		</g>
		<g>
			<defs>
				<path id="SVGID_11_" d="M272.177,18.278h-26.208v1.313c0,10.164-8.435,18.403-18.839,18.403H95.044
					c-10.403,0-18.838-8.239-18.838-18.403v-1.313H54.844c-21.08,0-38.167,16.694-38.167,37.289v497.294
					c0,20.591,17.087,37.29,38.167,37.29h217.333c21.078,0,38.168-16.699,38.168-37.29V55.567
					C310.345,34.972,293.255,18.278,272.177,18.278z"/>
			</defs>
			<clipPath id="SVGID_12_">
				<use xlink:href="#SVGID_11_"  overflow="visible"/>
			</clipPath>
			<g opacity="0.1" clip-path="url(#SVGID_12_)">
				<path fill="#0E0E63" d="M12.94,536.7c18.318-14.498,45.254-17.691,66.59-7.901c12.756,5.849,23.077,15.636,34.141,24.166
					s23.883,16.164,37.97,16.38c13.747,0.214,26.407-6.611,38.845-12.339c13.153-6.061,26.997-11.119,41.464-12.584
					c14.466-1.461,29.693,0.925,41.819,8.764c6.957,4.496,12.747,10.656,20.082,14.53c7.336,3.88,17.329,4.883,23.378-0.729v26.721
					H19.092L12.94,536.7z"/>
			</g>
		</g>
		<g>
			<defs>
				<path id="SVGID_13_" d="M272.177,18.278h-26.208v1.313c0,10.164-8.435,18.403-18.839,18.403H95.044
					c-10.403,0-18.838-8.239-18.838-18.403v-1.313H54.844c-21.08,0-38.167,16.694-38.167,37.289v497.294
					c0,20.591,17.087,37.29,38.167,37.29h217.333c21.078,0,38.168-16.699,38.168-37.29V55.567
					C310.345,34.972,293.255,18.278,272.177,18.278z"/>
			</defs>
			<clipPath id="SVGID_14_">
				<use xlink:href="#SVGID_13_"  overflow="visible"/>
			</clipPath>
			<g opacity="0.43" clip-path="url(#SVGID_14_)">
				<g>
					
						<linearGradient id="SVGID_15_" gradientUnits="userSpaceOnUse" x1="-339.6172" y1="641.5103" x2="-322.6443" y2="641.5103" gradientTransform="matrix(1.7741 0 0 -1.7741 699.6481 1186.1143)">
						<stop  offset="0.0108" style="stop-color:#F585C8"/>
						<stop  offset="1" style="stop-color:#6D76D8"/>
					</linearGradient>
					<path fill="url(#SVGID_15_)" d="M104.893,72.395c5.303-5.792,10.607-11.582,15.912-17.373
						c5.223-5.704,11.283-11.634,14.514-18.68c3.71-8.087-4.751-20.279-14.042-13.719c-13.246,9.35-22.292,25.345-31.912,38.065
						C82.656,69.554,97.477,80.492,104.893,72.395L104.893,72.395z"/>
				</g>
			</g>
		</g>
		<g>
			<defs>
				<path id="SVGID_16_" d="M272.177,18.278h-26.208v1.313c0,10.164-8.435,18.403-18.839,18.403H95.044
					c-10.403,0-18.838-8.239-18.838-18.403v-1.313H54.844c-21.08,0-38.167,16.694-38.167,37.289v497.294
					c0,20.591,17.087,37.29,38.167,37.29h217.333c21.078,0,38.168-16.699,38.168-37.29V55.567
					C310.345,34.972,293.255,18.278,272.177,18.278z"/>
			</defs>
			<clipPath id="SVGID_17_">
				<use xlink:href="#SVGID_16_"  overflow="visible"/>
			</clipPath>
			<g opacity="0.54" clip-path="url(#SVGID_17_)">
				<g>
					
						<linearGradient id="SVGID_18_" gradientUnits="userSpaceOnUse" x1="-387.0854" y1="393.3296" x2="-363.5085" y2="393.3296" gradientTransform="matrix(1.7741 0 0 -1.7741 699.6481 1186.1143)">
						<stop  offset="0" style="stop-color:#FD8F7E"/>
						<stop  offset="0.1512" style="stop-color:#FD847E"/>
						<stop  offset="0.7019" style="stop-color:#FD6280"/>
						<stop  offset="1" style="stop-color:#FD5580"/>
					</linearGradient>
					<path fill="url(#SVGID_18_)" d="M20.945,521.141c14.078-15.66,28.31-31.176,41.797-47.324
						c10.08-12.066-7.637-29.373-17.577-17.172c-13.93,17.095-27.055,34.766-40.341,52.343
						C-2.119,518.176,13.312,529.627,20.945,521.141L20.945,521.141z"/>
				</g>
			</g>
		</g>
		<g>
			<defs>
				<path id="SVGID_19_" d="M272.177,18.278h-26.208v1.313c0,10.164-8.435,18.403-18.839,18.403H95.044
					c-10.403,0-18.838-8.239-18.838-18.403v-1.313H54.844c-21.08,0-38.167,16.694-38.167,37.289v497.294
					c0,20.591,17.087,37.29,38.167,37.29h217.333c21.078,0,38.168-16.699,38.168-37.29V55.567
					C310.345,34.972,293.255,18.278,272.177,18.278z"/>
			</defs>
			<clipPath id="SVGID_20_">
				<use xlink:href="#SVGID_19_"  overflow="visible"/>
			</clipPath>
			<g opacity="0.33" clip-path="url(#SVGID_20_)">
				<g>
					
						<linearGradient id="SVGID_21_" gradientUnits="userSpaceOnUse" x1="-250.9102" y1="475.1167" x2="-211.3394" y2="475.1167" gradientTransform="matrix(1.7741 0 0 -1.7741 699.6481 1186.1143)">
						<stop  offset="0.05" style="stop-color:#00C1CE"/>
						<stop  offset="1" style="stop-color:#82EBA1"/>
					</linearGradient>
					<path fill="url(#SVGID_21_)" d="M246.878,325.148c11.247,9.859,22.462,19.757,33.813,29.503
						c6.249,5.371,12.503,10.743,18.758,16.112c5.462,4.692,11.939,11.2,19.374,12.563c14.395,2.646,23.137-9.933,17.677-22.462
						c-2.935-6.734-11.166-11.414-16.936-15.573c-6.688-4.818-13.377-9.641-20.063-14.459
						c-12.139-8.744-24.391-17.335-36.617-25.955C250.662,296.254,235.812,315.443,246.878,325.148L246.878,325.148z"/>
				</g>
			</g>
		</g>
	</g>
</g>
</svg>
