<?xml version="1.0" encoding="utf-8"?>
<!-- Generator: Adobe Illustrator 16.0.0, SVG Export Plug-In . SVG Version: 6.00 Build 0)  -->
<!DOCTYPE svg PUBLIC "-//W3C//DTD SVG 1.1//EN" "http://www.w3.org/Graphics/SVG/1.1/DTD/svg11.dtd">
<svg version="1.1" id="Layer_1" xmlns="http://www.w3.org/2000/svg" xmlns:xlink="http://www.w3.org/1999/xlink" x="0px" y="0px"
	 width="1280px" height="251.81px" viewBox="0 1028.19 1280 251.81" enable-background="new 0 1028.19 1280 251.81"
	 xml:space="preserve">
<path fill="#fff" d="M0,1253.555l42.667-18.933c42.667-19.289,128-56.622,213.333-75.911
	c85.333-18.934,170.667-18.934,256-23.645c85.333-5.066,170.667-13.956,256-37.956s170.667-61.333,256-66.399
	c85.333-4.711,170.667,23.733,213.333,37.955l42.667,14.223V1282h-42.667c-42.666,0-128,0-213.333,0s-170.667,0-256,0
	s-170.667,0-256,0s-170.667,0-256,0c-85.333,0-170.667,0-213.333,0H0V1253.555z"/>
</svg>
