<?xml version="1.0" encoding="utf-8"?>
<!-- Generator: Adobe Illustrator 16.0.0, SVG Export Plug-In . SVG Version: 6.00 Build 0)  -->
<!DOCTYPE svg PUBLIC "-//W3C//DTD SVG 1.1//EN" "http://www.w3.org/Graphics/SVG/1.1/DTD/svg11.dtd">
<svg version="1.1" id="Layer_1" xmlns="http://www.w3.org/2000/svg" xmlns:xlink="http://www.w3.org/1999/xlink" x="0px" y="0px"
	 width="35.674px" height="34.364px" viewBox="0 0 42.674 41.364" enable-background="new 0 0 42.674 41.364" xml:space="preserve">
<path fill="#f8f9fa" d="M40.164,0c0,0.792,0,24.415,0,24.756c0,8.082-8.456,14.652-18.827,14.652
	c-10.381,0-18.827-6.574-18.827-14.652c0-7.744,7.762-14.117,17.572-14.621v1.956C11.686,12.592,5.02,18.07,5.02,24.756
	c0,5.992,5.364,11.031,12.552,12.357c10.228,1.891,20.083-4.166,20.083-12.357c0-0.154,0-22.726,0-24.756c-0.672,0-6.86,0-7.531,0
	c0,0.834,0,23.924,0,24.756c0,5.002-6.733,8.336-12.552,6.176c-6.672-2.475-6.695-9.874,0-12.354c0.78-0.29,1.625-0.492,2.511-0.591
	v1.982c-5.268,0.835-6.848,6.152-2.511,8.691c4.14,2.426,10.041,0.094,10.041-3.904c0-0.998,0-23.659,0-24.756h-2.51
	c0,1.192,0,23.77,0,24.756c0,1.625-1.703,2.932-3.765,2.932s-3.765-1.307-3.766-2.93c0-2.031,2.59-3.436,5.02-2.766
	c0-0.619,0-5.353,0-5.975c-6.713-0.581-12.55,3.524-12.55,8.739c0,3.82,3.148,7.08,7.531,8.289
	c7.355,2.029,15.063-2.254,15.063-8.289c0-0.387,0-22.434,0-22.804h2.509c0,0.756,0,20.909,0,22.804
	c0,7.115-8.769,12.283-17.572,10.342c-5.788-1.279-10.041-5.432-10.041-10.342c0-6.291,6.951-11.273,15.061-10.704
	c0-0.522,0-5.354,0-5.876C10.3,7.619,0,15.248,0,24.756c0,9.156,9.572,16.607,21.337,16.607c11.742,0,21.337-7.436,21.337-16.607
	c0-0.648,0-24.076,0-24.756H40.164z"/>
</svg>
