<?xml version="1.0" encoding="utf-8"?>
<!-- Generator: Adobe Illustrator 16.0.0, SVG Export Plug-In . SVG Version: 6.00 Build 0)  -->
<!DOCTYPE svg PUBLIC "-//W3C//DTD SVG 1.1//EN" "http://www.w3.org/Graphics/SVG/1.1/DTD/svg11.dtd">
<svg version="1.1" id="Layer_1" xmlns="http://www.w3.org/2000/svg" xmlns:xlink="http://www.w3.org/1999/xlink" x="0px" y="0px"
	 width="648.631px" height="390.169px" viewBox="0 0 648.631 390.169" enable-background="new 0 0 648.631 390.169"
	 xml:space="preserve">
<g>
	<g>
		<g>
			<circle fill="#8181C6" cx="323.26" cy="371.731" r="1.84"/>
			<circle opacity="0.75" fill="#8181C6" cx="331.157" cy="371.731" r="1.84"/>
			<circle opacity="0.5" fill="#8181C6" cx="339.054" cy="371.731" r="1.84"/>
			<circle opacity="0.2" fill="#8181C6" cx="346.952" cy="371.731" r="1.84"/>
		</g>
	</g>
</g>
<g>
	<g>
		<path fill="#E7F5FE" d="M611.458,328.999c-3.854-7.355-19.519-13.262-26.528-14.6c-37.412-7.143-76.598-6.145-114.496-6.025
			c-41.275,0.131-80.655,6.736-121.587,9.797c-21.285,1.586-43.782-1.271-65.117-2.01c-35.134-1.219-70.259-2.646-105.377-4.287
			c-30.28-1.414-61.705,1.756-88.414,18.449c-3.034,1.898-6.101,4.189-7.482,7.596c-8.677,21.389,99.453,18.701,113.54,19.068
			c71.062,1.85,142.171,2.805,213.242,0.881c52.841-1.43,107.914-1.344,160.319-8.799c11.589-1.65,27.361-2.242,37.373-9.063
			C612.47,336.233,613.27,332.456,611.458,328.999z"/>
	</g>
	<g>
		<g>
			<g>
				<path fill="none" stroke="#D2E8F9" stroke-miterlimit="10" d="M565.458,37.08c0.653,0,1.32,0.009,2,0.026"/>
				<path fill="none" stroke="#D2E8F9" stroke-miterlimit="10" stroke-dasharray="3.9979,3.9979" d="M571.448,37.308
					c18.83,1.379,43.632,9.129,40.879,25.821C608.133,88.536,495.2,79.167,468.227,79.431
					c-54.245,0.529-109.062,0.734-162.248,12.595c-12.932,2.884-31.456,9.25-30.047,25.749c0.492,5.764,3.889,10.979,8.209,14.882
					c15.532,14.027,37.173,15.371,57.264,17.833c30.386,3.726,174.924-1.238,222.169,14.252c9.307,3.051,20.932,6.984,21.319,20.275
					c0.983,33.797-82.951,32.133-108.126,32.775c-67.198,1.715-134.471,1.033-201.669-0.291c-54.306-1.072-108.783-2.021-163-5.523
					c-20.211-1.309-53.266-1.699-68.68-16.873c-8.618-8.482-9.749-23.906,3.878-31.785c9.604-5.554,37.779-3.125,48.623-4.059
					c33.489-2.88,22.437-23.562-5.412-25.397"/>
				<path fill="none" stroke="#D2E8F9" stroke-miterlimit="10" d="M88.509,133.766c-0.658-0.021-1.325-0.032-2-0.032"/>
			</g>
		</g>
		<g>
			<path fill="#F0FAFF" d="M567.382,61.794l-8.651-45.738c-0.519-2.734-3.799-3.883-5.909-2.068l-35.285,30.363
				c-2.107,1.814-1.461,5.231,1.164,6.15l43.938,15.375C565.263,66.796,567.9,64.526,567.382,61.794z"/>
			<g>
				<path fill="#B5DDF7" d="M560.715,61.098c-0.248,0-0.496-0.041-0.739-0.125l-36.138-12.647c-0.755-0.264-1.315-0.916-1.464-1.701
					c-0.15-0.785,0.135-1.598,0.742-2.119l29.022-24.975c0.604-0.521,1.446-0.682,2.204-0.418c0.756,0.264,1.316,0.916,1.464,1.702
					l7.118,37.622c0.148,0.785-0.137,1.598-0.741,2.119C561.771,60.911,561.248,61.098,560.715,61.098z M525.779,45.98l34.145,11.95
					l-6.723-35.548L525.779,45.98z"/>
			</g>
			<path fill="#B5DDF7" d="M545.027,45.739L545.027,45.739c-0.686-0.239-1.06-0.975-0.851-1.668l3.581-12.572
				c0.349-1.16,1.598-1.795,2.74-1.395l0,0c1.143,0.399,1.723,1.674,1.271,2.798l-5.037,12.063
				C546.462,45.638,545.708,45.979,545.027,45.739z"/>
			<circle fill="#B5DDF7" cx="543.985" cy="48.711" r="1.381"/>
		</g>
		<g>
			<path fill="#F0FAFF" d="M83.762,118.349l-28.448-14.161c-1.7-0.847-3.679,0.466-3.562,2.36l1.961,31.717
				c0.117,1.896,2.242,2.953,3.825,1.906l26.487-17.558C85.608,121.563,85.462,119.194,83.762,118.349z"/>
			<g>
				<path fill="#B5DDF7" d="M80.634,121.687c-0.103,0.136-0.228,0.254-0.373,0.351l-21.786,14.44
					c-0.456,0.303-1.042,0.338-1.53,0.094c-0.488-0.242-0.813-0.732-0.847-1.277l-1.612-26.087
					c-0.035-0.545,0.225-1.069,0.682-1.372c0.455-0.303,1.041-0.338,1.53-0.095l23.399,11.647c0.489,0.243,0.814,0.732,0.847,1.277
					C80.967,121.036,80.853,121.398,80.634,121.687z M57.999,134.455l20.585-13.644l-22.108-11.006L57.999,134.455z"/>
			</g>
			<path fill="#B5DDF7" d="M65.808,123.887L65.808,123.887c-0.413,0.273-0.967,0.174-1.258-0.226l-5.361-7.135
				c-0.487-0.67-0.318-1.608,0.372-2.065l0,0c0.689-0.457,1.621-0.247,2.046,0.462l4.483,7.717
				C66.344,123.063,66.22,123.613,65.808,123.887z"/>
			<circle fill="#B5DDF7" cx="66.995" cy="125.678" r="0.942"/>
		</g>
		<g>
			<circle fill="none" stroke="#D2E8F9" stroke-miterlimit="10" cx="103.468" cy="179.938" r="2.37"/>
			<circle fill="none" stroke="#D2E8F9" stroke-miterlimit="10" cx="455.12" cy="136.103" r="2.37"/>
			<circle fill="none" stroke="#D2E8F9" stroke-miterlimit="10" cx="268.545" cy="69.715" r="2.37"/>
			<circle fill="none" stroke="#D2E8F9" stroke-miterlimit="10" cx="265.702" cy="249.88" r="2.37"/>
			<g>
				
					<line fill="none" stroke="#D2E8F9" stroke-linecap="round" stroke-linejoin="round" stroke-miterlimit="10" x1="320.914" y1="110.386" x2="320.914" y2="115.745"/>
				
					<line fill="none" stroke="#D2E8F9" stroke-linecap="round" stroke-linejoin="round" stroke-miterlimit="10" x1="323.594" y1="113.065" x2="318.234" y2="113.065"/>
			</g>
			<g>
				
					<line fill="none" stroke="#D2E8F9" stroke-linecap="round" stroke-linejoin="round" stroke-miterlimit="10" x1="417.109" y1="41.907" x2="417.109" y2="47.269"/>
				
					<line fill="none" stroke="#D2E8F9" stroke-linecap="round" stroke-linejoin="round" stroke-miterlimit="10" x1="419.789" y1="44.589" x2="414.429" y2="44.589"/>
			</g>
			<g>
				
					<line fill="none" stroke="#D2E8F9" stroke-linecap="round" stroke-linejoin="round" stroke-miterlimit="10" x1="565.933" y1="186.481" x2="565.933" y2="191.843"/>
				
					<line fill="none" stroke="#D2E8F9" stroke-linecap="round" stroke-linejoin="round" stroke-miterlimit="10" x1="568.611" y1="189.163" x2="563.251" y2="189.163"/>
			</g>
		</g>
	</g>
	<g>
		<g>
			<g>
				<path fill="#26387A" d="M369.028,339.698c0,0-9.977,4.256-9.968,6.385c0.004,1.221,13.717-0.525,14.543-1.354
					c1.322-1.322-0.535-4.848-0.535-4.848L369.028,339.698z"/>
				<path fill="#FFB288" d="M368.388,333.749l0.64,6.133c0,0,0.33,0.992,1.727,1.102c1.395,0.111,2.313-1.102,2.313-1.102
					l-0.493-7.676"/>
				<g>
					<path fill="#26387A" d="M385.811,193.079c3.627,14.623,2.281,22.049-3.035,33.078c-3.22,37.082-5.47,74.021-9.804,110.18
						l-4.583,0.262c-10.412-35.205-19.989-87.832-18.769-135.941"/>
				</g>
				<g>
					<path fill="none" stroke="#0061A6" stroke-width="0.5" stroke-miterlimit="10" d="M383.549,198.104
						c1.325,3.395,1.659,7.217,1.544,10.828c-0.179,5.549-2.432,10.57-3.893,15.832c-1.948,7.018-2.097,14.006-2.63,21.199
						c-0.833,11.254-1.688,22.508-2.544,33.76c-1.399,18.352-2.811,36.703-4.232,55.053c-0.042,0.545-0.085,1.09-0.126,1.635"/>
				</g>
			</g>
			<g>
				<path fill="#26387A" d="M408.806,341.126c0,0-9.977,4.256-9.968,6.385c0.004,1.221,13.717-0.527,14.543-1.354
					c1.322-1.322-0.535-4.848-0.535-4.848L408.806,341.126z"/>
				<path fill="#FFB288" d="M408.167,335.177l0.64,6.133c0,0,0.33,0.992,1.727,1.102c1.395,0.109,2.313-1.102,2.313-1.102
					l-0.493-7.676"/>
				<g>
					<path fill="#26387A" d="M418.983,191.843c4.589,14.348,3.736,21.848-0.837,33.205c-0.76,37.215-3.321,76.076-5.251,112.441
						h-4.712c-12.719-34.438-26.341-87.609-28.306-135.689"/>
				</g>
				<g>
					<path fill="none" stroke="#0061A6" stroke-width="0.5" stroke-miterlimit="10" d="M416.71,197.784
						c0,0,5.319,12.447-3.672,29.928c-1.037,16.498-1.571,109.777-1.571,109.777"/>
					<path fill="none" stroke="#0061A6" stroke-width="0.5" stroke-miterlimit="10" d="M403.554,201.728
						c0.912,1.412,2.353,2.412,3.902,3.033c1.548,0.623,3.209,0.896,4.864,1.102c1.966,0.246,3.949,0.4,5.93,0.305"/>
					<path fill="none" stroke="#0061A6" stroke-width="0.5" stroke-miterlimit="10" d="M404.205,204.058
						c1.702,1.543,3.869,2.49,6.096,3.004c2.227,0.514,4.525,0.619,6.809,0.645"/>
				</g>
			</g>
		</g>
		<g>
			<g>
				<path fill="#FFB288" d="M364.534,122.494c-15.867,27.608-32.946,52.61-43.071,82.8l-3.017-1.604
					c0.771-28.029,9.855-68.787,21.785-94.163"/>
			</g>
			<g>
				<path fill="#D9F0FF" d="M356.78,93.663c0,0-4.911,1.378-10.681,5.217c-5.432,3.613-9.543,8.988-12.335,14.885
					c-2.792,5.895-4.329,12.313-5.312,18.762c0,0,6.642,3.319,14.252,4.271c7.612,0.951,15.71,0,15.71,0"/>
			</g>
		</g>
		<g>
			<g>
				<path fill="#D9F0FF" d="M344.95,109.981c-1.688,29.858-0.4,60.572,0.358,89.619c0,0,10.41,2.77,35.708,2.77
					c25.202,0,41.705-7.682,41.705-7.682c-4.883-29.85-8.767-66.475-20.724-91.047c0,0-13.494-14.556-26.807-15.154
					c-2.677-0.119-5.347,0.86-7.899,2.047c-1.878,0.873-10.51,2.982-10.51,2.982L344.95,109.981z"/>
			</g>
			<path fill="none" stroke="#94C1F2" stroke-width="0.5" stroke-miterlimit="10" d="M344.808,112.644
				c-0.661,5.739-0.661,23.459-0.661,23.459"/>
		</g>
		<g>
			<path fill="none" stroke="#B4E8FD" stroke-width="5" stroke-linecap="round" stroke-linejoin="round" stroke-miterlimit="10" d="
				M369.968,208.997c42.262-4.686,59.988,48.879,69.611,69.658c22.749,49.117,108.575,43.641,147.684,43.641
				c51.225,0,73.709,17.264,49.798,26.318"/>
			<path fill="#FDAE2B" d="M384.531,211.417c0,21.74-16.454,34.859-30.517,34.859h-23.068v-69.721h23.068
				C368.078,176.556,384.531,189.675,384.531,211.417z"/>
			<path fill="#EF8417" d="M372.646,211.417c0,21.242-12.58,38.463-28.096,38.463h-25.453v-76.93h25.453
				C360.066,172.95,372.646,190.173,372.646,211.417z"/>
			<path opacity="0.5" fill="#FDAE2B" d="M378.284,190.401c-5.505,7.5-10.881,15.094-16.078,22.811
				c0.737-0.145,1.43-0.506,1.966-1.029c-0.001,0.578-0.921,1.576-0.105,1.949c0.813,0.371,1.676-0.584,2.526-0.322
				c0.798-0.188,1.542-1.188,2.126-1.764c-0.262,0.596-0.318,1.025-0.356,1.346c5.615-2.184,10.637-7.418,15.004-11.633
				C382.293,197.474,380.523,193.673,378.284,190.401z"/>
			<ellipse fill="#FFC840" cx="320.914" cy="211.417" rx="28.096" ry="38.463"/>
			<g>
				<g>
					<ellipse fill="#EF8417" cx="318.446" cy="225.048" rx="4.817" ry="5.715"/>
				</g>
				<g>
					<ellipse fill="#EF8417" cx="318.446" cy="197.784" rx="4.817" ry="5.717"/>
				</g>
			</g>
		</g>
		<g>
			<g>
				<path fill="#FFB288" d="M409.684,132.018c0,0,1.784,18.17-6.341,33.278c-6.947,12.922-20.749,29.645-31.899,38.859l-2.678-0.654
					c3.879-14.891,16.129-41.333,16.891-51.248c0.762-9.914,0.579-21.401,0.762-26.924"/>
			</g>
			<path fill="#D9F0FF" d="M375.189,88.489c0,0,14.954,1.021,23.629,8.352c12.386,10.465,14.22,30.947,14.22,35.705
				c-3.743,4.044-11.926,4.252-17.89,4.252c-5.963,0-10.321-2.854-10.321-2.854l-1.216-22.596"/>
			<g>
				<path fill="#FFB288" d="M369.853,201.29c-1.702,0.168-3.351,0.994-4.782,2.111c-1.311,1.025-2.921,2.738-2.753,3.521
					c0.178,0.824,2.324-0.76,2.586-0.441c0.261,0.32-3.676,6.266-2.935,6.711c0.742,0.445,4.09-4.941,4.09-4.941
					s-3.251,5.754-1.993,5.881c1.052,0.105,3.938-5.34,3.938-5.34s-2.441,4.869-1.605,5.051c0.835,0.184,3.1-4.666,3.1-4.666
					s-1.842,4.145-1.136,4.215c0.356,0.035,2.175-2.027,2.935-4.521c0.747-2.457,1.621-4.588,0.946-6.506"/>
			</g>
			
				<line fill="none" stroke="#94C1F2" stroke-width="0.5" stroke-miterlimit="10" x1="385.454" y1="113.724" x2="385.454" y2="134.309"/>
		</g>
		<g>
			<g>
				<path fill="#26387A" d="M344.198,69.499c-0.078,0.893-0.114,1.788-0.107,2.684c0.015,1.939,0.266,3.973,1.382,5.56
					c0.768,1.09,1.923,1.901,3.209,2.252c0.91,0.248,2.103,0.142,2.494-0.716c0.138-0.304,0.145-0.648,0.144-0.981
					c-0.011-3.319-0.658-6.634-1.895-9.714"/>
			</g>
			<g>
				<path fill="#FFB288" d="M366.763,71.37c-1.281-5.001-5.316-12.006-11.883-10.6c-4.122,0.883-7.92,3.693-9.132,7.625
					c-1.448,4.696,0.9,10.159,3.714,13.991c1.039,1.415,2.268,2.762,3.873,3.591c3.8,1.965,8.93,0.354,11.511-2.919
					C367.425,79.786,367.778,75.329,366.763,71.37z"/>
			</g>
			<path fill="#FFB288" d="M357.556,84.446l2.145,7.84l-2.921,1.377c0,0,2.228,2.962,6.633,2.326c8.959-1.291,11.776-7.5,11.776-7.5
				l-5.056-0.529l-5.599-9.544"/>
			<g>
				<path fill="#26387A" d="M371.135,65.914c-0.628-3.438-3.077-6.354-6.062-8.167c-5.304-3.221-12.85-3.479-17.571,0.957
					c-2.688,2.526-7.525,11.482-1.745,13.259c1.805,0.555,3.664-0.544,5.233-1.593c1.599-1.068,3.197-2.137,4.795-3.205
					c0.573-0.383,1.185-0.779,1.873-0.807c1.13-0.046,2.068,0.934,2.472,1.99c0.404,1.055,0.435,2.213,0.697,3.313
					c0.187,0.777,0.528,1.574,1.201,2.006c0.673,0.431,1.735,0.305,2.077-0.418c0.237-0.502,0.069-1.09,0.06-1.645
					c-0.011-0.556,0.301-1.235,0.856-1.211c0.198,0.009,0.38,0.111,0.537,0.232c1.395,1.086,0.942,3.264,1.405,4.971
					c0.061,0.225-0.406,3.678-0.251,3.852C371.166,78.416,371.585,68.376,371.135,65.914z"/>
			</g>
			<g>
				<path fill="#FFB288" d="M364.544,70.833c-0.1-0.633,0.502-1.217,1.138-1.285c0.637-0.066,1.255,0.255,1.746,0.666
					c0.837,0.697,1.442,1.722,1.459,2.811c0.014,0.854-0.326,1.682-0.793,2.396c-0.319,0.486-0.729,0.955-1.284,1.13
					c-0.708,0.223-1.502-0.101-2.011-0.642"/>
			</g>
		</g>
	</g>
	<g>
		<g>
			<g>
				<path fill="#26387A" d="M205.637,339.481c0,0,9.623,1.605,9.888,3.719c0.152,1.211-13.488,2.654-14.414,1.941
					c-1.481-1.141,0.336-5.414,0.336-5.414L205.637,339.481z"/>
				<path fill="#FFB288" d="M204.873,333.581l0.788,6.082c0,0-0.201,1.025-1.57,1.314c-1.37,0.289-2.436-0.797-2.436-0.797
					l-1.132-7.592"/>
				<g>
					<path fill="#26387A" d="M168.899,194.958c-1.72,14.967-1.814,22.156,4.875,32.412c3.17,14.482,8.036,29.305,11.714,44.129
						c-1.583,17.705,9.516,45.904,15.487,66.047l4.316-0.738c5.802-36.25,7.945-91.842,2.738-140.506"/>
				</g>
				<path fill="none" stroke="#0061A6" stroke-width="0.5" stroke-miterlimit="10" d="M171.707,215.235
					c0,0,16.556,52.563,16.556,55.416c0,2.855,0.452,12.666,1.186,19.027c1.344,11.654,11.904,46.006,11.904,46.006"/>
				<polygon fill="#0061A6" points="200.838,338.354 200.171,335.728 205.734,335.522 205.809,337.946 				"/>
			</g>
			<g>
				<path fill="#26387A" d="M130.8,339.78c0,0,7.53,5.439,6.863,7.355c-0.383,1.096-12.629-3.441-13.117-4.441
					c-0.781-1.602,2.576-4.477,2.576-4.477L130.8,339.78z"/>
				<path fill="#FFB288" d="M132.644,334.423l-1.901,5.521c0,0-0.605,0.791-1.896,0.457c-1.29-0.332-1.742-1.709-1.742-1.709
					l2.247-6.955"/>
				<g>
					<path fill="#26387A" d="M136.557,191.843c-4.587,14.348-3.735,21.848,0.838,33.205c0.278,13.592,0.415,27.348,0.571,41.104
						c-9.684,24.24-11.219,45.992-9.993,69.076l4.67,1.73c0,0,27.809-48.469,32.923-67.631c5.866-21.977,9.196-45.477,10.097-67.527
						"/>
				</g>
				<path fill="none" stroke="#0061A6" stroke-width="0.5" stroke-miterlimit="10" d="M137.704,194.958
					c0,0-5.06,14.807,1.576,29.078c0,3.982,2.28,37.1,1.378,42.217c-0.433,2.453-4.978,14.16-8.014,25.557
					c-3.359,12.604-4.068,42.33-4.068,42.33"/>
				<polygon fill="#0061A6" points="127.105,335.224 127.845,332.104 133.822,334.884 132.644,337.556 				"/>
			</g>
		</g>
		<g>
			<path fill="#EF9467" d="M214.338,81.024l-3.746-3.198c0,0,0-5.597,0-6.624c0-1.029-1.394-7.195-2.65-7.195
				s-1.542-1.543-2.17-0.914c-0.628,0.628,0.514,7.596,0,8.109c-0.514,0.514-1.18-3.311-1.656-2.834
				c-0.475,0.475-0.515,3.278-0.515,4.713c0,1.434,1.148,4.078,2.284,5.215c1.136,1.136,6.168,6.574,6.168,6.574L214.338,81.024z"/>
			<g>
				<path fill="#D9F0FF" d="M212.461,78.903l-3.132,3.563c0,0,12.372,16.377,16.291,21.859c-3.574-1.253-8.704-4.389-11.671-6.334
					c-5.82-3.815-11.654-5.839-15.69-5.839c-8.569,0-4.084,28.246,5.857,32.381c18.857,2.836,39.995,1.041,43.232-5.588
					C252.145,109.124,224.503,85.981,212.461,78.903z"/>
			</g>
			<path fill="none" stroke="#94C1F2" stroke-width="0.5" stroke-miterlimit="10" d="M225.62,104.326c0,0,2.36,6.589,6.554,8.739"/>
		</g>
		<g>
			<g>
				<path fill="#D9F0FF" d="M154.961,99.629c-22.48,25.247-22.139,68.657-22.139,98.159c0,0,16.503,11.268,41.704,11.268
					c25.298,0,35.709-6.211,35.709-6.211c0.758-29.895-4.574-42.787,0.357-92.235c0,0-8.044-18.456-12.333-18.456
					c-4.288,0-21.063-1.654-21.063-1.654L154.961,99.629z"/>
			</g>
			<path fill="none" stroke="#94C1F2" stroke-width="0.5" stroke-miterlimit="10" d="M209.348,125.196c0,0,0.511-8.637,2.607-10.732
				"/>
		</g>
		<g>
			<path fill="#FFB288" d="M184.628,71.569c0.836-5.094,4.465-12.37,11.13-11.547c4.185,0.516,7.426,3.406,9.768,6.791
				c2.009,2.901,1.251,5.68-1.609,13.027c-0.91,1.502-2.875,4.187-4.4,5.153c-3.614,2.292-8.866,1.14-11.724-1.895
				C184.934,80.065,183.967,75.602,184.628,71.569z"/>
		</g>
		<g>
			<path fill="#26387A" d="M185.519,70.948c0.959-0.144,0.007-0.768,0.43,0.105c0.271,0.559,0.352,0.721,0.895,0.902
				c0.533,0.179,0.543,0.666,0.989,0.998c0.693,0.517,1.282-0.186,1.574-0.781c0.543-1.104,0.526-2.434,0.398-3.629
				c-0.1-0.939-0.415-2.424,0.506-3.077c0.752-0.533,2.415,0.241,3.189,0.466c1.196,0.346,2.379,0.732,3.57,1.094
				c2.87,0.874,5.902,1.643,8.922,1.235c2.639-0.355,5.366-1.73,6.63-4.175c1.516-2.933-1.514-6.764-4.601-6.769
				c-0.808-0.001-1.576,0.325-2.367,0.489c-0.292,0.061-0.6,0.098-0.886,0.014c-0.673-0.199-0.971-0.957-1.351-1.547
				c-1.144-1.779-3.099-2.324-5.115-2.104c-2.286,0.25-4.238,1.348-6.415,1.941c-1.153,0.314-2.152,0.017-3.303,0.054
				c-1.19,0.038-2.408,0.819-2.933,1.915c-0.933-0.977-3.015,1.418-3.533,2.049c-2.278,2.771-2.998,6.766-3.061,10.27
				c-0.055,3.064,0.457,7.523,3.817,8.758c1.421,0.521,2.315,0.799,2.376-0.504c-0.624-1.352-0.768-4.031-0.897-5.157
				c-0.129-1.126,0.203-2.47,1.247-2.91"/>
		</g>
		<path fill="#FFB288" d="M196.46,83.737l-0.732,7.699l2.53,0.717c0,0-1.338,3.456-5.749,4.044
			c-8.973,1.196-15.313-5.698-15.313-5.698l2.996-0.578l4.533-14.296"/>
		<g>
			<path fill="#FFB288" d="M187.017,70.894c0.044-0.638-0.607-1.166-1.247-1.178c-0.64-0.012-1.228,0.363-1.681,0.815
				c-2.51,2.497,0.644,8.588,3.12,5.442"/>
		</g>
		<g>
			<path fill="#26387A" d="M203.931,79.708c-0.402,0.943-1.993,1.319-2.866,1.416c-4.22,0.466-7.722-2.262-11.763-2.762
				c-0.801-0.1-1.713-0.164-2.311,0.377c-0.565,0.514-0.619,1.369-0.633,2.135c-0.018,0.943-0.035,1.891,0.05,2.832
				c0.072,0.813,0.229,1.639,0.65,2.339c1.825,3.038,7.913,3.551,11,3.362c1.247-0.076,2.541-0.314,3.521-1.055
				c1.389-1.048,1.69-2.879,2.208-4.49C204.43,81.876,203.931,79.708,203.931,79.708z"/>
		</g>
		<g>
			<path fill="#FFB288" d="M200.936,83.024c-0.133-0.088-0.289-0.162-0.448-0.162c-1.971,0-3.063-0.473-4.603-0.592
				c-0.262-0.021-0.531-0.038-0.782,0.037c-0.547,0.168-0.862,0.734-0.973,1.283c-0.112,0.555,0.165,0.982,0.669,1.232
				c0.914,0.453,1.945,0.615,2.955,0.645c0.886,0.025,2.041,0.101,2.769-0.496C200.941,84.63,201.555,83.469,200.936,83.024z"/>
		</g>
		<g>
			<path fill="none" stroke="#B4E8FD" stroke-width="5" stroke-linecap="round" stroke-linejoin="round" stroke-miterlimit="10" d="
				M182.375,194.456c-49.109-2.566-77.699,22.777-98.004,68.939c-26.352,59.906-63.185,64.691-79.774,64.363"/>
			<path fill="#FDAE2B" d="M163.534,198.456c1.807,21.666,19.294,33.371,33.31,32.205l22.987-1.918l-5.795-69.482l-22.988,1.918
				C177.033,162.348,161.726,176.79,163.534,198.456z"/>
			<path fill="#EF8417" d="M175.379,197.468c1.766,21.17,15.733,37.287,31.197,35.996l25.364-2.115l-6.395-76.664l-25.364,2.117
				C184.717,158.091,173.613,176.298,175.379,197.468z"/>
			
				<ellipse transform="matrix(-0.9965 0.0831 -0.0831 -0.9965 469.1301 366.8086)" fill="#FFC840" cx="226.931" cy="193.168" rx="28.096" ry="38.464"/>
			<g>
				<g>
					
						<ellipse transform="matrix(-0.9965 0.0833 -0.0833 -0.9965 477.4572 393.1677)" fill="#FDAE2B" cx="230.524" cy="206.547" rx="4.817" ry="5.716"/>
				</g>
				<g>
					
						<ellipse transform="matrix(-0.9965 0.0833 -0.0833 -0.9965 470.6691 339.1151)" fill="#FDAE2B" cx="228.258" cy="179.379" rx="4.817" ry="5.716"/>
				</g>
			</g>
			<g>
				<path fill="#E2E8ED" d="M229.054,183.341c2.887-0.242,35.851-2.992,35.851-2.992c2.187-0.182,3.81-2.119,3.625-4.328l0,0
					c-0.184-2.209-2.106-3.854-4.292-3.67c0,0-33.108,2.76-35.851,2.99C225.644,175.569,226.167,183.581,229.054,183.341z"/>
				<path fill="#E2E8ED" d="M231.32,210.509c2.888-0.242,35.852-2.992,35.852-2.992c2.187-0.182,3.81-2.121,3.625-4.328l0,0
					c-0.185-2.211-2.106-3.854-4.293-3.672c0,0-33.109,2.762-35.851,2.99C227.91,202.735,228.433,210.747,231.32,210.509z"/>
			</g>
		</g>
		<g>
			<g>
				<path fill="#FFB288" d="M142.986,132.018c0,0-1.784,18.17,6.34,33.278c6.948,12.922,20.749,29.645,31.899,38.859l2.679-0.654
					c-3.88-14.891-16.13-41.333-16.893-51.248c-0.761-9.914-0.579-21.401-0.761-26.924"/>
			</g>
			<path fill="#D9F0FF" d="M177.196,90.499c0,0-15.757,0.908-24.819,7.755c-15.666,11.836-12.593,43.618-8.032,59.157
				s26.502,38.855,33.589,43.879c1.162,0,4.574-0.289,4.451-2.961c-3.919-12.117-15.092-43.988-15.092-43.988l1.764-42.992"/>
			<g>
				<path fill="#FFB288" d="M182.817,201.29c1.7,0.168,3.349,0.994,4.781,2.111c1.311,1.025,2.921,2.738,2.752,3.521
					c-0.177,0.824-2.324-0.76-2.585-0.441c-0.261,0.32,3.676,6.266,2.935,6.711c-0.742,0.445-4.09-4.941-4.09-4.941
					s3.252,5.754,1.994,5.881c-1.052,0.105-3.938-5.34-3.938-5.34s2.44,4.869,1.605,5.051c-0.836,0.184-3.099-4.666-3.099-4.666
					s1.841,4.145,1.135,4.215c-0.356,0.035-2.175-2.027-2.934-4.521c-0.748-2.457-1.621-4.588-0.947-6.506"/>
			</g>
			<path fill="none" stroke="#94C1F2" stroke-width="0.5" stroke-miterlimit="10" d="M171.709,167.005
				c-2.512-7.231-4.416-12.664-4.416-12.664l3.31-36.083"/>
			<path fill="none" stroke="#94C1F2" stroke-width="0.5" stroke-miterlimit="10" d="M140.749,127.022
				c-0.091,9.787,1.088,21.842,3.597,30.389c2.195,7.479,8.417,16.76,15.071,24.936"/>
		</g>
	</g>
	<g>
		<path fill="#FFB288" d="M477.745,73.876l2.532-1.732c0,0,1.175-5.512,1.823-6.501c0.686-1.048,1.99-3.214,3.467-4.212
			c0.617-0.416,3.438-2.013,4.15-1.3c0.35,0.35-0.839,3.541-1.385,4.087c-0.546,0.547-2.152,2.99-1.901,3.756
			s1.584-0.909,1.901-1.226s0.742-0.708,0.889-0.301c0.248,0.681-1.178,4.521-2.291,5.636c-1.115,1.115-2.922,2.168-4.181,2.168
			l-3.933,3.475"/>
		<g>
			<path fill="#26387A" d="M508.262,55.727c4.189,2.47,6.783,7.118,7.786,11.773c0.182,0.837,0.335,1.735,0.913,2.366
				c0.459,0.502,1.117,0.758,1.734,1.044c3.475,1.608,6.133,4.759,7.354,8.362c0.521,1.539,0.114,3.715,0.719,5.028
				c0.744,1.61,3.482,1.976,4.953,2.464c4.401,1.459,7.64,5.893,7.688,10.531c0.047,4.637-3.097,9.138-7.47,10.688
				c1.176,1.647,1.343,3.868,0.797,5.817c-0.546,1.95-1.73,3.661-3.071,5.179c-5.544,6.271-14.093,9.624-22.456,9.264
				c-2.41-0.104-4.826-0.502-7.058-1.414c-2.53-1.032-4.75-2.69-6.882-4.398c-2.571-2.059-5.135-4.314-6.522-7.302
				s-1.293-6.897,1.054-9.208c-2.712,0.564-5.608-0.908-7.134-3.221s-1.803-5.297-1.191-8c0.612-2.701,2.039-5.156,3.697-7.375
				c1.165-1.559,2.504-3.137,2.75-5.066c0.413-3.221-1.385-6.099-1.853-9.302c-0.728-4.985-0.502-9.269,3.768-11.919
				c1.367-3.551,3.025-6.289,6.955-7.334C499.453,52.465,504.091,53.269,508.262,55.727z"/>
		</g>
		<path fill="#B6E9FE" d="M497.998,93.602c-14.235-3.728-30.531,2.159-34.161,2.143c4.972-4.973,14.102-16.044,17.254-19.87
			c0-2.627-1.595-3.361-1.595-3.361s-39.045,20.189-35.121,33.373c4.096,13.764,42.348,7.01,45.404,10.961"/>
		<g>
			<path fill="#FFB288" d="M500.787,221.739c-0.043,1.164-5.141,26.23-5.516,28.922c-1.091,7.834,3.046,15.689,2.644,27.834
				c-0.489,14.766-6.769,54.447-7.566,56.207c-0.797,1.758-4.626,0.146-4.626,0.146s-11.038-53.232-11.66-75.016
				c-0.513-17.943,2.094-56.773,2.094-56.773"/>
			<path fill="#26387A" d="M490.739,335.382c0,0,0.641,1.348,0.612,1.957c-0.082,1.654-0.135,2.781-0.135,2.781l-0.718,0.049
				l-0.25-1.35c0,0-1.909,0.334-3.852,1.611c-0.942,0.619-5.673,0.563-6.402,0.18c-0.815-0.434-0.583-1.209-0.309-1.525
				c0.273-0.318,5.392-2.553,5.392-2.553"/>
			<path fill="#FFB288" d="M485.722,334.849c-0.414,1-4.458,3.203-4.085,3.5c0.372,0.295,2.723,0.309,5.331-0.561
				c2.376-0.789,3.721-1.676,3.797-2.299l-0.454-1.672"/>
		</g>
		<g>
			<path fill="#FFB288" d="M536.21,222.78c-0.006,1.168-4.34,26.377-4.633,29.078c-0.852,7.861,3.523,15.59,3.493,27.74
				c-0.039,14.771-5.106,54.627-5.851,56.41c-0.744,1.785-4.621,0.287-4.621,0.287s-12.652-52.871-13.939-74.625
				c-1.061-17.918,0.363-56.811,0.363-56.811"/>
			<path fill="#26387A" d="M529.632,336.679c0,0,0.681,1.326,0.67,1.936c-0.031,1.654-0.051,2.785-0.051,2.785l-0.717,0.07
				l-0.289-1.342c0,0-1.898,0.393-3.802,1.729c-0.923,0.646-5.651,0.736-6.394,0.373c-0.827-0.406-0.618-1.189-0.355-1.514
				c0.264-0.326,5.311-2.717,5.311-2.717"/>
			<path fill="#FFB288" d="M524.599,336.296c-0.382,1.014-4.357,3.338-3.975,3.623c0.379,0.285,2.731,0.227,5.31-0.721
				c2.353-0.863,3.671-1.789,3.727-2.414l-0.505-1.656"/>
		</g>
		<path fill="#2858AD" d="M523.339,158.312c0,0,11.311,7.408,15.622,25.184c5.813,23.969-2.751,70.904-2.751,70.904
			s-17.717,5.178-36.987,5.014c-19.272-0.164-30.688-6.674-30.726-7.84c-0.036-1.166-2.874-36.697,1.042-60.805
			c4.396-27.059,15.591-34.351,15.591-34.351"/>
		<g>
			<g>
				<path fill="#B6E9FE" d="M508.002,93.147c1.753-0.652,6.304,0.941,14.818,4.205c3.743,4.049,5.386,12.92,6.19,20.773
					c-2.21,19.113-4.677,29.55-3.486,36c0.281,1.527,1.684,2.686,1.457,4.817c-0.459,4.405-7.678,5.075-21.379,6.632
					c-13.702,1.555-26.036-4.667-25.294-6.613c0.74-1.943,3.075-3.645,3.446-4.934c0.371-1.288,1.489-17.662,0.008-19.606
					c-1.481-1.946-5.301-7.536-5.301-12.98c0-7.665,4.22-11.104,6.982-15.317c4.602-7.02,8.098-11.422,12.555-12.522
					C505.129,91.841,508.002,93.147,508.002,93.147z"/>
			</g>
			<path fill="none" stroke="#6CB1EF" stroke-width="0.5" stroke-miterlimit="10" d="M484.943,102.837c0,0,0.5,3.287-1.18,6.033
				c-0.516,0.844-3.627,4.014-4.238,6.033"/>
		</g>
		<g>
			<path fill="#FFB288" d="M504.723,83.819c3.741-3.715,4.333-10.764,2.631-15.527c-1.914-5.363-9.554-9.381-14.815-6.021
				C482.21,68.864,492.69,95.771,504.723,83.819z"/>
		</g>
		<path fill="#FFB288" d="M497.605,83.163l0.194,11.47c0,0-0.429,2.552,4.055,2.71c6.148,0.22,6.148-4.195,6.148-4.195
			l-3.557-11.818"/>
		<g>
			<path fill="#26387A" d="M502.254,57.205c-1.263-0.835-2.617-0.87-3.923-0.095c-0.798,0.475-1.359,1.26-2.209,1.638
				c-0.604,0.269-1.322,0.313-1.957,0.485c-2.981,0.809-5.807,3.086-7.064,5.926c-1.264,2.856-0.86,7.504,1.506,9.543
				c-0.103-2.209,0.559-5.385,1.738-7.256c0.619-0.982,1.594-1.949,2.747-1.818c1.293,0.146,1.997,1.529,2.931,2.438
				c1.415,1.377,3.445,1.656,5.312,1.935c2.114,0.315,3.745,0.688,4.786,2.763c0.455,0.902,0.7,1.891,0.942,2.871
				c0.289,1.164,0.579,2.335,0.647,3.531c0.042,0.744,0.001,1.51,0.235,2.218c0.465,1.415,1.905,2.271,3.316,2.746
				c1.084,0.365,2.909,0.705,3.59-0.524c0.568-1.025,1.059-2.471,1.254-3.625c0.648-3.853-0.573-7.844-2.65-11.152
				c-2.281-3.63-5.529-6.063-8.459-9.084C504.099,58.819,503.214,57.839,502.254,57.205z"/>
		</g>
		<g>
			<path fill="#FFB288" d="M505.136,74.859c0.226-0.875,0.873-1.767,1.774-1.903c2.921-0.443,2.479,3.918,1.349,5.451
				c-0.658,0.893-2.356,2.061-3.123-0.42"/>
		</g>
		<g>
			<path fill="#FFB288" d="M536.122,164.169l-1.377,2.938c0,0-5.185,1.232-5.733,2.146c-0.869,1.443-2.171,3.438-2.171,4.572
				s0.108,6.113,1.53,6.113c0.892,0,2.979-4.061,3.411-4.629c1.015-1.342,5.114-2.314,5.114-5.848l2.512-5.293"/>
			<path fill="#B6E9FE" d="M508.002,92.996c0,0,12.099-3.079,21.552,2.887c7.351,4.637,26.256,27.705,26.258,40.917
				c0,8.906-17.684,30.969-17.684,30.969l-2.936-2.098c0,0,1.712-17.34,6.852-26.896c-3.791-3.79-18.574-15.564-22.285-19.276"/>
			<path fill="none" stroke="#6CB1EF" stroke-width="0.5" stroke-miterlimit="10" d="M517.837,118.278
				c2.643,2.348,9.604,7.952,9.604,7.952"/>
		</g>
	</g>
	<g>
		<g>
			<path fill="#E7F5FE" d="M161.093,72.565l-14.619-11.78c0,0,6.573-24.278-2.128-32.757c-4.63-4.512-10.484-7.589-16.529-9.883
				c-13.451-5.105-29.52-6.264-41.507,1.691C77.466,25.705,72.092,35.763,69.685,46.1c-2.119,9.102-1.941,19.445,3.749,26.857
				c2.556,3.329,6.055,5.833,9.773,7.781c11.566,6.061,42.16,8.349,55.435-0.547c3.675-2.464,3.352-5.793,4.893-10.997
				L161.093,72.565z"/>
		</g>
		<text transform="matrix(1 0 0 1 80.5532 58.7822)" fill="#94C1F2" font-family="'OpenSans-Semibold'" font-size="23.9945">Oops!</text>
	</g>
</g>
</svg>
