<?xml version="1.0" encoding="utf-8"?>
<!-- Generator: Adobe Illustrator 16.0.0, SVG Export Plug-In . SVG Version: 6.00 Build 0)  -->
<!DOCTYPE svg PUBLIC "-//W3C//DTD SVG 1.1//EN" "http://www.w3.org/Graphics/SVG/1.1/DTD/svg11.dtd">
<svg version="1.1" id="Layer_1" xmlns="http://www.w3.org/2000/svg" xmlns:xlink="http://www.w3.org/1999/xlink" x="0px" y="0px"
	 width="750px" height="500px" viewBox="0 0 750 500" enable-background="new 0 0 750 500" xml:space="preserve">
<g id="Background">
	<rect x="125" display="none" fill="#FFFFFF" width="500" height="500"/>
</g>
<g id="Objects">
	<g>
		<g>
			<defs>
				<polyline id="SVGID_1_" points="750.475,-0.542 750.475,499.459 0.475,499.459 				"/>
			</defs>
			<clipPath id="SVGID_2_">
				<use xlink:href="#SVGID_1_"  overflow="visible"/>
			</clipPath>
			<g clip-path="url(#SVGID_2_)">
				
					<linearGradient id="SVGID_3_" gradientUnits="userSpaceOnUse" x1="89.1157" y1="-297.4834" x2="87.2139" y2="-291.4215" gradientTransform="matrix(-0.7071 0.7071 -0.7071 -0.7071 326.0695 608.8202)">
					<stop  offset="0" style="stop-color:#00DFFF"/>
					<stop  offset="1" style="stop-color:#A5B2EC;stop-opacity:0"/>
				</linearGradient>
				<line opacity="0.29" fill="url(#SVGID_3_)" enable-background="new    " x1="474.139" y1="866.729" x2="473.436" y2="899.109"/>
				<g>
					<g>
						
							<radialGradient id="SVGID_4_" cx="1077.2559" cy="1392.8457" r="7.6996" gradientTransform="matrix(0.7086 -0.7057 0.7057 0.7086 -1304.7949 531.6178)" gradientUnits="userSpaceOnUse">
							<stop  offset="0" style="stop-color:#CCCDE8"/>
							<stop  offset="0.6237" style="stop-color:#CECFE3"/>
							<stop  offset="1" style="stop-color:#ECB9AF;stop-opacity:0"/>
						</radialGradient>
						
							<line opacity="0.29" fill="url(#SVGID_4_)" enable-background="new    " x1="440.037" y1="769.162" x2="442.924" y2="747.576"/>
						
							<linearGradient id="SVGID_5_" gradientUnits="userSpaceOnUse" x1="1051.2461" y1="1085.8916" x2="1051.2461" y2="1074.3048" gradientTransform="matrix(0.7086 -0.7057 0.7057 0.7086 -1304.7949 531.6178)">
							<stop  offset="0.0018" style="stop-color:#FFFFFF;stop-opacity:0"/>
							<stop  offset="0.6927" style="stop-color:#66C2E9;stop-opacity:0.6922"/>
							<stop  offset="1" style="stop-color:#27A9E0"/>
						</linearGradient>
						
							<line opacity="0.29" fill="url(#SVGID_5_)" enable-background="new    " x1="201.449" y1="563.447" x2="203.627" y2="547.166"/>
						
							<linearGradient id="SVGID_6_" gradientUnits="userSpaceOnUse" x1="1051.2773" y1="557.3223" x2="1051.2773" y2="545.7343" gradientTransform="matrix(0.7086 -0.7057 0.7057 0.7086 -1304.7949 531.6178)">
							<stop  offset="0.0018" style="stop-color:#FFFFFF;stop-opacity:0"/>
							<stop  offset="0.6927" style="stop-color:#66C2E9;stop-opacity:0.6922"/>
							<stop  offset="1" style="stop-color:#27A9E0"/>
						</linearGradient>
						
							<line opacity="0.29" fill="url(#SVGID_6_)" enable-background="new    " x1="-169.363" y1="172.6" x2="-171.539" y2="188.881"/>
						
							<radialGradient id="SVGID_7_" cx="1123.8574" cy="1313.1504" r="5.807" gradientTransform="matrix(0.7086 -0.7057 0.7057 0.7086 -1304.7949 531.6178)" gradientUnits="userSpaceOnUse">
							<stop  offset="0" style="stop-color:#CCCDE8"/>
							<stop  offset="0.6237" style="stop-color:#CECFE3"/>
							<stop  offset="1" style="stop-color:#ECB9AF;stop-opacity:0"/>
						</radialGradient>
						<line opacity="0.29" fill="url(#SVGID_7_)" enable-background="new    " x1="417.172" y1="677.15" x2="419.35" y2="660.869"/>
						
							<radialGradient id="SVGID_8_" cx="1025.0879" cy="1171.4648" r="7.6991" gradientTransform="matrix(0.7086 -0.7057 0.7057 0.7086 -1304.7949 531.6178)" gradientUnits="userSpaceOnUse">
							<stop  offset="0" style="stop-color:#CCCDE8"/>
							<stop  offset="0.6237" style="stop-color:#CECFE3"/>
							<stop  offset="1" style="stop-color:#ECB9AF;stop-opacity:0"/>
						</radialGradient>
						
							<line opacity="0.29" fill="url(#SVGID_8_)" enable-background="new    " x1="246.844" y1="649.105" x2="249.729" y2="627.521"/>
						
							<radialGradient id="SVGID_9_" cx="1025.1279" cy="470.6602" r="7.6987" gradientTransform="matrix(0.7086 -0.7057 0.7057 0.7086 -1304.7949 531.6178)" gradientUnits="userSpaceOnUse">
							<stop  offset="0" style="stop-color:#CCCDE8"/>
							<stop  offset="0.6237" style="stop-color:#CECFE3"/>
							<stop  offset="1" style="stop-color:#ECB9AF;stop-opacity:0"/>
						</radialGradient>
						
							<line opacity="0.29" fill="url(#SVGID_9_)" enable-background="new    " x1="-244.801" y1="130.902" x2="-247.688" y2="152.487"/>
					</g>
					
						<linearGradient id="SVGID_10_" gradientUnits="userSpaceOnUse" x1="108.1953" y1="-40.707" x2="108.6099" y2="-40.3534" gradientTransform="matrix(-0.7071 0.7071 -0.7071 -0.7071 326.0695 608.8202)">
						<stop  offset="0" style="stop-color:#CCCDE8"/>
						<stop  offset="0.6237" style="stop-color:#CECFE3"/>
						<stop  offset="1" style="stop-color:#ECB9AF;stop-opacity:0"/>
					</linearGradient>
					
						<line opacity="0.29" fill="url(#SVGID_10_)" enable-background="new    " x1="280.648" y1="697.766" x2="279.945" y2="730.146"/>
				</g>
			</g>
		</g>
		<g>
			<defs>
				<polyline id="SVGID_11_" points="750.475,-0.542 750.475,499.459 0.475,499.459 				"/>
			</defs>
			<clipPath id="SVGID_12_">
				<use xlink:href="#SVGID_11_"  overflow="visible"/>
			</clipPath>
		</g>
		<g>
			<defs>
				<polyline id="SVGID_13_" points="750.475,-0.542 750.475,499.459 0.475,499.459 				"/>
			</defs>
			<clipPath id="SVGID_14_">
				<use xlink:href="#SVGID_13_"  overflow="visible"/>
			</clipPath>
		</g>
		<g>
			<defs>
				<polyline id="SVGID_15_" points="750.475,-0.542 750.475,499.459 0.475,499.459 				"/>
			</defs>
			<clipPath id="SVGID_16_">
				<use xlink:href="#SVGID_15_"  overflow="visible"/>
			</clipPath>
		</g>
		<g>
			<defs>
				<polyline id="SVGID_17_" points="750.475,-0.542 750.475,499.459 0.475,499.459 				"/>
			</defs>
			<clipPath id="SVGID_18_">
				<use xlink:href="#SVGID_17_"  overflow="visible"/>
			</clipPath>
		</g>
		<g>
			<defs>
				<polyline id="SVGID_19_" points="750.475,-0.542 750.475,499.459 0.475,499.459 				"/>
			</defs>
			<clipPath id="SVGID_20_">
				<use xlink:href="#SVGID_19_"  overflow="visible"/>
			</clipPath>
		</g>
		<g>
			<defs>
				<polyline id="SVGID_21_" points="750.475,-0.542 750.475,499.459 0.475,499.459 				"/>
			</defs>
			<clipPath id="SVGID_22_">
				<use xlink:href="#SVGID_21_"  overflow="visible"/>
			</clipPath>
		</g>
		<g>
			<defs>
				<polyline id="SVGID_23_" points="750.475,-0.542 750.475,499.459 0.475,499.459 				"/>
			</defs>
			<clipPath id="SVGID_24_">
				<use xlink:href="#SVGID_23_"  overflow="visible"/>
			</clipPath>
			<g clip-path="url(#SVGID_24_)">
				<g opacity="0.5">
					<path fill="#9FCFFF" d="M-225.99,320.758c0.229,0.713-0.182,1.465-0.895,1.676s-1.467-0.189-1.678-0.914
						c-0.211-0.701,0.191-1.455,0.904-1.666C-226.945,319.633-226.193,320.035-225.99,320.758z"/>
					<path opacity="0.29" fill="#9FCFFF" enable-background="new    " d="M221.676,392.291c0.25,0.842-0.221,1.725-1.074,1.988
						c-0.842,0.25-1.736-0.23-1.988-1.074c-0.25-0.854,0.23-1.736,1.074-1.998C220.531,390.957,221.424,391.438,221.676,392.291z"/>
					<path opacity="0.29" fill="#9FCFFF" enable-background="new    " d="M216.193,442.615c0.211,0.701-0.191,1.436-0.883,1.656
						c-0.703,0.199-1.445-0.201-1.656-0.895c-0.201-0.703,0.191-1.436,0.895-1.656C215.25,441.52,215.984,441.912,216.193,442.615z"
						/>
					<path opacity="0.29" fill="#9FCFFF" enable-background="new    " d="M457.018,192.364c0.25,0.843-0.221,1.727-1.064,1.977
						c-0.842,0.252-1.736-0.229-1.986-1.073c-0.252-0.844,0.229-1.728,1.072-1.978C455.883,191.038,456.768,191.521,457.018,192.364
						z"/>
					<path opacity="0.29" fill="#9FCFFF" enable-background="new    " d="M467.357,206.829c0.221,0.713-0.191,1.476-0.904,1.696
						c-0.721,0.211-1.484-0.2-1.695-0.914c-0.223-0.721,0.189-1.475,0.914-1.696C466.385,205.693,467.146,206.116,467.357,206.829z"
						/>
				</g>
				<g>
					<path fill="#9FCFFF" d="M43.232-155.398c0.52,0.959,1.727,1.313,2.686,0.795c0.971-0.518,1.318-1.718,0.801-2.676
						c-0.52-0.973-1.719-1.32-2.684-0.809C43.076-157.571,42.715-156.371,43.232-155.398z"/>
					<path fill="#9FCFFF" d="M46.434-149.188c0.568,1.065,1.896,1.455,2.961,0.888c1.066-0.583,1.453-1.896,0.887-2.961
						c-0.576-1.057-1.902-1.461-2.959-0.886C46.256-151.58,45.859-150.245,46.434-149.188z"/>
					<path fill="#9FCFFF" d="M52.695-153.915c0.467,0.894,1.582,1.228,2.479,0.745c0.871-0.475,1.205-1.575,0.729-2.463
						c-0.482-0.895-1.59-1.22-2.469-0.752C52.537-155.902,52.203-154.788,52.695-153.915z"/>
					<path fill="#9FCFFF" d="M289.643-145.673c0.525,0.951,1.711,1.314,2.67,0.795c0.965-0.511,1.32-1.718,0.795-2.669
						c-0.512-0.966-1.711-1.327-2.662-0.803C289.486-147.846,289.117-146.64,289.643-145.673z"/>
					<path fill="#9FCFFF" d="M-130.279-102.289"/>
					<path fill="#9FCFFF" d="M-155.207-95.417c-1.145,0.617-1.568,2.036-0.959,3.172c0.617,1.145,2.037,1.57,3.182,0.952
						c1.133-0.61,1.559-2.03,0.943-3.173C-152.652-95.602-154.072-96.027-155.207-95.417"/>
					<path fill="#9FCFFF" d="M-141.912-102.438c0.482,0.908,1.617,1.25,2.533,0.76c0.908-0.497,1.242-1.626,0.76-2.535"/>
					<path opacity="0.29" fill="#9FCFFF" enable-background="new    " d="M-205.514,100.9c0.461,0.844,1.514,1.157,2.357,0.71
						c0.846-0.462,1.164-1.52,0.709-2.372c-0.461-0.83-1.518-1.15-2.355-0.695C-205.656,98.998-205.975,100.056-205.514,100.9z"/>
					<path opacity="0.29" fill="#9FCFFF" enable-background="new    " d="M-208.232-14.227c0.604,1.128,2.002,1.548,3.131,0.944
						c1.121-0.611,1.547-2.017,0.938-3.139c-0.605-1.128-2.01-1.54-3.133-0.943C-208.424-16.747-208.842-15.348-208.232-14.227z"/>
					<path opacity="0.29" fill="#9FCFFF" enable-background="new    " d="M-198.963-25.06c0.549,1.017,1.818,1.393,2.826,0.853
						c1.016-0.547,1.391-1.818,0.852-2.825c-0.545-1.015-1.816-1.392-2.832-0.845C-199.125-27.339-199.502-26.067-198.963-25.06z"/>
					<path opacity="0.29" fill="#9FCFFF" enable-background="new    " d="M-189.57,49.877c0.461,0.859,1.535,1.178,2.393,0.717
						c0.859-0.461,1.186-1.541,0.717-2.393c-0.463-0.859-1.533-1.177-2.393-0.716C-189.719,47.954-190.039,49.025-189.57,49.877z"/>
					<path fill="#9FCFFF" d="M198.939-152.389c0.469,0.866,1.563,1.193,2.428,0.724c0.873-0.475,1.193-1.561,0.725-2.427
						c-0.469-0.867-1.555-1.201-2.428-0.724C198.799-154.348,198.479-153.262,198.939-152.389z"/>
					<path fill="#9FCFFF" d="M281.4-327.809c0.428,0.794,1.42,1.093,2.217,0.667c0.787-0.433,1.084-1.427,0.658-2.222"/>
					<path fill="#9FCFFF" d="M-242.488,63.088c0.42,0.774,1.377,1.065,2.15,0.646s1.072-1.384,0.654-2.158
						c-0.42-0.774-1.393-1.065-2.166-0.646C-242.623,61.348-242.906,62.314-242.488,63.088z"/>
					<path fill="#9FCFFF" d="M-249.311,52.22c0.334,0.618,1.115,0.859,1.738,0.518c0.625-0.341,0.859-1.115,0.52-1.739
						c-0.342-0.625-1.115-0.859-1.74-0.519C-249.402,50.807-249.643,51.588-249.311,52.22z"/>
					<path fill="#9FCFFF" d="M-53.631-153.51c0.596,1.107,1.98,1.526,3.096,0.922c1.107-0.595,1.525-1.98,0.93-3.087"/>
					<path fill="#9FCFFF" d="M-63.277-143.183c-0.938,0.512-1.299,1.683-0.781,2.626c0.504,0.945,1.676,1.293,2.619,0.789
						c0.936-0.511,1.293-1.689,0.781-2.626C-61.162-143.338-62.326-143.693-63.277-143.183"/>
					<path opacity="0.29" fill="#9FCFFF" enable-background="new    " d="M-178.014,21.882c0.531,0.987,1.775,1.348,2.754,0.824
						c0.979-0.526,1.355-1.769,0.816-2.747c-0.533-0.987-1.762-1.35-2.74-0.825C-178.178,19.673-178.539,20.903-178.014,21.882z"/>
					<path opacity="0.29" fill="#9FCFFF" enable-background="new    " d="M-165.131,35.716c-0.795,0.426-1.094,1.42-0.666,2.215
						c0.434,0.802,1.434,1.093,2.223,0.66"/>
					<path fill="#9FCFFF" d="M199.871-276.942c-0.725,0.397-1.002,1.298-0.609,2.03c0.396,0.724,1.305,0.994,2.021,0.603
						c0.732-0.389,1-1.298,0.598-2.015C201.512-277.063,200.596-277.325,199.871-276.942"/>
					<path fill="#9FCFFF" d="M556.105-190.953c0.341,0.667,1.164,0.908,1.816,0.553c0.653-0.355,0.903-1.17,0.54-1.832
						c-0.346-0.645-1.163-0.894-1.817-0.539C555.984-192.423,555.736-191.606,556.105-190.953z"/>
					<path fill="#9FCFFF" d="M1.125-174.479c-1.037,0.567-1.42,1.859-0.865,2.896c0.553,1.036,1.846,1.419,2.883,0.866
						c1.035-0.568,1.426-1.852,0.857-2.889C3.445-174.643,2.146-175.018,1.125-174.479"/>
					<path fill="#9FCFFF" d="M-89.293-131.164c0.547,1.043,1.846,1.434,2.883,0.865c1.035-0.553,1.42-1.845,0.865-2.882"/>
					<path fill="#9FCFFF" d="M-10.189-170.575c0.377,0.704,1.264,0.965,1.959,0.582c0.709-0.383,0.973-1.257,0.59-1.966"/>
					<path fill="#9FCFFF" d="M-70.561-133.202c-0.631,0.334-0.859,1.114-0.525,1.732c0.336,0.617,1.107,0.852,1.732,0.512
						c0.625-0.328,0.852-1.109,0.52-1.726C-69.17-133.302-69.943-133.536-70.561-133.202"/>
					<path fill="#9FCFFF" d="M32.08-185.544c-0.588,0.318-0.809,1.063-0.496,1.659c0.326,0.597,1.072,0.817,1.66,0.498
						c0.598-0.327,0.824-1.065,0.496-1.661C33.424-185.637,32.686-185.865,32.08-185.544"/>
					<path fill="#9FCFFF" d="M-9.373-133.388c0.354,0.667,1.191,0.924,1.867,0.561c0.666-0.369,0.914-1.199,0.553-1.873
						c-0.354-0.668-1.191-0.923-1.859-0.568C-9.486-134.892-9.734-134.061-9.373-133.388z"/>
					<path fill="#9FCFFF" d="M134.105-167.792c0.355,0.638,1.156,0.888,1.795,0.533c0.654-0.342,0.889-1.144,0.539-1.79
						c-0.348-0.646-1.156-0.887-1.803-0.539C133.998-169.248,133.758-168.438,134.105-167.792z"/>
					<path fill="#9FCFFF" d="M-38.434-142.231c0.377,0.703,1.258,0.959,1.953,0.589c0.701-0.376,0.971-1.257,0.59-1.951
						c-0.377-0.703-1.258-0.973-1.953-0.59C-38.547-143.807-38.803-142.941-38.434-142.231z"/>
					<path fill="#9FCFFF" d="M-82.23-133.87c-1.129,0.604-1.547,2.017-0.938,3.139"/>
					<path fill="#9FCFFF" d="M-79.092-132.932c-0.611-1.123-2.01-1.541-3.139-0.938"/>
					<path fill="#9FCFFF" d="M-16.258-161.354c-0.938,0.512-1.287,1.683-0.773,2.619c0.504,0.945,1.676,1.292,2.619,0.789
						c0.938-0.512,1.283-1.682,0.779-2.627C-14.143-161.511-15.314-161.857-16.258-161.354"/>
					<path fill="#9FCFFF" d="M12.943-187.376c0.467,0.852,1.533,1.178,2.4,0.71c0.857-0.461,1.186-1.541,0.709-2.385"/>
					<path fill="#9FCFFF" d="M-150.621-90.931c-0.703,0.375-0.959,1.257-0.584,1.958c0.391,0.689,1.258,0.958,1.959,0.582
						c0.703-0.375,0.959-1.256,0.584-1.958C-149.039-91.053-149.912-91.315-150.621-90.931"/>
					<path fill="#9FCFFF" d="M-184.65-72.661c0.32,0.575,1.029,0.803,1.611,0.49c0.59-0.319,0.803-1.043,0.488-1.625"/>
					<path fill="#9FCFFF" d="M-225.693,34.013c0.553,1.022,1.824,1.398,2.84,0.852c1.021-0.554,1.398-1.824,0.852-2.84
						c-0.555-1.021-1.816-1.405-2.84-0.852C-225.85,31.713-226.24,32.998-225.693,34.013z"/>
					<path opacity="0.29" fill="#9FCFFF" enable-background="new    " d="M-173.115-4.496c0.396,0.738,1.313,1.014,2.051,0.617
						c0.732-0.39,1.002-1.314,0.609-2.044c-0.396-0.738-1.313-1.015-2.051-0.617C-173.244-6.143-173.521-5.227-173.115-4.496z"/>
					<path opacity="0.29" fill="#9FCFFF" enable-background="new    " d="M-222.5,1.303c0.547,1.015,1.803,1.392,2.811,0.853
						c1.016-0.546,1.398-1.809,0.844-2.817c-0.539-1.009-1.795-1.399-2.814-0.845C-222.672-0.968-223.047,0.303-222.5,1.303z"/>
					<path fill="#9FCFFF" d="M49.904-169.425c0.342,0.639,1.129,0.873,1.754,0.532c0.631-0.347,0.873-1.127,0.525-1.76
						c-0.334-0.631-1.115-0.873-1.738-0.532C49.799-170.837,49.564-170.05,49.904-169.425z"/>
					<path fill="#9FCFFF" d="M255.357-161.56c0.342,0.64,1.137,0.881,1.783,0.533c0.637-0.341,0.871-1.143,0.531-1.781
						c-0.342-0.639-1.143-0.887-1.781-0.533C255.244-163.007,255.004-162.199,255.357-161.56z"/>
					<path fill="#9FCFFF" d="M144.199-246.001c-0.781,0.427-1.08,1.405-0.646,2.194c0.42,0.802,1.406,1.092,2.193,0.659
						c0.787-0.419,1.078-1.405,0.66-2.193C145.973-246.129,144.994-246.426,144.199-246.001"/>
					<path fill="#9FCFFF" d="M170.078-266.529c-0.658,0.348-0.908,1.178-0.561,1.839c0.369,0.653,1.193,0.908,1.846,0.553
						c0.674-0.362,0.908-1.179,0.555-1.846C171.555-266.643,170.738-266.891,170.078-266.529"/>
					<path fill="#9FCFFF" d="M166.408-223.422c0.504,0.929,1.662,1.277,2.6,0.78c0.936-0.51,1.285-1.667,0.779-2.612
						c-0.504-0.929-1.674-1.277-2.604-0.772C166.254-225.522,165.898-224.358,166.408-223.422z"/>
					<path fill="#9FCFFF" d="M331.445-270.327c0.354,0.668,1.205,0.924,1.865,0.562c0.682-0.37,0.93-1.2,0.568-1.875
						c-0.369-0.667-1.199-0.916-1.881-0.546C331.338-271.839,331.082-271.002,331.445-270.327z"/>
					<path fill="#9FCFFF" d="M190.912-261.213c0.533,0.987,1.762,1.364,2.748,0.831c0.986-0.533,1.355-1.768,0.816-2.747
						c-0.525-0.994-1.76-1.363-2.748-0.831C190.742-263.427,190.381-262.2,190.912-261.213z"/>
					<path fill="#9FCFFF" d="M74.977-221.015c0.475,0.873,1.568,1.199,2.441,0.738c0.881-0.482,1.215-1.583,0.744-2.463"/>
					<path fill="#9FCFFF" d="M219.021-191.238c0.348,0.646,1.15,0.881,1.797,0.533c0.645-0.348,0.887-1.157,0.539-1.803
						s-1.15-0.88-1.803-0.539C218.914-192.693,218.674-191.883,219.021-191.238z"/>
					<path fill="#9FCFFF" d="M313.465-249.295c0.445,0.817,1.469,1.129,2.293,0.675c0.816-0.433,1.121-1.462,0.682-2.272
						c-0.447-0.83-1.471-1.129-2.287-0.695C313.338-251.141,313.031-250.125,313.465-249.295z"/>
					<path fill="#9FCFFF" d="M262.549-234.394c0.354,0.667,1.207,0.922,1.873,0.567c0.668-0.369,0.924-1.207,0.555-1.888
						c-0.355-0.668-1.193-0.938-1.875-0.568C262.428-235.908,262.18-235.076,262.549-234.394z"/>
					<path fill="#9FCFFF" d="M331.176-263.413c0.396,0.752,1.34,1.03,2.086,0.625c0.752-0.398,1.037-1.334,0.633-2.095
						c-0.412-0.751-1.35-1.036-2.094-0.631C331.047-265.103,330.764-264.166,331.176-263.413z"/>
					<path fill="#9FCFFF" d="M280.268-306.315c0.381,0.695,1.262,0.951,1.959,0.582c0.701-0.376,0.957-1.256,0.572-1.952
						c-0.375-0.703-1.248-0.966-1.943-0.583C280.152-307.891,279.891-307.018,280.268-306.315z"/>
					<path opacity="0.29" fill="#9FCFFF" enable-background="new    " d="M-164.164,144.42c-1.102,0.589-1.508,1.958-0.91,3.066"/>
					<circle fill="#9FCFFF" cx="-21.099" cy="-147.363" r="2.144"/>
					<path fill="#9FCFFF" d="M151.844-195.412c0.518,0.973,1.73,1.321,2.684,0.81c0.965-0.525,1.328-1.725,0.803-2.691
						c-0.52-0.958-1.727-1.313-2.684-0.809C151.68-197.577,151.318-196.377,151.844-195.412z"/>
					<path fill="#9FCFFF" d="M171.648-184.58c0.318,0.59,1.055,0.816,1.66,0.497c0.598-0.326,0.816-1.072,0.498-1.661
						c-0.32-0.603-1.066-0.823-1.662-0.497C171.549-185.928,171.328-185.182,171.648-184.58z"/>
					<path fill="#9FCFFF" d="M259.588-208.892c0.617,1.142,2.037,1.569,3.174,0.944c1.148-0.61,1.576-2.029,0.959-3.172
						s-2.045-1.562-3.174-0.944C259.396-211.454,258.971-210.034,259.588-208.892z"/>
					<path fill="#9FCFFF" d="M263.002-202.936c0.518,0.944,1.703,1.307,2.648,0.788c0.949-0.511,1.299-1.697,0.795-2.64
						c-0.51-0.952-1.697-1.314-2.646-0.789C262.854-205.072,262.498-203.88,263.002-202.936z"/>
					<path fill="#9FCFFF" d="M261.449-196.923c0.412,0.781,1.391,1.079,2.172,0.667c0.771-0.434,1.072-1.413,0.652-2.187
						c-0.426-0.781-1.4-1.071-2.18-0.66C261.307-198.67,261.016-197.698,261.449-196.923z"/>
					<path fill="#9FCFFF" d="M261.627-190.044c0.426,0.78,1.404,1.078,2.199,0.652c0.787-0.419,1.1-1.412,0.66-2.193
						c-0.426-0.795-1.412-1.086-2.201-0.668C261.492-191.827,261.207-190.832,261.627-190.044z"/>
					<path fill="#9FCFFF" d="M145.328-183.827c0.311,0.583,1.035,0.796,1.604,0.483c0.582-0.313,0.803-1.029,0.49-1.611
						c-0.32-0.576-1.037-0.795-1.611-0.477C145.234-185.125,145.021-184.402,145.328-183.827z"/>
				</g>
			</g>
		</g>
		<g>
			<defs>
				<polyline id="SVGID_25_" points="750.475,-0.542 750.475,499.459 0.475,499.459 				"/>
			</defs>
			<clipPath id="SVGID_26_">
				<use xlink:href="#SVGID_25_"  overflow="visible"/>
			</clipPath>
			
				<radialGradient id="SVGID_27_" cx="9664.0664" cy="502.0898" r="236.3628" gradientTransform="matrix(0.1124 -0.0067 0.059 0.9983 -240.2197 23.5302)" gradientUnits="userSpaceOnUse">
				<stop  offset="0" style="stop-color:#FFFFFF"/>
				<stop  offset="0.1869" style="stop-color:#B0B8B8;stop-opacity:0.7171"/>
				<stop  offset="0.3521" style="stop-color:#728081;stop-opacity:0.4669"/>
				<stop  offset="0.4909" style="stop-color:#465859;stop-opacity:0.2567"/>
				<stop  offset="0.598" style="stop-color:#2A3F40;stop-opacity:0.0945"/>
				<stop  offset="0.6605" style="stop-color:#203637;stop-opacity:0"/>
			</radialGradient>
			<path clip-path="url(#SVGID_26_)" fill="url(#SVGID_27_)" d="M889.584,695.959c-14.674,0.867-32.813-104.064-40.509-234.371
				c-7.699-130.307-2.043-236.646,12.631-237.511c14.675-0.867,32.812,104.063,40.509,234.372
				C909.913,588.756,904.258,695.092,889.584,695.959z"/>
		</g>
		<g>
			<defs>
				<polyline id="SVGID_28_" points="750.475,-0.542 750.475,499.459 0.475,499.459 				"/>
			</defs>
			<clipPath id="SVGID_29_">
				<use xlink:href="#SVGID_28_"  overflow="visible"/>
			</clipPath>
			<g clip-path="url(#SVGID_29_)">
				<g>
					
						<linearGradient id="SVGID_30_" gradientUnits="userSpaceOnUse" x1="-1896.6895" y1="-403.1992" x2="-1694.416" y2="-403.1992" gradientTransform="matrix(0.6338 0.7735 -0.7735 0.6338 1474.6006 1982.6498)">
						<stop  offset="0" style="stop-color:#FFFFFF"/>
						<stop  offset="1" style="stop-color:#FFFFFF;stop-opacity:0"/>
					</linearGradient>
					<polygon opacity="0.29" fill="url(#SVGID_30_)" enable-background="new    " points="764.424,373.97 609.609,396.64 
						597.234,249.458 					"/>
					
						<linearGradient id="SVGID_31_" gradientUnits="userSpaceOnUse" x1="410.7832" y1="-610.9116" x2="519.5283" y2="-610.9116" gradientTransform="matrix(0.6555 -0.7552 0.7552 0.6555 873.1914 1216.5446)">
						<stop  offset="0" style="stop-color:#FFFFFF"/>
						<stop  offset="1" style="stop-color:#FFFFFF;stop-opacity:0"/>
					</linearGradient>
					<polygon opacity="0.29" fill="url(#SVGID_31_)" enable-background="new    " points="716.729,403.99 669.232,495.566 
						782.495,449.881 					"/>
					
						<linearGradient id="SVGID_32_" gradientUnits="userSpaceOnUse" x1="839.0176" y1="847.0625" x2="944.5977" y2="847.0625" gradientTransform="matrix(-0.3721 -0.9283 0.9283 -0.3721 295.2361 1473.1755)">
						<stop  offset="0" style="stop-color:#FFFFFF"/>
						<stop  offset="1" style="stop-color:#FFFFFF;stop-opacity:0"/>
					</linearGradient>
					<polygon opacity="0.29" fill="url(#SVGID_32_)" enable-background="new    " points="697.202,303.146 755.211,384.799 
						766.016,266.709 					"/>
					
						<linearGradient id="SVGID_33_" gradientUnits="userSpaceOnUse" x1="-1671.9341" y1="1303.3506" x2="-1607.1108" y2="1303.3506" gradientTransform="matrix(-0.5064 0.8622 -0.8622 -0.5064 906.1193 2521.0032)">
						<stop  offset="0" style="stop-color:#FFFFFF"/>
						<stop  offset="1" style="stop-color:#FFFFFF;stop-opacity:0"/>
					</linearGradient>
					<polygon opacity="0.29" fill="url(#SVGID_33_)" enable-background="new    " points="644.533,503.717 594.115,398.934 
						552.336,439.387 					"/>
					
						<linearGradient id="SVGID_34_" gradientUnits="userSpaceOnUse" x1="-1799.4321" y1="1050.667" x2="-1704.499" y2="1050.667" gradientTransform="matrix(-0.234 0.9723 -0.9723 -0.234 1077.8016 2435.3169)">
						<stop  offset="0" style="stop-color:#FFFFFF"/>
						<stop  offset="1" style="stop-color:#FFFFFF;stop-opacity:0"/>
					</linearGradient>
					<polygon opacity="0.29" fill="url(#SVGID_34_)" enable-background="new    " points="534.896,551.383 419.629,425.992 
						378.295,500.471 					"/>
					<g>
						<polyline opacity="0.29" fill="none" stroke="#FFFFFF" stroke-miterlimit="10" enable-background="new    " points="
							626.797,177.204 707.668,323.385 663.997,440.396 831.764,607.021 651.662,611.707 553.131,551.658 442.492,584.398 
							295.305,457.445 						"/>
						
							<polyline id="XMLID_2_" opacity="0.29" fill="none" stroke="#FFFFFF" stroke-miterlimit="10" enable-background="new    " points="
							387.322,536.814 454.271,372.752 443.451,582.705 579.021,432.965 553.131,551.658 						"/>
						<polyline opacity="0.29" fill="none" stroke="#FFFFFF" stroke-miterlimit="10" enable-background="new    " points="
							663.997,440.396 817.217,384.633 762.723,538.451 652.583,610.123 663.997,440.396 539.577,333.025 652.583,610.123 						"/>
						
							<line opacity="0.29" fill="none" stroke="#FFFFFF" stroke-miterlimit="10" enable-background="new    " x1="452.262" y1="411.779" x2="579.021" y2="432.965"/>
					</g>
				</g>
				
					<radialGradient id="SVGID_35_" cx="8113.7539" cy="386.6182" r="236.3638" gradientTransform="matrix(0.0751 -0.0839 0.7447 0.6674 -233.5951 863.9896)" gradientUnits="userSpaceOnUse">
					<stop  offset="0" style="stop-color:#FFFFFF"/>
					<stop  offset="0.1869" style="stop-color:#B0B8B8;stop-opacity:0.7171"/>
					<stop  offset="0.3521" style="stop-color:#728081;stop-opacity:0.4669"/>
					<stop  offset="0.4909" style="stop-color:#465859;stop-opacity:0.2567"/>
					<stop  offset="0.598" style="stop-color:#2A3F40;stop-opacity:0.0945"/>
					<stop  offset="0.6605" style="stop-color:#203637;stop-opacity:0"/>
				</radialGradient>
				<path opacity="0.29" fill="url(#SVGID_35_)" enable-background="new    " d="M839.668,599.023
					c-9.811,10.947-96.568-50.805-193.77-137.928c-97.205-87.123-168.051-166.625-158.24-177.57
					c9.813-10.945,96.564,50.807,193.77,137.93S849.477,588.078,839.668,599.023z"/>
				<g>
					<g opacity="0.5">
						<path fill="#9FCFFF" d="M432.285,570.574c-0.213-0.855,0.307-1.715,1.158-1.934c0.854-0.213,1.715,0.293,1.932,1.146
							c0.215,0.852-0.295,1.725-1.146,1.943C433.375,571.943,432.504,571.426,432.285,570.574z"/>
						<path fill="#9FCFFF" d="M499.953,496.377c-0.309-1.248,0.447-2.525,1.688-2.842c1.26-0.32,2.545,0.438,2.863,1.686
							c0.311,1.26-0.449,2.535-1.697,2.854C501.559,498.395,500.273,497.637,499.953,496.377z"/>
						<path fill="#9FCFFF" d="M577.359,522.221c-0.268-1.057,0.381-2.135,1.437-2.402c1.067-0.277,2.136,0.371,2.402,1.428
							c0.276,1.068-0.371,2.135-1.429,2.412C578.715,523.926,577.637,523.287,577.359,522.221z"/>
						<path fill="#9FCFFF" d="M575.512,515.482c-0.302-1.168,0.412-2.354,1.58-2.656c1.176-0.293,2.352,0.41,2.655,1.58
							c0.293,1.166-0.411,2.361-1.578,2.654C577.001,517.361,575.805,516.648,575.512,515.482z"/>
						<path fill="#9FCFFF" d="M583.321,514.725c-0.261-0.975,0.334-1.975,1.319-2.227c0.965-0.24,1.955,0.344,2.205,1.32
							c0.25,0.984-0.346,1.975-1.309,2.223C584.553,516.291,583.551,515.699,583.321,514.725z"/>
						<path fill="#9FCFFF" d="M752.163,348.279c-0.258-1.057,0.37-2.127,1.427-2.395c1.057-0.275,2.135,0.371,2.391,1.428
							c0.279,1.057-0.359,2.135-1.414,2.393C753.52,349.984,752.432,349.344,752.163,348.279z"/>
						<path opacity="0.29" fill="#9FCFFF" enable-background="new    " d="M430.643,476.42c-0.201-0.742,0.252-1.498,0.992-1.686
							c0.752-0.189,1.508,0.264,1.695,1.006c0.191,0.744-0.264,1.496-1.004,1.686C431.574,477.615,430.82,477.17,430.643,476.42z"/>
						<path fill="#9FCFFF" d="M377.492,589.918c-0.207-0.836,0.291-1.689,1.135-1.902c0.83-0.209,1.686,0.291,1.891,1.133
							c0.217,0.834-0.291,1.686-1.123,1.893C378.561,591.258,377.709,590.75,377.492,589.918z"/>
						<path fill="#9FCFFF" d="M366.682,498.604c-0.309-1.219,0.426-2.463,1.645-2.764c1.217-0.309,2.463,0.424,2.766,1.645
							c0.309,1.219-0.428,2.453-1.635,2.764C368.227,500.557,366.992,499.814,366.682,498.604z"/>
						<path fill="#9FCFFF" d="M416.146,602.037c-1.074,0.275-2.182-0.383-2.457-1.469c-0.279-1.088,0.373-2.188,1.457-2.463
							c1.098-0.273,2.195,0.385,2.471,1.461C417.893,600.652,417.234,601.762,416.146,602.037"/>
						<path fill="#9FCFFF" d="M401.09,583.047c-0.318-1.25,0.447-2.521,1.688-2.842c1.248-0.318,2.514,0.438,2.834,1.686
							c0.318,1.252-0.438,2.523-1.68,2.846C402.674,585.045,401.41,584.299,401.09,583.047z"/>
						<path fill="#9FCFFF" d="M415.301,536.684c-0.268-1.055,0.381-2.123,1.428-2.391c1.045-0.27,2.125,0.369,2.393,1.416
							c0.268,1.057-0.361,2.125-1.428,2.393C416.637,538.379,415.568,537.74,415.301,536.684z"/>
						<path fill="#9FCFFF" d="M363.1,511.244c-0.27-1.035,0.357-2.092,1.395-2.361c1.045-0.26,2.094,0.369,2.361,1.406
							c0.268,1.033-0.359,2.092-1.395,2.359C364.424,512.906,363.355,512.281,363.1,511.244z"/>
						<path opacity="0.29" fill="#9FCFFF" enable-background="new    " d="M429.303,450.361c-0.197-0.791,0.277-1.586,1.059-1.783
							c0.791-0.209,1.586,0.268,1.795,1.059c0.197,0.793-0.277,1.588-1.07,1.783C430.314,451.629,429.498,451.154,429.303,450.361z"
							/>
						<path fill="#9FCFFF" d="M363.699,545.984c-0.299-1.188,0.414-2.404,1.604-2.705c1.186-0.301,2.393,0.422,2.695,1.607
							c0.299,1.189-0.412,2.395-1.602,2.697C365.207,547.885,364.014,547.162,363.699,545.984z"/>
						<path opacity="0.29" fill="#9FCFFF" enable-background="new    " d="M426.063,475.133c-0.225-0.861,0.305-1.744,1.166-1.961
							c0.863-0.225,1.746,0.305,1.961,1.168c0.227,0.863-0.305,1.746-1.158,1.961C427.158,476.525,426.277,475.994,426.063,475.133z
							"/>
						<path fill="#9FCFFF" d="M871.422,233.175c-0.294-1.159,0.407-2.334,1.566-2.638c1.168-0.293,2.322,0.408,2.627,1.566
							c0.304,1.158-0.409,2.334-1.566,2.627C872.891,235.023,871.715,234.331,871.422,233.175z"/>
						<path fill="#9FCFFF" d="M390.686,612.383c-1.258,0.32-2.533-0.438-2.852-1.686c-0.318-1.26,0.438-2.535,1.695-2.854
							c1.25-0.32,2.525,0.438,2.844,1.695C392.693,610.789,391.936,612.064,390.686,612.383"/>
						<path fill="#9FCFFF" d="M405.225,608.551c-0.258-0.996,0.346-2.014,1.35-2.273c1.006-0.25,2.016,0.354,2.275,1.354"/>
						<path opacity="0.29" fill="#9FCFFF" enable-background="new    " d="M227.348,428.627c-0.285-1.115,0.387-2.252,1.502-2.527
							c1.127-0.293,2.266,0.387,2.551,1.504c0.273,1.115-0.396,2.254-1.516,2.539C228.77,430.426,227.631,429.746,227.348,428.627z"
							/>
						<path opacity="0.29" fill="#9FCFFF" enable-background="new    " d="M230.281,418.316c-0.281-1.117,0.391-2.254,1.504-2.529
							c1.129-0.293,2.266,0.387,2.549,1.504c0.273,1.115-0.395,2.254-1.514,2.539C231.705,420.115,230.566,419.434,230.281,418.316z
							"/>
						<path fill="#9FCFFF" d="M220.777,501.92c-0.23-0.932,0.33-1.875,1.254-2.119c0.938-0.23,1.885,0.332,2.127,1.27
							c0.223,0.92-0.34,1.873-1.264,2.104C221.959,503.418,221.006,502.854,220.777,501.92z"/>
						<path opacity="0.29" fill="#9FCFFF" enable-background="new    " d="M221.232,392.402c-0.24-0.973,0.342-1.953,1.307-2.195
							c0.953-0.242,1.934,0.342,2.186,1.297c0.24,0.975-0.332,1.945-1.307,2.195C222.463,393.941,221.48,393.357,221.232,392.402z"
							/>
						<path fill="#9FCFFF" d="M296.701,588.506c-0.318-1.24,0.426-2.496,1.662-2.813c1.24-0.311,2.506,0.438,2.816,1.676
							c0.318,1.24-0.438,2.496-1.666,2.813C298.264,590.492,297.008,589.746,296.701,588.506z"/>
						<path opacity="0.29" fill="#9FCFFF" enable-background="new    " d="M317.127,461.854c-0.279-1.076,0.369-2.174,1.445-2.443
							c1.076-0.275,2.164,0.375,2.439,1.451s-0.381,2.164-1.447,2.439C318.488,463.568,317.4,462.92,317.127,461.854z"/>
						<path opacity="0.29" fill="#9FCFFF" enable-background="new    " d="M343.043,390.336c-0.295-1.156,0.408-2.332,1.564-2.635
							c1.168-0.293,2.344,0.408,2.639,1.566c0.291,1.158-0.41,2.334-1.559,2.629C344.521,392.199,343.344,391.496,343.043,390.336z"
							/>
						<path opacity="0.29" fill="#9FCFFF" enable-background="new    " d="M360.484,345.293c-0.311-1.238,0.449-2.512,1.684-2.822
							c1.24-0.309,2.506,0.438,2.822,1.676c0.322,1.25-0.424,2.504-1.664,2.834C362.066,347.291,360.805,346.533,360.484,345.293z"
							/>
						<path opacity="0.29" fill="#9FCFFF" enable-background="new    " d="M368.055,344.949c-0.215-0.854,0.301-1.713,1.145-1.932
							c0.855-0.217,1.719,0.303,1.934,1.146c0.213,0.844-0.295,1.705-1.146,1.932C369.131,346.301,368.27,345.793,368.055,344.949z"
							/>
						<path fill="#9FCFFF" d="M310.855,590.207c-0.283-1.117,0.396-2.256,1.504-2.541c1.115-0.285,2.252,0.398,2.539,1.504
							c0.283,1.117-0.396,2.254-1.512,2.541C312.277,591.994,311.141,591.313,310.855,590.207z"/>
						<path opacity="0.29" fill="#9FCFFF" enable-background="new    " d="M412.285,385.564c-0.291-1.215,0.447-2.473,1.664-2.783
							c1.219-0.311,2.463,0.436,2.773,1.666c0.313,1.219-0.422,2.451-1.65,2.762C413.852,387.521,412.605,386.785,412.285,385.564z"
							/>
						<path opacity="0.29" fill="#9FCFFF" enable-background="new    " d="M353.033,405.045c-0.162-0.641,0.227-1.297,0.885-1.459
							c0.641-0.164,1.297,0.225,1.461,0.875c0.164,0.639-0.225,1.297-0.875,1.459S353.197,405.693,353.033,405.045z"/>
						<path fill="#9FCFFF" d="M267.051,528.688c-0.246-0.943,0.33-1.904,1.271-2.146c0.947-0.244,1.916,0.332,2.146,1.277
							c0.246,0.943-0.33,1.902-1.275,2.145C268.242,530.205,267.279,529.631,267.051,528.688z"/>
						<path opacity="0.29" fill="#9FCFFF" enable-background="new    " d="M355.545,365.271c-0.295-1.086,0.375-2.203,1.473-2.48
							c1.084-0.275,2.195,0.393,2.469,1.471c0.275,1.098-0.383,2.215-1.469,2.49C356.918,367.025,355.822,366.359,355.545,365.271z"
							/>
						<path opacity="0.29" fill="#9FCFFF" enable-background="new    " d="M360.969,353.873c-0.232-0.934,0.328-1.865,1.252-2.096
							c0.926-0.242,1.855,0.318,2.088,1.242c0.244,0.924-0.32,1.865-1.242,2.098C362.141,355.35,361.211,354.787,360.969,353.873z"
							/>
						<path opacity="0.29" fill="#9FCFFF" enable-background="new    " d="M292.928,401.076c-0.287-1.115,0.387-2.266,1.514-2.547
							c1.119-0.297,2.262,0.395,2.559,1.512c0.273,1.119-0.406,2.266-1.516,2.551C294.346,402.885,293.211,402.193,292.928,401.076z
							"/>
						<path opacity="0.29" fill="#9FCFFF" enable-background="new    " d="M689.941,414.615c-0.241-0.955,0.343-1.936,1.299-2.18
							c0.963-0.238,1.934,0.344,2.175,1.299s-0.332,1.936-1.298,2.176C691.164,416.152,690.193,415.568,689.941,414.615z"/>
						<path opacity="0.29" fill="#9FCFFF" enable-background="new    " d="M636.914,385.322c-0.273-1.117,0.385-2.236,1.512-2.52
							c1.098-0.285,2.225,0.385,2.51,1.502c0.275,1.105-0.396,2.234-1.492,2.512C638.327,387.098,637.198,386.43,636.914,385.322z"
							/>
						<path fill="#9FCFFF" d="M336.398,497.947c-0.191-0.73,0.262-1.477,0.992-1.666c0.732-0.182,1.477,0.264,1.668,0.994
							c0.18,0.73-0.264,1.475-0.994,1.666C337.332,499.133,336.588,498.689,336.398,497.947z"/>
						<path opacity="0.29" fill="#9FCFFF" enable-background="new    " d="M347.391,447.387c-0.266-1.055,0.371-2.135,1.436-2.41
							c1.057-0.266,2.139,0.371,2.412,1.438c0.268,1.064-0.371,2.143-1.426,2.402C348.754,449.092,347.666,448.445,347.391,447.387z
							"/>
						<path opacity="0.29" fill="#9FCFFF" enable-background="new    " d="M395.494,472.123c-0.225-0.875,0.307-1.764,1.18-1.98
							c0.873-0.223,1.766,0.305,1.98,1.178c0.215,0.863-0.307,1.756-1.18,1.98C396.602,473.516,395.719,472.996,395.494,472.123z"/>
						<path fill="#9FCFFF" d="M869.376,487.93c-0.224-0.873,0.306-1.764,1.181-1.99c0.873-0.213,1.764,0.316,1.988,1.188"/>
						<path fill="#9FCFFF" d="M219.152,554.783c-0.215-0.855,0.293-1.717,1.146-1.934c0.852-0.215,1.725,0.293,1.941,1.146
							c0.213,0.854-0.303,1.725-1.156,1.941C220.23,556.152,219.367,555.633,219.152,554.783z"/>
						<path fill="#9FCFFF" d="M221.486,567.396c-0.172-0.68,0.24-1.385,0.93-1.557s1.387,0.238,1.559,0.93
							c0.172,0.689-0.238,1.385-0.93,1.559C222.375,568.502,221.67,568.09,221.486,567.396z"/>
						<path fill="#9FCFFF" d="M504.779,586.393c-0.311-1.217,0.424-2.463,1.654-2.773c1.217-0.311,2.463,0.426,2.773,1.645"/>
						<path opacity="0.29" fill="#9FCFFF" enable-background="new    " d="M689.719,283.408c-0.234-0.914,0.317-1.836,1.232-2.068
							c0.913-0.234,1.844,0.316,2.076,1.23c0.234,0.916-0.327,1.846-1.231,2.07C690.883,284.881,689.95,284.32,689.719,283.408z"/>
						<path fill="#9FCFFF" d="M733.497,241.216c-0.233-0.924,0.317-1.868,1.243-2.098c0.934-0.242,1.865,0.317,2.107,1.241
							c0.231,0.926-0.33,1.865-1.254,2.109C734.669,242.689,733.729,242.137,733.497,241.216z"/>
						<path opacity="0.29" fill="#9FCFFF" enable-background="new    " d="M606.221,375.998c-0.283-1.139,0.396-2.295,1.534-2.58
							c1.138-0.283,2.294,0.396,2.587,1.537c0.283,1.137-0.396,2.293-1.533,2.576C607.67,377.826,606.514,377.133,606.221,375.998z"
							/>
						<path opacity="0.29" fill="#9FCFFF" enable-background="new    " d="M653.682,326.244c-0.26-1.037,0.356-2.076,1.373-2.334
							c1.025-0.258,2.064,0.367,2.322,1.383c0.258,1.025-0.348,2.066-1.383,2.324C654.979,327.875,653.938,327.26,653.682,326.244z"
							/>
						<path fill="#9FCFFF" d="M490.688,585.32c-1.037,0.258-2.096-0.361-2.355-1.404c-0.266-1.037,0.361-2.086,1.396-2.354
							c1.037-0.258,2.094,0.367,2.354,1.402C492.35,584.002,491.732,585.051,490.688,585.32"/>
						<path opacity="0.29" fill="#9FCFFF" enable-background="new    " d="M636.375,424.785c-0.171-0.691,0.239-1.377,0.919-1.549
							c0.681-0.172,1.377,0.238,1.55,0.918c0.172,0.682-0.238,1.367-0.92,1.539C637.243,425.867,636.549,425.457,636.375,424.785z"
							/>
						<path opacity="0.29" fill="#9FCFFF" enable-background="new    " d="M631.242,420.734c-0.203-0.752,0.264-1.527,1.023-1.717
							c0.752-0.201,1.519,0.264,1.707,1.025c0.197,0.752-0.265,1.516-1.018,1.705C632.193,421.947,631.43,421.482,631.242,420.734z"
							/>
						<path opacity="0.29" fill="#9FCFFF" enable-background="new    " d="M284.637,412.102c-0.295-1.137,0.398-2.314,1.545-2.6
							c1.148-0.293,2.305,0.4,2.6,1.547c0.293,1.141-0.398,2.307-1.545,2.6C286.09,413.932,284.932,413.24,284.637,412.102z"/>
						<path fill="#9FCFFF" d="M294.502,541.473c-0.275-1.086,0.395-2.191,1.473-2.469c1.076-0.275,2.193,0.385,2.457,1.469
							c0.277,1.086-0.381,2.186-1.457,2.461C295.879,543.209,294.781,542.549,294.502,541.473z"/>
						<path opacity="0.29" fill="#9FCFFF" enable-background="new    " d="M529.955,465.695c-0.303-1.18,0.411-2.373,1.589-2.678
							c1.188-0.301,2.376,0.412,2.667,1.592c0.303,1.178-0.41,2.373-1.59,2.666C531.443,467.588,530.258,466.875,529.955,465.695z"
							/>
						<path fill="#9FCFFF" d="M440.221,497.631c-0.189-0.771,0.266-1.557,1.037-1.756c0.773-0.197,1.568,0.277,1.766,1.051
							c0.188,0.77-0.277,1.555-1.049,1.754C441.201,498.879,440.408,498.412,440.221,497.631z"/>
						<path fill="#9FCFFF" d="M438.379,508.234c-0.32-1.23,0.434-2.482,1.662-2.793c1.23-0.313,2.486,0.426,2.797,1.664
							c0.311,1.227-0.426,2.473-1.662,2.783C439.943,510.209,438.699,509.461,438.379,508.234z"/>
						<path opacity="0.29" fill="#9FCFFF" enable-background="new    " d="M390.537,343.08c-0.189-0.713,0.254-1.438,0.973-1.619
							c0.699-0.182,1.438,0.25,1.617,0.961c0.182,0.711-0.252,1.445-0.973,1.627C391.443,344.23,390.727,343.799,390.537,343.08z"/>
						<path opacity="0.29" fill="#9FCFFF" enable-background="new    " d="M275.568,446.736c-0.268-1.045,0.371-2.123,1.428-2.391
							c1.045-0.268,2.123,0.369,2.383,1.416c0.275,1.057-0.363,2.135-1.418,2.393C276.904,448.432,275.836,447.795,275.568,446.736z
							"/>
						<path fill="#9FCFFF" d="M292.633,521.391c-0.223-0.885,0.316-1.775,1.188-1.988c0.877-0.227,1.768,0.303,1.99,1.178
							c0.227,0.873-0.305,1.766-1.188,1.988C293.748,522.793,292.855,522.266,292.633,521.391z"/>
						<path fill="#9FCFFF" d="M507.633,535.141c-0.225-0.885,0.314-1.775,1.178-2c0.883-0.215,1.775,0.316,2.01,1.189
							c0.214,0.883-0.316,1.775-1.199,1.998C508.748,536.555,507.855,536.014,507.633,535.141z"/>
						<path opacity="0.29" fill="#9FCFFF" enable-background="new    " d="M387.049,343.174c-1.262,0.326-2.545-0.439-2.855-1.697"
							/>
						<path fill="#9FCFFF" d="M774.932,505.67c-0.803,0.197-1.617-0.277-1.824-1.08c-0.195-0.803,0.289-1.615,1.082-1.813
							c0.803-0.209,1.615,0.277,1.803,1.08C776.221,504.65,775.725,505.463,774.932,505.67"/>
						<path fill="#9FCFFF" d="M266.176,482.625c-0.205-0.824,0.301-1.654,1.113-1.863c0.813-0.207,1.656,0.291,1.863,1.104
							c0.207,0.824-0.289,1.656-1.113,1.861C267.217,483.943,266.385,483.447,266.176,482.625z"/>
						<path opacity="0.29" fill="#9FCFFF" enable-background="new    " d="M323.188,449.025c-0.25-1.016,0.355-2.033,1.373-2.293
							c1.004-0.262,2.035,0.346,2.293,1.361c0.26,1.018-0.354,2.035-1.361,2.295C324.475,450.646,323.447,450.041,323.188,449.025z"
							/>
						<path opacity="0.29" fill="#9FCFFF" enable-background="new    " d="M304.162,474.834c-0.201-0.762,0.264-1.527,1.016-1.725
							c0.76-0.191,1.525,0.264,1.734,1.025c0.182,0.75-0.283,1.525-1.035,1.713C305.113,476.049,304.34,475.584,304.162,474.834z"/>
						<path fill="#9FCFFF" d="M978.959,201.252c-0.199-0.721,0.242-1.455,0.963-1.635c0.721-0.182,1.457,0.249,1.637,0.982
							c0.182,0.709-0.25,1.445-0.972,1.625C979.866,202.417,979.131,201.982,978.959,201.252z"/>
						<path opacity="0.29" fill="#9FCFFF" enable-background="new    " d="M480.691,229.516c-0.266-1.055,0.373-2.135,1.439-2.4
							c1.055-0.276,2.133,0.369,2.4,1.427c0.277,1.056-0.371,2.135-1.428,2.412C482.049,231.221,480.971,230.583,480.691,229.516z"
							/>
						<path fill="#9FCFFF" d="M339.594,514.197c-0.293-1.146,0.398-2.322,1.559-2.625c1.158-0.293,2.334,0.41,2.625,1.564
							c0.295,1.16-0.4,2.334-1.557,2.627C341.064,516.059,339.887,515.355,339.594,514.197z"/>
						<path fill="#9FCFFF" d="M559.277,564.766c-1.146,0.285-2.303-0.406-2.598-1.545c-0.293-1.139,0.398-2.293,1.535-2.588
							c1.146-0.283,2.305,0.398,2.588,1.545C561.098,563.316,560.396,564.469,559.277,564.766"/>
						<path fill="#9FCFFF" d="M463.402,594.082c-0.303-1.137,0.389-2.305,1.535-2.588c1.137-0.295,2.295,0.396,2.588,1.535"/>
						<path fill="#9FCFFF" d="M548.307,569.551c-0.199-0.773,0.276-1.564,1.049-1.754c0.781-0.199,1.565,0.268,1.764,1.047"/>
						<path fill="#9FCFFF" d="M478.57,582.902c-0.689,0.182-1.387-0.236-1.559-0.918s0.238-1.377,0.928-1.551
							c0.682-0.182,1.377,0.24,1.551,0.92C479.662,582.035,479.25,582.73,478.57,582.902"/>
						<path fill="#9FCFFF" d="M408.066,587.803c-0.209-0.824,0.289-1.666,1.111-1.871c0.832-0.207,1.666,0.289,1.873,1.111
							c0.215,0.822-0.281,1.666-1.104,1.873C409.111,589.133,408.281,588.637,408.066,587.803z"/>
						<path fill="#9FCFFF" d="M589.557,551.959c-0.65,0.166-1.317-0.234-1.49-0.885c-0.164-0.66,0.236-1.328,0.888-1.49
							c0.659-0.164,1.325,0.225,1.487,0.887C590.605,551.119,590.217,551.785,589.557,551.959"/>
						<path fill="#9FCFFF" d="M426.836,601.621c-0.24-0.965,0.344-1.945,1.309-2.197c0.965-0.24,1.955,0.344,2.193,1.309"/>
						<path fill="#9FCFFF" d="M447.922,592.822c-0.291-1.139,0.396-2.295,1.525-2.59c1.137-0.283,2.295,0.396,2.578,1.533"/>
						<path fill="#9FCFFF" d="M455.326,591.875c-0.242-0.934,0.32-1.887,1.254-2.117c0.926-0.242,1.877,0.318,2.119,1.254"/>
						<path fill="#9FCFFF" d="M471.412,544.896c-0.223-0.885,0.316-1.777,1.201-2.002c0.883-0.223,1.775,0.307,2,1.189
							c0.223,0.885-0.305,1.787-1.189,2.01C472.539,546.318,471.639,545.777,471.412,544.896z"/>
						<path fill="#9FCFFF" d="M336.689,544.65c-0.25-0.975,0.344-1.975,1.32-2.225c0.973-0.242,1.973,0.342,2.223,1.328
							c0.24,0.975-0.332,1.977-1.328,2.215C337.93,546.219,336.939,545.625,336.689,544.65z"/>
						<path fill="#9FCFFF" d="M523.736,541.623c-0.19-0.732,0.253-1.488,0.994-1.676c0.74-0.182,1.486,0.264,1.678,1.006
							c0.189,0.73-0.254,1.486-0.984,1.676C524.67,542.809,523.928,542.365,523.736,541.623z"/>
						<path opacity="0.29" fill="#9FCFFF" enable-background="new    " d="M652.641,469.838c-0.17-0.713,0.25-1.436,0.961-1.607
							c0.713-0.191,1.426,0.238,1.609,0.949c0.18,0.713-0.252,1.438-0.963,1.619C653.547,470.98,652.821,470.545,652.641,469.838z"
							/>
						<path fill="#9FCFFF" d="M464.23,555.898c-0.234-0.914,0.318-1.848,1.23-2.078c0.926-0.234,1.857,0.318,2.09,1.242
							c0.232,0.914-0.328,1.846-1.232,2.076C465.395,557.373,464.463,556.82,464.23,555.898z"/>
						<path fill="#9FCFFF" d="M446.049,595.615c-0.285-1.117,0.385-2.246,1.5-2.529c1.119-0.285,2.246,0.387,2.529,1.502"/>
						<path fill="#9FCFFF" d="M508.332,567.803c-0.199-0.771,0.275-1.553,1.037-1.754c0.771-0.197,1.566,0.268,1.755,1.039
							c0.198,0.771-0.267,1.566-1.037,1.754C509.314,569.041,508.541,568.576,508.332,567.803z"/>
						<path fill="#9FCFFF" d="M406.883,493.037c-0.25-0.955,0.334-1.938,1.289-2.178c0.965-0.24,1.934,0.334,2.176,1.297
							c0.252,0.955-0.332,1.936-1.287,2.178C408.098,494.574,407.125,493.992,406.883,493.037z"/>
						<path fill="#9FCFFF" d="M470.432,591.293c-1.238,0.318-2.502-0.438-2.813-1.676c-0.318-1.24,0.428-2.504,1.676-2.813
							c1.24-0.318,2.494,0.436,2.814,1.674C472.416,589.719,471.672,590.973,470.432,591.293"/>
						<path fill="#9FCFFF" d="M457.143,563.9c-0.268-1.068,0.371-2.156,1.447-2.432c1.078-0.268,2.166,0.373,2.434,1.447
							c0.275,1.076-0.363,2.166-1.449,2.43C458.51,565.625,457.432,564.975,457.143,563.9z"/>
						<path fill="#9FCFFF" d="M421.813,578.643c-0.285-1.115,0.385-2.242,1.492-2.529c1.117-0.273,2.244,0.396,2.529,1.502
							c0.283,1.109-0.396,2.248-1.504,2.521C423.223,580.42,422.086,579.75,421.813,578.643z"/>
						<path fill="#9FCFFF" d="M537.6,566.871c-1.039,0.258-2.086-0.369-2.344-1.404c-0.27-1.035,0.359-2.084,1.395-2.354
							c1.037-0.258,2.084,0.369,2.353,1.404C539.262,565.557,538.633,566.604,537.6,566.871"/>
						<path fill="#9FCFFF" d="M482.064,558.764c-0.313-1.197,0.414-2.412,1.611-2.725c1.209-0.299,2.424,0.424,2.725,1.623
							c0.303,1.195-0.422,2.414-1.621,2.715C483.582,560.678,482.367,559.963,482.064,558.764z"/>
						<path fill="#9FCFFF" d="M576.707,566.262c-0.23-0.943,0.332-1.904,1.286-2.146c0.946-0.242,1.915,0.332,2.138,1.273"/>
						<path fill="#9FCFFF" d="M404.623,562.5c-0.221-0.932,0.322-1.885,1.266-2.117c0.934-0.242,1.885,0.33,2.119,1.266
							c0.238,0.934-0.322,1.875-1.256,2.115C405.816,563.998,404.865,563.434,404.623,562.5z"/>
						<path fill="#9FCFFF" d="M391.023,605.977c-0.77,0.199-1.555-0.277-1.752-1.045c-0.18-0.773,0.275-1.559,1.047-1.756
							c0.771-0.199,1.557,0.275,1.756,1.045C392.273,604.996,391.807,605.781,391.023,605.977"/>
						<path fill="#9FCFFF" d="M353.609,615.559c-0.154-0.637,0.215-1.285,0.854-1.449c0.652-0.164,1.299,0.225,1.459,0.865"/>
						<path opacity="0.29" fill="#9FCFFF" enable-background="new    " d="M239.102,454.049c-0.234-0.883,0.307-1.795,1.199-2.02
							c0.885-0.225,1.795,0.307,2.02,1.199c0.225,0.895-0.314,1.797-1.201,2.021C240.227,455.484,239.326,454.941,239.102,454.049z"
							/>
						<path fill="#9FCFFF" d="M251.195,564.816c-0.283-1.127,0.396-2.266,1.516-2.551c1.127-0.283,2.264,0.396,2.549,1.516
							c0.283,1.125-0.389,2.264-1.516,2.547C252.635,566.615,251.479,565.934,251.195,564.816z"/>
						<path fill="#9FCFFF" d="M496.719,530.635c-0.217-0.863,0.303-1.746,1.168-1.971c0.871-0.215,1.756,0.305,1.969,1.178
							c0.225,0.863-0.303,1.744-1.168,1.961C497.826,532.025,496.943,531.508,496.719,530.635z"/>
						<path opacity="0.29" fill="#9FCFFF" enable-background="new    " d="M429.158,433.174c-0.275-1.076,0.371-2.154,1.438-2.432
							c1.066-0.268,2.156,0.373,2.432,1.449c0.266,1.066-0.381,2.152-1.447,2.434C430.514,434.889,429.426,434.24,429.158,433.174z"
							/>
						<path fill="#9FCFFF" d="M556.354,498.883c-0.301-1.197,0.424-2.412,1.611-2.713c1.199-0.313,2.426,0.412,2.725,1.609
							c0.303,1.199-0.422,2.414-1.621,2.725C557.872,500.807,556.667,500.084,556.354,498.883z"/>
						<path fill="#9FCFFF" d="M315.961,557.574c-0.207-0.811,0.283-1.635,1.094-1.842c0.801-0.207,1.625,0.289,1.832,1.092
							c0.207,0.813-0.279,1.635-1.092,1.842C316.982,558.875,316.158,558.389,315.961,557.574z"/>
						<path opacity="0.29" fill="#9FCFFF" enable-background="new    " d="M468.705,441.043c-0.197-0.771,0.268-1.557,1.049-1.746
							c0.762-0.199,1.547,0.268,1.744,1.039c0.189,0.771-0.266,1.557-1.039,1.754C469.688,442.289,468.904,441.816,468.705,441.043z
							"/>
						<path fill="#9FCFFF" d="M275.686,586.73c-0.283-1.117,0.385-2.244,1.494-2.529c1.115-0.285,2.252,0.387,2.525,1.504
							c0.287,1.105-0.373,2.244-1.5,2.527C277.098,588.521,275.961,587.838,275.686,586.73z"/>
						<path opacity="0.29" fill="#9FCFFF" enable-background="new    " d="M469.918,209.24c-0.207-0.792,0.279-1.615,1.072-1.814
							c0.801-0.195,1.605,0.279,1.813,1.072c0.207,0.804-0.277,1.616-1.08,1.813C470.932,210.509,470.115,210.033,469.918,209.24z"
							/>
						<path fill="#9FCFFF" d="M591.766,528.031c-0.183-0.701,0.238-1.408,0.93-1.58c0.699-0.17,1.404,0.24,1.578,0.941
							c0.183,0.688-0.231,1.396-0.92,1.566C592.643,529.143,591.938,528.721,591.766,528.031z"/>
						<path fill="#9FCFFF" d="M737.678,383.178c-0.182-0.701,0.24-1.416,0.95-1.598c0.704-0.182,1.417,0.252,1.601,0.949
							c0.181,0.705-0.241,1.428-0.953,1.6C738.575,384.32,737.852,383.889,737.678,383.178z"/>
						<path fill="#9FCFFF" d="M713.008,520.576c-0.863,0.215-1.746-0.305-1.961-1.178c-0.234-0.873,0.297-1.758,1.168-1.971
							c0.864-0.225,1.745,0.307,1.971,1.168C714.4,519.469,713.881,520.35,713.008,520.576"/>
						<path fill="#9FCFFF" d="M745.954,518.17c-0.724,0.189-1.468-0.252-1.659-0.975c-0.17-0.73,0.264-1.475,0.984-1.656
							c0.742-0.189,1.467,0.252,1.656,0.984C747.116,517.254,746.684,517.988,745.954,518.17"/>
						<path fill="#9FCFFF" d="M714.073,488.92c-0.259-1.023,0.358-2.064,1.384-2.332c1.035-0.258,2.074,0.357,2.344,1.395
							c0.258,1.023-0.367,2.074-1.396,2.332C715.381,490.572,714.331,489.955,714.073,488.92z"/>
						<path fill="#9FCFFF" d="M867.309,411.744c-0.192-0.73,0.264-1.496,0.994-1.676c0.752-0.191,1.496,0.254,1.687,0.994
							c0.179,0.74-0.263,1.486-1.015,1.674C868.252,412.93,867.498,412.486,867.309,411.744z"/>
						<path fill="#9FCFFF" d="M757.689,500.154c-0.275-1.086,0.375-2.193,1.461-2.471c1.087-0.275,2.193,0.385,2.461,1.471
							c0.285,1.086-0.375,2.193-1.461,2.471C759.063,501.9,757.967,501.242,757.689,500.154z"/>
						<path fill="#9FCFFF" d="M645.139,549.037c-0.24-0.965,0.344-1.947,1.299-2.197c0.974-0.24,1.963,0.344,2.215,1.311"/>
						<path fill="#9FCFFF" d="M731.02,429.619c-0.182-0.711,0.25-1.426,0.963-1.607c0.711-0.182,1.435,0.25,1.615,0.961
							c0.184,0.713-0.25,1.43-0.961,1.619C731.926,430.762,731.201,430.33,731.02,429.619z"/>
						<path fill="#9FCFFF" d="M839.836,408.43c-0.223-0.902,0.316-1.824,1.23-2.047c0.895-0.234,1.816,0.316,2.041,1.211
							c0.23,0.914-0.318,1.826-1.213,2.059C840.991,409.877,840.081,409.336,839.836,408.43z"/>
						<path fill="#9FCFFF" d="M792.27,431.926c-0.189-0.73,0.266-1.498,0.996-1.686c0.742-0.18,1.496,0.264,1.687,1.014
							c0.19,0.732-0.244,1.498-0.996,1.688C793.206,433.121,792.46,432.678,792.27,431.926z"/>
						<path fill="#9FCFFF" d="M862.428,406.838c-0.216-0.822,0.293-1.666,1.114-1.873c0.822-0.217,1.665,0.279,1.882,1.115
							c0.207,0.832-0.291,1.674-1.113,1.881C863.479,408.168,862.637,407.67,862.428,406.838z"/>
						<path opacity="0.29" fill="#9FCFFF" enable-background="new    " d="M348.275,414.008c-0.24-0.955,0.334-1.936,1.299-2.176
							c0.965-0.252,1.934,0.332,2.186,1.297c0.242,0.955-0.34,1.934-1.295,2.188C349.498,415.566,348.518,414.982,348.275,414.008z"
							/>
						<path opacity="0.29" fill="#9FCFFF" enable-background="new    " d="M487.801,223.414c-0.18-0.73,0.252-1.456,0.973-1.646
							c0.723-0.172,1.455,0.263,1.637,0.974c0.191,0.729-0.252,1.457-0.973,1.646C488.719,224.568,487.982,224.125,487.801,223.414z
							"/>
						<path fill="#9FCFFF" d="M853.993,472.875c-0.19-0.77,0.284-1.553,1.049-1.754c0.769-0.197,1.554,0.277,1.743,1.049
							c0.197,0.771-0.266,1.555-1.037,1.744C854.975,474.113,854.191,473.648,853.993,472.875z"/>
						<path opacity="0.29" fill="#9FCFFF" enable-background="new    " d="M424.818,308.082c-0.217-0.811,0.281-1.635,1.082-1.842
							c0.822-0.207,1.646,0.291,1.863,1.104c0.199,0.813-0.299,1.637-1.111,1.842C425.85,309.393,425.018,308.896,424.818,308.082z"
							/>
						<path opacity="0.29" fill="#9FCFFF" enable-background="new    " d="M464.486,278.883c-0.303-1.199,0.422-2.404,1.611-2.707
							c1.186-0.311,2.393,0.412,2.695,1.602c0.299,1.197-0.412,2.402-1.602,2.705C466.004,280.785,464.787,280.063,464.486,278.883z
							"/>
						<path opacity="0.29" fill="#9FCFFF" enable-background="new    " d="M458.717,267.457c-0.172-0.699,0.26-1.404,0.949-1.576
							s1.395,0.236,1.566,0.939c0.182,0.701-0.24,1.406-0.939,1.578C459.602,268.57,458.906,268.158,458.717,267.457z"/>
						<path opacity="0.29" fill="#9FCFFF" enable-background="new    " d="M219.014,440.256c-0.313-1.209,0.424-2.445,1.633-2.746
							c1.207-0.311,2.441,0.426,2.754,1.633c0.311,1.211-0.426,2.445-1.645,2.754C220.549,442.209,219.324,441.475,219.014,440.256z
							"/>
						<circle fill="#9FCFFF" cx="524.565" cy="559.85" r="2.144"/>
						<path opacity="0.29" fill="#9FCFFF" enable-background="new    " d="M518.053,446.207c-0.172-0.711,0.25-1.416,0.951-1.607
							c0.702-0.172,1.416,0.26,1.6,0.951c0.181,0.711-0.242,1.428-0.953,1.607C518.951,447.33,518.234,446.908,518.053,446.207z"/>
						<path opacity="0.29" fill="#9FCFFF" enable-background="new    " d="M684.393,478.164c-0.275-1.068,0.381-2.145,1.429-2.414
							c1.067-0.266,2.146,0.371,2.411,1.438c0.266,1.057-0.383,2.135-1.428,2.41C685.737,479.865,684.66,479.227,684.393,478.164z"
							/>
						<path opacity="0.29" fill="#9FCFFF" enable-background="new    " d="M691.641,456.781c-0.166-0.648,0.226-1.314,0.885-1.486
							c0.662-0.166,1.328,0.236,1.49,0.885c0.174,0.66-0.227,1.328-0.887,1.49C692.479,457.844,691.813,457.443,691.641,456.781z"/>
						<path opacity="0.29" fill="#9FCFFF" enable-background="new    " d="M501.102,343.959c-0.258-1.039,0.359-2.096,1.395-2.354
							c1.035-0.279,2.096,0.361,2.363,1.395c0.258,1.035-0.371,2.094-1.406,2.363C502.418,345.619,501.359,344.994,501.102,343.959z
							"/>
						<circle opacity="0.29" fill="#9FCFFF" enable-background="new    " cx="466.02" cy="399.455" r="1.404"/>
						<path opacity="0.29" fill="#9FCFFF" enable-background="new    " d="M519.239,317.832c-0.2-0.773,0.267-1.576,1.049-1.775
							c0.78-0.197,1.575,0.277,1.784,1.061c0.197,0.783-0.278,1.576-1.061,1.773C520.23,319.09,519.436,318.623,519.239,317.832z"/>
						<path opacity="0.29" fill="#9FCFFF" enable-background="new    " d="M461.494,387.33c-0.301-1.199,0.412-2.396,1.602-2.709
							c1.188-0.291,2.393,0.424,2.695,1.602c0.311,1.197-0.414,2.406-1.602,2.705C463.002,389.23,461.797,388.508,461.494,387.33z"
							/>
						<path opacity="0.29" fill="#9FCFFF" enable-background="new    " d="M468.793,372.613c-0.207-0.822,0.291-1.666,1.113-1.873
							c0.832-0.213,1.676,0.285,1.883,1.104c0.195,0.834-0.291,1.68-1.113,1.885C469.842,373.934,468.998,373.438,468.793,372.613z"
							/>
						<path opacity="0.29" fill="#9FCFFF" enable-background="new    " d="M497.779,342.211c-0.242-0.955,0.332-1.916,1.275-2.158
							c0.943-0.24,1.906,0.332,2.146,1.277c0.242,0.953-0.33,1.914-1.275,2.156C498.98,343.73,498.02,343.146,497.779,342.211z"/>
						<path fill="#9FCFFF" d="M793.018,154.009c-0.235-0.885,0.295-1.776,1.178-2.002c0.886-0.225,1.775,0.306,2,1.189
							c0.236,0.876-0.305,1.775-1.178,2.001C794.122,155.421,793.23,154.881,793.018,154.009z"/>
						<path fill="#9FCFFF" d="M772.83,415.156c-0.318-1.258,0.438-2.535,1.695-2.844c1.261-0.328,2.535,0.428,2.854,1.688
							c0.321,1.262-0.447,2.533-1.695,2.844C774.424,417.172,773.148,416.414,772.83,415.156z"/>
						<path fill="#9FCFFF" d="M771.311,408.461c-0.256-1.047,0.371-2.113,1.416-2.371c1.047-0.268,2.105,0.367,2.373,1.404
							c0.269,1.049-0.359,2.115-1.416,2.373C772.648,410.135,771.579,409.498,771.311,408.461z"/>
						<path fill="#9FCFFF" d="M766.098,405.09c-0.226-0.855,0.295-1.738,1.149-1.963c0.86-0.205,1.744,0.314,1.96,1.168
							c0.215,0.861-0.305,1.734-1.158,1.959C767.176,406.469,766.305,405.949,766.098,405.09z"/>
						<path fill="#9FCFFF" d="M761.574,399.904c-0.217-0.863,0.304-1.744,1.177-1.969c0.865-0.225,1.767,0.295,1.972,1.166
							c0.225,0.873-0.306,1.756-1.168,1.98C762.682,401.307,761.799,400.768,761.574,399.904z"/>
						<path opacity="0.29" fill="#9FCFFF" enable-background="new    " d="M671.756,474.045c-0.166-0.639,0.223-1.289,0.854-1.443
							c0.639-0.16,1.287,0.217,1.449,0.855c0.156,0.639-0.224,1.287-0.862,1.441C672.564,475.063,671.92,474.674,671.756,474.045z"
							/>
						<path opacity="0.29" fill="#9FCFFF" enable-background="new    " d="M573.045,223.15c-0.252-0.955,0.331-1.935,1.286-2.176
							c0.954-0.242,1.925,0.342,2.166,1.297c0.242,0.953-0.332,1.914-1.287,2.156C574.256,224.678,573.285,224.105,573.045,223.15z"
							/>
						<path opacity="0.29" fill="#9FCFFF" enable-background="new    " d="M572.275,228.073c-0.191-0.741,0.263-1.489,0.994-1.677
							c0.75-0.181,1.486,0.262,1.677,0.994c0.179,0.74-0.265,1.495-0.994,1.678C573.21,229.248,572.465,228.814,572.275,228.073z"/>
						<path opacity="0.29" fill="#9FCFFF" enable-background="new    " d="M595.583,239.568c-0.327-1.26,0.429-2.532,1.679-2.842
							c1.248-0.33,2.524,0.428,2.842,1.686c0.32,1.251-0.438,2.515-1.696,2.844C597.158,241.564,595.895,240.809,595.583,239.568z"
							/>
						<path opacity="0.29" fill="#9FCFFF" enable-background="new    " d="M584.743,229.28c-0.163-0.671,0.235-1.347,0.907-1.521
							c0.671-0.174,1.355,0.236,1.529,0.906c0.162,0.672-0.238,1.348-0.908,1.51C585.602,230.35,584.917,229.95,584.743,229.28z"/>
					</g>
					<g>
						<path fill="#9FCFFF" d="M832.036,609.01c-0.386-0.791-1.338-1.115-2.129-0.729c-0.791,0.389-1.123,1.33-0.735,2.121
							c0.387,0.793,1.34,1.129,2.129,0.744C832.092,610.758,832.422,609.801,832.036,609.01z"/>
						<path fill="#9FCFFF" d="M732.463,596.008c-0.568-1.15-1.97-1.639-3.121-1.082c-1.168,0.57-1.66,1.977-1.098,3.137
							c0.576,1.16,1.979,1.646,3.137,1.084C732.542,598.586,733.034,597.178,732.463,596.008z"/>
						<path fill="#9FCFFF" d="M690.018,665.707c-0.478-0.977-1.668-1.385-2.647-0.906c-0.992,0.477-1.39,1.66-0.913,2.641
							c0.479,0.994,1.662,1.391,2.646,0.922C690.084,667.885,690.496,666.701,690.018,665.707z"/>
						<path fill="#9FCFFF" d="M687.08,659.367c-0.523-1.086-1.833-1.533-2.92-1.01c-1.088,0.535-1.533,1.834-1.012,2.922
							c0.531,1.08,1.841,1.539,2.92,1.01C687.158,661.766,687.609,660.449,687.08,659.367z"/>
						<path fill="#9FCFFF" d="M680.627,663.83c-0.43-0.912-1.531-1.293-2.445-0.848c-0.892,0.438-1.271,1.523-0.834,2.43
							c0.447,0.914,1.541,1.285,2.438,0.855C680.699,665.822,681.08,664.721,680.627,663.83z"/>
						<path fill="#9FCFFF" d="M444.232,645.664c-0.486-0.969-1.656-1.383-2.635-0.906c-0.984,0.473-1.391,1.662-0.904,2.637
							c0.471,0.982,1.652,1.395,2.625,0.912C444.299,647.844,444.717,646.654,444.232,645.664z"/>
						<path fill="#9FCFFF" d="M772.527,536.029c-0.325-0.695-1.159-0.98-1.848-0.646c-0.695,0.342-0.979,1.174-0.646,1.863
							c0.334,0.691,1.167,0.975,1.855,0.639C772.584,537.543,772.874,536.721,772.527,536.029z"/>
						<path fill="#9FCFFF" d="M886.375,588.42c-0.379-0.77-1.311-1.1-2.093-0.721c-0.771,0.379-1.099,1.311-0.714,2.086
							c0.373,0.777,1.313,1.1,2.08,0.721C886.426,590.133,886.748,589.195,886.375,588.42z"/>
						<path fill="#9FCFFF" d="M835.699,511.697c-0.549-1.133-1.913-1.609-3.038-1.053c-1.134,0.549-1.608,1.914-1.054,3.041
							c0.551,1.131,1.91,1.6,3.035,1.057C835.779,514.188,836.24,512.82,835.699,511.697z"/>
						<path fill="#9FCFFF" d="M864.674,622.627c1-0.482,1.42-1.703,0.93-2.711c-0.492-1.008-1.697-1.428-2.705-0.936
							c-1.014,0.496-1.426,1.709-0.944,2.709C862.445,622.695,863.664,623.117,864.674,622.627"/>
						<path fill="#9FCFFF" d="M863.919,598.402c-0.563-1.158-1.971-1.637-3.124-1.082c-1.16,0.563-1.638,1.957-1.074,3.119
							c0.561,1.158,1.963,1.645,3.114,1.088C863.996,600.951,864.48,599.566,863.919,598.402z"/>
						<path fill="#9FCFFF" d="M823.139,572.162c-0.479-0.98-1.662-1.377-2.635-0.906c-0.972,0.469-1.384,1.652-0.912,2.625
							c0.477,0.98,1.647,1.391,2.633,0.908C823.211,574.316,823.615,573.141,823.139,572.162z"/>
						<path fill="#9FCFFF" d="M846.594,519.037c-0.463-0.965-1.627-1.369-2.591-0.904c-0.965,0.479-1.36,1.637-0.896,2.6
							c0.461,0.965,1.625,1.367,2.588,0.902C846.655,521.164,847.066,519.994,846.594,519.037z"/>
						<path fill="#9FCFFF" d="M756.732,515.262c-0.361-0.734-1.236-1.031-1.961-0.68c-0.74,0.354-1.041,1.229-0.688,1.967
							c0.362,0.734,1.239,1.033,1.97,0.672C756.775,516.883,757.094,515.994,756.732,515.262z"/>
						<path fill="#9FCFFF" d="M868.555,545.961c-0.535-1.1-1.867-1.57-2.968-1.035c-1.103,0.537-1.557,1.869-1.021,2.973
							c0.537,1.1,1.859,1.561,2.961,1.025C868.631,548.387,869.076,547.063,868.555,545.961z"/>
						<path fill="#9FCFFF" d="M775.193,532.09c-0.387-0.803-1.358-1.135-2.157-0.742c-0.804,0.387-1.136,1.359-0.743,2.158
							c0.383,0.803,1.359,1.135,2.148,0.75C775.253,533.863,775.586,532.889,775.193,532.09z"/>
						<path fill="#9FCFFF" d="M278.85,634.715c-0.523-1.074-1.818-1.52-2.898-1.004c-1.08,0.533-1.514,1.814-0.996,2.895
							c0.516,1.08,1.822,1.518,2.893,0.994C278.922,637.076,279.373,635.789,278.85,634.715z"/>
						<path fill="#9FCFFF" d="M890.797,614.094c1.17-0.568,1.653-1.969,1.092-3.127c-0.57-1.17-1.971-1.652-3.14-1.084
							c-1.159,0.564-1.644,1.963-1.075,3.131C888.236,614.174,889.637,614.658,890.797,614.094"/>
						<path fill="#9FCFFF" d="M877.221,620.551c-0.445-0.926-1.566-1.314-2.502-0.863c-0.928,0.459-1.307,1.57-0.865,2.5"/>
						<path fill="#9FCFFF" d="M896.965,368.316c-0.504-1.039-1.748-1.473-2.781-0.961c-1.049,0.504-1.479,1.756-0.976,2.793
							c0.511,1.029,1.757,1.467,2.794,0.963S897.469,369.355,896.965,368.316z"/>
						<path fill="#9FCFFF" d="M888.066,362.334c-0.504-1.037-1.748-1.473-2.779-0.963c-1.051,0.504-1.48,1.758-0.979,2.795
							c0.514,1.031,1.758,1.467,2.795,0.963C888.143,364.625,888.571,363.371,888.066,362.334z"/>
						<path fill="#9FCFFF" d="M949.287,420.059c-0.426-0.863-1.464-1.221-2.327-0.809c-0.862,0.426-1.226,1.469-0.808,2.34
							c0.428,0.85,1.469,1.211,2.326,0.793C949.35,421.967,949.711,420.922,949.287,420.059z"/>
						<path fill="#9FCFFF" d="M878.254,336.699c-0.443-0.9-1.521-1.271-2.414-0.834c-0.885,0.434-1.258,1.512-0.832,2.402
							c0.443,0.9,1.508,1.271,2.416,0.834C878.309,338.67,878.682,337.59,878.254,336.699z"/>
						<path fill="#9FCFFF" d="M947.178,535.199c-0.557-1.154-1.936-1.631-3.088-1.076c-1.146,0.564-1.631,1.951-1.068,3.098
							c0.557,1.152,1.943,1.623,3.09,1.072C947.264,537.725,947.741,536.344,947.178,535.199z"/>
						<path fill="#9FCFFF" d="M849.834,451.635c-0.484-1-1.689-1.42-2.684-0.928c-1,0.484-1.412,1.682-0.93,2.682
							c0.485,1.002,1.69,1.408,2.685,0.932C849.898,453.828,850.311,452.629,849.834,451.635z"/>
						<path fill="#9FCFFF" d="M783.881,413.74c-0.523-1.074-1.82-1.518-2.9-1.002c-1.082,0.527-1.524,1.826-1.004,2.896
							c0.524,1.074,1.822,1.521,2.888,1.004C783.951,416.115,784.396,414.82,783.881,413.74z"/>
						<path fill="#9FCFFF" d="M728.501,384.418c-0.45-0.92-1.573-1.309-2.507-0.857c-0.936,0.451-1.324,1.572-0.873,2.506
							c0.457,0.932,1.579,1.316,2.506,0.875C728.57,386.48,728.959,385.363,728.501,384.418z"/>
						<path fill="#9FCFFF" d="M741.484,390.59c-0.563-1.146-1.963-1.631-3.109-1.068c-1.146,0.564-1.631,1.951-1.076,3.102
							c0.563,1.162,1.943,1.639,3.102,1.09C741.563,393.137,742.04,391.744,741.484,390.59z"/>
						<path fill="#9FCFFF" d="M722.51,389.709c-0.307-0.66-1.098-0.926-1.736-0.613c-0.651,0.316-0.926,1.098-0.605,1.758
							c0.314,0.639,1.098,0.914,1.75,0.6C722.563,391.131,722.84,390.348,722.51,389.709z"/>
						<path fill="#9FCFFF" d="M735.48,395.211c-0.387-0.789-1.34-1.113-2.123-0.734c-0.791,0.389-1.114,1.34-0.735,2.121
							c0.381,0.785,1.325,1.115,2.122,0.736C735.527,396.939,735.857,395.996,735.48,395.211z"/>
						<path fill="#9FCFFF" d="M937.462,545.631c-0.504-1.035-1.758-1.465-2.786-0.969c-1.037,0.506-1.467,1.76-0.971,2.787
							c0.503,1.039,1.758,1.469,2.794,0.963C937.529,547.916,937.959,546.662,937.462,545.631z"/>
						<path fill="#9FCFFF" d="M727.909,454.785c-0.565-1.117-1.938-1.6-3.067-1.051c-1.133,0.549-1.603,1.922-1.045,3.061
							c0.551,1.131,1.907,1.602,3.045,1.045C727.975,457.289,728.449,455.924,727.909,454.785z"/>
						<path fill="#9FCFFF" d="M785.738,431.422c-0.286-0.594-1.008-0.846-1.617-0.543c-0.596,0.287-0.844,1.008-0.55,1.611
							c0.286,0.594,1.008,0.846,1.61,0.549C785.782,432.746,786.032,432.021,785.738,431.422z"/>
						<path fill="#9FCFFF" d="M931.219,470.371c-0.426-0.877-1.484-1.244-2.359-0.818c-0.879,0.422-1.248,1.49-0.817,2.361
							c0.425,0.877,1.481,1.24,2.36,0.814C931.287,472.297,931.652,471.238,931.219,470.371z"/>
						<path opacity="0.29" fill="#9FCFFF" enable-background="new    " d="M623.227,341.844c-0.41-0.846-1.433-1.188-2.273-0.783
							c-0.85,0.412-1.205,1.436-0.792,2.283c0.412,0.848,1.44,1.197,2.282,0.779C623.292,343.723,623.641,342.693,623.227,341.844z"
							/>
						<path fill="#9FCFFF" d="M758.152,402.664c-0.477-1.021-1.707-1.443-2.727-0.947c-1.006,0.492-1.42,1.719-0.938,2.717
							c0.498,1.018,1.723,1.445,2.73,0.955C758.232,404.891,758.643,403.672,758.152,402.664z"/>
						<path fill="#9FCFFF" d="M746.654,397.457c-0.428-0.863-1.456-1.211-2.313-0.793c-0.863,0.41-1.211,1.441-0.793,2.297
							c0.41,0.863,1.448,1.217,2.305,0.799C746.709,399.342,747.059,398.311,746.654,397.457z"/>
						<path opacity="0.29" fill="#9FCFFF" enable-background="new    " d="M662.725,362.449c-0.451-0.936-1.569-1.322-2.5-0.865
							c-0.936,0.451-1.322,1.572-0.871,2.508c0.449,0.934,1.576,1.316,2.513,0.863C662.796,364.498,663.176,363.383,662.725,362.449
							z"/>
						<path fill="#9FCFFF" d="M829.09,389.596c-0.503-1.035-1.756-1.48-2.801-0.969c-1.045,0.494-1.475,1.764-0.979,2.807
							c0.513,1.031,1.772,1.471,2.803,0.973C829.172,391.896,829.594,390.635,829.09,389.596z"/>
						<path fill="#9FCFFF" d="M534.572,656.176c-0.432-0.885-1.51-1.256-2.396-0.826c-0.891,0.439-1.255,1.512-0.822,2.396
							c0.431,0.885,1.502,1.262,2.395,0.824C534.633,658.139,534.998,657.068,534.572,656.176z"/>
						<path fill="#9FCFFF" d="M556.172,599.576c-0.511-1.029-1.736-1.459-2.779-0.945c-1.024,0.49-1.453,1.729-0.949,2.768
							c0.504,1.02,1.744,1.449,2.762,0.951C556.239,601.848,556.669,600.607,556.172,599.576z"/>
						<path fill="#9FCFFF" d="M858.407,491.648c-0.328-0.684-1.153-0.959-1.834-0.633c-0.677,0.334-0.958,1.152-0.632,1.834
							c0.332,0.676,1.152,0.957,1.834,0.633C858.458,493.156,858.74,492.334,858.407,491.648z"/>
						<path fill="#9FCFFF" d="M817.378,460.123c-0.478-0.979-1.661-1.391-2.653-0.914c-0.979,0.479-1.393,1.662-0.914,2.654
							c0.484,0.984,1.666,1.396,2.641,0.914C817.438,462.307,817.85,461.109,817.378,460.123z"/>
						<path fill="#9FCFFF" d="M796.602,510.061c-0.395-0.811-1.375-1.148-2.181-0.748c-0.812,0.391-1.149,1.371-0.752,2.176
							c0.394,0.797,1.367,1.145,2.179,0.754C796.652,511.842,796.991,510.873,796.602,510.061z"/>
						<path fill="#9FCFFF" d="M444.834,827.988c-0.393-0.813-1.371-1.154-2.188-0.762c-0.803,0.4-1.141,1.381-0.75,2.193"/>
						<path fill="#9FCFFF" d="M984.645,459.387c-0.387-0.789-1.332-1.121-2.123-0.734c-0.789,0.387-1.129,1.34-0.744,2.129
							c0.388,0.791,1.347,1.123,2.138,0.736C984.705,461.131,985.03,460.178,984.645,459.387z"/>
						<path fill="#9FCFFF" d="M991.003,470.531c-0.306-0.631-1.077-0.904-1.716-0.59c-0.637,0.314-0.902,1.076-0.59,1.715
							c0.316,0.639,1.078,0.906,1.717,0.592C991.037,471.947,991.311,471.178,991.003,470.531z"/>
						<path fill="#9FCFFF" d="M786.876,667.881c-0.547-1.133-1.915-1.607-3.053-1.053c-1.132,0.551-1.608,1.916-1.06,3.047"/>
						<path fill="#9FCFFF" d="M450.063,555.811c-0.414-0.848-1.428-1.195-2.277-0.783s-1.205,1.432-0.791,2.281
							c0.41,0.85,1.439,1.199,2.273,0.785C450.123,557.688,450.473,556.658,450.063,555.811z"/>
						<path fill="#9FCFFF" d="M389.393,551.838c-0.42-0.855-1.447-1.219-2.305-0.799c-0.869,0.416-1.219,1.447-0.807,2.309
							c0.416,0.857,1.457,1.211,2.318,0.803C389.447,553.725,389.809,552.693,389.393,551.838z"/>
						<path fill="#9FCFFF" d="M573.6,572.643c-0.518-1.053-1.785-1.496-2.836-0.98c-1.053,0.52-1.498,1.787-0.986,2.846
							c0.517,1.051,1.783,1.496,2.836,0.979C573.672,574.975,574.109,573.701,573.6,572.643z"/>
						<path fill="#9FCFFF" d="M505.234,565.27c-0.469-0.959-1.613-1.352-2.555-0.895c-0.949,0.467-1.338,1.615-0.881,2.557
							c0.465,0.951,1.598,1.354,2.557,0.883C505.299,567.355,505.693,566.215,505.234,565.27z"/>
						<path fill="#9FCFFF" d="M796.946,657.967c0.958-0.473,1.368-1.627,0.892-2.592c-0.466-0.963-1.619-1.361-2.584-0.895
							c-0.958,0.469-1.361,1.631-0.892,2.588C794.828,658.033,795.975,658.436,796.946,657.967"/>
						<path fill="#9FCFFF" d="M582.057,629.373c-0.315-0.639-1.072-0.9-1.703-0.592s-0.899,1.072-0.59,1.703
							c0.308,0.631,1.063,0.891,1.693,0.582C582.088,630.76,582.355,629.996,582.057,629.373z"/>
						<path fill="#9FCFFF" d="M583.359,622.961c-0.332-0.701-1.186-0.992-1.889-0.645c-0.703,0.332-0.99,1.18-0.642,1.883
							c0.333,0.703,1.181,0.986,1.877,0.646C583.417,624.508,583.7,623.658,583.359,622.961z"/>
						<path fill="#9FCFFF" d="M842.537,392.668c-0.507-1.057-1.795-1.508-2.855-0.984c-1.066,0.516-1.504,1.791-0.988,2.855
							c0.511,1.059,1.793,1.504,2.859,0.988C842.609,395.002,843.049,393.729,842.537,392.668z"/>
						<path fill="#9FCFFF" d="M918.499,497.855c-0.491-1.008-1.716-1.422-2.717-0.939c-1,0.484-1.429,1.711-0.931,2.711
							c0.492,1.008,1.703,1.422,2.703,0.938C918.57,500.068,918.982,498.855,918.499,497.855z"/>
						<path fill="#9FCFFF" d="M689.743,591.938c-0.528-1.096-1.847-1.549-2.94-1.02c-1.104,0.537-1.547,1.848-1.011,2.936
							c0.529,1.094,1.847,1.547,2.935,1.01C689.828,594.342,690.273,593.033,689.743,591.938z"/>
						<path fill="#9FCFFF" d="M778.898,558.414c-0.354-0.711-1.209-1.02-1.926-0.67c-0.717,0.346-1.018,1.223-0.67,1.938
							c0.354,0.711,1.213,1.012,1.934,0.664C778.954,560.002,779.26,559.133,778.898,558.414z"/>
						<path fill="#9FCFFF" d="M787.15,565.324c-0.551-1.145-1.936-1.615-3.075-1.059c-1.14,0.555-1.623,1.928-1.06,3.072
							c0.556,1.139,1.92,1.617,3.067,1.053C787.227,567.842,787.697,566.469,787.15,565.324z"/>
						<path fill="#9FCFFF" d="M717.098,408.295c-0.313-0.666-1.119-0.934-1.787-0.609c-0.649,0.314-0.934,1.121-0.613,1.779
							c0.32,0.662,1.127,0.943,1.793,0.617C717.15,409.76,717.419,408.969,717.098,408.295z"/>
						<path fill="#9FCFFF" d="M871.818,413.271c-0.471-0.971-1.654-1.385-2.633-0.906c-0.971,0.471-1.385,1.654-0.906,2.619
							c0.471,0.984,1.652,1.395,2.626,0.912C871.893,415.428,872.297,414.252,871.818,413.271z"/>
						<path fill="#9FCFFF" d="M906.967,481.307c-0.4-0.818-1.388-1.152-2.193-0.752c-0.811,0.393-1.15,1.371-0.758,2.184
							c0.392,0.814,1.373,1.152,2.19,0.754C907.018,483.1,907.359,482.119,906.967,481.307z"/>
						<path fill="#9FCFFF" d="M751.618,630.574c-0.397-0.82-1.388-1.152-2.19-0.766c-0.814,0.404-1.154,1.387-0.769,2.203
							c0.405,0.814,1.387,1.152,2.206,0.754C751.678,632.373,752.01,631.387,751.618,630.574z"/>
						<path fill="#9FCFFF" d="M720.908,402.977c-0.563-1.16-1.969-1.652-3.135-1.084c-1.17,0.57-1.653,1.971-1.086,3.139
							c0.572,1.168,1.972,1.652,3.139,1.084C721,405.551,721.484,404.141,720.908,402.977z"/>
						<path fill="#9FCFFF" d="M528.426,780.582c0.739-0.365,1.053-1.256,0.695-2.002c-0.367-0.742-1.264-1.049-1.995-0.688
							c-0.748,0.355-1.055,1.254-0.683,1.986C526.78,780.633,527.686,780.934,528.426,780.582"/>
						<path fill="#9FCFFF" d="M902.155,434.623c-0.373-0.764-1.298-1.072-2.052-0.707c-0.754,0.367-1.078,1.291-0.711,2.047
							c0.373,0.76,1.289,1.076,2.051,0.703C902.213,436.299,902.527,435.383,902.155,434.623z"/>
						<path fill="#9FCFFF" d="M836.921,445.752c-0.464-0.934-1.584-1.322-2.526-0.865c-0.936,0.449-1.332,1.58-0.873,2.52
							c0.457,0.943,1.586,1.326,2.521,0.875C836.984,447.822,837.381,446.695,836.921,445.752z"/>
						<path fill="#9FCFFF" d="M868.113,453.184c-0.34-0.709-1.188-0.992-1.891-0.662c-0.703,0.348-0.994,1.189-0.662,1.906
							c0.346,0.689,1.201,0.982,1.897,0.641C868.169,454.73,868.46,453.875,868.113,453.184z"/>
						<path fill="#9FCFFF" d="M176.105,679.74c-0.311-0.684-1.123-0.957-1.791-0.629c-0.666,0.326-0.955,1.131-0.615,1.807
							c0.318,0.66,1.125,0.943,1.791,0.613C176.166,681.213,176.447,680.408,176.105,679.74z"/>
						<path opacity="0.29" fill="#9FCFFF" enable-background="new    " d="M574.941,379.74c-0.479-0.979-1.662-1.391-2.648-0.906
							c-0.984,0.471-1.391,1.66-0.912,2.639c0.467,0.986,1.661,1.393,2.646,0.924C575.006,381.916,575.417,380.734,574.941,379.74z"
							/>
						<path fill="#9FCFFF" d="M866.454,506.123c-0.519-1.068-1.806-1.518-2.886-1.002c-1.073,0.525-1.518,1.82-0.994,2.893
							c0.523,1.074,1.813,1.525,2.885,1.002C866.532,508.492,866.977,507.197,866.454,506.123z"/>
						<path fill="#9FCFFF" d="M731.29,686.535c1.06-0.523,1.495-1.797,0.987-2.857c-0.51-1.057-1.784-1.496-2.844-0.986
							c-1.062,0.523-1.506,1.793-0.979,2.852C728.965,686.602,730.245,687.031,731.29,686.535"/>
						<path fill="#9FCFFF" d="M823.441,647.049c-0.5-1.064-1.782-1.51-2.844-0.984c-1.056,0.51-1.494,1.783-0.984,2.842"/>
						<path fill="#9FCFFF" d="M742.758,683.111c-0.347-0.721-1.222-1.018-1.934-0.664c-0.725,0.352-1.025,1.213-0.672,1.938"/>
						<path fill="#9FCFFF" d="M804.643,648.299c0.645-0.307,0.904-1.076,0.598-1.707c-0.309-0.631-1.071-0.898-1.71-0.586
							c-0.638,0.303-0.897,1.072-0.591,1.703C803.247,648.34,804.012,648.607,804.643,648.299"/>
						<path fill="#9FCFFF" d="M861.658,606.537c-0.372-0.762-1.297-1.086-2.057-0.713c-0.771,0.381-1.086,1.299-0.713,2.059
							c0.365,0.77,1.291,1.092,2.051,0.719C861.719,608.23,862.032,607.313,861.658,606.537z"/>
						<path fill="#9FCFFF" d="M699.896,696.293c0.603-0.293,0.853-1.025,0.566-1.637c-0.302-0.609-1.037-0.859-1.64-0.566
							c-0.608,0.303-0.867,1.031-0.565,1.639C698.551,696.332,699.28,696.588,699.896,696.293"/>
						<path fill="#9FCFFF" d="M856.239,629.207c-0.438-0.893-1.519-1.264-2.416-0.832c-0.892,0.436-1.271,1.521-0.833,2.414"/>
						<path fill="#9FCFFF" d="M834.454,636.094c-0.511-1.057-1.784-1.496-2.837-0.994c-1.053,0.52-1.496,1.787-0.977,2.838"/>
						<path fill="#9FCFFF" d="M828.186,640.15c-0.416-0.869-1.459-1.232-2.323-0.807c-0.863,0.412-1.226,1.453-0.808,2.324"/>
						<path fill="#9FCFFF" d="M785.578,614.65c-0.398-0.822-1.387-1.154-2.206-0.756c-0.821,0.4-1.157,1.381-0.761,2.199
							c0.398,0.82,1.387,1.166,2.207,0.768C785.639,616.461,785.977,615.469,785.578,614.65z"/>
						<path fill="#9FCFFF" d="M888.328,527.508c-0.438-0.906-1.539-1.287-2.443-0.848c-0.902,0.443-1.289,1.537-0.845,2.451
							c0.446,0.898,1.53,1.295,2.444,0.834C888.393,529.508,888.764,528.414,888.328,527.508z"/>
						<path fill="#9FCFFF" d="M743.499,645.918c-0.325-0.68-1.151-0.971-1.842-0.637c-0.683,0.34-0.964,1.16-0.63,1.848
							c0.324,0.684,1.152,0.973,1.834,0.646C743.551,647.428,743.834,646.607,743.499,645.918z"/>
						<path fill="#9FCFFF" d="M598.707,674.283c-0.328-0.652-1.119-0.938-1.771-0.609c-0.668,0.314-0.935,1.107-0.613,1.768
							c0.318,0.658,1.117,0.936,1.777,0.613C598.752,675.74,599.027,674.943,598.707,674.283z"/>
						<path fill="#9FCFFF" d="M798.165,618.416c-0.412-0.848-1.433-1.203-2.282-0.793c-0.855,0.42-1.211,1.441-0.793,2.299
							c0.412,0.848,1.441,1.197,2.282,0.791C798.227,620.295,798.583,619.273,798.165,618.416z"/>
						<path fill="#9FCFFF" d="M837.689,637.02c-0.504-1.037-1.742-1.467-2.781-0.963c-1.037,0.502-1.465,1.742-0.96,2.779"/>
						<path fill="#9FCFFF" d="M772.164,655.973c-0.348-0.717-1.216-1.01-1.926-0.67c-0.717,0.35-1.023,1.215-0.672,1.924
							c0.349,0.721,1.216,1.027,1.928,0.674C772.211,657.555,772.503,656.699,772.164,655.973z"/>
						<path fill="#9FCFFF" d="M801.396,533.389c-0.424-0.893-1.504-1.264-2.389-0.832c-0.89,0.439-1.263,1.502-0.824,2.396
							c0.424,0.891,1.502,1.262,2.389,0.832C801.465,535.348,801.828,534.273,801.396,533.389z"/>
						<path fill="#9FCFFF" d="M816.273,649.457c1.152-0.557,1.629-1.951,1.066-3.098c-0.556-1.15-1.943-1.639-3.096-1.066
							c-1.152,0.557-1.624,1.943-1.068,3.094C813.741,649.533,815.12,650.008,816.273,649.457"/>
						<path fill="#9FCFFF" d="M808.743,619.955c-0.485-0.986-1.677-1.408-2.675-0.924c-0.994,0.492-1.414,1.682-0.924,2.676
							c0.484,1,1.674,1.42,2.674,0.922C808.814,622.152,809.221,620.963,808.743,619.955z"/>
						<path fill="#9FCFFF" d="M845.247,608.412c-0.502-1.035-1.742-1.465-2.772-0.969c-1.031,0.512-1.459,1.752-0.961,2.779
							c0.496,1.031,1.75,1.459,2.773,0.957C845.314,610.682,845.753,609.436,845.247,608.412z"/>
						<path fill="#9FCFFF" d="M749.207,674.15c0.959-0.471,1.355-1.627,0.885-2.584c-0.465-0.967-1.621-1.361-2.584-0.896
							c-0.959,0.471-1.355,1.625-0.891,2.59C747.088,674.219,748.244,674.613,749.207,674.15"/>
						<path fill="#9FCFFF" d="M786.393,632.117c-0.537-1.113-1.873-1.574-2.988-1.041c-1.118,0.551-1.578,1.889-1.035,2.996
							c0.542,1.111,1.88,1.57,2.99,1.029C786.469,634.557,786.936,633.227,786.393,632.117z"/>
						<path fill="#9FCFFF" d="M718.941,698.928c-0.432-0.871-1.482-1.242-2.368-0.811c-0.877,0.426-1.249,1.49-0.81,2.354"/>
						<path fill="#9FCFFF" d="M847.957,584.99c-0.434-0.859-1.463-1.238-2.334-0.803c-0.867,0.418-1.227,1.469-0.8,2.334
							c0.42,0.869,1.452,1.227,2.323,0.807C848.012,586.904,848.375,585.859,847.957,584.99z"/>
						<path fill="#9FCFFF" d="M886.404,609.42c0.719-0.344,1.011-1.215,0.664-1.93c-0.362-0.707-1.215-1.012-1.934-0.664
							c-0.718,0.344-1.011,1.213-0.664,1.93C884.818,609.477,885.678,609.775,886.404,609.42"/>
						<path fill="#9FCFFF" d="M921.169,592.594c-0.296-0.588-0.995-0.846-1.59-0.559c-0.601,0.295-0.847,1.008-0.558,1.604"/>
						<path fill="#9FCFFF" d="M904.391,395.32c-0.39-0.828-1.391-1.174-2.219-0.768c-0.818,0.4-1.173,1.393-0.767,2.221
							c0.405,0.826,1.401,1.166,2.221,0.768C904.457,397.143,904.799,396.148,904.391,395.32z"/>
						<path fill="#9FCFFF" d="M966.646,487.732c-0.512-1.043-1.764-1.473-2.803-0.971c-1.043,0.51-1.473,1.766-0.97,2.803
							c0.511,1.045,1.757,1.479,2.802,0.971C966.705,490.037,967.148,488.771,966.646,487.732z"/>
						<path fill="#9FCFFF" d="M757.045,620.088c-0.393-0.799-1.357-1.137-2.162-0.752c-0.808,0.4-1.146,1.365-0.746,2.172
							c0.387,0.803,1.358,1.137,2.158,0.742C757.1,621.867,757.438,620.9,757.045,620.088z"/>
						<path fill="#9FCFFF" d="M745.748,502.041c-0.482-1.002-1.674-1.406-2.669-0.93c-0.985,0.484-1.405,1.674-0.921,2.676
							c0.484,0.986,1.684,1.4,2.675,0.924C745.82,504.227,746.232,503.025,745.748,502.041z"/>
						<path fill="#9FCFFF" d="M691.002,634.324c-0.544-1.109-1.88-1.568-2.984-1.033c-1.115,0.537-1.584,1.881-1.041,2.99
							s1.881,1.57,2.996,1.035C691.083,636.773,691.537,635.441,691.002,634.324z"/>
						<path fill="#9FCFFF" d="M912.501,524.004c-0.364-0.754-1.271-1.068-2.022-0.703c-0.748,0.359-1.055,1.271-0.695,2.018
							c0.365,0.756,1.27,1.068,2.023,0.703C912.559,525.654,912.874,524.752,912.501,524.004z"/>
						<path fill="#9FCFFF" d="M720.617,533.574c-0.346-0.717-1.207-1.018-1.926-0.656c-0.711,0.34-1.01,1.201-0.662,1.92
							c0.354,0.711,1.207,1.018,1.926,0.67C720.672,535.162,720.967,534.293,720.617,533.574z"/>
						<path fill="#9FCFFF" d="M962.084,520.281c-0.504-1.037-1.744-1.467-2.771-0.971c-1.039,0.504-1.475,1.75-0.963,2.779
							c0.496,1.031,1.734,1.475,2.778,0.961C962.159,522.555,962.588,521.303,962.084,520.281z"/>
						<path opacity="0.29" fill="#9FCFFF" enable-background="new    " d="M570.084,357.297c-0.354-0.736-1.256-1.053-1.986-0.691
							c-0.742,0.365-1.049,1.248-0.697,1.988c0.361,0.744,1.258,1.055,1.996,0.688C570.131,358.92,570.443,358.033,570.084,357.297z
							"/>
						<path fill="#9FCFFF" d="M682.764,679.443c-0.313-0.654-1.09-0.92-1.728-0.607c-0.647,0.322-0.922,1.092-0.601,1.738
							c0.307,0.645,1.078,0.918,1.715,0.604C682.811,680.857,683.079,680.082,682.764,679.443z"/>
						<path fill="#9FCFFF" d="M477.82,662.973c-0.313-0.65-1.098-0.926-1.758-0.604c-0.652,0.313-0.92,1.104-0.607,1.756
							c0.316,0.654,1.105,0.934,1.76,0.607C477.873,664.426,478.148,663.629,477.82,662.973z"/>
						<path fill="#9FCFFF" d="M585.346,752c0.797-0.395,1.135-1.357,0.736-2.164c-0.386-0.82-1.359-1.152-2.165-0.752
							c-0.803,0.385-1.136,1.359-0.751,2.162C583.566,752.055,584.533,752.391,585.346,752"/>
						<path fill="#9FCFFF" d="M558.626,771.426c0.675-0.32,0.958-1.139,0.64-1.814c-0.342-0.664-1.154-0.955-1.822-0.629
							c-0.688,0.334-0.956,1.139-0.631,1.818C557.146,771.479,557.952,771.76,558.626,771.426"/>
						<path fill="#9FCFFF" d="M564.1,728.508c-0.463-0.951-1.604-1.346-2.563-0.887c-0.958,0.471-1.354,1.611-0.891,2.578
							c0.466,0.947,1.619,1.344,2.57,0.881C564.167,730.615,564.572,729.467,564.1,728.508z"/>
						<path fill="#9FCFFF" d="M397.244,768.457c-0.328-0.68-1.168-0.971-1.842-0.639c-0.697,0.34-0.979,1.16-0.645,1.85
							c0.338,0.682,1.158,0.965,1.855,0.625C397.287,769.973,397.578,769.148,397.244,768.457z"/>
						<path fill="#9FCFFF" d="M538.033,765.24c-0.49-1.008-1.701-1.438-2.709-0.945c-1.008,0.49-1.43,1.709-0.932,2.711
							c0.483,1.014,1.701,1.436,2.711,0.945C538.111,767.459,538.523,766.248,538.033,765.24z"/>
						<path fill="#9FCFFF" d="M655.553,729.936c-0.438-0.893-1.516-1.264-2.406-0.84c-0.902,0.447-1.282,1.533-0.85,2.43"/>
						<path fill="#9FCFFF" d="M512.881,694.148c-0.318-0.658-1.111-0.928-1.771-0.605c-0.658,0.322-0.936,1.119-0.614,1.779
							s1.112,0.926,1.78,0.613C512.928,695.607,513.201,694.809,512.881,694.148z"/>
						<path fill="#9FCFFF" d="M416.09,748.199c-0.412-0.836-1.422-1.191-2.264-0.771c-0.834,0.398-1.18,1.412-0.773,2.24
							c0.41,0.85,1.42,1.189,2.254,0.791C416.141,750.047,416.486,749.047,416.09,748.199z"/>
						<path fill="#9FCFFF" d="M467.584,735.447c-0.326-0.684-1.166-0.975-1.848-0.646c-0.682,0.34-0.973,1.166-0.633,1.863
							c0.328,0.68,1.152,0.986,1.85,0.645C467.643,736.961,467.926,736.141,467.584,735.447z"/>
						<path fill="#9FCFFF" d="M397.805,761.563c-0.367-0.768-1.297-1.088-2.061-0.713c-0.768,0.365-1.092,1.289-0.719,2.066
							c0.379,0.768,1.305,1.092,2.064,0.719C397.859,763.256,398.182,762.33,397.805,761.563z"/>
						<path fill="#9FCFFF" d="M795.159,435.199c-0.433-0.887-1.503-1.264-2.396-0.824c-0.9,0.43-1.265,1.502-0.834,2.402
							c0.433,0.883,1.51,1.254,2.401,0.832C795.23,437.178,795.602,436.098,795.159,435.199z"/>
						<path opacity="0.29" fill="#9FCFFF" enable-background="new    " d="M565.572,379.666c-0.333-0.674-1.133-0.949-1.805-0.629
							c-0.662,0.334-0.943,1.141-0.623,1.799c0.326,0.684,1.131,0.951,1.806,0.631C565.617,381.141,565.893,380.326,565.572,379.666
							z"/>
						<path fill="#9FCFFF" d="M446.867,806.559c-0.352-0.713-1.221-1.004-1.932-0.664c-0.719,0.348-1.01,1.217-0.656,1.928
							c0.346,0.719,1.209,1.018,1.918,0.664C446.916,808.139,447.215,807.275,446.867,806.559z"/>
						<path opacity="0.29" fill="#9FCFFF" enable-background="new    " d="M668.328,403.693c-0.357-0.764-1.27-1.068-2.016-0.709
							c-0.762,0.371-1.07,1.281-0.711,2.043c0.373,0.748,1.283,1.055,2.037,0.688C668.385,405.357,668.699,404.439,668.328,403.693z
							"/>
						<path opacity="0.29" fill="#9FCFFF" enable-background="new    " d="M619.182,406.988c-0.545-1.109-1.875-1.564-2.978-1.029
							c-1.108,0.529-1.562,1.861-1.024,2.965c0.541,1.109,1.865,1.568,2.969,1.033C619.251,409.42,619.711,408.08,619.182,406.988z"
							/>
						<path opacity="0.29" fill="#9FCFFF" enable-background="new    " d="M616.215,394.537c-0.318-0.646-1.104-0.906-1.742-0.594
							c-0.64,0.314-0.912,1.086-0.592,1.73c0.313,0.652,1.09,0.92,1.734,0.602C616.256,395.959,616.521,395.195,616.215,394.537z"/>
						<path fill="#9FCFFF" d="M910.835,371.82c-0.542-1.123-1.901-1.594-3.019-1.045c-1.123,0.545-1.592,1.9-1.051,3.025
							c0.543,1.123,1.9,1.592,3.031,1.043C910.921,374.303,911.385,372.951,910.835,371.82z"/>
						<circle fill="#9FCFFF" cx="754.631" cy="660.375" r="2.144"/>
						<path fill="#9FCFFF" d="M686.258,569.369c-0.328-0.654-1.105-0.92-1.765-0.615c-0.646,0.322-0.914,1.113-0.606,1.76
							c0.321,0.66,1.106,0.934,1.766,0.611C686.299,570.807,686.573,570.021,686.258,569.369z"/>
						<path fill="#9FCFFF" d="M579.827,701.135c-0.478-0.994-1.675-1.393-2.646-0.92c-0.988,0.484-1.4,1.668-0.918,2.654
							c0.479,0.979,1.67,1.383,2.647,0.918C579.898,703.305,580.311,702.121,579.827,701.135z"/>
						<path fill="#9FCFFF" d="M560.493,689.482c-0.295-0.604-1.022-0.859-1.638-0.566c-0.611,0.301-0.861,1.039-0.566,1.639
							c0.292,0.615,1.029,0.867,1.639,0.566C560.535,690.834,560.788,690.098,560.493,689.482z"/>
						<path opacity="0.29" fill="#9FCFFF" enable-background="new    " d="M457.223,324.076c-0.385-0.789-1.33-1.119-2.139-0.734
							c-0.789,0.387-1.119,1.344-0.732,2.135c0.393,0.799,1.344,1.123,2.143,0.744C457.283,325.832,457.615,324.875,457.223,324.076
							z"/>
						<path fill="#9FCFFF" d="M633.213,480.326c-0.472-0.957-1.626-1.369-2.585-0.896c-0.969,0.457-1.368,1.629-0.903,2.592
							c0.472,0.957,1.635,1.359,2.599,0.896C633.282,482.445,633.684,481.283,633.213,480.326z"/>
						<circle fill="#9FCFFF" cx="695.829" cy="500.074" r="1.401"/>
						<path opacity="0.29" fill="#9FCFFF" enable-background="new    " d="M602.498,472.078c-0.344-0.719-1.221-1.035-1.945-0.68
							c-0.726,0.352-1.025,1.229-0.68,1.959c0.354,0.727,1.227,1.025,1.953,0.672C602.553,473.678,602.859,472.809,602.498,472.078z
							"/>
						<path fill="#9FCFFF" d="M691.459,487.893c-0.544-1.111-1.859-1.563-2.969-1.033c-1.096,0.543-1.557,1.865-1.027,2.961
							c0.537,1.117,1.867,1.57,2.969,1.035C691.535,490.316,691.989,488.986,691.459,487.893z"/>
						<path fill="#9FCFFF" d="M676.389,481.363c-0.373-0.764-1.297-1.086-2.06-0.713c-0.776,0.373-1.099,1.297-0.726,2.059
							c0.386,0.764,1.303,1.092,2.064,0.719C676.438,483.049,676.76,482.125,676.389,481.363z"/>
						<path opacity="0.29" fill="#9FCFFF" enable-background="new    " d="M634.624,476.848c-0.433-0.887-1.489-1.25-2.366-0.824
							c-0.879,0.426-1.242,1.484-0.818,2.361c0.433,0.883,1.49,1.248,2.369,0.822C634.684,478.781,635.042,477.719,634.624,476.848z
							"/>
						<path fill="#9FCFFF" d="M287.645,523.643c-0.389-0.828-1.373-1.166-2.191-0.768c-0.82,0.398-1.158,1.379-0.762,2.197
							c0.385,0.822,1.379,1.162,2.193,0.77C287.713,525.438,288.045,524.447,287.645,523.643z"/>
						<path fill="#9FCFFF" d="M471.609,710.088c-0.566-1.168-1.969-1.654-3.129-1.076c-1.176,0.561-1.66,1.963-1.092,3.131
							c0.568,1.166,1.979,1.645,3.133,1.072C471.693,712.656,472.18,711.254,471.609,710.088z"/>
						<path fill="#9FCFFF" d="M468.449,703.996c-0.479-0.967-1.646-1.377-2.611-0.898c-0.973,0.471-1.369,1.641-0.904,2.604
							c0.469,0.971,1.637,1.385,2.609,0.898C468.51,706.135,468.914,704.959,468.449,703.996z"/>
						<path fill="#9FCFFF" d="M470.254,698.051c-0.381-0.797-1.344-1.135-2.143-0.756c-0.789,0.4-1.131,1.365-0.744,2.156
							c0.393,0.799,1.354,1.131,2.15,0.752C470.322,699.803,470.654,698.846,470.254,698.051z"/>
						<path fill="#9FCFFF" d="M470.365,691.174c-0.395-0.799-1.359-1.139-2.172-0.746c-0.805,0.387-1.158,1.365-0.752,2.164
							c0.395,0.813,1.367,1.145,2.172,0.76C470.426,692.959,470.75,691.977,470.365,691.174z"/>
						<path fill="#9FCFFF" d="M586.821,689.832c-0.286-0.594-1.001-0.836-1.583-0.547c-0.594,0.287-0.844,0.994-0.557,1.588
							c0.295,0.588,1.002,0.836,1.592,0.543C586.859,691.135,587.102,690.42,586.821,689.832z"/>
						<path opacity="0.29" fill="#9FCFFF" enable-background="new    " d="M500.293,434.484c-0.426-0.895-1.504-1.266-2.389-0.834
							c-0.883,0.432-1.248,1.504-0.816,2.389c0.43,0.885,1.486,1.25,2.375,0.818C500.354,436.432,500.725,435.367,500.293,434.484z"
							/>
						<path opacity="0.29" fill="#9FCFFF" enable-background="new    " d="M504.055,437.744c-0.332-0.688-1.158-0.963-1.84-0.637
							c-0.689,0.348-0.967,1.158-0.639,1.842c0.34,0.682,1.166,0.973,1.842,0.639C504.1,439.246,504.391,438.434,504.055,437.744z"
							/>
						<path opacity="0.29" fill="#9FCFFF" enable-background="new    " d="M493.668,461.574c-0.559-1.176-1.961-1.66-3.111-1.092
							c-1.168,0.557-1.654,1.957-1.086,3.125c0.564,1.158,1.959,1.637,3.131,1.074C493.758,464.111,494.234,462.717,493.668,461.574
							z"/>
						<path opacity="0.29" fill="#9FCFFF" enable-background="new    " d="M495.311,446.715c-0.309-0.617-1.049-0.877-1.672-0.574
							c-0.625,0.301-0.885,1.057-0.584,1.68c0.309,0.617,1.051,0.877,1.668,0.566C495.346,448.086,495.609,447.338,495.311,446.715z
							"/>
						<path fill="#9FCFFF" d="M765.782,311.953c-0.386-0.791-1.329-1.121-2.12-0.736c-0.79,0.385-1.121,1.344-0.734,2.139
							c0.385,0.789,1.338,1.113,2.127,0.727C765.848,313.699,766.172,312.744,765.782,311.953z"/>
						<path fill="#9FCFFF" d="M763.604,294.307c-0.318-0.676-1.137-0.955-1.813-0.637c-0.672,0.334-0.956,1.154-0.631,1.82
							c0.328,0.682,1.14,0.955,1.823,0.631C763.655,295.801,763.932,294.977,763.604,294.307z"/>
					</g>
				</g>
			</g>
		</g>
	</g>
</g>
</svg>
