<?xml version="1.0" encoding="utf-8"?>
<!-- Generator: Adobe Illustrator 16.0.0, SVG Export Plug-In . SVG Version: 6.00 Build 0)  -->
<!DOCTYPE svg PUBLIC "-//W3C//DTD SVG 1.1//EN" "http://www.w3.org/Graphics/SVG/1.1/DTD/svg11.dtd">
<svg version="1.1" id="Layer_1" xmlns="http://www.w3.org/2000/svg" xmlns:xlink="http://www.w3.org/1999/xlink" x="0px" y="0px"
	 width="750px" height="500px" viewBox="0 0 750 500" enable-background="new 0 0 750 500" xml:space="preserve">
<g id="Background">
	<rect x="125" display="none" fill="#FFFFFF" width="500" height="500"/>
</g>
<g id="Objects">
	<g>
		<g>
			<defs>
				<polyline id="SVGID_1_" points="750,500 0,500 0,-0.001 				"/>
			</defs>
			<clipPath id="SVGID_2_">
				<use xlink:href="#SVGID_1_"  overflow="visible"/>
			</clipPath>
			<g clip-path="url(#SVGID_2_)">
				
					<linearGradient id="SVGID_3_" gradientUnits="userSpaceOnUse" x1="89.1641" y1="-298.2012" x2="87.2623" y2="-292.1392" gradientTransform="matrix(0.7071 0.7071 0.7071 -0.7071 424.8798 608.8202)">
					<stop  offset="0" style="stop-color:#00DFFF"/>
					<stop  offset="1" style="stop-color:#A5B2EC;stop-opacity:0"/>
				</linearGradient>
				<line opacity="0.29" fill="url(#SVGID_3_)" enable-background="new    " x1="277.04" y1="899.65" x2="276.336" y2="867.27"/>
				<g>
					<g>
						
							<radialGradient id="SVGID_4_" cx="1077.2109" cy="1393.5645" r="7.6996" gradientTransform="matrix(-0.7086 -0.7057 -0.7057 0.7086 2055.7441 531.6178)" gradientUnits="userSpaceOnUse">
							<stop  offset="0" style="stop-color:#CCCDE8"/>
							<stop  offset="0.6237" style="stop-color:#CECFE3"/>
							<stop  offset="1" style="stop-color:#ECB9AF;stop-opacity:0"/>
						</radialGradient>
						
							<line opacity="0.29" fill="url(#SVGID_4_)" enable-background="new    " x1="307.551" y1="748.117" x2="310.438" y2="769.703"/>
						
							<linearGradient id="SVGID_5_" gradientUnits="userSpaceOnUse" x1="1051.1992" y1="1086.6084" x2="1051.1992" y2="1075.0238" gradientTransform="matrix(-0.7086 -0.7057 -0.7057 0.7086 2055.7441 531.6178)">
							<stop  offset="0.0018" style="stop-color:#FFFFFF;stop-opacity:0"/>
							<stop  offset="0.6927" style="stop-color:#66C2E9;stop-opacity:0.6922"/>
							<stop  offset="1" style="stop-color:#27A9E0"/>
						</linearGradient>
						
							<line opacity="0.29" fill="url(#SVGID_5_)" enable-background="new    " x1="546.848" y1="547.707" x2="549.025" y2="563.988"/>
						
							<linearGradient id="SVGID_6_" gradientUnits="userSpaceOnUse" x1="1051.2305" y1="558.04" x2="1051.2305" y2="546.4532" gradientTransform="matrix(-0.7086 -0.7057 -0.7057 0.7086 2055.7441 531.6178)">
							<stop  offset="0.0018" style="stop-color:#FFFFFF;stop-opacity:0"/>
							<stop  offset="0.6927" style="stop-color:#66C2E9;stop-opacity:0.6922"/>
							<stop  offset="1" style="stop-color:#27A9E0"/>
						</linearGradient>
						
							<line opacity="0.29" fill="url(#SVGID_6_)" enable-background="new    " x1="922.014" y1="189.422" x2="919.838" y2="173.141"/>
						
							<radialGradient id="SVGID_7_" cx="1123.8125" cy="1313.8682" r="5.807" gradientTransform="matrix(-0.7086 -0.7057 -0.7057 0.7086 2055.7441 531.6178)" gradientUnits="userSpaceOnUse">
							<stop  offset="0" style="stop-color:#CCCDE8"/>
							<stop  offset="0.6237" style="stop-color:#CECFE3"/>
							<stop  offset="1" style="stop-color:#ECB9AF;stop-opacity:0"/>
						</radialGradient>
						
							<line opacity="0.29" fill="url(#SVGID_7_)" enable-background="new    " x1="331.125" y1="661.41" x2="333.303" y2="677.691"/>
						
							<radialGradient id="SVGID_8_" cx="1025.043" cy="1172.1836" r="7.6991" gradientTransform="matrix(-0.7086 -0.7057 -0.7057 0.7086 2055.7441 531.6178)" gradientUnits="userSpaceOnUse">
							<stop  offset="0" style="stop-color:#CCCDE8"/>
							<stop  offset="0.6237" style="stop-color:#CECFE3"/>
							<stop  offset="1" style="stop-color:#ECB9AF;stop-opacity:0"/>
						</radialGradient>
						
							<line opacity="0.29" fill="url(#SVGID_8_)" enable-background="new    " x1="500.746" y1="628.063" x2="503.631" y2="649.646"/>
						
							<radialGradient id="SVGID_9_" cx="1025.084" cy="471.3789" r="7.6987" gradientTransform="matrix(-0.7086 -0.7057 -0.7057 0.7086 2055.7441 531.6178)" gradientUnits="userSpaceOnUse">
							<stop  offset="0" style="stop-color:#CCCDE8"/>
							<stop  offset="0.6237" style="stop-color:#CECFE3"/>
							<stop  offset="1" style="stop-color:#ECB9AF;stop-opacity:0"/>
						</radialGradient>
						
							<line opacity="0.29" fill="url(#SVGID_9_)" enable-background="new    " x1="998.162" y1="153.028" x2="995.275" y2="131.443"/>
					</g>
					
						<linearGradient id="SVGID_10_" gradientUnits="userSpaceOnUse" x1="108.2422" y1="-41.4248" x2="108.6567" y2="-41.0712" gradientTransform="matrix(0.7071 0.7071 0.7071 -0.7071 424.8798 608.8202)">
						<stop  offset="0" style="stop-color:#CCCDE8"/>
						<stop  offset="0.6237" style="stop-color:#CECFE3"/>
						<stop  offset="1" style="stop-color:#ECB9AF;stop-opacity:0"/>
					</linearGradient>
					
						<line opacity="0.29" fill="url(#SVGID_10_)" enable-background="new    " x1="470.529" y1="730.688" x2="469.826" y2="698.307"/>
				</g>
			</g>
		</g>
		<g>
			<defs>
				<polyline id="SVGID_11_" points="750,500 0,500 0,-0.001 				"/>
			</defs>
			<clipPath id="SVGID_12_">
				<use xlink:href="#SVGID_11_"  overflow="visible"/>
			</clipPath>
		</g>
		<g>
			<defs>
				<polyline id="SVGID_13_" points="750,500 0,500 0,-0.001 				"/>
			</defs>
			<clipPath id="SVGID_14_">
				<use xlink:href="#SVGID_13_"  overflow="visible"/>
			</clipPath>
		</g>
		<g>
			<defs>
				<polyline id="SVGID_15_" points="750,500 0,500 0,-0.001 				"/>
			</defs>
			<clipPath id="SVGID_16_">
				<use xlink:href="#SVGID_15_"  overflow="visible"/>
			</clipPath>
		</g>
		<g>
			<defs>
				<polyline id="SVGID_17_" points="750,500 0,500 0,-0.001 				"/>
			</defs>
			<clipPath id="SVGID_18_">
				<use xlink:href="#SVGID_17_"  overflow="visible"/>
			</clipPath>
		</g>
		<g>
			<defs>
				<polyline id="SVGID_19_" points="750,500 0,500 0,-0.001 				"/>
			</defs>
			<clipPath id="SVGID_20_">
				<use xlink:href="#SVGID_19_"  overflow="visible"/>
			</clipPath>
		</g>
		<g>
			<defs>
				<polyline id="SVGID_21_" points="750,500 0,500 0,-0.001 				"/>
			</defs>
			<clipPath id="SVGID_22_">
				<use xlink:href="#SVGID_21_"  overflow="visible"/>
			</clipPath>
		</g>
		<g>
			<defs>
				<polyline id="SVGID_23_" points="750,500 0,500 0,-0.001 				"/>
			</defs>
			<clipPath id="SVGID_24_">
				<use xlink:href="#SVGID_23_"  overflow="visible"/>
			</clipPath>
			<g clip-path="url(#SVGID_24_)">
				<g opacity="0.5">
					<path fill="#9FCFFF" d="M978.133,320.395c0.713,0.211,1.115,0.965,0.904,1.666c-0.211,0.725-0.965,1.125-1.678,0.914
						s-1.123-0.963-0.895-1.676C976.668,320.576,977.42,320.174,978.133,320.395z"/>
					<path opacity="0.29" fill="#9FCFFF" enable-background="new    " d="M530.787,391.748c0.844,0.262,1.324,1.145,1.074,1.998
						c-0.252,0.844-1.146,1.324-1.988,1.074c-0.854-0.264-1.324-1.146-1.074-1.988C529.051,391.979,529.943,391.498,530.787,391.748
						z"/>
					<path opacity="0.29" fill="#9FCFFF" enable-background="new    " d="M535.926,442.262c0.703,0.221,1.096,0.953,0.895,1.656
						c-0.211,0.693-0.953,1.094-1.656,0.895c-0.691-0.221-1.094-0.955-0.883-1.656C534.49,442.453,535.225,442.061,535.926,442.262z
						"/>
					<path opacity="0.29" fill="#9FCFFF" enable-background="new    " d="M295.436,191.831c0.844,0.25,1.324,1.134,1.072,1.978
						c-0.25,0.844-1.145,1.325-1.986,1.073c-0.844-0.25-1.314-1.134-1.064-1.977S294.592,191.579,295.436,191.831z"/>
					<path opacity="0.29" fill="#9FCFFF" enable-background="new    " d="M284.803,206.456c0.725,0.222,1.137,0.976,0.914,1.696
						c-0.211,0.714-0.975,1.125-1.695,0.914c-0.713-0.221-1.125-0.983-0.904-1.696C283.329,206.657,284.09,206.234,284.803,206.456z
						"/>
				</g>
				<g>
					<path fill="#9FCFFF" d="M706.439-157.547c-0.965-0.511-2.164-0.164-2.684,0.809c-0.518,0.958-0.17,2.158,0.801,2.676
						c0.959,0.518,2.166,0.164,2.686-0.795C707.76-155.83,707.398-157.03,706.439-157.547z"/>
					<path fill="#9FCFFF" d="M703.152-151.606c-1.057-0.575-2.383-0.171-2.959,0.886c-0.566,1.065-0.18,2.378,0.887,2.961
						c1.064,0.567,2.393,0.177,2.961-0.888C704.615-149.704,704.219-151.039,703.152-151.606z"/>
					<path fill="#9FCFFF" d="M697.041-155.844c-0.879-0.468-1.986-0.143-2.469,0.752c-0.477,0.888-0.143,1.988,0.729,2.463
						c0.896,0.483,2.012,0.149,2.479-0.745C698.271-154.247,697.938-155.361,697.041-155.844z"/>
					<path fill="#9FCFFF" d="M460.029-147.809c-0.951-0.524-2.15-0.163-2.662,0.803c-0.525,0.951-0.17,2.158,0.795,2.669
						c0.959,0.519,2.145,0.156,2.67-0.795C461.357-146.099,460.988-147.305,460.029-147.809z"/>
					<path fill="#9FCFFF" d="M880.754-101.748"/>
					<path fill="#9FCFFF" d="M905.682-94.876c-1.135-0.61-2.555-0.185-3.166,0.951c-0.615,1.143-0.189,2.563,0.943,3.173
						c1.145,0.618,2.564,0.193,3.182-0.952C907.25-92.84,906.826-94.259,905.682-94.876"/>
					<path fill="#9FCFFF" d="M889.094-103.672c-0.482,0.909-0.148,2.038,0.76,2.535c0.916,0.49,2.051,0.148,2.533-0.76"/>
					<path opacity="0.29" fill="#9FCFFF" enable-background="new    " d="M955.277,99.084c-0.838-0.455-1.895-0.135-2.355,0.695
						c-0.455,0.852-0.137,1.91,0.709,2.372c0.844,0.447,1.896,0.134,2.357-0.71C956.449,100.597,956.131,99.539,955.277,99.084z"/>
					<path opacity="0.29" fill="#9FCFFF" enable-background="new    " d="M957.771-16.824c-1.123-0.597-2.527-0.185-3.133,0.943
						c-0.609,1.122-0.184,2.528,0.938,3.139c1.129,0.604,2.527,0.184,3.131-0.944C959.316-14.807,958.898-16.206,957.771-16.824z"/>
					<path opacity="0.29" fill="#9FCFFF" enable-background="new    " d="M948.592-27.336c-1.016-0.547-2.287-0.17-2.832,0.845
						c-0.539,1.007-0.164,2.278,0.852,2.825c1.008,0.54,2.277,0.164,2.826-0.853C949.977-25.526,949.6-26.798,948.592-27.336z"/>
					<path opacity="0.29" fill="#9FCFFF" enable-background="new    " d="M939.328,48.026c-0.859-0.461-1.93-0.143-2.393,0.716
						c-0.469,0.852-0.143,1.932,0.717,2.393c0.857,0.461,1.932,0.142,2.393-0.717C940.514,49.566,940.193,48.495,939.328,48.026z"/>
					<path fill="#9FCFFF" d="M550.811-154.275c-0.873-0.477-1.959-0.143-2.428,0.724c-0.469,0.866-0.148,1.952,0.725,2.427
						c0.865,0.469,1.959,0.142,2.428-0.724C551.996-152.721,551.676-153.807,550.811-154.275z"/>
					<path fill="#9FCFFF" d="M466.199-328.823c-0.426,0.795-0.129,1.789,0.658,2.222c0.797,0.426,1.789,0.127,2.217-0.667"/>
					<path fill="#9FCFFF" d="M992.324,61.471c-0.773-0.419-1.746-0.128-2.166,0.646c-0.418,0.774-0.119,1.739,0.654,2.158
						s1.73,0.128,2.15-0.646C993.381,62.855,993.098,61.889,992.324,61.471z"/>
					<path fill="#9FCFFF" d="M999.268,51.021c-0.625-0.34-1.398-0.106-1.74,0.519c-0.34,0.624-0.105,1.398,0.52,1.739
						c0.623,0.341,1.404,0.1,1.738-0.518C1000.117,52.129,999.877,51.348,999.268,51.021z"/>
					<path fill="#9FCFFF" d="M800.08-155.134c-0.596,1.107-0.178,2.492,0.93,3.087c1.115,0.604,2.5,0.185,3.096-0.922"/>
					<path fill="#9FCFFF" d="M813.752-142.642c-0.951-0.51-2.115-0.155-2.619,0.789c-0.512,0.937-0.154,2.115,0.781,2.626
						c0.943,0.504,2.115,0.156,2.619-0.789C815.051-140.959,814.689-142.13,813.752-142.642"/>
					<path opacity="0.29" fill="#9FCFFF" enable-background="new    " d="M927.658,19.675c-0.979-0.525-2.207-0.162-2.74,0.825
						c-0.539,0.978-0.162,2.221,0.816,2.747c0.979,0.524,2.223,0.163,2.754-0.824C929.014,21.444,928.652,20.214,927.658,19.675z"/>
					<path opacity="0.29" fill="#9FCFFF" enable-background="new    " d="M914.049,39.132c0.789,0.433,1.789,0.142,2.223-0.66
						c0.428-0.795,0.129-1.789-0.666-2.215"/>
					<path fill="#9FCFFF" d="M550.604-276.401c-0.725-0.383-1.641-0.121-2.01,0.618c-0.402,0.717-0.135,1.626,0.598,2.015
						c0.717,0.391,1.625,0.121,2.021-0.603C551.605-275.103,551.328-276.004,550.604-276.401"/>
					<path fill="#9FCFFF" d="M193.831-192.23c-0.654-0.355-1.472-0.106-1.817,0.539c-0.363,0.662-0.113,1.477,0.54,1.832
						c0.652,0.355,1.476,0.114,1.816-0.553C194.739-191.065,194.491-191.882,193.831-192.23z"/>
					<path fill="#9FCFFF" d="M749.35-173.938c-1.021-0.539-2.32-0.164-2.875,0.873c-0.568,1.037-0.178,2.321,0.857,2.889
						c1.037,0.553,2.33,0.17,2.883-0.866C750.77-172.079,750.387-173.371,749.35-173.938"/>
					<path fill="#9FCFFF" d="M836.02-132.64c-0.555,1.037-0.17,2.329,0.865,2.882c1.037,0.569,2.336,0.178,2.883-0.865"/>
					<path fill="#9FCFFF" d="M758.115-171.418c-0.383,0.709-0.119,1.583,0.59,1.966c0.695,0.383,1.582,0.122,1.959-0.582"/>
					<path fill="#9FCFFF" d="M821.035-132.661c-0.617-0.334-1.391-0.1-1.727,0.518c-0.332,0.617-0.105,1.398,0.52,1.726
						c0.625,0.34,1.396,0.105,1.732-0.512C821.895-131.547,821.666-132.327,821.035-132.661"/>
					<path fill="#9FCFFF" d="M718.395-185.003c-0.605-0.321-1.344-0.093-1.66,0.496c-0.328,0.596-0.102,1.334,0.496,1.661
						c0.588,0.319,1.334,0.099,1.66-0.498C719.203-183.94,718.982-184.685,718.395-185.003"/>
					<path fill="#9FCFFF" d="M759.287-134.727c-0.668-0.355-1.506-0.1-1.859,0.568c-0.361,0.674-0.113,1.504,0.553,1.873
						c0.676,0.363,1.514,0.106,1.867-0.561C760.209-133.52,759.961-134.351,759.287-134.727z"/>
					<path fill="#9FCFFF" d="M615.838-169.047c-0.646-0.348-1.455-0.107-1.803,0.539c-0.35,0.646-0.115,1.448,0.539,1.79
						c0.639,0.355,1.439,0.105,1.795-0.533C616.717-167.897,616.477-168.707,615.838-169.047z"/>
					<path fill="#9FCFFF" d="M788.318-143.642c-0.695-0.383-1.576-0.113-1.953,0.59c-0.381,0.694-0.111,1.575,0.59,1.951
						c0.695,0.37,1.576,0.114,1.953-0.589C789.277-142.4,789.021-143.266,788.318-143.642z"/>
					<path fill="#9FCFFF" d="M833.643-130.19c0.609-1.122,0.191-2.535-0.938-3.139"/>
					<path fill="#9FCFFF" d="M832.705-133.329c-1.129-0.603-2.527-0.185-3.139,0.938"/>
					<path fill="#9FCFFF" d="M766.732-160.813c-0.943-0.503-2.115-0.157-2.625,0.781c-0.504,0.945-0.158,2.115,0.779,2.627
						c0.943,0.503,2.115,0.156,2.619-0.789C768.02-159.13,767.67-160.301,766.732-160.813"/>
					<path fill="#9FCFFF" d="M734.422-188.51c-0.477,0.844-0.148,1.924,0.709,2.385c0.867,0.468,1.934,0.142,2.4-0.71"/>
					<path fill="#9FCFFF" d="M901.096-90.39c-0.709-0.384-1.582-0.122-1.959,0.582c-0.375,0.702-0.119,1.583,0.584,1.958
						c0.701,0.376,1.568,0.107,1.959-0.582C902.055-89.133,901.799-90.015,901.096-90.39"/>
					<path fill="#9FCFFF" d="M933.025-73.255c-0.314,0.582-0.102,1.306,0.488,1.625c0.582,0.313,1.291,0.085,1.611-0.49"/>
					<path fill="#9FCFFF" d="M975.316,31.714c-1.023-0.553-2.285-0.169-2.84,0.852c-0.547,1.016-0.17,2.286,0.852,2.84
						c1.016,0.546,2.287,0.17,2.84-0.852C976.715,33.539,976.324,32.254,975.316,31.714z"/>
					<path opacity="0.29" fill="#9FCFFF" enable-background="new    " d="M922.98-5.999c-0.738-0.398-1.654-0.121-2.051,0.617
						c-0.393,0.73-0.123,1.654,0.609,2.044c0.738,0.397,1.654,0.121,2.051-0.617C923.996-4.686,923.719-5.602,922.98-5.999z"/>
					<path opacity="0.29" fill="#9FCFFF" enable-background="new    " d="M972.135-0.966c-1.02-0.554-2.275-0.164-2.814,0.845
						c-0.555,1.008-0.172,2.271,0.844,2.817c1.008,0.54,2.264,0.163,2.811-0.853C973.521,0.844,973.146-0.427,972.135-0.966z"/>
					<path fill="#9FCFFF" d="M700.029-170.644c-0.623-0.341-1.404-0.099-1.738,0.532c-0.348,0.633-0.105,1.413,0.525,1.76
						c0.625,0.341,1.412,0.107,1.754-0.532C700.91-169.509,700.676-170.296,700.029-170.644z"/>
					<path fill="#9FCFFF" d="M494.584-162.8c-0.639-0.354-1.439-0.106-1.781,0.533c-0.34,0.638-0.105,1.44,0.531,1.781
						c0.646,0.348,1.441,0.107,1.783-0.533C495.471-161.658,495.23-162.466,494.584-162.8z"/>
					<path fill="#9FCFFF" d="M606.275-245.46c-0.795-0.425-1.773-0.128-2.207,0.66c-0.418,0.788-0.127,1.774,0.66,2.193
						c0.787,0.433,1.773,0.143,2.193-0.659C607.355-244.055,607.057-245.033,606.275-245.46"/>
					<path fill="#9FCFFF" d="M580.396-265.988c-0.66-0.362-1.477-0.114-1.84,0.546c-0.354,0.667-0.119,1.484,0.555,1.846
						c0.652,0.354,1.477,0.1,1.846-0.553C581.305-264.81,581.055-265.64,580.396-265.988"/>
					<path fill="#9FCFFF" d="M583.291-225.485c-0.93-0.505-2.1-0.157-2.604,0.772c-0.506,0.945-0.156,2.102,0.779,2.612
						c0.938,0.497,2.096,0.149,2.6-0.78C584.576-223.817,584.221-224.981,583.291-225.485z"/>
					<path fill="#9FCFFF" d="M418.477-271.645c-0.682-0.37-1.512-0.121-1.881,0.546c-0.361,0.675-0.113,1.505,0.568,1.875
						c0.66,0.362,1.512,0.106,1.865-0.562C419.393-270.461,419.137-271.298,418.477-271.645z"/>
					<path fill="#9FCFFF" d="M558.746-263.419c-0.988-0.532-2.223-0.163-2.748,0.831c-0.539,0.979-0.17,2.214,0.816,2.747
						c0.986,0.533,2.215,0.156,2.748-0.831C560.094-261.659,559.732-262.886,558.746-263.419z"/>
					<path fill="#9FCFFF" d="M672.313-222.199c-0.471,0.88-0.137,1.981,0.744,2.463c0.873,0.461,1.967,0.135,2.441-0.738"/>
					<path fill="#9FCFFF" d="M530.92-192.506c-0.652-0.341-1.455-0.107-1.803,0.539s-0.105,1.455,0.539,1.803
						c0.646,0.348,1.449,0.113,1.797-0.533C531.801-191.342,531.561-192.152,530.92-192.506z"/>
					<path fill="#9FCFFF" d="M436.322-251.046c-0.816-0.434-1.84-0.135-2.287,0.695c-0.439,0.81-0.135,1.839,0.682,2.272
						c0.824,0.454,1.848,0.142,2.293-0.675C437.443-249.584,437.137-250.6,436.322-251.046z"/>
					<path fill="#9FCFFF" d="M487.373-235.742c-0.682-0.37-1.52-0.1-1.875,0.568c-0.369,0.681-0.113,1.519,0.555,1.888
						c0.666,0.355,1.52,0.1,1.873-0.567C488.295-234.535,488.047-235.367,487.373-235.742z"/>
					<path fill="#9FCFFF" d="M418.674-264.973c-0.744-0.405-1.682-0.12-2.094,0.631c-0.404,0.761-0.119,1.697,0.633,2.095
						c0.746,0.405,1.689,0.127,2.086-0.625C419.711-263.625,419.428-264.562,418.674-264.973z"/>
					<path fill="#9FCFFF" d="M469.619-307.727c-0.695-0.383-1.568-0.12-1.943,0.583c-0.385,0.696-0.129,1.576,0.572,1.952
						c0.697,0.369,1.578,0.113,1.959-0.582C470.584-306.477,470.322-307.35,469.619-307.727z"/>
					<path opacity="0.29" fill="#9FCFFF" enable-background="new    " d="M915.549,148.027c0.598-1.108,0.191-2.477-0.91-3.066"/>
					<circle fill="#9FCFFF" cx="771.574" cy="-146.822" r="2.144"/>
					<path fill="#9FCFFF" d="M597.828-197.561c-0.957-0.504-2.164-0.149-2.684,0.809c-0.525,0.966-0.162,2.166,0.803,2.691
						c0.953,0.511,2.166,0.163,2.684-0.81C599.156-195.836,598.795-197.036,597.828-197.561z"/>
					<path fill="#9FCFFF" d="M578.33-185.7c-0.596-0.326-1.342-0.106-1.662,0.497c-0.318,0.589-0.1,1.335,0.498,1.661
						c0.605,0.319,1.342,0.093,1.66-0.497C579.146-184.641,578.926-185.387,578.33-185.7z"/>
					<path fill="#9FCFFF" d="M489.928-211.523c-1.129-0.618-2.557-0.199-3.174,0.944s-0.189,2.562,0.959,3.172
						c1.137,0.625,2.557,0.198,3.174-0.944S491.078-210.913,489.928-211.523z"/>
					<path fill="#9FCFFF" d="M486.676-205.036c-0.949-0.525-2.137-0.163-2.646,0.789c-0.504,0.943-0.154,2.129,0.795,2.64
						c0.945,0.519,2.131,0.156,2.648-0.788C487.977-203.339,487.621-204.531,486.676-205.036z"/>
					<path fill="#9FCFFF" d="M488.381-198.562c-0.779-0.411-1.754-0.121-2.18,0.66c-0.42,0.774-0.119,1.753,0.652,2.187
						c0.781,0.412,1.76,0.114,2.172-0.667C489.459-197.157,489.168-198.129,488.381-198.562z"/>
					<path fill="#9FCFFF" d="M488.189-191.712c-0.789-0.418-1.775-0.127-2.201,0.668c-0.439,0.781-0.127,1.774,0.66,2.193
						c0.795,0.426,1.773,0.128,2.199-0.652C489.268-190.291,488.982-191.286,488.189-191.712z"/>
					<path fill="#9FCFFF" d="M604.664-184.891c-0.574-0.318-1.291-0.099-1.611,0.477c-0.313,0.582-0.092,1.298,0.49,1.611
						c0.568,0.313,1.293,0.1,1.604-0.483C605.453-183.861,605.24-184.584,604.664-184.891z"/>
				</g>
			</g>
		</g>
		<g>
			<defs>
				<polyline id="SVGID_25_" points="750,500 0,500 0,-0.001 				"/>
			</defs>
			<clipPath id="SVGID_26_">
				<use xlink:href="#SVGID_25_"  overflow="visible"/>
			</clipPath>
			
				<radialGradient id="SVGID_27_" cx="9667.9883" cy="502.6582" r="236.3608" gradientTransform="matrix(-0.1124 -0.0067 -0.059 0.9983 991.1688 23.5302)" gradientUnits="userSpaceOnUse">
				<stop  offset="0" style="stop-color:#FFFFFF"/>
				<stop  offset="0.1869" style="stop-color:#B0B8B8;stop-opacity:0.7171"/>
				<stop  offset="0.3521" style="stop-color:#728081;stop-opacity:0.4669"/>
				<stop  offset="0.4909" style="stop-color:#465859;stop-opacity:0.2567"/>
				<stop  offset="0.598" style="stop-color:#2A3F40;stop-opacity:0.0945"/>
				<stop  offset="0.6605" style="stop-color:#203637;stop-opacity:0"/>
			</radialGradient>
			<path clip-path="url(#SVGID_26_)" fill="url(#SVGID_27_)" d="M-151.74,458.99c7.698-130.309,25.835-235.239,40.509-234.372
				c14.674,0.864,20.33,107.204,12.631,237.511c-7.697,130.307-25.835,235.238-40.509,234.371
				C-153.783,695.633-159.438,589.297-151.74,458.99z"/>
		</g>
		<g>
			<defs>
				<polyline id="SVGID_28_" points="750,500 0,500 0,-0.001 				"/>
			</defs>
			<clipPath id="SVGID_29_">
				<use xlink:href="#SVGID_28_"  overflow="visible"/>
			</clipPath>
			<g clip-path="url(#SVGID_29_)">
				<g>
					
						<linearGradient id="SVGID_30_" gradientUnits="userSpaceOnUse" x1="-1895.9707" y1="-403.2227" x2="-1693.6973" y2="-403.2227" gradientTransform="matrix(-0.6338 0.7735 0.7735 0.6338 -723.6512 1982.6498)">
						<stop  offset="0" style="stop-color:#FFFFFF"/>
						<stop  offset="1" style="stop-color:#FFFFFF;stop-opacity:0"/>
					</linearGradient>
					<polygon opacity="0.29" fill="url(#SVGID_30_)" enable-background="new    " points="153.241,249.999 140.866,397.181 
						-13.948,374.511 					"/>
					
						<linearGradient id="SVGID_31_" gradientUnits="userSpaceOnUse" x1="410.6855" y1="-610.1987" x2="519.4307" y2="-610.1987" gradientTransform="matrix(-0.6555 -0.7552 -0.7552 0.6555 -122.2422 1216.5446)">
						<stop  offset="0" style="stop-color:#FFFFFF"/>
						<stop  offset="1" style="stop-color:#FFFFFF;stop-opacity:0"/>
					</linearGradient>
					<polygon opacity="0.29" fill="url(#SVGID_31_)" enable-background="new    " points="-32.02,450.422 81.243,496.107 
						33.746,404.531 					"/>
					
						<linearGradient id="SVGID_32_" gradientUnits="userSpaceOnUse" x1="838.3369" y1="847.3027" x2="943.918" y2="847.3027" gradientTransform="matrix(0.3721 -0.9283 -0.9283 -0.3721 455.7131 1473.1755)">
						<stop  offset="0" style="stop-color:#FFFFFF"/>
						<stop  offset="1" style="stop-color:#FFFFFF;stop-opacity:0"/>
					</linearGradient>
					<polygon opacity="0.29" fill="url(#SVGID_32_)" enable-background="new    " points="-15.541,267.25 -4.736,385.34 
						53.273,303.688 					"/>
					
						<linearGradient id="SVGID_33_" gradientUnits="userSpaceOnUse" x1="-1671.707" y1="1302.667" x2="-1606.8838" y2="1302.667" gradientTransform="matrix(0.5064 0.8622 0.8622 -0.5064 -155.17 2521.0032)">
						<stop  offset="0" style="stop-color:#FFFFFF"/>
						<stop  offset="1" style="stop-color:#FFFFFF;stop-opacity:0"/>
					</linearGradient>
					<polygon opacity="0.29" fill="url(#SVGID_33_)" enable-background="new    " points="198.139,439.928 156.36,399.475 
						105.942,504.258 					"/>
					
						<linearGradient id="SVGID_34_" gradientUnits="userSpaceOnUse" x1="-1799.0171" y1="1050.0781" x2="-1704.0845" y2="1050.0781" gradientTransform="matrix(0.234 0.9723 0.9723 -0.234 -326.8514 2435.3169)">
						<stop  offset="0" style="stop-color:#FFFFFF"/>
						<stop  offset="1" style="stop-color:#FFFFFF;stop-opacity:0"/>
					</linearGradient>
					<polygon opacity="0.29" fill="url(#SVGID_34_)" enable-background="new    " points="372.18,501.012 330.846,426.533 
						215.579,551.924 					"/>
					<g>
						<polyline opacity="0.29" fill="none" stroke="#FFFFFF" stroke-miterlimit="10" enable-background="new    " points="
							455.17,457.986 307.983,584.939 197.344,552.199 98.813,612.248 -81.289,607.563 86.478,440.938 42.807,323.926 
							123.678,177.745 						"/>
						
							<polyline id="XMLID_2_" opacity="0.29" fill="none" stroke="#FFFFFF" stroke-miterlimit="10" enable-background="new    " points="
							197.344,552.199 171.454,433.506 307.024,583.246 296.204,373.293 363.153,537.355 						"/>
						<polyline opacity="0.29" fill="none" stroke="#FFFFFF" stroke-miterlimit="10" enable-background="new    " points="
							97.892,610.664 210.898,333.566 86.478,440.938 97.892,610.664 -12.248,538.992 -66.741,385.174 86.478,440.938 						"/>
						
							<line opacity="0.29" fill="none" stroke="#FFFFFF" stroke-miterlimit="10" enable-background="new    " x1="171.454" y1="433.506" x2="298.213" y2="412.32"/>
					</g>
				</g>
				
					<radialGradient id="SVGID_35_" cx="8112.9922" cy="387.332" r="236.3633" gradientTransform="matrix(-0.0751 -0.0839 -0.7447 0.6674 984.5443 863.9896)" gradientUnits="userSpaceOnUse">
					<stop  offset="0" style="stop-color:#FFFFFF"/>
					<stop  offset="0.1869" style="stop-color:#B0B8B8;stop-opacity:0.7171"/>
					<stop  offset="0.3521" style="stop-color:#728081;stop-opacity:0.4669"/>
					<stop  offset="0.4909" style="stop-color:#465859;stop-opacity:0.2567"/>
					<stop  offset="0.598" style="stop-color:#2A3F40;stop-opacity:0.0945"/>
					<stop  offset="0.6605" style="stop-color:#203637;stop-opacity:0"/>
				</radialGradient>
				<path opacity="0.29" fill="url(#SVGID_35_)" enable-background="new    " d="M69.047,421.996
					c97.205-87.123,183.957-148.875,193.77-137.93c9.811,10.945-61.035,90.447-158.24,177.57
					C7.375,548.76-79.382,610.512-89.193,599.564C-99.002,588.619-28.158,509.119,69.047,421.996z"/>
				<g>
					<g opacity="0.5">
						<path fill="#9FCFFF" d="M316.247,572.271c-0.852-0.219-1.361-1.092-1.146-1.943c0.217-0.854,1.078-1.359,1.932-1.146
							c0.852,0.219,1.371,1.078,1.158,1.934C317.971,571.967,317.1,572.484,316.247,572.271z"/>
						<path fill="#9FCFFF" d="M247.668,498.615c-1.248-0.318-2.008-1.594-1.697-2.854c0.318-1.248,1.604-2.006,2.863-1.686
							c1.24,0.316,1.996,1.594,1.688,2.842C250.202,498.178,248.917,498.936,247.668,498.615z"/>
						<path fill="#9FCFFF" d="M170.706,524.199c-1.058-0.277-1.705-1.344-1.429-2.412c0.267-1.057,1.335-1.705,2.402-1.428
							c1.056,0.268,1.704,1.346,1.437,2.402C172.838,523.828,171.76,524.467,170.706,524.199z"/>
						<path fill="#9FCFFF" d="M172.306,517.602c-1.167-0.293-1.871-1.488-1.578-2.654c0.304-1.17,1.479-1.873,2.655-1.58
							c1.168,0.303,1.882,1.488,1.58,2.656C174.67,517.189,173.474,517.902,172.306,517.602z"/>
						<path fill="#9FCFFF" d="M164.938,516.582c-0.963-0.248-1.559-1.238-1.309-2.223c0.25-0.977,1.24-1.561,2.205-1.32
							c0.985,0.252,1.58,1.252,1.319,2.227C166.924,516.24,165.922,516.832,164.938,516.582z"/>
						<path fill="#9FCFFF" d="M-4.091,350.246c-1.055-0.258-1.693-1.336-1.415-2.393c0.256-1.057,1.335-1.703,2.391-1.428
							c1.057,0.268,1.685,1.338,1.427,2.395C-1.956,349.885-3.044,350.525-4.091,350.246z"/>
						<path opacity="0.29" fill="#9FCFFF" enable-background="new    " d="M318.149,477.967c-0.74-0.189-1.195-0.941-1.004-1.686
							c0.188-0.742,0.943-1.195,1.695-1.006c0.74,0.188,1.193,0.943,0.992,1.686C319.655,477.711,318.901,478.156,318.149,477.967z"
							/>
						<path fill="#9FCFFF" d="M371.081,591.582c-0.832-0.207-1.34-1.059-1.123-1.893c0.205-0.842,1.061-1.342,1.891-1.133
							c0.844,0.213,1.342,1.066,1.135,1.902C372.766,591.291,371.915,591.799,371.081,591.582z"/>
						<path fill="#9FCFFF" d="M381.018,500.789c-1.207-0.311-1.943-1.545-1.635-2.764c0.303-1.221,1.549-1.953,2.766-1.645
							c1.219,0.301,1.953,1.545,1.645,2.764C383.482,500.355,382.248,501.098,381.018,500.789z"/>
						<path fill="#9FCFFF" d="M334.329,602.578c-1.088-0.275-1.746-1.385-1.471-2.471c0.275-1.076,1.373-1.734,2.471-1.461
							c1.084,0.275,1.736,1.375,1.457,2.463C336.51,602.195,335.403,602.854,334.329,602.578"/>
						<path fill="#9FCFFF" d="M346.543,585.277c-1.242-0.322-1.998-1.594-1.68-2.846c0.32-1.248,1.586-2.004,2.834-1.686
							c1.24,0.32,2.006,1.592,1.688,2.842C349.065,584.84,347.801,585.586,346.543,585.277z"/>
						<path fill="#9FCFFF" d="M332.782,538.643c-1.066-0.268-1.695-1.336-1.428-2.393c0.268-1.047,1.348-1.686,2.393-1.416
							c1.047,0.268,1.695,1.336,1.428,2.391C334.907,538.281,333.838,538.92,332.782,538.643z"/>
						<path fill="#9FCFFF" d="M385.014,513.189c-1.035-0.268-1.662-1.326-1.395-2.359c0.268-1.037,1.316-1.666,2.361-1.406
							c1.037,0.27,1.664,1.326,1.395,2.361C387.119,512.822,386.051,513.447,385.014,513.189z"/>
						<path opacity="0.29" fill="#9FCFFF" enable-background="new    " d="M319.389,451.961c-0.793-0.195-1.268-0.99-1.07-1.783
							c0.209-0.791,1.004-1.268,1.795-1.059c0.781,0.197,1.256,0.992,1.059,1.783C320.977,451.695,320.161,452.17,319.389,451.961z"
							/>
						<path fill="#9FCFFF" d="M384.078,548.125c-1.189-0.303-1.9-1.508-1.602-2.697c0.303-1.186,1.51-1.908,2.695-1.607
							c1.189,0.301,1.902,1.518,1.604,2.705C386.461,547.703,385.268,548.426,384.078,548.125z"/>
						<path opacity="0.29" fill="#9FCFFF" enable-background="new    " d="M322.444,476.842c-0.854-0.215-1.385-1.098-1.158-1.961
							c0.215-0.863,1.098-1.393,1.961-1.168c0.861,0.217,1.391,1.1,1.166,1.961C324.198,476.535,323.317,477.066,322.444,476.842z"
							/>
						<path fill="#9FCFFF" d="M-123.574,235.271c-1.157-0.293-1.87-1.469-1.566-2.627c0.304-1.158,1.459-1.859,2.627-1.566
							c1.159,0.304,1.86,1.479,1.566,2.638C-121.239,234.872-122.415,235.564-123.574,235.271z"/>
						<path fill="#9FCFFF" d="M359.79,612.924c-1.25-0.318-2.008-1.594-1.688-2.844c0.318-1.258,1.594-2.016,2.844-1.695
							c1.258,0.318,2.014,1.594,1.695,2.854C362.323,612.486,361.047,613.244,359.79,612.924"/>
						<path fill="#9FCFFF" d="M341.625,608.172c0.26-1,1.27-1.604,2.275-1.354c1.004,0.26,1.607,1.277,1.35,2.273"/>
						<path opacity="0.29" fill="#9FCFFF" enable-background="new    " d="M520.59,430.684c-1.119-0.285-1.789-1.424-1.516-2.539
							c0.285-1.117,1.424-1.797,2.551-1.504c1.115,0.275,1.787,1.412,1.502,2.527C522.844,430.287,521.705,430.967,520.59,430.684z"
							/>
						<path opacity="0.29" fill="#9FCFFF" enable-background="new    " d="M517.654,420.371c-1.119-0.285-1.787-1.424-1.514-2.539
							c0.283-1.117,1.42-1.797,2.549-1.504c1.113,0.275,1.785,1.412,1.504,2.529C519.908,419.975,518.77,420.656,517.654,420.371z"
							/>
						<path fill="#9FCFFF" d="M527.58,503.715c-0.924-0.23-1.486-1.184-1.264-2.104c0.242-0.938,1.189-1.5,2.127-1.27
							c0.924,0.244,1.484,1.188,1.254,2.119C529.469,503.395,528.516,503.959,527.58,503.715z"/>
						<path opacity="0.29" fill="#9FCFFF" enable-background="new    " d="M527.057,394.24c-0.975-0.25-1.547-1.221-1.307-2.195
							c0.252-0.955,1.232-1.539,2.186-1.297c0.965,0.242,1.547,1.223,1.307,2.195C528.994,393.898,528.012,394.482,527.057,394.24z"
							/>
						<path fill="#9FCFFF" d="M450.961,590.723c-1.229-0.316-1.984-1.572-1.666-2.813c0.311-1.238,1.576-1.986,2.816-1.676
							c1.236,0.316,1.98,1.572,1.662,2.813C453.467,590.287,452.211,591.033,450.961,590.723z"/>
						<path opacity="0.29" fill="#9FCFFF" enable-background="new    " d="M430.91,463.842c-1.066-0.275-1.723-1.363-1.447-2.439
							s1.363-1.727,2.439-1.451c1.076,0.27,1.725,1.367,1.445,2.443C433.074,463.461,431.986,464.109,430.91,463.842z"/>
						<path opacity="0.29" fill="#9FCFFF" enable-background="new    " d="M404.787,392.438c-1.148-0.295-1.85-1.471-1.559-2.629
							c0.295-1.158,1.471-1.859,2.639-1.566c1.156,0.303,1.859,1.479,1.564,2.635C407.131,392.037,405.953,392.74,404.787,392.438z"
							/>
						<path opacity="0.29" fill="#9FCFFF" enable-background="new    " d="M387.148,347.521c-1.24-0.33-1.986-1.584-1.664-2.834
							c0.316-1.238,1.582-1.984,2.822-1.676c1.234,0.311,1.994,1.584,1.684,2.822C389.67,347.074,388.408,347.832,387.148,347.521z"
							/>
						<path opacity="0.29" fill="#9FCFFF" enable-background="new    " d="M380.488,346.637c-0.852-0.227-1.359-1.088-1.146-1.932
							c0.215-0.844,1.078-1.363,1.934-1.146c0.844,0.219,1.359,1.078,1.145,1.932C382.205,346.334,381.344,346.842,380.488,346.637z
							"/>
						<path fill="#9FCFFF" d="M437.088,592.252c-1.115-0.287-1.795-1.424-1.512-2.541c0.287-1.105,1.424-1.789,2.539-1.504
							c1.107,0.285,1.787,1.424,1.504,2.541C439.334,591.854,438.197,592.535,437.088,592.252z"/>
						<path opacity="0.29" fill="#9FCFFF" enable-background="new    " d="M335.403,387.75c-1.229-0.311-1.963-1.543-1.65-2.762
							c0.311-1.23,1.555-1.977,2.773-1.666c1.217,0.311,1.955,1.568,1.664,2.783C337.87,387.326,336.624,388.063,335.403,387.75z"/>
						<path opacity="0.29" fill="#9FCFFF" enable-background="new    " d="M395.971,406.461c-0.65-0.162-1.039-0.82-0.875-1.459
							c0.164-0.65,0.82-1.039,1.461-0.875c0.658,0.162,1.047,0.818,0.885,1.459C397.277,406.234,396.621,406.623,395.971,406.461z"
							/>
						<path fill="#9FCFFF" d="M481.281,530.504c-0.945-0.242-1.521-1.201-1.275-2.145c0.23-0.945,1.199-1.521,2.146-1.277
							c0.941,0.242,1.518,1.203,1.271,2.146C483.195,530.172,482.232,530.746,481.281,530.504z"/>
						<path opacity="0.29" fill="#9FCFFF" enable-background="new    " d="M392.457,367.293c-1.086-0.275-1.744-1.393-1.469-2.49
							c0.273-1.078,1.385-1.746,2.469-1.471c1.098,0.277,1.768,1.395,1.473,2.48C394.652,366.9,393.557,367.566,392.457,367.293z"/>
						<path opacity="0.29" fill="#9FCFFF" enable-background="new    " d="M387.408,355.658c-0.922-0.232-1.486-1.174-1.242-2.098
							c0.232-0.924,1.162-1.484,2.088-1.242c0.924,0.23,1.484,1.162,1.252,2.096C389.264,355.328,388.334,355.891,387.408,355.658z"
							/>
						<path opacity="0.29" fill="#9FCFFF" enable-background="new    " d="M454.99,403.133c-1.109-0.285-1.789-1.432-1.516-2.551
							c0.297-1.117,1.439-1.809,2.559-1.512c1.127,0.281,1.801,1.432,1.514,2.547C457.264,402.734,456.129,403.426,454.99,403.133z"
							/>
						<path opacity="0.29" fill="#9FCFFF" enable-background="new    " d="M58.358,416.451c-0.966-0.24-1.539-1.221-1.298-2.176
							s1.212-1.537,2.175-1.299c0.956,0.244,1.54,1.225,1.299,2.18C60.282,416.109,59.311,416.693,58.358,416.451z"/>
						<path opacity="0.29" fill="#9FCFFF" enable-background="new    " d="M111.032,387.357c-1.097-0.277-1.768-1.406-1.492-2.512
							c0.285-1.117,1.412-1.787,2.51-1.502c1.127,0.283,1.785,1.402,1.512,2.52C113.277,386.971,112.148,387.639,111.032,387.357z"
							/>
						<path fill="#9FCFFF" d="M412.41,499.482c-0.73-0.191-1.174-0.936-0.994-1.666c0.191-0.73,0.936-1.176,1.668-0.994
							c0.73,0.189,1.184,0.936,0.992,1.666C413.887,499.23,413.143,499.674,412.41,499.482z"/>
						<path opacity="0.29" fill="#9FCFFF" enable-background="new    " d="M400.662,449.357c-1.055-0.26-1.693-1.338-1.426-2.402
							c0.273-1.066,1.355-1.703,2.412-1.438c1.064,0.275,1.701,1.355,1.436,2.41C402.809,448.986,401.721,449.633,400.662,449.357z"
							/>
						<path opacity="0.29" fill="#9FCFFF" enable-background="new    " d="M353,473.842c-0.873-0.225-1.395-1.117-1.18-1.98
							c0.215-0.873,1.107-1.4,1.98-1.178c0.873,0.217,1.404,1.105,1.18,1.98C354.756,473.537,353.874,474.057,353,473.842z"/>
						<path fill="#9FCFFF" d="M-122.07,487.668c0.225-0.871,1.116-1.4,1.989-1.188c0.875,0.227,1.404,1.117,1.18,1.99"/>
						<path fill="#9FCFFF" d="M529.391,556.479c-0.854-0.217-1.369-1.088-1.156-1.941c0.217-0.854,1.09-1.361,1.941-1.146
							c0.854,0.217,1.361,1.078,1.146,1.934C531.107,556.174,530.244,556.693,529.391,556.479z"/>
						<path fill="#9FCFFF" d="M527.43,568.869c-0.691-0.174-1.102-0.869-0.93-1.559c0.172-0.691,0.869-1.102,1.559-0.93
							s1.102,0.877,0.93,1.557C528.805,568.631,528.1,569.043,527.43,568.869z"/>
						<path fill="#9FCFFF" d="M241.268,585.805c0.311-1.219,1.557-1.955,2.773-1.645c1.23,0.311,1.965,1.557,1.654,2.773"/>
						<path opacity="0.29" fill="#9FCFFF" enable-background="new    " d="M58.679,285.182c-0.904-0.225-1.466-1.154-1.231-2.07
							c0.232-0.914,1.163-1.465,2.076-1.23c0.915,0.232,1.467,1.154,1.232,2.068C60.525,284.861,59.592,285.422,58.679,285.182z"/>
						<path fill="#9FCFFF" d="M14.882,243.01c-0.925-0.244-1.486-1.184-1.254-2.109c0.242-0.924,1.173-1.483,2.107-1.241
							c0.925,0.229,1.476,1.174,1.243,2.098C16.747,242.678,15.806,243.23,14.882,243.01z"/>
						<path opacity="0.29" fill="#9FCFFF" enable-background="new    " d="M141.667,378.072c-1.138-0.283-1.816-1.439-1.533-2.576
							c0.293-1.141,1.449-1.82,2.587-1.537c1.138,0.285,1.817,1.441,1.534,2.58C143.961,377.674,142.805,378.367,141.667,378.072z"
							/>
						<path opacity="0.29" fill="#9FCFFF" enable-background="new    " d="M94.481,328.158c-1.035-0.258-1.641-1.299-1.383-2.324
							c0.258-1.016,1.297-1.641,2.322-1.383c1.017,0.258,1.633,1.297,1.373,2.334C96.538,327.801,95.497,328.416,94.481,328.158z"/>
						<path fill="#9FCFFF" d="M259.788,585.861c-1.045-0.27-1.662-1.318-1.395-2.355c0.26-1.035,1.316-1.66,2.354-1.402
							c1.035,0.268,1.662,1.316,1.396,2.354C261.883,585.5,260.825,586.119,259.788,585.861"/>
						<path opacity="0.29" fill="#9FCFFF" enable-background="new    " d="M112.551,426.234c-0.682-0.172-1.092-0.857-0.92-1.539
							c0.173-0.68,0.869-1.09,1.55-0.918c0.68,0.172,1.09,0.857,0.919,1.549C113.926,425.998,113.232,426.408,112.551,426.234z"/>
						<path opacity="0.29" fill="#9FCFFF" enable-background="new    " d="M117.52,422.289c-0.753-0.189-1.215-0.953-1.018-1.705
							c0.188-0.762,0.955-1.227,1.707-1.025c0.76,0.189,1.227,0.965,1.023,1.717C119.045,422.023,118.282,422.488,117.52,422.289z"
							/>
						<path opacity="0.29" fill="#9FCFFF" enable-background="new    " d="M463.238,414.189c-1.146-0.293-1.838-1.459-1.545-2.6
							c0.295-1.146,1.451-1.84,2.6-1.547c1.146,0.285,1.84,1.463,1.545,2.6C465.543,413.781,464.385,414.473,463.238,414.189z"/>
						<path fill="#9FCFFF" d="M453.5,543.475c-1.076-0.275-1.734-1.375-1.457-2.461c0.264-1.084,1.381-1.744,2.457-1.469
							c1.078,0.277,1.748,1.383,1.473,2.469C455.693,543.09,454.596,543.75,453.5,543.475z"/>
						<path opacity="0.29" fill="#9FCFFF" enable-background="new    " d="M217.854,467.816c-1.18-0.293-1.893-1.488-1.59-2.666
							c0.291-1.18,1.479-1.893,2.667-1.592c1.178,0.305,1.892,1.498,1.589,2.678S219.032,468.129,217.854,467.816z"/>
						<path fill="#9FCFFF" d="M308.5,499.221c-0.771-0.199-1.236-0.984-1.049-1.754c0.197-0.773,0.992-1.248,1.766-1.051
							c0.771,0.199,1.227,0.984,1.037,1.756C310.067,498.953,309.274,499.42,308.5,499.221z"/>
						<path fill="#9FCFFF" d="M309.299,510.43c-1.236-0.311-1.973-1.557-1.662-2.783c0.311-1.238,1.566-1.977,2.797-1.664
							c1.229,0.311,1.982,1.563,1.662,2.793C311.776,510.002,310.532,510.75,309.299,510.43z"/>
						<path opacity="0.29" fill="#9FCFFF" enable-background="new    " d="M358.321,344.59c-0.721-0.182-1.154-0.916-0.973-1.627
							c0.18-0.711,0.918-1.143,1.617-0.961c0.719,0.182,1.162,0.906,0.973,1.619C359.749,344.34,359.032,344.771,358.321,344.59z"/>
						<path opacity="0.29" fill="#9FCFFF" enable-background="new    " d="M472.514,448.695c-1.055-0.258-1.693-1.336-1.418-2.393
							c0.26-1.047,1.338-1.684,2.383-1.416c1.057,0.268,1.695,1.346,1.428,2.391C474.639,448.336,473.57,448.973,472.514,448.695z"
							/>
						<path fill="#9FCFFF" d="M455.852,523.109c-0.883-0.223-1.414-1.115-1.188-1.988c0.223-0.875,1.113-1.404,1.99-1.178
							c0.871,0.213,1.41,1.104,1.188,1.988C457.619,522.807,456.727,523.334,455.852,523.109z"/>
						<path fill="#9FCFFF" d="M240.854,536.869c-0.883-0.223-1.413-1.115-1.199-1.998c0.234-0.873,1.127-1.404,2.01-1.189
							c0.863,0.225,1.402,1.115,1.178,2C242.62,536.555,241.727,537.096,240.854,536.869z"/>
						<path opacity="0.29" fill="#9FCFFF" enable-background="new    " d="M366.282,342.018c-0.311,1.258-1.594,2.023-2.855,1.697"
							/>
						<path fill="#9FCFFF" d="M-24.456,506.211c-0.793-0.207-1.289-1.02-1.061-1.813c0.188-0.803,1-1.289,1.803-1.08
							c0.792,0.197,1.277,1.01,1.081,1.813C-22.84,505.934-23.654,506.408-24.456,506.211"/>
						<path fill="#9FCFFF" d="M482.436,484.268c-0.824-0.205-1.32-1.037-1.113-1.861c0.207-0.813,1.051-1.311,1.863-1.104
							c0.813,0.209,1.318,1.039,1.113,1.863C484.09,483.988,483.258,484.484,482.436,484.268z"/>
						<path opacity="0.29" fill="#9FCFFF" enable-background="new    " d="M424.982,450.93c-1.008-0.26-1.621-1.277-1.361-2.295
							c0.258-1.016,1.289-1.623,2.293-1.361c1.018,0.26,1.623,1.277,1.373,2.293C427.027,450.582,426,451.188,424.982,450.93z"/>
						<path opacity="0.29" fill="#9FCFFF" enable-background="new    " d="M444.598,476.389c-0.752-0.188-1.217-0.963-1.035-1.713
							c0.209-0.762,0.975-1.217,1.734-1.025c0.752,0.197,1.217,0.963,1.016,1.725C446.135,476.125,445.361,476.59,444.598,476.389z"
							/>
						<path fill="#9FCFFF" d="M-230.112,202.766c-0.721-0.18-1.153-0.916-0.972-1.625c0.18-0.733,0.916-1.164,1.637-0.982
							c0.721,0.18,1.163,0.914,0.963,1.635C-228.655,202.523-229.391,202.958-230.112,202.766z"/>
						<path opacity="0.29" fill="#9FCFFF" enable-background="new    " d="M267.372,231.495c-1.057-0.277-1.705-1.356-1.428-2.412
							c0.268-1.058,1.346-1.703,2.4-1.427c1.066,0.266,1.705,1.346,1.439,2.4C269.504,231.124,268.426,231.762,267.372,231.495z"/>
						<path fill="#9FCFFF" d="M408.254,516.305c-1.156-0.293-1.852-1.467-1.557-2.627c0.291-1.154,1.467-1.857,2.625-1.564
							c1.16,0.303,1.852,1.479,1.559,2.625C410.588,515.896,409.41,516.6,408.254,516.305z"/>
						<path fill="#9FCFFF" d="M191.198,565.307c-1.119-0.297-1.82-1.449-1.525-2.588c0.283-1.146,1.441-1.828,2.588-1.545
							c1.137,0.295,1.828,1.449,1.535,2.588C193.5,564.9,192.344,565.592,191.198,565.307"/>
						<path fill="#9FCFFF" d="M282.95,593.57c0.293-1.139,1.451-1.83,2.588-1.535c1.146,0.283,1.838,1.451,1.535,2.588"/>
						<path fill="#9FCFFF" d="M199.356,569.385c0.198-0.779,0.982-1.246,1.764-1.047c0.772,0.189,1.248,0.98,1.049,1.754"/>
						<path fill="#9FCFFF" d="M271.905,583.443c-0.68-0.172-1.092-0.867-0.92-1.549c0.174-0.68,0.869-1.102,1.551-0.92
							c0.689,0.174,1.1,0.869,0.928,1.551S272.594,583.625,271.905,583.443"/>
						<path fill="#9FCFFF" d="M340.528,589.457c-0.822-0.207-1.318-1.051-1.104-1.873c0.207-0.822,1.041-1.318,1.873-1.111
							c0.822,0.205,1.32,1.047,1.111,1.871C342.194,589.178,341.364,589.674,340.528,589.457z"/>
						<path fill="#9FCFFF" d="M160.918,552.5c-0.66-0.174-1.049-0.84-0.885-1.488c0.162-0.662,0.828-1.051,1.487-0.887
							c0.651,0.162,1.052,0.83,0.888,1.49C162.236,552.266,161.569,552.666,160.918,552.5"/>
						<path fill="#9FCFFF" d="M320.137,601.273c0.238-0.965,1.229-1.549,2.193-1.309c0.965,0.252,1.549,1.232,1.309,2.197"/>
						<path fill="#9FCFFF" d="M298.45,592.307c0.283-1.137,1.441-1.816,2.578-1.533c1.129,0.295,1.816,1.451,1.525,2.59"/>
						<path fill="#9FCFFF" d="M291.776,591.553c0.242-0.936,1.193-1.496,2.119-1.254c0.934,0.23,1.496,1.184,1.254,2.117"/>
						<path fill="#9FCFFF" d="M277.051,546.635c-0.885-0.223-1.412-1.125-1.189-2.01c0.225-0.883,1.117-1.412,2-1.189
							c0.885,0.225,1.424,1.117,1.201,2.002C278.836,546.318,277.936,546.859,277.051,546.635z"/>
						<path fill="#9FCFFF" d="M411.57,546.51c-0.996-0.238-1.568-1.24-1.328-2.215c0.25-0.986,1.25-1.57,2.223-1.328
							c0.977,0.25,1.57,1.25,1.32,2.225S412.545,546.76,411.57,546.51z"/>
						<path fill="#9FCFFF" d="M225.051,543.17c-0.73-0.189-1.174-0.945-0.984-1.676c0.191-0.742,0.938-1.188,1.678-1.006
							c0.741,0.188,1.185,0.943,0.994,1.676C226.547,542.906,225.805,543.35,225.051,543.17z"/>
						<path opacity="0.29" fill="#9FCFFF" enable-background="new    " d="M96.227,471.34c-0.711-0.182-1.143-0.906-0.963-1.619
							c0.184-0.711,0.896-1.141,1.609-0.949c0.711,0.172,1.131,0.895,0.961,1.607C97.654,471.086,96.928,471.521,96.227,471.34z"/>
						<path fill="#9FCFFF" d="M284.157,557.68c-0.904-0.23-1.465-1.162-1.232-2.076c0.232-0.924,1.164-1.477,2.09-1.242
							c0.912,0.23,1.465,1.164,1.23,2.078C286.012,557.361,285.081,557.914,284.157,557.68z"/>
						<path fill="#9FCFFF" d="M300.397,595.129c0.283-1.115,1.41-1.787,2.529-1.502c1.115,0.283,1.785,1.412,1.5,2.529"/>
						<path fill="#9FCFFF" d="M240.388,569.383c-0.771-0.188-1.235-0.982-1.037-1.754c0.188-0.771,0.983-1.236,1.755-1.039
							c0.762,0.201,1.236,0.982,1.037,1.754C241.934,569.117,241.161,569.582,240.388,569.383z"/>
						<path fill="#9FCFFF" d="M341.415,494.875c-0.955-0.242-1.539-1.223-1.287-2.178c0.242-0.963,1.211-1.537,2.176-1.297
							c0.955,0.24,1.539,1.223,1.289,2.178C343.35,494.533,342.377,495.115,341.415,494.875z"/>
						<path fill="#9FCFFF" d="M280.043,591.834c-1.24-0.32-1.984-1.574-1.678-2.814c0.32-1.238,1.574-1.992,2.814-1.674
							c1.248,0.309,1.994,1.572,1.676,2.813C282.545,591.396,281.282,592.152,280.043,591.834"/>
						<path fill="#9FCFFF" d="M290.901,565.887c-1.086-0.264-1.725-1.354-1.449-2.43c0.268-1.074,1.355-1.715,2.434-1.447
							c1.076,0.275,1.715,1.363,1.447,2.432C293.043,565.516,291.965,566.166,290.901,565.887z"/>
						<path fill="#9FCFFF" d="M326.145,580.678c-1.107-0.273-1.787-1.412-1.504-2.521c0.285-1.105,1.412-1.775,2.529-1.502
							c1.107,0.287,1.777,1.414,1.492,2.529C328.389,580.291,327.252,580.961,326.145,580.678z"/>
						<path fill="#9FCFFF" d="M212.875,567.412c-1.033-0.268-1.662-1.314-1.403-2.354c0.269-1.035,1.315-1.662,2.353-1.404
							c1.035,0.27,1.664,1.318,1.395,2.354C214.961,567.043,213.915,567.67,212.875,567.412"/>
						<path fill="#9FCFFF" d="M265.696,560.918c-1.199-0.301-1.924-1.52-1.621-2.715c0.301-1.199,1.516-1.922,2.725-1.623
							c1.197,0.313,1.924,1.527,1.611,2.725C268.108,560.504,266.893,561.219,265.696,560.918z"/>
						<path fill="#9FCFFF" d="M170.344,565.93c0.223-0.941,1.191-1.516,2.138-1.273c0.954,0.242,1.517,1.203,1.286,2.146"/>
						<path fill="#9FCFFF" d="M343.723,564.305c-0.934-0.24-1.494-1.182-1.256-2.115c0.234-0.936,1.186-1.508,2.119-1.266
							c0.943,0.232,1.486,1.186,1.266,2.117C345.61,563.975,344.659,564.539,343.723,564.305z"/>
						<path fill="#9FCFFF" d="M359.452,606.518c-0.783-0.195-1.25-0.98-1.051-1.756c0.199-0.77,0.984-1.244,1.756-1.045
							c0.771,0.197,1.227,0.982,1.047,1.756C361.006,606.24,360.221,606.717,359.452,606.518"/>
						<path fill="#9FCFFF" d="M394.553,615.516c0.16-0.641,0.807-1.029,1.459-0.865c0.639,0.164,1.008,0.813,0.854,1.449"/>
						<path opacity="0.29" fill="#9FCFFF" enable-background="new    " d="M509.355,455.791c-0.887-0.225-1.426-1.127-1.201-2.021
							c0.225-0.893,1.135-1.424,2.02-1.199c0.893,0.225,1.434,1.137,1.199,2.02C511.148,455.482,510.248,456.025,509.355,455.791z"
							/>
						<path fill="#9FCFFF" d="M496.73,566.869c-1.127-0.283-1.799-1.422-1.516-2.547c0.285-1.119,1.422-1.799,2.549-1.516
							c1.119,0.285,1.799,1.424,1.516,2.551C498.996,566.475,497.84,567.156,496.73,566.869z"/>
						<path fill="#9FCFFF" d="M251.788,532.344c-0.865-0.217-1.393-1.098-1.168-1.961c0.213-0.873,1.098-1.393,1.969-1.178
							c0.865,0.225,1.385,1.107,1.168,1.971C253.532,532.049,252.649,532.566,251.788,532.344z"/>
						<path opacity="0.29" fill="#9FCFFF" enable-background="new    " d="M318.895,435.166c-1.066-0.281-1.713-1.367-1.447-2.434
							c0.275-1.076,1.365-1.717,2.432-1.449c1.066,0.277,1.713,1.355,1.438,2.432C321.049,434.781,319.961,435.43,318.895,435.166z"
							/>
						<path fill="#9FCFFF" d="M191.407,501.045c-1.199-0.311-1.924-1.525-1.621-2.725c0.299-1.197,1.525-1.922,2.725-1.609
							c1.188,0.301,1.912,1.516,1.611,2.713C193.808,500.625,192.603,501.348,191.407,501.045z"/>
						<path fill="#9FCFFF" d="M432.68,559.207c-0.813-0.207-1.299-1.029-1.092-1.842c0.207-0.803,1.031-1.299,1.832-1.092
							c0.811,0.207,1.301,1.031,1.094,1.842C434.316,558.93,433.492,559.416,432.68,559.207z"/>
						<path opacity="0.29" fill="#9FCFFF" enable-background="new    " d="M280.016,442.631c-0.773-0.197-1.229-0.982-1.039-1.754
							c0.197-0.771,0.982-1.238,1.744-1.039c0.781,0.189,1.246,0.975,1.049,1.746C281.571,442.357,280.788,442.83,280.016,442.631z"
							/>
						<path fill="#9FCFFF" d="M472.27,588.773c-1.127-0.283-1.787-1.422-1.5-2.527c0.273-1.117,1.41-1.789,2.525-1.504
							c1.109,0.285,1.777,1.412,1.494,2.529C474.514,588.379,473.377,589.063,472.27,588.773z"/>
						<path opacity="0.29" fill="#9FCFFF" enable-background="new    " d="M278.752,210.852c-0.803-0.196-1.287-1.009-1.08-1.813
							c0.207-0.793,1.012-1.268,1.813-1.072c0.793,0.199,1.279,1.022,1.072,1.814C280.36,210.574,279.543,211.05,278.752,210.852z"
							/>
						<path fill="#9FCFFF" d="M157.122,529.5c-0.688-0.17-1.103-0.879-0.92-1.566c0.174-0.701,0.879-1.111,1.578-0.941
							c0.691,0.172,1.112,0.879,0.93,1.58C158.538,529.262,157.833,529.684,157.122,529.5z"/>
						<path fill="#9FCFFF" d="M11.199,384.67c-0.711-0.172-1.133-0.895-0.952-1.6c0.183-0.697,0.896-1.131,1.6-0.949
							c0.71,0.182,1.132,0.896,0.95,1.598C12.624,384.43,11.9,384.861,11.199,384.67z"/>
						<path fill="#9FCFFF" d="M37.467,521.117c-0.873-0.227-1.392-1.107-1.178-1.98c0.226-0.861,1.107-1.393,1.971-1.168
							c0.872,0.213,1.402,1.098,1.168,1.971C39.213,520.813,38.331,521.332,37.467,521.117"/>
						<path fill="#9FCFFF" d="M4.521,518.711c-0.729-0.182-1.162-0.916-0.981-1.646c0.189-0.732,0.914-1.174,1.656-0.984
							c0.721,0.182,1.154,0.926,0.984,1.656C5.989,518.459,5.244,518.9,4.521,518.711"/>
						<path fill="#9FCFFF" d="M34.07,490.855c-1.028-0.258-1.654-1.309-1.396-2.332c0.27-1.037,1.309-1.652,2.344-1.395
							c1.025,0.268,1.642,1.309,1.384,2.332C36.144,490.496,35.095,491.113,34.07,490.855z"/>
						<path fill="#9FCFFF" d="M-118.499,413.277c-0.752-0.188-1.194-0.934-1.015-1.674c0.19-0.74,0.935-1.186,1.687-0.994
							c0.73,0.18,1.186,0.945,0.994,1.676C-117.023,413.027-117.777,413.471-118.499,413.277z"/>
						<path fill="#9FCFFF" d="M-9.675,502.166c-1.086-0.277-1.746-1.385-1.461-2.471c0.268-1.086,1.374-1.746,2.46-1.471
							c1.087,0.277,1.737,1.385,1.462,2.471C-7.491,501.783-8.588,502.441-9.675,502.166z"/>
						<path fill="#9FCFFF" d="M101.823,548.691c0.252-0.967,1.241-1.551,2.215-1.311c0.955,0.25,1.539,1.232,1.299,2.197"/>
						<path fill="#9FCFFF" d="M17.839,431.133c-0.711-0.189-1.145-0.906-0.962-1.619c0.181-0.711,0.905-1.143,1.616-0.961
							c0.713,0.182,1.144,0.896,0.962,1.607C19.274,430.871,18.549,431.303,17.839,431.133z"/>
						<path fill="#9FCFFF" d="M-91.419,410.193c-0.895-0.232-1.444-1.145-1.213-2.059c0.225-0.895,1.146-1.445,2.04-1.211
							c0.914,0.223,1.454,1.145,1.231,2.047C-89.606,409.877-90.516,410.418-91.419,410.193z"/>
						<path fill="#9FCFFF" d="M-43.481,433.482c-0.752-0.189-1.186-0.955-0.996-1.688c0.19-0.75,0.944-1.193,1.687-1.014
							c0.73,0.188,1.185,0.955,0.995,1.686C-41.985,433.219-42.731,433.662-43.481,433.482z"/>
						<path fill="#9FCFFF" d="M-113.835,408.502c-0.823-0.207-1.32-1.049-1.114-1.881c0.217-0.836,1.06-1.332,1.882-1.115
							c0.822,0.207,1.33,1.051,1.114,1.873C-112.161,408.211-113.004,408.709-113.835,408.502z"/>
						<path opacity="0.29" fill="#9FCFFF" enable-background="new    " d="M400.01,415.857c-0.955-0.254-1.537-1.232-1.295-2.188
							c0.252-0.965,1.221-1.549,2.186-1.297c0.965,0.24,1.539,1.221,1.299,2.176C401.957,415.523,400.977,416.107,400.01,415.857z"
							/>
						<path opacity="0.29" fill="#9FCFFF" enable-background="new    " d="M261.038,224.928c-0.721-0.188-1.164-0.916-0.973-1.646
							c0.182-0.711,0.914-1.146,1.637-0.974c0.721,0.19,1.152,0.916,0.973,1.646C262.493,224.666,261.756,225.109,261.038,224.928z"
							/>
						<path fill="#9FCFFF" d="M-105.273,474.455c-0.771-0.189-1.235-0.973-1.037-1.744c0.189-0.771,0.974-1.246,1.743-1.049
							c0.764,0.201,1.239,0.984,1.049,1.754C-103.716,474.189-104.5,474.654-105.273,474.455z"/>
						<path opacity="0.29" fill="#9FCFFF" enable-background="new    " d="M323.823,309.727c-0.813-0.205-1.311-1.029-1.111-1.842
							c0.217-0.813,1.041-1.311,1.863-1.104c0.801,0.207,1.299,1.031,1.082,1.842C325.458,309.438,324.625,309.934,323.823,309.727z
							"/>
						<path opacity="0.29" fill="#9FCFFF" enable-background="new    " d="M283.284,281.023c-1.189-0.303-1.9-1.508-1.602-2.705
							c0.303-1.189,1.51-1.912,2.695-1.602c1.189,0.303,1.914,1.508,1.611,2.707C285.688,280.604,284.471,281.326,283.284,281.023z"
							/>
						<path opacity="0.29" fill="#9FCFFF" enable-background="new    " d="M290.182,268.939c-0.699-0.172-1.121-0.877-0.939-1.578
							c0.172-0.703,0.877-1.111,1.566-0.939s1.121,0.877,0.949,1.576C291.569,268.699,290.874,269.111,290.182,268.939z"/>
						<path opacity="0.29" fill="#9FCFFF" enable-background="new    " d="M528.719,442.438c-1.219-0.309-1.955-1.543-1.645-2.754
							c0.313-1.207,1.547-1.943,2.754-1.633c1.209,0.301,1.945,1.537,1.633,2.746C531.15,442.016,529.926,442.75,528.719,442.438z"
							/>
						<circle fill="#9FCFFF" cx="225.911" cy="560.391" r="2.145"/>
						<path opacity="0.29" fill="#9FCFFF" enable-background="new    " d="M230.825,447.699c-0.711-0.18-1.134-0.896-0.953-1.607
							c0.184-0.691,0.897-1.123,1.6-0.951c0.701,0.191,1.123,0.896,0.951,1.607C232.241,447.449,231.524,447.871,230.825,447.699z"
							/>
						<path opacity="0.29" fill="#9FCFFF" enable-background="new    " d="M63.67,480.139c-1.045-0.275-1.693-1.354-1.428-2.41
							c0.266-1.066,1.344-1.703,2.411-1.438c1.048,0.27,1.704,1.346,1.429,2.414C65.815,479.768,64.738,480.406,63.67,480.139z"/>
						<path opacity="0.29" fill="#9FCFFF" enable-background="new    " d="M57.346,458.211c-0.66-0.162-1.061-0.83-0.887-1.49
							c0.162-0.648,0.828-1.051,1.49-0.885c0.659,0.172,1.051,0.838,0.885,1.486C58.663,457.984,57.997,458.385,57.346,458.211z"/>
						<path opacity="0.29" fill="#9FCFFF" enable-background="new    " d="M247.022,345.904c-1.035-0.27-1.664-1.328-1.406-2.363
							c0.268-1.033,1.328-1.674,2.363-1.395c1.035,0.258,1.652,1.314,1.395,2.354C249.116,345.535,248.057,346.16,247.022,345.904z"
							/>
						<circle opacity="0.29" fill="#9FCFFF" enable-background="new    " cx="284.456" cy="399.996" r="1.404"/>
						<path opacity="0.29" fill="#9FCFFF" enable-background="new    " d="M229.463,319.432c-0.782-0.197-1.258-0.99-1.061-1.773
							c0.209-0.783,1.004-1.258,1.784-1.061c0.782,0.199,1.249,1.002,1.049,1.775C231.04,319.164,230.245,319.631,229.463,319.432z"
							/>
						<path opacity="0.29" fill="#9FCFFF" enable-background="new    " d="M286.286,389.469c-1.188-0.299-1.912-1.508-1.602-2.705
							c0.303-1.178,1.508-1.893,2.695-1.602c1.189,0.313,1.902,1.51,1.602,2.709C288.678,389.049,287.473,389.771,286.286,389.469z"
							/>
						<path opacity="0.29" fill="#9FCFFF" enable-background="new    " d="M279.799,374.27c-0.822-0.205-1.309-1.051-1.113-1.885
							c0.207-0.818,1.051-1.316,1.883-1.104c0.822,0.207,1.32,1.051,1.113,1.873C281.477,373.979,280.633,374.475,279.799,374.27z"
							/>
						<path opacity="0.29" fill="#9FCFFF" enable-background="new    " d="M250.549,344.027c-0.945-0.242-1.518-1.203-1.275-2.156
							c0.24-0.945,1.203-1.518,2.146-1.277c0.943,0.242,1.518,1.203,1.275,2.158C252.456,343.688,251.495,344.271,250.549,344.027z"
							/>
						<path fill="#9FCFFF" d="M-44.542,155.738c-0.873-0.226-1.414-1.125-1.178-2.001c0.224-0.883,1.114-1.414,2-1.189
							c0.883,0.226,1.413,1.117,1.178,2.002C-42.756,155.422-43.647,155.962-44.542,155.738z"/>
						<path fill="#9FCFFF" d="M-25.208,417.385c-1.249-0.311-2.017-1.582-1.696-2.844c0.318-1.26,1.593-2.016,2.853-1.688
							c1.259,0.309,2.015,1.586,1.696,2.844C-22.673,416.955-23.948,417.713-25.208,417.385z"/>
						<path fill="#9FCFFF" d="M-23.209,410.408c-1.056-0.258-1.684-1.324-1.415-2.373c0.267-1.037,1.326-1.672,2.372-1.404
							c1.045,0.258,1.673,1.324,1.416,2.371C-21.104,410.039-22.173,410.676-23.209,410.408z"/>
						<path fill="#9FCFFF" d="M-17.574,406.795c-0.853-0.225-1.373-1.098-1.158-1.959c0.216-0.854,1.099-1.373,1.96-1.168
							c0.855,0.225,1.375,1.107,1.149,1.963C-15.829,406.49-16.7,407.01-17.574,406.795z"/>
						<path fill="#9FCFFF" d="M-13.079,401.623c-0.863-0.225-1.393-1.107-1.169-1.98c0.206-0.871,1.107-1.391,1.972-1.166
							c0.873,0.225,1.394,1.105,1.177,1.969C-11.324,401.309-12.207,401.848-13.079,401.623z"/>
						<path opacity="0.29" fill="#9FCFFF" enable-background="new    " d="M77.279,475.439c-0.639-0.154-1.019-0.803-0.862-1.441
							c0.162-0.639,0.811-1.016,1.449-0.855c0.631,0.154,1.02,0.805,0.854,1.443C78.555,475.215,77.911,475.604,77.279,475.439z"/>
						<path opacity="0.29" fill="#9FCFFF" enable-background="new    " d="M175.265,224.969c-0.955-0.242-1.529-1.203-1.287-2.156
							c0.241-0.955,1.212-1.539,2.166-1.297c0.955,0.241,1.538,1.221,1.286,2.176C177.19,224.646,176.219,225.219,175.265,224.969z"
							/>
						<path opacity="0.29" fill="#9FCFFF" enable-background="new    " d="M176.523,229.609c-0.729-0.183-1.173-0.938-0.994-1.678
							c0.19-0.732,0.927-1.175,1.677-0.994c0.731,0.188,1.186,0.936,0.994,1.677C178.01,229.355,177.265,229.789,176.523,229.609z"
							/>
						<path opacity="0.29" fill="#9FCFFF" enable-background="new    " d="M152.068,241.797c-1.259-0.329-2.017-1.593-1.696-2.844
							c0.317-1.258,1.594-2.016,2.842-1.686c1.25,0.31,2.006,1.582,1.679,2.842C154.581,241.35,153.317,242.105,152.068,241.797z"/>
						<path opacity="0.29" fill="#9FCFFF" enable-background="new    " d="M164.204,230.717c-0.67-0.162-1.07-0.838-0.908-1.51
							c0.174-0.67,0.858-1.08,1.529-0.906c0.672,0.174,1.07,0.85,0.907,1.521C165.558,230.491,164.874,230.891,164.204,230.717z"/>
					</g>
					<g>
						<path fill="#9FCFFF" d="M-80.825,611.688c0.789,0.385,1.742,0.049,2.128-0.744c0.388-0.791,0.056-1.732-0.735-2.121
							c-0.791-0.387-1.743-0.063-2.129,0.729S-81.616,611.299-80.825,611.688z"/>
						<path fill="#9FCFFF" d="M19.094,599.688c1.159,0.563,2.562,0.076,3.137-1.084c0.563-1.16,0.07-2.566-1.098-3.137
							c-1.151-0.557-2.553-0.068-3.121,1.082C17.441,597.719,17.933,599.127,19.094,599.688z"/>
						<path fill="#9FCFFF" d="M61.372,668.904c0.984,0.469,2.168,0.072,2.646-0.922c0.477-0.98,0.079-2.164-0.913-2.641
							c-0.979-0.479-2.17-0.07-2.647,0.906C59.979,667.242,60.391,668.426,61.372,668.904z"/>
						<path fill="#9FCFFF" d="M64.407,662.83c1.079,0.529,2.389,0.07,2.92-1.01c0.521-1.088,0.076-2.387-1.012-2.922
							c-1.087-0.523-2.396-0.076-2.92,1.01C62.866,660.99,63.317,662.307,64.407,662.83z"/>
						<path fill="#9FCFFF" d="M70.689,666.809c0.897,0.43,1.991,0.059,2.438-0.855c0.437-0.906,0.058-1.992-0.834-2.43
							c-0.914-0.445-2.016-0.064-2.445,0.848C69.395,665.262,69.776,666.363,70.689,666.809z"/>
						<path fill="#9FCFFF" d="M307.157,648.848c0.973,0.482,2.154,0.07,2.625-0.912c0.486-0.975,0.08-2.164-0.904-2.637
							c-0.979-0.477-2.148-0.063-2.635,0.906C305.758,647.195,306.176,648.385,307.157,648.848z"/>
						<path fill="#9FCFFF" d="M-21.413,538.426c0.688,0.336,1.521,0.053,1.855-0.639c0.333-0.689,0.049-1.521-0.646-1.863
							c-0.689-0.334-1.523-0.049-1.849,0.646C-22.399,537.262-22.109,538.084-21.413,538.426z"/>
						<path fill="#9FCFFF" d="M-135.173,591.047c0.768,0.379,1.706,0.057,2.079-0.721c0.386-0.775,0.057-1.707-0.713-2.086
							c-0.783-0.379-1.714-0.049-2.093,0.721C-136.273,589.736-135.95,590.674-135.173,591.047z"/>
						<path fill="#9FCFFF" d="M-84.167,515.283c1.124,0.543,2.484,0.074,3.034-1.057c0.556-1.127,0.081-2.492-1.053-3.041
							c-1.125-0.557-2.49-0.08-3.038,1.053C-85.765,513.361-85.304,514.729-84.167,515.283z"/>
						<path fill="#9FCFFF" d="M-114.198,623.168c1.009,0.49,2.229,0.068,2.719-0.938c0.482-1,0.069-2.213-0.945-2.709
							c-1.007-0.492-2.213-0.072-2.704,0.936S-115.198,622.686-114.198,623.168"/>
						<path fill="#9FCFFF" d="M-112.36,602.068c1.152,0.557,2.554,0.07,3.115-1.088c0.563-1.162,0.085-2.557-1.075-3.119
							c-1.153-0.555-2.561-0.076-3.124,1.082C-114.006,600.107-113.521,601.492-112.36,602.068z"/>
						<path fill="#9FCFFF" d="M-71.75,575.33c0.986,0.482,2.156,0.072,2.633-0.908c0.472-0.973,0.06-2.156-0.912-2.625
							c-0.973-0.471-2.155-0.074-2.634,0.906C-73.14,573.682-72.736,574.857-71.75,575.33z"/>
						<path fill="#9FCFFF" d="M-95.22,522.176c0.962,0.465,2.127,0.063,2.588-0.902c0.465-0.963,0.069-2.121-0.896-2.6
							c-0.963-0.465-2.128-0.061-2.591,0.904C-96.591,520.535-96.18,521.705-95.22,522.176z"/>
						<path fill="#9FCFFF" d="M-5.578,517.762c0.731,0.361,1.608,0.063,1.97-0.672c0.352-0.738,0.052-1.613-0.688-1.967
							c-0.725-0.352-1.6-0.055-1.961,0.68C-6.618,516.535-6.301,517.424-5.578,517.762z"/>
						<path fill="#9FCFFF" d="M-117.053,549.465c1.103,0.535,2.425,0.074,2.962-1.025c0.536-1.104,0.082-2.436-1.021-2.973
							c-1.101-0.535-2.432-0.064-2.968,1.035C-118.601,547.604-118.156,548.928-117.053,549.465z"/>
						<path fill="#9FCFFF" d="M-23.967,534.797c0.789,0.385,1.766,0.053,2.149-0.75c0.393-0.799,0.061-1.771-0.743-2.158
							c-0.799-0.393-1.771-0.061-2.158,0.742C-25.111,533.43-24.778,534.404-23.967,534.797z"/>
						<path fill="#9FCFFF" d="M472.627,638.141c1.07,0.523,2.377,0.086,2.893-0.994c0.518-1.08,0.084-2.361-0.996-2.895
							c-1.08-0.516-2.375-0.07-2.898,1.004S471.553,637.617,472.627,638.141z"/>
						<path fill="#9FCFFF" d="M-140.322,614.635c1.16,0.564,2.562,0.08,3.123-1.08c0.569-1.168,0.084-2.566-1.075-3.131
							c-1.169-0.568-2.569-0.086-3.139,1.084C-141.975,612.666-141.491,614.066-140.322,614.635"/>
						<path fill="#9FCFFF" d="M-123.379,622.729c0.442-0.93,0.063-2.041-0.865-2.5c-0.935-0.451-2.056-0.063-2.501,0.863"/>
						<path fill="#9FCFFF" d="M-145.527,371.652c1.037,0.504,2.284,0.066,2.794-0.963c0.503-1.037,0.074-2.289-0.976-2.793
							c-1.032-0.512-2.277-0.078-2.781,0.961C-146.993,369.896-146.564,371.148-145.527,371.652z"/>
						<path fill="#9FCFFF" d="M-136.629,365.67c1.037,0.504,2.282,0.068,2.795-0.963c0.503-1.037,0.073-2.291-0.978-2.795
							c-1.031-0.51-2.276-0.074-2.78,0.963C-138.096,363.912-137.667,365.166-136.629,365.67z"/>
						<path fill="#9FCFFF" d="M-198.003,422.924c0.857,0.418,1.898,0.057,2.325-0.793c0.418-0.871,0.056-1.914-0.807-2.34
							c-0.863-0.412-1.901-0.055-2.327,0.809C-199.236,421.463-198.874,422.508-198.003,422.924z"/>
						<path fill="#9FCFFF" d="M-126.948,339.643c0.907,0.438,1.972,0.066,2.416-0.834c0.425-0.891,0.052-1.969-0.833-2.402
							c-0.892-0.438-1.971-0.066-2.414,0.834C-128.206,338.131-127.833,339.211-126.948,339.643z"/>
						<path fill="#9FCFFF" d="M-195.636,538.834c1.146,0.551,2.533,0.08,3.089-1.072c0.563-1.146,0.078-2.533-1.067-3.098
							c-1.153-0.555-2.532-0.078-3.088,1.076C-197.266,536.885-196.789,538.266-195.636,538.834z"/>
						<path fill="#9FCFFF" d="M-98.43,454.861c0.994,0.477,2.199,0.07,2.685-0.932c0.482-1,0.07-2.197-0.931-2.682
							c-0.994-0.492-2.198-0.072-2.683,0.928C-99.835,453.17-99.423,454.369-98.43,454.861z"/>
						<path fill="#9FCFFF" d="M-32.389,417.18c1.066,0.518,2.363,0.07,2.887-1.004c0.521-1.07,0.078-2.369-1.004-2.896
							c-1.08-0.516-2.376-0.072-2.899,1.002C-33.921,415.361-33.476,416.656-32.389,417.18z"/>
						<path fill="#9FCFFF" d="M22.848,387.482c0.927,0.441,2.049,0.057,2.506-0.875c0.451-0.934,0.063-2.055-0.873-2.506
							c-0.934-0.451-2.056-0.063-2.507,0.857C21.516,385.904,21.905,387.021,22.848,387.482z"/>
						<path fill="#9FCFFF" d="M10.074,394.254c1.159,0.549,2.539,0.072,3.102-1.09c0.555-1.15,0.07-2.537-1.076-3.102
							c-1.146-0.563-2.546-0.078-3.109,1.068C8.435,392.285,8.913,393.678,10.074,394.254z"/>
						<path fill="#9FCFFF" d="M28.557,391.994c0.653,0.314,1.435,0.039,1.75-0.6c0.321-0.66,0.046-1.441-0.605-1.758
							c-0.639-0.313-1.43-0.047-1.736,0.613C27.636,390.889,27.912,391.672,28.557,391.994z"/>
						<path fill="#9FCFFF" d="M15.731,397.875c0.797,0.379,1.741,0.049,2.122-0.736c0.379-0.781,0.055-1.732-0.736-2.121
							c-0.783-0.379-1.736-0.055-2.123,0.734C14.617,396.537,14.948,397.48,15.731,397.875z"/>
						<path fill="#9FCFFF" d="M-186.024,548.953c1.036,0.506,2.291,0.076,2.794-0.963c0.496-1.027,0.067-2.281-0.97-2.787
							c-1.029-0.496-2.283-0.066-2.787,0.969C-187.484,547.203-187.054,548.457-186.024,548.953z"/>
						<path fill="#9FCFFF" d="M23.633,458.381c1.138,0.557,2.495,0.086,3.045-1.045c0.558-1.139,0.088-2.512-1.044-3.061
							c-1.13-0.549-2.502-0.066-3.068,1.051C22.026,456.465,22.501,457.83,23.633,458.381z"/>
						<path fill="#9FCFFF" d="M-34.707,433.58c0.603,0.297,1.324,0.045,1.611-0.549c0.294-0.604,0.045-1.324-0.55-1.611
							c-0.609-0.303-1.331-0.051-1.617,0.543C-35.557,432.563-35.307,433.287-34.707,433.58z"/>
						<path fill="#9FCFFF" d="M-179.927,473.27c0.879,0.426,1.935,0.063,2.36-0.814c0.431-0.871,0.062-1.939-0.817-2.361
							c-0.876-0.426-1.934-0.059-2.36,0.818C-181.178,471.779-180.812,472.838-179.927,473.27z"/>
						<path opacity="0.29" fill="#9FCFFF" enable-background="new    " d="M128.032,344.664c0.842,0.418,1.87,0.068,2.282-0.779
							c0.413-0.848,0.058-1.871-0.792-2.283c-0.841-0.404-1.863-0.063-2.273,0.783C126.834,343.234,127.183,344.264,128.032,344.664
							z"/>
						<path fill="#9FCFFF" d="M-6.743,405.93c1.007,0.49,2.232,0.063,2.73-0.955c0.483-0.998,0.068-2.225-0.938-2.717
							c-1.019-0.496-2.25-0.074-2.726,0.947C-8.167,404.213-7.758,405.432-6.743,405.93z"/>
						<path fill="#9FCFFF" d="M4.621,400.301c0.857,0.418,1.895,0.064,2.306-0.799c0.418-0.855,0.07-1.887-0.794-2.297
							c-0.856-0.418-1.885-0.07-2.312,0.793C3.417,398.852,3.766,399.883,4.621,400.301z"/>
						<path opacity="0.29" fill="#9FCFFF" enable-background="new    " d="M88.609,365.496c0.937,0.453,2.063,0.07,2.513-0.863
							c0.451-0.936,0.064-2.057-0.871-2.508c-0.931-0.457-2.049-0.07-2.5,0.865C87.299,363.924,87.679,365.039,88.609,365.496z"/>
						<path fill="#9FCFFF" d="M-77.638,392.947c1.03,0.498,2.29,0.059,2.802-0.973c0.496-1.043,0.067-2.313-0.978-2.807
							c-1.045-0.512-2.298-0.066-2.8,0.969C-79.119,391.176-78.697,392.438-77.638,392.947z"/>
						<path fill="#9FCFFF" d="M216.727,659.111c0.893,0.438,1.964,0.061,2.395-0.824c0.433-0.885,0.068-1.957-0.822-2.396
							c-0.887-0.43-1.965-0.059-2.396,0.826C215.477,657.609,215.842,658.68,216.727,659.111z"/>
						<path fill="#9FCFFF" d="M195.27,602.891c1.018,0.498,2.258,0.068,2.762-0.951c0.504-1.039,0.075-2.277-0.949-2.768
							c-1.043-0.514-2.269-0.084-2.779,0.945C193.806,601.148,194.236,602.389,195.27,602.891z"/>
						<path fill="#9FCFFF" d="M-107.301,494.023c0.682,0.324,1.502,0.043,1.834-0.633c0.327-0.682,0.045-1.5-0.631-1.834
							c-0.681-0.326-1.506-0.051-1.834,0.633C-108.265,492.875-107.983,493.697-107.301,494.023z"/>
						<path fill="#9FCFFF" d="M-65.976,463.318c0.974,0.482,2.156,0.07,2.641-0.914c0.478-0.992,0.064-2.176-0.914-2.654
							c-0.993-0.477-2.177-0.064-2.654,0.914C-67.375,461.65-66.962,462.848-65.976,463.318z"/>
						<path fill="#9FCFFF" d="M-45.373,512.783c0.812,0.391,1.786,0.043,2.179-0.754c0.398-0.805,0.059-1.785-0.752-2.176
							c-0.806-0.4-1.786-0.063-2.18,0.748C-46.516,511.414-46.177,512.383-45.373,512.783z"/>
						<path fill="#9FCFFF" d="M308.579,829.961c0.391-0.813,0.053-1.793-0.75-2.193c-0.816-0.393-1.795-0.051-2.188,0.762"/>
						<path fill="#9FCFFF" d="M-233.44,462.059c0.791,0.387,1.75,0.055,2.137-0.736c0.385-0.789,0.046-1.742-0.744-2.129
							c-0.791-0.387-1.736-0.055-2.122,0.734C-234.555,460.719-234.23,461.672-233.44,462.059z"/>
						<path fill="#9FCFFF" d="M-239.939,472.789c0.639,0.314,1.401,0.047,1.717-0.592c0.313-0.639,0.047-1.4-0.59-1.715
							c-0.639-0.314-1.41-0.041-1.716,0.59C-240.835,471.719-240.562,472.488-239.939,472.789z"/>
						<path fill="#9FCFFF" d="M-32.289,670.416c0.55-1.131,0.073-2.496-1.059-3.047c-1.138-0.555-2.506-0.08-3.053,1.053"/>
						<path fill="#9FCFFF" d="M301.208,558.635c0.834,0.414,1.863,0.064,2.273-0.785c0.414-0.85,0.059-1.869-0.791-2.281
							s-1.863-0.064-2.277,0.783C300.002,557.199,300.352,558.229,301.208,558.635z"/>
						<path fill="#9FCFFF" d="M361.875,554.691c0.861,0.408,1.902,0.055,2.318-0.803c0.412-0.861,0.063-1.893-0.807-2.309
							c-0.857-0.42-1.885-0.057-2.305,0.799C360.667,553.234,361.028,554.266,361.875,554.691z"/>
						<path fill="#9FCFFF" d="M177.862,576.027c1.053,0.518,2.319,0.072,2.836-0.979c0.512-1.059,0.066-2.326-0.986-2.846
							c-1.051-0.516-2.318-0.072-2.836,0.98C176.366,574.242,176.803,575.516,177.862,576.027z"/>
						<path fill="#9FCFFF" d="M246.12,568.355c0.959,0.471,2.092,0.068,2.557-0.883c0.457-0.941,0.068-2.09-0.881-2.557
							c-0.941-0.457-2.086-0.064-2.555,0.895C244.782,566.756,245.176,567.896,246.12,568.355z"/>
						<path fill="#9FCFFF" d="M-46.471,658.508c0.972,0.469,2.118,0.066,2.584-0.898c0.47-0.957,0.066-2.119-0.892-2.588
							c-0.964-0.467-2.118-0.068-2.584,0.895C-47.84,656.881-47.429,658.035-46.471,658.508"/>
						<path fill="#9FCFFF" d="M169.018,631.607c0.63,0.309,1.386,0.049,1.693-0.582c0.31-0.631,0.041-1.395-0.59-1.703
							s-1.388-0.047-1.703,0.592C168.12,630.537,168.387,631.301,169.018,631.607z"/>
						<path fill="#9FCFFF" d="M167.769,625.387c0.696,0.34,1.544,0.057,1.877-0.646c0.349-0.703,0.062-1.551-0.642-1.883
							c-0.703-0.348-1.557-0.057-1.889,0.645C166.775,624.199,167.058,625.049,167.769,625.387z"/>
						<path fill="#9FCFFF" d="M-91.077,396.068c1.066,0.516,2.348,0.07,2.858-0.988c0.516-1.064,0.079-2.34-0.987-2.855
							c-1.061-0.523-2.349-0.072-2.856,0.984C-92.573,394.27-92.135,395.543-91.077,396.068z"/>
						<path fill="#9FCFFF" d="M-167.08,501.105c1,0.484,2.212,0.07,2.703-0.938c0.498-1,0.07-2.227-0.93-2.711
							c-1.001-0.482-2.226-0.068-2.717,0.939C-168.508,499.396-168.095,500.609-167.08,501.105z"/>
						<path fill="#9FCFFF" d="M61.749,595.404c1.088,0.537,2.405,0.084,2.935-1.01c0.536-1.088,0.093-2.398-1.011-2.936
							c-1.094-0.529-2.412-0.076-2.94,1.02C60.202,593.574,60.647,594.883,61.749,595.404z"/>
						<path fill="#9FCFFF" d="M-27.761,560.887c0.72,0.348,1.58,0.047,1.934-0.664c0.347-0.715,0.047-1.592-0.67-1.938
							c-0.718-0.35-1.572-0.041-1.927,0.67C-28.785,559.674-28.479,560.543-27.761,560.887z"/>
						<path fill="#9FCFFF" d="M-35.608,568.932c1.147,0.564,2.512,0.086,3.067-1.053c0.564-1.145,0.08-2.518-1.059-3.072
							c-1.139-0.557-2.524-0.086-3.075,1.059C-37.222,567.01-36.752,568.383-35.608,568.932z"/>
						<path fill="#9FCFFF" d="M33.985,410.623c0.666,0.326,1.473,0.045,1.793-0.617c0.32-0.658,0.036-1.465-0.614-1.779
							c-0.668-0.324-1.474-0.057-1.787,0.609C33.056,409.51,33.324,410.301,33.985,410.623z"/>
						<path fill="#9FCFFF" d="M-120.43,416.438c0.973,0.482,2.155,0.072,2.626-0.912c0.478-0.965,0.065-2.148-0.906-2.619
							c-0.979-0.479-2.162-0.064-2.634,0.906C-121.822,414.793-121.417,415.969-120.43,416.438z"/>
						<path fill="#9FCFFF" d="M-155.731,484.033c0.818,0.398,1.799,0.061,2.191-0.754c0.392-0.813,0.052-1.791-0.759-2.184
							c-0.805-0.4-1.793-0.066-2.192,0.752C-156.885,482.66-156.543,483.641-155.731,484.033z"/>
						<path fill="#9FCFFF" d="M-0.39,633.307c0.819,0.398,1.8,0.061,2.206-0.754c0.386-0.816,0.046-1.799-0.768-2.203
							c-0.804-0.387-1.794-0.055-2.191,0.766C-1.535,631.928-1.203,632.914-0.39,633.307z"/>
						<path fill="#9FCFFF" d="M30.649,406.656c1.167,0.568,2.567,0.084,3.139-1.084c0.567-1.168,0.083-2.568-1.086-3.139
							c-1.166-0.568-2.573-0.076-3.135,1.084C28.99,404.682,29.475,406.092,30.649,406.656z"/>
						<path fill="#9FCFFF" d="M222.049,781.123c0.74,0.352,1.646,0.051,1.982-0.703c0.372-0.732,0.065-1.631-0.683-1.986
							c-0.731-0.361-1.628-0.055-1.995,0.688C220.997,779.867,221.31,780.758,222.049,781.123"/>
						<path fill="#9FCFFF" d="M-150.969,437.207c0.763,0.373,1.679,0.057,2.052-0.703c0.367-0.756,0.043-1.68-0.711-2.047
							c-0.754-0.365-1.679-0.057-2.052,0.707C-152.052,435.924-151.738,436.84-150.969,437.207z"/>
						<path fill="#9FCFFF" d="M-85.568,448.822c0.936,0.451,2.065,0.068,2.521-0.875c0.459-0.939,0.063-2.07-0.872-2.52
							c-0.943-0.457-2.063-0.068-2.527,0.865C-86.905,447.236-86.509,448.363-85.568,448.822z"/>
						<path fill="#9FCFFF" d="M-116.983,455.609c0.697,0.342,1.552,0.049,1.897-0.641c0.333-0.717,0.042-1.559-0.662-1.906
							c-0.702-0.33-1.55-0.047-1.89,0.662C-117.985,454.416-117.694,455.271-116.983,455.609z"/>
						<path fill="#9FCFFF" d="M574.984,682.072c0.666,0.33,1.473,0.047,1.791-0.613c0.34-0.676,0.051-1.48-0.615-1.807
							c-0.668-0.328-1.48-0.055-1.791,0.629C574.027,680.949,574.309,681.754,574.984,682.072z"/>
						<path opacity="0.29" fill="#9FCFFF" enable-background="new    " d="M176.448,382.938c0.985,0.469,2.18,0.063,2.646-0.924
							c0.479-0.979,0.072-2.168-0.912-2.639c-0.986-0.484-2.17-0.072-2.648,0.906C175.058,381.275,175.469,382.457,176.448,382.938z
							"/>
						<path fill="#9FCFFF" d="M-114.984,509.557c1.073,0.523,2.362,0.072,2.885-1.002c0.523-1.072,0.079-2.367-0.994-2.893
							c-1.08-0.516-2.368-0.066-2.886,1.002C-116.502,507.738-116.057,509.033-114.984,509.557z"/>
						<path fill="#9FCFFF" d="M19.185,687.076c1.045,0.496,2.326,0.066,2.836-0.992c0.526-1.059,0.082-2.328-0.979-2.852
							c-1.06-0.51-2.334-0.07-2.844,0.986C17.69,685.279,18.126,686.553,19.185,687.076"/>
						<path fill="#9FCFFF" d="M-69.138,649.447c0.51-1.059,0.071-2.332-0.985-2.842c-1.061-0.525-2.344-0.08-2.844,0.984"/>
						<path fill="#9FCFFF" d="M10.322,684.926c0.354-0.725,0.053-1.586-0.671-1.938c-0.712-0.354-1.587-0.057-1.933,0.664"/>
						<path fill="#9FCFFF" d="M-54.167,648.84c0.631,0.309,1.395,0.041,1.703-0.59c0.306-0.631,0.046-1.4-0.591-1.703
							c-0.639-0.313-1.401-0.045-1.71,0.586C-55.072,647.764-54.812,648.533-54.167,648.84"/>
						<path fill="#9FCFFF" d="M-110.465,609.143c0.761,0.373,1.686,0.051,2.052-0.719c0.373-0.76,0.057-1.678-0.713-2.059
							c-0.761-0.373-1.685-0.049-2.057,0.713C-111.557,607.854-111.243,608.771-110.465,609.143z"/>
						<path fill="#9FCFFF" d="M50.579,696.834c0.616,0.295,1.346,0.039,1.639-0.564c0.302-0.607,0.043-1.336-0.565-1.639
							c-0.603-0.293-1.338-0.043-1.64,0.566C49.726,695.809,49.976,696.541,50.579,696.834"/>
						<path fill="#9FCFFF" d="M-102.515,631.33c0.438-0.893,0.059-1.979-0.833-2.414c-0.898-0.432-1.978-0.061-2.416,0.832"/>
						<path fill="#9FCFFF" d="M-80.165,638.479c0.519-1.051,0.076-2.318-0.977-2.838c-1.053-0.502-2.326-0.063-2.837,0.994"/>
						<path fill="#9FCFFF" d="M-74.58,642.209c0.419-0.871,0.056-1.912-0.807-2.324c-0.864-0.426-1.908-0.063-2.324,0.807"/>
						<path fill="#9FCFFF" d="M-34.343,617.402c0.82,0.398,1.809,0.053,2.207-0.768c0.396-0.818,0.06-1.799-0.761-2.199
							c-0.819-0.398-1.807-0.066-2.206,0.756C-35.501,616.01-35.163,617.002-34.343,617.402z"/>
						<path fill="#9FCFFF" d="M-137.01,530.486c0.915,0.461,1.999,0.064,2.445-0.834c0.444-0.914,0.058-2.008-0.844-2.451
							c-0.905-0.439-2.006-0.059-2.444,0.848C-138.289,528.955-137.917,530.049-137.01,530.486z"/>
						<path fill="#9FCFFF" d="M7.614,648.316c0.682,0.326,1.509,0.037,1.833-0.646c0.335-0.688,0.053-1.508-0.629-1.848
							c-0.69-0.334-1.517-0.043-1.842,0.637C6.641,647.148,6.924,647.969,7.614,648.316z"/>
						<path fill="#9FCFFF" d="M152.375,676.596c0.66,0.322,1.459,0.045,1.777-0.613c0.321-0.66,0.055-1.453-0.613-1.768
							c-0.652-0.328-1.443-0.043-1.771,0.609C151.448,675.484,151.723,676.281,152.375,676.596z"/>
						<path fill="#9FCFFF" d="M-46.897,621.254c0.841,0.406,1.87,0.057,2.282-0.791c0.418-0.857,0.063-1.879-0.793-2.299
							c-0.849-0.41-1.87-0.055-2.282,0.793C-48.108,619.814-47.752,620.836-46.897,621.254z"/>
						<path fill="#9FCFFF" d="M-83.473,639.377c0.505-1.037,0.077-2.277-0.96-2.779c-1.039-0.504-2.278-0.074-2.781,0.963"/>
						<path fill="#9FCFFF" d="M-21.019,658.441c0.712,0.354,1.579,0.047,1.927-0.674c0.352-0.709,0.046-1.574-0.671-1.924
							c-0.71-0.34-1.578-0.047-1.926,0.67C-22.028,657.24-21.736,658.096-21.019,658.441z"/>
						<path fill="#9FCFFF" d="M-50.097,536.326c0.886,0.43,1.964,0.059,2.389-0.832c0.438-0.895,0.065-1.957-0.825-2.396
							c-0.885-0.432-1.964-0.061-2.389,0.832C-51.353,534.814-50.99,535.889-50.097,536.326z"/>
						<path fill="#9FCFFF" d="M-65.799,649.998c1.154,0.551,2.533,0.076,3.098-1.07c0.556-1.15,0.085-2.537-1.068-3.094
							c-1.153-0.572-2.54-0.084-3.096,1.066C-67.427,648.047-66.951,649.441-65.799,649.998"/>
						<path fill="#9FCFFF" d="M-57.344,623.17c1,0.498,2.19,0.078,2.674-0.922c0.491-0.994,0.071-2.184-0.923-2.676
							c-0.999-0.484-2.19-0.063-2.675,0.924C-58.745,621.504-58.339,622.693-57.344,623.17z"/>
						<path fill="#9FCFFF" d="M-93.812,611.721c1.024,0.502,2.277,0.074,2.774-0.957c0.497-1.027,0.069-2.268-0.961-2.779
							c-1.031-0.496-2.271-0.066-2.773,0.969C-95.278,609.977-94.839,611.223-93.812,611.721z"/>
						<path fill="#9FCFFF" d="M1.268,674.691c0.963,0.463,2.119,0.068,2.59-0.891c0.464-0.965,0.068-2.119-0.89-2.59
							c-0.964-0.465-2.12-0.07-2.584,0.896C-0.087,673.064,0.309,674.221,1.268,674.691"/>
						<path fill="#9FCFFF" d="M-34.884,635.643c1.11,0.541,2.448,0.082,2.99-1.029c0.543-1.107,0.083-2.445-1.035-2.996
							c-1.116-0.533-2.452-0.072-2.989,1.041C-36.46,633.768-35.993,635.098-34.884,635.643z"/>
						<path fill="#9FCFFF" d="M34.712,701.012c0.439-0.863,0.067-1.928-0.81-2.354c-0.886-0.432-1.937-0.061-2.369,0.811"/>
						<path fill="#9FCFFF" d="M-96.672,587.869c0.871,0.42,1.904,0.063,2.324-0.807c0.426-0.865,0.068-1.916-0.8-2.334
							c-0.871-0.436-1.9-0.057-2.334,0.803C-97.9,586.4-97.536,587.445-96.672,587.869z"/>
						<path fill="#9FCFFF" d="M-135.929,609.961c0.726,0.355,1.586,0.057,1.934-0.664c0.346-0.717,0.053-1.586-0.664-1.93
							c-0.719-0.348-1.572-0.043-1.934,0.664C-136.94,608.746-136.648,609.617-135.929,609.961"/>
						<path fill="#9FCFFF" d="M-168.547,594.18c0.289-0.596,0.044-1.309-0.557-1.604c-0.595-0.287-1.294-0.029-1.59,0.559"/>
						<path fill="#9FCFFF" d="M-153.151,398.082c0.819,0.398,1.815,0.059,2.221-0.768c0.406-0.828,0.052-1.82-0.767-2.221
							c-0.828-0.406-1.829-0.061-2.219,0.768C-154.323,396.689-153.982,397.684-153.151,398.082z"/>
						<path fill="#9FCFFF" d="M-215.201,491.076c1.045,0.508,2.291,0.074,2.802-0.971c0.503-1.037,0.074-2.293-0.97-2.803
							c-1.038-0.502-2.291-0.072-2.802,0.971C-216.674,489.313-216.23,490.578-215.201,491.076z"/>
						<path fill="#9FCFFF" d="M-5.82,622.791c0.8,0.395,1.772,0.061,2.159-0.742c0.399-0.807,0.061-1.771-0.746-2.172
							c-0.805-0.385-1.771-0.047-2.163,0.752C-6.962,621.441-6.624,622.408-5.82,622.791z"/>
						<path fill="#9FCFFF" d="M5.642,505.252c0.992,0.477,2.19,0.063,2.675-0.924c0.484-1.002,0.064-2.191-0.921-2.676
							c-0.995-0.477-2.186-0.072-2.669,0.93C4.243,503.566,4.655,504.768,5.642,505.252z"/>
						<path fill="#9FCFFF" d="M60.502,637.857c1.115,0.535,2.453,0.074,2.996-1.035s0.074-2.453-1.041-2.99
							c-1.104-0.535-2.44-0.076-2.984,1.033C58.938,635.982,59.392,637.314,60.502,637.857z"/>
						<path fill="#9FCFFF" d="M-161.332,526.563c0.754,0.365,1.659,0.053,2.024-0.703c0.36-0.746,0.053-1.658-0.696-2.018
							c-0.752-0.365-1.657-0.051-2.022,0.703C-162.399,525.293-162.084,526.195-161.332,526.563z"/>
						<path fill="#9FCFFF" d="M30.52,536.049c0.719,0.348,1.572,0.041,1.926-0.67c0.347-0.719,0.048-1.58-0.663-1.92
							c-0.718-0.361-1.58-0.061-1.925,0.656C29.508,534.834,29.803,535.703,30.52,536.049z"/>
						<path fill="#9FCFFF" d="M-210.653,523.592c1.044,0.514,2.282,0.07,2.779-0.961c0.511-1.029,0.075-2.275-0.963-2.779
							c-1.028-0.496-2.268-0.066-2.772,0.971C-212.113,521.844-211.684,523.096-210.653,523.592z"/>
						<path opacity="0.29" fill="#9FCFFF" enable-background="new    " d="M181.079,359.822c0.738,0.367,1.635,0.057,1.996-0.688
							c0.352-0.74,0.045-1.623-0.697-1.988c-0.73-0.361-1.633-0.045-1.986,0.691C180.032,358.574,180.344,359.461,181.079,359.822z"
							/>
						<path fill="#9FCFFF" d="M68.325,681.719c0.637,0.314,1.408,0.041,1.715-0.604c0.321-0.646,0.047-1.416-0.601-1.738
							c-0.638-0.313-1.414-0.047-1.728,0.607C67.396,680.623,67.665,681.398,68.325,681.719z"/>
						<path fill="#9FCFFF" d="M273.26,665.273c0.654,0.326,1.443,0.047,1.76-0.607c0.313-0.652,0.045-1.443-0.607-1.756
							c-0.66-0.322-1.445-0.047-1.758,0.604C272.327,664.17,272.602,664.967,273.26,665.273z"/>
						<path fill="#9FCFFF" d="M165.129,752.541c0.813,0.391,1.779,0.055,2.18-0.754c0.385-0.803,0.052-1.777-0.751-2.162
							c-0.806-0.4-1.779-0.068-2.165,0.752C163.995,751.184,164.333,752.146,165.129,752.541"/>
						<path fill="#9FCFFF" d="M191.849,771.967c0.674,0.334,1.479,0.053,1.813-0.625c0.325-0.68,0.057-1.484-0.631-1.818
							c-0.668-0.326-1.48-0.035-1.822,0.629C190.891,770.828,191.174,771.646,191.849,771.967"/>
						<path fill="#9FCFFF" d="M187.258,731.621c0.951,0.463,2.104,0.066,2.57-0.881c0.463-0.967,0.067-2.107-0.891-2.578
							c-0.958-0.459-2.1-0.064-2.563,0.887C185.903,730.008,186.308,731.156,187.258,731.621z"/>
						<path fill="#9FCFFF" d="M353.862,770.834c0.697,0.34,1.518,0.057,1.855-0.625c0.334-0.689,0.053-1.51-0.645-1.85
							c-0.674-0.332-1.514-0.041-1.842,0.639C352.897,769.689,353.188,770.514,353.862,770.834z"/>
						<path fill="#9FCFFF" d="M213.372,768.492c1.01,0.49,2.228,0.068,2.711-0.945c0.498-1.002,0.076-2.221-0.932-2.711
							c-1.008-0.492-2.219-0.063-2.709,0.945S212.364,768,213.372,768.492z"/>
						<path fill="#9FCFFF" d="M98.178,732.066c0.433-0.896,0.053-1.982-0.85-2.43c-0.891-0.424-1.969-0.053-2.406,0.84"/>
						<path fill="#9FCFFF" d="M238.2,696.477c0.668,0.313,1.459,0.047,1.78-0.613s0.044-1.457-0.614-1.779
							c-0.66-0.322-1.453-0.053-1.771,0.605C237.274,695.35,237.547,696.148,238.2,696.477z"/>
						<path fill="#9FCFFF" d="M335.168,751c0.834,0.398,1.844,0.059,2.254-0.791c0.406-0.828,0.061-1.842-0.773-2.24
							c-0.842-0.42-1.852-0.064-2.264,0.771C333.989,749.588,334.334,750.588,335.168,751z"/>
						<path fill="#9FCFFF" d="M283.522,737.85c0.697,0.342,1.521,0.035,1.85-0.645c0.34-0.697,0.049-1.523-0.633-1.863
							c-0.682-0.328-1.521-0.037-1.848,0.646C282.549,736.682,282.833,737.502,283.522,737.85z"/>
						<path fill="#9FCFFF" d="M353.385,764.176c0.76,0.373,1.686,0.049,2.064-0.719c0.373-0.777,0.049-1.701-0.719-2.066
							c-0.764-0.375-1.693-0.055-2.061,0.713C352.293,762.871,352.616,763.797,353.385,764.176z"/>
						<path fill="#9FCFFF" d="M-43.856,438.15c0.892,0.422,1.969,0.051,2.401-0.832c0.431-0.9,0.067-1.973-0.833-2.402
							c-0.893-0.439-1.963-0.063-2.396,0.824C-45.127,436.639-44.756,437.719-43.856,438.15z"/>
						<path opacity="0.29" fill="#9FCFFF" enable-background="new    " d="M185.525,382.008c0.675,0.32,1.479,0.053,1.806-0.631
							c0.32-0.658,0.039-1.465-0.623-1.799c-0.672-0.32-1.472-0.045-1.805,0.629C184.583,380.867,184.858,381.682,185.525,382.008z"
							/>
						<path fill="#9FCFFF" d="M304.278,809.027c0.709,0.354,1.572,0.055,1.918-0.664c0.354-0.711,0.063-1.58-0.656-1.928
							c-0.711-0.34-1.58-0.049-1.932,0.664C303.26,807.816,303.559,808.68,304.278,809.027z"/>
						<path opacity="0.29" fill="#9FCFFF" enable-background="new    " d="M82.836,406.256c0.754,0.367,1.664,0.061,2.037-0.688
							c0.359-0.762,0.051-1.672-0.711-2.043c-0.746-0.359-1.658-0.055-2.016,0.709C81.776,404.98,82.09,405.898,82.836,406.256z"/>
						<path opacity="0.29" fill="#9FCFFF" enable-background="new    " d="M132.327,410.498c1.104,0.535,2.428,0.076,2.969-1.033
							c0.537-1.104,0.084-2.436-1.024-2.965c-1.103-0.535-2.433-0.08-2.978,1.029C130.764,408.621,131.224,409.961,132.327,410.498z
							"/>
						<path opacity="0.29" fill="#9FCFFF" enable-background="new    " d="M134.86,396.816c0.645,0.318,1.422,0.051,1.734-0.602
							c0.32-0.645,0.048-1.416-0.592-1.73c-0.639-0.313-1.424-0.053-1.742,0.594C133.954,395.736,134.219,396.5,134.86,396.816z"/>
						<path fill="#9FCFFF" d="M-159.322,375.385c1.131,0.549,2.489,0.08,3.031-1.043c0.542-1.125,0.073-2.48-1.051-3.025
							c-1.117-0.549-2.476-0.078-3.018,1.045C-160.909,373.492-160.446,374.844-159.322,375.385z"/>
						<circle fill="#9FCFFF" cx="-4.156" cy="660.917" r="2.144"/>
						<path fill="#9FCFFF" d="M64.823,571.666c0.659,0.322,1.444,0.049,1.766-0.611c0.308-0.646,0.039-1.438-0.606-1.76
							c-0.659-0.305-1.437-0.039-1.765,0.615C63.902,570.563,64.176,571.348,64.823,571.666z"/>
						<path fill="#9FCFFF" d="M171.564,704.328c0.978,0.465,2.168,0.061,2.647-0.918c0.482-0.986,0.07-2.17-0.918-2.654
							c-0.971-0.473-2.168-0.074-2.646,0.92C170.165,702.662,170.577,703.846,171.564,704.328z"/>
						<path fill="#9FCFFF" d="M190.547,691.662c0.609,0.301,1.347,0.049,1.639-0.566c0.295-0.6,0.045-1.338-0.566-1.639
							c-0.615-0.293-1.343-0.037-1.638,0.566C189.687,690.639,189.94,691.375,190.547,691.662z"/>
						<path opacity="0.29" fill="#9FCFFF" enable-background="new    " d="M293.981,326.762c0.799,0.379,1.75,0.055,2.143-0.744
							c0.387-0.791,0.057-1.748-0.732-2.135c-0.809-0.385-1.754-0.055-2.139,0.734C292.86,325.416,293.192,326.373,293.981,326.762z
							"/>
						<path fill="#9FCFFF" d="M118.152,483.459c0.964,0.463,2.127,0.061,2.599-0.896c0.465-0.963,0.065-2.135-0.903-2.592
							c-0.959-0.473-2.113-0.061-2.585,0.896C116.792,481.824,117.193,482.986,118.152,483.459z"/>
						<circle fill="#9FCFFF" cx="54.646" cy="500.615" r="1.402"/>
						<path opacity="0.29" fill="#9FCFFF" enable-background="new    " d="M148.649,474.57c0.727,0.354,1.6,0.055,1.953-0.672
							c0.346-0.73,0.046-1.607-0.68-1.959c-0.725-0.355-1.602-0.039-1.945,0.68C147.616,473.35,147.922,474.219,148.649,474.57z"/>
						<path fill="#9FCFFF" d="M60.043,491.396c1.102,0.535,2.432,0.082,2.969-1.035c0.529-1.096,0.068-2.418-1.027-2.961
							c-1.109-0.529-2.425-0.078-2.969,1.033C58.486,489.527,58.94,490.857,60.043,491.396z"/>
						<path fill="#9FCFFF" d="M74.807,483.969c0.762,0.373,1.679,0.045,2.064-0.719c0.373-0.762,0.051-1.686-0.726-2.059
							c-0.763-0.373-1.687-0.051-2.06,0.713C73.715,482.666,74.038,483.59,74.807,483.969z"/>
						<path opacity="0.29" fill="#9FCFFF" enable-background="new    " d="M116.667,479.748c0.879,0.426,1.937,0.061,2.369-0.822
							c0.424-0.877,0.061-1.936-0.818-2.361c-0.877-0.426-1.934-0.063-2.366,0.824C115.433,478.26,115.792,479.322,116.667,479.748z
							"/>
						<path fill="#9FCFFF" d="M463.59,526.383c0.814,0.393,1.809,0.053,2.193-0.77c0.396-0.818,0.059-1.799-0.762-2.197
							c-0.818-0.398-1.803-0.061-2.191,0.768C462.43,524.988,462.762,525.979,463.59,526.383z"/>
						<path fill="#9FCFFF" d="M279.954,713.756c1.154,0.572,2.564,0.094,3.133-1.072c0.568-1.168,0.084-2.57-1.092-3.131
							c-1.16-0.578-2.563-0.092-3.129,1.076C278.295,711.795,278.782,713.197,279.954,713.756z"/>
						<path fill="#9FCFFF" d="M282.932,707.141c0.973,0.486,2.141,0.072,2.609-0.898c0.465-0.963,0.068-2.133-0.904-2.604
							c-0.965-0.479-2.133-0.068-2.611,0.898C281.561,705.5,281.965,706.676,282.932,707.141z"/>
						<path fill="#9FCFFF" d="M280.958,700.744c0.797,0.379,1.758,0.047,2.15-0.752c0.387-0.791,0.045-1.756-0.744-2.156
							c-0.799-0.379-1.762-0.041-2.143,0.756C279.821,699.387,280.153,700.344,280.958,700.744z"/>
						<path fill="#9FCFFF" d="M280.862,693.893c0.805,0.385,1.777,0.053,2.172-0.76c0.406-0.799,0.053-1.777-0.752-2.164
							c-0.813-0.393-1.777-0.053-2.172,0.746C279.725,692.518,280.049,693.5,280.862,693.893z"/>
						<path fill="#9FCFFF" d="M164.202,691.957c0.59,0.293,1.297,0.045,1.592-0.543c0.287-0.594,0.037-1.301-0.557-1.588
							c-0.582-0.289-1.297-0.047-1.583,0.547C163.374,690.961,163.616,691.676,164.202,691.957z"/>
						<path opacity="0.29" fill="#9FCFFF" enable-background="new    " d="M251.012,437.398c0.889,0.432,1.945,0.066,2.375-0.818
							c0.432-0.885,0.066-1.957-0.816-2.389c-0.885-0.432-1.963-0.061-2.389,0.834C249.75,435.908,250.122,436.973,251.012,437.398z
							"/>
						<path opacity="0.29" fill="#9FCFFF" enable-background="new    " d="M247.057,440.129c0.676,0.334,1.502,0.043,1.842-0.639
							c0.328-0.684,0.051-1.494-0.639-1.842c-0.682-0.326-1.508-0.051-1.84,0.637C246.084,438.975,246.375,439.787,247.057,440.129z
							"/>
						<path opacity="0.29" fill="#9FCFFF" enable-background="new    " d="M257.874,465.223c1.172,0.563,2.566,0.084,3.131-1.074
							c0.568-1.168,0.082-2.568-1.086-3.125c-1.15-0.568-2.553-0.084-3.111,1.092C256.241,463.258,256.717,464.652,257.874,465.223z
							"/>
						<path opacity="0.29" fill="#9FCFFF" enable-background="new    " d="M255.752,448.928c0.617,0.311,1.359,0.051,1.668-0.566
							c0.301-0.623,0.041-1.379-0.584-1.68c-0.623-0.303-1.363-0.043-1.672,0.574C254.866,447.879,255.129,448.627,255.752,448.928z
							"/>
						<path fill="#9FCFFF" d="M-14.58,314.623c0.79,0.387,1.742,0.063,2.128-0.727c0.386-0.795,0.055-1.754-0.735-2.139
							c-0.791-0.385-1.735-0.055-2.12,0.736C-15.697,313.285-15.372,314.24-14.58,314.623z"/>
						<path fill="#9FCFFF" d="M-12.507,296.662c0.683,0.324,1.495,0.051,1.823-0.631c0.325-0.666,0.041-1.486-0.631-1.82
							c-0.676-0.318-1.495-0.039-1.813,0.637C-13.457,295.518-13.18,296.342-12.507,296.662z"/>
					</g>
				</g>
			</g>
		</g>
	</g>
</g>
</svg>
