<?xml version="1.0" encoding="utf-8"?>
<!-- Generator: Adobe Illustrator 16.0.0, SVG Export Plug-In . SVG Version: 6.00 Build 0)  -->
<!DOCTYPE svg PUBLIC "-//W3C//DTD SVG 1.1//EN" "http://www.w3.org/Graphics/SVG/1.1/DTD/svg11.dtd">
<svg version="1.1" id="_x2018_ëîé_x5F_1" xmlns="http://www.w3.org/2000/svg" xmlns:xlink="http://www.w3.org/1999/xlink"
	 x="0px" y="0px" width="500px" height="200px" viewBox="0 0 500 200" enable-background="new 0 0 500 200" xml:space="preserve">
<rect x="90" fill="#FFFFFF" width="320" height="200"/>
<g>
	<path opacity="0.5" fill="#DCEAFF" enable-background="new    " d="M388.543,172.064L388.543,172.064
		c-0.023,0.041-0.046,0.08-0.068,0.121c-0.162,0.289-0.33,0.584-0.5,0.879l-261.778-0.078c0,0-0.255-0.285-0.711-0.828
		c-0.026-0.031-0.052-0.063-0.079-0.096c-1.169-1.404-3.522-4.357-6.278-8.523c0,0-0.001-0.002-0.002-0.004
		c-7.31-11.057-17.439-30.637-15.735-52.369c0.481-6.135,1.904-12.44,4.6-18.774c8.177-19.211,32.573-32.161,54.55-32.421
		c8.506-0.102,16.652,1.699,23.353,5.774c1.188,0.722,2.683,1.28,4.421,1.659c1.464,0.322,3.103,0.517,4.88,0.579
		c14.273,0.502,37.487-7.541,51.255-27.777c7.312-10.746,18.535-17.781,31.436-21.445c0.601-0.17,1.206-0.334,1.814-0.489
		c2.935-0.752,5.947-1.336,9.015-1.754c0.553-0.075,1.107-0.145,1.663-0.208c13.613-1.58,28.193,0.055,41.567,4.571
		c1.761,0.594,3.502,1.24,5.217,1.935c25.167,10.191,44.746,31.003,43.025,60.062c-0.068,1.149-0.169,2.312-0.307,3.486
		c-0.256,2.238-0.641,4.522-1.154,6.852c-0.303,1.373-0.65,2.762-1.047,4.166C367.309,134.215,408.776,135.879,388.543,172.064z"/>
	<g>
		<path fill="#DFEBFA" d="M388.291,172.785L388.291,172.785l-203.761,0.021l1.757-60.896V95.365h7.621V82.443h15.204v10.968h4.643
			V73.126h1.01v-1.418h0.181v1.418h3.667v-1.418h0.182v1.418h5.191v-1.418h0.183v1.418h3.268v-1.418h0.18v1.418h1.342v18.936h5.132
			v-3.063l6.053,0.027v-4.963h1.217v-0.981h0.162v0.981h4.674v0.002h0.935v-0.983h0.161v0.983h1.127v9.868h7.204v3.632h4.006v-2.109
			h3.715v-8.373h1.854v-3.906h0.279v3.906h4.439v-7.321h0.436v7.321h2.938v-0.102h-0.004v-0.929h0.004v-0.879h-0.004V83.71h0.004
			v-0.934h-0.004v-1.463h0.004v-0.934h-0.004v-1.463h0.004v-1.01h-0.004v-1.462h0.004v-1.286h-0.004v-1.463h0.004v-0.97h0.875V71.63
			h0.141v1.095h6.483V71.63h0.14v1.095h1.184v7.654l0.832,0.004v-0.004h-0.007v-1.463h0.007v-1.01h-0.007v-1.462h0.007v-1.006
			h-0.007v-1.463h0.007v-0.004h7.862v0.004h1.352c0.069,0.039,0.14,0.078,0.21,0.117v9.76h1.447v-1.407h16.595v10.968h5.067V73.126
			h1.102v-1.418h0.199v1.418h4.001v-1.418h0.198v1.418h5.668v-1.418h0.197v1.418h3.566v-1.418h0.197v1.418h1.467v18.936h5.6v-3.063
			l6.605,0.027v-4.962h1.33v-0.982h0.176v0.982h5.1v0.001h1.021v-0.983h0.176v0.983h1.229v9.87h7.864v3.631h4.372v-2.108h4.055
			v-8.374h2.021v-3.905h0.306v3.905h4.846v-7.32h0.476v7.32h2.382c-0.256,2.238-0.641,4.522-1.154,6.852
			c-0.303,1.373-0.65,2.762-1.047,4.165C367.057,134.937,408.524,136.6,388.291,172.785z"/>
	</g>
	<path fill="#AFCDFB" d="M336.911,23.535v149.248h-5.217V21.601C333.457,22.195,335.197,22.84,336.911,23.535z"/>
	<path fill="#CEE1FD" d="M190.064,68.125v104.753h-64.831c-0.026-0.031-0.052-0.063-0.079-0.096
		c-1.169-1.403-3.522-4.357-6.278-8.523c0-0.001-0.001-0.002-0.002-0.004c-7.31-11.057-17.439-30.637-15.735-52.368
		c0.481-6.134,1.904-12.44,4.6-18.774c8.177-19.211,32.573-32.161,54.55-32.421c8.427,0.093,16.459,1.912,23.129,5.774
		C186.668,67.188,188.238,67.747,190.064,68.125z"/>
	<g>
		<path fill="#9FC1F4" d="M290.127,17.03v18.38c0,1.433-0.35,2.602-0.775,2.602h-0.111c-0.427,0-0.775-1.169-0.775-2.602V17.238
			C289.018,17.164,289.572,17.093,290.127,17.03z"/>
		<path fill="#FF9843" d="M288.863,33.59c-6.059,0-10.969,5.192-10.969,11.598h21.937C299.831,38.783,294.92,33.59,288.863,33.59z"
			/>
		<path fill="#FFC48A" d="M289.736,33.731c-0.314-0.068-0.637-0.104-0.963-0.104c-3.947,0-7.146,5.176-7.146,11.561h1.927
			C283.554,39.332,286.246,34.493,289.736,33.731z"/>
	</g>
	<g>
		<g>
			<path fill="#77A4E5" d="M361.096,155.678c0,0-2.919-3.405-0.18-5.568c0,0,2-1.211,3.632-1.113c0,0-2.312,3.877-1.563,4.262
				c0.747,0.386,2.264-4.504,2.264-4.504s4.553-0.442,6.018,0.262c0,0-3.893,3.186-3.072,3.375c0.819,0.189,5.023-2.937,5.023-2.937
				s4.237,0.722,4.012,3.306c-0.227,2.585-1.687,3.383-2.328,3.314s-4.396-1.502-4.477-0.976c-0.082,0.525,2.178,2.244,3.76,2.324
				c0,0-2.988,3.295-4.973,2.344c-1.986-0.95-2.155-2.458-3.393-3.022c-1.238-0.566-2.295-0.564-1.783,0.012
				c0.511,0.576,2.75,1.137,3.458,2.389s1.343,2.097-0.711,1.787c-2.054-0.309-5.394-1.812-5.54-3.533
				C361.096,155.678,361.096,155.678,361.096,155.678z"/>
			<g>
				<path fill="#77A4E5" d="M375.146,152.83c0,0-11.51-0.443-14.051,2.848c0,0-0.563,1.684-2.291,3.217l-0.27,0.734
					c0,0,1.994-2.103,2.707-2.23C361.242,157.398,360.127,153.321,375.146,152.83z"/>
				<path fill="#77A4E5" d="M358.805,158.895c0,0-2.471,1.826-2.643,5.091l0.448,0.04c0,0,0.789-3.375,2.215-4.695
					C360.252,158.01,358.805,158.895,358.805,158.895z"/>
			</g>
		</g>
		<g>
			<path fill="#77A4E5" d="M350.891,151.395c0,0,4.643-2.6,2.477-6.129c0,0-1.734-2.166-3.592-2.724c0,0,0.991,5.263,0,5.386
				c-0.99,0.124-0.681-5.943-0.681-5.943s-4.891-2.352-6.81-2.166c0,0,3.033,5.139,2.043,5.014c-0.99-0.123-4.396-5.323-4.396-5.323
				s-5.015-0.929-5.819,2.043s0.495,4.457,1.238,4.644c0.742,0.186,5.51,0.123,5.386,0.742s-3.343,1.609-5.139,1.053
				c0,0,1.981,4.891,4.581,4.643c2.601-0.247,3.405-1.856,5.016-1.98c1.609-0.124,2.785,0.31,1.98,0.742
				c-0.805,0.434-3.529,0.143-4.829,1.248s-2.353,1.786,0.062,2.281c2.415,0.495,6.748,0.186,7.615-1.672
				S350.891,151.395,350.891,151.395z"/>
			<g>
				<path fill="#77A4E5" d="M336.404,142.48c0,0,13,4.209,14.486,8.914c0,0-0.063,2.105,1.238,4.52v0.93
					c0,0-1.362-3.158-2.105-3.592C350.023,153.252,352.934,149.166,336.404,142.48z"/>
				<path fill="#77A4E5" d="M352.129,155.914c0,0,2.005,3.045,0.861,6.752l-0.516-0.139c0,0,0.501-4.082-0.549-6.136
					C350.877,154.338,352.129,155.914,352.129,155.914z"/>
			</g>
		</g>
		<g>
			<path fill="#9FC1F4" d="M358.277,147.809c0,0-6.121-3.427-3.265-8.078c0,0,2.285-2.857,4.733-3.592c0,0-1.306,6.938,0,7.101
				s0.898-7.835,0.898-7.835s6.446-3.101,8.977-2.855c0,0-3.999,6.773-2.693,6.609c1.306-0.162,5.794-7.018,5.794-7.018
				s6.61-1.225,7.671,2.693c1.061,3.917-0.652,5.875-1.632,6.12s-7.263,0.163-7.1,0.979s4.407,2.121,6.773,1.387
				c0,0-2.612,6.447-6.039,6.121c-3.428-0.326-4.489-2.448-6.61-2.611c-2.122-0.163-3.672,0.408-2.611,0.979
				c1.061,0.572,4.651,0.188,6.365,1.645s3.102,2.355-0.082,3.008c-3.182,0.652-8.895,0.244-10.037-2.203
				C358.277,147.809,358.277,147.809,358.277,147.809z"/>
			<g>
				<path fill="#9FC1F4" d="M377.373,136.058c0,0-17.137,5.55-19.096,11.751c0,0,0.082,2.775-1.633,5.958v1.224
					c0,0,1.796-4.162,2.775-4.732C359.42,150.258,355.584,144.871,377.373,136.058z"/>
				<path fill="#9FC1F4" d="M356.645,153.767c0,0-2.643,4.013-1.136,8.898l0.681-0.183c0,0-0.66-5.381,0.723-8.087
					S356.645,153.767,356.645,153.767z"/>
			</g>
		</g>
		<path fill="#9FC1F4" d="M358.071,173.26c6.621,0,11.989-5.368,11.989-11.989h-23.979
			C346.082,167.892,351.449,173.26,358.071,173.26z"/>
		<path fill="#AFCDFB" d="M361.021,173.168c-0.488,0.061-0.985,0.092-1.49,0.092c-6.621,0-11.988-5.368-11.988-11.99h2.979
			C350.521,167.388,355.103,172.435,361.021,173.168z"/>
		<rect x="345.688" y="161.27" fill="#9FC1F4" width="24.646" height="0.369"/>
	</g>
	<g>
		<g>
			<path fill="#77A4E5" d="M302.256,172.67l-11.781-48.897l0.823-1.925l11.671,50.816c0.031,0.131-0.068,0.255-0.202,0.255h-0.194
				C302.422,172.919,302.291,172.816,302.256,172.67z"/>
		</g>
		<g>
			<g>
				<path fill="#77A4E5" d="M249.087,172.919L249.087,172.919c-0.242,0-0.426-0.217-0.387-0.456l3.47-21.032h1.486l-4.138,21.133
					C249.479,172.77,249.297,172.919,249.087,172.919z"/>
			</g>
			<g>
				<path fill="#77A4E5" d="M282.373,172.919L282.373,172.919c-0.242,0-0.426-0.217-0.387-0.456l3.47-21.032h1.487l-4.139,21.133
					C282.765,172.77,282.584,172.919,282.373,172.919z"/>
			</g>
			<polygon fill="#F5FBFF" points="290.444,151.476 249.003,151.476 257.59,97.65 299.03,97.65 			"/>
			<rect x="245.951" y="151.064" fill="#77A4E5" width="47.594" height="1.584"/>
			<g>
				<path fill="#BDD1F9" d="M274,108.912c-0.031,0.427-0.094,0.845-0.186,1.253c-0.863,3.847-4.289,6.794-8.159,6.801
					c-4.282,0.007-7.489-3.587-7.162-8.027s4.063-8.046,8.347-8.054c0.897-0.001,1.748,0.156,2.528,0.446
					c0.352,0.13,0.688,0.287,1.01,0.468c0.693,0.395,1.31,0.9,1.831,1.5c0.289,0.334,0.549,0.696,0.775,1.083
					c0.133,0.224,0.252,0.456,0.36,0.695c0.302,0.665,0.509,1.389,0.609,2.151c0.051,0.383,0.073,0.776,0.069,1.178
					C274.021,108.572,274.014,108.742,274,108.912z"/>
				<path fill="#FFFFFF" d="M273.345,105.077l-7.098,3.849c0,0,2.929-5.157,4.131-7.127c0.692,0.395,1.31,0.9,1.831,1.5
					c0.289,0.334,0.549,0.696,0.775,1.083C273.117,104.605,273.236,104.838,273.345,105.077z"/>
				<path fill="#F99746" d="M274.082,104.104l-6.482,3.516c0,0,2.674-4.711,3.772-6.51c0.633,0.359,1.196,0.822,1.672,1.371
					c0.265,0.304,0.503,0.635,0.71,0.988C273.873,103.673,273.983,103.885,274.082,104.104z"/>
			</g>
			<g>
				<g>
					<path fill="#BDD1F9" d="M287.145,147.384l-34.109-0.003l3.453-19.68l34.109,0.002L287.145,147.384z M253.311,147.184
						l33.628,0.002l3.384-19.284l-33.628-0.003L253.311,147.184z"/>
				</g>
				<g>
					<path fill="#F99746" d="M285.11,144.686l-30.251-0.002c0,0,5.366-2.878,6.838-2.728c1.473,0.151,3.588,1.315,4.949,1.361
						c1.359,0.045,2.833-4.039,4.348-3.847c1.514,0.192,2.084,3.805,2.868,3.452s3.139-0.505,4.494,0.001
						c1.356,0.506,3.332-1.608,4.524-1.542C284.073,141.447,285.11,144.686,285.11,144.686z"/>
					<g>
						<polygon fill="#F99746" points="262.134,138.9 256.355,138.9 256.41,138.594 262.188,138.594 						"/>
						<polygon fill="#F99746" points="262.019,139.555 256.24,139.555 256.295,139.248 262.072,139.249 						"/>
					</g>
				</g>
				<g>
					<path fill="#BDD1F9" d="M256.59,134.818l30.252,0.002c0,0-4.356-2.879-5.882-2.729c-1.525,0.151-4.049,1.316-5.425,1.361
						c-1.377,0.045-1.416-4.039-2.998-3.848c-1.582,0.192-3.42,3.805-4.08,3.452s-2.961-0.506-4.494-0.001
						c-1.534,0.507-2.768-1.607-3.984-1.541C258.764,131.581,256.59,134.818,256.59,134.818z"/>
					<g>
						<polygon fill="#BDD1F9" points="263.766,129.599 257.988,129.598 258.042,129.291 263.82,129.292 						"/>
						<polygon fill="#BDD1F9" points="263.65,130.253 257.873,130.252 257.927,129.946 263.705,129.946 						"/>
					</g>
				</g>
			</g>
			<g>
				<polygon fill="#BDD1F9" points="258.552,124.956 257.225,124.956 258.378,118.738 259.705,118.738 				"/>
				<polygon fill="#BDD1F9" points="260.359,124.956 259.032,124.956 259.926,120.14 261.252,120.14 				"/>
				<polygon fill="#BDD1F9" points="262.166,124.956 260.84,124.956 261.771,119.934 263.098,119.934 				"/>
				<polygon fill="#BDD1F9" points="263.975,124.956 262.647,124.956 263.355,121.136 264.683,121.136 				"/>
				<polygon fill="#BDD1F9" points="265.781,124.956 264.455,124.956 265.215,120.857 266.541,120.857 				"/>
				<polygon fill="#BDD1F9" points="267.589,124.956 266.262,124.956 266.852,121.777 268.178,121.777 				"/>
			</g>
			<g>
				<polygon fill="#F99746" points="276.301,124.956 274.975,124.956 276.127,118.738 277.453,118.738 				"/>
				<polygon fill="#F99746" points="278.108,124.956 276.781,124.956 277.675,120.14 279.002,120.14 				"/>
				<polygon fill="#F99746" points="279.916,124.956 278.589,124.956 279.521,119.934 280.848,119.934 				"/>
				<polygon fill="#F99746" points="281.723,124.956 280.396,124.956 281.105,121.136 282.432,121.136 				"/>
				<polygon fill="#F99746" points="283.531,124.956 282.204,124.956 282.964,120.857 284.291,120.857 				"/>
				<polygon fill="#F99746" points="285.338,124.956 284.012,124.956 284.602,121.777 285.928,121.777 				"/>
			</g>
			<g>
				<g>
					<polygon fill="#BDD1F9" points="282.689,104.66 278.37,104.66 278.48,104.068 282.801,104.068 					"/>
					<polygon fill="#BDD1F9" points="287.987,104.66 283.219,104.66 283.33,104.068 288.099,104.068 					"/>
					<polygon fill="#BDD1F9" points="291.387,104.66 288.346,104.66 288.457,104.068 291.498,104.068 					"/>
					<polygon fill="#BDD1F9" points="294.226,104.66 291.879,104.66 291.99,104.068 294.336,104.068 					"/>
				</g>
				<g>
					<polygon fill="#BDD1F9" points="282.215,107.185 277.896,107.185 278.007,106.593 282.326,106.593 					"/>
					<polygon fill="#BDD1F9" points="287.514,107.185 282.744,107.185 282.855,106.593 287.625,106.593 					"/>
					<polygon fill="#BDD1F9" points="290.912,107.185 287.872,107.185 287.983,106.593 291.023,106.593 					"/>
					<polygon fill="#BDD1F9" points="293.752,107.185 291.405,107.185 291.516,106.593 293.862,106.593 					"/>
				</g>
				<g>
					<polygon fill="#BDD1F9" points="285.256,103.279 278.629,103.279 278.74,102.688 285.367,102.688 					"/>
					<polygon fill="#BDD1F9" points="289.707,103.279 285.887,103.279 285.998,102.688 289.818,102.688 					"/>
					<polygon fill="#BDD1F9" points="294.488,103.279 290.246,103.279 290.356,102.688 294.599,102.688 					"/>
				</g>
				<g>
					<polygon fill="#BDD1F9" points="284.752,105.964 278.125,105.964 278.236,105.372 284.863,105.372 					"/>
					<polygon fill="#BDD1F9" points="289.203,105.964 285.383,105.964 285.494,105.372 289.314,105.372 					"/>
					<polygon fill="#BDD1F9" points="293.983,105.964 289.742,105.964 289.853,105.372 294.095,105.372 					"/>
				</g>
				<g>
					<polygon fill="#BDD1F9" points="281.741,109.709 277.422,109.709 277.533,109.117 281.852,109.117 					"/>
					<polygon fill="#BDD1F9" points="287.039,109.709 282.271,109.709 282.381,109.117 287.15,109.117 					"/>
					<polygon fill="#BDD1F9" points="290.438,109.709 287.398,109.709 287.51,109.117 290.55,109.117 					"/>
					<polygon fill="#BDD1F9" points="293.277,109.709 290.932,109.709 291.042,109.117 293.389,109.117 					"/>
				</g>
				<g>
					<polygon fill="#BDD1F9" points="284.277,108.488 277.651,108.488 277.762,107.896 284.389,107.896 					"/>
					<polygon fill="#BDD1F9" points="288.729,108.488 284.909,108.488 285.02,107.896 288.84,107.896 					"/>
					<polygon fill="#BDD1F9" points="293.51,108.488 289.268,108.488 289.379,107.896 293.621,107.896 					"/>
				</g>
				<g>
					<polygon fill="#BDD1F9" points="281.297,112.076 276.978,112.076 277.088,111.484 281.408,111.484 					"/>
					<polygon fill="#BDD1F9" points="286.595,112.076 281.826,112.076 281.938,111.484 286.706,111.484 					"/>
					<polygon fill="#BDD1F9" points="289.994,112.076 286.953,112.076 287.064,111.484 290.105,111.484 					"/>
					<polygon fill="#BDD1F9" points="292.833,112.076 290.486,112.076 290.598,111.484 292.943,111.484 					"/>
				</g>
				<g>
					<polygon fill="#BDD1F9" points="283.834,110.855 277.207,110.855 277.318,110.264 283.944,110.264 					"/>
					<polygon fill="#BDD1F9" points="288.284,110.855 284.465,110.855 284.576,110.264 288.396,110.264 					"/>
					<polygon fill="#BDD1F9" points="293.064,110.855 288.823,110.855 288.934,110.264 293.176,110.264 					"/>
				</g>
			</g>
			<g>
				<polygon fill="#BDD1F9" points="271.468,119.664 269.354,119.664 269.408,119.374 271.521,119.374 				"/>
				<polygon fill="#BDD1F9" points="274.061,119.664 271.727,119.664 271.781,119.374 274.115,119.374 				"/>
				<polygon fill="#BDD1F9" points="271.235,120.898 269.121,120.898 269.176,120.609 271.29,120.609 				"/>
				<polygon fill="#BDD1F9" points="273.828,120.898 271.494,120.898 271.549,120.609 273.883,120.609 				"/>
				<polygon fill="#BDD1F9" points="272.724,118.988 269.48,118.988 269.535,118.698 272.778,118.698 				"/>
				<polygon fill="#BDD1F9" points="274.902,118.988 273.033,118.988 273.087,118.698 274.957,118.698 				"/>
				<polygon fill="#BDD1F9" points="272.477,120.302 269.233,120.302 269.288,120.012 272.531,120.012 				"/>
				<polygon fill="#BDD1F9" points="274.656,120.302 272.786,120.302 272.84,120.012 274.71,120.012 				"/>
			</g>
			<g>
				<polygon fill="#BDD1F9" points="288.402,119.664 286.288,119.664 286.343,119.374 288.457,119.374 				"/>
				<polygon fill="#BDD1F9" points="290.996,119.664 288.661,119.664 288.716,119.374 291.051,119.374 				"/>
				<polygon fill="#BDD1F9" points="288.17,120.898 286.057,120.898 286.11,120.609 288.225,120.609 				"/>
				<polygon fill="#BDD1F9" points="290.764,120.898 288.43,120.898 288.484,120.609 290.818,120.609 				"/>
				<polygon fill="#BDD1F9" points="289.658,118.988 286.415,118.988 286.47,118.698 289.713,118.698 				"/>
				<polygon fill="#BDD1F9" points="291.838,118.988 289.968,118.988 290.021,118.698 291.892,118.698 				"/>
				<polygon fill="#BDD1F9" points="289.412,120.302 286.168,120.302 286.223,120.012 289.467,120.012 				"/>
				<polygon fill="#BDD1F9" points="291.59,120.302 289.721,120.302 289.775,120.012 291.645,120.012 				"/>
			</g>
		</g>
	</g>
	<g>
		<g>
			<path fill="#FFB27D" d="M299.649,172.121c-0.074,1.012-1.501,1.022-3.121,0.835c-1.62-0.188-1.189,0.222-3.458,0.253
				c-2.268,0.031-3.049-0.718-3.159-1.042c-0.098-0.287,0.995-0.529,2.163-0.813c0.147-0.035,0.295-0.072,0.441-0.11
				c1.318-0.335,2.191-1.321,3.318-2.183c1.068-0.814,2.445-3.768,2.445-3.768l3.098-0.14c0,0-1.305,2.646-1.795,3.787
				c-0.287,0.671-0.165,1.495-0.039,2.128C299.609,171.413,299.676,171.765,299.649,172.121z"/>
			<path fill="#233862" d="M296.528,172.956c-1.62-0.188-1.189,0.222-3.458,0.253c-2.268,0.031-3.049-0.718-3.159-1.042
				c-0.098-0.287,0.995-0.529,2.163-0.813l0.014,0.021c0,0,1.461,0.783,3.328,0.596c1.522-0.152,3.076-0.788,4.127-0.902
				c0.066,0.345,0.133,0.696,0.106,1.053C299.575,173.133,298.148,173.144,296.528,172.956z"/>
		</g>
		<g>
			<path fill="#FFB27D" d="M321.048,172.331c-0.073,1.012-1.501,1.024-3.12,0.838c-1.621-0.187-1.189,0.224-3.457,0.257
				c-2.269,0.034-3.051-0.715-3.161-1.039c-0.099-0.287,0.994-0.53,2.163-0.816c0.146-0.035,0.293-0.072,0.441-0.109
				c1.317-0.337,2.188-1.324,3.314-2.186c1.068-0.817,0.002-5.652,0.002-5.652l3.408-0.332c0,0-0.164,4.071-0.162,5.922
				c0.001,0.73,0.337,1.434,0.463,2.066C321.007,171.623,321.074,171.975,321.048,172.331z"/>
			<path fill="#233862" d="M317.928,173.169c-1.621-0.187-1.189,0.224-3.457,0.257c-2.269,0.034-3.051-0.715-3.161-1.039
				c-0.099-0.287,0.994-0.53,2.163-0.816l0.014,0.021c0,0,1.461,0.783,3.328,0.593c1.522-0.153,3.075-0.791,4.125-0.905
				c0.067,0.344,0.135,0.695,0.108,1.052C320.975,173.343,319.547,173.355,317.928,173.169z"/>
		</g>
		<path fill="#A9453D" d="M311.103,88.755c-0.587-2.413,0.264-3.536,1.031-4.135c0.364-0.888,0.779-1.528,1.204-1.77
			c0.774-0.44,1.702-0.488,2.352-0.45c-0.167-0.173-0.496-0.236-0.496-0.236c0.402-0.06,1.301,0.34,1.301,0.34
			c5.6-2.158,6.48,6.087,6.362,8.003c-0.116,1.915-0.101,4.171,2.813,5.681c5.559,2.879-1.848,13.731-1.848,13.731
			c0.142-1.549-7.001-9.717-10.728-12.164c-0.906-1.335-1.229-3.694-1.253-3.88c0.156,1.871,0.477,2.919,0.763,3.51
			C310.904,95.824,310.653,92.07,311.103,88.755z"/>
		<path fill="#FFB27D" d="M313.314,97.878c-0.019,0.009,1.799,0.953,3.167,0.579c1.286-0.351,2.126-2.018,2.108-2.022
			c-0.545-0.108-0.701-0.857-0.689-4.073l-0.246,0.049l-4.141,0.819c0,0,0.094,1.303,0.097,2.531
			C313.613,96.791,313.551,97.768,313.314,97.878z"/>
		<path fill="#ED975D" d="M313.514,93.229c0,0,0.094,1.303,0.097,2.531c2.317-0.065,3.542-2.179,4.044-3.35L313.514,93.229z"/>
		<path fill="#2A4E96" d="M296.668,166.934c-0.203,0.637,0.254,1.292,0.921,1.323l1.617,0.075l1.712,0.053
			c0.428,0.014,0.837-0.174,1.107-0.506c1.366-1.676,5.57-7.261,8.121-15.376c0.072-0.228,0.147-0.458,0.228-0.691
			c1.685-4.911,5.177-11.077,7.017-16.657c0.293-0.889,0.557-1.725,0.792-2.517c0.075-0.254,0.149-0.503,0.22-0.748
			c1.355-4.712,1.748-7.806,2.11-11.111l-13.288,0.106C307.225,120.885,304.428,142.628,296.668,166.934z"/>
		<path fill="#FFFFFF" d="M309.085,113.25c0.033,6.322-0.928,9.035-0.928,9.035s5.689,2.891,12.452,0.764
			c0.079-0.025,4.838-1.373,4.838-1.373c-0.113-0.256-1.054-4.486-1.164-4.722c-1.428-3.065-1.816-4.353-1.986-5.296
			c-0.314-1.76-0.32-3.58-0.164-5.297c0.412-4.547,1.639-8.32,1.639-8.32c-1.842-0.419-3.567-1.156-5.484-1.875
			c-0.441,0.549-1.79,1.124-2.96,1.098c-1.347-0.029-1.784-0.606-1.714-1.236c-1.436,0.799-2.58,1.553-2.58,1.553
			c-1.221,2.119-3.694,4.177-3.873,7.428C307.115,105.809,309.084,113.072,309.085,113.25z"/>
		<path fill="#5F9AA8" d="M320.513,113.954c0.581,0.822,1.694,5.819,4.465,6.447c-1.427-3.562-2.511-5.123-2.681-6.218
			c-0.314-2.044-0.321-4.159-0.164-6.154c-0.928-1.625-1.62-2.739-1.62-2.739c-0.073-0.263-1.474-4.595-1.923-0.724
			C318.142,108.44,319.863,113.035,320.513,113.954z"/>
		<path fill="#FFB27D" d="M312.74,94.392c0,0,5.48,0.09,5.484-3.324s0.715-5.703-2.785-5.904c-3.5-0.202-4.182,1.1-4.46,2.239
			S311.314,94.28,312.74,94.392z"/>
		<path fill="#A9453D" d="M312.942,85.08c0,0,1.501,4.006,3.804,4.598c2.304,0.592,3.303-0.025,3.303-0.025
			s-1.767-1.403-2.133-3.853C317.916,85.8,314.074,83.173,312.942,85.08z"/>
		<path fill="#A9453D" d="M313.314,85.405c0,0-1.121,0.894-1.395,1.764c-0.272,0.869-0.396,2.659-0.917,2.599
			c0,0-1.131-2.723,0.14-4.263C312.49,83.871,313.314,85.405,313.314,85.405z"/>
		<polygon fill="#FFB27D" points="304.115,117.639 301.525,125.531 303.002,126.123 307.283,119.15 		"/>
		<path fill="#F99746" d="M311.095,97.117c0,0-3.052,1.211-3.937,3.1c-0.883,1.889-2.221,14.557-2.754,15.857
			c-0.532,1.302-0.934,2.332-0.934,2.332s1.54,1.297,3.088,1.393C308.106,119.894,311.095,97.117,311.095,97.117z"/>
		<path fill="#F99746" d="M313.613,96.029c0,0-3.172,7.834-3.265,9.42s-0.372,25.929-0.372,25.929s0.186,1.119-1.959,0.652
			c-2.146-0.466-2.705-0.933-2.705-0.933s2.052-15.016,1.492-20.239c-0.56-5.223,4.291-13.742,4.291-13.742L313.613,96.029z"/>
		<path fill="#1E3D70" d="M299.206,168.332l1.858,0.058c0.332,0.01,0.65-0.133,0.861-0.39c1.249-1.512,5.605-7.174,8.221-15.497
			c0.072-0.228,0.147-0.458,0.228-0.691c1.685-4.911,5.177-11.077,7.017-16.657c0.293-0.889,0.557-1.725,0.792-2.517
			c0.075-0.254,0.149-0.503,0.22-0.748l-1.957-1.485c0,0-5.875,9.514-7.693,18.467C307.172,156.648,300.844,166.006,299.206,168.332
			z"/>
		<path fill="#2A4E96" d="M316.24,149.705c-0.031,4.119,0.164,13.299,0.666,17.787c0.045,0.41,0.393,0.721,0.806,0.721h1.387
			c0.584,0,1.021-0.005,1.312-0.01c0.252-0.003,0.467-0.184,0.515-0.43c1.379-7.017,2.366-12.846,3.088-17.882
			c0.604-4.216,1.142-7.83,1.556-10.941c0.416-3.132,0.705-5.753,0.809-7.968c0.016-0.35,0.027-0.688,0.034-1.018
			c0.007-0.332,0.009-0.653,0.005-0.966l-11.48-1.119C315.08,135.508,316.26,147.174,316.24,149.705z"/>
		<path fill="#1E3D70" d="M319.099,168.213c0.524,0,0.931-0.004,1.219-0.008c0.306-0.004,0.566-0.223,0.626-0.522
			c1.369-6.976,2.351-12.776,3.069-17.791c0.604-4.216,1.142-7.83,1.556-10.941c0.416-3.132,0.705-5.753,0.809-7.968l-4.213,2.478
			c0,0,2.688,0.948,1.662,8.13C322.801,148.772,320.526,167.195,319.099,168.213z"/>
		<path fill="#F99746" d="M318.557,130.911c0,0,0.809,2.923,3.606,2.55s6.776-2.053,6.776-2.053s-1.195-3.778-2.682-8.742
			c-1.801-6.01-4.028-13.756-5.078-18.643c-0.295-1.369-0.496-2.513-0.571-3.332l-2.321-4.503c0,0-3.461,7.769-3.648,9.727
			C314.453,107.874,318.557,130.911,318.557,130.911z"/>
		<path fill="#FFB27D" d="M321.351,105.623l-3.063-9.435c0.008,0.004,3.869,1.149,5.812,2.13c0,0,1.214,1.565,1.965,5.176
			c0,0,0.794,8.67-0.978,11.842c0,0-5.597,1.119-14.551-1.959v-2.053c0,0,9.793,0.514,11.799,0.746L321.351,105.623z"/>
		<path fill="#ED7D2B" d="M318.681,110.02c0.125,3.171,0.871,9.326,7.524,12.621c0.018,0.009,0.035,0.018,0.053,0.025
			c-1.801-6.009-4.028-13.756-5.078-18.643C319.957,105.85,318.612,108.273,318.681,110.02z"/>
		<path fill="#F99746" d="M318.287,96.188c0,0,5.679,0.4,7.047,3.447c1.368,3.046,1.803,13.181,0.063,16.167
			c0,0-2.397,0.683-6.637-0.11c-0.052-0.01-0.104-0.02-0.156-0.029c0,0-1.353-3.312-0.141-3.965c0,0,3.576,0.188,3.203-0.994
			S318.287,96.188,318.287,96.188z"/>
		<g>
			<path fill="#A9453D" d="M304.047,112.593l0.167,0.538l9.319-2.899c0,0,0.125-0.142,0.063-0.33
				c-0.067-0.208-0.23-0.208-0.23-0.208L304.047,112.593z"/>
			<polygon fill="#A9453D" points="303.373,113.101 304.047,112.593 304.214,113.131 			"/>
		</g>
		<path fill="#FFB27D" d="M301.894,125.315c0,0-2.364,1.307-2.675,2.302c-0.312,0.996-0.098,3.08,0.277,3.049
			s0.936-2.24,1.246-2.395c0.312-0.156,0.747-0.623,0.747-0.28c0,0.342-0.312,0.964-0.155,1.058
			c0.155,0.093,0.652-0.871,0.995-1.058s0.485-1.726,0.818-2.138C303.48,125.439,301.894,125.315,301.894,125.315z"/>
		<path fill="#FFB27D" d="M310.535,111.324c0,0-2.114-1.302-3.001-1.102c-0.887,0.201-3.147,1.838-2.06,2.192
			c1.087,0.354,1.967-0.018,2.385,0.239c0.418,0.258,0.728,0.729,2.676,0.723C312.484,113.37,310.535,111.324,310.535,111.324z"/>
	</g>
	<g>
		<g opacity="0.6">
			<g>
				<path fill="#77A4E5" d="M208.141,172.916h-0.035c-0.206,0-0.371-0.169-0.366-0.375l0.555-24.061l1.635-0.189l-1.395,24.252
					C208.524,172.752,208.351,172.916,208.141,172.916z"/>
			</g>
			<g>
				<path fill="#77A4E5" d="M198.612,172.916h-0.035c-0.206,0-0.371-0.169-0.366-0.375l0.555-24.061l1.635-0.189l-1.395,24.252
					C198.995,172.752,198.821,172.916,198.612,172.916z"/>
			</g>
			<g>
				<path fill="#77A4E5" d="M224.906,172.916h0.035c0.206,0,0.371-0.169,0.366-0.375l-0.555-24.061l-1.635-0.189l1.394,24.252
					C224.523,172.752,224.697,172.916,224.906,172.916z"/>
			</g>
			<path fill="#77A4E5" d="M197.528,146.988v-16.486c0-2.901,2.352-5.254,5.253-5.254h11.879c2.901,0,5.252,2.353,5.252,5.254
				v17.117L197.528,146.988z"/>
			<path fill="#77A4E5" d="M222.041,149.592h-22.936c-0.871,0-1.577-0.706-1.577-1.577v-1.026h24.513V149.592z"/>
			<path fill="#77A4E5" d="M224.79,149.592h-17.352c-0.644,0-1.167-0.522-1.167-1.166v-0.271c0-0.644,0.522-1.167,1.167-1.167
				h17.352c0.644,0,1.167,0.523,1.167,1.167v0.271C225.956,149.069,225.434,149.592,224.79,149.592z"/>
		</g>
		<g>
			<path fill="#FFB27D" d="M237.771,163.322c0.166,0.829,1.347,0.69,2.667,0.368s1.006,0.061,2.884-0.147
				c1.878-0.207,2.447-0.908,2.505-1.188c0.051-0.248-0.877-0.335-1.873-0.449c-0.125-0.015-0.251-0.029-0.376-0.045
				c-1.124-0.142-1.947-0.867-2.968-1.463c-0.967-0.563-2.41-2.862-2.41-2.862l-2.576,0.204c0,0,1.352,2.053,1.875,2.945
				c0.308,0.525,0.292,1.22,0.253,1.756C237.731,162.732,237.712,163.03,237.771,163.322z"/>
			<path fill="#233862" d="M240.438,163.69c1.32-0.323,1.006,0.061,2.884-0.147c1.878-0.207,2.447-0.908,2.505-1.188
				c0.051-0.248-0.877-0.335-1.873-0.449l-0.009,0.019c0,0-1.126,0.799-2.69,0.836c-1.274,0.031-2.624-0.334-3.504-0.319
				c-0.02,0.291-0.039,0.589,0.02,0.881C237.937,164.151,239.118,164.013,240.438,163.69z"/>
			<path fill="#FFB27D" d="M215.635,167.029c-0.512,0.672,0.374,1.467,1.488,2.243s0.62,0.795,2.019,2.065
				c1.398,1.271,2.3,1.234,2.547,1.093c0.22-0.125-0.329-0.879-0.901-1.702c-0.072-0.103-0.144-0.207-0.215-0.312
				c-0.638-0.937-0.638-2.033-0.867-3.192c-0.216-1.099,1.577-5.136,1.577-5.136l-2.881-0.362c0,0-0.376,2.438-0.7,3.42
				c-0.19,0.578-0.991,0.959-1.418,1.285C216.051,166.609,215.815,166.792,215.635,167.029z"/>
			<path fill="#233862" d="M217.123,169.272c1.115,0.776,0.62,0.795,2.019,2.065c1.398,1.271,2.3,1.234,2.547,1.093
				c0.22-0.125-0.329-0.879-0.901-1.702l-0.021,0.006c0,0-1.344-0.316-2.406-1.463c-0.866-0.936-1.485-2.189-2.078-2.84
				c-0.232,0.178-0.468,0.36-0.648,0.598C215.123,167.701,216.008,168.496,217.123,169.272z"/>
			<path fill="#163560" d="M227.403,146.393l-2.632,7.081l-3.436,9.247c0,0-0.933,0.09-1.825-0.166
				c-0.822-0.238-1.766-0.859-1.766-0.859s0.954-9.93,2.734-15.629c0.456-1.463,0.967-2.646,1.531-3.313
				C224.769,139.494,227.403,146.393,227.403,146.393z"/>
			<path fill="#2A4E96" d="M224.728,135.145c-1.725-0.556-6.92-0.225-11.86,0.743l-0.756-1.323l-10.67-0.834
				c0,0-3.521,7.809-1.593,12.783c0.283,0.731,0.846,1.201,1.806,1.216c0,0.001,0.155-0.001,0.156,0c0,0,6.351-0.003,8.413-0.003
				c5.306,0,11.23-3.648,11.997-3.801c1.254-0.252,1.756,2.257,3.01,4.891c1.254,2.635,11.791,11.665,11.791,11.665
				s1.619,0.017,2.288-0.234c0.719-0.271,0.982-0.62,0.982-0.62S228.616,136.399,224.728,135.145z"/>
			<path fill="#233862" d="M208.375,102.267c-1.502-0.358-3.541,0.062-3.88,0.102c-4.052,0.474-4.958,6.768-4.657,8.528
				c0.556,3.244-1.003,4.158-2.862,6.754c-3.729,5.203-1.153,9.487,1.882,10.549c1.821,0.638,4.303-1.098,4.303-1.098
				c0.046,0.018,6.443-6.09,9.607-9.057C218.087,115.853,212.202,103.178,208.375,102.267z"/>
			<path fill="#FFB27D" d="M209.242,117.107c0.019,0.006-1.649,1.096-3.01,0.866c-1.279-0.214-2.633-1.884-2.616-1.89
				c0.517-0.157,0.974-0.761,0.651-3.874l0.243,0.022l4.088,0.393c0,0,0.035,1.271,0.151,2.46
				C208.847,116.083,209.002,117.023,209.242,117.107z"/>
			<path fill="#ED975D" d="M208.599,112.625c0,0,0.035,1.271,0.151,2.46c-2.25,0.161-3.64-1.767-4.239-2.852L208.599,112.625z"/>
			<path fill="#FFB27D" d="M209.46,113.676c0,0-5.298,0.619-5.633-2.687s-1.244-5.452,2.125-5.987
				c3.369-0.535,4.155,0.66,4.535,1.736C210.867,107.814,210.83,113.43,209.46,113.676z"/>
			<path fill="#233862" d="M209.855,105.041c0,0-2.559,3.662-4.731,4.459s-3.2,0.297-3.2,0.297s1.036-1.428,1.378-3.391
				c0.101-0.58,0.503-1.062,1.058-1.255C205.917,104.607,208.92,103.774,209.855,105.041z"/>
			<path fill="#233862" d="M207.74,105.311c0,0,1.368,0.781,1.914,1.479c0.527,0.675,1.09,2.465,1.009,3.254
				c0,0,0.861-3.761-0.519-5.128C208.682,103.465,207.74,105.311,207.74,105.311z"/>
			<path fill="#FFFFFF" d="M213.316,125.877c-0.16,10.703-0.044,8.467-1.214,9.482c-0.282,0.244-1.075,0.39-2.119,0.459
				c-3.282,0.218-9.05-0.323-9.27-0.93c-0.757-2.098-0.223-2.75-0.854-5.963c-0.066-0.342-0.147-0.712-0.243-1.115
				c-0.526-2.206-1.039-2.957,0.829-6.502c1.694-3.211,3.523-5.776,3.682-5.682c4.47,2.652,4.761,0.382,4.761,0.382
				S213.395,120.657,213.316,125.877z"/>
			<path fill="#2A4E96" d="M224.771,153.474l-3.514,9.632c0,0-1.263,0.412-2.182,0.278c-0.937-0.137-1.45-0.647-1.45-0.647
				s1.074-10.971,2.854-16.67L224.771,153.474z"/>
			<path fill="#FFFFFF" d="M208.887,116.008c0,0,4.599,0.779,5.139,2.76s4.49,12.893,4.49,12.893s-3.109,1.149-4.189,0.069
				c-1.08-1.081-3.758-10.021-3.758-10.021L208.887,116.008z"/>
			<path fill="#DFEBFD" d="M209.982,135.818c-3.282,0.218-9.051-0.322-9.27-0.93c-0.757-2.098-0.223-2.75-0.854-5.963l1.539-3.505
				c0,0-0.218,4.011,1.246,5.316c1.462,1.306,5.993,2.521,6.705,3.61C209.691,134.871,209.917,135.396,209.982,135.818z"/>
			<g>
				<path fill="#FFB27D" d="M210.25,133.534c0,0,0.978,0.843,1.256,0.911c0.278,0.068,0.436,0.005,0.436,0.005l-0.712-0.835
					L210.25,133.534z"/>
				<path fill="#FFB27D" d="M209.862,132.541l2.475,0.639c0,0-0.064,0.176-0.344,0.22c-0.28,0.044-1.032-0.071-1.032-0.071
					L209.862,132.541z"/>
				<path fill="#FFB27D" d="M205.667,133.905c0,0,3.533-1.571,4.196-1.364c0.664,0.207,2.364,1.108,2.631,1.487
					c0.267,0.379-1.393-0.048-1.911-0.079c-0.335-0.021-1.115,0.439-1.502,0.661c-1.628,0.935-2.758,0.853-2.758,0.853
					L205.667,133.905z"/>
			</g>
			<path fill="#FFFFFF" d="M204.126,115.627c0,0-4.999,0.938-5.924,2.323c-2.021,3.022-6.321,15.547-3.913,17.227
				c2.712,1.892,12.344,0.495,12.344,0.495s0.321-1.499-0.125-2.224c-0.446-0.725-7.693-1.896-8.028-2.229
				c-0.334-0.335,3.305-5.172,2.917-6.098C200.156,122.156,204.126,115.627,204.126,115.627z"/>
			<g>
				<path fill="#FFB27D" d="M223.885,133.371c0,0,3.498,0.945,3.857,1.488c0.36,0.543,1.064,2.202,1.034,2.635
					c-0.03,0.434-0.985-0.856-1.343-1.187c-0.231-0.214-1.071-0.339-1.483-0.406c-1.04-0.169-1.541-0.645-1.931-0.882
					c-0.261-0.158-0.579-0.129-0.579-0.129L223.885,133.371z"/>
				<path fill="#FFB27D" d="M227.437,135.811c0,0,0.212,1.189,0.375,1.404c0.162,0.213,0.314,0.262,0.314,0.262l-0.025-1.028
					L227.437,135.811z"/>
				<path fill="#FFB27D" d="M227.742,134.859l1.422,1.926c0,0-0.151,0.091-0.38-0.043c-0.229-0.134-0.708-0.661-0.708-0.661
					L227.742,134.859z"/>
				<path fill="#FFB27D" d="M224.02,135.02c0,0,0.324,0.787,0.972,1.07c0.647,0.281,1.123,0.705,1.227,0.553s-0.49-0.954-0.49-0.954
					L224.02,135.02z"/>
			</g>
			<path fill="#FFFFFF" d="M217.587,129.08l7.356,4.65c0,0-0.773,1.034-1.031,1.129c-1.362,0.499-7.488,0.021-9.586-3.13
				L217.587,129.08z"/>
			<g>
				<path fill="#F9DDBF" d="M214.672,134.135c0.434-0.001,4.752-0.3,4.752-0.3s-0.125,0.766,0.143,1.175l-4.208,0.805l-0.865-0.253
					L214.672,134.135z"/>
				<g>
					<path fill="#F99746" d="M207.47,134.828l7.202-0.693c0,0-0.253,1.332,0.687,1.68l-7.939,0.581
						C207.419,136.396,206.779,135.494,207.47,134.828z"/>
					<path fill="#F99746" d="M219.412,133.93l-4.867,0.375c0,0,0.037-0.168,0.127-0.17s4.835-0.348,4.835-0.348l-0.017,0.133
						L219.412,133.93z"/>
					<polygon fill="#F99746" points="215.358,135.814 219.645,135 219.605,134.89 215.037,135.764 					"/>
				</g>
			</g>
		</g>
	</g>
	<g>
		<g>
			<g>
				<path fill="#77A4E5" d="M165.477,172.878h-0.039c-0.229,0-0.412-0.188-0.406-0.418l0.616-26.866l1.815-0.213l-1.548,27.081
					C165.902,172.695,165.71,172.878,165.477,172.878z"/>
			</g>
			<g>
				<path fill="#77A4E5" d="M154.899,172.878h-0.039c-0.229,0-0.412-0.188-0.407-0.418l0.617-26.866l1.815-0.213l-1.548,27.081
					C155.324,172.695,155.132,172.878,154.899,172.878z"/>
			</g>
			<g>
				<path fill="#77A4E5" d="M184.088,172.878h0.039c0.229,0,0.412-0.188,0.407-0.418l-0.616-26.866l-1.815-0.213l1.548,27.081
					C183.664,172.695,183.855,172.878,184.088,172.878z"/>
			</g>
			<path fill="#77A4E5" d="M153.696,143.928v-18.41c0-3.239,2.61-5.865,5.831-5.865h13.187c3.221,0,5.832,2.627,5.832,5.865v19.113
				L153.696,143.928z"/>
			<path fill="#77A4E5" d="M180.908,146.834h-25.456c-0.97,0-1.756-0.786-1.756-1.756v-1.15h27.211V146.834z"/>
			<path fill="#77A4E5" d="M183.955,146.834h-19.254c-0.717,0-1.298-0.581-1.298-1.299v-0.309c0-0.717,0.581-1.299,1.298-1.299
				h19.254c0.717,0,1.298,0.582,1.298,1.299v0.309C185.253,146.253,184.672,146.834,183.955,146.834z"/>
		</g>
		<g>
			<path fill="#F9DDBF" d="M173.601,112.854c0,0-1.104,0.938-1.343,3.373c-0.182,1.85,1.101,16.203,2.065,17.344
				c2.716,3.21,6.119,1.854,7.452,2.341l1.258-1.13c0,0-4.422-3.264-4.758-4.328C176.979,126.354,177.782,114.401,173.601,112.854z"
				/>
			<path fill="#163560" d="M172.808,101.146c0,0,0.075-2.633-3.397-3.149c-3.472-0.517-4.431,0.295-5.021,1.181
				c-0.59,0.886-1.697,4.501-1.586,5.94c0.11,1.438,4.07,3.218,4.006,4.058C166.744,110.014,172.808,101.146,172.808,101.146z"/>
			<path fill="#FFB27D" d="M188.911,170.606c-0.112,0.89,1.101,1.151,2.512,1.275c1.412,0.124,0.974,0.403,2.899,0.831
				c1.925,0.429,2.721-0.082,2.871-0.344c0.133-0.232-0.754-0.635-1.7-1.088c-0.119-0.057-0.238-0.115-0.357-0.174
				c-1.063-0.522-1.635-1.531-2.445-2.477c-0.767-0.896-1.426-3.697-1.426-3.697l-2.613-0.668c0,0,0.65,2.522,0.87,3.598
				c0.128,0.633-0.119,1.324-0.335,1.852C189.068,170,188.95,170.293,188.911,170.606z"/>
			<path fill="#233862" d="M191.423,171.882c1.412,0.124,0.974,0.403,2.899,0.831c1.925,0.429,2.721-0.082,2.871-0.344
				c0.133-0.232-0.754-0.635-1.7-1.088l-0.016,0.016c0,0-1.379,0.421-2.937-0.072c-1.27-0.4-2.481-1.227-3.355-1.511
				c-0.117,0.286-0.235,0.579-0.274,0.894C188.798,171.496,190.012,171.758,191.423,171.882z"/>
			<path fill="#ED7D2B" d="M169.348,134.338c0,0,17.469,1.812,20.348,4.485c2.879,2.675,2.366,27.587,2.366,27.587
				c-0.448,0.465-0.779,0.454-1.487,0.398c-0.679-0.053-2.065-0.638-2.065-0.638s-3.741-12.233-3.788-15.065
				s-0.638-7.639-1.827-7.922c-1.188-0.283-15.33,1.302-16.88-3.165s1.024-8.142,1.024-8.142L169.348,134.338z"/>
			<path fill="#F9DDBF" d="M161.188,138.83c0.754,0.506,2.102,1.283,4.363,1.363c4.046,0.148,9.096-0.335,10.09-1.273
				c0.258-0.242,0.384-0.645,0.419-1.153c0.109-1.553-0.632-4.107-1.13-6.222c-0.323-1.373-0.543-2.56-0.363-3.166
				c0.549-1.846,2.254-5.608,2.402-6.845c0.147-1.236-1.328-7.86-3.368-8.681c-2.041-0.822-9.914,0-9.914,0
				c-3.076,0.624-3.206,7.182-2.184,12.764c0.026,0.145,0.053,0.287,0.081,0.428C162.691,131.713,159.085,137.422,161.188,138.83z"
				/>
			<g>
				<path fill="#FFB27D" d="M171.36,114.06c-0.055,0.359-1.04,0.942-3.145,0.388c-2.017-0.531-2.259-1.188-2.258-1.621
					c0-0.514,0.876-1.205,0.865-4.363l0.242,0.047l4.066,0.805c0,0-0.093,1.28-0.095,2.485
					C171.032,112.813,171.452,113.461,171.36,114.06z"/>
				<path fill="#ED975D" d="M171.13,109.314c0,0-0.093,1.279-0.095,2.485c-2.275-0.064-3.478-2.14-3.971-3.29L171.13,109.314z"/>
				<path fill="#FFB27D" d="M171.89,110.456c0,0-5.383,0.089-5.387-3.265c-0.003-3.353-0.701-5.6,2.736-5.798
					c3.437-0.198,4.106,1.081,4.379,2.199C173.892,104.712,173.29,110.347,171.89,110.456z"/>
				<path fill="#163560" d="M171.69,101.312c0,0-1.474,3.934-3.736,4.516c-2.262,0.581-3.243-0.024-3.243-0.024
					s1.735-1.379,2.095-3.784C166.807,102.019,170.579,99.439,171.69,101.312z"/>
				<path fill="#163560" d="M171.325,101.631c0,0,1.101,0.879,1.369,1.732c0.268,0.854,0.389,2.611,0.901,2.552
					c0,0,1.11-2.674-0.138-4.187C172.135,100.125,171.325,101.631,171.325,101.631z"/>
			</g>
			<path fill="#FFB27D" d="M175.792,171.338c-0.013,0.896,1.222,1.018,2.638,0.978c1.417-0.04,1.012,0.288,2.973,0.491
				c1.96,0.204,2.694-0.396,2.814-0.672c0.106-0.246-0.82-0.544-1.81-0.885c-0.125-0.043-0.249-0.088-0.374-0.131
				c-1.115-0.398-1.794-1.334-2.705-2.181c-0.862-0.801,1.041-4.678,1.041-4.678l-2.494-1.234c0,0-0.473,2.769-1.082,5.188
				c-0.157,0.626-0.67,1.656-0.827,2.204C175.881,170.717,175.796,171.021,175.792,171.338z"/>
			<path fill="#F2CCAA" d="M161.296,138.164c0.754,0.505,1.994,1.949,4.255,2.029c3.732-0.848,7.981-1.837,10.509-2.427
				c0.109-1.553-0.632-4.107-1.13-6.222c-2.947,0.9-7.333-2.166-8.808-3.377c-1.549-1.273-1.501-5.516-1.501-5.516l-3.118,2.965
				c0.026,0.144,0.053,0.287,0.081,0.428C162.691,131.713,159.193,136.756,161.296,138.164z"/>
			<path fill="#233862" d="M178.429,172.315c1.417-0.04,1.012,0.288,2.973,0.491c1.96,0.204,2.694-0.396,2.814-0.672
				c0.106-0.246-0.82-0.544-1.81-0.885l-0.014,0.018c0,0-1.324,0.576-2.925,0.266c-1.306-0.252-2.602-0.932-3.502-1.114
				c-0.084,0.298-0.169,0.603-0.173,0.919C175.779,172.234,177.013,172.355,178.429,172.315z"/>
			<path fill="#F99746" d="M165.579,135.402c4.435-0.126,17.682,0.932,20.226,2.85c3.132,2.361-5.816,27.9-5.816,27.9
				s-1.039,0.101-1.368,0.063c-1.421-0.161-2-0.594-2-0.594s0.034-15.031,1.08-17.907c0.966-2.656,1.558-3.596,0.348-3.755
				s-16.316,1.769-17.577-2.792c-0.985-3.563,0.47-6.859,0.47-6.859S161.487,135.52,165.579,135.402z"/>
			<path fill="#F9DDBF" d="M163.688,112.853c0,0-3.081,0.262-3.321,2.696c-0.182,1.85-1.522,14.965-0.557,16.105
				c2.716,3.209,11.771,3.89,13.104,4.377l0.367-1.519c0,0-9.666-4.87-9.519-5.977S166.642,112.414,163.688,112.853z"/>
			<path fill="#163560" d="M166.066,99.32c0,0,0.221-1.405-1.727-1.767c-1.948-0.362-1.985,3.775-2.193,4.773
				c-0.208,0.997,0.312,1.595,1.055,1.655C163.943,104.042,166.066,99.32,166.066,99.32z"/>
			<g>
				<path fill="#FFB27D" d="M173.385,134.446c0,0,2.753-0.779,3.409-0.597c0.656,0.182,2.902,1.67,2.586,2.073
					c-0.316,0.404-2.295-0.241-3.206-0.119c-0.911,0.122-1.615,0.571-2.271,0.474c-0.656-0.097-1.341-0.354-1.341-0.354
					L173.385,134.446z"/>
				<path fill="#FFB27D" d="M173.385,134.446c0,0,1.347-0.692,1.73-1.086c0.048-0.05,0.13-0.039,0.167,0.02
					c0.103,0.161,0.199,0.474-0.274,0.785C174.329,134.612,173.385,134.446,173.385,134.446z"/>
			</g>
			<g>
				<path fill="#FFB27D" d="M183.033,134.781c0,0,2.856,0.156,3.418,0.541c0.561,0.386,2.203,2.521,1.773,2.802
					c-0.43,0.279-2.092-0.974-2.994-1.153s-1.713,0.016-2.302-0.289c-0.589-0.305-1.154-0.771-1.154-0.771L183.033,134.781z"/>
			</g>
		</g>
	</g>
	<g>
		<g>
			<path fill="#1B3051" d="M163.408,173.113h-11.624c-0.559-0.683-0.353-3.2-0.269-4.022c0.017-0.165,0.029-0.262,0.029-0.262
				s3.969-3.175,4.515-0.744c0.017,0.077,0.037,0.151,0.059,0.225c0.687,2.274,3.768,3.308,5.547,3.595
				C162.822,172.092,163.25,172.693,163.408,173.113z"/>
			<path fill="#233862" d="M131.692,135.344c0.419,0,19.91,3.659,23.134,7.65c1.61,1.994,1.85,25.018,1.85,25.018
				s-1.993,2.471-6.296,1.037c0,0-3.155-15.754-2.922-20.531c0.064-1.322-13.317-0.191-15.766-0.825s-8.434-5.962-7.115-8.558
				C125.896,136.539,131.692,135.344,131.692,135.344z"/>
			<path fill="#FFB27D" d="M145.804,134.262c0,0,1.248,1.076,2.527,1.381c0.729,0.174,1.436,0.371,1.856,0.564
				c1.158,0.531,3.353,2.902,3.149,3.139c-0.655,0.756-3.292-1.213-3.796-1.074s0.828,1.283,0.299,1.594
				c-0.276,0.162-0.796-0.826-1.282-0.965c-0.658-0.188-1.095-1.182-1.292-1.25c-0.384-0.132-1.985-1.568-1.985-1.568
				L145.804,134.262z"/>
			<path fill="#1E3C68" d="M168.545,173.113h-11.624c-0.559-0.683-0.353-3.2-0.268-4.022c0.017-0.165,0.029-0.262,0.029-0.262
				s3.969-3.175,4.515-0.744c0.017,0.077,0.037,0.151,0.059,0.225c0.687,2.274,3.768,3.308,5.547,3.595
				C167.959,172.092,168.387,172.693,168.545,173.113z"/>
			<path fill="#2B478B" d="M137.436,135.344c0.419,0,19.91,3.659,23.134,7.65c1.61,1.994,1.85,25.018,1.85,25.018
				s-1.993,2.471-6.296,1.037c0,0-3.155-15.754-2.922-20.531c0.064-1.322-13.317-0.191-15.766-0.825
				c-2.45-0.634-8.434-5.962-7.115-8.558C131.639,136.539,137.436,135.344,137.436,135.344z"/>
			<path fill="#FFB27D" d="M136.215,111.658c-1.402-0.116-2.872-0.49-4.143-0.902c-1.588-0.516-2.869-1.269-2.044-2.721
				c0.761-1.338,1.991-4.326,1.908-6.803l2.955,2.383l2.008,1.617c0,0-0.008,0.953-0.228,2.625c-0.04,0.305-0.087,0.634-0.143,0.985
				c-0.044,0.284,0.086,0.567,0.33,0.719c0.015,0.01,0.03,0.019,0.045,0.028C137.903,110.217,137.39,111.755,136.215,111.658z"/>
			<path fill="#ED975D" d="M136.9,104.839c0,0,0.103,0.347-0.074,1.625c-1.79-0.292-3.463-1.72-3.463-1.72
				c0.911-0.25,1.243-1.234,1.921-1.143L136.9,104.839z"/>
			<path fill="#FFB27D" d="M138.556,105.131c0,0-6.885,1.144-7.531-3.155c-0.646-4.298-1.97-7.045,2.398-7.958
				c4.368-0.912,5.471,0.6,6.036,1.982C140.023,97.382,140.33,104.723,138.556,105.131z"/>
			<path fill="#2B478B" d="M140.471,94.098c0.296,1.035-0.496,2.296-1.823,2.711c-1.972,0.616-1.536,3.034-2.423,3.001
				s-1.245-1.39-2.038-0.306c-0.676,0.925,0.563,2.021,0.478,2.529c-0.146,0.871-1.51,2.652-2.74,2.563
				c-1.229-0.089-3.529-5.931-3.069-7.738c0.46-1.807,2.3-3.713,4.042-3.976c1.741-0.263,4.16,0.489,4.719,0.489
				C138.174,93.371,140.311,93.539,140.471,94.098z"/>
			<path fill="#FFFFFF" d="M142.179,134.055c-0.115,0.992-0.324,1.667-0.652,1.887c-1.026,0.688-2.388,1.542-3.906,2.389
				c-5.385,3.003-12.758,5.9-14.258,0.826c-1.762-5.961-0.604-17.154,1.123-24.106c0.995-4.005,3.745-8.208,5.605-8.203
				c3.168,0.005,7.724,0.842,9.563,5.379c0.712,1.757,1.758,7.849,2.292,13.428C142.265,128.978,142.401,132.119,142.179,134.055z"
				/>
			<path fill="#DFEBFD" d="M129.771,106.885l0.717-1.616c0,0,6.361,0.647,7.44,4.302
				C137.929,109.57,133.012,106.963,129.771,106.885z"/>
			<path fill="#DFEBFD" d="M142.179,134.055c-0.115,0.992-0.324,1.667-0.652,1.887c-1.026,0.688-2.388,1.542-3.906,2.389
				c-1.585-0.964-4.838-3.263-5.6-5.973c-0.994-3.542-0.297-7.901-0.297-7.901L142.179,134.055z"/>
			<path fill="#FFFFFF" d="M131.062,112.336c0,0,0.552,15.226,1.417,18.235c1.476,5.134,14.942,6.962,14.942,6.962
				s0.794-0.9,0.439-2.393c0,0-8.05-6.346-8.286-7.553c-0.235-1.209,1.754-9.395-0.52-12.371S132.589,109.661,131.062,112.336z"/>
		</g>
		<g>
			<g>
				<path fill="#77A4E5" d="M114.18,172.968l-0.044-0.001c-0.363-0.006-0.643-0.303-0.608-0.644l2.419-24.159l2.111,0.188
					l-3.474,24.289C114.556,172.831,114.382,172.972,114.18,172.968z"/>
			</g>
			<g>
				<path fill="#77A4E5" d="M126.631,172.968l-0.044-0.001c-0.363-0.006-0.643-0.303-0.609-0.644l2.419-24.159l2.11,0.188
					l-3.473,24.289C127.007,172.831,126.834,172.972,126.631,172.968z"/>
			</g>
			<g>
				<path fill="#77A4E5" d="M150.006,172.968l0.044-0.001c0.362-0.006,0.643-0.303,0.608-0.644l-2.419-24.159l-2.111,0.188
					l3.474,24.289C149.63,172.831,149.804,172.972,150.006,172.968z"/>
			</g>
			<path fill="#77A4E5" d="M114.863,144.742l-2.296-20.179c-0.301-2.907,0.672-5.755,4.868-5.976l7.382-0.449
				c4.375-0.181,6.351,3.461,6.904,6.264l4.383,22.182L114.863,144.742z"/>
			<path fill="#77A4E5" d="M116.097,148.518h32.764c0.658,0,1.197-0.539,1.197-1.197v-1.474c0-0.658-0.539-1.196-1.197-1.196H114.9
				v2.67C114.9,147.979,115.438,148.518,116.097,148.518z"/>
			<path fill="#77A4E5" d="M115.83,148.518h19.346c0.511,0,0.93-0.419,0.93-0.93v-2.009c0-0.511-0.418-0.929-0.93-0.929H114.9v2.938
				C114.9,148.099,115.318,148.518,115.83,148.518z"/>
		</g>
	</g>
	<g>
		<path fill="#77A4E5" d="M166.781,83.448h-11.342c-0.521,0-0.947-0.426-0.947-0.947V71.554c0-0.521,0.426-0.947,0.947-0.947h11.342
			c0.521,0,0.947,0.426,0.947,0.947v10.947C167.728,83.022,167.302,83.448,166.781,83.448z"/>
		<path fill="#DFEBFD" d="M166.29,82.892h-10.359c-0.476,0-0.865-0.389-0.865-0.865v-9.999c0-0.476,0.389-0.865,0.865-0.865h10.359
			c0.476,0,0.865,0.389,0.865,0.865v9.999C167.155,82.502,166.766,82.892,166.29,82.892z"/>
		<g>
			<g>
				<circle fill="#77A4E5" cx="161.11" cy="72.335" r="0.274"/>
				<circle fill="#77A4E5" cx="163.288" cy="72.856" r="0.274"/>
				<circle fill="#77A4E5" cx="165.092" cy="74.459" r="0.274"/>
				<circle fill="#77A4E5" cx="165.882" cy="76.834" r="0.274"/>
				<circle fill="#77A4E5" cx="165.209" cy="79.458" r="0.274"/>
				<circle fill="#77A4E5" cx="163.488" cy="81.184" r="0.274"/>
				<circle fill="#77A4E5" cx="161.11" cy="81.88" r="0.274"/>
			</g>
			<g>
				<circle fill="#77A4E5" cx="158.924" cy="72.856" r="0.274"/>
				<circle fill="#77A4E5" cx="157.119" cy="74.459" r="0.274"/>
				<circle fill="#77A4E5" cx="156.329" cy="76.834" r="0.274"/>
				<circle fill="#77A4E5" cx="157.002" cy="79.458" r="0.274"/>
				<circle fill="#77A4E5" cx="158.724" cy="81.184" r="0.274"/>
			</g>
		</g>
		<g>
			<circle fill="#77A4E5" cx="161.311" cy="76.834" r="0.274"/>
			<g>
				<rect x="161.273" y="73.408" fill="#77A4E5" width="0.075" height="3.425"/>
			</g>
			<g>
				
					<rect x="162.075" y="74.965" transform="matrix(-0.6172 -0.7868 0.7868 -0.6172 202.4085 250.7071)" fill="#77A4E5" width="0.225" height="2.308"/>
			</g>
		</g>
	</g>
</g>
</svg>
