<?xml version="1.0" encoding="utf-8"?>
<!-- Generator: Adobe Illustrator 16.0.0, SVG Export Plug-In . SVG Version: 6.00 Build 0)  -->
<!DOCTYPE svg PUBLIC "-//W3C//DTD SVG 1.1//EN" "http://www.w3.org/Graphics/SVG/1.1/DTD/svg11.dtd">
<svg version="1.1" id="Слой_1" xmlns="http://www.w3.org/2000/svg" xmlns:xlink="http://www.w3.org/1999/xlink" x="0px" y="0px"
	 width="500px" height="200px" viewBox="0 0 4000 2500" enable-background="new 0 0 4000 2500" xml:space="preserve">
<rect fill="#FFFFFF" width="4000" height="2500"/>
<g>
	<path fill="#E7F3FE" d="M674.233,345.98c515.625-191.422,1039.694-22.187,1395.124,346.413
		c355.429,368.6,1101.358-254.413,1496.961,113.587c269.979,251.141,146.316,896.834-223.872,1176.5
		c-503.172,380.13-2377.707,391.545-2688.73,261.102c-531.482-222.904-3.392-635.68-251.482-1031.37
		C109.545,745.393,446.369,430.573,674.233,345.98z"/>
	<path fill="#CCE2FF" d="M3576.66,2133.686c-258.106-12.617-1136.143,8.758-1403.18,17.093
		c-267.037,8.334-577.007-10.996-738.021-39.421c-161.013-28.425-1091.726,2.42-1049.491,78.842s414.674,34.187,837.028,64.903
		c422.354,30.716,1372.236-3.84,1586.5,0c214.264,3.839,410.741-7.68,686.861-23.038S3726.271,2140.999,3576.66,2133.686z"/>
	<g>
		<path opacity="0.5" fill="#9EC8FF" d="M3016.879,451.521c1.02-9.122,1.562-18.388,1.562-27.782c0-4.957-0.163-9.875-0.45-14.759
			l-45.906-14.853c-2.825-19.354-8.375-37.821-16.254-55.002l30.439-37.456c-7.041-12.389-15.113-24.114-24.112-35.05
			l-45.911,14.981c-13.382-13.671-28.674-25.46-45.45-34.936l2.611-48.236c-12.812-5.833-26.208-10.605-40.078-14.204l-28.35,39.123
			c-11.05-1.86-22.397-2.843-33.977-2.843c-7.894,0-15.677,0.466-23.336,1.341l-26.247-40.57
			c-14.063,2.861-27.691,6.915-40.777,12.05l0.06,48.308c-17.285,8.587-33.175,19.559-47.235,32.492l-45.042-17.379
			c-9.571,10.458-18.261,21.736-25.938,33.725l28.424,39.021c-8.798,16.777-15.325,34.931-19.162,54.061l-46.621,12.406
			c-1.02,9.122-1.562,18.388-1.562,27.781c0,4.957,0.163,9.875,0.45,14.76l45.905,14.852c2.826,19.354,8.376,37.822,16.254,55.002
			l-30.438,37.456c7.041,12.389,15.113,24.115,24.112,35.051l45.911-14.981c13.381,13.671,28.674,25.46,45.45,34.936l-2.612,48.236
			c12.813,5.833,26.209,10.605,40.078,14.205l28.351-39.123c11.05,1.86,22.397,2.843,33.977,2.843
			c7.894,0,15.677-0.466,23.335-1.342l26.248,40.57c14.063-2.86,27.691-6.915,40.777-12.05l-0.061-48.308
			c17.286-8.588,33.176-19.559,47.236-32.492l45.042,17.379c9.57-10.458,18.26-21.736,25.938-33.726l-28.424-39.021
			c8.798-16.778,15.325-34.932,19.162-54.061L3016.879,451.521z M2771.003,520.789c-53.6,0-97.05-43.451-97.05-97.05
			c0-53.599,43.45-97.05,97.05-97.05c53.599,0,97.05,43.451,97.05,97.05C2868.053,477.338,2824.602,520.789,2771.003,520.789z"/>
		<g>
			<path fill="#FFFFFF" d="M2903.369,535.797c-1.127,0-2.26-0.379-3.194-1.156c-2.123-1.766-2.413-4.918-0.647-7.042
				c24.187-29.083,37.507-65.969,37.507-103.861c0-18.146-2.968-35.963-8.821-52.957c-0.899-2.611,0.488-5.457,3.1-6.356
				c2.609-0.899,5.456,0.488,6.355,3.099c6.215,18.043,9.366,36.956,9.366,56.213c0,40.224-14.141,79.38-39.817,110.256
				C2906.228,535.184,2904.804,535.797,2903.369,535.797z"/>
		</g>
		<g>
			<path fill="#FFFFFF" d="M2889.318,306.736c-1.229,0-2.461-0.451-3.427-1.36c-16.254-15.303-35.08-26.903-55.955-34.478
				c-2.596-0.942-3.937-3.81-2.995-6.406s3.812-3.936,6.405-2.995c22.164,8.042,42.148,20.354,59.4,36.598
				c2.011,1.893,2.105,5.057,0.213,7.068C2891.976,306.208,2890.648,306.736,2889.318,306.736z"/>
		</g>
		<g>
			<path fill="#FFFFFF" d="M2733.357,266.287c-2.235,0-4.271-1.51-4.844-3.777c-0.676-2.677,0.946-5.396,3.624-6.072
				c13.771-3.476,28.022-5.239,42.356-5.239c2.762,0,5,2.239,5,5s-2.238,5-5,5c-13.51,0-26.938,1.66-39.909,4.935
				C2734.175,266.238,2733.763,266.287,2733.357,266.287z"/>
		</g>
	</g>
	<rect x="1074.893" y="181.98" opacity="0.5" fill="#9EC8FF" width="1546.455" height="928.877"/>
	<rect x="1150.233" y="204.647" fill="#FFFFFF" width="1454.917" height="852.731"/>
	<g>
		<path fill="#303C60" d="M2390.871,645.345c69.334-66,187.834-64.5,185.334,36s5.801,109.945,34.333,162.667
			c99,182.933-118,172.167-208.5,178.167s-83-164.5-67-259S2370.584,664.657,2390.871,645.345z"/>
		<path fill="#4476BD" d="M2423.191,1221.577c-22.229,186.672-62.618,324.665-67.118,413.161
			c-4.499,88.495-22.499,436.939-22.499,436.939s49.498-3.461,53.998-10.961s92.995-203.99,88.495-325.484
			c-4.499-121.493,88.388-306.225,88.388-306.225l-22.391-181.25L2423.191,1221.577z"/>
		<path fill="#3E6BAB" d="M2444.538,1302.845l-34.763,14.546c-9.449,59.193-19.933,112.414-29.139,159.617
			c55.322,35.766,83.897,154.92,96.143,227.768c6.237-81.514,44.698-180.013,68.563-234.48L2444.538,1302.845z"/>
		<path fill="#4476BD" d="M2605.062,1202.759c0,0,74.922,95.566,72.572,203.99c-3.576,165.05-21.575,212.171,9.742,385.232
			c12.231,67.592-26.996,288.696-26.996,288.696s-33.514,2.627-51.513-6.335c1.5-16.245-21.656-280.52-66.762-402.007
			c-21.842-58.828-52.538-223.589-69.038-318.084c-16.499-94.495-19.499-113.994-13.499-113.994
			S2605.062,1202.759,2605.062,1202.759z"/>
		<path fill="#F09959" d="M2178.205,937.345c0,0,3.333-49.452-2-64.726c-5.334-15.274-51.334-28.607-51.334-28.607
			s-2,70.667,2.667,79.333s32,33.333,32,33.333L2178.205,937.345z"/>
		<path fill="#A2DFF2" d="M2436.864,901.313c-105.326,113.365-139.7,161.068-147.7,161.068
			c-25-44.13-108.039-137.465-108.039-137.465l-35.406,22.762c0,0,81.819,213.774,133.819,215.981s157.694-73.719,159.035-82.439
			S2436.864,901.313,2436.864,901.313z"/>
		<path fill="#96CFE0" d="M2327.015,1152.575c51.522-20.976,110.559-64.852,111.559-71.355c1.341-8.72-1.709-179.907-1.709-179.907
			c-22.963,24.715-43.008,46.634-60.403,65.804C2357.594,1037.383,2358.825,1113.892,2327.015,1152.575z"/>
		<path fill="#A2DFF2" d="M2543.871,826.678c0,0,100.786,50.521,122.786,139.948s-43.097,199.91-51.097,258.871
			c-8,58.961-191.99,69.332-191.99,6.219c0-60.504-46.1-188.938-43.498-221.652c6.104-76.76,118.313-170.792,118.313-170.792
			L2543.871,826.678z"/>
		<path fill="#F09959" d="M2514.582,710.826l43.271,133.429c0,0-46.2,35.654-125.271,121.423
			c3.07-57.075,50.886-119.291,50.886-119.291l-32.731-126L2514.582,710.826z"/>
		<path fill="#E38540" d="M2534.765,773.062l-20.183-62.235l-63.846,9.561l32.731,126c0,0-3.194,5.093-7.905,13.101
			C2506.395,836.601,2525.311,808.118,2534.765,773.062z"/>
		<path fill="#F09959" d="M2490.74,740.942c-11.67,42.461-56.863,65.836-88.976,57.01s-38.984-46.511-27.313-88.972
			c11.671-42.461,47.164-69.728,79.276-60.901C2485.84,656.904,2502.411,698.48,2490.74,740.942z"/>
		<path fill="#A2DFF2" d="M2415.525,1171.893c14.013,88.785-38.012,278.738-38.012,278.738s31.024,7.047,124.024-1.953
			s134-101.817,148-104.408c14-2.592,21.191,86.378,28.096,93.408c6.904,7.031,7.956-112.353-10.096-159.284
			c-32-83.194-25.734-118.482-13.773-168.888C2675.031,1019.881,2415.525,1171.893,2415.525,1171.893z"/>
		<path fill="#4476BD" d="M2335.831,2027.978c8.374,34.034-8.159,61.025-30.293,80.7c-18,16-73.333,22.799-70.667,30.799
			c2.667,8,68,10.535,90,7.201c22-3.333,28-14,55.384-13.986c17.95,0.01,21.283-14.592,13.283-32.636s-10.798-28.021-3.568-44.196
			C2397.199,2039.685,2335.831,2027.978,2335.831,2027.978z"/>
		<path fill="#4476BD" d="M2662.307,2027.978c-1.334,35.333-5.436,61.656,3.231,78.034c33.473,28,61.295,59.805,50.667,62
			c-50.667,10.464-70-19.904-98.667-28.535c-35.18-10.592,3.333-54.799-10.45-111.499c-7.663-31.523,53.117-23.966,53.117-23.966
			L2662.307,2027.978z"/>
		<path fill="#96CFE0" d="M2675.1,1307.356c-2.021-11.077-4.519-21.052-7.562-28.963c-32-83.194-25.734-118.482-13.773-168.888
			c0.942-3.974,1.323-7.463,1.21-10.521c2.699-8.988,5.214-18.098,7.424-27.263l-10.86-98.043l-78.31-93
			c-58.69,86-19.082,193-27.887,252c-8.804,59-107.145,134.228-107.145,134.228l3.199,20.933c4.39,28.716,31.01,48.66,59.783,44.668
			c40.53-5.624,93.698-16.927,117.358-38.882C2641.435,1272.379,2661.708,1288.818,2675.1,1307.356z"/>
		<path fill="#F09959" d="M2461.194,1263.53c0,0-43.414,12.146-48.604,14.863s-8.06,17.065-8.06,17.065s-24.849,21.577-15.33,29.219
			c9.52,7.642,26.52,26.985,48.996,17.985c13.796-5.524,24.488-56.214,33.534-56.62
			C2480.777,1285.636,2461.194,1263.53,2461.194,1263.53z"/>
		<path fill="#A2DFF2" d="M2584.138,869.345c46.464,1.316,88.588,84.998,103.27,157.6c14.682,72.601,30.131,175.815,30.131,175.815
			s-77,60.771-153.083,78.532c-66.37,15.494-100.254,21.554-100.254,21.554l-13.465-37.892l158.802-93.275
			c0,0-58.392-110-64.196-193C2539.538,895.678,2548.827,868.345,2584.138,869.345z"/>
		
			<rect x="2027.59" y="838.252" transform="matrix(0.9805 -0.1967 0.1967 0.9805 -131.51 427.6179)" fill="#F5DC95" width="118.129" height="75.022"/>
		<path fill="#F09959" d="M2150.346,931.345c1.599-30.423-13.475-71.916-22.141-71.856c-8.667,0.06,2.666,27.19-2,45.19
			C2123.676,914.432,2150.346,931.345,2150.346,931.345z"/>
		<path fill="#303C60" d="M2382.965,661.345c2.573,83.333,99.906,76.945,126.573,71.806s-32.464,175.809,18.333,186.249
			c37.302,7.667,28.898-50.682,70.334-46.781c18.333,1.726,36.758,30.064,36.758,30.064s-2.758-17.458-16.758-30.064
			c-14-12.607-50.704-89.94-60.353-145.274c-9.647-55.333-74.981-91.123-94.314-92.228s-66.667,20.895-66.667,20.895
			L2382.965,661.345z"/>
		<g>
			<path fill="#303C60" d="M2527.01,938.261c-1.315,0-2.65-0.139-4.013-0.429c-16.258-3.461-24.142-20.547-24.812-53.771
				c-0.573-28.479,4.135-65.027,9.118-103.722c2.015-15.635,4.097-31.802,5.813-47.455c0.146-1.337,1.338-2.306,2.688-2.156
				c1.337,0.146,2.303,1.35,2.156,2.688c-1.721,15.699-3.807,31.889-5.823,47.546c-9.644,74.868-18.753,145.583,11.874,152.104
				c0.953,0.203,1.903,0.301,2.847,0.302c17.59,0.002,33.431-34.282,42.666-67.673c0.357-1.297,1.698-2.058,2.997-1.699
				c1.297,0.359,2.058,1.701,1.698,2.998C2568.124,889.032,2551.728,938.255,2527.01,938.261z"/>
		</g>
		<g>
			<path fill="#303C60" d="M2520.502,957.63c-5.54,0-10.372-2.146-14.398-6.402c-33.18-35.074-0.372-211.056,1.041-218.53
				c0.25-1.322,1.53-2.189,2.846-1.941c1.322,0.25,2.191,1.524,1.941,2.847c-0.341,1.806-33.771,180.997-2.289,214.276
				c3.659,3.868,7.994,5.412,13.243,4.716c17.231-2.275,27.179-25.653,35.954-46.279c8.514-20.008,16.518-38.905,30.784-38.407
				c1.345,0.047,2.396,1.175,2.349,2.52c-0.046,1.345-1.176,2.426-2.521,2.349c-0.117-0.004-0.235-0.006-0.352-0.006
				c-10.693,0-18.022,17.226-25.777,35.451c-9.286,21.825-19.811,46.562-39.799,49.202
				C2522.495,957.563,2521.487,957.63,2520.502,957.63z"/>
		</g>
		
			<ellipse transform="matrix(0.7901 0.613 -0.613 0.7901 978.9192 -1378.1399)" fill="#F09959" cx="2501.563" cy="740.166" rx="14.666" ry="20.259"/>
	</g>
	<g>
		<path fill="#303C60" d="M1756.877,1057.744c23.763,47.518,4.093,102.236-42.644,121.569c-47.043,19.46-98.482,8.407-122.245-39.11
			c-23.763-47.518-6.115-104.497,39.418-127.267S1733.115,1010.227,1756.877,1057.744z"/>
		<g>
			<path fill="#303C60" d="M1628.783,1185.02c-5.246,0.001-15.583-1.854-28.726-13.516c-10.783-9.567-18.525-24.236-21.801-41.305
				c-4.134-21.545-1.441-46.313,8.002-73.616c0.439-1.272,1.824-1.946,3.099-1.507c1.272,0.44,1.946,1.827,1.507,3.099
				c-9.161,26.487-11.793,50.41-7.821,71.106c3.073,16.02,10.265,29.72,20.249,38.578c16.665,14.788,27.842,12.096,27.955,12.067
				c1.291-0.338,2.628,0.427,2.979,1.714c0.351,1.288-0.388,2.615-1.672,2.98C1632.388,1184.668,1631.067,1185.02,1628.783,1185.02z
				"/>
		</g>
		<g>
			<path fill="#A8CEFF" d="M1701.45,1242.649c27.045,6.061,61.188,81.213,77.909,129.356
				c16.865,48.563,45.454,108.802,64.17,127.519c18.716,18.716,141.709,62.109,141.709,62.109s-303.891,0.587-297.665-0.013
				C1693.798,1561.021,1701.45,1242.649,1701.45,1242.649z"/>
			<path fill="#93BBF0" d="M1862.784,1537.49c-16.638-2.377-76.651,5.348-51.101-5.348c25.551-10.695,21.985-24.362,21.985-24.362
				s-36.246,30.304-42.782,3.805c-5.636-22.849-7.792-103.52-29.183-184.376c-17.673-40.091-40.799-80.2-60.253-84.56
				c0,0-0.684,28.467-1.81,68.386c7.462,88.338,20.129,218.119,23.342,250.83c40.279,0.063,107.692,0.001,164.089-0.074
				l37.508-1.788C1924.58,1560.003,1879.421,1539.867,1862.784,1537.49z"/>
			<path fill="#A8CEFF" d="M1602.021,1225.996c0,0-86.027,48.068-106.081,58.292c-20.053,10.223,56.183,310.272,73.136,323.13
				c16.954,12.858,166.221,2.214,183.215-13.988s-13.04-65.922,1.666-165.474c14.706-99.551-44.856-185.499-52.508-185.306
				c-7.652,0.194-57.591-16.654-57.591-16.654H1602.021z"/>
			<path fill="#93BBF0" d="M1569.076,1607.417c16.954,12.858,123.767,13.147,169.232-1c5.132-1.597,28.431-10.881,28.976-19.608
				c-5.486-1.031-27.272,1.587-36.116-0.445c-30.75-7.066-47.685-45.158-47.685-45.158s-16.935-6.092-54.814-22.135
				c-37.88-16.044-22.282-64.619-23.174-86.011c-0.891-21.391-37.435-91.357-106.064-144.39l-6.295,2.819
				C1488.24,1340.253,1553.391,1595.521,1569.076,1607.417z"/>
			<g>
				<path fill="#75A1DE" d="M2160.112,1372.006h-207.145l-94.343,200.767h228.171l85.4-181.735
					C2176.357,1382.182,2169.896,1372.006,2160.112,1372.006z"/>
				<g>
					<path fill="#3E6BAB" d="M1870.968,1575.621h-124.646c-7.732,0-14-6.268-14-14s6.268-14,14-14h115.714l78.235-168.376
						c3.259-7.012,11.585-10.052,18.596-6.797c7.012,3.258,10.055,11.584,6.797,18.596l-81.999,176.477
						C1881.368,1572.461,1876.416,1575.621,1870.968,1575.621z"/>
				</g>
			</g>
			<path fill="#F09959" d="M1654.814,1532.736c54.072,10.102,67.37,22.516,96.845,27.267c33.415,5.386,29.44,12.77,4.624,12.77
				c-24.817,0-87.18,0.964-108.585-3.79C1626.293,1564.229,1654.814,1532.736,1654.814,1532.736z"/>
			<path fill="#A8CEFF" d="M1489.182,1289.918c-41.443,132.502-100.192,282.854-90.834,282.854c9.358,0,247.319,9.619,256.679,1.607
				s6.686-38.76,5.349-42.771s-135.285-27.782-135.285-27.782s17.64-34.375,24.324-101.557
				C1556.1,1335.088,1497.042,1264.79,1489.182,1289.918z"/>
		</g>
		<path fill="#F09959" d="M1633.528,1110.857l-33.383,121.99c0,0,56.409,88.05,71.918,80.228s-8.669-71.567-8.669-80.228
			s24.178-98.036,24.178-98.036L1633.528,1110.857z"/>
		<path fill="#E38540" d="M1664.553,1239.065c-0.719-2.886-1.159-5.053-1.159-6.218c0-8.661,24.178-98.036,24.178-98.036
			l-54.044-23.954l-11.047,40.368C1632.13,1192.927,1649.539,1220.701,1664.553,1239.065z"/>
		<path fill="#F09959" d="M1758.439,1108.84c6.359,35.375,2.17,82.357-29.243,94.302c-31.413,11.945-69.251-10.908-84.514-51.044
			c-15.263-40.137-2.17-82.357,29.243-94.303C1705.338,1045.85,1750.842,1066.577,1758.439,1108.84z"/>
		
			<ellipse transform="matrix(0.9421 -0.3354 0.3354 0.9421 -285.8093 614.2986)" fill="#F09959" cx="1635.615" cy="1134.625" rx="17.529" ry="23.768"/>
		<path fill="#303C60" d="M1758.806,1064.399c-10.695,83.011-111.549,72.316-111.549,72.316s-20.801-27.345-30.16-13.004
			c-9.358,14.341,12.982-84.158,70.854-87.262C1706.966,1035.429,1758.806,1064.399,1758.806,1064.399z"/>
		<ellipse fill="#303C60" cx="1601.675" cy="1029.303" rx="54.625" ry="51.25"/>
	</g>
	<g>
		<g>
			<polygon fill="#2E5B9A" points="1492.874,2175.938 1505.365,2175.938 1586.022,1802.233 1558.542,1802.233 			"/>
			<polygon fill="#2E5B9A" points="1881.218,2175.938 1868.728,2175.938 1774.858,1789.022 1802.338,1789.022 			"/>
			<g>
				<path fill="#2E5B9A" d="M1635.39,1816.232c-50.037,0-81.736-8.987-101.966-28.693c-25.077-24.43-30.266-62.27-30.341-111.571
					c-0.06-38.802-0.982-64.072-3.086-84.498c-0.792-7.69,4.802-14.568,12.493-15.36c7.691-0.794,14.568,4.802,15.36,12.493
					c2.204,21.413,3.171,47.528,3.232,87.322c0.076,49.967,6.415,76.493,21.879,91.558c15.863,15.453,44.548,21.829,92.979,20.615
					c46.771-1.154,78.965-7.697,104.833-12.955c34.023-6.914,58.606-11.912,87.758,2.019c6.977,3.334,9.93,11.691,6.596,18.668
					s-11.692,9.931-18.668,6.596c-20.693-9.887-38.244-6.318-70.109,0.156c-26.945,5.477-60.479,12.293-109.718,13.509
					C1642.787,1816.185,1639.037,1816.232,1635.39,1816.232z"/>
			</g>
		</g>
		<path fill="#2E5B9A" d="M1521.714,1574.38l76.591,3.187l-20.39,211.467c0,0-57.092-36.443-56.201-75.66
			C1522.605,1674.155,1521.714,1574.38,1521.714,1574.38z"/>
		<path fill="#F09959" d="M1899.807,1594.079c64.766-9.825,86.775-6.729,126.41,67.036
			c39.634,73.765,92.396,206.578,122.737,223.732c45.689,25.831,60.829,89.167,79.587,86.32c18.76-2.846,30.834,5.445,10.422,22.411
			c-20.414,16.966-53.379,31.412-64.653,28.4c-11.274-3.013-20.015-51.717-49.458-67.532
			c-29.442-15.816-20.596-28.807-18.662-42.796c1.935-13.989-85.943-78.395-152.185-158.494
			c-40.476-48.944-61.321-81.25-64.41-110.529C1886.504,1613.35,1899.807,1594.079,1899.807,1594.079z"/>
		<path fill="#E38540" d="M2060.361,1861.557c-15.042-38.158-30.127-101.139-44.309-158.879
			c-20.169-82.113-41.308-101.608-54.701-110.368c-16.191-4.058-35.377-2.2-61.544,1.77c0,0-13.303,19.271-10.213,48.549
			c3.089,29.279,23.934,61.585,64.41,110.529C1988.883,1795.332,2029.754,1833.151,2060.361,1861.557L2060.361,1861.557z"/>
		<path fill="#2E5B9A" d="M1919.532,1659.004c0,0-17.234,130.019-33.277,143.232c-11.476,9.453-19.608,10.082-27.63-28.695
			c-8.022-38.777,12.478-183.507,12.478-183.507L1919.532,1659.004z"/>
		<polygon fill="#F09959" points="1905.801,1729.358 1746.321,1756.155 1836.357,1627.055 1904.881,1613.102 1945.971,1622.551 		
			"/>
		<path fill="#2E5B9A" d="M2106.189,1911.651c-5.17,20.837-4.547,36.238,4.437,43.955c8.984,7.717,42.927,65.071,42.927,65.071
			l10.574-1.604l-24.482-52.479L2106.189,1911.651z"/>
		<path fill="#2E5B9A" d="M2174.31,2021.979c11.274,3.012,44.239-11.435,64.653-28.4c20.412-16.966,8.338-25.257-10.421-22.411
			c-1.057,0.161-2.104,0.095-3.145-0.155c-9.37,20.93-40.186,36.63-50.132,14.519c-9.854-21.908-52.08-65.519-69.089-74.853
			c0.04,0.344,0.055,0.674,0.013,0.973c-1.934,13.988-10.78,26.979,18.662,42.796
			C2154.295,1970.263,2163.035,2018.967,2174.31,2021.979z"/>
		<path fill="#E38540" d="M1574.301,1599.287c-56.583,101.54-17.932,166.077,50.838,172.652
			c68.771,6.575,177.334-5.98,240.616-58.566c63.282-52.587,115.229-108.19,107.973-116.486S1574.301,1599.287,1574.301,1599.287z"
			/>
		<path fill="#F09959" d="M1895.167,1675.047c11.587-34.761,24.943-61.429,50.804-61.913c27.187-0.509,43.914,13.639,45.076,58.121
			c1.383,52.966,3.249,228.39,0.803,306.388c-1.852,59.043,15.356,77.95,13.903,139.502c-1.095,46.355,48.327,22.939,29.237,46.98
			c-13.128,16.533-52.208,11.127-76.213,8.074c-21.388-2.72,11.072-66.818-18.531-83.957c-25.401-14.705-25.899-38.582-9.856-56.655
			c16.043-18.074,1.783-71.552-8.913-108.986c-10.695-37.435-27.285-77.935-38.18-166.445
			C1880.19,1730.922,1888.091,1696.277,1895.167,1675.047z"/>
		<path fill="#2E5B9A" d="M2018.076,2145.204c-8.188,2.499-18.282,5.251-27.078,5.545c-17.826,0.594-23.174-19.015-24.362-45.652
			c-1.038-23.259-17.931-59.885-35.253-74.736c-0.319,0.423-0.646,0.836-0.993,1.227c-16.043,18.073-15.545,41.95,9.856,56.655
			c29.603,17.139-2.856,81.237,18.531,83.957c24.005,3.053,63.085,8.459,76.213-8.074
			C2047.396,2148.502,2031.998,2147.26,2018.076,2145.204z"/>
		<path fill="#2E5B9A" d="M1934.4,2024.963c0,0-25.995,27.148-23.618,38.438c2.376,11.29,10.393,39.812,11.732,61.797
			s2.528,47.222,2.528,47.222s9.357,0,10.101-2.657c0.744-2.656,5.942-89.361,5.942-89.361L1934.4,2024.963z"/>
		<path fill="#75A1DE" d="M1547.05,1590.034c0,0-33.562,142.43,8.841,181.905s218.479,3.967,259.951,1.602
			c28.076-1.602,55.26,32.666,55.26,32.666s-19.608-79.465-6.239-143.639c13.37-64.173,34.944-68.489,34.944-68.489l-28.705-4.045
			H1547.05z"/>
		<path fill="#A8CEFF" d="M1539.448,1552.795c14.353,30.448-15.448,83.035-5.004,98.188c10.444,15.151,70.234,2.122,109.415-29.413
			c39.18-31.535,113.336-38.469,113.336-38.469L1539.448,1552.795z"/>
		<path fill="#2E5B9A" d="M1600.146,1812.307c118.545,4.456,243.327,2.352,243.327-15.313c0-17.664-5.348-30.143-97.151-23.013
			c-91.804,7.131-154.194,16.936-181.825,10.696S1600.146,1812.307,1600.146,1812.307z"/>
	</g>
	<path fill="#2E5B9A" d="M2864.287,1605.045H1194.074c-7.13,0-12.91-5.78-12.91-12.91v-6.453c0-7.129,5.78-12.909,12.91-12.909
		h1670.213c7.13,0,12.91,5.78,12.91,12.909v6.453C2877.197,1599.265,2871.417,1605.045,2864.287,1605.045z"/>
	<g>
		<path fill="#F09959" d="M3086.216,1140.271c11.485,40.488-16.563,82.21-47.462,90.976c-30.898,8.765-52.946-18.747-64.432-59.235
			c-11.484-40.488,4.253-80.415,35.151-89.18S3074.731,1099.784,3086.216,1140.271z"/>
		<path fill="#F09959" d="M2912.979,1924.823c0,0,79.188,122.992,89.884,128.34s37.433,6.685,27.406,26.737
			c-10.027,20.054-14.037,98.93-23.396,102.94s-89.571,13.368-77.539,0c12.032-13.369,19.433-6.685,25.503-30.749
			c6.07-24.063,14.602-69.518,3.239-78.875c-11.362-9.358-80.88-93.582-80.88-93.582L2912.979,1924.823z"/>
		<path fill="#F09959" d="M2514.421,1977.643c0,0-96.26,158.65-114.086,172.911s-76.651,35.651-28.521,39.217
			s71.304-16.043,101.607-24.956s67.739-14.261,53.479-37.435s-8.337-73.764,22.405-105.851
			C2580.047,1989.443,2514.421,1977.643,2514.421,1977.643z"/>
		<path fill="#6791C9" d="M3005.648,1609.751c0,0-238.291-6.231-332.769,71.304c-55.26,83.781-188.945,330.983-199.336,358.225
			c7.131,7.131,47.239,19.996,65.065,18.214c52.586-62.702,122.093-116.91,149.737-166.093
			c34.066-60.608,44.564-90.912,99.825-96.26s180.042-23.174,217.477-23.174S3005.648,1609.751,3005.648,1609.751z"/>
		<polygon fill="#2E5B9A" points="3213.448,2190.199 3200.957,2190.199 3111.387,1816.494 3138.866,1816.494 		"/>
		<polygon fill="#2E5B9A" points="2839.274,2190.199 2851.766,2190.199 2954.548,1803.283 2927.068,1803.283 		"/>
		<path fill="#75A1DE" d="M3141.404,1593.429l-138.541,23.912c0,0-184.104,1.691-268.258,17.366
			c-76.563,14.261-87.845,101.253,0,221.042c49.9,68.047,92.093,122.327,178.374,183.53c21.946-16.114,30.345-22.21,36.409-60.981
			c-6.245-8.562-22.409-62.15-27.426-72.637c-47.724-99.76-111.423-136.037-112.307-145.853
			c10.695-17.379,283.3,90.592,337.502,27.078C3198.906,1726.249,3141.404,1593.429,3141.404,1593.429z"/>
		<path fill="#F37168" d="M3147.158,1279.785c-36.488-5.122-73.649,1.814-108.404,26.976
			c-30.37,30.957-64.733,82.009-62.628,166.222c2.674,106.95-16.55,113.818,3.503,143.229
			c83.637,34.538,226.684,182.932,192.997,23.843c-24.392-115.193,53.496-201.057-9.337-328.835
			C3158.175,1300.821,3151.784,1290.734,3147.158,1279.785z"/>
		<path fill="#D54A41" d="M2976.103,1513.23c-1.627,55.756-9.5,72.183-3.479,89.662c34.097,3.481,96.468,17.125,112.054,38.945
			c17.825,24.956,35.651,28.521,27.333,10.101c-8.318-18.42-30.304-44.564,3.565-134.288
			c33.869-89.725,49.913-150.332,16.638-212.723L2976.103,1513.23z"/>
		<path fill="#F09959" d="M3147.158,1279.785c-22.469-53.188-27.986-112.948-27.986-112.948l-58.822,17.379
			c0,0,33.422,74.865,1.336,101.603c-6.82,5.685-14.731,12.583-22.932,20.941C3073.509,1281.6,3110.67,1274.663,3147.158,1279.785z"
			/>
		<path fill="#E38540" d="M3120.944,1181.001c-3.484-3.1-7.844-6.97-12.425-11.017l-47.979,14.176
			c-0.034,0.086-0.067,0.173-0.102,0.26c1.159,2.652,13.379,31.167,14.989,58.599c14.299-8.675,29.953-22.819,47.852-47.526
			C3122.309,1190.011,3121.541,1185.122,3120.944,1181.001z"/>
		<path fill="#F09959" d="M3105.803,1296.514c-60.586,21.189-53.865,85.014-109.623,179.143
			c-28.857,48.713-55.657,47.988-55.657,47.988s-67.677,0.542-149.532-9.467c-51.257-6.268-54.512,8.992-18.861,21.737
			c71.898,25.706,146.512,53.375,206.671,46.691c60.159-6.685,163.054-160.181,168.358-200.137
			C3154.495,1327.21,3136.314,1285.844,3105.803,1296.514z"/>
		<g>
			<path fill="#2E5B9A" d="M3074.615,1830.497c-3.757,0-7.604-0.05-11.556-0.146c-49.238-1.216-82.772-8.032-109.719-13.509
				c-31.864-6.477-49.417-10.043-70.107-0.156c-6.976,3.333-15.334,0.381-18.668-6.596s-0.381-15.334,6.596-18.668
				c29.15-13.931,53.734-8.935,87.757-2.019c25.868,5.258,58.062,11.801,104.833,12.955c52.667,1.304,84.888-6.594,101.348-24.847
				c14.701-16.302,19.03-43.476,13.624-85.52c-1.831-14.241-3.661-26.08-5.276-36.526c-4.533-29.31-7.527-48.674-3.829-78.524
				c3.447-27.827,12.68-64.952,34.066-136.978c2.201-7.411,9.994-11.634,17.406-9.436c7.412,2.201,11.637,9.994,9.436,17.406
				c-40.005,134.727-37.971,147.883-29.408,203.253c1.641,10.611,3.5,22.639,5.377,37.234c6.525,50.752-0.021,85.02-20.602,107.841
				C3164.683,1819.782,3130.102,1830.497,3074.615,1830.497z"/>
		</g>
		<path fill="#D54A41" d="M2520.965,2111.357c-63.871,31.236-98.249,49.139-118.725,47.432c-4.833-0.402-8.84-0.896-12.2-1.42
			c-22.777,13.463-59.136,29.371-18.227,32.401c48.13,3.565,71.304-16.043,101.607-24.956c30.305-8.913,67.739-14.261,53.479-37.435
			C2524.167,2122.939,2522.183,2117.487,2520.965,2111.357z"/>
		<path fill="#D54A41" d="M3009.826,2055.773c-1.562,50.569-8.512,100.681-39.441,110.146c-8.199,2.509-15.672,2.868-22.284,1.987
			c-4.864,6.015-10.799,6.082-18.766,14.934c-12.032,13.368,68.181,4.01,77.539,0c9.358-4.011,13.369-82.887,23.396-102.94
			C3038.506,2063.428,3021.935,2059.585,3009.826,2055.773z"/>
		<g>
			<path fill="#75A1DE" d="M2763.803,1575.621h-202.911c-5.447,0-10.4-3.16-12.696-8.101l-81.999-176.477
				c-3.258-7.012-0.215-15.338,6.797-18.596c7.014-3.257,15.338-0.215,18.596,6.797l78.235,168.376h193.979c7.732,0,14,6.268,14,14
				S2771.535,1575.621,2763.803,1575.621z"/>
		</g>
		<path fill="#F09959" d="M2806.254,1515.943c-40.999-0.594-81.661-25.032-101.863-21.467c-20.203,3.565-86.159,49.318-77.84,51.101
			c8.318,1.783,60.607-25.32,62.391-25.732c1.782-0.412,13.072,18.771,40.999,25.817c27.928,7.046,0.198-20.93,86.767,5.215
			C2872.995,1567.877,2806.254,1515.943,2806.254,1515.943z"/>
		<path fill="#F2E5DE" d="M3141.125,1231.247l6.033,48.538c0,0-53.055,3.157-79.456,18.012
			c-26.401,14.855-65.363,57.774-65.363,57.774l31.831-54.804l4.584-35.058L3141.125,1231.247z"/>
		<path fill="#F2E5DE" d="M3118.546,1290.667c-39.408-7.385-57.638,27.927-83.188,85.564
			c-25.551,57.637-69.167,127.64-77.84,136.665s-146.173,0-146.173,0s-4.159,39.812,0,44.564c4.159,4.754,27.929,4.16,27.929,4.16
			s9.506,7.591,18.419,13.6s84.376,17.299,119.434,15.516c35.058-1.782,67.145-4.754,71.897-10.102
			c4.754-5.348,100.42-152.709,106.362-205.592C3161.328,1322.159,3138.658,1294.436,3118.546,1290.667z"/>
		<path fill="#303C60" d="M3002.339,1048.234c-74.53,3.565-62.841,115.686-62.841,115.686s19.357,5.976,59.911-0.708
			c-3.119-12.033-1.782-42.782-1.782-42.782s4.712,24.956,10.695,40.108c8.573,3.931,18.271,0.446,34.761-3.539
			c8.467,35.625,32.395,50.679,48.776,55.828c18.102,5.691,37.262,12.478,58.652,1.783c21.392-10.696,9.628-120.028-1.729-142.013
			c-17.05-33.002-45.388-62.54-94.409-46.942C3029.789,1033.477,3002.339,1048.234,3002.339,1048.234z"/>
		<path fill="#303C60" d="M3131.946,1181.394l30.471,44.505c0,0-33.77,84.376,64.447,122.604
			c76.92,29.938,67.859,82.689,33.101,135.739c-34.759,53.051,20.797,99.376,20.797,99.376s8.473-58.767,83.209-69.858
			c101.904-15.124,130.759-151.94,54.645-220.351c-62.984-56.61-82.146-9.729-124.781-60.53
			c-42.635-50.801-123.118-16.487-123.118-16.487l-29.499-43.02L3131.946,1181.394z"/>
		<g>
			<path fill="#303C60" d="M3453.672,1430.957c-0.396,0-0.796-0.096-1.168-0.299c-1.18-0.646-1.613-2.127-0.968-3.308
				c25.684-46.938,4.726-103.809-5.815-119.214c-1.112-1.627-2.169-3.275-3.287-5.021c-10.361-16.173-23.257-36.301-91.988-48.674
				c-16.463-2.964-29.818-12.768-43.957-23.146c-29.319-21.526-62.554-45.92-134.754-12.69c-1.223,0.564-2.67,0.028-3.231-1.194
				c-0.563-1.223-0.028-2.669,1.194-3.231c74.809-34.429,109.27-9.132,139.675,13.188c13.671,10.036,26.584,19.516,41.937,22.279
				c70.824,12.749,84.355,33.87,95.228,50.841c1.098,1.714,2.135,3.332,3.206,4.897c6.352,9.283,14.197,28.511,17.409,50.541
				c2.785,19.105,3.079,47.412-11.34,73.765C3455.368,1430.499,3454.533,1430.957,3453.672,1430.957z"/>
		</g>
		<g>
			<path fill="#303C60" d="M3115.671,1226.724c-4.861,0-10.121-0.423-15.785-1.271c-25.978-3.892-60.83-18.665-63.566-101.675
				c-0.045-1.345,1.01-2.471,2.354-2.515c1.384-0.061,2.471,1.01,2.515,2.354c1.133,34.359,7.957,59.791,20.282,75.588
				c9.383,12.025,21.819,18.834,39.138,21.429c24.256,3.632,40.34-0.866,47.812-13.373c0.692-1.154,2.188-1.529,3.342-0.842
				c1.154,0.69,1.531,2.187,0.842,3.342C3145.861,1221.045,3133.469,1226.724,3115.671,1226.724z"/>
		</g>
	</g>
	<g>
		<path fill="#96CFE0" d="M789.673,1285.624c-86.504,49.464-206.823,255.077-181.422,288.632
			c25.401,33.556,161.762-54.679,161.762-54.679L789.673,1285.624z"/>
		<path fill="#303C60" d="M951.285,1047.177c-33.032-0.897-20.774-25.45-58.76-15.646c-19.97,5.154-5.228,13.369-31.171,10.695
			c-25.944-2.674-38.71-5.348-41.981,11.587s-4.851,22.282-17.329,24.956s-18.113,24.957,0,40.108s9.308,21.391,5.297,33.869
			c-4.011,12.479,9.661,13.37,17.085,24.957c7.425,11.587-6.835,13.779,3.86,23.824c10.696,10.045,25.698,9.154,25.698,9.154
			l45.025-86.329L951.285,1047.177z"/>
		<path fill="#2E5B9A" d="M1624.261,2083.389c0,0,48.127,1.337,85.56-13.369c37.433-14.706,62.833-37.433,56.149-10.695
			c-6.685,26.738-37.433,72.609-64.17,77.08c-26.738,4.47-36.096,33.881-50.801,33.881s-36.096-33.881-73.528-50.815
			C1543.354,2104.035,1624.261,2083.389,1624.261,2083.389z"/>
		<path fill="#2E5B9A" d="M1244.985,2078.877c0,0,20.244,27.914,55.466,47.328c36.381,20.053,78.356,29.709,52.331,38.777
			s-64.077,16.119-101.195,5.34c-26.033-7.561-56.554-9.145-64.616-21.443c-8.062-12.299,9.49-43.187,2.187-89.353
			C1183.307,2022.542,1244.985,2078.877,1244.985,2078.877z"/>
		<path fill="#3E6BAB" d="M1019.618,1630.224c0,0,278.796,104.391,301.258,133.573c22.462,29.184,315.519,295.02,315.519,314.628
			s-49.912,55.261-49.912,55.261s-251.346-154.194-313.737-232.629c-62.391-78.434-214.661-116.247-295.613-123.511
			S1019.618,1630.224,1019.618,1630.224z"/>
		<path fill="#4476BD" d="M1030.313,1630.224c0,0,190.738-7.131,231.737,0c41,7.13,130.93,7.047,72.108,173.06
			c-46.105,130.119-61.323,294.859-61.323,294.859l-91.671,22.521c0,0,3.637-296.229,47.38-375.105
			c-31.856,5.25-90.328,15.495-171.363,38.669c-150.331,42.99-232.756,21.462-232.756,21.462l-22.382-78.435L1030.313,1630.224z"/>
		<polygon fill="#A86B48" points="871.031,1137.762 824.426,1275.46 883.304,1314.229 916.67,1195.247 		"/>
		<path fill="#7A4E34" d="M888.57,1295.454l28.101-100.207l-45.639-57.485l-17.048,50.368
			C859.867,1233.619,874.081,1271.249,888.57,1295.454z"/>
		<path fill="#A86B48" d="M989.912,1161.069c1.512,41.88-19.06,78.127-51.758,81.352c-32.697,3.224-62.538-27.971-66.65-69.676
			c-4.113-41.705,19.06-78.127,51.757-81.352C955.959,1088.168,987.525,1094.981,989.912,1161.069z"/>
		<path fill="#A2DFF2" d="M802.043,1271.449c-143.056,96.612-54.079,252.734-22.667,366.821
			c26.756,97.174,25.884,155.898,29.895,155.898c4.011,0,102.396-14.706,158.545-65.507
			c56.149-50.802,94.109-100.008,94.109-100.008s-71.936-12.813-95.446-105.872c-11.936-47.245-6.509-72.896-33.718-147.761
			C905.553,1300.156,802.043,1271.449,802.043,1271.449z"/>
		<path fill="#A2DFF2" d="M802.043,1271.449l15.322-37.49c0,0,48.577,32.087,67.962,47.238
			c19.385,15.152,31.343,18.718,31.343,18.718s7.006,53.741,2.456,48.864C861.792,1287.333,802.043,1271.449,802.043,1271.449z"/>
		<g>
			<polygon fill="#2E5B9A" points="738.642,2190.199 751.133,2190.199 840.704,1816.494 813.224,1816.494 			"/>
			<polygon fill="#2E5B9A" points="1112.815,2190.199 1100.324,2190.199 997.542,1803.283 1025.022,1803.283 			"/>
			<g>
				<path fill="#2E5B9A" d="M877.788,1830.493c-50.037,0-81.737-8.987-101.966-28.693c-25.078-24.429-30.266-62.27-30.341-111.571
					c-0.158-103.646-5.89-125.077-35.07-188.37c-3.237-7.021-0.169-15.338,6.853-18.575c7.022-3.236,15.339-0.17,18.575,6.853
					c30.843,66.901,37.477,91.493,37.642,200.05c0.076,49.968,6.415,76.493,21.879,91.558
					c15.863,15.453,44.539,21.822,92.979,20.615c46.771-1.154,78.964-7.697,104.833-12.955c34.023-6.916,58.607-11.912,87.758,2.019
					c6.977,3.334,9.929,11.691,6.596,18.668c-3.333,6.976-11.691,9.929-18.668,6.596c-20.69-9.886-38.243-6.319-70.109,0.156
					c-26.946,5.477-60.48,12.293-109.718,13.509C885.186,1830.445,881.435,1830.493,877.788,1830.493z"/>
			</g>
		</g>
		<g>
			<path fill="#3E6BAB" d="M1495.916,1574.003h-202.911c-7.732,0-14-6.268-14-14s6.268-14,14-14h193.979l78.235-168.376
				c3.259-7.012,11.585-10.053,18.596-6.797c7.012,3.258,10.055,11.584,6.797,18.596l-81.999,176.477
				C1506.316,1570.843,1501.363,1574.003,1495.916,1574.003z"/>
		</g>
		<path fill="#96CFE0" d="M807.34,1412.114c0,0,35.652,108.738,79.771,153.749s132.907,60.132,160.708,58.364
			c-22.164-8.909-64.368-34.265-81.34-101.445c-11.936-47.245-6.509-72.896-33.718-147.761
			c-20.198-55.574-82.431-85.707-113.167-97.55c38.363,27.555,86.328,72.931,101.068,107.458
			C937.024,1423.256,807.34,1412.114,807.34,1412.114z"/>
		<path fill="#A86B48" d="M1299.417,1507.545c0,0,61.496-28.074,68.181-25.4s74.865,43.843,74.865,50.664
			c0,6.822-60.16-25.422-60.16-25.422s6.685,17.822,2.674,26.37s-50.255,8.548-91.972,5.874S1299.417,1507.545,1299.417,1507.545z"
			/>
		<path fill="#A2DFF2" d="M809.306,1328.104c-56.688,116.187,137.77,233.97,253.135,244.44
			c115.365,10.471,252.431-27.282,252.431-27.282l-15.455-37.718c0,0-231.125-30.165-236.976-34.391
			C1056.589,1468.93,830.068,1285.551,809.306,1328.104z"/>
		
			<ellipse transform="matrix(0.9347 -0.3554 0.3554 0.9347 -351.7617 382.4072)" fill="#A86B48" cx="864.892" cy="1148.571" rx="19.385" ry="26.767"/>
		<path fill="#303C60" d="M989.99,1053.219c15.664-6.536,33.304-13.539,27.845,13.072c-2.376,11.587,0,8.319,4.16,19.014
			c4.159,10.696-10.484,19.095-15.238,25.037c-4.754,5.942,6.919,12.397-2.588,19.528c-9.507,7.13-22.041-2.643-30.898,0
			c-26.442,7.891-23.174-12.906-38.029-17.232c-14.855-4.326-22.136-3.658-24.956,5.85c-2.82,9.507,10.398,40.795-0.892,37.824
			c-11.29-2.971-13.832,22.282-16.869,36.543s-10.783-9.844-10.282-26.155c0.768-25.019-5.443-35.529-14.659-42.53
			c-9.216-7.001-13.14-70.654,31.425-73.03c44.565-2.377,44.848-6.676,63.863-10.696
			C981.886,1036.424,982.852,1056.197,989.99,1053.219z"/>
	</g>
	<g>
		<path fill="#74B570" d="M3488.485,1780.1c28.415,25.944,16.062,51.889-4.941,100.07c-21.003,48.183-24.709,226.086-24.709,226.086
			l17.296-2.471c0,0-2.471-182.846,21.003-232.263c23.474-49.418,33.356-74.127,54.359-58.065
			C3572.496,1829.518,3488.485,1780.1,3488.485,1780.1z"/>
		<path fill="#9CD499" d="M3472.875,1746.51c3.453-15.377,23.945-32.013,51.35-46.125c-4.074,22.678-17.138,59.756-3.617,67.36
			c18.234,10.257,1.776-41.511,8.813-69.966c25.733-12.565,56.688-22.837,85.195-27.946c-0.041,0.106-0.072,0.205-0.115,0.313
			c-16.061,40.77-37.063,56.83-28.414,63.008c6.506,4.646,27.697-42.447,55.682-66.588c21.005-1.119,38.774,1.729,49.287,10.051
			c16.248,12.863,27.154,24.275,10.813,63.445c-9.337,6.671-21.428,11.453-35.479,12.858c-37.063,3.706-54.359,4.942-28.415,17.297
			c12.705,6.05,33.999-0.342,51.266-4.235c-5.602,10.321-12.485,22.003-20.853,35.309c-5.306,8.438-11.153,15.765-17.364,22.099
			c-11.946,2.288-22.359,2.314-27.874-0.049c-17.296-7.412-61.771-30.886-72.891-21.002c-10.883,9.674,82.369,15.8,75.907,40.383
			c-45.2,26.041-96.922,13.65-106.064-10.262C3507.822,1800.346,3462.486,1792.79,3472.875,1746.51z"/>
		<path fill="#74B570" d="M3566.318,1922.176c-49.418-37.063-100.07-2.472-126.016,37.063
			c-25.943,39.534-7.412,128.486-7.412,128.486s9.884,0,9.884-3.707c0-3.706-27.18-105.012,37.063-150.723
			c40.189-28.597,69.185-14.826,72.891-1.236s-16.061,38.299-16.061,38.299L3566.318,1922.176z"/>
		<path fill="#9CD499" d="M3452.657,1845.989c49.418,0,65.479,76.597,51.889,121.073c-13.59,44.476-32.121,127.25-32.121,127.25
			l-12.354-12.354c0,0,46.947-116.132,35.828-168.02c-11.119-51.889-38.299-60.537-43.241-60.537
			C3447.716,1853.401,3452.657,1845.989,3452.657,1845.989z"/>
		<path fill="#74B570" d="M3494.105,1967.406c3.476-4.604,7.77-8.408,13.009-10.932c-0.687,3.681-1.542,7.227-2.568,10.588
			c-6.191,20.264-13.409,48.477-19.432,73.189c-0.548-3.165-1.392-8.039-2.694-15.565c-0.308-1.776-0.548-3.706-0.717-5.749
			C3486.542,2002.477,3491.115,1984.545,3494.105,1967.406z"/>
		<path fill="#9CD499" d="M3507.616,1967.778c93.894-39.534,44.426-93.785,127.2-57.957c5.83,2.523,12.937,8.888,20.051,17.662
			c-7.373,2.09-16.3,3.594-26.228,2.104c-24.709-3.706-16.062,16.061,24.709,21.003c7.685,0.932,13.919,2.215,19.104,4.03
			c19.422,37.305,28.176,86.391-12.928,103.453c-8.1,3.361-18.109,5.285-29.253,6.003c-12.684-10.082,3.095-68.414-16.458-60.362
			c-18.774,7.73,5.883,50.006,2.504,60.657c-18.531-0.337-39.047-3.362-58.652-8.221c-7.759-4.349-13.683-10.18-15.508-17.845
			c-6.177-25.944,34.593-42.005,35.828-64.243c1.136-20.442-14.942,44.978-57.541,54.604
			C3481.928,2010.676,3463.727,1986.258,3507.616,1967.778z"/>
		<path fill="#9CD499" d="M3440.715,1897.878c9.883-21.003-16.061-25.944-14.826-9.884c1.096,14.231,1.217,48.826-13.379,58.244
			c-25.172-2.727-59.419-12.869-85.311-28.331c-0.325-2.089-0.01-4.239,1.09-6.439c11.119-22.238,82.775-40.77,60.537-48.183
			c-17.711-5.903-48.744,28.943-73.752,46.495c-15.021-11.396-25.084-24.98-25.084-40.145c0-20.524,24.939-43.758,57.191-54.863
			c14.515,1.463,27.997,9.399,49.057,21.333c31.111,17.63,23.916-10.873-5.499-27.79c25.394,1.313,50.712,12.164,69.384,38.083
			c0,0-1.766,11.08,9.959,28.217c31.989,46.753-4.928,74.046-49.059,72.273C3423.52,1934.566,3433.886,1912.39,3440.715,1897.878z"
			/>
		<path fill="#74B570" d="M3563.346,1920.081c24.16,18.669,50.998,40.497,83.945,55.322c32.946,14.826,26.357,63.148,26.357,63.148
			s4.941-41.732-22.514-56.01c-27.456-14.276-45.576-31.299-66.443-34.594c-20.866-3.295-32.396-6.59-32.396-6.59
			s6.589-13.179,2.745-18.12C3551.196,1918.296,3563.346,1920.081,3563.346,1920.081z"/>
		<path fill="#74B570" d="M3682.434,1700.848c-88.407,23.611-153.202,80.17-165.282,93.898
			c-12.081,13.728-12.081,17.571-12.081,17.571l9.335,17.571l4.394-2.196c0,0-7.139-14.826,11.531-34.045
			c32.196-33.144,71.385-59.304,98.291-70.835S3682.434,1700.848,3682.434,1700.848z"/>
		<path fill="#75A1DE" d="M3438.401,2190.199h33.776c24.018,0,43.487-19.471,43.487-43.488v-77.604h-120.751v77.604
			C3394.914,2170.729,3414.384,2190.199,3438.401,2190.199z"/>
		<rect x="3394.914" y="2082.979" fill="#FFFFFF" width="120.751" height="8.5"/>
		<rect x="3394.914" y="2098.479" fill="#FFFFFF" width="120.751" height="5"/>
	</g>
	<g>
		<g>
			<path fill="#F5DC95" d="M2005.897,448.562c0-91.513-73.601-165.836-164.837-167.003c-91.656-1.173-167.722,72.638-169.177,164.29
				c-0.71,44.738,16.175,85.525,44.185,115.899c12.903,13.993,20.067,32.328,20.067,51.361v74.868
				c0,48.436,39.629,88.065,88.065,88.065h29.359c48.436,0,88.065-39.629,88.065-88.065v-74.861c0-19.192,7.4-37.558,20.373-51.702
				C1989.258,531.692,2005.897,492.071,2005.897,448.562z"/>
			<path opacity="0.5" fill="#FFFFFF" d="M1982.565,459.77c0-78.729-63.318-142.669-141.809-143.673
				c-78.852-1.009-144.292,62.491-145.543,141.339c-0.611,38.488,13.916,73.578,38.012,99.708
				c11.101,12.038,17.264,27.812,17.264,44.186v64.409c0,41.669,34.093,75.763,75.762,75.763h25.258
				c41.669,0,75.763-34.093,75.763-75.763v-64.403c0-16.511,6.367-32.311,17.527-44.479
				C1968.25,531.288,1982.565,497.201,1982.565,459.77z"/>
			<g>
				<path fill="#94BDF2" d="M1863.565,643.135h-55c-2.584,0-4.743-1.97-4.979-4.544c-0.098-1.069-10.363-107.244-57.841-136.976
					c-2.341-1.466-3.05-4.551-1.584-6.892c1.465-2.34,4.552-3.051,6.891-1.584c46.314,29.004,59.475,118.466,62.006,139.996h45.22
					c-0.18-7.385,0.246-21.644,4.502-40.094c5.688-24.662,19.639-61.864,53.793-99.046c1.869-2.034,5.031-2.168,7.065-0.3
					c2.033,1.868,2.168,5.031,0.3,7.064c-62.424,67.958-55.481,136.13-55.404,136.811c0.161,1.415-0.289,2.832-1.238,3.895
					C1866.347,642.527,1864.99,643.135,1863.565,643.135z"/>
			</g>
			<g>
				<path fill="#94BDF2" d="M1904.738,508.454c-18.567,0-43.884-13.192-70.547-27.492c-34.437,18.342-66.598,34.787-84.601,23.874
					c-8.461-5.128-12.506-15.166-12.367-30.689c0.131-14.612,4.32-24.462,12.452-29.276c18.036-10.68,50.265,6.356,84.531,24.75
					c34.945-18.636,67.849-35.99,85.822-25.047c8.069,4.913,12.064,14.899,11.875,29.683c-0.198,15.382-4.62,25.729-13.144,30.752
					C1914.71,507.396,1909.993,508.454,1904.738,508.454z M1844.818,475.302c27.456,14.594,56.185,28.565,68.865,21.092
					c5.306-3.127,8.071-10.619,8.221-22.266c0.142-10.998-2.238-18.068-7.075-21.012
					C1902.572,445.653,1872.8,460.46,1844.818,475.302z M1763.188,451.523c-3.3,0-6.143,0.605-8.417,1.952
					c-4.911,2.907-7.45,9.892-7.547,20.761c-0.104,11.53,2.437,18.948,7.55,22.047c12.336,7.478,41.157-6.421,68.804-21.012
					C1801.229,463.349,1777.769,451.523,1763.188,451.523z"/>
			</g>
			<path fill="#94BDF2" d="M1856.565,799.801h-32c-11.275,0-20.5-9.225-20.5-20.5v-3c0-11.275,9.225-20.5,20.5-20.5h32
				c11.275,0,20.5,9.225,20.5,20.5v3C1877.065,790.576,1867.84,799.801,1856.565,799.801z"/>
			<path fill="#94BDF2" d="M1731.28,634.135v52.957c0,50.725,41.502,92.226,92.227,92.226h30.747
				c50.724,0,92.226-41.501,92.226-92.226v-52.957H1731.28z"/>
			<path fill="#9EC8FF" d="M1945.565,650.801h-210.667c-6.6,0-12-5.4-12-12v-1.333c0-6.6,5.4-12,12-12h210.667c6.6,0,12,5.4,12,12
				v1.333C1957.565,645.401,1952.166,650.801,1945.565,650.801z"/>
			<path fill="#9EC8FF" d="M1946.324,669.793l-209.078,25.826c-6.55,0.809-12.571-3.888-13.38-10.438l-0.164-1.323
				c-0.809-6.55,3.888-12.571,10.438-13.38l209.078-25.826c6.55-0.809,12.571,3.888,13.38,10.438l0.164,1.323
				C1957.571,662.962,1952.874,668.984,1946.324,669.793z"/>
			<path fill="#9EC8FF" d="M1946.324,706.384l-209.078,25.826c-6.55,0.81-12.571-3.888-13.38-10.438l-0.164-1.323
				c-0.809-6.55,3.888-12.572,10.438-13.381l209.078-25.826c6.55-0.809,12.571,3.888,13.38,10.438l0.164,1.323
				C1957.571,699.554,1952.874,705.575,1946.324,706.384z"/>
			<path fill="#9EC8FF" d="M1933.422,745.542l-174.133,21.509c-6.012,0.743-11.538-3.568-12.28-9.58l-0.405-3.282
				c-0.743-6.012,3.568-11.538,9.58-12.28l174.132-21.509c6.012-0.743,11.538,3.568,12.28,9.58l0.405,3.282
				C1943.744,739.274,1939.433,744.8,1933.422,745.542z"/>
		</g>
		<g>
			<path fill="#9EC8FF" d="M3441.063,793.015h112.236c0,61.571-50.665,112.236-112.236,112.236s-112.236-50.666-112.236-112.236
				c0-61.571,50.665-112.236,112.236-112.236V793.015z"/>
			<g>
				<path fill="#F39892" d="M3572.096,777.3c0-61.986-50.25-112.236-112.236-112.236V777.3H3572.096z"/>
				<path fill="#F39892" d="M3347.623,777.3c0,61.986,50.25,112.236,112.236,112.236
					C3398.289,889.536,3347.623,838.871,3347.623,777.3z"/>
				<path fill="#F39892" d="M3459.859,665.063c-61.986,0-112.236,50.25-112.236,112.236
					C3347.623,715.729,3398.289,665.063,3459.859,665.063z"/>
				<path fill="#F39892" d="M3459.859,889.536c61.986,0,112.236-50.25,112.236-112.236
					C3572.096,838.871,3521.431,889.536,3459.859,889.536z"/>
			</g>
		</g>
		<g>
			<rect x="1244.448" y="718.775" fill="#9EC8FF" width="24.513" height="70.928"/>
			<rect x="1558.643" y="741.849" fill="#9EC8FF" width="24.513" height="47.854"/>
			<rect x="1348.333" y="623.75" fill="#9EC8FF" width="24.513" height="165.953"/>
			<rect x="1400.276" y="715.11" fill="#9EC8FF" width="24.513" height="74.593"/>
			<rect x="1452.219" y="693.996" fill="#9EC8FF" width="24.513" height="95.707"/>
			<rect x="1296.391" y="671.944" fill="#9EC8FF" width="24.513" height="117.758"/>
			<rect x="1504.336" y="644.664" fill="#9EC8FF" width="24.513" height="145.039"/>
		</g>
		<g>
			<defs>
				<path id="SVGID_1_" d="M462.563,363.188c-78.555,0-142.236,63.681-142.236,142.236s63.681,142.237,142.236,142.237
					S604.8,583.979,604.8,505.424S541.119,363.188,462.563,363.188z M462.563,580.773c-41.614,0-75.349-33.735-75.349-75.349
					s33.735-75.349,75.349-75.349s75.349,33.735,75.349,75.349S504.178,580.773,462.563,580.773z"/>
			</defs>
			<clipPath id="SVGID_2_">
				<use xlink:href="#SVGID_1_"  overflow="visible"/>
			</clipPath>
			<path clip-path="url(#SVGID_2_)" fill="#A2DFF2" d="M591.118,584.036l-128.554-78.612L439.31,654.307
				C499.702,663.826,559.596,635.53,591.118,584.036z"/>
			<path clip-path="url(#SVGID_2_)" fill="#9CD499" d="M591.253,583.859c0.346-0.567,0.799-1.348,0.781-1.318
				c27.151-45.481,28.248-101.968,3.337-148.335c-45.492,23.834-18.401,9.355-132.808,71.218
				C591.33,584.166,571.332,572.023,591.253,583.859z"/>
			<path clip-path="url(#SVGID_2_)" fill="#9EC8FF" d="M321.248,453.353l141.315,52.071l132.566-71.683
				C533.12,319.065,366.208,332.818,321.248,453.353z"/>
			<path clip-path="url(#SVGID_2_)" fill="#F39892" d="M439.31,654.307l23.253-148.883l-141.315-52.071
				C287.644,543.445,347.288,639.8,439.31,654.307z"/>
			<path clip-path="url(#SVGID_2_)" fill="#FFFFFF" d="M312,478c2.632,0,5.05,0.674,7.142,1.848
				c1.222-6.751,2.923-13.452,5.131-20.052l76.733,28.274c-0.001-0.024-0.005-0.047-0.006-0.07c-0.157-3.499,1.161-6.769,3.335-9.36
				l-7.683-2.831l-68.887-25.383c5.652-13.758,13.169-26.271,22.195-37.326c-3.249-1.19-5.907-3.493-7.66-6.432
				c-9.744,11.924-17.845,25.436-23.912,40.302l-0.083-0.031l-1.74,4.666l-1.754,4.704l0.083,0.031
				c-2.431,7.22-4.294,14.554-5.622,21.943C310.168,478.103,311.081,478,312,478z"/>
			<path clip-path="url(#SVGID_2_)" fill="#E7F3FE" d="M601.823,435.806l0.083-0.044l-2.378-4.398
				c-0.048-0.089-0.101-0.175-0.149-0.264l-1.944-3.619l-0.075,0.039c-15-26.063-36.389-46.848-62.114-60.25
				c-25.192-13.125-53.832-18.999-82.834-16.983c-34.1,2.368-65.166,15.151-89.843,35.83c2.899,1.764,5.122,4.504,6.354,7.742
				c23.115-19.389,52.225-31.377,84.181-33.597c55.773-3.877,107.109,23.423,135.177,71.499l-39.152,21.171
				c-8.083,4.349-19.383,10.463-38.301,20.7c-12.12,6.558-27.371,14.81-46.904,25.373l-1.208,0.653l-3.937-2.408l-0.214,1.373
				l-27.572-10.16c0.027,3.507-1.403,6.76-3.687,9.299l29.685,10.938l-21.835,139.804c-41.238-7.958-76.921-33.319-98.452-70.176
				c-12.869-22.029-19.542-46.535-19.844-71.216c-1.56,0.564-3.2,0.889-4.86,0.889c-1.832,0-3.551-0.343-5.138-0.937
				c0.29,26.447,7.421,52.709,21.208,76.309c23.054,39.464,61.324,66.583,105.543,75.011l-0.013,0.086l4.926,0.776
				c0.005,0.001,4.952,0.78,4.952,0.78l0.013-0.086c6.396,0.799,12.804,1.203,19.197,1.203c22.484,0,44.754-4.916,65.462-14.558
				c26.513-12.344,48.786-31.643,64.697-55.963l0.101,0.06l0.979-1.604c0.025,0.013,1.595-2.614,1.595-2.614
				c0.244-0.4,0.538-0.898,0.704-1.183l0.105-0.176c0.027-0.045,0.051-0.091,0.078-0.136l1.585-2.59l-0.072-0.044
				C623.468,537.431,624.924,481.984,601.823,435.806z M445.034,650.062L466.347,513.6l55.466,33.923
				c22.362,13.679,35.155,21.503,43.209,26.416l19.148,11.709C553.626,631.973,499.958,656.816,445.034,650.062z M589.48,576.989
				c-0.002,0.004-0.953-0.56-0.953-0.56c-5.252-3.111-7.535-4.463-18.002-10.847l-97.942-59.893l81.305-43.964
				c11.939-6.424,16.833-8.983,28.959-15.323c2.962-1.549,6.355-3.323,10.386-5.433C614.422,483.901,613.036,535.269,589.48,576.989
				z"/>
		</g>
		<g>
			<path fill="#9EC8FF" d="M1286.93,532.979H872.367c-4.512,0-8.17-3.658-8.17-8.169V346.414c0-4.512,3.658-8.17,8.17-8.17h414.563
				c4.512,0,8.169,3.658,8.169,8.17v178.395C1295.099,529.321,1291.441,532.979,1286.93,532.979z"/>
			<path fill="#FFFFFF" d="M1276.718,523.839H882.579c-3.645,0-6.6-2.955-6.6-6.6V396.006c0-3.645,2.955-6.6,6.6-6.6h394.139
				c3.645,0,6.6,2.955,6.6,6.6V517.24C1283.318,520.885,1280.363,523.839,1276.718,523.839z"/>
			<g>
				<path fill="#FFFFFF" d="M895.185,367.768h-9.565c-2.02,0-3.658-1.637-3.658-3.657v-7.878c0-2.02,1.638-3.657,3.658-3.657h9.565
					c2.02,0,3.658,1.637,3.658,3.657v7.878C898.842,366.13,897.205,367.768,895.185,367.768z"/>
				<path fill="#FFFFFF" d="M925.877,367.768h-9.566c-2.02,0-3.658-1.637-3.658-3.657v-7.878c0-2.02,1.638-3.657,3.658-3.657h9.566
					c2.02,0,3.657,1.637,3.657,3.657v7.878C929.535,366.13,927.897,367.768,925.877,367.768z"/>
				<path fill="#FFFFFF" d="M956.57,367.768h-9.566c-2.02,0-3.657-1.637-3.657-3.657v-7.878c0-2.02,1.637-3.657,3.657-3.657h9.566
					c2.02,0,3.658,1.637,3.658,3.657v7.878C960.228,366.13,958.59,367.768,956.57,367.768z"/>
			</g>
			<path fill="#9EC8FF" d="M1266.744,418.871h-215.461c-3.545,0-6.446-2.9-6.446-6.446c0-3.545,2.901-6.445,6.446-6.445h215.461
				c3.545,0,6.446,2.9,6.446,6.445C1273.189,415.971,1270.289,418.871,1266.744,418.871z"/>
			<path fill="#9EC8FF" d="M1104.687,518.315H889.226c-3.545,0-6.446-2.9-6.446-6.446c0-3.545,2.9-6.445,6.446-6.445h215.461
				c3.545,0,6.445,2.9,6.445,6.445C1111.132,515.415,1108.232,518.315,1104.687,518.315z"/>
			<path fill="#9EC8FF" d="M1144.378,518.315h-22.294c-1.212,0-2.204-0.992-2.204-2.204v-8.483c0-1.212,0.992-2.204,2.204-2.204
				h22.294c1.212,0,2.204,0.992,2.204,2.204v8.483C1146.583,517.323,1145.591,518.315,1144.378,518.315z"/>
			<path fill="#9EC8FF" d="M1177.987,518.315h-22.294c-1.212,0-2.204-0.992-2.204-2.204v-8.483c0-1.212,0.992-2.204,2.204-2.204
				h22.294c1.212,0,2.204,0.992,2.204,2.204v8.483C1180.191,517.323,1179.199,518.315,1177.987,518.315z"/>
			<path fill="#9EC8FF" d="M1268.815,446.955H912.015c-2.406,0-4.374-1.968-4.374-4.374c0-2.406,1.968-4.374,4.374-4.374h356.801
				c2.406,0,4.374,1.968,4.374,4.374C1273.189,444.986,1271.221,446.955,1268.815,446.955z"/>
			<path fill="#9EC8FF" d="M1268.815,465.831H912.015c-2.406,0-4.374-1.968-4.374-4.374c0-2.406,1.968-4.374,4.374-4.374h356.801
				c2.406,0,4.374,1.968,4.374,4.374C1273.189,463.862,1271.221,465.831,1268.815,465.831z"/>
		</g>
		<g>
			<path fill="#FFB8B3" d="M2345.233,408.98h-184V301.736h138.378c17.816,17.816,27.806,27.805,45.622,45.622V408.98z"/>
			<polygon fill="#F39892" points="2296.233,301.736 2296.233,358.98 2345.233,358.98 2345.233,347.98 2299.3,302.047 			"/>
			<polygon fill="#FFB8B3" points="2299.611,301.736 2299.611,347.98 2345.233,347.98 			"/>
			<path fill="#FFFFFF" d="M2263.983,341.98h-82c-1.788,0-3.25-1.463-3.25-3.25c0-1.788,1.462-3.25,3.25-3.25h82
				c1.787,0,3.25,1.462,3.25,3.25C2267.233,340.517,2265.771,341.98,2263.983,341.98z"/>
			<path fill="#FFFFFF" d="M2263.983,358.608h-82c-1.788,0-3.25-1.463-3.25-3.25c0-1.788,1.462-3.25,3.25-3.25h82
				c1.787,0,3.25,1.462,3.25,3.25C2267.233,357.145,2265.771,358.608,2263.983,358.608z"/>
			<path fill="#FFFFFF" d="M2263.983,376.108h-82c-1.788,0-3.25-1.463-3.25-3.25c0-1.788,1.462-3.25,3.25-3.25h82
				c1.787,0,3.25,1.462,3.25,3.25C2267.233,374.645,2265.771,376.108,2263.983,376.108z"/>
		</g>
		<circle fill="#3E6BAB" cx="2247.733" cy="309.98" r="5.5"/>
		
			<rect x="1424.789" y="294.608" transform="matrix(0.9818 0.1897 -0.1897 0.9818 96.1954 -274.7479)" fill="#FAE8B6" width="116.944" height="141.004"/>
		<path fill="#9EC8FF" d="M1529.751,366.83l-60.874-11.761c-1.62-0.313-2.689-1.895-2.376-3.515s1.895-2.689,3.515-2.376
			l60.874,11.762c1.62,0.313,2.689,1.895,2.376,3.514C1532.953,366.074,1531.371,367.143,1529.751,366.83z"/>
		<path fill="#9EC8FF" d="M1526.811,382.049l-60.874-11.762c-1.62-0.313-2.689-1.895-2.376-3.515
			c0.313-1.62,1.895-2.689,3.515-2.376l60.874,11.762c1.62,0.313,2.689,1.895,2.376,3.515S1528.431,382.362,1526.811,382.049z"/>
		<path fill="#9EC8FF" d="M1523.79,397.686l-60.875-11.762c-1.62-0.313-2.689-1.895-2.376-3.515s1.895-2.689,3.515-2.376
			l60.875,11.762c1.62,0.313,2.689,1.895,2.376,3.515S1525.409,397.999,1523.79,397.686z"/>
		<circle fill="#3E6BAB" cx="1483.634" cy="302.412" r="5"/>
		<path fill="#9EC8FF" d="M2430.154,559.031l-177.698-18.719l11.733-111.384l140.895,14.842
			c12.858,15.887,20.067,24.794,32.927,40.681L2430.154,559.031z"/>
		<polygon fill="#FFFFFF" points="2402.563,451.718 2270.295,437.785 2260.396,531.764 2424.834,549.086 2430.631,494.057 
			2398.461,490.668 		"/>
		<path fill="#9EC8FF" d="M2384.632,485.859l-85.681-9.025c-1.963-0.207-3.4-1.982-3.193-3.946s1.982-3.4,3.945-3.193l85.681,9.026
			c1.964,0.207,3.4,1.982,3.194,3.945C2388.371,484.629,2386.596,486.066,2384.632,485.859z"/>
		<path fill="#9EC8FF" d="M2382.643,504.742l-85.68-9.026c-1.964-0.207-3.4-1.982-3.194-3.945c0.207-1.963,1.982-3.4,3.946-3.194
			l85.681,9.026c1.963,0.207,3.399,1.982,3.193,3.946C2386.382,503.511,2384.606,504.949,2382.643,504.742z"/>
		<path fill="#9EC8FF" d="M2380.566,524.455l-85.681-9.026c-1.963-0.207-3.4-1.982-3.193-3.945c0.207-1.963,1.982-3.4,3.945-3.194
			l85.681,9.026c1.963,0.207,3.4,1.982,3.193,3.946S2382.529,524.662,2380.566,524.455z"/>
		<circle fill="#3E6BAB" cx="2330.684" cy="454.646" r="5.5"/>
		<g>
			<circle fill="#9CD499" cx="3251.708" cy="367.768" r="61.348"/>
			<g>
				<path fill="#FFFFFF" d="M3245.619,388.766c-0.037,0-0.074,0-0.111-0.002c-0.823-0.031-1.597-0.398-2.141-1.016l-16.663-18.936
					c-1.095-1.244-0.974-3.14,0.271-4.234c1.243-1.095,3.14-0.974,4.233,0.27l14.573,16.561l33.339-32.629
					c1.184-1.159,3.084-1.139,4.242,0.046c1.159,1.184,1.139,3.083-0.045,4.242l-35.6,34.841
					C3247.156,388.46,3246.402,388.766,3245.619,388.766z"/>
			</g>
		</g>
		<g>
			<path fill="#9EC8FF" d="M487.521,937.268h353.7c9.066,0,16.483-7.417,16.483-16.483v-126.37c0-9.066-7.417-16.483-16.483-16.483
				h-353.7c-9.065,0-16.483,7.417-16.483,16.483v126.37C471.039,929.851,478.456,937.268,487.521,937.268z"/>
			<path fill="#9EC8FF" d="M811.002,913.23v87.91L709.7,899.838C709.7,899.838,808.942,913.23,811.002,913.23z"/>
			<path fill="#FFFFFF" d="M505.013,921.472H823.73c7.686,0,13.975-6.289,13.975-13.975v-99.795c0-7.686-6.289-13.975-13.975-13.975
				H505.013c-7.686,0-13.975,6.289-13.975,13.975v99.795C491.039,915.184,497.327,921.472,505.013,921.472z"/>
			<path fill="#9EC8FF" d="M648.918,825.321h156.589c3.777,0,6.868-3.091,6.868-6.868s-3.091-6.868-6.868-6.868H648.918
				c-3.777,0-6.868,3.091-6.868,6.868S645.141,825.321,648.918,825.321z"/>
			<path fill="#9EC8FF" d="M518.125,851.58h290.433c2.1,0,3.818-1.718,3.818-3.818v-0.079c0-2.1-1.718-3.818-3.818-3.818H518.125
				c-2.1,0-3.818,1.718-3.818,3.818v0.079C514.307,849.861,516.025,851.58,518.125,851.58z"/>
			<path fill="#9EC8FF" d="M518.125,866.528h290.433c2.1,0,3.818-1.718,3.818-3.818v-0.079c0-2.1-1.718-3.818-3.818-3.818H518.125
				c-2.1,0-3.818,1.718-3.818,3.818v0.079C514.307,864.81,516.025,866.528,518.125,866.528z"/>
		</g>
		<g>
			<path fill="#9EC8FF" d="M3103.494,825.942h18.537c3.915,0,7.088-3.173,7.088-7.088v-15.266c0-3.915-3.173-7.088-7.088-7.088
				h-18.537c-3.915,0-7.088,3.173-7.088,7.088v15.266C3096.406,822.769,3099.579,825.942,3103.494,825.942z"/>
			<path fill="#9EC8FF" d="M3044.015,825.942h18.537c3.915,0,7.088-3.173,7.088-7.088v-15.266c0-3.915-3.173-7.088-7.088-7.088
				h-18.537c-3.915,0-7.089,3.173-7.089,7.088v15.266C3036.926,822.769,3040.1,825.942,3044.015,825.942z"/>
			<path fill="#9EC8FF" d="M2984.534,825.942h18.538c3.915,0,7.088-3.173,7.088-7.088v-15.266c0-3.915-3.173-7.088-7.088-7.088
				h-18.538c-3.914,0-7.088,3.173-7.088,7.088v15.266C2977.446,822.769,2980.62,825.942,2984.534,825.942z"/>
		</g>
	</g>
</g>
</svg>
