<?xml version="1.0" encoding="utf-8"?>
<!-- Generator: Adobe Illustrator 16.0.0, SVG Export Plug-In . SVG Version: 6.00 Build 0)  -->
<!DOCTYPE svg PUBLIC "-//W3C//DTD SVG 1.1//EN" "http://www.w3.org/Graphics/SVG/1.1/DTD/svg11.dtd">
<svg version="1.1" xmlns="http://www.w3.org/2000/svg" xmlns:xlink="http://www.w3.org/1999/xlink" x="0px" y="0px" width="500px"
	 height="200px" viewBox="0 0 750 500" enable-background="new 0 0 750 500" xml:space="preserve">
<g id="BACKGROUND">
	<rect fill="#FFFFFF" width="750" height="500"/>
</g>
<g id="OBJECTS">
	<g>
		<path fill="#EDF5F7" d="M105.837,455.074c0,0-57.837-35.589-51.327-107.074c5.902-64.823,48.162-76.168,75.358-154.084
			s-0.216-143.067,73.942-165.735c56.148-17.163,114.402,62.872,234.232,59.898s177.723-41.719,221.29,12.239
			c38.269,47.395-21.333,88.55-16.666,151.089c2.601,34.854,27.177,53.84,34.333,107.406c3.262,24.419-1.667,70.512-25.061,96.262
			H143.613"/>
		<line fill="none" stroke="#C3DBE6" stroke-miterlimit="10" x1="73" y1="455.074" x2="677" y2="455.074"/>
	</g>
	<g>
		<circle fill="#C3DBE6" cx="126.63" cy="125.915" r="52.092"/>
		<circle fill="#FFFFFF" cx="126.631" cy="125.915" r="43.87"/>
		<circle fill="#C3DBE6" cx="126.63" cy="125.915" r="35.925"/>
		<circle fill="#FFFFFF" cx="126.63" cy="125.915" r="16.063"/>
		<circle fill="#C3DBE6" cx="126.63" cy="125.915" r="8.515"/>
		<g>
			<g>
				<g>
					<polygon fill="#A2C5D2" points="62.278,165.602 54.665,169.915 61.174,171.937 68.788,167.623 					"/>
				</g>
				<g>
					<polygon fill="#A2C5D2" points="67.176,174.246 59.563,178.559 61.174,171.937 68.788,167.623 					"/>
				</g>
			</g>
			<g>
				<path fill="#A2C5D2" d="M63.921,170.38c-0.676-1.193,6.675-6.636,18.134-13.129c11.46-6.493,28.171-13.105,28.171-13.105
					s-14.262,10.935-25.722,17.428C73.044,168.066,64.598,171.574,63.921,170.38z"/>
			</g>
			<g>
				<path fill="#C3DBE6" d="M61.174,171.937c3.989-2.49,8.031-4.887,12.08-7.27c4.049-2.385,8.14-4.695,12.207-7.046
					c4.106-2.283,8.192-4.602,12.318-6.851c4.126-2.248,8.26-4.483,12.446-6.624c-3.988,2.491-8.03,4.888-12.079,7.271
					c-4.05,2.383-8.14,4.696-12.208,7.044c-4.108,2.281-8.192,4.603-12.318,6.85C69.494,167.56,65.36,169.794,61.174,171.937z"/>
			</g>
		</g>
		<g>
			<g>
				<g>
					<polygon fill="#A2C5D2" points="90.083,88.777 83.414,83.112 83.755,89.919 90.425,95.584 					"/>
				</g>
				<g>
					<polygon fill="#A2C5D2" points="83.651,96.349 76.982,90.684 83.755,89.919 90.425,95.584 					"/>
				</g>
			</g>
			<g>
				<path fill="#A2C5D2" d="M86.161,91.963c0.889-1.045,8.527,3.984,18.566,12.511s21.996,21.942,21.996,21.942
					s-15.173-9.629-25.212-18.156S85.273,93.008,86.161,91.963z"/>
			</g>
			<g>
				<path fill="#C3DBE6" d="M83.755,89.919c3.71,2.889,7.352,5.859,10.982,8.841c3.633,2.981,7.208,6.028,10.815,9.039
					c3.556,3.07,7.14,6.108,10.67,9.208c3.53,3.101,7.051,6.213,10.501,9.408c-3.711-2.888-7.352-5.858-10.983-8.84
					c-3.63-2.983-7.208-6.027-10.813-9.04c-3.555-3.072-7.141-6.108-10.669-9.21C90.727,96.226,87.207,93.113,83.755,89.919z"/>
			</g>
		</g>
	</g>
	<g>
		<g>
			<path fill="#C3DBE6" d="M189.928,284.002V92.893c0-10.316,8.363-18.679,18.679-18.679h332.786c10.316,0,18.68,8.363,18.68,18.679
				v191.109c0,10.315-8.363,18.679-18.679,18.679H208.606C198.291,302.681,189.928,294.317,189.928,284.002z"/>
			<path fill="#FFFFFF" d="M209.606,298.681c-8.659,0-15.679-7.02-15.679-15.679V93.214c0-8.284,6.716-15,15-15h332.145
				c8.284,0,15,6.716,15,15v189.788c0,8.659-7.02,15.679-15.679,15.679H209.606z"/>
			<path fill="#A2C5D2" d="M208.146,78.214h332.926c8.284,0,15,6.716,15,15v12.077H193.146V93.214
				C193.146,84.93,199.862,78.214,208.146,78.214z"/>
			<g>
				<circle fill="#DCECF0" cx="213.55" cy="91.752" r="3.46"/>
				<circle fill="#DCECF0" cx="234.164" cy="91.752" r="3.46"/>
				<circle fill="#DCECF0" cx="254.777" cy="91.752" r="3.46"/>
			</g>
		</g>
		<g>
			
				<line fill="none" stroke="#C3DBE6" stroke-width="3" stroke-linecap="round" stroke-linejoin="round" stroke-miterlimit="10" x1="212.643" y1="262.396" x2="419.143" y2="262.396"/>
			
				<line fill="none" stroke="#C3DBE6" stroke-width="3" stroke-linecap="round" stroke-linejoin="round" stroke-miterlimit="10" x1="212.643" y1="274.305" x2="373.949" y2="274.305"/>
			
				<line fill="none" stroke="#C3DBE6" stroke-width="3" stroke-linecap="round" stroke-linejoin="round" stroke-miterlimit="10" x1="212.643" y1="286.214" x2="313.083" y2="286.214"/>
			<g>
				
					<line fill="none" stroke="#C3DBE6" stroke-width="3" stroke-linecap="round" stroke-linejoin="round" stroke-miterlimit="10" x1="448.178" y1="262.396" x2="467.268" y2="262.396"/>
				
					<line fill="none" stroke="#C3DBE6" stroke-width="3" stroke-linecap="round" stroke-linejoin="round" stroke-miterlimit="10" x1="448.178" y1="274.305" x2="467.268" y2="274.305"/>
				
					<line fill="none" stroke="#C3DBE6" stroke-width="3" stroke-linecap="round" stroke-linejoin="round" stroke-miterlimit="10" x1="448.178" y1="286.214" x2="467.268" y2="286.214"/>
				
					<line fill="none" stroke="#C3DBE6" stroke-width="3" stroke-linecap="round" stroke-linejoin="round" stroke-miterlimit="10" x1="483.223" y1="262.396" x2="502.313" y2="262.396"/>
				
					<line fill="none" stroke="#C3DBE6" stroke-width="3" stroke-linecap="round" stroke-linejoin="round" stroke-miterlimit="10" x1="483.223" y1="274.305" x2="502.313" y2="274.305"/>
				
					<line fill="none" stroke="#C3DBE6" stroke-width="3" stroke-linecap="round" stroke-linejoin="round" stroke-miterlimit="10" x1="483.223" y1="286.214" x2="502.313" y2="286.214"/>
				
					<line fill="none" stroke="#C3DBE6" stroke-width="3" stroke-linecap="round" stroke-linejoin="round" stroke-miterlimit="10" x1="518.268" y1="262.396" x2="537.357" y2="262.396"/>
				
					<line fill="none" stroke="#C3DBE6" stroke-width="3" stroke-linecap="round" stroke-linejoin="round" stroke-miterlimit="10" x1="518.268" y1="274.305" x2="537.357" y2="274.305"/>
				
					<line fill="none" stroke="#C3DBE6" stroke-width="3" stroke-linecap="round" stroke-linejoin="round" stroke-miterlimit="10" x1="518.268" y1="286.214" x2="537.357" y2="286.214"/>
			</g>
			<g>
				
					<line fill="none" stroke="#C3DBE6" stroke-width="0.7903" stroke-miterlimit="10" x1="535.963" y1="111.968" x2="535.963" y2="157.811"/>
				
					<line fill="none" stroke="#C3DBE6" stroke-width="6.3222" stroke-miterlimit="10" x1="535.963" y1="126.191" x2="535.963" y2="147.055"/>
				
					<line fill="none" stroke="#C3DBE6" stroke-width="0.7903" stroke-miterlimit="10" x1="525.779" y1="119.726" x2="525.779" y2="165.568"/>
				
					<line fill="none" stroke="#C3DBE6" stroke-width="6.3222" stroke-miterlimit="10" x1="525.779" y1="141.061" x2="525.779" y2="154.813"/>
				
					<line fill="none" stroke="#C3DBE6" stroke-width="0.7903" stroke-miterlimit="10" x1="515.597" y1="123.753" x2="515.597" y2="169.596"/>
				
					<line fill="none" stroke="#C3DBE6" stroke-width="6.3222" stroke-miterlimit="10" x1="515.597" y1="147.115" x2="515.597" y2="168.626"/>
				
					<line fill="none" stroke="#C3DBE6" stroke-width="0.7903" stroke-miterlimit="10" x1="505.412" y1="121.489" x2="505.412" y2="167.332"/>
				
					<line fill="none" stroke="#C3DBE6" stroke-width="6.3222" stroke-miterlimit="10" x1="505.412" y1="128.189" x2="505.412" y2="156.576"/>
				
					<line fill="none" stroke="#C3DBE6" stroke-width="0.7903" stroke-miterlimit="10" x1="495.229" y1="137.175" x2="495.229" y2="171.557"/>
				
					<line fill="none" stroke="#C3DBE6" stroke-width="6.3222" stroke-miterlimit="10" x1="495.229" y1="146.05" x2="495.229" y2="161.213"/>
				
					<line fill="none" stroke="#C3DBE6" stroke-width="0.7903" stroke-miterlimit="10" x1="485.046" y1="142.112" x2="485.046" y2="183.018"/>
				
					<line fill="none" stroke="#C3DBE6" stroke-width="6.3222" stroke-miterlimit="10" x1="485.046" y1="152.868" x2="485.046" y2="177.2"/>
				
					<line fill="none" stroke="#C3DBE6" stroke-width="0.7903" stroke-miterlimit="10" x1="474.862" y1="134.883" x2="474.862" y2="170.5"/>
				
					<line fill="none" stroke="#C3DBE6" stroke-width="6.3222" stroke-miterlimit="10" x1="474.862" y1="143.229" x2="474.862" y2="163.447"/>
				
					<line fill="none" stroke="#C3DBE6" stroke-width="0.7903" stroke-miterlimit="10" x1="464.679" y1="120.602" x2="464.679" y2="163.271"/>
				
					<line fill="none" stroke="#C3DBE6" stroke-width="6.3222" stroke-miterlimit="10" x1="464.679" y1="128.889" x2="464.679" y2="155.688"/>
				
					<line fill="none" stroke="#C3DBE6" stroke-width="0.7903" stroke-miterlimit="10" x1="454.495" y1="140.782" x2="454.495" y2="174.635"/>
				
					<line fill="none" stroke="#C3DBE6" stroke-width="6.3222" stroke-miterlimit="10" x1="454.495" y1="148.893" x2="454.495" y2="165.29"/>
				
					<line fill="none" stroke="#C3DBE6" stroke-width="0.7903" stroke-miterlimit="10" x1="444.312" y1="154.637" x2="444.312" y2="188.666"/>
				
					<line fill="none" stroke="#C3DBE6" stroke-width="6.3222" stroke-miterlimit="10" x1="444.312" y1="165.392" x2="444.312" y2="177.911"/>
				
					<line fill="none" stroke="#C3DBE6" stroke-width="0.7903" stroke-miterlimit="10" x1="434.128" y1="145.821" x2="434.128" y2="180.555"/>
				
					<line fill="none" stroke="#C3DBE6" stroke-width="6.3222" stroke-miterlimit="10" x1="434.128" y1="156.576" x2="434.128" y2="169.683"/>
				
					<line fill="none" stroke="#C3DBE6" stroke-width="0.7903" stroke-miterlimit="10" x1="423.944" y1="154.637" x2="423.944" y2="196.776"/>
				
					<line fill="none" stroke="#C3DBE6" stroke-width="6.3222" stroke-miterlimit="10" x1="423.944" y1="165.392" x2="423.944" y2="189.724"/>
				
					<line fill="none" stroke="#C3DBE6" stroke-width="0.7903" stroke-miterlimit="10" x1="413.761" y1="154.637" x2="413.761" y2="183.817"/>
				
					<line fill="none" stroke="#C3DBE6" stroke-width="6.3222" stroke-miterlimit="10" x1="413.761" y1="165.392" x2="413.761" y2="177.264"/>
				
					<line fill="none" stroke="#C3DBE6" stroke-width="0.7903" stroke-miterlimit="10" x1="403.577" y1="150.053" x2="403.577" y2="180.555"/>
				
					<line fill="none" stroke="#C3DBE6" stroke-width="6.3222" stroke-miterlimit="10" x1="403.577" y1="160.808" x2="403.577" y2="169.683"/>
				
					<line fill="none" stroke="#C3DBE6" stroke-width="0.7903" stroke-miterlimit="10" x1="393.394" y1="154.637" x2="393.394" y2="212.998"/>
				
					<line fill="none" stroke="#C3DBE6" stroke-width="6.3222" stroke-miterlimit="10" x1="393.394" y1="165.392" x2="393.394" y2="206.65"/>
				
					<line fill="none" stroke="#C3DBE6" stroke-width="0.7903" stroke-miterlimit="10" x1="383.21" y1="171.034" x2="383.21" y2="216.876"/>
				
					<line fill="none" stroke="#C3DBE6" stroke-width="6.3222" stroke-miterlimit="10" x1="383.21" y1="181.79" x2="383.21" y2="206.121"/>
				
					<line fill="none" stroke="#C3DBE6" stroke-width="0.7903" stroke-miterlimit="10" x1="373.026" y1="172.974" x2="373.026" y2="225.164"/>
				
					<line fill="none" stroke="#C3DBE6" stroke-width="6.3222" stroke-miterlimit="10" x1="373.026" y1="182.848" x2="373.026" y2="214.408"/>
				
					<line fill="none" stroke="#C3DBE6" stroke-width="0.7903" stroke-miterlimit="10" x1="362.843" y1="202.949" x2="362.843" y2="245.265"/>
				
					<line fill="none" stroke="#C3DBE6" stroke-width="6.3222" stroke-miterlimit="10" x1="362.843" y1="210.178" x2="362.843" y2="234.51"/>
				
					<line fill="none" stroke="#C3DBE6" stroke-width="0.7903" stroke-miterlimit="10" x1="352.66" y1="162.174" x2="352.66" y2="208.017"/>
				
					<line fill="none" stroke="#C3DBE6" stroke-width="6.3222" stroke-miterlimit="10" x1="352.66" y1="172.93" x2="352.66" y2="202.904"/>
				
					<line fill="none" stroke="#C3DBE6" stroke-width="0.7903" stroke-miterlimit="10" x1="342.477" y1="165.921" x2="342.477" y2="211.764"/>
				
					<line fill="none" stroke="#C3DBE6" stroke-width="6.3222" stroke-miterlimit="10" x1="342.477" y1="183.2" x2="342.477" y2="201.008"/>
				
					<line fill="none" stroke="#C3DBE6" stroke-width="0.7903" stroke-miterlimit="10" x1="332.293" y1="183.2" x2="332.293" y2="229.042"/>
				
					<line fill="none" stroke="#C3DBE6" stroke-width="6.3222" stroke-miterlimit="10" x1="332.293" y1="202.771" x2="332.293" y2="218.287"/>
				
					<line fill="none" stroke="#C3DBE6" stroke-width="0.7903" stroke-miterlimit="10" x1="322.109" y1="193.956" x2="322.109" y2="239.798"/>
				
					<line fill="none" stroke="#C3DBE6" stroke-width="6.3222" stroke-miterlimit="10" x1="322.109" y1="216.877" x2="322.109" y2="229.042"/>
				
					<line fill="none" stroke="#C3DBE6" stroke-width="0.7903" stroke-miterlimit="10" x1="311.926" y1="187.608" x2="311.926" y2="233.451"/>
				
					<line fill="none" stroke="#C3DBE6" stroke-width="6.3222" stroke-miterlimit="10" x1="311.926" y1="207.884" x2="311.926" y2="222.695"/>
				
					<line fill="none" stroke="#C3DBE6" stroke-width="0.7903" stroke-miterlimit="10" x1="301.742" y1="183.2" x2="301.742" y2="229.042"/>
				
					<line fill="none" stroke="#C3DBE6" stroke-width="6.3222" stroke-miterlimit="10" x1="301.742" y1="199.774" x2="301.742" y2="218.287"/>
				
					<line fill="none" stroke="#C3DBE6" stroke-width="0.7903" stroke-miterlimit="10" x1="291.559" y1="194.498" x2="291.559" y2="240.34"/>
				
					<line fill="none" stroke="#C3DBE6" stroke-width="6.3222" stroke-miterlimit="10" x1="291.559" y1="201.021" x2="291.559" y2="229.584"/>
				
					<line fill="none" stroke="#C3DBE6" stroke-width="0.7903" stroke-miterlimit="10" x1="281.375" y1="175.429" x2="281.375" y2="221.271"/>
				
					<line fill="none" stroke="#C3DBE6" stroke-width="6.3222" stroke-miterlimit="10" x1="281.375" y1="186.184" x2="281.375" y2="213.866"/>
				
					<line fill="none" stroke="#C3DBE6" stroke-width="0.7903" stroke-miterlimit="10" x1="271.191" y1="156.57" x2="271.191" y2="202.413"/>
				
					<line fill="none" stroke="#C3DBE6" stroke-width="6.3222" stroke-miterlimit="10" x1="271.191" y1="167.326" x2="271.191" y2="195.36"/>
				
					<line fill="none" stroke="#C3DBE6" stroke-width="0.7903" stroke-miterlimit="10" x1="261.008" y1="164.328" x2="261.008" y2="210.171"/>
				
					<line fill="none" stroke="#C3DBE6" stroke-width="6.3222" stroke-miterlimit="10" x1="261.008" y1="172.086" x2="261.008" y2="199.416"/>
				
					<line fill="none" stroke="#C3DBE6" stroke-width="0.7903" stroke-miterlimit="10" x1="250.824" y1="154.813" x2="250.824" y2="200.655"/>
				
					<line fill="none" stroke="#C3DBE6" stroke-width="6.3222" stroke-miterlimit="10" x1="250.824" y1="165.568" x2="250.824" y2="173.15"/>
				
					<line fill="none" stroke="#C3DBE6" stroke-width="0.7903" stroke-miterlimit="10" x1="240.641" y1="144.41" x2="240.641" y2="190.253"/>
				
					<line fill="none" stroke="#C3DBE6" stroke-width="6.3222" stroke-miterlimit="10" x1="240.641" y1="155.166" x2="240.641" y2="167.332"/>
				
					<line fill="none" stroke="#C3DBE6" stroke-width="0.7903" stroke-miterlimit="10" x1="230.457" y1="166.538" x2="230.457" y2="220.932"/>
				
					<line fill="none" stroke="#C3DBE6" stroke-width="6.3222" stroke-miterlimit="10" x1="230.457" y1="172.18" x2="230.457" y2="210.177"/>
				
					<line fill="none" stroke="#C3DBE6" stroke-width="0.7903" stroke-miterlimit="10" x1="220.273" y1="197.658" x2="220.273" y2="243.5"/>
				
					<line fill="none" stroke="#C3DBE6" stroke-width="6.3222" stroke-miterlimit="10" x1="220.273" y1="186.027" x2="220.273" y2="206.656"/>
				
					<line fill="none" stroke="#C3DBE6" stroke-width="0.7903" stroke-miterlimit="10" x1="210.09" y1="194.49" x2="210.09" y2="240.333"/>
				
					<line fill="none" stroke="#C3DBE6" stroke-width="6.3222" stroke-miterlimit="10" x1="210.09" y1="202.777" x2="210.09" y2="229.578"/>
			</g>
		</g>
	</g>
	<g>
		<path fill="#DCECF0" d="M645.621,220.01l-13.53,20.8h-24.819c0.779-13.48,11.96-24.18,25.64-24.18
			C637.531,216.629,641.871,217.859,645.621,220.01z"/>
		<path fill="#C3DBE6" d="M658.581,242.3c0,4.87-1.35,9.41-3.71,13.29l-19.91-13.69l13.17-20.26
			C654.472,226.31,658.581,233.83,658.581,242.3z"/>
		<path fill="#A2C5D2" d="M653.161,258.069c-4.7,6.03-12.021,9.91-20.25,9.91c-13.67,0-24.85-10.689-25.64-24.17h25.17
			L653.161,258.069z"/>
	</g>
	<g>
		<g>
			<path fill="#FF9014" d="M648.884,429.966c0,0,18.55-5.22,17.316-16.961s-15.356-14.1-7.164-24.5s10.452-15.778,4.73-21.271
				s4.738-9.253,4.296-19.409c-0.443-10.155-10.587-12.224-16.946-7.71c-6.358,4.514-1.864,12.412-4.404,18.618
				s-11.724,8.275-13.286,15.986c-1.563,7.711,6.734,14.127,6.838,19.747c0.104,5.62-10.578,11.849-10.571,20.123
				C629.7,422.865,645.377,429.861,648.884,429.966z"/>
			<g>
				<path fill="#FF7800" d="M650.582,433.397c-1.118-6.979-1.71-14.14-1.978-21.262c-0.249-7.135-0.094-14.286,0.468-21.409
					c0.555-7.128,1.729-14.194,3.328-21.165c1.662-6.965,4.104-13.719,7.111-20.231c-3.18,6.426-5.813,13.138-7.669,20.089
					c-1.793,6.955-3.165,14.038-3.915,21.197c-0.758,7.155-1.106,14.356-1.048,21.559c0.081,7.211,0.474,14.385,1.433,21.598
					L650.582,433.397z"/>
			</g>
		</g>
		<g>
			<path fill="#FF7800" d="M645.65,446.706c0,0-12.197-8.384-8.873-17.267s6.253-6.948,6.033-19.241s4.219-19.409,17.597-20.743
				s18.837-6.174,25.624-8.303s11.488-0.936,13.285,3.469c1.796,4.405,0.02,11.253-8.668,12.484
				c-8.688,1.23-13.291,3.826-14.145,12.844c-0.854,9.017-5.049,11.283-13.001,12.801
				C655.552,424.268,665.066,444.243,645.65,446.706z"/>
			<g>
				<path fill="#FF9014" d="M645.319,444.924c0.662-12.263,4.534-24.344,11.386-34.466c6.837-10.106,16.727-18.125,28.083-22.378
					c-11.23,4.575-20.784,12.822-27.222,22.945c-6.452,10.139-9.882,22.064-10.187,33.979L645.319,444.924z"/>
			</g>
		</g>
		<g>
			<path fill="#FF9407" d="M640.514,433.761c0,0-14.219-1.937-16.59-10.235s3.305-11.346-4.724-14.383
				c-8.028-3.036-13.908-1.969-15.513-9.953c-1.604-7.984-4.116-13.516-10.421-16.872c-6.305-3.355-1.012-12.404,5.743-9.597
				c6.755,2.809,8.939,8.146,18.496,7.33c10.78-0.919,17.022,1.789,15.976,10.207c-0.815,6.555,0.79,7.438,7.832,10.35
				c12.006,4.961,9.696,17.333,5.854,25.56C643.326,434.393,640.514,433.761,640.514,433.761z"/>
			<g>
				<path fill="#FF7800" d="M637.762,431.456c0.429-5.634-0.765-11.354-2.938-16.642c-2.179-5.304-5.31-10.221-8.969-14.683
					c-3.669-4.466-7.88-8.491-12.443-12.066c-4.567-3.574-9.494-6.7-14.682-9.335c5.255,2.496,10.276,5.496,14.962,8.967
					c4.682,3.472,9.035,7.415,12.87,11.838c3.826,4.423,7.149,9.337,9.539,14.735c2.379,5.381,3.805,11.308,3.507,17.318
					L637.762,431.456z"/>
			</g>
		</g>
		<g>
			<path fill="#304A5F" d="M660.318,429.004h-15.439h-15.439c0,0-2.53,13.415,4.557,26.07h10.883h10.884
				C662.85,442.419,660.318,429.004,660.318,429.004z"/>
			<path fill="#2C4C6A" d="M662.407,434.497c-0.126-3.414-0.434-5.493-0.434-5.493h-17.095h-17.094c0,0-0.308,2.079-0.434,5.493
				H662.407z"/>
		</g>
	</g>
	<g>
		<g>
			<path fill="#FF7800" d="M101.396,435.482c0.052-4.913,9.527-18.725,8.078-24.232c-2.905-11.043-13.397-7.759-12.375-20.125
				c0.588-7.106-3.906-13.698-17.441-12.75c-13.68,0.958-16.663-4.313-23.649-5.965c-6.985-1.652-11.633-0.111-13.122,4.452
				c-1.49,4.564,0.793,11.33,9.628,11.94c8.834,0.611,12.074,2.182,13.585,11.197c1.512,9.016,9.123,3.722,15.75,8.5
				c5.375,3.875-2.982,7.535,2.375,14.5C87.487,427.241,98.777,428.188,101.396,435.482z"/>
			<g>
				<path fill="#FF9014" d="M99.579,433.89c-1.176-11.979-5.501-23.74-12.737-33.479c-7.222-9.724-17.442-17.329-29.081-21.115
					c11.737,3.468,22.266,10.831,29.87,20.512c7.619,9.694,12.379,21.573,13.924,33.863L99.579,433.89z"/>
			</g>
		</g>
		<g>
			<path fill="#FF9014" d="M113.475,433.449c0,0-19.933-2.902-20.241-15.238s10.854-16.355,0.957-26.026s-9.813-15.275-4.625-21.741
				c5.188-6.466-6.162-8.95-7.076-19.536s9.319-14.102,16.521-10.283c7.2,3.818,3.61,12.612,7.083,18.702
				c3.472,6.089,13.27,6.991,15.933,14.771s-0.39,14.373,0.264,20.212c0.652,5.84,7.886,12.029,8.997,20.607
				C132.397,423.494,117.095,432.866,113.475,433.449z"/>
			<g>
				<path fill="#FF7800" d="M112.387,437.242c0.198-7.403-0.175-14.905-0.879-22.328c-0.725-7.433-1.87-14.825-3.434-22.133
					c-1.557-7.313-3.748-14.479-6.364-21.483c-2.682-6.99-6.143-13.654-10.155-19.987c4.149,6.24,7.77,12.846,10.616,19.803
					c2.782,6.971,5.145,14.126,6.872,21.444c1.734,7.313,3.053,14.728,3.947,22.196c0.874,7.479,1.419,14.97,1.383,22.556
					L112.387,437.242z"/>
			</g>
		</g>
		<g>
			<path fill="#FF7800" d="M138.721,423.289c1.993-9.055-5.158-6.626,3.247-10.414c8.406-3.787,10.817-4.014,12.008-12.679
				c1.19-8.666,3.519-14.763,10.055-18.778c6.537-4.016,0.264-13.366-6.792-9.908s-9.044,9.324-19.344,9.083
				c-11.618-0.271-18.131,3.045-16.451,12.001c1.308,6.973-1.009,12.931-8.366,16.518c-12.542,6.114,0.564,17.479,4.405,29.925
				C124.124,421.936,136.729,432.343,138.721,423.289z"/>
			<g>
				<path fill="#FF9014" d="M117.612,437.31c-0.718-6.425,0.419-12.873,2.613-18.799c2.203-5.946,5.441-11.435,9.25-16.43
					c3.818-4.996,8.225-9.512,13.015-13.544c4.793-4.03,9.979-7.579,15.446-10.603c-5.387,3.168-10.462,6.845-15.121,10.979
					c-4.656,4.136-8.904,8.73-12.542,13.761c-3.628,5.026-6.657,10.505-8.643,16.335c-1.98,5.813-2.881,12.023-2.049,18.035
					L117.612,437.31z"/>
			</g>
		</g>
		<g>
			<path fill="#304A5F" d="M95.889,429.004h15.439h15.439c0,0,2.531,13.415-4.556,26.07h-10.884h-10.883
				C93.358,442.419,95.889,429.004,95.889,429.004z"/>
			<path fill="#2C4C6A" d="M93.801,434.497c0.126-3.414,0.434-5.493,0.434-5.493h17.094h17.095c0,0,0.308,2.079,0.434,5.493H93.801z
				"/>
		</g>
	</g>
	<g>
		<path fill="#FFFFFF" stroke="#C3DBE6" stroke-width="2.7309" stroke-miterlimit="10" d="M586.516,228.302h-58.044
			c-1.88,0-3.403-1.524-3.403-3.403v-39.783c0-1.879,1.523-3.403,3.403-3.403h58.044c1.879,0,3.403,1.524,3.403,3.403v39.783
			C589.919,226.778,588.395,228.302,586.516,228.302z"/>
		<path fill="none" stroke="#C3DBE6" stroke-width="2" stroke-linecap="round" stroke-linejoin="round" stroke-miterlimit="10" d="
			M529.787,222.457c4.617,0,4.617-6.314,9.235-6.314c4.617,0,4.617-11.135,9.234-11.135s3.339,7.258,7.956,7.258
			s5.896-19.012,10.514-19.012c4.618,0,4.618,8.344,9.236,8.344s4.618-8.344,9.236-8.344"/>
	</g>
	<g>
		<path fill="#C3DBE6" d="M617.801,139.833h-3.924c-0.703,0-1.336-0.444-1.553-1.113c-0.252-0.776-0.563-1.525-0.929-2.242
			c-0.32-0.627-0.188-1.389,0.31-1.887l2.775-2.775c0.644-0.644,0.644-1.686,0-2.33l-2.792-2.792c-0.644-0.644-1.687-0.644-2.329,0
			l-2.775,2.775c-0.498,0.498-1.261,0.63-1.888,0.31c-0.717-0.366-1.466-0.678-2.242-0.929c-0.669-0.217-1.114-0.85-1.114-1.553
			v-3.925c0-0.91-0.737-1.647-1.646-1.647h-3.949c-0.91,0-1.647,0.737-1.647,1.647v3.925c0,0.703-0.444,1.337-1.113,1.553
			c-0.776,0.251-1.525,0.563-2.242,0.929c-0.627,0.32-1.39,0.188-1.888-0.31l-2.774-2.775c-0.644-0.644-1.687-0.644-2.329,0
			l-2.792,2.792c-0.644,0.643-0.644,1.686,0,2.33l2.775,2.775c0.498,0.498,0.63,1.26,0.31,1.887
			c-0.366,0.717-0.678,1.466-0.929,2.242c-0.217,0.669-0.851,1.113-1.554,1.113h-3.925c-0.909,0-1.646,0.738-1.646,1.647v3.949
			c0,0.91,0.737,1.647,1.646,1.647h3.925c0.703,0,1.337,0.444,1.554,1.113c0.251,0.777,0.563,1.526,0.929,2.243
			c0.32,0.627,0.188,1.389-0.31,1.887l-2.775,2.775c-0.644,0.644-0.644,1.687,0,2.33l2.792,2.792c0.643,0.644,1.686,0.644,2.329,0
			l2.774-2.775c0.498-0.498,1.261-0.63,1.888-0.31c0.717,0.366,1.466,0.677,2.242,0.929c0.669,0.216,1.113,0.85,1.113,1.553v3.924
			c0,0.91,0.737,1.647,1.647,1.647h3.949c0.909,0,1.646-0.737,1.646-1.647v-3.924c0-0.703,0.445-1.337,1.114-1.553
			c0.776-0.251,1.525-0.563,2.242-0.929c0.627-0.32,1.39-0.188,1.888,0.31l2.775,2.776c0.643,0.643,1.687,0.643,2.329,0l2.792-2.792
			c0.644-0.644,0.644-1.686,0-2.33l-2.775-2.775c-0.498-0.498-0.63-1.26-0.31-1.887c0.366-0.717,0.677-1.465,0.929-2.242
			c0.217-0.669,0.85-1.113,1.553-1.113h3.924c0.91,0,1.647-0.738,1.647-1.647v-3.949
			C619.448,140.57,618.711,139.833,617.801,139.833z M597.719,151.653c-4.531,0-8.198-3.667-8.198-8.199s3.667-8.199,8.198-8.199
			c4.532,0,8.199,3.667,8.199,8.199S602.251,151.653,597.719,151.653z"/>
		<path fill="#C3DBE6" d="M645.774,157.672h-2.471c-0.442,0-0.842-0.28-0.978-0.701c-0.158-0.489-0.354-0.96-0.585-1.412
			c-0.201-0.395-0.118-0.875,0.195-1.188l1.747-1.748c0.405-0.405,0.405-1.062,0-1.466l-1.758-1.758
			c-0.405-0.405-1.062-0.405-1.467,0l-1.747,1.747c-0.313,0.313-0.794,0.397-1.188,0.195c-0.451-0.231-0.923-0.427-1.412-0.585
			c-0.421-0.136-0.701-0.535-0.701-0.978v-2.471c0-0.573-0.464-1.037-1.037-1.037h-2.486c-0.572,0-1.037,0.464-1.037,1.037v2.471
			c0,0.443-0.279,0.842-0.701,0.978c-0.488,0.158-0.96,0.354-1.411,0.585c-0.396,0.202-0.875,0.118-1.188-0.195l-1.747-1.747
			c-0.405-0.405-1.062-0.405-1.467,0l-1.758,1.758c-0.405,0.405-0.405,1.062,0,1.467l1.747,1.747
			c0.313,0.313,0.397,0.793,0.195,1.188c-0.23,0.451-0.427,0.922-0.585,1.412c-0.136,0.421-0.535,0.701-0.978,0.701h-2.472
			c-0.572,0-1.037,0.464-1.037,1.037v2.486c0,0.573,0.465,1.037,1.037,1.037h2.472c0.442,0,0.842,0.28,0.978,0.701
			c0.158,0.489,0.354,0.961,0.585,1.412c0.202,0.395,0.118,0.875-0.195,1.188l-1.747,1.748c-0.405,0.405-0.405,1.062,0,1.467
			l1.758,1.757c0.405,0.405,1.062,0.405,1.467,0l1.747-1.747c0.313-0.313,0.793-0.397,1.188-0.195
			c0.451,0.23,0.923,0.426,1.411,0.584c0.422,0.136,0.701,0.535,0.701,0.978v2.471c0,0.573,0.465,1.037,1.037,1.037h2.486
			c0.573,0,1.037-0.464,1.037-1.037v-2.471c0-0.443,0.28-0.841,0.701-0.978c0.489-0.158,0.961-0.354,1.412-0.585
			c0.395-0.202,0.875-0.119,1.188,0.195l1.747,1.748c0.405,0.405,1.063,0.405,1.467,0l1.758-1.758c0.405-0.405,0.405-1.062,0-1.467
			l-1.747-1.747c-0.313-0.313-0.396-0.793-0.195-1.188c0.23-0.451,0.427-0.922,0.585-1.412c0.136-0.421,0.535-0.701,0.978-0.701
			h2.471c0.573,0,1.037-0.464,1.037-1.037v-2.486C646.812,158.137,646.348,157.672,645.774,157.672z M633.13,165.115
			c-2.853,0-5.162-2.309-5.162-5.162c0-2.854,2.31-5.163,5.162-5.163c2.854,0,5.163,2.309,5.163,5.163
			C638.293,162.806,635.983,165.115,633.13,165.115z"/>
		<path fill="#C3DBE6" d="M621.826,113.723H620.3c-0.273,0-0.52-0.173-0.604-0.433c-0.098-0.302-0.219-0.593-0.361-0.872
			c-0.125-0.244-0.073-0.54,0.12-0.734l1.08-1.079c0.25-0.25,0.25-0.655,0-0.906l-1.086-1.086c-0.25-0.25-0.656-0.25-0.906,0
			l-1.079,1.079c-0.194,0.194-0.49,0.245-0.733,0.121c-0.279-0.143-0.57-0.264-0.873-0.361c-0.26-0.084-0.433-0.331-0.433-0.604
			v-1.526c0-0.354-0.287-0.641-0.641-0.641h-1.536c-0.354,0-0.64,0.287-0.64,0.641v1.526c0,0.273-0.173,0.52-0.434,0.604
			c-0.302,0.098-0.593,0.219-0.872,0.361c-0.244,0.125-0.54,0.073-0.733-0.121l-1.079-1.079c-0.25-0.25-0.656-0.25-0.906,0
			l-1.086,1.086c-0.25,0.25-0.25,0.656,0,0.906l1.08,1.079c0.193,0.194,0.244,0.49,0.12,0.734c-0.143,0.279-0.264,0.57-0.361,0.872
			c-0.084,0.26-0.331,0.433-0.604,0.433h-1.526c-0.354,0-0.641,0.287-0.641,0.64v1.536c0,0.354,0.286,0.641,0.641,0.641h1.526
			c0.272,0,0.52,0.173,0.604,0.433c0.098,0.302,0.219,0.593,0.361,0.872c0.124,0.244,0.073,0.541-0.12,0.734l-1.08,1.079
			c-0.25,0.25-0.25,0.656,0,0.906l1.086,1.085c0.25,0.25,0.656,0.25,0.906,0l1.079-1.079c0.193-0.194,0.489-0.245,0.733-0.121
			c0.279,0.143,0.57,0.264,0.872,0.361c0.261,0.084,0.434,0.331,0.434,0.604v1.526c0,0.354,0.286,0.641,0.64,0.641h1.536
			c0.354,0,0.641-0.287,0.641-0.641v-1.526c0-0.273,0.173-0.52,0.433-0.604c0.303-0.098,0.594-0.219,0.872-0.361
			c0.244-0.125,0.54-0.073,0.734,0.121l1.079,1.079c0.25,0.25,0.656,0.25,0.906,0l1.086-1.086c0.25-0.25,0.25-0.656,0-0.906
			l-1.08-1.079c-0.193-0.194-0.245-0.49-0.12-0.734c0.143-0.279,0.264-0.57,0.361-0.872c0.084-0.26,0.33-0.433,0.604-0.433h1.526
			c0.354,0,0.641-0.287,0.641-0.641v-1.536C622.467,114.01,622.18,113.723,621.826,113.723z M614.017,118.32
			c-1.763,0-3.188-1.426-3.188-3.188s1.426-3.188,3.188-3.188s3.188,1.426,3.188,3.188S615.779,118.32,614.017,118.32z"/>
	</g>
	<g>
		<g>
			<path fill="#FF9407" d="M395.17,380.823c-0.441-3.438-2.193-6.607-4.464-9.227c-2.271-2.619-5.052-4.742-7.868-6.763
				c-3.595-2.579-7.472-5.099-11.866-5.602c-2.089-0.238-4.289,0.018-6.105,1.076c-1.817,1.058-3.185,3-3.221,5.102
				c-0.044,2.572,1.802,4.79,3.813,6.394s4.327,2.897,5.903,4.931c2.037,2.627,2.561,6.12,4.22,9
				c1.585,2.752,4.231,4.875,7.262,5.825c2.706,0.85,7.408,1.2,9.484-1.155C394.589,387.84,395.602,384.179,395.17,380.823z"/>
			<path fill="#FF9014" d="M395.897,381.067c-0.962-2.438-1.403-5.149-0.807-7.702c0.688-2.947,2.675-5.421,3.704-8.267
				c1.046-2.891,1.107-6.164,2.753-8.76c1.901-2.999,5.929-4.482,9.3-3.366c3.37,1.116,5.727,4.767,5.288,8.29
				c-0.306,2.451-1.771,4.598-2.431,6.979c-0.943,3.408-0.194,7.126-1.236,10.506c-0.87,2.826-3.024,5.229-5.739,6.402
				c-1.281,0.554-2.65,0.883-3.955,1.375c-0.864,0.325-1.86,0.918-2.82,0.655C397.972,386.636,396.569,382.772,395.897,381.067z"/>
			<path fill="#FF7800" d="M402.462,402.789c1.331-2.437,3.979-4.1,6.752-4.24c1.976-0.1,3.913,0.517,5.884,0.684
				c2.189,0.186,4.428-0.183,6.57,0.301s4.272,2.241,4.102,4.431c-0.124,1.595-1.461,2.89-2.962,3.439
				c-1.502,0.55-3.148,0.498-4.745,0.403s-3.227-0.222-4.771,0.192c-1.847,0.496-3.398,1.717-5.099,2.591
				c-1.8,0.925-4.698,1.715-5.921-0.338C400.994,408.105,401.313,404.896,402.462,402.789z"/>
			<path fill="none" stroke="#FF7800" stroke-width="0.724" stroke-miterlimit="10" d="M396.744,430.307
				c0,0,2.107-26.305,15.863-27.753"/>
			<path fill="none" stroke="#FF7800" stroke-width="0.724" stroke-miterlimit="10" d="M396.921,436.34
				c0,0-2.172-41.025,8.688-70.468"/>
			<path fill="none" stroke="#FF7800" stroke-width="0.724" stroke-miterlimit="10" d="M397.204,411.953
				c0,0,0.44-28.223-23.45-43.909"/>
		</g>
		<g>
			<path fill="#304A5F" d="M411.989,429.309H396.73h-15.26c0,0-2.501,13.258,4.503,25.766h10.757h10.757
				C414.491,442.566,411.989,429.309,411.989,429.309z"/>
			<path fill="#2C4C6A" d="M414.054,434.737c-0.124-3.374-0.429-5.429-0.429-5.429H396.73h-16.896c0,0-0.304,2.055-0.428,5.429
				H414.054z"/>
		</g>
	</g>
	<g>
		<rect x="455.643" y="35.866" fill="#C3DBE6" width="18.758" height="28.888"/>
		<polygon fill="#C3DBE6" points="465.021,17.667 447.919,38.944 482.125,38.944 		"/>
	</g>
	<g>
		<rect x="306.713" y="115.345" fill="#C3DBE6" width="18.758" height="28.888"/>
		<polygon fill="#C3DBE6" points="316.092,162.433 333.194,141.155 298.989,141.155 		"/>
	</g>
	<g>
		<circle fill="none" stroke="#A2C5D2" stroke-width="8.5831" stroke-miterlimit="10" cx="587.584" cy="60.243" r="17.971"/>
		<path fill="none" stroke="#C3DBE6" stroke-width="8.5831" stroke-miterlimit="10" d="M578.592,75.806
			c-5.368-3.108-8.979-8.914-8.979-15.563"/>
		<path fill="none" stroke="#DCECF0" stroke-width="8.5831" stroke-miterlimit="10" d="M569.613,60.243
			c0-9.925,8.046-17.971,17.971-17.971"/>
	</g>
	<g>
		<path fill="#C3DBE6" d="M198.482,62.558h-11.656c-1.268,0-2.296-1.028-2.296-2.296V48.606c0-1.268,1.028-2.296,2.296-2.296h11.656
			c1.269,0,2.296,1.028,2.296,2.296v11.656C200.778,61.53,199.751,62.558,198.482,62.558z"/>
		<g>
			
				<polyline fill="none" stroke="#FFFFFF" stroke-width="2.2181" stroke-linecap="round" stroke-linejoin="round" stroke-miterlimit="10" points="
				188.772,55.277 190.621,57.333 196.536,51.534 			"/>
		</g>
	</g>
	<g>
		<path fill="#C3DBE6" d="M628.241,306.952h-11.656c-1.269,0-2.296-1.028-2.296-2.296V293c0-1.269,1.027-2.296,2.296-2.296h11.656
			c1.268,0,2.296,1.027,2.296,2.296v11.656C630.537,305.924,629.509,306.952,628.241,306.952z"/>
		<g>
			
				<polyline fill="none" stroke="#FFFFFF" stroke-width="2.2181" stroke-linecap="round" stroke-linejoin="round" stroke-miterlimit="10" points="
				618.531,299.671 620.38,301.728 626.295,295.929 			"/>
		</g>
	</g>
	<g>
		<path fill="#C3DBE6" d="M126.034,219.304h-17.373c-1.89,0-3.422-1.532-3.422-3.422V198.51c0-1.89,1.532-3.422,3.422-3.422h17.373
			c1.89,0,3.422,1.532,3.422,3.422v17.372C129.456,217.772,127.924,219.304,126.034,219.304z"/>
		
			<polyline fill="none" stroke="#FFFFFF" stroke-width="3.3059" stroke-linecap="round" stroke-linejoin="round" stroke-miterlimit="10" points="
			111.563,208.452 114.317,211.517 123.133,202.875 		"/>
	</g>
	<g>
		<rect x="281.908" y="60.985" fill="#C3DBE6" width="6.455" height="6.858"/>
		<rect x="291.151" y="56.844" fill="#C3DBE6" width="6.454" height="11"/>
		<rect x="300.395" y="51.585" fill="#C3DBE6" width="6.454" height="16.259"/>
		<rect x="309.637" y="44.908" fill="#C3DBE6" width="6.455" height="22.936"/>
	</g>
	<g>
		<polygon fill="#FFC29F" points="216.669,445.84 206.654,445.84 205.671,429.621 215.442,429.004 		"/>
		<polygon fill="#FFC29F" points="163.36,445.476 153.588,445.184 155.339,430.963 164.381,432.349 		"/>
		<g>
			<polygon fill="#2C4C6A" points="172.146,276.944 152.544,439.423 164.547,439.423 193.017,321.186 205.146,439.423 
				217.01,439.423 214.093,276.944 			"/>
		</g>
		<path fill="#FFC29F" d="M243.563,217.147c0,0,1.984-3.817,1.832-5.574c-0.152-1.756-0.503-4.273,1.283-6.972
			c0.417-0.629,1.58-2.301,1.58-2.301s0.953,1.01,0.458,2.096c-0.496,1.088-0.834,2.247-0.834,2.247s0.866-1.577,4.156-2.534
			c1.541-0.449,7.608-1.987,7.608-1.987c0.858,0.01,0.741,1.24-0.948,2.042c0,0,0.754,0.778-0.632,1.556
			c0,0,0.971,0.726-0.947,1.799c0,0,0.764,0.614-1.216,1.799c-1.773,1.062-4.635,2.598-5.267,3.605
			c-0.846,1.349-2.211,5.973-2.211,5.973L243.563,217.147z"/>
		<g>
			<path fill="#FF9014" d="M180.645,199.716c0,0-12.203,3.573-14.975,4.302c-2.771,0.729,0,18.377,3.793,38.651
				c3.792,20.273,2.683,34.275,2.683,34.275h41.947c0,0,1.743-65.456,0.777-67.675c-1.75-4.021-19.342-9.598-19.342-9.598
				L180.645,199.716z"/>
		</g>
		<path fill="#FFA980" d="M183.096,185.22c0,0,0.417,10.047-1.333,14.082l2.139,4.06l5.64,3.428l3.573-2.678l1.046-3.059V185.22
			H183.096z"/>
		<g>
			<path fill="#2B2F3A" d="M178.632,177.796c-0.493-1.288-0.449-2.772,0.12-4.029c0.465-1.026,1.25-1.879,1.751-2.889
				c0.438-0.882,0.672-1.901,1.369-2.596c0.706-0.703,1.797-0.936,2.774-0.741s1.847,0.771,2.546,1.48
				c0.961,0.975,1.643,2.221,1.946,3.556c0.368,1.622,0.18,3.317-0.141,4.949c-0.291,1.479-0.722,3-1.74,4.112
				c-0.802,0.877-1.942,1.436-3.126,1.533c-1.168,0.096-2.865-0.233-3.519-1.329c-0.32-0.536-0.476-1.172-0.761-1.729
				C179.455,179.337,178.946,178.616,178.632,177.796z"/>
		</g>
		<path fill="#FFC29F" d="M200.091,169.208c0,0,2.432,22.267-4.083,25.475c-4.214,2.075-10.939-0.146-11.96-10.063
			c-1.021-9.918,3.445-14.747,8.653-15.412C197.271,168.625,200.091,169.208,200.091,169.208z"/>
		<path fill="#FFC29F" d="M183.901,180.293c0,0-1.507-1.653-2.966,0c-1.458,1.653,1.21,5.109,3.23,5.277L183.901,180.293z"/>
		<g>
			<path fill="#2B2F3A" d="M187.313,172.39c1.204,0.165,2.434,0.012,3.639,0.172c1.413,0.188,2.729,0.793,4.068,1.278
				c1.993,0.721,4.121,1.188,6.229,0.966c2.107-0.222,4.198-1.2,5.437-2.92c1.261-1.751,1.496-4.189,0.593-6.149
				c-0.902-1.96-2.908-3.366-5.059-3.545c-2.407-0.202-4.671,1.005-6.938,1.836c-2.42,0.887-4.988,1.367-7.565,1.414
				c-1.061,0.019-2.137-0.033-3.167,0.222c-1.029,0.255-2.034,0.882-2.428,1.867c-0.506,1.265,0.322,2.248,1.253,2.961
				C184.589,171.421,185.759,172.177,187.313,172.39z"/>
		</g>
		<path fill="#FF7800" d="M182.183,198.086c0,0,1.402,4.863,7.358,8.704c-0.194,1.823-5.301,5.518-7.48-0.571
			c-1.078-3.013-1.416-6.503-1.416-6.503L182.183,198.086z"/>
		<path fill="#FF7800" d="M189.541,206.79c4.497-3.087,4.619-8.538,4.619-8.538l1.368,1.42c0,0,1.013,6.073-1.126,8.868
			C192.935,210.458,189.737,207.964,189.541,206.79z"/>
		<path fill="#FFC29F" d="M169.268,277.576c0,0,4.23,6.417,6.053,7.876c1.823,1.458,3.226,4.544,3.226,4.544l-5.375,7.313
			c0,0-3.229-1.072-4.25-4.938c-1.021-3.865-1.986-4.294-3.664-8.013c-1.677-3.72-1.677-3.72-1.677-3.72L169.268,277.576z"/>
		<g>
			<path fill="#FF9014" d="M165.034,204.656c0,0-6.219,0.383-9.136,11.759s-6.546,30.086-7.519,38.06
				c-0.412,3.376,17.546,32.967,17.546,32.967s3.569-3.238,6.745-5.946c0,0-9.926-20.741-9.926-28.326
				c0,0,8.909-24.749,9.196-32.233C172.233,213.353,172.273,205.44,165.034,204.656z"/>
		</g>
		<g>
			<path fill="#FF9014" d="M214.87,209.269c2.327,0.353,9.433,16.189,13.954,24.357c4.521,8.168,4.521,8.168,4.521,8.168
				l10.938-28.003c0,0,3.646-0.583,5.834,2.625c0,0-5.834,37.776-7.292,42.005c-1.459,4.229-5.98,7.293-14.002-2.771
				c-8.022-10.063-21.878-29.607-23.045-31.795C204.612,221.667,201.404,207.227,214.87,209.269z"/>
		</g>
		<path fill="#21323F" d="M206.654,444.674h9.335c0,0,1.021,0,4.084,3.208c3.063,3.209,11.959,0.146,15.314,6.563h-29.462
			C205.926,454.445,203.154,449.341,206.654,444.674z"/>
		<g>
			<path fill="#21323F" d="M150.21,454.445c-1.118-3.743,1.507-6.466,2.334-9.771c0.51-2.041,10.75-3.3,11.765,1.166
				c0.973,4.278,0.194,8.605,0.194,8.605H150.21z"/>
		</g>
		
			<rect x="175.013" y="285.571" transform="matrix(0.8257 0.5641 -0.5641 0.8257 195.9644 -48.3256)" fill="#203B53" width="2.334" height="14.731"/>
		<rect x="172.146" y="276.944" fill="#203B53" width="42.002" height="3.014"/>
		<polygon fill="#203B53" points="193.017,321.186 198.851,299.381 195.01,340.607 		"/>
		<polygon fill="#FF7800" points="214.965,237.124 215.161,221.131 218.875,242.509 		"/>
		<path fill="#FF7800" d="M168.312,236.405l2.719-9.906l-1.003,19.354C170.027,245.853,168.376,237.395,168.312,236.405z"/>
	</g>
	<g>
		<g>
			<g>
				<g>
					<path fill="#2C4C6A" d="M571.256,453.077l-19.421-85.003h7.26l15.038,85.003C574.041,454.901,571.347,454.901,571.256,453.077z
						"/>
				</g>
				<g>
					<path fill="#2C4C6A" d="M522.191,453.077l-19.421-85.003h7.26l15.038,85.003C524.978,454.901,522.282,454.901,522.191,453.077z
						"/>
				</g>
				<g>
					<path fill="#A2C5D2" d="M454.983,453.077l19.421-85.003h-7.26l-15.037,85.003C452.198,454.901,454.893,454.901,454.983,453.077
						z"/>
				</g>
				<g>
					<path fill="#A2C5D2" d="M578.639,300.784h-39.495c-2.546,0-4.82,1.592-5.69,3.984l-19.314,53.063
						c-1.438,3.95,1.487,8.127,5.69,8.127h39.496c2.546,0,4.819-1.592,5.69-3.984l19.313-53.063
						C585.767,304.961,582.842,300.784,578.639,300.784z"/>
				</g>
				<g>
					<path fill="#A2C5D2" d="M563.145,370.188H461.65c-1.168,0-2.115-0.946-2.115-2.114l0,0c0-1.168,0.947-2.115,2.115-2.115
						h101.494c1.168,0,2.115,0.947,2.115,2.115l0,0C565.26,369.242,564.313,370.188,563.145,370.188z"/>
				</g>
				<g>
					<path fill="#91B9C4" d="M563.145,370.188h-40.936c-1.168,0-2.115-0.946-2.115-2.114l0,0c0-1.168,0.947-2.115,2.115-2.115
						h40.936c1.168,0,2.115,0.947,2.115,2.115l0,0C565.26,369.242,564.313,370.188,563.145,370.188z"/>
				</g>
				<g>
					<path fill="#A2C5D2" d="M500.839,453.077l19.421-85.003H513l-15.037,85.003C498.053,454.901,500.748,454.901,500.839,453.077z"
						/>
				</g>
			</g>
			<g>
				<path fill="#21323F" d="M533.196,246.047c0,0-5.834,0.314-6.32,6.634c-0.486,6.32,0.65,9.603-2.072,15.923
					s-4.929,14.804,6.448,15.581c11.376,0.778,14.873,0.292,18.375,3.015s15.438-5.542,11.158-12.835
					c-4.277-7.293-5.906-11.474-4.156-17.113c1.751-5.64-1.935-11.824-8.75-14.488C542.157,240.527,537.475,240.871,533.196,246.047
					z"/>
			</g>
			<g>
				<path fill="#FF9014" d="M530.243,282.24c0,0,1.592,4.959-2.326,19.253c-3.911,14.266-5.188,19.008-8.877,21.683
					c-2.276,1.651-28.144,1.651-28.144,1.651v-7.291l22.756-2.771c0,0,2.878-14.119,5.787-22.983
					c1.006-3.065,2.695-11.023,6.291-12.593C529.325,277.62,530.243,282.24,530.243,282.24z"/>
			</g>
			<g>
				<g>
					<path fill="#FF9014" d="M559.455,306.65c-1.073,8.063-3.99,27.805-3.99,27.805h-30.244c0,0,0.91-12.076-0.571-18.634
						c-0.269-1.202-0.619-2.229-1.073-2.952c-2.346-3.745-4.446-7.246-4.47-11.108c0-0.934,0.117-1.901,0.386-2.894
						c1.354-5.052,3.396-16.242,5.928-19.346c2.531-3.115,15.136-2.718,15.136-2.718s16.481,0.049,21.42,2.812
						c1.316,0.736,1.82,2.392,1.925,4.375C564.239,290.163,560.26,300.548,559.455,306.65z"/>
				</g>
				<path fill="#FF7800" d="M554.578,309.275c0,0-23.057,1.855-29.929,6.546c-0.269-1.202-0.619-2.229-1.073-2.952
					c-2.346-3.745-4.446-7.246-4.47-11.108c1.529,3.174,5.426,7.387,15.344,7.515C550.4,309.462,554.578,309.275,554.578,309.275z"
					/>
				<path fill="#FF7800" d="M559.455,306.65c-1.073,8.063-3.99,27.805-3.99,27.805l1.447-46.661l6.988-3.804
					C564.239,290.163,560.26,300.548,559.455,306.65z"/>
			</g>
			<g>
				<path fill="#FFC29F" d="M547.829,318.465c0,0-14.425,0.53-18.953,0.821c0,0-4.116-1.558-6.667-1.75
					c-3.865-0.292-7.269,3.571-8.289,7.291h33.43L547.829,318.465z"/>
				<g>
					<path fill="#FF9014" d="M563.268,281.16c0,0,4.252,7.936,7.023,18.437s6.563,21.148,3.063,24.065
						c-3.501,2.917-25.962,1.75-25.962,1.75l-0.584-7.876l17.111-2.771c0,0-6.464-16.19-7.484-19.107
						c-1.021-2.917-1.794-11.884,1.801-13.453C561.832,280.636,563.268,281.16,563.268,281.16z"/>
				</g>
			</g>
			<g>
				<g>
					<polygon fill="#FFC29F" points="480.847,446.146 475.695,446.146 475.021,438.541 481.312,437.917 					"/>
					<g>
						<path fill="#192730" d="M480.847,446.146c0,0,1.899,1.979,1.271,6.356c-0.298,2.074-4.817,1.94-12.445,1.94h-7.594
							c-1.29,0-1.86-1.602-0.877-2.436c0.463-0.393,1.113-0.762,2.024-1.044c8.58-2.657,12.469-4.817,12.469-4.817H480.847z"/>
					</g>
				</g>
				<path fill="#203B53" d="M541.869,334.455c-0.049,2.625,5.979,11.526,4.783,20.2c-0.784,5.688-5.668,11.304-17.064,11.304
					c-15.562,0-40.358-0.167-44.412,0c-3.216,0.133-4.749,0.204-2.862,6.271c4.467,14.366,0.689,38.828-0.483,71.937h-6.795
					c0,0-6.029-34.36-8.528-50.982c-3.89-25.864-9.796-36.01,1.458-41.373c11.903-5.672,57.296-17.356,57.296-17.356H541.869z"/>
				<g>
					<polygon fill="#FFC29F" points="495.514,446.146 490.361,446.146 489.688,438.541 495.979,437.917 					"/>
					<g>
						<path fill="#21323F" d="M495.514,446.146c0,0,1.899,1.979,1.271,6.356c-0.298,2.074-4.817,1.94-12.445,1.94h-7.595
							c-1.289,0-1.859-1.602-0.876-2.436c0.463-0.393,1.113-0.762,2.023-1.044c8.581-2.657,12.469-4.817,12.469-4.817H495.514z"/>
					</g>
				</g>
				<g>
					<path fill="#2C4C6A" d="M555.463,334.455c-0.049,2.625,5.979,11.526,4.783,20.2c-0.784,5.688-5.668,11.304-17.065,11.304
						c-15.562,0-40.255,0-44.411,0c-3.219,0-4.749,0.204-2.862,6.271c4.467,14.366,2.474,39.119,0.237,71.937h-6.814
						c0,0-6.73-34.36-9.229-50.982c-3.89-25.864-9.796-36.01,1.458-41.373c11.902-5.672,53.828-17.356,53.828-17.356H555.463z"/>
				</g>
			</g>
			<g>
				<g>
					<path fill="#FFC29F" d="M532.321,277.158c0,0-0.092,6.443,4.278,10.139c0,0,9.279-4.327,12.635-10.125
						C549.234,277.172,540.52,276.217,532.321,277.158z"/>
					<path fill="#FFC29F" d="M534.21,276.975c0,0,2.286-0.233,2.286-2.917s0.268-7.788,0.268-7.788l8.605,0.729
						c0,0-0.729,8.429,0.656,9.976s1.386,1.547,1.386,1.547S535.595,280.532,534.21,276.975z"/>
				</g>
				<path fill="#FFA980" d="M536.499,272.979c0,0,5.658,0.875,8.679-1.531l0.191-4.448l-8.87,1.92V272.979z"/>
				<path fill="#FFC29F" d="M531.494,249.195c0,0-7.584,20.793,3.063,23.127s12.835-8.751,12.835-8.751s2.752-0.654,3.179-3.039
					c0.413-2.309-2.79-1.434-2.79-1.434s2.83-8.552-3.598-11.425C537.428,244.653,532.808,246.235,531.494,249.195z"/>
				<g>
					<path fill="#21323F" d="M532.51,246.652c0,0,2.437,11.668,15.271,12.446c0,0,3.307-8.265,1.07-11.766
						C546.614,243.833,536.302,241.645,532.51,246.652z"/>
				</g>
			</g>
		</g>
		<g>
			<g>
				<path fill="#21323F" d="M520.791,322.492h-50.685l-12.144-33.363c-0.516-1.417,0.533-2.915,2.041-2.915h46.062
					c0.913,0,1.729,0.571,2.041,1.429L520.791,322.492z"/>
			</g>
			<g>
				<path fill="#21323F" d="M550.915,325.643h-50.37c-0.87,0-1.575-0.705-1.575-1.575l0,0c0-0.87,0.705-1.575,1.575-1.575h50.37
					c0.87,0,1.575,0.705,1.575,1.575l0,0C552.49,324.938,551.785,325.643,550.915,325.643z"/>
			</g>
			<g>
				<path fill="#21323F" d="M520.634,325.643h-50.37c-0.87,0-1.576-0.705-1.576-1.575l0,0c0-0.87,0.706-1.575,1.576-1.575h50.37
					c0.87,0,1.575,0.705,1.575,1.575l0,0C522.209,324.938,521.504,325.643,520.634,325.643z"/>
			</g>
		</g>
	</g>
	<g>
		<path fill="#2C4C6A" d="M640.307,452.451l-28.299-123.86h10.578l21.912,123.86C644.366,455.11,640.439,455.11,640.307,452.451z"/>
		<path fill="#2C4C6A" d="M354.632,452.451l-28.299-123.86h10.578l21.912,123.86C358.69,455.11,354.764,455.11,354.632,452.451z"/>
		<path fill="#C3DBE6" d="M242.729,452.451l28.299-123.86h-10.578l-21.912,123.86C238.669,455.11,242.596,455.11,242.729,452.451z"
			/>
		<path fill="#C3DBE6" d="M514.54,452.451l28.299-123.86h-10.578l-21.912,123.86C510.481,455.11,514.408,455.11,514.54,452.451z"/>
		<path fill="#A2C5D2" d="M241.085,331.538h403.678c1.407,0,2.548-1.141,2.548-2.548v-0.799c0-1.408-1.141-2.549-2.548-2.549
			H241.085c-1.407,0-2.548,1.141-2.548,2.549v0.799C238.537,330.397,239.678,331.538,241.085,331.538z"/>
		<path fill="#91B9C4" d="M554.549,331.538h89.814c1.628,0,2.947-1.319,2.947-2.947l0,0c0-1.628-1.319-2.948-2.947-2.948h-89.814
			c-1.628,0-2.947,1.32-2.947,2.948l0,0C551.602,330.219,552.921,331.538,554.549,331.538z"/>
	</g>
	<g>
		<g>
			<path fill="#21323F" d="M326.947,322.492h50.685l12.144-33.363c0.516-1.417-0.533-2.915-2.041-2.915h-46.062
				c-0.913,0-1.729,0.571-2.041,1.429L326.947,322.492z"/>
		</g>
		<g>
			<path fill="#21323F" d="M296.822,325.643h50.371c0.87,0,1.575-0.705,1.575-1.575l0,0c0-0.87-0.705-1.575-1.575-1.575h-50.371
				c-0.869,0-1.575,0.705-1.575,1.575l0,0C295.247,324.938,295.953,325.643,296.822,325.643z"/>
		</g>
		<g>
			<path fill="#21323F" d="M327.104,325.643h50.37c0.87,0,1.575-0.705,1.575-1.575l0,0c0-0.87-0.705-1.575-1.575-1.575h-50.37
				c-0.87,0-1.575,0.705-1.575,1.575l0,0C325.529,324.938,326.234,325.643,327.104,325.643z"/>
		</g>
	</g>
</g>
</svg>
