<?xml version="1.0" encoding="utf-8"?>
<!-- Generator: Adobe Illustrator 16.0.0, SVG Export Plug-In . SVG Version: 6.00 Build 0)  -->
<!DOCTYPE svg PUBLIC "-//W3C//DTD SVG 1.1//EN" "http://www.w3.org/Graphics/SVG/1.1/DTD/svg11.dtd">
<svg version="1.1" id="Layer_1" xmlns="http://www.w3.org/2000/svg" xmlns:xlink="http://www.w3.org/1999/xlink" x="0px" y="0px"
	 width="687.848px" height="1000px" viewBox="0 0 687.848 1000" enable-background="new 0 0 687.848 1000" xml:space="preserve">
<g opacity="0.2">
	<path d="M-1,1002V0l688.848,0.25c0,0-266.07,95.044-230.859,295.044s69.076,218.247-74.586,292.896
		c-143.662,74.647-35.879,98.674-42.222,276.274C334.546,1022.21,146.988,1000.5,146.988,1000.5"/>
	<path d="M-1,1002V0l688.848,0.25c0,0-266.07,95.044-230.859,295.044s69.076,218.247-74.586,292.896
		c-143.662,74.647-35.879,98.674-42.222,276.274C334.546,1022.21,146.988,1000.5,146.988,1000.5"/>
	<path opacity="0.7" enable-background="new    " d="M-1,1002V0l688.848,0.25c0,0-266.07,95.044-230.859,295.044
		s69.076,218.247-74.586,292.896c-143.662,74.647-35.879,98.674-42.222,276.274C334.546,1022.21,146.988,1000.5,146.988,1000.5"/>
	<g opacity="0.49">
		<path d="M-0.647,1001.637c-0.85,0-0.702,0.687-0.702-0.397c0-0.792,0-1.584,0-2.376c0-3.127,0-6.254,0-9.38
			c0-11.903,0-23.808,0-35.71c0-42.249,0-84.498,0-126.747c0-58.923,0-117.847,0-176.769c0-66.096,0-132.189,0-198.286
			c0-63.768,0-127.535,0-191.303c0-51.939,0-103.879,0-155.819c0-30.611,0-61.222,0-91.833c0-4.338,0-8.677,0-13.015
			c0,0.02,16.02,0.015,17.154,0.015c40.31,0.015,80.62,0.029,120.93,0.044c62.385,0.022,124.77,0.045,187.155,0.068
			c64.346,0.023,128.692,0.046,193.038,0.07c46.193,0.017,92.389,0.034,138.58,0.05c10.004,0.004,20.008,0.007,30.012,0.011
			c3.064,0.001,2.693-0.155-0.234,0.968c-14.271,5.474-28.186,11.915-41.842,18.757C559.436,62.07,472.387,131.092,456.502,229.531
			c-3.254,20.16-2.973,40.82,0,60.989c4.195,28.45,10.488,56.703,16.25,84.869c5.42,26.509,11.426,53.095,14.217,80.043
			c2.068,19.982,1.518,40.474-7.637,58.729c-7.145,14.245-19.025,25.403-31.543,34.939c-20.676,15.755-44.016,27.973-66.988,39.961
			c-21.264,11.097-43.784,23.62-59.557,42.14c-10.113,11.873-14.378,26.227-13.425,41.673c0.805,13.043,4.856,25.854,8.595,38.289
			c2.958,9.837,6.028,19.639,8.819,29.525c6.255,22.168,10.878,44.729,13.38,67.635c3.616,33.101,4.739,68.264-5.621,100.313
			c-7.421,22.963-21.624,42.907-40.603,57.737c-39.03,30.498-95.213,38.346-143.293,34.321c-1.899-0.159-3.025-0.264-0.555-0.032
			c5.142,0.479,10.31,0.677,15.471,0.796c13.882,0.318,27.807-0.479,41.574-2.264c24.347-3.152,48.456-9.958,70.002-21.882
			c21.692-12.005,39.276-30.027,50.282-52.251c11.084-22.384,13.947-47.15,14.212-71.812c0.475-44.218-7.489-87.044-20.263-129.213
			c-7.446-24.58-19.453-53.314-8.201-78.48c7.997-17.887,25.418-30.438,41.388-40.675c35.828-22.965,77.57-37.713,108.6-67.788
			c9.09-8.81,16.508-19.205,20.854-31.146c3.793-10.423,4.914-21.592,4.883-32.62c-0.039-14.657-2.143-29.252-4.582-43.674
			c-3.705-21.899-8.422-43.626-12.852-65.386c-5.857-28.781-12.908-57.953-15.658-87.224c-3.189-33.968,3.168-67.982,17.146-98.979
			c23.588-52.312,67.715-93.211,114.582-124.77c31.074-20.924,64.857-38.986,99.914-52.333c0.047-0.018-0.023-0.726,0-0.726
			c-22.615-0.008-45.23-0.017-67.848-0.025C563.68,0.193,509.317,0.174,454.95,0.154c-65.89-0.023-131.782-0.047-197.674-0.071
			C200.08,0.063,142.883,0.042,85.687,0.021c-28.278-0.01-56.556-0.02-84.834-0.03c-0.5,0-1,0-1.5,0
			c-0.004,0-0.003,0.344-0.003,0.363c0,16.245,0,32.49,0,48.734c0,42.39,0,84.781,0,127.171c0,59.02,0,118.04,0,177.061
			c0,66.133,0,132.266,0,198.398c0,63.73,0,127.461,0,191.19c0,51.812,0,103.623,0,155.435c0,30.376,0,60.752,0,91.128
			c0,4.178,0,8.354,0,12.53c0,0.41,0.007,0.41,0.007,0c0-16.245,0-32.489,0-48.734c0-42.391,0-84.779,0-127.171
			c0-59.02,0-118.04,0-177.06c0-66.133,0-132.267,0-198.399c0-63.729,0-127.46,0-191.19c0-51.812,0-103.623,0-155.434
			c0-30.376,0-60.752,0-91.129c0-3.129,0-6.259,0-9.389c0-0.793,0-1.586,0-2.379c0-0.942-0.002-0.399,0.004-0.399
			C5.67,0.718,11.98,0.721,18.289,0.723c41.335,0.015,82.669,0.03,124.004,0.045c62.771,0.023,125.542,0.046,188.312,0.068
			c63.983,0.023,127.968,0.046,191.952,0.07c44.975,0.016,89.949,0.033,134.926,0.049c9.039,0.003,18.076,0.006,27.117,0.01
			c0.432,0,0.861,0,1.293,0c-0.727,0,0.053-0.747-1-0.343c-0.4,0.155-0.803,0.311-1.203,0.468c-1.004,0.391-2,0.789-2.998,1.189
			c-3.01,1.208-6,2.462-8.98,3.739c-19.908,8.531-39.252,18.391-57.992,29.242c-49.5,28.663-96.135,65.938-127.293,114.52
			c-28.416,44.306-38.559,96.246-29.441,147.884c8.518,48.25,20.545,95.997,27.641,144.481c4.291,29.312,5.082,59.557-13.844,84.043
			c-9.248,11.967-21.498,21.411-33.924,29.849c-18.486,12.551-38.346,22.903-58.087,33.295
			c-20.875,10.99-42.904,23.434-58.322,41.724c-10.053,11.927-14.278,26.336-13.341,41.783c0.796,13.113,4.865,25.994,8.624,38.494
			c2.958,9.839,6.029,19.641,8.819,29.529c6.246,22.133,10.862,44.66,13.362,67.529c3.605,32.991,4.739,68.047-5.581,99.994
			c-7.388,22.872-21.534,42.729-40.447,57.486c-21.463,16.748-48.154,25.896-74.661,30.777c-13.712,2.524-27.65,3.732-41.58,4.069
			c-6.879,0.167-13.765,0.038-20.636-0.321c-1.333-0.07-7.892-1.372-8.061,0.089c-0.008,0.069-0.017,0.725,0,0.727
			c22.285,2.479,45.461,1.021,67.524-2.641c24.669-4.095,48.951-12.156,70.005-25.836c20.517-13.329,36.218-32.607,45.515-55.183
			c8.937-21.697,10.88-45.152,10.813-68.385c-0.07-24.446-2.289-48.777-6.864-72.797c-3.779-19.838-9.372-39.221-15.267-58.516
			c-7.539-24.675-17.822-52.769-3.798-77.01c10.609-18.341,30.353-30.768,48.11-41.227c24.349-14.339,50.024-26.109,73.587-41.83
			c14.371-9.588,28.383-20.646,38.164-35.08c18.875-27.85,13.754-63.699,8.424-94.849c-4.744-27.729-10.912-55.212-16.395-82.801
			c-6.314-31.791-14.068-63.981-12.238-96.602c2.729-48.627,25.307-93.209,56.727-129.604
			c28.164-32.621,63.209-58.87,100.162-80.708c24.266-14.34,49.965-27.635,76.551-37.205c0.039-0.014,0.014-0.651,0-0.726
			c-0.318-1.834-15.744-0.69-17.605-0.691c-16.324-0.006-32.648-0.012-48.973-0.018c-54.082-0.02-108.164-0.039-162.246-0.059
			C393.247-0.572,327.347-0.596,261.448-0.62C203.847-0.641,146.245-0.662,88.644-0.683c-29.19-0.01-58.381-0.021-87.572-0.032
			c-0.808,0-1.616,0-2.424,0c-0.004,0-0.003,0.344-0.003,0.363c0,16.04,0,32.08,0,48.12c0,42.142,0,84.284,0,126.426
			c0,58.862,0,117.725,0,176.588c0,66.083,0,132.166,0,198.249c0,63.803,0,127.604,0,191.409c0,52.021,0,104.045,0,156.065
			c0,30.742,0,61.483,0,92.225c0,4.424,0,8.848,0,13.271c0,0.019-0.001,0.363,0.003,0.363c0.235,0,0.47,0,0.705,0
			C-0.642,1002.363-0.642,1001.637-0.647,1001.637z"/>
	</g>
	<path stroke="#717171" stroke-miterlimit="1" d="M-1.5,1002V0l689.098,0.25c0,0-265.945,95.044-230.734,295.044
		s69.139,218.247-74.523,292.896c-143.663,74.647-35.848,98.674-42.191,276.274C334.515,1022.21,146.722,1000.5,146.722,1000.5"/>
	<g opacity="0.58">
		<path d="M-1,1002c0-16.209,0-32.419,0-48.628c0-42.308,0-84.614,0-126.922c0-58.923,0-117.847,0-176.771
			c0-66.059,0-132.115,0-198.175c0-63.711,0-127.423,0-191.134c0-51.884,0-103.767,0-155.65C-1,74.147-1,43.574-1,13
			c0-4.333,0-8.666,0-12.999c0,0.126,17.178,0.065,18.15,0.065c40.88,0.015,81.76,0.03,122.64,0.045
			c62.54,0.022,125.08,0.045,187.62,0.068c64.145,0.023,128.29,0.046,192.432,0.07c45.693,0.017,91.389,0.033,137.08,0.05
			c9.66,0.003,19.32,0.007,28.98,0.01c1.322,0,2.719-0.414,0.818,0.294c-4.252,1.584-8.455,3.302-12.637,5.064
			c-46.533,19.612-91.027,45.949-129.322,78.936c-50.758,43.724-90.371,103.367-90.973,172.343
			c-0.152,17.322,2.387,34.16,5.484,51.164c4.197,23.063,8.834,46.042,13.531,69.008c6.637,32.433,15.408,66.037,14.846,99.377
			c-0.379,22.313-8.055,42.009-23.57,58.13c-22.168,23.03-52.537,38.303-80.516,52.897c-16.873,8.803-33.656,18.179-48.504,30.175
			c-9.342,7.549-17.947,16.498-23.077,27.484c-7.973,17.075-4.218,36.104,0.525,53.493c8.296,30.419,18.446,59.958,23.396,91.23
			c4.209,26.596,5.701,53.986,3.943,80.849c-1.222,18.657-5.492,37.166-13.643,54.04c-25.182,52.126-83.782,72.389-137.969,76.037
			c-13.633,0.918-27.641,1.172-41.25-0.394c0.004,0-0.005,0.12,0,0.121c11.333,1.304,22.927,1.227,34.301,0.767
			c24.811-1.003,49.727-5.175,73.004-13.98c27.303-10.33,51.533-27.998,66.859-53.145c18.72-30.718,20.375-67.229,18.932-102.218
			c-1.516-36.751-9.208-72.362-19.839-107.459c-6.761-22.316-17.397-47.929-11.081-71.495c7.181-26.789,35.559-43.714,57.924-56.476
			c30.391-17.341,63.037-31.571,89.631-54.82c16.541-14.459,27.662-32.494,30.248-54.515c2.756-23.464-1.939-47.622-6.246-70.587
			c-8.033-42.862-18.619-85.389-24.875-128.567c-5.676-39.181,0.758-78.787,17.857-114.385
			c27.846-57.97,79.885-101.544,134.059-134.104c25.311-15.212,52.207-29.292,80.086-39.266c0.008-0.003-0.004-0.121,0-0.121
			c-22.529-0.008-45.059-0.016-67.588-0.024c-54.217-0.02-108.434-0.04-162.648-0.059C391.76,0.08,325.911,0.056,260.062,0.032
			c-57.424-0.019-114.85-0.039-172.275-0.06C58.839-0.039,29.893-0.049,0.946-0.06c-0.648,0-1.297,0-1.946-0.001
			c0,0,0,0.058,0,0.061c0,16.209,0,32.419,0,48.628c0,42.307,0,84.614,0,126.921c0,58.923,0,117.847,0,176.771
			c0,66.059,0,132.116,0,198.175c0,63.712,0,127.423,0,191.135c0,51.883,0,103.768,0,155.65c0,30.572,0,61.146,0,91.721
			C-1,993.333-1,997.667-1,1002C-1,1002.068-1,1002.068-1,1002L-1,1002z"/>
	</g>
</g>
</svg>
