<?xml version="1.0" encoding="utf-8"?>
<!-- Generator: Adobe Illustrator 16.0.0, SVG Export Plug-In . SVG Version: 6.00 Build 0)  -->
<!DOCTYPE svg PUBLIC "-//W3C//DTD SVG 1.1//EN" "http://www.w3.org/Graphics/SVG/1.1/DTD/svg11.dtd">
<svg version="1.1" id="Layer_1" xmlns="http://www.w3.org/2000/svg" xmlns:xlink="http://www.w3.org/1999/xlink" x="0px" y="0px"
	 width="743.27px" height="589.917px" viewBox="0 0 743.27 589.917" enable-background="new 0 0 743.27 589.917"
	 xml:space="preserve">
<g>
	<defs>
		<rect id="SVGID_1_" width="1015.192" height="589.917"/>
	</defs>
	<clipPath id="SVGID_2_">
		<use xlink:href="#SVGID_1_"  overflow="visible"/>
	</clipPath>
	<g clip-path="url(#SVGID_2_)">
		<g>
			<g>
				<linearGradient id="SVGID_3_" gradientUnits="userSpaceOnUse" x1="439.8979" y1="-22.4795" x2="592.6074" y2="658.1696">
					<stop  offset="0.0992" style="stop-color:#7B6CEA"/>
					<stop  offset="0.3293" style="stop-color:#D670BA"/>
					<stop  offset="0.4384" style="stop-color:#FB7D80"/>
					<stop  offset="0.7233" style="stop-color:#F9D040"/>
				</linearGradient>
				<ellipse fill="url(#SVGID_3_)" cx="481.951" cy="164.958" rx="78.254" ry="80.84"/>
				<g>
					
						<linearGradient id="SVGID_4_" gradientUnits="userSpaceOnUse" x1="381.5103" y1="130.3604" x2="88.0186" y2="506.5806" gradientTransform="matrix(0.7071 0.7071 -0.7071 0.7071 78.4882 167.3583)">
						<stop  offset="0.0992" style="stop-color:#7B6CEA"/>
						<stop  offset="0.3293" style="stop-color:#D670BA"/>
						<stop  offset="0.4384" style="stop-color:#FB7D80"/>
						<stop  offset="0.7233" style="stop-color:#F9D040"/>
					</linearGradient>
					<path fill="url(#SVGID_4_)" d="M-2.266,629.746L-2.266,629.746c-10.932-11.293-10.932-29.601,0-40.895l111.117-114.789
						c10.932-11.291,28.654-11.291,39.585,0l0,0c10.933,11.293,10.933,29.604,0,40.894L37.318,629.746
						C26.388,641.04,8.665,641.04-2.266,629.746z"/>
					
						<linearGradient id="SVGID_5_" gradientUnits="userSpaceOnUse" x1="722.6978" y1="63.9893" x2="429.2081" y2="440.2069" gradientTransform="matrix(-0.7071 -0.7071 0.7071 -0.7071 738.1524 1061.4073)">
						<stop  offset="0.0992" style="stop-color:#7B6CEA"/>
						<stop  offset="0.3293" style="stop-color:#D670BA"/>
						<stop  offset="0.4384" style="stop-color:#FB7D80"/>
						<stop  offset="0.7233" style="stop-color:#F9D040"/>
					</linearGradient>
					<path fill="url(#SVGID_5_)" d="M530.719,404.692L530.719,404.692c10.932,11.293,10.932,29.603,0,40.895L419.603,560.376
						c-10.93,11.293-28.654,11.293-39.585,0l0,0c-10.931-11.291-10.931-29.602,0-40.894l111.117-114.79
						C502.067,393.401,519.79,393.401,530.719,404.692z"/>
					
						<linearGradient id="SVGID_6_" gradientUnits="userSpaceOnUse" x1="493.4502" y1="-65.7803" x2="199.9585" y2="310.44" gradientTransform="matrix(0.7071 0.7071 -0.7071 0.7071 78.4882 167.3583)">
						<stop  offset="0.0992" style="stop-color:#7B6CEA"/>
						<stop  offset="0.3293" style="stop-color:#D670BA"/>
						<stop  offset="0.4384" style="stop-color:#FB7D80"/>
						<stop  offset="0.7233" style="stop-color:#F9D040"/>
					</linearGradient>
					<path fill="url(#SVGID_6_)" d="M215.577,570.208L215.577,570.208c-10.931-11.292-10.931-29.602,0-40.895l111.118-114.788
						c10.931-11.293,28.655-11.293,39.585,0l0,0c10.932,11.292,10.932,29.602,0,40.893l-111.118,114.79
						C244.232,581.501,226.508,581.501,215.577,570.208z"/>
					
						<linearGradient id="SVGID_7_" gradientUnits="userSpaceOnUse" x1="553.3931" y1="68.9395" x2="259.9006" y2="445.1607" gradientTransform="matrix(0.7071 0.7071 -0.7071 0.7071 78.4882 167.3583)">
						<stop  offset="0.0992" style="stop-color:#7B6CEA"/>
						<stop  offset="0.3293" style="stop-color:#D670BA"/>
						<stop  offset="0.4384" style="stop-color:#FB7D80"/>
						<stop  offset="0.7233" style="stop-color:#F9D040"/>
					</linearGradient>
					<path fill="url(#SVGID_7_)" d="M162.703,707.855L162.703,707.855c-10.933-11.292-10.933-29.602,0-40.895l111.116-114.789
						c10.932-11.293,28.655-11.293,39.586,0h0c10.932,11.293,10.932,29.601,0,40.893L202.288,707.855
						C191.356,719.148,173.634,719.148,162.703,707.855z"/>
					<g>
						
							<linearGradient id="SVGID_8_" gradientUnits="userSpaceOnUse" x1="357.583" y1="55.3936" x2="-19.15" y2="538.3189" gradientTransform="matrix(0.7071 0.7071 -0.7071 0.7071 78.4882 167.3583)">
							<stop  offset="0.0992" style="stop-color:#7B6CEA"/>
							<stop  offset="0.3293" style="stop-color:#D670BA"/>
							<stop  offset="0.4384" style="stop-color:#FB7D80"/>
							<stop  offset="0.7233" style="stop-color:#F9D040"/>
						</linearGradient>
						<path fill="url(#SVGID_8_)" d="M-40.813,590.812L-40.813,590.812c-10.931-11.292-10.931-29.6,0-40.894l156.59-163.95
							c10.931-11.293,28.655-11.293,39.585,0l0,0c10.932,11.293,10.932,29.602,0,40.895L-1.228,590.812
							C-12.159,602.104-29.882,602.104-40.813,590.812z"/>
					</g>
				</g>
				<g>
					
						<linearGradient id="SVGID_9_" gradientUnits="userSpaceOnUse" x1="-379.6323" y1="163.5439" x2="-562.8961" y2="398.4656" gradientTransform="matrix(0.7071 0.7071 -0.7071 0.7071 655.6454 608.9755)">
						<stop  offset="0.0992" style="stop-color:#7B6CEA"/>
						<stop  offset="0.3293" style="stop-color:#D670BA"/>
						<stop  offset="0.4384" style="stop-color:#FB7D80"/>
						<stop  offset="0.7233" style="stop-color:#F9D040"/>
					</linearGradient>
					<path fill="url(#SVGID_9_)" d="M107.575,521.663L107.575,521.663c-1.239-1.279-1.239-3.353,0-4.633l94.966-98.104
						c1.239-1.281,3.247-1.281,4.486,0l0,0c1.239,1.279,1.239,3.354,0,4.634l-94.965,98.104
						C110.824,522.942,108.815,522.942,107.575,521.663z"/>
					
						<linearGradient id="SVGID_10_" gradientUnits="userSpaceOnUse" x1="-813.895" y1="970.5293" x2="-997.158" y2="1205.45" gradientTransform="matrix(-0.7071 -0.7071 0.7071 -0.7071 -1296.4535 586.9718)">
						<stop  offset="0.0992" style="stop-color:#7B6CEA"/>
						<stop  offset="0.3293" style="stop-color:#D670BA"/>
						<stop  offset="0.4384" style="stop-color:#FB7D80"/>
						<stop  offset="0.7233" style="stop-color:#F9D040"/>
					</linearGradient>
					<path fill="url(#SVGID_10_)" d="M129.302,410.732L129.302,410.732c1.239,1.279,1.239,3.354,0,4.636l-94.965,98.103
						c-1.239,1.279-3.248,1.279-4.487,0l0,0c-1.239-1.279-1.239-3.355,0-4.635l94.965-98.104
						C126.054,409.452,128.063,409.452,129.302,410.732z"/>
					
						<linearGradient id="SVGID_11_" gradientUnits="userSpaceOnUse" x1="-323.248" y1="79.3496" x2="-506.5102" y2="314.2692" gradientTransform="matrix(0.7071 0.7071 -0.7071 0.7071 655.6454 608.9755)">
						<stop  offset="0.0992" style="stop-color:#7B6CEA"/>
						<stop  offset="0.3293" style="stop-color:#D670BA"/>
						<stop  offset="0.4384" style="stop-color:#FB7D80"/>
						<stop  offset="0.7233" style="stop-color:#F9D040"/>
					</linearGradient>
					<path fill="url(#SVGID_11_)" d="M206.98,501.999L206.98,501.999c-1.239-1.28-1.239-3.354,0-4.634l94.966-98.104
						c1.239-1.28,3.247-1.28,4.487,0l0,0c1.238,1.279,1.238,3.355,0,4.636l-94.967,98.102
						C210.228,503.279,208.219,503.279,206.98,501.999z"/>
					
						<linearGradient id="SVGID_12_" gradientUnits="userSpaceOnUse" x1="-319.3193" y1="250.7759" x2="-502.5839" y2="485.6985" gradientTransform="matrix(0.7071 0.7071 -0.7071 0.7071 655.6454 608.9755)">
						<stop  offset="0.0992" style="stop-color:#7B6CEA"/>
						<stop  offset="0.3293" style="stop-color:#D670BA"/>
						<stop  offset="0.4384" style="stop-color:#FB7D80"/>
						<stop  offset="0.7233" style="stop-color:#F9D040"/>
					</linearGradient>
					<path fill="url(#SVGID_12_)" d="M88.54,625.992L88.54,625.992c-1.238-1.279-1.238-3.354,0-4.636l94.967-98.104
						c1.238-1.278,3.247-1.278,4.486,0l0,0c1.239,1.282,1.239,3.355,0,4.636l-94.965,98.104
						C91.789,627.272,89.78,627.272,88.54,625.992z"/>
					
						<linearGradient id="SVGID_13_" gradientUnits="userSpaceOnUse" x1="-27.2656" y1="456.1104" x2="-210.5292" y2="691.0317" gradientTransform="matrix(-0.7071 -0.7071 0.7071 -0.7071 -26.4535 826.9718)">
						<stop  offset="0.0992" style="stop-color:#7B6CEA"/>
						<stop  offset="0.3293" style="stop-color:#D670BA"/>
						<stop  offset="0.4384" style="stop-color:#FB7D80"/>
						<stop  offset="0.7233" style="stop-color:#F9D040"/>
					</linearGradient>
					<path fill="url(#SVGID_13_)" d="M479.331,458.253L479.331,458.253c1.241,1.279,1.241,3.355,0,4.634l-94.964,98.105
						c-1.239,1.279-3.248,1.279-4.487,0l0,0c-1.238-1.281-1.238-3.354,0-4.636l94.967-98.104
						C476.083,456.974,478.093,456.974,479.331,458.253z"/>
					
						<linearGradient id="SVGID_14_" gradientUnits="userSpaceOnUse" x1="-97.54" y1="410.5137" x2="-280.8014" y2="645.4323" gradientTransform="matrix(-0.7071 -0.7071 0.7071 -0.7071 -26.4535 826.9718)">
						<stop  offset="0.0992" style="stop-color:#7B6CEA"/>
						<stop  offset="0.3293" style="stop-color:#D670BA"/>
						<stop  offset="0.4384" style="stop-color:#FB7D80"/>
						<stop  offset="0.7233" style="stop-color:#F9D040"/>
					</linearGradient>
					<path fill="url(#SVGID_14_)" d="M496.78,540.186L496.78,540.186c1.239,1.28,1.239,3.355,0,4.636l-94.965,98.104
						c-1.24,1.278-3.248,1.278-4.487,0l0,0c-1.238-1.28-1.238-3.354,0-4.635l94.967-98.104
						C493.533,538.905,495.542,538.905,496.78,540.186z"/>
					
						<linearGradient id="SVGID_15_" gradientUnits="userSpaceOnUse" x1="21.1973" y1="352.0283" x2="-162.0669" y2="586.9504" gradientTransform="matrix(-0.7071 -0.7071 0.7071 -0.7071 -26.4535 826.9718)">
						<stop  offset="0.0992" style="stop-color:#7B6CEA"/>
						<stop  offset="0.3293" style="stop-color:#D670BA"/>
						<stop  offset="0.4384" style="stop-color:#FB7D80"/>
						<stop  offset="0.7233" style="stop-color:#F9D040"/>
					</linearGradient>
					<path fill="url(#SVGID_15_)" d="M371.468,497.581L371.468,497.581c1.239,1.28,1.239,3.354,0,4.633l-94.967,98.105
						c-1.238,1.279-3.247,1.279-4.486,0l0,0c-1.239-1.28-1.239-3.355,0-4.636l94.966-98.103
						C368.22,496.301,370.229,496.301,371.468,497.581z"/>
					
						<linearGradient id="SVGID_16_" gradientUnits="userSpaceOnUse" x1="-382.2524" y1="2.3989" x2="-565.5136" y2="237.3172" gradientTransform="matrix(0.7071 0.7071 -0.7071 0.7071 655.6454 608.9755)">
						<stop  offset="0.0992" style="stop-color:#7B6CEA"/>
						<stop  offset="0.3293" style="stop-color:#D670BA"/>
						<stop  offset="0.4384" style="stop-color:#FB7D80"/>
						<stop  offset="0.7233" style="stop-color:#F9D040"/>
					</linearGradient>
					<path fill="url(#SVGID_16_)" d="M219.67,405.864L219.67,405.864c-1.238-1.279-1.238-3.355,0-4.633l94.966-98.105
						c1.239-1.279,3.247-1.279,4.486,0l0,0c1.239,1.281,1.239,3.356,0,4.636l-94.965,98.103
						C222.917,407.145,220.909,407.145,219.67,405.864z"/>
					
						<linearGradient id="SVGID_17_" gradientUnits="userSpaceOnUse" x1="262.7734" y1="181.9253" x2="79.5099" y2="416.8466" gradientTransform="matrix(-0.7071 -0.7071 0.7071 -0.7071 483.546 882.9718)">
						<stop  offset="0.0992" style="stop-color:#7B6CEA"/>
						<stop  offset="0.3293" style="stop-color:#D670BA"/>
						<stop  offset="0.4384" style="stop-color:#FB7D80"/>
						<stop  offset="0.7233" style="stop-color:#F9D040"/>
					</linearGradient>
					<path fill="url(#SVGID_17_)" d="M590.37,503.042L590.37,503.042c1.238,1.281,1.238,3.356,0,4.636l-94.967,98.104
						c-1.239,1.28-3.248,1.28-4.487,0l0,0c-1.237-1.278-1.237-3.355,0-4.634l94.966-98.105
						C587.12,501.764,589.129,501.764,590.37,503.042z"/>
					
						<linearGradient id="SVGID_18_" gradientUnits="userSpaceOnUse" x1="-730.0522" y1="1057.5576" x2="-913.3152" y2="1292.4783" gradientTransform="matrix(-0.7071 -0.7071 0.7071 -0.7071 -1312.4535 768.9718)">
						<stop  offset="0.0992" style="stop-color:#7B6CEA"/>
						<stop  offset="0.3293" style="stop-color:#D670BA"/>
						<stop  offset="0.4384" style="stop-color:#FB7D80"/>
						<stop  offset="0.7233" style="stop-color:#F9D040"/>
					</linearGradient>
					<path fill="url(#SVGID_18_)" d="M115.555,471.907L115.555,471.907c1.239,1.28,1.239,3.357,0,4.636l-94.965,98.104
						c-1.239,1.28-3.247,1.28-4.486,0l0,0c-1.239-1.279-1.239-3.354,0-4.634l94.965-98.105
						C112.307,470.629,114.316,470.629,115.555,471.907z"/>
				</g>
			</g>
		</g>
	</g>
</g>
</svg>
